G75*
%MOIN*%
%OFA0B0*%
%FSLAX24Y24*%
%IPPOS*%
%LPD*%
%AMOC8*
5,1,8,0,0,1.08239X$1,22.5*
%
%ADD10C,0.0040*%
%ADD11C,0.0050*%
%ADD12C,0.0030*%
%ADD13C,0.0100*%
%ADD14C,0.0080*%
%ADD15C,0.0060*%
%ADD16C,0.0000*%
%ADD17R,0.0013X0.0003*%
%ADD18R,0.0018X0.0003*%
%ADD19R,0.0022X0.0003*%
%ADD20R,0.0027X0.0003*%
%ADD21R,0.0032X0.0003*%
%ADD22R,0.0037X0.0003*%
%ADD23R,0.0043X0.0003*%
%ADD24R,0.0047X0.0003*%
%ADD25R,0.0053X0.0003*%
%ADD26R,0.0057X0.0003*%
%ADD27R,0.0060X0.0003*%
%ADD28R,0.0065X0.0003*%
%ADD29R,0.0067X0.0003*%
%ADD30R,0.0070X0.0003*%
%ADD31R,0.0035X0.0003*%
%ADD32R,0.0063X0.0003*%
%ADD33R,0.0040X0.0003*%
%ADD34R,0.0045X0.0003*%
%ADD35R,0.0050X0.0003*%
%ADD36R,0.0055X0.0003*%
%ADD37R,0.0005X0.0003*%
%ADD38R,0.0073X0.0003*%
%ADD39R,0.0075X0.0003*%
%ADD40R,0.0077X0.0003*%
%ADD41R,0.0080X0.0003*%
%ADD42R,0.0083X0.0003*%
%ADD43R,0.0010X0.0003*%
%ADD44R,0.0015X0.0003*%
%ADD45R,0.0020X0.0003*%
%ADD46R,0.0025X0.0003*%
%ADD47R,0.0030X0.0003*%
%ADD48R,0.0008X0.0003*%
%ADD49R,0.0088X0.0003*%
%ADD50R,0.0095X0.0003*%
%ADD51R,0.0105X0.0003*%
%ADD52R,0.0113X0.0003*%
%ADD53R,0.0085X0.0003*%
%ADD54R,0.0120X0.0003*%
%ADD55R,0.0098X0.0003*%
%ADD56R,0.0103X0.0003*%
%ADD57R,0.0107X0.0003*%
%ADD58R,0.0115X0.0003*%
%ADD59R,0.0118X0.0003*%
%ADD60R,0.0100X0.0003*%
%ADD61R,0.0123X0.0003*%
%ADD62R,0.0127X0.0003*%
%ADD63R,0.0092X0.0003*%
%ADD64R,0.0147X0.0003*%
%ADD65R,0.0125X0.0003*%
%ADD66R,0.0145X0.0003*%
%ADD67R,0.0143X0.0003*%
%ADD68R,0.0133X0.0003*%
%ADD69R,0.0130X0.0003*%
%ADD70R,0.0090X0.0003*%
%ADD71R,0.0003X0.0003*%
%ADD72C,0.0100*%
D10*
X002273Y002020D02*
X002428Y002020D01*
X002480Y002072D01*
X002480Y002279D01*
X002428Y002330D01*
X002273Y002330D01*
X002273Y002020D01*
X002595Y002020D02*
X002802Y002020D01*
X002699Y002020D02*
X002699Y002330D01*
X002595Y002227D01*
X002595Y003020D02*
X002802Y003227D01*
X002802Y003279D01*
X002750Y003330D01*
X002647Y003330D01*
X002595Y003279D01*
X002480Y003279D02*
X002428Y003330D01*
X002273Y003330D01*
X002273Y003020D01*
X002428Y003020D01*
X002480Y003072D01*
X002480Y003279D01*
X002595Y003020D02*
X002802Y003020D01*
X003251Y004470D02*
X003318Y004470D01*
X003351Y004503D01*
X003351Y004670D01*
X003439Y004637D02*
X003439Y004603D01*
X003472Y004570D01*
X003539Y004570D01*
X003572Y004537D01*
X003572Y004503D01*
X003539Y004470D01*
X003472Y004470D01*
X003439Y004503D01*
X003439Y004637D02*
X003472Y004670D01*
X003539Y004670D01*
X003572Y004637D01*
X003660Y004670D02*
X003760Y004670D01*
X003793Y004637D01*
X003793Y004603D01*
X003760Y004570D01*
X003660Y004570D01*
X003760Y004570D02*
X003793Y004537D01*
X003793Y004503D01*
X003760Y004470D01*
X003660Y004470D01*
X003660Y004670D01*
X003218Y004670D02*
X003218Y004503D01*
X003251Y004470D01*
X002700Y008020D02*
X002597Y008020D01*
X002545Y008072D01*
X002430Y008072D02*
X002430Y008279D01*
X002378Y008330D01*
X002223Y008330D01*
X002223Y008020D01*
X002378Y008020D01*
X002430Y008072D01*
X002649Y008175D02*
X002700Y008175D01*
X002752Y008123D01*
X002752Y008072D01*
X002700Y008020D01*
X002700Y008175D02*
X002752Y008227D01*
X002752Y008279D01*
X002700Y008330D01*
X002597Y008330D01*
X002545Y008279D01*
X002700Y009020D02*
X002700Y009330D01*
X002545Y009175D01*
X002752Y009175D01*
X002430Y009072D02*
X002430Y009279D01*
X002378Y009330D01*
X002223Y009330D01*
X002223Y009020D01*
X002378Y009020D01*
X002430Y009072D01*
X012318Y004320D02*
X012318Y004220D01*
X012384Y004253D01*
X012418Y004253D01*
X012451Y004220D01*
X012451Y004153D01*
X012418Y004120D01*
X012351Y004120D01*
X012318Y004153D01*
X012318Y004320D02*
X012451Y004320D01*
X012539Y004320D02*
X012539Y004187D01*
X012605Y004120D01*
X012672Y004187D01*
X012672Y004320D01*
X014118Y003279D02*
X014118Y003072D01*
X014169Y003020D01*
X014273Y003020D01*
X014324Y003072D01*
X014440Y003072D02*
X014440Y003020D01*
X014440Y003072D02*
X014647Y003279D01*
X014647Y003330D01*
X014440Y003330D01*
X014324Y003279D02*
X014273Y003330D01*
X014169Y003330D01*
X014118Y003279D01*
X013003Y002620D02*
X013003Y002487D01*
X012937Y002420D01*
X012870Y002487D01*
X012870Y002620D01*
X012782Y002587D02*
X012782Y002553D01*
X012749Y002520D01*
X012782Y002487D01*
X012782Y002453D01*
X012749Y002420D01*
X012682Y002420D01*
X012649Y002453D01*
X012572Y002453D02*
X012572Y002420D01*
X012539Y002420D01*
X012539Y002453D01*
X012572Y002453D01*
X012451Y002453D02*
X012418Y002420D01*
X012351Y002420D01*
X012318Y002453D01*
X012384Y002520D02*
X012418Y002520D01*
X012451Y002487D01*
X012451Y002453D01*
X012418Y002520D02*
X012451Y002553D01*
X012451Y002587D01*
X012418Y002620D01*
X012351Y002620D01*
X012318Y002587D01*
X012649Y002587D02*
X012682Y002620D01*
X012749Y002620D01*
X012782Y002587D01*
X012749Y002520D02*
X012716Y002520D01*
X015927Y002520D02*
X015927Y002453D01*
X015961Y002420D01*
X016094Y002420D01*
X016128Y002453D01*
X016128Y002520D01*
X016094Y002553D01*
X016027Y002553D01*
X016027Y002487D01*
X015961Y002553D02*
X015927Y002520D01*
X015927Y002641D02*
X016128Y002774D01*
X015927Y002774D01*
X015927Y002862D02*
X015927Y002962D01*
X015961Y002995D01*
X016094Y002995D01*
X016128Y002962D01*
X016128Y002862D01*
X015927Y002862D01*
X015927Y002641D02*
X016128Y002641D01*
X016094Y003320D02*
X015961Y003320D01*
X015927Y003353D01*
X015927Y003420D01*
X015961Y003453D01*
X015927Y003541D02*
X015927Y003674D01*
X015927Y003608D02*
X016128Y003608D01*
X016094Y003453D02*
X016128Y003420D01*
X016128Y003353D01*
X016094Y003320D01*
X016094Y003762D02*
X016128Y003795D01*
X016128Y003862D01*
X016094Y003895D01*
X016061Y003895D01*
X016027Y003862D01*
X016027Y003795D01*
X015994Y003762D01*
X015961Y003762D01*
X015927Y003795D01*
X015927Y003862D01*
X015961Y003895D01*
X015994Y003983D02*
X015927Y004050D01*
X016128Y004050D01*
X016128Y004116D02*
X016128Y003983D01*
X016094Y004320D02*
X016128Y004353D01*
X016128Y004420D01*
X016094Y004453D01*
X016027Y004453D01*
X015994Y004420D01*
X015994Y004387D01*
X016027Y004320D01*
X015927Y004320D01*
X015927Y004453D01*
X015927Y004541D02*
X016061Y004541D01*
X016128Y004608D01*
X016061Y004674D01*
X015927Y004674D01*
X015961Y004762D02*
X015927Y004795D01*
X015927Y004862D01*
X015961Y004895D01*
X016094Y004762D01*
X016128Y004795D01*
X016128Y004862D01*
X016094Y004895D01*
X015961Y004895D01*
X015961Y004762D02*
X016094Y004762D01*
X015927Y005320D02*
X015927Y005453D01*
X015927Y005387D02*
X016128Y005387D01*
X016128Y005541D02*
X015927Y005674D01*
X015927Y005762D02*
X015927Y005862D01*
X015961Y005895D01*
X016094Y005895D01*
X016128Y005862D01*
X016128Y005762D01*
X015927Y005762D01*
X016128Y005674D02*
X015927Y005541D01*
X015994Y005983D02*
X015927Y006050D01*
X016128Y006050D01*
X016128Y006116D02*
X016128Y005983D01*
X016128Y006320D02*
X015927Y006320D01*
X015927Y006420D01*
X015961Y006453D01*
X016027Y006453D01*
X016061Y006420D01*
X016061Y006320D01*
X016061Y006387D02*
X016128Y006453D01*
X016128Y006541D02*
X015927Y006674D01*
X015927Y006762D02*
X015927Y006862D01*
X015961Y006895D01*
X016094Y006895D01*
X016128Y006862D01*
X016128Y006762D01*
X015927Y006762D01*
X016128Y006674D02*
X015927Y006541D01*
X015994Y006983D02*
X015927Y007050D01*
X016128Y007050D01*
X016128Y007116D02*
X016128Y006983D01*
X016128Y007220D02*
X015927Y007220D01*
X015927Y007320D01*
X015961Y007353D01*
X016094Y007353D01*
X016128Y007320D01*
X016128Y007220D01*
X015927Y007441D02*
X015927Y007574D01*
X015927Y007508D02*
X016128Y007508D01*
X016128Y007662D02*
X015927Y007662D01*
X015927Y007762D01*
X015961Y007795D01*
X016027Y007795D01*
X016061Y007762D01*
X016061Y007662D01*
X016061Y007729D02*
X016128Y007795D01*
X016128Y007883D02*
X016128Y008016D01*
X016128Y007950D02*
X015927Y007950D01*
X015994Y007883D01*
X015927Y008420D02*
X015927Y008520D01*
X015961Y008553D01*
X016027Y008553D01*
X016061Y008520D01*
X016061Y008420D01*
X016128Y008420D02*
X015927Y008420D01*
X016061Y008487D02*
X016128Y008553D01*
X016128Y008708D02*
X015927Y008708D01*
X015927Y008774D02*
X015927Y008641D01*
X015961Y008862D02*
X015994Y008862D01*
X016027Y008895D01*
X016027Y008962D01*
X016061Y008995D01*
X016094Y008995D01*
X016128Y008962D01*
X016128Y008895D01*
X016094Y008862D01*
X015961Y008862D02*
X015927Y008895D01*
X015927Y008962D01*
X015961Y008995D01*
X015994Y009083D02*
X015927Y009150D01*
X016128Y009150D01*
X016128Y009216D02*
X016128Y009083D01*
X016128Y009320D02*
X015927Y009320D01*
X015927Y009420D01*
X015961Y009453D01*
X016094Y009453D01*
X016128Y009420D01*
X016128Y009320D01*
X016094Y009541D02*
X016128Y009574D01*
X016128Y009641D01*
X016094Y009674D01*
X016061Y009674D01*
X016027Y009641D01*
X016027Y009574D01*
X015994Y009541D01*
X015961Y009541D01*
X015927Y009574D01*
X015927Y009641D01*
X015961Y009674D01*
X015927Y009762D02*
X015927Y009862D01*
X015961Y009895D01*
X016027Y009895D01*
X016061Y009862D01*
X016061Y009762D01*
X016128Y009762D02*
X015927Y009762D01*
X016061Y009829D02*
X016128Y009895D01*
X016128Y009983D02*
X016128Y010116D01*
X016128Y010050D02*
X015927Y010050D01*
X015994Y009983D01*
X014452Y009329D02*
X014452Y009277D01*
X014400Y009225D01*
X014297Y009225D01*
X014245Y009277D01*
X014245Y009329D01*
X014297Y009380D01*
X014400Y009380D01*
X014452Y009329D01*
X014400Y009225D02*
X014452Y009173D01*
X014452Y009122D01*
X014400Y009070D01*
X014297Y009070D01*
X014245Y009122D01*
X014245Y009173D01*
X014297Y009225D01*
X014130Y009122D02*
X014078Y009070D01*
X013975Y009070D01*
X013923Y009122D01*
X013923Y009329D01*
X013975Y009380D01*
X014078Y009380D01*
X014130Y009329D01*
D11*
X014323Y009700D02*
X014323Y009900D01*
X014223Y009800D02*
X014423Y009800D01*
X015223Y009475D02*
X013573Y009475D01*
X013573Y010125D01*
X015223Y010125D01*
X015223Y009475D01*
X014348Y008650D02*
X013848Y008650D01*
X013848Y007550D01*
X014348Y007550D01*
X014348Y008650D01*
X013708Y008130D02*
X013528Y007950D01*
X013573Y007905D01*
X013663Y007905D01*
X013708Y007950D01*
X013708Y008130D01*
X013663Y008175D01*
X013573Y008175D01*
X013528Y008130D01*
X013528Y007950D01*
X013413Y007905D02*
X013233Y007905D01*
X013323Y007905D02*
X013323Y008175D01*
X013233Y008085D01*
X013119Y008040D02*
X013074Y007995D01*
X012939Y007995D01*
X013029Y007995D02*
X013119Y007905D01*
X013119Y008040D02*
X013119Y008130D01*
X013074Y008175D01*
X012939Y008175D01*
X012939Y007905D01*
X012097Y008270D02*
X012052Y008225D01*
X011962Y008225D01*
X011917Y008270D01*
X011917Y008360D01*
X012052Y008360D01*
X012097Y008315D01*
X012097Y008270D01*
X012007Y008450D02*
X011917Y008360D01*
X012007Y008450D02*
X012097Y008495D01*
X011803Y008450D02*
X011758Y008495D01*
X011668Y008495D01*
X011623Y008450D01*
X011623Y008270D01*
X011668Y008225D01*
X011758Y008225D01*
X011803Y008270D01*
X011448Y008050D02*
X011448Y008550D01*
X010348Y008550D01*
X010348Y008050D01*
X011448Y008050D01*
X010943Y007953D02*
X010943Y007683D01*
X010853Y007683D02*
X011033Y007683D01*
X010853Y007863D02*
X010943Y007953D01*
X010738Y007953D02*
X010738Y007728D01*
X010693Y007683D01*
X010603Y007683D01*
X010558Y007728D01*
X010558Y007953D01*
X013848Y006850D02*
X013848Y005750D01*
X014348Y005750D01*
X014348Y006850D01*
X013848Y006850D01*
X014473Y006445D02*
X014608Y006445D01*
X014653Y006400D01*
X014653Y006310D01*
X014608Y006265D01*
X014473Y006265D01*
X014563Y006265D02*
X014653Y006175D01*
X014767Y006220D02*
X014812Y006175D01*
X014902Y006175D01*
X014947Y006220D01*
X014947Y006400D01*
X014902Y006445D01*
X014812Y006445D01*
X014767Y006400D01*
X014767Y006355D01*
X014812Y006310D01*
X014947Y006310D01*
X014473Y006175D02*
X014473Y006445D01*
X011897Y005295D02*
X011717Y005295D01*
X011717Y005160D01*
X011807Y005205D01*
X011852Y005205D01*
X011897Y005160D01*
X011897Y005070D01*
X011852Y005025D01*
X011762Y005025D01*
X011717Y005070D01*
X011603Y005070D02*
X011558Y005025D01*
X011468Y005025D01*
X011423Y005070D01*
X011423Y005250D01*
X011468Y005295D01*
X011558Y005295D01*
X011603Y005250D01*
X011298Y005450D02*
X011298Y004950D01*
X010198Y004950D01*
X010198Y005450D01*
X011298Y005450D01*
X010998Y004850D02*
X010998Y004350D01*
X009898Y004350D01*
X009898Y004850D01*
X010998Y004850D01*
X009758Y004330D02*
X009758Y004285D01*
X009713Y004240D01*
X009758Y004195D01*
X009758Y004150D01*
X009713Y004105D01*
X009623Y004105D01*
X009578Y004150D01*
X009463Y004150D02*
X009418Y004105D01*
X009328Y004105D01*
X009283Y004150D01*
X009283Y004330D01*
X009328Y004375D01*
X009418Y004375D01*
X009463Y004330D01*
X009578Y004330D02*
X009623Y004375D01*
X009713Y004375D01*
X009758Y004330D01*
X009713Y004240D02*
X009668Y004240D01*
X009530Y003665D02*
X009395Y003665D01*
X009395Y003485D01*
X009575Y003485D02*
X009575Y003620D01*
X009530Y003665D01*
X009284Y003665D02*
X009239Y003665D01*
X009149Y003575D01*
X009149Y003485D02*
X009149Y003665D01*
X009035Y003620D02*
X008990Y003665D01*
X008900Y003665D01*
X008855Y003620D01*
X008855Y003530D01*
X008900Y003485D01*
X008990Y003485D01*
X009035Y003575D02*
X008855Y003575D01*
X008748Y003485D02*
X008703Y003530D01*
X008703Y003710D01*
X008658Y003665D02*
X008748Y003665D01*
X008552Y003665D02*
X008462Y003665D01*
X008507Y003710D02*
X008507Y003530D01*
X008552Y003485D01*
X008347Y003485D02*
X008347Y003620D01*
X008302Y003665D01*
X008212Y003665D01*
X008212Y003575D02*
X008347Y003575D01*
X008347Y003485D02*
X008212Y003485D01*
X008167Y003530D01*
X008212Y003575D01*
X008053Y003620D02*
X008008Y003575D01*
X007873Y003575D01*
X007873Y003485D02*
X007873Y003755D01*
X008008Y003755D01*
X008053Y003710D01*
X008053Y003620D01*
X007963Y003275D02*
X008053Y003185D01*
X008053Y003005D01*
X008167Y003050D02*
X008212Y003005D01*
X008347Y003005D01*
X008347Y002960D02*
X008347Y003185D01*
X008212Y003185D01*
X008167Y003140D01*
X008167Y003050D01*
X008053Y003140D02*
X007873Y003140D01*
X007873Y003185D02*
X007963Y003275D01*
X007873Y003185D02*
X007873Y003005D01*
X007873Y002795D02*
X007873Y002570D01*
X007918Y002525D01*
X008008Y002525D01*
X008053Y002570D01*
X008053Y002795D01*
X008167Y002750D02*
X008167Y002705D01*
X008212Y002660D01*
X008302Y002660D01*
X008347Y002615D01*
X008347Y002570D01*
X008302Y002525D01*
X008212Y002525D01*
X008167Y002570D01*
X008167Y002750D02*
X008212Y002795D01*
X008302Y002795D01*
X008347Y002750D01*
X008462Y002795D02*
X008597Y002795D01*
X008642Y002750D01*
X008642Y002705D01*
X008597Y002660D01*
X008462Y002660D01*
X008597Y002660D02*
X008642Y002615D01*
X008642Y002570D01*
X008597Y002525D01*
X008462Y002525D01*
X008462Y002795D01*
X008302Y002915D02*
X008347Y002960D01*
X008302Y002915D02*
X008257Y002915D01*
X008462Y003050D02*
X008462Y003140D01*
X008507Y003185D01*
X008597Y003185D01*
X008642Y003140D01*
X008642Y003095D01*
X008462Y003095D01*
X008462Y003050D02*
X008507Y003005D01*
X008597Y003005D01*
X008756Y003005D02*
X008756Y003185D01*
X008892Y003185D01*
X008937Y003140D01*
X008937Y003005D01*
X009096Y003050D02*
X009096Y003230D01*
X009051Y003185D02*
X009141Y003185D01*
X009248Y003140D02*
X009293Y003095D01*
X009383Y003095D01*
X009428Y003050D01*
X009383Y003005D01*
X009248Y003005D01*
X009141Y003005D02*
X009096Y003050D01*
X009248Y003140D02*
X009293Y003185D01*
X009428Y003185D01*
X009833Y003100D02*
X009878Y003055D01*
X009968Y003055D01*
X010013Y003100D01*
X010128Y003190D02*
X010308Y003190D01*
X010263Y003055D02*
X010263Y003325D01*
X010128Y003190D01*
X010013Y003280D02*
X009968Y003325D01*
X009878Y003325D01*
X009833Y003280D01*
X009833Y003100D01*
X009821Y002795D02*
X009640Y002795D01*
X009731Y002795D02*
X009731Y002525D01*
X009935Y002525D02*
X010115Y002705D01*
X010115Y002750D01*
X010070Y002795D01*
X009980Y002795D01*
X009935Y002750D01*
X009935Y002525D02*
X010115Y002525D01*
X009526Y002525D02*
X009436Y002615D01*
X009481Y002615D02*
X009346Y002615D01*
X009346Y002525D02*
X009346Y002795D01*
X009481Y002795D01*
X009526Y002750D01*
X009526Y002660D01*
X009481Y002615D01*
X009231Y002660D02*
X009051Y002660D01*
X009051Y002705D02*
X009141Y002795D01*
X009231Y002705D01*
X009231Y002525D01*
X009051Y002525D02*
X009051Y002705D01*
X008937Y002795D02*
X008937Y002570D01*
X008892Y002525D01*
X008802Y002525D01*
X008756Y002570D01*
X008756Y002795D01*
X009035Y003575D02*
X009035Y003620D01*
X007948Y004250D02*
X006848Y004250D01*
X006848Y004750D01*
X007948Y004750D01*
X007948Y004250D01*
X007697Y004100D02*
X007697Y004055D01*
X007652Y004010D01*
X007562Y004010D01*
X007517Y004055D01*
X007517Y004100D01*
X007562Y004145D01*
X007652Y004145D01*
X007697Y004100D01*
X007652Y004010D02*
X007697Y003965D01*
X007697Y003920D01*
X007652Y003875D01*
X007562Y003875D01*
X007517Y003920D01*
X007517Y003965D01*
X007562Y004010D01*
X007403Y004010D02*
X007358Y003965D01*
X007223Y003965D01*
X007313Y003965D02*
X007403Y003875D01*
X007403Y004010D02*
X007403Y004100D01*
X007358Y004145D01*
X007223Y004145D01*
X007223Y003875D01*
X006787Y003745D02*
X006606Y003745D01*
X006606Y003475D01*
X006787Y003475D01*
X006697Y003610D02*
X006606Y003610D01*
X006492Y003565D02*
X006492Y003520D01*
X006447Y003475D01*
X006357Y003475D01*
X006312Y003520D01*
X006357Y003610D02*
X006312Y003655D01*
X006312Y003700D01*
X006357Y003745D01*
X006447Y003745D01*
X006492Y003700D01*
X006447Y003610D02*
X006492Y003565D01*
X006447Y003610D02*
X006357Y003610D01*
X006197Y003520D02*
X006197Y003745D01*
X006017Y003745D02*
X006017Y003520D01*
X006062Y003475D01*
X006152Y003475D01*
X006197Y003520D01*
X005903Y003745D02*
X005723Y003745D01*
X005723Y003475D01*
X005723Y003610D02*
X005813Y003610D01*
X005398Y003300D02*
X005398Y002500D01*
X007098Y002500D01*
X007098Y003300D01*
X005398Y003300D01*
X004448Y003450D02*
X004448Y003950D01*
X003348Y003950D01*
X003348Y003450D01*
X004448Y003450D01*
X004058Y003330D02*
X004013Y003375D01*
X003923Y003375D01*
X003878Y003330D01*
X003763Y003330D02*
X003763Y003240D01*
X003718Y003195D01*
X003583Y003195D01*
X003583Y003105D02*
X003583Y003375D01*
X003718Y003375D01*
X003763Y003330D01*
X003673Y003195D02*
X003763Y003105D01*
X003878Y003105D02*
X004058Y003285D01*
X004058Y003330D01*
X004058Y003105D02*
X003878Y003105D01*
X003348Y002950D02*
X003348Y002450D01*
X004448Y002450D01*
X004448Y002950D01*
X003348Y002950D01*
X002673Y002950D02*
X002673Y002450D01*
X001623Y002450D01*
X001623Y002950D01*
X002673Y002950D01*
X002198Y002850D02*
X002198Y002550D01*
X002148Y002625D01*
X002148Y002775D01*
X002098Y002700D01*
X002148Y002625D01*
X002173Y002600D02*
X002173Y002800D01*
X002148Y002775D02*
X002198Y002850D01*
X002673Y003450D02*
X001623Y003450D01*
X001623Y003950D01*
X002673Y003950D01*
X002673Y003450D01*
X002198Y003550D02*
X002198Y003850D01*
X002148Y003775D01*
X002148Y003625D01*
X002198Y003550D01*
X002173Y003600D02*
X002173Y003800D01*
X002148Y003775D02*
X002098Y003700D01*
X002148Y003625D01*
X003633Y002375D02*
X003768Y002375D01*
X003813Y002330D01*
X003813Y002240D01*
X003768Y002195D01*
X003633Y002195D01*
X003633Y002105D02*
X003633Y002375D01*
X003723Y002195D02*
X003813Y002105D01*
X003928Y002105D02*
X004108Y002105D01*
X004018Y002105D02*
X004018Y002375D01*
X003928Y002285D01*
X003847Y000800D02*
X003802Y000755D01*
X003802Y000665D01*
X003847Y000620D01*
X004027Y000620D01*
X004073Y000665D01*
X004073Y000755D01*
X004027Y000800D01*
X004073Y000505D02*
X003802Y000505D01*
X003802Y000325D02*
X004073Y000505D01*
X004073Y000325D02*
X003802Y000325D01*
X004802Y000325D02*
X005073Y000505D01*
X004802Y000505D01*
X004847Y000620D02*
X005027Y000620D01*
X005073Y000665D01*
X005073Y000755D01*
X005027Y000800D01*
X004847Y000800D02*
X004802Y000755D01*
X004802Y000665D01*
X004847Y000620D01*
X004802Y000325D02*
X005073Y000325D01*
X005802Y000325D02*
X006073Y000505D01*
X005802Y000505D01*
X005847Y000620D02*
X006027Y000620D01*
X006073Y000665D01*
X006073Y000755D01*
X006027Y000800D01*
X005847Y000800D02*
X005802Y000755D01*
X005802Y000665D01*
X005847Y000620D01*
X005802Y000325D02*
X006073Y000325D01*
X006752Y000325D02*
X007023Y000505D01*
X006752Y000505D01*
X006797Y000620D02*
X006977Y000620D01*
X007023Y000665D01*
X007023Y000755D01*
X006977Y000800D01*
X006797Y000800D02*
X006752Y000755D01*
X006752Y000665D01*
X006797Y000620D01*
X006752Y000325D02*
X007023Y000325D01*
X007802Y000325D02*
X008073Y000505D01*
X007802Y000505D01*
X007847Y000620D02*
X007802Y000665D01*
X007802Y000755D01*
X007847Y000800D01*
X008027Y000800D02*
X008073Y000755D01*
X008073Y000665D01*
X008027Y000620D01*
X007847Y000620D01*
X007802Y000325D02*
X008073Y000325D01*
X008752Y000325D02*
X009023Y000505D01*
X008752Y000505D01*
X008797Y000620D02*
X008752Y000665D01*
X008752Y000755D01*
X008797Y000800D01*
X008977Y000800D02*
X009023Y000755D01*
X009023Y000665D01*
X008977Y000620D01*
X008797Y000620D01*
X008752Y000325D02*
X009023Y000325D01*
X009752Y000325D02*
X010023Y000505D01*
X009752Y000505D01*
X009797Y000620D02*
X009977Y000620D01*
X010023Y000665D01*
X010023Y000755D01*
X009977Y000800D01*
X009797Y000800D02*
X009752Y000755D01*
X009752Y000665D01*
X009797Y000620D01*
X009752Y000325D02*
X010023Y000325D01*
X010802Y000325D02*
X011073Y000505D01*
X010802Y000505D01*
X010847Y000620D02*
X010802Y000665D01*
X010802Y000755D01*
X010847Y000800D01*
X011027Y000800D02*
X011073Y000755D01*
X011073Y000665D01*
X011027Y000620D01*
X010847Y000620D01*
X010802Y000325D02*
X011073Y000325D01*
X011752Y000325D02*
X012023Y000505D01*
X011752Y000505D01*
X011797Y000620D02*
X011752Y000665D01*
X011752Y000755D01*
X011797Y000800D01*
X011977Y000800D02*
X012023Y000755D01*
X012023Y000665D01*
X011977Y000620D01*
X011797Y000620D01*
X011752Y000325D02*
X012023Y000325D01*
X012802Y000325D02*
X013073Y000505D01*
X012802Y000505D01*
X012847Y000620D02*
X013027Y000620D01*
X013073Y000665D01*
X013073Y000755D01*
X013027Y000800D01*
X012847Y000800D02*
X012802Y000755D01*
X012802Y000665D01*
X012847Y000620D01*
X012802Y000325D02*
X013073Y000325D01*
X013752Y000370D02*
X013752Y000460D01*
X013797Y000505D01*
X013842Y000505D01*
X013887Y000460D01*
X013932Y000505D01*
X013977Y000505D01*
X014023Y000460D01*
X014023Y000370D01*
X013977Y000325D01*
X013887Y000415D02*
X013887Y000460D01*
X013797Y000325D02*
X013752Y000370D01*
X013752Y000620D02*
X013932Y000620D01*
X014023Y000710D01*
X013932Y000800D01*
X013752Y000800D01*
X013797Y000914D02*
X013752Y000959D01*
X013752Y001049D01*
X013797Y001094D01*
X013842Y001094D01*
X013887Y001049D01*
X013932Y001094D01*
X013977Y001094D01*
X014023Y001049D01*
X014023Y000959D01*
X013977Y000914D01*
X013887Y001004D02*
X013887Y001049D01*
X014752Y001049D02*
X014752Y000914D01*
X015023Y000914D01*
X015023Y001049D01*
X014977Y001094D01*
X014797Y001094D01*
X014752Y001049D01*
X014752Y000800D02*
X015023Y000800D01*
X014752Y000620D01*
X015023Y000620D01*
X014977Y000505D02*
X014887Y000505D01*
X014887Y000415D01*
X014797Y000325D02*
X014752Y000370D01*
X014752Y000460D01*
X014797Y000505D01*
X014977Y000505D02*
X015023Y000460D01*
X015023Y000370D01*
X014977Y000325D01*
X014797Y000325D01*
X015173Y002275D02*
X013523Y002275D01*
X013523Y002925D01*
X015173Y002925D01*
X015173Y002275D01*
X014373Y002600D02*
X014173Y002600D01*
X014273Y002500D02*
X014273Y002700D01*
X013747Y003625D02*
X013567Y003625D01*
X013747Y003805D01*
X013747Y003850D01*
X013702Y003895D01*
X013612Y003895D01*
X013567Y003850D01*
X013453Y003895D02*
X013363Y003895D01*
X013408Y003895D02*
X013408Y003670D01*
X013363Y003625D01*
X013318Y003625D01*
X013273Y003670D01*
X011708Y002480D02*
X011663Y002525D01*
X011573Y002525D01*
X011528Y002480D01*
X011413Y002525D02*
X011413Y002300D01*
X011368Y002255D01*
X011278Y002255D01*
X011233Y002300D01*
X011233Y002525D01*
X011528Y002255D02*
X011708Y002435D01*
X011708Y002480D01*
X011708Y002255D02*
X011528Y002255D01*
X007748Y005050D02*
X006648Y005050D01*
X006648Y005550D01*
X007748Y005550D01*
X007748Y005050D01*
X007158Y005705D02*
X006978Y005705D01*
X007158Y005885D01*
X007158Y005930D01*
X007113Y005975D01*
X007023Y005975D01*
X006978Y005930D01*
X006863Y005930D02*
X006818Y005975D01*
X006728Y005975D01*
X006683Y005930D01*
X006683Y005750D01*
X006728Y005705D01*
X006818Y005705D01*
X006863Y005750D01*
X006397Y005695D02*
X006307Y005650D01*
X006217Y005560D01*
X006352Y005560D01*
X006397Y005515D01*
X006397Y005470D01*
X006352Y005425D01*
X006262Y005425D01*
X006217Y005470D01*
X006217Y005560D01*
X006103Y005560D02*
X006103Y005650D01*
X006058Y005695D01*
X005923Y005695D01*
X005923Y005425D01*
X005923Y005515D02*
X006058Y005515D01*
X006103Y005560D01*
X006013Y005515D02*
X006103Y005425D01*
X005848Y005250D02*
X004748Y005250D01*
X004748Y005750D01*
X005848Y005750D01*
X005848Y005250D01*
X005848Y005150D02*
X005848Y004650D01*
X004748Y004650D01*
X004748Y005150D01*
X005848Y005150D01*
X005973Y005095D02*
X006108Y005095D01*
X006153Y005050D01*
X006153Y004960D01*
X006108Y004915D01*
X005973Y004915D01*
X006063Y004915D02*
X006153Y004825D01*
X006267Y004870D02*
X006312Y004825D01*
X006402Y004825D01*
X006447Y004870D01*
X006447Y004960D01*
X006402Y005005D01*
X006357Y005005D01*
X006267Y004960D01*
X006267Y005095D01*
X006447Y005095D01*
X005973Y005095D02*
X005973Y004825D01*
X005848Y004550D02*
X005848Y004050D01*
X004748Y004050D01*
X004748Y004550D01*
X005848Y004550D01*
X005973Y004400D02*
X005973Y004220D01*
X006018Y004175D01*
X006108Y004175D01*
X006153Y004220D01*
X006267Y004175D02*
X006447Y004175D01*
X006357Y004175D02*
X006357Y004445D01*
X006267Y004355D01*
X006153Y004400D02*
X006108Y004445D01*
X006018Y004445D01*
X005973Y004400D01*
X005348Y005925D02*
X004998Y005925D01*
X005348Y005925D02*
X005348Y006225D01*
X004848Y006425D02*
X004848Y006575D01*
X005348Y006775D02*
X005348Y007075D01*
X004998Y007075D01*
X004748Y007250D02*
X004748Y007750D01*
X005848Y007750D01*
X005848Y007250D01*
X004748Y007250D01*
X004113Y008055D02*
X004023Y008055D01*
X003978Y008100D01*
X003863Y008055D02*
X003773Y008145D01*
X003818Y008145D02*
X003683Y008145D01*
X003683Y008055D02*
X003683Y008325D01*
X003818Y008325D01*
X003863Y008280D01*
X003863Y008190D01*
X003818Y008145D01*
X003978Y008280D02*
X004023Y008325D01*
X004113Y008325D01*
X004158Y008280D01*
X004158Y008235D01*
X004113Y008190D01*
X004158Y008145D01*
X004158Y008100D01*
X004113Y008055D01*
X004113Y008190D02*
X004068Y008190D01*
X004448Y008450D02*
X003348Y008450D01*
X003348Y008950D01*
X004448Y008950D01*
X004448Y008450D01*
X005102Y008520D02*
X005102Y008700D01*
X005147Y008700D01*
X005327Y008520D01*
X005373Y008520D01*
X005373Y008405D02*
X005282Y008315D01*
X005282Y008360D02*
X005282Y008225D01*
X005373Y008225D02*
X005102Y008225D01*
X005102Y008360D01*
X005147Y008405D01*
X005237Y008405D01*
X005282Y008360D01*
X006433Y008550D02*
X006478Y008505D01*
X006523Y008505D01*
X006568Y008550D01*
X006568Y008775D01*
X006523Y008775D02*
X006613Y008775D01*
X006728Y008685D02*
X006818Y008775D01*
X006818Y008505D01*
X006728Y008505D02*
X006908Y008505D01*
X006597Y006945D02*
X006462Y006945D01*
X006462Y006675D01*
X006597Y006675D01*
X006642Y006720D01*
X006642Y006900D01*
X006597Y006945D01*
X006347Y006900D02*
X006302Y006945D01*
X006212Y006945D01*
X006167Y006900D01*
X006167Y006855D01*
X006212Y006810D01*
X006302Y006810D01*
X006347Y006765D01*
X006347Y006720D01*
X006302Y006675D01*
X006212Y006675D01*
X006167Y006720D01*
X006053Y006675D02*
X005873Y006675D01*
X005873Y006945D01*
X006053Y006945D01*
X005963Y006810D02*
X005873Y006810D01*
X002623Y008450D02*
X002623Y008950D01*
X001573Y008950D01*
X001573Y008450D01*
X002623Y008450D01*
X002148Y008550D02*
X002148Y008850D01*
X002098Y008775D01*
X002098Y008625D01*
X002148Y008550D01*
X002123Y008600D02*
X002123Y008800D01*
X002098Y008775D02*
X002048Y008700D01*
X002098Y008625D01*
X002623Y009450D02*
X001573Y009450D01*
X001573Y009950D01*
X002623Y009950D01*
X002623Y009450D01*
X002148Y009550D02*
X002148Y009850D01*
X002098Y009775D01*
X002098Y009625D01*
X002148Y009550D01*
X002123Y009600D02*
X002123Y009800D01*
X002098Y009775D02*
X002048Y009700D01*
X002098Y009625D01*
X003348Y009450D02*
X003348Y009950D01*
X004448Y009950D01*
X004448Y009450D01*
X003348Y009450D01*
X003633Y009325D02*
X003768Y009325D01*
X003813Y009280D01*
X003813Y009190D01*
X003768Y009145D01*
X003633Y009145D01*
X003633Y009055D02*
X003633Y009325D01*
X003723Y009145D02*
X003813Y009055D01*
X003928Y009190D02*
X004108Y009190D01*
X004063Y009055D02*
X004063Y009325D01*
X003928Y009190D01*
X004752Y011325D02*
X004752Y011460D01*
X004797Y011505D01*
X004977Y011505D01*
X005023Y011460D01*
X005023Y011325D01*
X004752Y011325D01*
X004797Y011620D02*
X004977Y011620D01*
X005023Y011665D01*
X005023Y011755D01*
X004977Y011800D01*
X005023Y011914D02*
X004752Y011914D01*
X004752Y012049D01*
X004797Y012094D01*
X004977Y012094D01*
X005023Y012049D01*
X005023Y011914D01*
X004797Y011800D02*
X004752Y011755D01*
X004752Y011665D01*
X004797Y011620D01*
X004023Y011625D02*
X003752Y011625D01*
X003752Y011760D01*
X003797Y011805D01*
X003887Y011805D01*
X003932Y011760D01*
X003932Y011625D01*
X003932Y011715D02*
X004023Y011805D01*
X004023Y011920D02*
X004023Y012010D01*
X004023Y011965D02*
X003752Y011965D01*
X003752Y011920D02*
X003752Y012010D01*
X005752Y012049D02*
X005752Y011914D01*
X006023Y011914D01*
X005932Y011914D02*
X005932Y012049D01*
X005887Y012094D01*
X005797Y012094D01*
X005752Y012049D01*
X005932Y012004D02*
X006023Y012094D01*
X005977Y011800D02*
X005932Y011800D01*
X005887Y011755D01*
X005887Y011665D01*
X005842Y011620D01*
X005797Y011620D01*
X005752Y011665D01*
X005752Y011755D01*
X005797Y011800D01*
X005977Y011800D02*
X006023Y011755D01*
X006023Y011665D01*
X005977Y011620D01*
X005977Y011505D02*
X005797Y011505D01*
X005752Y011460D01*
X005752Y011325D01*
X006023Y011325D01*
X006023Y011460D01*
X005977Y011505D01*
X006752Y011460D02*
X006752Y011325D01*
X007023Y011325D01*
X007023Y011460D01*
X006977Y011505D01*
X006797Y011505D01*
X006752Y011460D01*
X006752Y011620D02*
X006752Y011800D01*
X006752Y011710D02*
X007023Y011710D01*
X007023Y011914D02*
X006752Y011914D01*
X006752Y012049D01*
X006797Y012094D01*
X006887Y012094D01*
X006932Y012049D01*
X006932Y011914D01*
X006932Y012004D02*
X007023Y012094D01*
X007752Y012099D02*
X007752Y012009D01*
X007797Y011964D01*
X007842Y011964D01*
X007887Y012009D01*
X007887Y012099D01*
X007932Y012144D01*
X007977Y012144D01*
X008023Y012099D01*
X008023Y012009D01*
X007977Y011964D01*
X008023Y011760D02*
X007752Y011760D01*
X007752Y011670D02*
X007752Y011850D01*
X007752Y012099D02*
X007797Y012144D01*
X007797Y011555D02*
X007887Y011555D01*
X007932Y011510D01*
X007932Y011375D01*
X007932Y011465D02*
X008023Y011555D01*
X008023Y011375D02*
X007752Y011375D01*
X007752Y011510D01*
X007797Y011555D01*
X008752Y011620D02*
X008752Y011800D01*
X008752Y011710D02*
X009023Y011710D01*
X008977Y011505D02*
X009023Y011460D01*
X009023Y011370D01*
X008977Y011325D01*
X008797Y011325D01*
X008752Y011370D01*
X008752Y011460D01*
X008797Y011505D01*
X008797Y011914D02*
X008752Y011959D01*
X008752Y012049D01*
X008797Y012094D01*
X008887Y012049D02*
X008932Y012094D01*
X008977Y012094D01*
X009023Y012049D01*
X009023Y011959D01*
X008977Y011914D01*
X008887Y011959D02*
X008887Y012049D01*
X008887Y011959D02*
X008842Y011914D01*
X008797Y011914D01*
X009752Y011914D02*
X009752Y012049D01*
X009797Y012094D01*
X009977Y012094D01*
X010023Y012049D01*
X010023Y011914D01*
X009752Y011914D01*
X009752Y011800D02*
X010023Y011620D01*
X010023Y011505D02*
X009932Y011415D01*
X009932Y011460D02*
X009932Y011325D01*
X010023Y011325D02*
X009752Y011325D01*
X009752Y011460D01*
X009797Y011505D01*
X009887Y011505D01*
X009932Y011460D01*
X009752Y011620D02*
X010023Y011800D01*
X010702Y011800D02*
X010973Y011620D01*
X010973Y011800D02*
X010702Y011620D01*
X010702Y011505D02*
X010702Y011325D01*
X010702Y011415D02*
X010973Y011415D01*
X010973Y011914D02*
X010702Y011914D01*
X010702Y012049D01*
X010747Y012094D01*
X010927Y012094D01*
X010973Y012049D01*
X010973Y011914D01*
X011752Y011755D02*
X011752Y011665D01*
X011797Y011620D01*
X011977Y011620D01*
X012023Y011665D01*
X012023Y011755D01*
X011977Y011800D01*
X011797Y011800D02*
X011752Y011755D01*
X011752Y011505D02*
X012023Y011505D01*
X011752Y011325D01*
X012023Y011325D01*
X012752Y011325D02*
X013023Y011505D01*
X012752Y011505D01*
X012797Y011620D02*
X012977Y011620D01*
X013023Y011665D01*
X013023Y011755D01*
X012977Y011800D01*
X012797Y011800D02*
X012752Y011755D01*
X012752Y011665D01*
X012797Y011620D01*
X012752Y011325D02*
X013023Y011325D01*
X013752Y011325D02*
X013887Y011325D01*
X013842Y011415D01*
X013842Y011460D01*
X013887Y011505D01*
X013977Y011505D01*
X014023Y011460D01*
X014023Y011370D01*
X013977Y011325D01*
X013752Y011325D02*
X013752Y011505D01*
X013752Y011620D02*
X013932Y011620D01*
X014023Y011710D01*
X013932Y011800D01*
X013752Y011800D01*
X013797Y011914D02*
X013752Y011959D01*
X013752Y012049D01*
X013797Y012094D01*
X013977Y011914D01*
X014023Y011959D01*
X014023Y012049D01*
X013977Y012094D01*
X013797Y012094D01*
X013797Y011914D02*
X013977Y011914D01*
X014752Y011914D02*
X014752Y012049D01*
X014797Y012094D01*
X014977Y012094D01*
X015023Y012049D01*
X015023Y011914D01*
X014752Y011914D01*
X014752Y011800D02*
X015023Y011800D01*
X014752Y011620D01*
X015023Y011620D01*
X014977Y011505D02*
X014887Y011505D01*
X014887Y011415D01*
X014797Y011325D02*
X014752Y011370D01*
X014752Y011460D01*
X014797Y011505D01*
X014977Y011505D02*
X015023Y011460D01*
X015023Y011370D01*
X014977Y011325D01*
X014797Y011325D01*
D12*
X015313Y011815D02*
X015313Y012025D01*
X015418Y012025D01*
X015453Y011990D01*
X015453Y011920D01*
X015418Y011885D01*
X015313Y011885D01*
X015534Y011850D02*
X015569Y011815D01*
X015639Y011815D01*
X015674Y011850D01*
X015674Y011990D01*
X015639Y012025D01*
X015569Y012025D01*
X015534Y011990D01*
X015534Y011850D01*
X015755Y011815D02*
X015755Y012025D01*
X015860Y012025D01*
X015895Y011990D01*
X015895Y011920D01*
X015860Y011885D01*
X015755Y011885D01*
X015825Y011885D02*
X015895Y011815D01*
X016046Y011815D02*
X016046Y012025D01*
X016116Y012025D02*
X015975Y012025D01*
X016196Y011955D02*
X016267Y012025D01*
X016267Y011815D01*
X016337Y011815D02*
X016196Y011815D01*
X016813Y010525D02*
X016918Y010525D01*
X016953Y010490D01*
X016953Y010420D01*
X016918Y010385D01*
X016813Y010385D01*
X016813Y010315D02*
X016813Y010525D01*
X017034Y010490D02*
X017034Y010350D01*
X017069Y010315D01*
X017139Y010315D01*
X017174Y010350D01*
X017174Y010490D01*
X017139Y010525D01*
X017069Y010525D01*
X017034Y010490D01*
X017255Y010525D02*
X017255Y010315D01*
X017255Y010385D02*
X017360Y010385D01*
X017395Y010420D01*
X017395Y010490D01*
X017360Y010525D01*
X017255Y010525D01*
X017325Y010385D02*
X017395Y010315D01*
X017546Y010315D02*
X017546Y010525D01*
X017616Y010525D02*
X017475Y010525D01*
X017696Y010490D02*
X017732Y010525D01*
X017802Y010525D01*
X017837Y010490D01*
X017837Y010455D01*
X017696Y010315D01*
X017837Y010315D01*
X017702Y001925D02*
X017632Y001925D01*
X017596Y001890D01*
X017516Y001925D02*
X017375Y001925D01*
X017446Y001925D02*
X017446Y001715D01*
X017596Y001715D02*
X017737Y001855D01*
X017737Y001890D01*
X017702Y001925D01*
X017737Y001715D02*
X017596Y001715D01*
X017295Y001715D02*
X017225Y001785D01*
X017260Y001785D02*
X017155Y001785D01*
X017155Y001715D02*
X017155Y001925D01*
X017260Y001925D01*
X017295Y001890D01*
X017295Y001820D01*
X017260Y001785D01*
X017074Y001750D02*
X017039Y001715D01*
X016969Y001715D01*
X016934Y001750D01*
X016934Y001890D01*
X016969Y001925D01*
X017039Y001925D01*
X017074Y001890D01*
X017074Y001750D01*
X016853Y001820D02*
X016853Y001890D01*
X016818Y001925D01*
X016713Y001925D01*
X016713Y001715D01*
X016713Y001785D02*
X016818Y001785D01*
X016853Y001820D01*
X003487Y011815D02*
X003346Y011815D01*
X003417Y011815D02*
X003417Y012025D01*
X003346Y011955D01*
X003266Y012025D02*
X003125Y012025D01*
X003196Y012025D02*
X003196Y011815D01*
X003045Y011815D02*
X002975Y011885D01*
X003010Y011885D02*
X002905Y011885D01*
X002905Y011815D02*
X002905Y012025D01*
X003010Y012025D01*
X003045Y011990D01*
X003045Y011920D01*
X003010Y011885D01*
X002824Y011850D02*
X002824Y011990D01*
X002789Y012025D01*
X002719Y012025D01*
X002684Y011990D01*
X002684Y011850D01*
X002719Y011815D01*
X002789Y011815D01*
X002824Y011850D01*
X002603Y011920D02*
X002568Y011885D01*
X002463Y011885D01*
X002463Y011815D02*
X002463Y012025D01*
X002568Y012025D01*
X002603Y011990D01*
X002603Y011920D01*
X001288Y010335D02*
X001253Y010335D01*
X001218Y010300D01*
X001218Y010230D01*
X001183Y010195D01*
X001148Y010195D01*
X001113Y010230D01*
X001113Y010300D01*
X001148Y010335D01*
X001288Y010335D02*
X001323Y010300D01*
X001323Y010230D01*
X001288Y010195D01*
X001323Y010114D02*
X001148Y010114D01*
X001113Y010079D01*
X001113Y010009D01*
X001148Y009974D01*
X001323Y009974D01*
X001288Y009893D02*
X001323Y009858D01*
X001323Y009788D01*
X001288Y009753D01*
X001218Y009788D02*
X001183Y009753D01*
X001148Y009753D01*
X001113Y009788D01*
X001113Y009858D01*
X001148Y009893D01*
X001218Y009858D02*
X001253Y009893D01*
X001288Y009893D01*
X001218Y009858D02*
X001218Y009788D01*
X001183Y009672D02*
X001183Y009567D01*
X001218Y009532D01*
X001288Y009532D01*
X001323Y009567D01*
X001323Y009672D01*
X001113Y009672D01*
X001113Y009135D02*
X001323Y009135D01*
X001323Y009030D01*
X001288Y008995D01*
X001218Y008995D01*
X001183Y009030D01*
X001183Y009135D01*
X001113Y008914D02*
X001183Y008844D01*
X001113Y008774D01*
X001323Y008774D01*
X001323Y008693D02*
X001323Y008588D01*
X001288Y008553D01*
X001218Y008553D01*
X001183Y008588D01*
X001183Y008693D01*
X001183Y008623D02*
X001113Y008553D01*
X001113Y008693D02*
X001323Y008693D01*
X001323Y008914D02*
X001113Y008914D01*
X001113Y004085D02*
X001323Y004085D01*
X001323Y003980D01*
X001288Y003945D01*
X001218Y003945D01*
X001183Y003980D01*
X001183Y004085D01*
X001148Y003864D02*
X001113Y003829D01*
X001113Y003759D01*
X001148Y003724D01*
X001288Y003724D01*
X001323Y003759D01*
X001323Y003829D01*
X001288Y003864D01*
X001148Y003864D01*
X001183Y003643D02*
X001183Y003538D01*
X001218Y003503D01*
X001288Y003503D01*
X001323Y003538D01*
X001323Y003643D01*
X001113Y003643D01*
X001183Y003573D02*
X001113Y003503D01*
X001113Y003352D02*
X001323Y003352D01*
X001323Y003422D02*
X001323Y003282D01*
X001288Y003201D02*
X001323Y003166D01*
X001323Y003096D01*
X001288Y003061D01*
X001253Y003061D01*
X001113Y003201D01*
X001113Y003061D01*
X001113Y002785D02*
X001323Y002785D01*
X001323Y002680D01*
X001288Y002645D01*
X001218Y002645D01*
X001183Y002680D01*
X001183Y002785D01*
X001148Y002564D02*
X001113Y002529D01*
X001113Y002459D01*
X001148Y002424D01*
X001288Y002424D01*
X001323Y002459D01*
X001323Y002529D01*
X001288Y002564D01*
X001148Y002564D01*
X001183Y002343D02*
X001183Y002238D01*
X001218Y002203D01*
X001288Y002203D01*
X001323Y002238D01*
X001323Y002343D01*
X001113Y002343D01*
X001183Y002273D02*
X001113Y002203D01*
X001113Y002052D02*
X001323Y002052D01*
X001323Y002122D02*
X001323Y001982D01*
X001253Y001901D02*
X001323Y001831D01*
X001113Y001831D01*
X001113Y001901D02*
X001113Y001761D01*
D13*
X001050Y004586D02*
X001325Y004586D01*
X002270Y004586D02*
X002979Y004586D01*
X002979Y005491D01*
X002979Y006909D02*
X002979Y007814D01*
X002270Y007814D01*
X001325Y007814D02*
X001050Y007814D01*
X009898Y007700D02*
X009900Y007720D01*
X009906Y007738D01*
X009915Y007756D01*
X009927Y007771D01*
X009942Y007783D01*
X009960Y007792D01*
X009978Y007798D01*
X009998Y007800D01*
X010018Y007798D01*
X010036Y007792D01*
X010054Y007783D01*
X010069Y007771D01*
X010081Y007756D01*
X010090Y007738D01*
X010096Y007720D01*
X010098Y007700D01*
X010096Y007680D01*
X010090Y007662D01*
X010081Y007644D01*
X010069Y007629D01*
X010054Y007617D01*
X010036Y007608D01*
X010018Y007602D01*
X009998Y007600D01*
X009978Y007602D01*
X009960Y007608D01*
X009942Y007617D01*
X009927Y007629D01*
X009915Y007644D01*
X009906Y007662D01*
X009900Y007680D01*
X009898Y007700D01*
X016398Y010200D02*
X018098Y010200D01*
X018098Y002100D02*
X016398Y002100D01*
D14*
X013148Y002900D02*
X013148Y003000D01*
X013148Y002900D02*
X013146Y002883D01*
X013142Y002866D01*
X013135Y002850D01*
X013125Y002836D01*
X013112Y002823D01*
X013098Y002813D01*
X013082Y002806D01*
X013065Y002802D01*
X013048Y002800D01*
X012448Y002800D01*
X012431Y002802D01*
X012414Y002806D01*
X012398Y002813D01*
X012384Y002823D01*
X012371Y002836D01*
X012361Y002850D01*
X012354Y002866D01*
X012350Y002883D01*
X012348Y002900D01*
X012348Y003000D01*
X012348Y003250D02*
X012348Y003900D01*
X012350Y003917D01*
X012354Y003934D01*
X012361Y003950D01*
X012371Y003964D01*
X012384Y003977D01*
X012398Y003987D01*
X012414Y003994D01*
X012431Y003998D01*
X012448Y004000D01*
X013048Y004000D01*
X013065Y003998D01*
X013082Y003994D01*
X013098Y003987D01*
X013112Y003977D01*
X013125Y003964D01*
X013135Y003950D01*
X013142Y003934D01*
X013146Y003917D01*
X013148Y003900D01*
X013148Y003250D01*
X012098Y003231D02*
X012098Y003569D01*
X011703Y003121D02*
X011492Y003121D01*
X011098Y003231D02*
X011098Y003569D01*
X007448Y008950D02*
X007348Y008950D01*
X007448Y008950D02*
X007465Y008952D01*
X007482Y008956D01*
X007498Y008963D01*
X007512Y008973D01*
X007525Y008986D01*
X007535Y009000D01*
X007542Y009016D01*
X007546Y009033D01*
X007548Y009050D01*
X007548Y009650D01*
X007546Y009667D01*
X007542Y009684D01*
X007535Y009700D01*
X007525Y009714D01*
X007512Y009727D01*
X007498Y009737D01*
X007482Y009744D01*
X007465Y009748D01*
X007448Y009750D01*
X007348Y009750D01*
X007098Y009750D02*
X006448Y009750D01*
X006431Y009748D01*
X006414Y009744D01*
X006398Y009737D01*
X006384Y009727D01*
X006371Y009714D01*
X006361Y009700D01*
X006354Y009684D01*
X006350Y009667D01*
X006348Y009650D01*
X006348Y009050D01*
X006350Y009033D01*
X006354Y009016D01*
X006361Y009000D01*
X006371Y008986D01*
X006384Y008973D01*
X006398Y008963D01*
X006414Y008956D01*
X006431Y008952D01*
X006448Y008950D01*
X007098Y008950D01*
D15*
X000998Y011500D02*
X000998Y000900D01*
X001000Y000850D01*
X001005Y000800D01*
X001014Y000751D01*
X001026Y000703D01*
X001042Y000655D01*
X001061Y000609D01*
X001084Y000565D01*
X001109Y000522D01*
X001138Y000481D01*
X001169Y000442D01*
X001203Y000405D01*
X001240Y000371D01*
X001279Y000340D01*
X001320Y000311D01*
X001363Y000286D01*
X001407Y000263D01*
X001453Y000244D01*
X001501Y000228D01*
X001549Y000216D01*
X001598Y000207D01*
X001648Y000202D01*
X001698Y000200D01*
X017798Y000200D01*
X017848Y000202D01*
X017898Y000207D01*
X017947Y000216D01*
X017995Y000228D01*
X018043Y000244D01*
X018089Y000263D01*
X018133Y000286D01*
X018176Y000311D01*
X018217Y000340D01*
X018256Y000371D01*
X018293Y000405D01*
X018327Y000442D01*
X018358Y000481D01*
X018387Y000522D01*
X018412Y000565D01*
X018435Y000609D01*
X018454Y000655D01*
X018470Y000703D01*
X018482Y000751D01*
X018491Y000800D01*
X018496Y000850D01*
X018498Y000900D01*
X018498Y012200D01*
X001698Y012200D01*
X001648Y012198D01*
X001598Y012193D01*
X001549Y012184D01*
X001501Y012172D01*
X001453Y012156D01*
X001407Y012137D01*
X001363Y012114D01*
X001320Y012089D01*
X001279Y012060D01*
X001240Y012029D01*
X001203Y011995D01*
X001169Y011958D01*
X001138Y011919D01*
X001109Y011878D01*
X001084Y011835D01*
X001061Y011791D01*
X001042Y011745D01*
X001026Y011697D01*
X001014Y011649D01*
X001005Y011600D01*
X001000Y011550D01*
X000998Y011500D01*
D16*
X001354Y011450D02*
X001356Y011489D01*
X001362Y011528D01*
X001372Y011566D01*
X001385Y011603D01*
X001402Y011638D01*
X001422Y011672D01*
X001446Y011703D01*
X001473Y011732D01*
X001502Y011758D01*
X001534Y011781D01*
X001568Y011801D01*
X001604Y011817D01*
X001641Y011829D01*
X001680Y011838D01*
X001719Y011843D01*
X001758Y011844D01*
X001797Y011841D01*
X001836Y011834D01*
X001873Y011823D01*
X001910Y011809D01*
X001945Y011791D01*
X001978Y011770D01*
X002009Y011745D01*
X002037Y011718D01*
X002062Y011688D01*
X002084Y011655D01*
X002103Y011621D01*
X002118Y011585D01*
X002130Y011547D01*
X002138Y011509D01*
X002142Y011470D01*
X002142Y011430D01*
X002138Y011391D01*
X002130Y011353D01*
X002118Y011315D01*
X002103Y011279D01*
X002084Y011245D01*
X002062Y011212D01*
X002037Y011182D01*
X002009Y011155D01*
X001978Y011130D01*
X001945Y011109D01*
X001910Y011091D01*
X001873Y011077D01*
X001836Y011066D01*
X001797Y011059D01*
X001758Y011056D01*
X001719Y011057D01*
X001680Y011062D01*
X001641Y011071D01*
X001604Y011083D01*
X001568Y011099D01*
X001534Y011119D01*
X001502Y011142D01*
X001473Y011168D01*
X001446Y011197D01*
X001422Y011228D01*
X001402Y011262D01*
X001385Y011297D01*
X001372Y011334D01*
X001362Y011372D01*
X001356Y011411D01*
X001354Y011450D01*
X001354Y000950D02*
X001356Y000989D01*
X001362Y001028D01*
X001372Y001066D01*
X001385Y001103D01*
X001402Y001138D01*
X001422Y001172D01*
X001446Y001203D01*
X001473Y001232D01*
X001502Y001258D01*
X001534Y001281D01*
X001568Y001301D01*
X001604Y001317D01*
X001641Y001329D01*
X001680Y001338D01*
X001719Y001343D01*
X001758Y001344D01*
X001797Y001341D01*
X001836Y001334D01*
X001873Y001323D01*
X001910Y001309D01*
X001945Y001291D01*
X001978Y001270D01*
X002009Y001245D01*
X002037Y001218D01*
X002062Y001188D01*
X002084Y001155D01*
X002103Y001121D01*
X002118Y001085D01*
X002130Y001047D01*
X002138Y001009D01*
X002142Y000970D01*
X002142Y000930D01*
X002138Y000891D01*
X002130Y000853D01*
X002118Y000815D01*
X002103Y000779D01*
X002084Y000745D01*
X002062Y000712D01*
X002037Y000682D01*
X002009Y000655D01*
X001978Y000630D01*
X001945Y000609D01*
X001910Y000591D01*
X001873Y000577D01*
X001836Y000566D01*
X001797Y000559D01*
X001758Y000556D01*
X001719Y000557D01*
X001680Y000562D01*
X001641Y000571D01*
X001604Y000583D01*
X001568Y000599D01*
X001534Y000619D01*
X001502Y000642D01*
X001473Y000668D01*
X001446Y000697D01*
X001422Y000728D01*
X001402Y000762D01*
X001385Y000797D01*
X001372Y000834D01*
X001362Y000872D01*
X001356Y000911D01*
X001354Y000950D01*
X017354Y000950D02*
X017356Y000989D01*
X017362Y001028D01*
X017372Y001066D01*
X017385Y001103D01*
X017402Y001138D01*
X017422Y001172D01*
X017446Y001203D01*
X017473Y001232D01*
X017502Y001258D01*
X017534Y001281D01*
X017568Y001301D01*
X017604Y001317D01*
X017641Y001329D01*
X017680Y001338D01*
X017719Y001343D01*
X017758Y001344D01*
X017797Y001341D01*
X017836Y001334D01*
X017873Y001323D01*
X017910Y001309D01*
X017945Y001291D01*
X017978Y001270D01*
X018009Y001245D01*
X018037Y001218D01*
X018062Y001188D01*
X018084Y001155D01*
X018103Y001121D01*
X018118Y001085D01*
X018130Y001047D01*
X018138Y001009D01*
X018142Y000970D01*
X018142Y000930D01*
X018138Y000891D01*
X018130Y000853D01*
X018118Y000815D01*
X018103Y000779D01*
X018084Y000745D01*
X018062Y000712D01*
X018037Y000682D01*
X018009Y000655D01*
X017978Y000630D01*
X017945Y000609D01*
X017910Y000591D01*
X017873Y000577D01*
X017836Y000566D01*
X017797Y000559D01*
X017758Y000556D01*
X017719Y000557D01*
X017680Y000562D01*
X017641Y000571D01*
X017604Y000583D01*
X017568Y000599D01*
X017534Y000619D01*
X017502Y000642D01*
X017473Y000668D01*
X017446Y000697D01*
X017422Y000728D01*
X017402Y000762D01*
X017385Y000797D01*
X017372Y000834D01*
X017362Y000872D01*
X017356Y000911D01*
X017354Y000950D01*
X017354Y011450D02*
X017356Y011489D01*
X017362Y011528D01*
X017372Y011566D01*
X017385Y011603D01*
X017402Y011638D01*
X017422Y011672D01*
X017446Y011703D01*
X017473Y011732D01*
X017502Y011758D01*
X017534Y011781D01*
X017568Y011801D01*
X017604Y011817D01*
X017641Y011829D01*
X017680Y011838D01*
X017719Y011843D01*
X017758Y011844D01*
X017797Y011841D01*
X017836Y011834D01*
X017873Y011823D01*
X017910Y011809D01*
X017945Y011791D01*
X017978Y011770D01*
X018009Y011745D01*
X018037Y011718D01*
X018062Y011688D01*
X018084Y011655D01*
X018103Y011621D01*
X018118Y011585D01*
X018130Y011547D01*
X018138Y011509D01*
X018142Y011470D01*
X018142Y011430D01*
X018138Y011391D01*
X018130Y011353D01*
X018118Y011315D01*
X018103Y011279D01*
X018084Y011245D01*
X018062Y011212D01*
X018037Y011182D01*
X018009Y011155D01*
X017978Y011130D01*
X017945Y011109D01*
X017910Y011091D01*
X017873Y011077D01*
X017836Y011066D01*
X017797Y011059D01*
X017758Y011056D01*
X017719Y011057D01*
X017680Y011062D01*
X017641Y011071D01*
X017604Y011083D01*
X017568Y011099D01*
X017534Y011119D01*
X017502Y011142D01*
X017473Y011168D01*
X017446Y011197D01*
X017422Y011228D01*
X017402Y011262D01*
X017385Y011297D01*
X017372Y011334D01*
X017362Y011372D01*
X017356Y011411D01*
X017354Y011450D01*
D17*
X015735Y010935D03*
X015588Y010898D03*
X015673Y010683D03*
X015735Y010620D03*
X015798Y010558D03*
X015650Y011150D03*
X015665Y011233D03*
X015528Y011273D03*
X015665Y011423D03*
X009735Y009385D03*
X009588Y009348D03*
X009673Y009133D03*
X009735Y009070D03*
X009798Y009008D03*
X009650Y009600D03*
X009665Y009683D03*
X009528Y009723D03*
X009665Y009873D03*
X015715Y001673D03*
X015578Y001523D03*
X015715Y001483D03*
X015700Y001400D03*
X015785Y001185D03*
X015638Y001148D03*
X015723Y000933D03*
X015785Y000870D03*
X015848Y000808D03*
D18*
X015848Y000810D03*
X015785Y000873D03*
X015723Y000935D03*
X015638Y001150D03*
X015785Y001183D03*
X015700Y001398D03*
X015715Y001485D03*
X015578Y001520D03*
X015715Y001670D03*
X016093Y001455D03*
X016375Y001380D03*
X016565Y001278D03*
X009798Y009010D03*
X009735Y009073D03*
X009673Y009135D03*
X009588Y009350D03*
X009735Y009383D03*
X009650Y009598D03*
X009665Y009685D03*
X009528Y009720D03*
X009665Y009870D03*
X010043Y009655D03*
X010325Y009580D03*
X010515Y009478D03*
X015588Y010900D03*
X015735Y010933D03*
X015650Y011148D03*
X015665Y011235D03*
X015528Y011270D03*
X015665Y011420D03*
X016043Y011205D03*
X016325Y011130D03*
X016515Y011028D03*
X015798Y010560D03*
X015735Y010623D03*
X015673Y010685D03*
D19*
X015673Y010688D03*
X015735Y010625D03*
X015798Y010563D03*
X015578Y010740D03*
X015578Y010815D03*
X015588Y010903D03*
X015735Y010930D03*
X015748Y011015D03*
X015650Y011145D03*
X015665Y011238D03*
X015528Y011268D03*
X015568Y011365D03*
X015665Y011418D03*
X015928Y011155D03*
X015928Y011153D03*
X016103Y011130D03*
X016385Y011130D03*
X016513Y011023D03*
X016510Y011018D03*
X017150Y011028D03*
X017150Y011030D03*
X017150Y011033D03*
X017150Y011035D03*
X017150Y011038D03*
X017150Y011128D03*
X017150Y011130D03*
X017150Y011133D03*
X017150Y011135D03*
X011150Y009585D03*
X011150Y009583D03*
X011150Y009580D03*
X011150Y009578D03*
X011150Y009488D03*
X011150Y009485D03*
X011150Y009483D03*
X011150Y009480D03*
X011150Y009478D03*
X010513Y009473D03*
X010510Y009468D03*
X010385Y009580D03*
X010103Y009580D03*
X009928Y009603D03*
X009928Y009605D03*
X009748Y009465D03*
X009735Y009380D03*
X009588Y009353D03*
X009578Y009265D03*
X009578Y009190D03*
X009673Y009138D03*
X009735Y009075D03*
X009798Y009013D03*
X009650Y009595D03*
X009665Y009688D03*
X009528Y009718D03*
X009568Y009815D03*
X009665Y009868D03*
X015715Y001668D03*
X015618Y001615D03*
X015578Y001518D03*
X015715Y001488D03*
X015700Y001395D03*
X015798Y001265D03*
X015785Y001180D03*
X015638Y001153D03*
X015628Y001065D03*
X015628Y000990D03*
X015723Y000938D03*
X015785Y000875D03*
X015848Y000813D03*
X016560Y001268D03*
X016563Y001273D03*
X016435Y001380D03*
X016153Y001380D03*
X015978Y001403D03*
X015978Y001405D03*
X017200Y001385D03*
X017200Y001383D03*
X017200Y001380D03*
X017200Y001378D03*
X017200Y001288D03*
X017200Y001285D03*
X017200Y001283D03*
X017200Y001280D03*
X017200Y001278D03*
D20*
X017198Y001263D03*
X017198Y001260D03*
X017198Y001258D03*
X017198Y001255D03*
X017198Y001253D03*
X017198Y001403D03*
X017198Y001405D03*
X017198Y001408D03*
X017198Y001410D03*
X016813Y001408D03*
X016813Y001405D03*
X016813Y001403D03*
X016813Y001400D03*
X016813Y001398D03*
X016813Y001395D03*
X016705Y001273D03*
X016705Y001270D03*
X016705Y001268D03*
X016705Y001265D03*
X016705Y001263D03*
X016705Y001260D03*
X016705Y001258D03*
X016705Y001255D03*
X016560Y001263D03*
X016275Y001375D03*
X015975Y001393D03*
X015975Y001395D03*
X015700Y001393D03*
X015715Y001490D03*
X015578Y001515D03*
X015715Y001665D03*
X015700Y001218D03*
X015638Y001155D03*
X015723Y001115D03*
X015785Y001178D03*
X015988Y001225D03*
X015723Y000940D03*
X015785Y000878D03*
X015848Y000815D03*
X009798Y009015D03*
X009735Y009078D03*
X009673Y009140D03*
X009673Y009315D03*
X009735Y009378D03*
X009650Y009418D03*
X009588Y009355D03*
X009650Y009593D03*
X009665Y009690D03*
X009528Y009715D03*
X009665Y009865D03*
X009925Y009595D03*
X009925Y009593D03*
X009938Y009425D03*
X010225Y009575D03*
X010510Y009463D03*
X010655Y009463D03*
X010655Y009465D03*
X010655Y009468D03*
X010655Y009470D03*
X010655Y009473D03*
X010655Y009460D03*
X010655Y009458D03*
X010655Y009455D03*
X010763Y009595D03*
X010763Y009598D03*
X010763Y009600D03*
X010763Y009603D03*
X010763Y009605D03*
X010763Y009608D03*
X011148Y009608D03*
X011148Y009610D03*
X011148Y009605D03*
X011148Y009603D03*
X011148Y009463D03*
X011148Y009460D03*
X011148Y009458D03*
X011148Y009455D03*
X011148Y009453D03*
X015588Y010905D03*
X015650Y010968D03*
X015735Y010928D03*
X015673Y010865D03*
X015673Y010690D03*
X015735Y010628D03*
X015798Y010565D03*
X015938Y010975D03*
X015925Y011143D03*
X015925Y011145D03*
X016225Y011125D03*
X016510Y011013D03*
X016655Y011013D03*
X016655Y011015D03*
X016655Y011018D03*
X016655Y011020D03*
X016655Y011023D03*
X016655Y011010D03*
X016655Y011008D03*
X016655Y011005D03*
X016763Y011145D03*
X016763Y011148D03*
X016763Y011150D03*
X016763Y011153D03*
X016763Y011155D03*
X016763Y011158D03*
X017148Y011158D03*
X017148Y011160D03*
X017148Y011155D03*
X017148Y011153D03*
X017148Y011013D03*
X017148Y011010D03*
X017148Y011008D03*
X017148Y011005D03*
X017148Y011003D03*
X015665Y011240D03*
X015650Y011143D03*
X015528Y011265D03*
X015665Y011415D03*
D21*
X015528Y011263D03*
X015923Y011135D03*
X015923Y011133D03*
X016035Y011200D03*
X016318Y011125D03*
X016495Y010978D03*
X016498Y010980D03*
X016583Y010935D03*
X016760Y011163D03*
X016890Y011130D03*
X016888Y010975D03*
X017145Y010998D03*
X015735Y010925D03*
X015673Y010863D03*
X015588Y010908D03*
X015650Y010970D03*
X015578Y010813D03*
X015578Y010743D03*
X015673Y010693D03*
X015735Y010630D03*
X015798Y010568D03*
X011145Y009448D03*
X010888Y009425D03*
X010890Y009580D03*
X010760Y009613D03*
X010583Y009385D03*
X010498Y009430D03*
X010495Y009428D03*
X010318Y009575D03*
X010035Y009650D03*
X009923Y009585D03*
X009923Y009583D03*
X009735Y009375D03*
X009673Y009313D03*
X009588Y009358D03*
X009650Y009420D03*
X009578Y009263D03*
X009578Y009193D03*
X009673Y009143D03*
X009735Y009080D03*
X009798Y009018D03*
X009528Y009713D03*
X015578Y001513D03*
X015973Y001385D03*
X015973Y001383D03*
X016085Y001450D03*
X016368Y001375D03*
X016545Y001228D03*
X016548Y001230D03*
X016633Y001185D03*
X016938Y001225D03*
X016940Y001380D03*
X016810Y001413D03*
X017195Y001248D03*
X015785Y001175D03*
X015723Y001113D03*
X015638Y001158D03*
X015700Y001220D03*
X015628Y001063D03*
X015628Y000993D03*
X015723Y000943D03*
X015785Y000880D03*
X015848Y000818D03*
D22*
X015848Y000820D03*
X015700Y001223D03*
X015970Y001263D03*
X015970Y001265D03*
X015970Y001268D03*
X015970Y001270D03*
X015970Y001273D03*
X015970Y001275D03*
X015970Y001278D03*
X015970Y001280D03*
X015970Y001283D03*
X015970Y001285D03*
X015970Y001288D03*
X015970Y001290D03*
X015970Y001293D03*
X015970Y001295D03*
X015970Y001298D03*
X015970Y001300D03*
X015970Y001303D03*
X015970Y001305D03*
X015970Y001308D03*
X015970Y001310D03*
X015970Y001313D03*
X015970Y001315D03*
X015970Y001318D03*
X015970Y001320D03*
X015970Y001323D03*
X015970Y001325D03*
X015970Y001328D03*
X015970Y001330D03*
X015970Y001333D03*
X015970Y001335D03*
X015970Y001338D03*
X015970Y001340D03*
X015970Y001343D03*
X015970Y001345D03*
X015970Y001348D03*
X015970Y001350D03*
X015970Y001353D03*
X016083Y001348D03*
X016083Y001345D03*
X016083Y001343D03*
X016083Y001340D03*
X016083Y001338D03*
X016083Y001335D03*
X016083Y001333D03*
X016083Y001330D03*
X016083Y001328D03*
X016083Y001325D03*
X016083Y001323D03*
X016083Y001320D03*
X016083Y001318D03*
X016083Y001315D03*
X016083Y001313D03*
X016083Y001310D03*
X016083Y001308D03*
X016083Y001305D03*
X016083Y001303D03*
X016083Y001300D03*
X016083Y001298D03*
X016083Y001295D03*
X016083Y001293D03*
X016083Y001290D03*
X016083Y001288D03*
X016083Y001285D03*
X016083Y001283D03*
X016083Y001280D03*
X016083Y001278D03*
X016083Y001275D03*
X016083Y001273D03*
X016083Y001270D03*
X016083Y001268D03*
X016083Y001265D03*
X016083Y001263D03*
X016083Y001260D03*
X016083Y001258D03*
X016083Y001255D03*
X016083Y001253D03*
X016083Y001250D03*
X016083Y001248D03*
X016083Y001245D03*
X016175Y001245D03*
X016175Y001248D03*
X016175Y001250D03*
X016175Y001253D03*
X016175Y001255D03*
X016175Y001258D03*
X016175Y001260D03*
X016175Y001263D03*
X016175Y001265D03*
X016175Y001268D03*
X016175Y001270D03*
X016175Y001273D03*
X016175Y001275D03*
X016175Y001278D03*
X016175Y001280D03*
X016175Y001283D03*
X016175Y001285D03*
X016175Y001288D03*
X016175Y001290D03*
X016175Y001293D03*
X016175Y001295D03*
X016175Y001298D03*
X016175Y001300D03*
X016175Y001303D03*
X016175Y001305D03*
X016175Y001308D03*
X016175Y001310D03*
X016175Y001313D03*
X016175Y001315D03*
X016175Y001318D03*
X016175Y001320D03*
X016175Y001323D03*
X016175Y001325D03*
X016175Y001328D03*
X016175Y001330D03*
X016175Y001333D03*
X016153Y001378D03*
X016083Y001378D03*
X016083Y001380D03*
X016083Y001383D03*
X016083Y001385D03*
X016083Y001388D03*
X016083Y001390D03*
X016083Y001393D03*
X016083Y001395D03*
X016083Y001398D03*
X016083Y001400D03*
X016083Y001403D03*
X016083Y001405D03*
X016083Y001408D03*
X016083Y001410D03*
X016083Y001413D03*
X016083Y001415D03*
X016083Y001418D03*
X016083Y001420D03*
X016083Y001423D03*
X016083Y001425D03*
X016083Y001428D03*
X016083Y001375D03*
X016083Y001373D03*
X016083Y001370D03*
X016083Y001368D03*
X016083Y001365D03*
X016270Y001353D03*
X016270Y001350D03*
X016270Y001348D03*
X016270Y001345D03*
X016270Y001343D03*
X016270Y001340D03*
X016270Y001338D03*
X016270Y001335D03*
X016270Y001333D03*
X016270Y001330D03*
X016270Y001328D03*
X016270Y001325D03*
X016270Y001323D03*
X016270Y001320D03*
X016270Y001318D03*
X016270Y001315D03*
X016270Y001313D03*
X016270Y001310D03*
X016270Y001308D03*
X016270Y001305D03*
X016270Y001303D03*
X016270Y001300D03*
X016270Y001298D03*
X016270Y001295D03*
X016270Y001293D03*
X016270Y001290D03*
X016270Y001288D03*
X016270Y001285D03*
X016270Y001283D03*
X016270Y001280D03*
X016270Y001278D03*
X016270Y001275D03*
X016270Y001273D03*
X016270Y001270D03*
X016270Y001268D03*
X016270Y001265D03*
X016270Y001263D03*
X016270Y001260D03*
X016270Y001258D03*
X016270Y001255D03*
X016270Y001253D03*
X016270Y001250D03*
X016270Y001248D03*
X016270Y001245D03*
X016365Y001245D03*
X016365Y001248D03*
X016365Y001250D03*
X016365Y001253D03*
X016365Y001255D03*
X016365Y001258D03*
X016365Y001260D03*
X016365Y001263D03*
X016365Y001265D03*
X016365Y001268D03*
X016365Y001270D03*
X016365Y001273D03*
X016365Y001275D03*
X016365Y001278D03*
X016365Y001280D03*
X016365Y001283D03*
X016365Y001285D03*
X016365Y001288D03*
X016365Y001290D03*
X016365Y001293D03*
X016365Y001295D03*
X016365Y001298D03*
X016365Y001300D03*
X016365Y001303D03*
X016365Y001305D03*
X016365Y001308D03*
X016365Y001310D03*
X016365Y001313D03*
X016365Y001315D03*
X016365Y001318D03*
X016365Y001320D03*
X016365Y001323D03*
X016365Y001325D03*
X016365Y001328D03*
X016365Y001330D03*
X016365Y001333D03*
X016365Y001335D03*
X016365Y001338D03*
X016365Y001340D03*
X016365Y001343D03*
X016365Y001345D03*
X016365Y001348D03*
X016435Y001378D03*
X016458Y001333D03*
X016458Y001330D03*
X016458Y001328D03*
X016458Y001325D03*
X016458Y001323D03*
X016458Y001320D03*
X016458Y001318D03*
X016458Y001315D03*
X016458Y001313D03*
X016458Y001310D03*
X016458Y001308D03*
X016458Y001305D03*
X016458Y001303D03*
X016458Y001300D03*
X016458Y001298D03*
X016458Y001295D03*
X016458Y001293D03*
X016458Y001290D03*
X016458Y001288D03*
X016458Y001285D03*
X016458Y001283D03*
X016458Y001280D03*
X016458Y001278D03*
X016458Y001275D03*
X016458Y001273D03*
X016458Y001270D03*
X016458Y001268D03*
X016458Y001265D03*
X016458Y001263D03*
X016458Y001260D03*
X016458Y001258D03*
X016458Y001255D03*
X016458Y001253D03*
X016458Y001250D03*
X016458Y001248D03*
X016458Y001245D03*
X016538Y001218D03*
X016538Y001215D03*
X016535Y001210D03*
X016535Y001208D03*
X016535Y001205D03*
X016535Y001203D03*
X016535Y001200D03*
X016563Y001258D03*
X016615Y001298D03*
X016618Y001300D03*
X016620Y001303D03*
X016623Y001308D03*
X016625Y001313D03*
X016625Y001315D03*
X016625Y001318D03*
X016628Y001320D03*
X016628Y001323D03*
X016628Y001325D03*
X016628Y001328D03*
X016628Y001330D03*
X016628Y001333D03*
X016628Y001335D03*
X016628Y001338D03*
X016628Y001340D03*
X016625Y001345D03*
X016625Y001348D03*
X016623Y001353D03*
X016550Y001358D03*
X016548Y001355D03*
X016545Y001350D03*
X016545Y001348D03*
X016543Y001343D03*
X016543Y001340D03*
X016643Y001210D03*
X016643Y001208D03*
X016643Y001205D03*
X016750Y001225D03*
X016805Y001260D03*
X016895Y001350D03*
X016723Y001405D03*
X016720Y001403D03*
X016720Y001400D03*
X016718Y001395D03*
X016718Y001393D03*
X016718Y001390D03*
X017150Y001438D03*
X017150Y001225D03*
X015578Y001510D03*
X009798Y009020D03*
X009650Y009423D03*
X009920Y009463D03*
X009920Y009465D03*
X009920Y009468D03*
X009920Y009470D03*
X009920Y009473D03*
X009920Y009475D03*
X009920Y009478D03*
X009920Y009480D03*
X009920Y009483D03*
X009920Y009485D03*
X009920Y009488D03*
X009920Y009490D03*
X009920Y009493D03*
X009920Y009495D03*
X009920Y009498D03*
X009920Y009500D03*
X009920Y009503D03*
X009920Y009505D03*
X009920Y009508D03*
X009920Y009510D03*
X009920Y009513D03*
X009920Y009515D03*
X009920Y009518D03*
X009920Y009520D03*
X009920Y009523D03*
X009920Y009525D03*
X009920Y009528D03*
X009920Y009530D03*
X009920Y009533D03*
X009920Y009535D03*
X009920Y009538D03*
X009920Y009540D03*
X009920Y009543D03*
X009920Y009545D03*
X009920Y009548D03*
X009920Y009550D03*
X009920Y009553D03*
X010033Y009548D03*
X010033Y009545D03*
X010033Y009543D03*
X010033Y009540D03*
X010033Y009538D03*
X010033Y009535D03*
X010033Y009533D03*
X010033Y009530D03*
X010033Y009528D03*
X010033Y009525D03*
X010033Y009523D03*
X010033Y009520D03*
X010033Y009518D03*
X010033Y009515D03*
X010033Y009513D03*
X010033Y009510D03*
X010033Y009508D03*
X010033Y009505D03*
X010033Y009503D03*
X010033Y009500D03*
X010033Y009498D03*
X010033Y009495D03*
X010033Y009493D03*
X010033Y009490D03*
X010033Y009488D03*
X010033Y009485D03*
X010033Y009483D03*
X010033Y009480D03*
X010033Y009478D03*
X010033Y009475D03*
X010033Y009473D03*
X010033Y009470D03*
X010033Y009468D03*
X010033Y009465D03*
X010033Y009463D03*
X010033Y009460D03*
X010033Y009458D03*
X010033Y009455D03*
X010033Y009453D03*
X010033Y009450D03*
X010033Y009448D03*
X010033Y009445D03*
X010125Y009445D03*
X010125Y009448D03*
X010125Y009450D03*
X010125Y009453D03*
X010125Y009455D03*
X010125Y009458D03*
X010125Y009460D03*
X010125Y009463D03*
X010125Y009465D03*
X010125Y009468D03*
X010125Y009470D03*
X010125Y009473D03*
X010125Y009475D03*
X010125Y009478D03*
X010125Y009480D03*
X010125Y009483D03*
X010125Y009485D03*
X010125Y009488D03*
X010125Y009490D03*
X010125Y009493D03*
X010125Y009495D03*
X010125Y009498D03*
X010125Y009500D03*
X010125Y009503D03*
X010125Y009505D03*
X010125Y009508D03*
X010125Y009510D03*
X010125Y009513D03*
X010125Y009515D03*
X010125Y009518D03*
X010125Y009520D03*
X010125Y009523D03*
X010125Y009525D03*
X010125Y009528D03*
X010125Y009530D03*
X010125Y009533D03*
X010103Y009578D03*
X010033Y009578D03*
X010033Y009580D03*
X010033Y009583D03*
X010033Y009585D03*
X010033Y009588D03*
X010033Y009590D03*
X010033Y009593D03*
X010033Y009595D03*
X010033Y009598D03*
X010033Y009600D03*
X010033Y009603D03*
X010033Y009605D03*
X010033Y009608D03*
X010033Y009610D03*
X010033Y009613D03*
X010033Y009615D03*
X010033Y009618D03*
X010033Y009620D03*
X010033Y009623D03*
X010033Y009625D03*
X010033Y009628D03*
X010033Y009575D03*
X010033Y009573D03*
X010033Y009570D03*
X010033Y009568D03*
X010033Y009565D03*
X010220Y009553D03*
X010220Y009550D03*
X010220Y009548D03*
X010220Y009545D03*
X010220Y009543D03*
X010220Y009540D03*
X010220Y009538D03*
X010220Y009535D03*
X010220Y009533D03*
X010220Y009530D03*
X010220Y009528D03*
X010220Y009525D03*
X010220Y009523D03*
X010220Y009520D03*
X010220Y009518D03*
X010220Y009515D03*
X010220Y009513D03*
X010220Y009510D03*
X010220Y009508D03*
X010220Y009505D03*
X010220Y009503D03*
X010220Y009500D03*
X010220Y009498D03*
X010220Y009495D03*
X010220Y009493D03*
X010220Y009490D03*
X010220Y009488D03*
X010220Y009485D03*
X010220Y009483D03*
X010220Y009480D03*
X010220Y009478D03*
X010220Y009475D03*
X010220Y009473D03*
X010220Y009470D03*
X010220Y009468D03*
X010220Y009465D03*
X010220Y009463D03*
X010220Y009460D03*
X010220Y009458D03*
X010220Y009455D03*
X010220Y009453D03*
X010220Y009450D03*
X010220Y009448D03*
X010220Y009445D03*
X010315Y009445D03*
X010315Y009448D03*
X010315Y009450D03*
X010315Y009453D03*
X010315Y009455D03*
X010315Y009458D03*
X010315Y009460D03*
X010315Y009463D03*
X010315Y009465D03*
X010315Y009468D03*
X010315Y009470D03*
X010315Y009473D03*
X010315Y009475D03*
X010315Y009478D03*
X010315Y009480D03*
X010315Y009483D03*
X010315Y009485D03*
X010315Y009488D03*
X010315Y009490D03*
X010315Y009493D03*
X010315Y009495D03*
X010315Y009498D03*
X010315Y009500D03*
X010315Y009503D03*
X010315Y009505D03*
X010315Y009508D03*
X010315Y009510D03*
X010315Y009513D03*
X010315Y009515D03*
X010315Y009518D03*
X010315Y009520D03*
X010315Y009523D03*
X010315Y009525D03*
X010315Y009528D03*
X010315Y009530D03*
X010315Y009533D03*
X010315Y009535D03*
X010315Y009538D03*
X010315Y009540D03*
X010315Y009543D03*
X010315Y009545D03*
X010315Y009548D03*
X010385Y009578D03*
X010408Y009533D03*
X010408Y009530D03*
X010408Y009528D03*
X010408Y009525D03*
X010408Y009523D03*
X010408Y009520D03*
X010408Y009518D03*
X010408Y009515D03*
X010408Y009513D03*
X010408Y009510D03*
X010408Y009508D03*
X010408Y009505D03*
X010408Y009503D03*
X010408Y009500D03*
X010408Y009498D03*
X010408Y009495D03*
X010408Y009493D03*
X010408Y009490D03*
X010408Y009488D03*
X010408Y009485D03*
X010408Y009483D03*
X010408Y009480D03*
X010408Y009478D03*
X010408Y009475D03*
X010408Y009473D03*
X010408Y009470D03*
X010408Y009468D03*
X010408Y009465D03*
X010408Y009463D03*
X010408Y009460D03*
X010408Y009458D03*
X010408Y009455D03*
X010408Y009453D03*
X010408Y009450D03*
X010408Y009448D03*
X010408Y009445D03*
X010488Y009418D03*
X010488Y009415D03*
X010485Y009410D03*
X010485Y009408D03*
X010485Y009405D03*
X010485Y009403D03*
X010485Y009400D03*
X010513Y009458D03*
X010565Y009498D03*
X010568Y009500D03*
X010570Y009503D03*
X010573Y009508D03*
X010575Y009513D03*
X010575Y009515D03*
X010575Y009518D03*
X010578Y009520D03*
X010578Y009523D03*
X010578Y009525D03*
X010578Y009528D03*
X010578Y009530D03*
X010578Y009533D03*
X010578Y009535D03*
X010578Y009538D03*
X010578Y009540D03*
X010575Y009545D03*
X010575Y009548D03*
X010573Y009553D03*
X010500Y009558D03*
X010498Y009555D03*
X010495Y009550D03*
X010495Y009548D03*
X010493Y009543D03*
X010493Y009540D03*
X010593Y009410D03*
X010593Y009408D03*
X010593Y009405D03*
X010700Y009425D03*
X010755Y009460D03*
X010845Y009550D03*
X010673Y009605D03*
X010670Y009603D03*
X010670Y009600D03*
X010668Y009595D03*
X010668Y009593D03*
X010668Y009590D03*
X011100Y009638D03*
X011100Y009425D03*
X009528Y009710D03*
X015528Y011260D03*
X015920Y011103D03*
X015920Y011100D03*
X015920Y011098D03*
X015920Y011095D03*
X015920Y011093D03*
X015920Y011090D03*
X015920Y011088D03*
X015920Y011085D03*
X015920Y011083D03*
X015920Y011080D03*
X015920Y011078D03*
X015920Y011075D03*
X015920Y011073D03*
X015920Y011070D03*
X015920Y011068D03*
X015920Y011065D03*
X015920Y011063D03*
X015920Y011060D03*
X015920Y011058D03*
X015920Y011055D03*
X015920Y011053D03*
X015920Y011050D03*
X015920Y011048D03*
X015920Y011045D03*
X015920Y011043D03*
X015920Y011040D03*
X015920Y011038D03*
X015920Y011035D03*
X015920Y011033D03*
X015920Y011030D03*
X015920Y011028D03*
X015920Y011025D03*
X015920Y011023D03*
X015920Y011020D03*
X015920Y011018D03*
X015920Y011015D03*
X015920Y011013D03*
X016033Y011013D03*
X016033Y011015D03*
X016033Y011018D03*
X016033Y011020D03*
X016033Y011023D03*
X016033Y011025D03*
X016033Y011028D03*
X016033Y011030D03*
X016033Y011033D03*
X016033Y011035D03*
X016033Y011038D03*
X016033Y011040D03*
X016033Y011043D03*
X016033Y011045D03*
X016033Y011048D03*
X016033Y011050D03*
X016033Y011053D03*
X016033Y011055D03*
X016033Y011058D03*
X016033Y011060D03*
X016033Y011063D03*
X016033Y011065D03*
X016033Y011068D03*
X016033Y011070D03*
X016033Y011073D03*
X016033Y011075D03*
X016033Y011078D03*
X016033Y011080D03*
X016033Y011083D03*
X016033Y011085D03*
X016033Y011088D03*
X016033Y011090D03*
X016033Y011093D03*
X016033Y011095D03*
X016033Y011098D03*
X016033Y011115D03*
X016033Y011118D03*
X016033Y011120D03*
X016033Y011123D03*
X016033Y011125D03*
X016033Y011128D03*
X016033Y011130D03*
X016033Y011133D03*
X016033Y011135D03*
X016033Y011138D03*
X016033Y011140D03*
X016033Y011143D03*
X016033Y011145D03*
X016033Y011148D03*
X016033Y011150D03*
X016033Y011153D03*
X016033Y011155D03*
X016033Y011158D03*
X016033Y011160D03*
X016033Y011163D03*
X016033Y011165D03*
X016033Y011168D03*
X016033Y011170D03*
X016033Y011173D03*
X016033Y011175D03*
X016033Y011178D03*
X016103Y011128D03*
X016125Y011083D03*
X016125Y011080D03*
X016125Y011078D03*
X016125Y011075D03*
X016125Y011073D03*
X016125Y011070D03*
X016125Y011068D03*
X016125Y011065D03*
X016125Y011063D03*
X016125Y011060D03*
X016125Y011058D03*
X016125Y011055D03*
X016125Y011053D03*
X016125Y011050D03*
X016125Y011048D03*
X016125Y011045D03*
X016125Y011043D03*
X016125Y011040D03*
X016125Y011038D03*
X016125Y011035D03*
X016125Y011033D03*
X016125Y011030D03*
X016125Y011028D03*
X016125Y011025D03*
X016125Y011023D03*
X016125Y011020D03*
X016125Y011018D03*
X016125Y011015D03*
X016125Y011013D03*
X016125Y011010D03*
X016125Y011008D03*
X016125Y011005D03*
X016125Y011003D03*
X016125Y011000D03*
X016125Y010998D03*
X016125Y010995D03*
X016033Y010995D03*
X016033Y010998D03*
X016033Y011000D03*
X016033Y011003D03*
X016033Y011005D03*
X016033Y011008D03*
X016033Y011010D03*
X016220Y011010D03*
X016220Y011013D03*
X016220Y011015D03*
X016220Y011018D03*
X016220Y011020D03*
X016220Y011023D03*
X016220Y011025D03*
X016220Y011028D03*
X016220Y011030D03*
X016220Y011033D03*
X016220Y011035D03*
X016220Y011038D03*
X016220Y011040D03*
X016220Y011043D03*
X016220Y011045D03*
X016220Y011048D03*
X016220Y011050D03*
X016220Y011053D03*
X016220Y011055D03*
X016220Y011058D03*
X016220Y011060D03*
X016220Y011063D03*
X016220Y011065D03*
X016220Y011068D03*
X016220Y011070D03*
X016220Y011073D03*
X016220Y011075D03*
X016220Y011078D03*
X016220Y011080D03*
X016220Y011083D03*
X016220Y011085D03*
X016220Y011088D03*
X016220Y011090D03*
X016220Y011093D03*
X016220Y011095D03*
X016220Y011098D03*
X016220Y011100D03*
X016220Y011103D03*
X016315Y011098D03*
X016315Y011095D03*
X016315Y011093D03*
X016315Y011090D03*
X016315Y011088D03*
X016315Y011085D03*
X016315Y011083D03*
X016315Y011080D03*
X016315Y011078D03*
X016315Y011075D03*
X016315Y011073D03*
X016315Y011070D03*
X016315Y011068D03*
X016315Y011065D03*
X016315Y011063D03*
X016315Y011060D03*
X016315Y011058D03*
X016315Y011055D03*
X016315Y011053D03*
X016315Y011050D03*
X016315Y011048D03*
X016315Y011045D03*
X016315Y011043D03*
X016315Y011040D03*
X016315Y011038D03*
X016315Y011035D03*
X016315Y011033D03*
X016315Y011030D03*
X016315Y011028D03*
X016315Y011025D03*
X016315Y011023D03*
X016315Y011020D03*
X016315Y011018D03*
X016315Y011015D03*
X016315Y011013D03*
X016315Y011010D03*
X016315Y011008D03*
X016315Y011005D03*
X016315Y011003D03*
X016315Y011000D03*
X016315Y010998D03*
X016315Y010995D03*
X016408Y010995D03*
X016408Y010998D03*
X016408Y011000D03*
X016408Y011003D03*
X016408Y011005D03*
X016408Y011008D03*
X016408Y011010D03*
X016408Y011013D03*
X016408Y011015D03*
X016408Y011018D03*
X016408Y011020D03*
X016408Y011023D03*
X016408Y011025D03*
X016408Y011028D03*
X016408Y011030D03*
X016408Y011033D03*
X016408Y011035D03*
X016408Y011038D03*
X016408Y011040D03*
X016408Y011043D03*
X016408Y011045D03*
X016408Y011048D03*
X016408Y011050D03*
X016408Y011053D03*
X016408Y011055D03*
X016408Y011058D03*
X016408Y011060D03*
X016408Y011063D03*
X016408Y011065D03*
X016408Y011068D03*
X016408Y011070D03*
X016408Y011073D03*
X016408Y011075D03*
X016408Y011078D03*
X016408Y011080D03*
X016408Y011083D03*
X016385Y011128D03*
X016493Y011093D03*
X016493Y011090D03*
X016495Y011098D03*
X016495Y011100D03*
X016498Y011105D03*
X016500Y011108D03*
X016573Y011103D03*
X016575Y011098D03*
X016575Y011095D03*
X016578Y011090D03*
X016578Y011088D03*
X016578Y011085D03*
X016578Y011083D03*
X016578Y011080D03*
X016578Y011078D03*
X016578Y011075D03*
X016578Y011073D03*
X016578Y011070D03*
X016575Y011068D03*
X016575Y011065D03*
X016575Y011063D03*
X016573Y011058D03*
X016570Y011053D03*
X016568Y011050D03*
X016565Y011048D03*
X016513Y011008D03*
X016488Y010968D03*
X016488Y010965D03*
X016485Y010960D03*
X016485Y010958D03*
X016485Y010955D03*
X016485Y010953D03*
X016485Y010950D03*
X016593Y010955D03*
X016593Y010958D03*
X016593Y010960D03*
X016700Y010975D03*
X016755Y011010D03*
X016845Y011100D03*
X016673Y011155D03*
X016670Y011153D03*
X016670Y011150D03*
X016668Y011145D03*
X016668Y011143D03*
X016668Y011140D03*
X017100Y011188D03*
X017100Y010975D03*
X016220Y010995D03*
X016220Y010998D03*
X016220Y011000D03*
X016220Y011003D03*
X016220Y011005D03*
X016220Y011008D03*
X015650Y010973D03*
X015798Y010570D03*
D23*
X015798Y010573D03*
X015578Y010745D03*
X015578Y010810D03*
X015650Y010975D03*
X015748Y011020D03*
X015725Y011188D03*
X015590Y011195D03*
X015528Y011258D03*
X015568Y011360D03*
X015923Y011005D03*
X015923Y011003D03*
X016033Y010993D03*
X016125Y010993D03*
X016220Y010993D03*
X016315Y010993D03*
X016408Y010993D03*
X016490Y010938D03*
X016590Y010968D03*
X016503Y011048D03*
X016493Y011068D03*
X016508Y011115D03*
X016405Y011095D03*
X016405Y011093D03*
X016403Y011098D03*
X016318Y011100D03*
X016218Y011120D03*
X016123Y011093D03*
X016120Y011098D03*
X016035Y011100D03*
X016668Y011125D03*
X016668Y011128D03*
X016683Y011165D03*
X016755Y011168D03*
X016838Y011085D03*
X016835Y011078D03*
X016835Y011075D03*
X016835Y011073D03*
X016833Y011068D03*
X016833Y011065D03*
X016833Y011063D03*
X016833Y011060D03*
X016833Y011058D03*
X016833Y011055D03*
X016833Y011053D03*
X016833Y011050D03*
X016833Y011048D03*
X016833Y011045D03*
X016833Y011043D03*
X016833Y011040D03*
X016833Y011038D03*
X016835Y011033D03*
X016835Y011030D03*
X016835Y011028D03*
X016838Y011020D03*
X016840Y011013D03*
X016853Y010995D03*
X016940Y011020D03*
X016943Y011028D03*
X016943Y011030D03*
X016943Y011033D03*
X016945Y011038D03*
X016945Y011040D03*
X016945Y011043D03*
X016945Y011045D03*
X016945Y011048D03*
X016945Y011050D03*
X016945Y011053D03*
X016945Y011055D03*
X016945Y011058D03*
X016945Y011060D03*
X016945Y011063D03*
X016945Y011065D03*
X016945Y011068D03*
X016943Y011073D03*
X016943Y011075D03*
X016943Y011078D03*
X016940Y011085D03*
X017015Y011100D03*
X017018Y011113D03*
X017020Y011120D03*
X017023Y011128D03*
X017025Y011133D03*
X017028Y011138D03*
X017015Y011063D03*
X017018Y011050D03*
X017020Y011043D03*
X017023Y011035D03*
X017025Y011030D03*
X016760Y011030D03*
X016760Y011028D03*
X016760Y011025D03*
X016750Y011003D03*
X016748Y011000D03*
X011028Y009588D03*
X011025Y009583D03*
X011023Y009578D03*
X011020Y009570D03*
X011018Y009563D03*
X011015Y009550D03*
X011015Y009513D03*
X011018Y009500D03*
X011020Y009493D03*
X011023Y009485D03*
X011025Y009480D03*
X010945Y009488D03*
X010945Y009490D03*
X010945Y009493D03*
X010945Y009495D03*
X010945Y009498D03*
X010945Y009500D03*
X010945Y009503D03*
X010945Y009505D03*
X010945Y009508D03*
X010945Y009510D03*
X010945Y009513D03*
X010945Y009515D03*
X010945Y009518D03*
X010943Y009523D03*
X010943Y009525D03*
X010943Y009528D03*
X010940Y009535D03*
X010943Y009483D03*
X010943Y009480D03*
X010943Y009478D03*
X010940Y009470D03*
X010853Y009445D03*
X010840Y009463D03*
X010838Y009470D03*
X010835Y009478D03*
X010835Y009480D03*
X010835Y009483D03*
X010833Y009488D03*
X010833Y009490D03*
X010833Y009493D03*
X010833Y009495D03*
X010833Y009498D03*
X010833Y009500D03*
X010833Y009503D03*
X010833Y009505D03*
X010833Y009508D03*
X010833Y009510D03*
X010833Y009513D03*
X010833Y009515D03*
X010833Y009518D03*
X010835Y009523D03*
X010835Y009525D03*
X010835Y009528D03*
X010838Y009535D03*
X010760Y009480D03*
X010760Y009478D03*
X010760Y009475D03*
X010750Y009453D03*
X010748Y009450D03*
X010668Y009575D03*
X010668Y009578D03*
X010683Y009615D03*
X010755Y009618D03*
X010508Y009565D03*
X010493Y009518D03*
X010503Y009498D03*
X010405Y009543D03*
X010405Y009545D03*
X010403Y009548D03*
X010318Y009550D03*
X010218Y009570D03*
X010123Y009543D03*
X010120Y009548D03*
X010035Y009550D03*
X010033Y009443D03*
X010125Y009443D03*
X010220Y009443D03*
X010315Y009443D03*
X010408Y009443D03*
X010490Y009388D03*
X010590Y009418D03*
X009923Y009453D03*
X009923Y009455D03*
X009748Y009470D03*
X009650Y009425D03*
X009578Y009260D03*
X009578Y009195D03*
X009798Y009023D03*
X009725Y009638D03*
X009590Y009645D03*
X009528Y009708D03*
X009568Y009810D03*
X015618Y001610D03*
X015578Y001508D03*
X015640Y001445D03*
X015775Y001438D03*
X015798Y001270D03*
X015700Y001225D03*
X015628Y001060D03*
X015628Y000995D03*
X015848Y000823D03*
X016083Y001243D03*
X016175Y001243D03*
X016270Y001243D03*
X016365Y001243D03*
X016458Y001243D03*
X016540Y001188D03*
X016640Y001218D03*
X016553Y001298D03*
X016543Y001318D03*
X016558Y001365D03*
X016455Y001345D03*
X016455Y001343D03*
X016453Y001348D03*
X016368Y001350D03*
X016268Y001370D03*
X016173Y001343D03*
X016170Y001348D03*
X016085Y001350D03*
X015973Y001255D03*
X015973Y001253D03*
X016718Y001375D03*
X016718Y001378D03*
X016733Y001415D03*
X016805Y001418D03*
X016888Y001335D03*
X016885Y001328D03*
X016885Y001325D03*
X016885Y001323D03*
X016883Y001318D03*
X016883Y001315D03*
X016883Y001313D03*
X016883Y001310D03*
X016883Y001308D03*
X016883Y001305D03*
X016883Y001303D03*
X016883Y001300D03*
X016883Y001298D03*
X016883Y001295D03*
X016883Y001293D03*
X016883Y001290D03*
X016883Y001288D03*
X016885Y001283D03*
X016885Y001280D03*
X016885Y001278D03*
X016888Y001270D03*
X016890Y001263D03*
X016903Y001245D03*
X016990Y001270D03*
X016993Y001278D03*
X016993Y001280D03*
X016993Y001283D03*
X016995Y001288D03*
X016995Y001290D03*
X016995Y001293D03*
X016995Y001295D03*
X016995Y001298D03*
X016995Y001300D03*
X016995Y001303D03*
X016995Y001305D03*
X016995Y001308D03*
X016995Y001310D03*
X016995Y001313D03*
X016995Y001315D03*
X016995Y001318D03*
X016993Y001323D03*
X016993Y001325D03*
X016993Y001328D03*
X016990Y001335D03*
X017065Y001350D03*
X017068Y001363D03*
X017070Y001370D03*
X017073Y001378D03*
X017075Y001383D03*
X017078Y001388D03*
X017065Y001313D03*
X017068Y001300D03*
X017070Y001293D03*
X017073Y001285D03*
X017075Y001280D03*
X016810Y001280D03*
X016810Y001278D03*
X016810Y001275D03*
X016800Y001253D03*
X016798Y001250D03*
D24*
X016808Y001290D03*
X016723Y001365D03*
X016720Y001368D03*
X016720Y001370D03*
X016638Y001220D03*
X016450Y001350D03*
X016360Y001370D03*
X016168Y001350D03*
X016078Y001445D03*
X015990Y001228D03*
X015775Y001440D03*
X015703Y001380D03*
X015640Y001443D03*
X015578Y001505D03*
X015775Y001715D03*
X015848Y000825D03*
X017085Y001265D03*
X017090Y001260D03*
X017093Y001258D03*
X017095Y001255D03*
X017095Y001408D03*
X017098Y001410D03*
X009798Y009025D03*
X009940Y009428D03*
X010118Y009550D03*
X010028Y009645D03*
X009725Y009640D03*
X009653Y009580D03*
X009590Y009643D03*
X009528Y009705D03*
X009725Y009915D03*
X010310Y009570D03*
X010400Y009550D03*
X010588Y009420D03*
X010673Y009565D03*
X010670Y009568D03*
X010670Y009570D03*
X010758Y009490D03*
X011035Y009465D03*
X011040Y009460D03*
X011043Y009458D03*
X011045Y009455D03*
X011045Y009608D03*
X011048Y009610D03*
X015528Y011255D03*
X015590Y011193D03*
X015653Y011130D03*
X015725Y011190D03*
X016028Y011195D03*
X016118Y011100D03*
X016310Y011120D03*
X016400Y011100D03*
X016588Y010970D03*
X016673Y011115D03*
X016670Y011118D03*
X016670Y011120D03*
X016758Y011040D03*
X017035Y011015D03*
X017040Y011010D03*
X017043Y011008D03*
X017045Y011005D03*
X017045Y011158D03*
X017048Y011160D03*
X015940Y010978D03*
X015798Y010575D03*
X015725Y011465D03*
D25*
X015725Y011463D03*
X015663Y011400D03*
X015680Y011355D03*
X015680Y011353D03*
X015680Y011350D03*
X015680Y011348D03*
X015680Y011345D03*
X015683Y011340D03*
X015683Y011338D03*
X015683Y011335D03*
X015683Y011333D03*
X015683Y011330D03*
X015683Y011328D03*
X015683Y011325D03*
X015683Y011323D03*
X015683Y011320D03*
X015683Y011318D03*
X015683Y011315D03*
X015680Y011310D03*
X015680Y011308D03*
X015680Y011305D03*
X015680Y011303D03*
X015680Y011300D03*
X015663Y011255D03*
X015725Y011193D03*
X015763Y011275D03*
X015765Y011280D03*
X015765Y011283D03*
X015765Y011285D03*
X015765Y011288D03*
X015768Y011293D03*
X015768Y011295D03*
X015768Y011298D03*
X015768Y011300D03*
X015768Y011303D03*
X015770Y011308D03*
X015770Y011310D03*
X015770Y011313D03*
X015770Y011315D03*
X015770Y011318D03*
X015770Y011320D03*
X015770Y011323D03*
X015770Y011325D03*
X015770Y011328D03*
X015770Y011330D03*
X015770Y011333D03*
X015770Y011335D03*
X015770Y011338D03*
X015770Y011340D03*
X015770Y011343D03*
X015770Y011345D03*
X015770Y011348D03*
X015768Y011353D03*
X015768Y011355D03*
X015768Y011358D03*
X015768Y011360D03*
X015768Y011363D03*
X015765Y011370D03*
X015765Y011373D03*
X015765Y011375D03*
X015763Y011380D03*
X015853Y011375D03*
X015853Y011373D03*
X015853Y011370D03*
X015853Y011368D03*
X015853Y011365D03*
X015853Y011363D03*
X015853Y011360D03*
X015855Y011353D03*
X015855Y011350D03*
X015855Y011348D03*
X015855Y011345D03*
X015855Y011343D03*
X015855Y011340D03*
X015855Y011338D03*
X015855Y011335D03*
X015855Y011333D03*
X015855Y011330D03*
X015855Y011328D03*
X015855Y011325D03*
X015855Y011323D03*
X015855Y011320D03*
X015855Y011318D03*
X015855Y011315D03*
X015855Y011313D03*
X015855Y011310D03*
X015855Y011308D03*
X015855Y011305D03*
X015855Y011303D03*
X015855Y011300D03*
X015853Y011285D03*
X015853Y011283D03*
X015853Y011280D03*
X015853Y011278D03*
X015653Y011128D03*
X015635Y011083D03*
X015635Y011080D03*
X015635Y011078D03*
X015635Y011075D03*
X015633Y011070D03*
X015633Y011068D03*
X015633Y011065D03*
X015633Y011063D03*
X015630Y011060D03*
X015630Y011058D03*
X015630Y011050D03*
X015633Y011045D03*
X015633Y011043D03*
X015633Y011040D03*
X015633Y011038D03*
X015635Y011033D03*
X015635Y011030D03*
X015635Y011028D03*
X015653Y010983D03*
X015748Y011023D03*
X015928Y010998D03*
X015863Y010828D03*
X015863Y010825D03*
X015775Y010818D03*
X015775Y010815D03*
X015775Y010813D03*
X015778Y010803D03*
X015778Y010800D03*
X015778Y010798D03*
X015773Y010828D03*
X015778Y010758D03*
X015778Y010755D03*
X015775Y010748D03*
X015775Y010745D03*
X015775Y010743D03*
X015775Y010740D03*
X015775Y010738D03*
X015773Y010730D03*
X015773Y010728D03*
X015688Y010748D03*
X015688Y010750D03*
X015690Y010758D03*
X015690Y010760D03*
X015690Y010763D03*
X015693Y010768D03*
X015693Y010770D03*
X015693Y010773D03*
X015693Y010775D03*
X015693Y010778D03*
X015693Y010780D03*
X015693Y010783D03*
X015693Y010785D03*
X015693Y010788D03*
X015690Y010795D03*
X015690Y010798D03*
X015688Y010805D03*
X015688Y010808D03*
X015578Y010808D03*
X015578Y010748D03*
X015798Y010578D03*
X015863Y010728D03*
X015465Y010988D03*
X015463Y011000D03*
X015463Y011003D03*
X015460Y011008D03*
X015460Y011010D03*
X015460Y011013D03*
X015458Y011028D03*
X015458Y011030D03*
X015458Y011033D03*
X015458Y011035D03*
X015458Y011038D03*
X015458Y011040D03*
X015458Y011043D03*
X015458Y011045D03*
X015458Y011048D03*
X015458Y011050D03*
X015458Y011053D03*
X015458Y011055D03*
X015458Y011058D03*
X015458Y011060D03*
X015458Y011063D03*
X015458Y011065D03*
X015458Y011068D03*
X015458Y011070D03*
X015458Y011073D03*
X015458Y011075D03*
X015458Y011078D03*
X015458Y011080D03*
X015460Y011088D03*
X015460Y011090D03*
X015460Y011093D03*
X015460Y011095D03*
X015460Y011098D03*
X015460Y011100D03*
X015463Y011105D03*
X015463Y011108D03*
X015465Y011120D03*
X015550Y011103D03*
X015550Y011100D03*
X015548Y011090D03*
X015548Y011088D03*
X015545Y011075D03*
X015545Y011073D03*
X015545Y011070D03*
X015545Y011068D03*
X015545Y011065D03*
X015545Y011063D03*
X015545Y011060D03*
X015545Y011058D03*
X015545Y011055D03*
X015545Y011053D03*
X015545Y011050D03*
X015545Y011048D03*
X015545Y011045D03*
X015545Y011043D03*
X015545Y011040D03*
X015545Y011038D03*
X015545Y011035D03*
X015545Y011033D03*
X015548Y011020D03*
X015548Y011018D03*
X015550Y011008D03*
X015550Y011005D03*
X015590Y011190D03*
X015528Y011253D03*
X015568Y011298D03*
X015568Y011358D03*
X016115Y011103D03*
X016308Y011118D03*
X016323Y011103D03*
X016398Y011103D03*
X016535Y011128D03*
X016533Y011033D03*
X016585Y010973D03*
X016738Y010995D03*
X016755Y011045D03*
X016753Y011048D03*
X016675Y011113D03*
X016890Y011128D03*
X017055Y011165D03*
X017053Y011000D03*
X016888Y010978D03*
X011055Y009615D03*
X011053Y009450D03*
X010888Y009428D03*
X010755Y009495D03*
X010753Y009498D03*
X010738Y009445D03*
X010675Y009563D03*
X010535Y009578D03*
X010533Y009483D03*
X010585Y009423D03*
X010398Y009553D03*
X010323Y009553D03*
X010308Y009568D03*
X010115Y009553D03*
X009928Y009448D03*
X009748Y009473D03*
X009653Y009433D03*
X009635Y009478D03*
X009635Y009480D03*
X009635Y009483D03*
X009633Y009488D03*
X009633Y009490D03*
X009633Y009493D03*
X009633Y009495D03*
X009630Y009500D03*
X009630Y009508D03*
X009630Y009510D03*
X009633Y009513D03*
X009633Y009515D03*
X009633Y009518D03*
X009633Y009520D03*
X009635Y009525D03*
X009635Y009528D03*
X009635Y009530D03*
X009635Y009533D03*
X009653Y009578D03*
X009590Y009640D03*
X009528Y009703D03*
X009568Y009748D03*
X009568Y009808D03*
X009663Y009850D03*
X009680Y009805D03*
X009680Y009803D03*
X009680Y009800D03*
X009680Y009798D03*
X009680Y009795D03*
X009683Y009790D03*
X009683Y009788D03*
X009683Y009785D03*
X009683Y009783D03*
X009683Y009780D03*
X009683Y009778D03*
X009683Y009775D03*
X009683Y009773D03*
X009683Y009770D03*
X009683Y009768D03*
X009683Y009765D03*
X009680Y009760D03*
X009680Y009758D03*
X009680Y009755D03*
X009680Y009753D03*
X009680Y009750D03*
X009663Y009705D03*
X009725Y009643D03*
X009763Y009725D03*
X009765Y009730D03*
X009765Y009733D03*
X009765Y009735D03*
X009765Y009738D03*
X009768Y009743D03*
X009768Y009745D03*
X009768Y009748D03*
X009768Y009750D03*
X009768Y009753D03*
X009770Y009758D03*
X009770Y009760D03*
X009770Y009763D03*
X009770Y009765D03*
X009770Y009768D03*
X009770Y009770D03*
X009770Y009773D03*
X009770Y009775D03*
X009770Y009778D03*
X009770Y009780D03*
X009770Y009783D03*
X009770Y009785D03*
X009770Y009788D03*
X009770Y009790D03*
X009770Y009793D03*
X009770Y009795D03*
X009770Y009798D03*
X009768Y009803D03*
X009768Y009805D03*
X009768Y009808D03*
X009768Y009810D03*
X009768Y009813D03*
X009765Y009820D03*
X009765Y009823D03*
X009765Y009825D03*
X009763Y009830D03*
X009853Y009825D03*
X009853Y009823D03*
X009853Y009820D03*
X009853Y009818D03*
X009853Y009815D03*
X009853Y009813D03*
X009853Y009810D03*
X009855Y009803D03*
X009855Y009800D03*
X009855Y009798D03*
X009855Y009795D03*
X009855Y009793D03*
X009855Y009790D03*
X009855Y009788D03*
X009855Y009785D03*
X009855Y009783D03*
X009855Y009780D03*
X009855Y009778D03*
X009855Y009775D03*
X009855Y009773D03*
X009855Y009770D03*
X009855Y009768D03*
X009855Y009765D03*
X009855Y009763D03*
X009855Y009760D03*
X009855Y009758D03*
X009855Y009755D03*
X009855Y009753D03*
X009855Y009750D03*
X009853Y009735D03*
X009853Y009733D03*
X009853Y009730D03*
X009853Y009728D03*
X009550Y009553D03*
X009550Y009550D03*
X009548Y009540D03*
X009548Y009538D03*
X009545Y009525D03*
X009545Y009523D03*
X009545Y009520D03*
X009545Y009518D03*
X009545Y009515D03*
X009545Y009513D03*
X009545Y009510D03*
X009545Y009508D03*
X009545Y009505D03*
X009545Y009503D03*
X009545Y009500D03*
X009545Y009498D03*
X009545Y009495D03*
X009545Y009493D03*
X009545Y009490D03*
X009545Y009488D03*
X009545Y009485D03*
X009545Y009483D03*
X009548Y009470D03*
X009548Y009468D03*
X009550Y009458D03*
X009550Y009455D03*
X009465Y009438D03*
X009463Y009450D03*
X009463Y009453D03*
X009460Y009458D03*
X009460Y009460D03*
X009460Y009463D03*
X009458Y009478D03*
X009458Y009480D03*
X009458Y009483D03*
X009458Y009485D03*
X009458Y009488D03*
X009458Y009490D03*
X009458Y009493D03*
X009458Y009495D03*
X009458Y009498D03*
X009458Y009500D03*
X009458Y009503D03*
X009458Y009505D03*
X009458Y009508D03*
X009458Y009510D03*
X009458Y009513D03*
X009458Y009515D03*
X009458Y009518D03*
X009458Y009520D03*
X009458Y009523D03*
X009458Y009525D03*
X009458Y009528D03*
X009458Y009530D03*
X009460Y009538D03*
X009460Y009540D03*
X009460Y009543D03*
X009460Y009545D03*
X009460Y009548D03*
X009460Y009550D03*
X009463Y009555D03*
X009463Y009558D03*
X009465Y009570D03*
X009578Y009258D03*
X009578Y009198D03*
X009688Y009198D03*
X009688Y009200D03*
X009690Y009208D03*
X009690Y009210D03*
X009690Y009213D03*
X009693Y009218D03*
X009693Y009220D03*
X009693Y009223D03*
X009693Y009225D03*
X009693Y009228D03*
X009693Y009230D03*
X009693Y009233D03*
X009693Y009235D03*
X009693Y009238D03*
X009690Y009245D03*
X009690Y009248D03*
X009688Y009255D03*
X009688Y009258D03*
X009773Y009278D03*
X009775Y009268D03*
X009775Y009265D03*
X009775Y009263D03*
X009778Y009253D03*
X009778Y009250D03*
X009778Y009248D03*
X009778Y009208D03*
X009778Y009205D03*
X009775Y009198D03*
X009775Y009195D03*
X009775Y009193D03*
X009775Y009190D03*
X009775Y009188D03*
X009773Y009180D03*
X009773Y009178D03*
X009863Y009178D03*
X009863Y009275D03*
X009863Y009278D03*
X009798Y009028D03*
X010890Y009578D03*
X009725Y009913D03*
X015775Y001713D03*
X015713Y001650D03*
X015730Y001605D03*
X015730Y001603D03*
X015730Y001600D03*
X015730Y001598D03*
X015730Y001595D03*
X015733Y001590D03*
X015733Y001588D03*
X015733Y001585D03*
X015733Y001583D03*
X015733Y001580D03*
X015733Y001578D03*
X015733Y001575D03*
X015733Y001573D03*
X015733Y001570D03*
X015733Y001568D03*
X015733Y001565D03*
X015730Y001560D03*
X015730Y001558D03*
X015730Y001555D03*
X015730Y001553D03*
X015730Y001550D03*
X015713Y001505D03*
X015775Y001443D03*
X015813Y001525D03*
X015815Y001530D03*
X015815Y001533D03*
X015815Y001535D03*
X015815Y001538D03*
X015818Y001543D03*
X015818Y001545D03*
X015818Y001548D03*
X015818Y001550D03*
X015818Y001553D03*
X015820Y001558D03*
X015820Y001560D03*
X015820Y001563D03*
X015820Y001565D03*
X015820Y001568D03*
X015820Y001570D03*
X015820Y001573D03*
X015820Y001575D03*
X015820Y001578D03*
X015820Y001580D03*
X015820Y001583D03*
X015820Y001585D03*
X015820Y001588D03*
X015820Y001590D03*
X015820Y001593D03*
X015820Y001595D03*
X015820Y001598D03*
X015818Y001603D03*
X015818Y001605D03*
X015818Y001608D03*
X015818Y001610D03*
X015818Y001613D03*
X015815Y001620D03*
X015815Y001623D03*
X015815Y001625D03*
X015813Y001630D03*
X015903Y001625D03*
X015903Y001623D03*
X015903Y001620D03*
X015903Y001618D03*
X015903Y001615D03*
X015903Y001613D03*
X015903Y001610D03*
X015905Y001603D03*
X015905Y001600D03*
X015905Y001598D03*
X015905Y001595D03*
X015905Y001593D03*
X015905Y001590D03*
X015905Y001588D03*
X015905Y001585D03*
X015905Y001583D03*
X015905Y001580D03*
X015905Y001578D03*
X015905Y001575D03*
X015905Y001573D03*
X015905Y001570D03*
X015905Y001568D03*
X015905Y001565D03*
X015905Y001563D03*
X015905Y001560D03*
X015905Y001558D03*
X015905Y001555D03*
X015905Y001553D03*
X015905Y001550D03*
X015903Y001535D03*
X015903Y001533D03*
X015903Y001530D03*
X015903Y001528D03*
X015703Y001378D03*
X015685Y001333D03*
X015685Y001330D03*
X015685Y001328D03*
X015685Y001325D03*
X015683Y001320D03*
X015683Y001318D03*
X015683Y001315D03*
X015683Y001313D03*
X015680Y001310D03*
X015680Y001308D03*
X015680Y001300D03*
X015683Y001295D03*
X015683Y001293D03*
X015683Y001290D03*
X015683Y001288D03*
X015685Y001283D03*
X015685Y001280D03*
X015685Y001278D03*
X015703Y001233D03*
X015798Y001273D03*
X015978Y001248D03*
X015913Y001078D03*
X015913Y001075D03*
X015825Y001068D03*
X015825Y001065D03*
X015825Y001063D03*
X015828Y001053D03*
X015828Y001050D03*
X015828Y001048D03*
X015823Y001078D03*
X015828Y001008D03*
X015828Y001005D03*
X015825Y000998D03*
X015825Y000995D03*
X015825Y000993D03*
X015825Y000990D03*
X015825Y000988D03*
X015823Y000980D03*
X015823Y000978D03*
X015738Y000998D03*
X015738Y001000D03*
X015740Y001008D03*
X015740Y001010D03*
X015740Y001013D03*
X015743Y001018D03*
X015743Y001020D03*
X015743Y001023D03*
X015743Y001025D03*
X015743Y001028D03*
X015743Y001030D03*
X015743Y001033D03*
X015743Y001035D03*
X015743Y001038D03*
X015740Y001045D03*
X015740Y001048D03*
X015738Y001055D03*
X015738Y001058D03*
X015628Y001058D03*
X015628Y000998D03*
X015848Y000828D03*
X015913Y000978D03*
X015515Y001238D03*
X015513Y001250D03*
X015513Y001253D03*
X015510Y001258D03*
X015510Y001260D03*
X015510Y001263D03*
X015508Y001278D03*
X015508Y001280D03*
X015508Y001283D03*
X015508Y001285D03*
X015508Y001288D03*
X015508Y001290D03*
X015508Y001293D03*
X015508Y001295D03*
X015508Y001298D03*
X015508Y001300D03*
X015508Y001303D03*
X015508Y001305D03*
X015508Y001308D03*
X015508Y001310D03*
X015508Y001313D03*
X015508Y001315D03*
X015508Y001318D03*
X015508Y001320D03*
X015508Y001323D03*
X015508Y001325D03*
X015508Y001328D03*
X015508Y001330D03*
X015510Y001338D03*
X015510Y001340D03*
X015510Y001343D03*
X015510Y001345D03*
X015510Y001348D03*
X015510Y001350D03*
X015513Y001355D03*
X015513Y001358D03*
X015515Y001370D03*
X015600Y001353D03*
X015600Y001350D03*
X015598Y001340D03*
X015598Y001338D03*
X015595Y001325D03*
X015595Y001323D03*
X015595Y001320D03*
X015595Y001318D03*
X015595Y001315D03*
X015595Y001313D03*
X015595Y001310D03*
X015595Y001308D03*
X015595Y001305D03*
X015595Y001303D03*
X015595Y001300D03*
X015595Y001298D03*
X015595Y001295D03*
X015595Y001293D03*
X015595Y001290D03*
X015595Y001288D03*
X015595Y001285D03*
X015595Y001283D03*
X015598Y001270D03*
X015598Y001268D03*
X015600Y001258D03*
X015600Y001255D03*
X015640Y001440D03*
X015578Y001503D03*
X015618Y001548D03*
X015618Y001608D03*
X016165Y001353D03*
X016358Y001368D03*
X016373Y001353D03*
X016448Y001353D03*
X016585Y001378D03*
X016583Y001283D03*
X016635Y001223D03*
X016788Y001245D03*
X016805Y001295D03*
X016803Y001298D03*
X016725Y001363D03*
X016940Y001378D03*
X017105Y001415D03*
X017103Y001250D03*
X016938Y001228D03*
D26*
X016800Y001303D03*
X016630Y001225D03*
X016433Y001373D03*
X016355Y001365D03*
X016260Y001365D03*
X016260Y001363D03*
X016260Y001360D03*
X016260Y001358D03*
X016260Y001355D03*
X016150Y001373D03*
X015890Y001480D03*
X015890Y001483D03*
X015890Y001485D03*
X015893Y001488D03*
X015893Y001490D03*
X015893Y001493D03*
X015895Y001500D03*
X015900Y001518D03*
X015900Y001520D03*
X015888Y001478D03*
X015888Y001475D03*
X015885Y001473D03*
X015885Y001470D03*
X015885Y001468D03*
X015883Y001465D03*
X015883Y001463D03*
X015880Y001458D03*
X015803Y001495D03*
X015803Y001498D03*
X015805Y001503D03*
X015808Y001508D03*
X015800Y001493D03*
X015800Y001490D03*
X015798Y001488D03*
X015795Y001483D03*
X015775Y001445D03*
X015720Y001528D03*
X015723Y001533D03*
X015725Y001538D03*
X015725Y001618D03*
X015723Y001623D03*
X015720Y001628D03*
X015718Y001633D03*
X015795Y001673D03*
X015798Y001668D03*
X015800Y001665D03*
X015800Y001663D03*
X015803Y001660D03*
X015803Y001658D03*
X015805Y001653D03*
X015805Y001650D03*
X015775Y001710D03*
X015883Y001690D03*
X015885Y001685D03*
X015888Y001678D03*
X015888Y001675D03*
X015890Y001670D03*
X015890Y001668D03*
X015893Y001665D03*
X015893Y001663D03*
X015893Y001660D03*
X015895Y001658D03*
X015895Y001655D03*
X015895Y001653D03*
X015898Y001645D03*
X015900Y001638D03*
X015900Y001635D03*
X015900Y001633D03*
X015618Y001605D03*
X015618Y001550D03*
X015578Y001500D03*
X015543Y001440D03*
X015535Y001425D03*
X015533Y001423D03*
X015533Y001420D03*
X015530Y001418D03*
X015530Y001415D03*
X015528Y001410D03*
X015528Y001408D03*
X015525Y001405D03*
X015525Y001403D03*
X015523Y001395D03*
X015518Y001380D03*
X015603Y001360D03*
X015605Y001368D03*
X015608Y001373D03*
X015608Y001375D03*
X015610Y001378D03*
X015610Y001380D03*
X015610Y001383D03*
X015613Y001385D03*
X015615Y001390D03*
X015620Y001400D03*
X015640Y001438D03*
X015703Y001373D03*
X015695Y001355D03*
X015693Y001353D03*
X015693Y001350D03*
X015690Y001345D03*
X015690Y001263D03*
X015693Y001258D03*
X015703Y001235D03*
X015640Y001173D03*
X015618Y001210D03*
X015615Y001218D03*
X015613Y001223D03*
X015610Y001228D03*
X015610Y001230D03*
X015608Y001233D03*
X015608Y001235D03*
X015605Y001240D03*
X015523Y001213D03*
X015523Y001210D03*
X015525Y001205D03*
X015525Y001203D03*
X015528Y001200D03*
X015528Y001198D03*
X015530Y001193D03*
X015530Y001190D03*
X015533Y001188D03*
X015533Y001185D03*
X015535Y001183D03*
X015543Y001168D03*
X015578Y001110D03*
X015628Y001055D03*
X015628Y001000D03*
X015720Y000958D03*
X015725Y000970D03*
X015730Y000980D03*
X015733Y000985D03*
X015733Y001070D03*
X015730Y001075D03*
X015728Y001080D03*
X015725Y001085D03*
X015720Y001098D03*
X015803Y001125D03*
X015805Y001123D03*
X015805Y001120D03*
X015808Y001118D03*
X015808Y001115D03*
X015810Y001113D03*
X015810Y001110D03*
X015813Y001108D03*
X015813Y001105D03*
X015815Y001100D03*
X015818Y001093D03*
X015783Y001160D03*
X015890Y001148D03*
X015893Y001143D03*
X015895Y001140D03*
X015895Y001138D03*
X015895Y001135D03*
X015898Y001130D03*
X015900Y001125D03*
X015903Y001118D03*
X015903Y001115D03*
X015905Y001108D03*
X015908Y001103D03*
X015908Y001100D03*
X015915Y000995D03*
X015915Y000993D03*
X015915Y000990D03*
X015915Y000988D03*
X015910Y000965D03*
X015910Y000963D03*
X015908Y000955D03*
X015908Y000953D03*
X015905Y000950D03*
X015905Y000948D03*
X015905Y000945D03*
X015903Y000940D03*
X015903Y000938D03*
X015903Y000935D03*
X015900Y000930D03*
X015895Y000918D03*
X015813Y000948D03*
X015813Y000950D03*
X015815Y000955D03*
X015815Y000958D03*
X015810Y000945D03*
X015810Y000943D03*
X015808Y000940D03*
X015805Y000935D03*
X015803Y000930D03*
X015783Y000895D03*
X015848Y000830D03*
X015798Y001275D03*
X009798Y009030D03*
X009733Y009095D03*
X009753Y009130D03*
X009755Y009135D03*
X009758Y009140D03*
X009760Y009143D03*
X009760Y009145D03*
X009763Y009148D03*
X009763Y009150D03*
X009765Y009155D03*
X009765Y009158D03*
X009683Y009185D03*
X009680Y009180D03*
X009675Y009170D03*
X009670Y009158D03*
X009578Y009200D03*
X009578Y009255D03*
X009528Y009310D03*
X009493Y009368D03*
X009485Y009383D03*
X009483Y009385D03*
X009483Y009388D03*
X009480Y009390D03*
X009480Y009393D03*
X009478Y009398D03*
X009478Y009400D03*
X009475Y009403D03*
X009475Y009405D03*
X009473Y009410D03*
X009473Y009413D03*
X009555Y009440D03*
X009558Y009435D03*
X009558Y009433D03*
X009560Y009430D03*
X009560Y009428D03*
X009563Y009423D03*
X009565Y009418D03*
X009568Y009410D03*
X009590Y009373D03*
X009653Y009435D03*
X009643Y009458D03*
X009640Y009463D03*
X009640Y009545D03*
X009643Y009550D03*
X009643Y009553D03*
X009645Y009555D03*
X009653Y009573D03*
X009570Y009600D03*
X009565Y009590D03*
X009563Y009585D03*
X009560Y009583D03*
X009560Y009580D03*
X009560Y009578D03*
X009558Y009575D03*
X009558Y009573D03*
X009555Y009568D03*
X009553Y009560D03*
X009590Y009638D03*
X009528Y009700D03*
X009568Y009750D03*
X009568Y009805D03*
X009668Y009833D03*
X009670Y009828D03*
X009673Y009823D03*
X009675Y009818D03*
X009675Y009738D03*
X009673Y009733D03*
X009670Y009728D03*
X009748Y009688D03*
X009750Y009690D03*
X009750Y009693D03*
X009753Y009695D03*
X009753Y009698D03*
X009755Y009703D03*
X009758Y009708D03*
X009745Y009683D03*
X009725Y009645D03*
X009830Y009658D03*
X009833Y009663D03*
X009833Y009665D03*
X009835Y009668D03*
X009835Y009670D03*
X009835Y009673D03*
X009838Y009675D03*
X009838Y009678D03*
X009840Y009680D03*
X009840Y009683D03*
X009840Y009685D03*
X009843Y009688D03*
X009843Y009690D03*
X009843Y009693D03*
X009845Y009700D03*
X009850Y009718D03*
X009850Y009720D03*
X009850Y009833D03*
X009850Y009835D03*
X009850Y009838D03*
X009848Y009845D03*
X009845Y009853D03*
X009845Y009855D03*
X009845Y009858D03*
X009843Y009860D03*
X009843Y009863D03*
X009843Y009865D03*
X009840Y009868D03*
X009840Y009870D03*
X009838Y009875D03*
X009838Y009878D03*
X009835Y009885D03*
X009833Y009890D03*
X009753Y009860D03*
X009753Y009858D03*
X009750Y009863D03*
X009750Y009865D03*
X009748Y009868D03*
X009745Y009873D03*
X009755Y009853D03*
X009755Y009850D03*
X009725Y009910D03*
X009493Y009640D03*
X009485Y009625D03*
X009483Y009623D03*
X009483Y009620D03*
X009480Y009618D03*
X009480Y009615D03*
X009478Y009610D03*
X009478Y009608D03*
X009475Y009605D03*
X009475Y009603D03*
X009473Y009595D03*
X009468Y009580D03*
X009748Y009475D03*
X009733Y009360D03*
X009753Y009325D03*
X009755Y009323D03*
X009755Y009320D03*
X009758Y009318D03*
X009758Y009315D03*
X009760Y009313D03*
X009760Y009310D03*
X009763Y009308D03*
X009763Y009305D03*
X009765Y009300D03*
X009768Y009293D03*
X009853Y009315D03*
X009853Y009318D03*
X009850Y009325D03*
X009848Y009330D03*
X009845Y009335D03*
X009845Y009338D03*
X009845Y009340D03*
X009843Y009343D03*
X009840Y009348D03*
X009855Y009308D03*
X009858Y009303D03*
X009858Y009300D03*
X009865Y009195D03*
X009865Y009193D03*
X009865Y009190D03*
X009865Y009188D03*
X009860Y009165D03*
X009860Y009163D03*
X009858Y009155D03*
X009858Y009153D03*
X009855Y009150D03*
X009855Y009148D03*
X009855Y009145D03*
X009853Y009140D03*
X009853Y009138D03*
X009853Y009135D03*
X009850Y009130D03*
X009845Y009118D03*
X009683Y009270D03*
X009680Y009275D03*
X009678Y009280D03*
X009675Y009285D03*
X009670Y009298D03*
X010100Y009573D03*
X010210Y009565D03*
X010210Y009563D03*
X010210Y009560D03*
X010210Y009558D03*
X010210Y009555D03*
X010305Y009565D03*
X010383Y009573D03*
X010580Y009425D03*
X010750Y009503D03*
X015473Y010960D03*
X015473Y010963D03*
X015475Y010955D03*
X015475Y010953D03*
X015478Y010950D03*
X015478Y010948D03*
X015480Y010943D03*
X015480Y010940D03*
X015483Y010938D03*
X015483Y010935D03*
X015485Y010933D03*
X015493Y010918D03*
X015528Y010860D03*
X015578Y010805D03*
X015578Y010750D03*
X015670Y010708D03*
X015675Y010720D03*
X015680Y010730D03*
X015683Y010735D03*
X015683Y010820D03*
X015680Y010825D03*
X015678Y010830D03*
X015675Y010835D03*
X015670Y010848D03*
X015753Y010875D03*
X015755Y010873D03*
X015755Y010870D03*
X015758Y010868D03*
X015758Y010865D03*
X015760Y010863D03*
X015760Y010860D03*
X015763Y010858D03*
X015763Y010855D03*
X015765Y010850D03*
X015768Y010843D03*
X015733Y010910D03*
X015840Y010898D03*
X015843Y010893D03*
X015845Y010890D03*
X015845Y010888D03*
X015845Y010885D03*
X015848Y010880D03*
X015850Y010875D03*
X015853Y010868D03*
X015853Y010865D03*
X015855Y010858D03*
X015858Y010853D03*
X015858Y010850D03*
X015865Y010745D03*
X015865Y010743D03*
X015865Y010740D03*
X015865Y010738D03*
X015860Y010715D03*
X015860Y010713D03*
X015858Y010705D03*
X015858Y010703D03*
X015855Y010700D03*
X015855Y010698D03*
X015855Y010695D03*
X015853Y010690D03*
X015853Y010688D03*
X015853Y010685D03*
X015850Y010680D03*
X015845Y010668D03*
X015763Y010698D03*
X015763Y010700D03*
X015765Y010705D03*
X015765Y010708D03*
X015760Y010695D03*
X015760Y010693D03*
X015758Y010690D03*
X015755Y010685D03*
X015753Y010680D03*
X015733Y010645D03*
X015798Y010580D03*
X015590Y010923D03*
X015568Y010960D03*
X015565Y010968D03*
X015563Y010973D03*
X015560Y010978D03*
X015560Y010980D03*
X015558Y010983D03*
X015558Y010985D03*
X015555Y010990D03*
X015640Y011013D03*
X015643Y011008D03*
X015653Y010985D03*
X015748Y011025D03*
X015640Y011095D03*
X015643Y011100D03*
X015643Y011103D03*
X015645Y011105D03*
X015653Y011123D03*
X015570Y011150D03*
X015565Y011140D03*
X015563Y011135D03*
X015560Y011133D03*
X015560Y011130D03*
X015560Y011128D03*
X015558Y011125D03*
X015558Y011123D03*
X015555Y011118D03*
X015553Y011110D03*
X015590Y011188D03*
X015528Y011250D03*
X015568Y011300D03*
X015568Y011355D03*
X015668Y011383D03*
X015670Y011378D03*
X015673Y011373D03*
X015675Y011368D03*
X015675Y011288D03*
X015673Y011283D03*
X015670Y011278D03*
X015748Y011238D03*
X015750Y011240D03*
X015750Y011243D03*
X015753Y011245D03*
X015753Y011248D03*
X015755Y011253D03*
X015758Y011258D03*
X015745Y011233D03*
X015725Y011195D03*
X015830Y011208D03*
X015833Y011213D03*
X015833Y011215D03*
X015835Y011218D03*
X015835Y011220D03*
X015835Y011223D03*
X015838Y011225D03*
X015838Y011228D03*
X015840Y011230D03*
X015840Y011233D03*
X015840Y011235D03*
X015843Y011238D03*
X015843Y011240D03*
X015843Y011243D03*
X015845Y011250D03*
X015850Y011268D03*
X015850Y011270D03*
X015850Y011383D03*
X015850Y011385D03*
X015850Y011388D03*
X015848Y011395D03*
X015845Y011403D03*
X015845Y011405D03*
X015845Y011408D03*
X015843Y011410D03*
X015843Y011413D03*
X015843Y011415D03*
X015840Y011418D03*
X015840Y011420D03*
X015838Y011425D03*
X015838Y011428D03*
X015835Y011435D03*
X015833Y011440D03*
X015753Y011410D03*
X015753Y011408D03*
X015750Y011413D03*
X015750Y011415D03*
X015748Y011418D03*
X015745Y011423D03*
X015755Y011403D03*
X015755Y011400D03*
X015725Y011460D03*
X015493Y011190D03*
X015485Y011175D03*
X015483Y011173D03*
X015483Y011170D03*
X015480Y011168D03*
X015480Y011165D03*
X015478Y011160D03*
X015478Y011158D03*
X015475Y011155D03*
X015475Y011153D03*
X015473Y011145D03*
X015468Y011130D03*
X016100Y011123D03*
X016210Y011115D03*
X016210Y011113D03*
X016210Y011110D03*
X016210Y011108D03*
X016210Y011105D03*
X016305Y011115D03*
X016383Y011123D03*
X016580Y010975D03*
X016750Y011053D03*
D27*
X016749Y011055D03*
X016681Y011105D03*
X016721Y011185D03*
X016529Y010913D03*
X016021Y011180D03*
X016021Y011183D03*
X016021Y011185D03*
X016021Y011188D03*
X016021Y011190D03*
X015831Y011210D03*
X015829Y011205D03*
X015826Y011203D03*
X015826Y011200D03*
X015824Y011198D03*
X015824Y011195D03*
X015821Y011193D03*
X015821Y011190D03*
X015819Y011188D03*
X015786Y011133D03*
X015746Y011080D03*
X015649Y011113D03*
X015646Y011108D03*
X015569Y011148D03*
X015566Y011145D03*
X015566Y011143D03*
X015564Y011138D03*
X015571Y011153D03*
X015574Y011158D03*
X015496Y011198D03*
X015494Y011193D03*
X015491Y011188D03*
X015489Y011185D03*
X015489Y011183D03*
X015486Y011180D03*
X015486Y011178D03*
X015529Y011248D03*
X015661Y011260D03*
X015661Y011263D03*
X015666Y011270D03*
X015669Y011273D03*
X015669Y011275D03*
X015741Y011228D03*
X015741Y011225D03*
X015739Y011223D03*
X015739Y011220D03*
X015736Y011218D03*
X015744Y011230D03*
X015746Y011235D03*
X015724Y011198D03*
X015644Y011005D03*
X015646Y011003D03*
X015646Y011000D03*
X015649Y010995D03*
X015654Y010988D03*
X015574Y010950D03*
X015571Y010955D03*
X015569Y010958D03*
X015566Y010963D03*
X015566Y010965D03*
X015564Y010970D03*
X015561Y010975D03*
X015486Y010930D03*
X015486Y010928D03*
X015489Y010925D03*
X015489Y010923D03*
X015491Y010920D03*
X015494Y010915D03*
X015496Y010913D03*
X015674Y010838D03*
X015676Y010833D03*
X015679Y010828D03*
X015751Y010878D03*
X015749Y010883D03*
X015831Y010913D03*
X015831Y010915D03*
X015834Y010910D03*
X015836Y010908D03*
X015836Y010905D03*
X015839Y010903D03*
X015839Y010900D03*
X015841Y010895D03*
X015846Y010883D03*
X015849Y010878D03*
X015796Y010973D03*
X015944Y010980D03*
X015851Y010683D03*
X015849Y010678D03*
X015849Y010675D03*
X015846Y010673D03*
X015846Y010670D03*
X015844Y010665D03*
X015844Y010663D03*
X015841Y010660D03*
X015841Y010658D03*
X015839Y010655D03*
X015839Y010653D03*
X015831Y010640D03*
X015796Y010583D03*
X015746Y010670D03*
X015749Y010673D03*
X015749Y010675D03*
X015751Y010678D03*
X015754Y010683D03*
X015756Y010688D03*
X015679Y010728D03*
X015676Y010725D03*
X015676Y010723D03*
X015674Y010718D03*
X015671Y010715D03*
X015671Y010713D03*
X015671Y010710D03*
X015669Y011380D03*
X015666Y011385D03*
X015661Y011393D03*
X015661Y011395D03*
X015739Y011433D03*
X015739Y011435D03*
X015741Y011430D03*
X015741Y011428D03*
X015744Y011425D03*
X015746Y011420D03*
X015724Y011458D03*
X015786Y011523D03*
X015821Y011463D03*
X015824Y011458D03*
X015826Y011453D03*
X015829Y011448D03*
X015831Y011445D03*
X015831Y011443D03*
X015834Y011438D03*
X015836Y011433D03*
X015836Y011430D03*
X017061Y011168D03*
X011061Y009618D03*
X010749Y009505D03*
X010681Y009555D03*
X010721Y009635D03*
X010529Y009363D03*
X010021Y009630D03*
X010021Y009633D03*
X010021Y009635D03*
X010021Y009638D03*
X010021Y009640D03*
X009831Y009660D03*
X009829Y009655D03*
X009826Y009653D03*
X009826Y009650D03*
X009824Y009648D03*
X009824Y009645D03*
X009821Y009643D03*
X009821Y009640D03*
X009819Y009638D03*
X009786Y009583D03*
X009746Y009530D03*
X009649Y009563D03*
X009646Y009558D03*
X009569Y009598D03*
X009566Y009595D03*
X009566Y009593D03*
X009564Y009588D03*
X009571Y009603D03*
X009574Y009608D03*
X009496Y009648D03*
X009494Y009643D03*
X009491Y009638D03*
X009489Y009635D03*
X009489Y009633D03*
X009486Y009630D03*
X009486Y009628D03*
X009529Y009698D03*
X009661Y009710D03*
X009661Y009713D03*
X009666Y009720D03*
X009669Y009723D03*
X009669Y009725D03*
X009741Y009678D03*
X009741Y009675D03*
X009739Y009673D03*
X009739Y009670D03*
X009736Y009668D03*
X009744Y009680D03*
X009746Y009685D03*
X009724Y009648D03*
X009669Y009830D03*
X009666Y009835D03*
X009661Y009843D03*
X009661Y009845D03*
X009739Y009883D03*
X009739Y009885D03*
X009741Y009880D03*
X009741Y009878D03*
X009744Y009875D03*
X009746Y009870D03*
X009724Y009908D03*
X009786Y009973D03*
X009821Y009913D03*
X009824Y009908D03*
X009826Y009903D03*
X009829Y009898D03*
X009831Y009895D03*
X009831Y009893D03*
X009834Y009888D03*
X009836Y009883D03*
X009836Y009880D03*
X009796Y009423D03*
X009831Y009365D03*
X009831Y009363D03*
X009834Y009360D03*
X009836Y009358D03*
X009836Y009355D03*
X009839Y009353D03*
X009839Y009350D03*
X009841Y009345D03*
X009846Y009333D03*
X009849Y009328D03*
X009751Y009328D03*
X009749Y009333D03*
X009674Y009288D03*
X009676Y009283D03*
X009679Y009278D03*
X009679Y009178D03*
X009676Y009175D03*
X009676Y009173D03*
X009674Y009168D03*
X009671Y009165D03*
X009671Y009163D03*
X009671Y009160D03*
X009746Y009120D03*
X009749Y009123D03*
X009749Y009125D03*
X009751Y009128D03*
X009754Y009133D03*
X009756Y009138D03*
X009839Y009105D03*
X009839Y009103D03*
X009841Y009108D03*
X009841Y009110D03*
X009844Y009113D03*
X009844Y009115D03*
X009846Y009120D03*
X009846Y009123D03*
X009849Y009125D03*
X009849Y009128D03*
X009851Y009133D03*
X009831Y009090D03*
X009796Y009033D03*
X009496Y009363D03*
X009494Y009365D03*
X009491Y009370D03*
X009489Y009373D03*
X009489Y009375D03*
X009486Y009378D03*
X009486Y009380D03*
X009566Y009413D03*
X009566Y009415D03*
X009564Y009420D03*
X009561Y009425D03*
X009569Y009408D03*
X009571Y009405D03*
X009574Y009400D03*
X009649Y009445D03*
X009646Y009450D03*
X009646Y009453D03*
X009644Y009455D03*
X009654Y009438D03*
X009944Y009430D03*
X015836Y001773D03*
X015871Y001713D03*
X015874Y001708D03*
X015876Y001703D03*
X015879Y001698D03*
X015881Y001695D03*
X015881Y001693D03*
X015884Y001688D03*
X015886Y001683D03*
X015886Y001680D03*
X015796Y001670D03*
X015794Y001675D03*
X015791Y001678D03*
X015791Y001680D03*
X015789Y001683D03*
X015789Y001685D03*
X015774Y001708D03*
X015711Y001645D03*
X015711Y001643D03*
X015716Y001635D03*
X015719Y001630D03*
X015719Y001525D03*
X015719Y001523D03*
X015716Y001520D03*
X015711Y001513D03*
X015711Y001510D03*
X015789Y001473D03*
X015789Y001470D03*
X015786Y001468D03*
X015791Y001475D03*
X015791Y001478D03*
X015794Y001480D03*
X015796Y001485D03*
X015774Y001448D03*
X015836Y001383D03*
X015869Y001438D03*
X015871Y001440D03*
X015871Y001443D03*
X015874Y001445D03*
X015874Y001448D03*
X015876Y001450D03*
X015876Y001453D03*
X015879Y001455D03*
X015881Y001460D03*
X015796Y001330D03*
X015699Y001363D03*
X015696Y001358D03*
X015619Y001398D03*
X015616Y001395D03*
X015616Y001393D03*
X015614Y001388D03*
X015621Y001403D03*
X015624Y001408D03*
X015546Y001448D03*
X015544Y001443D03*
X015541Y001438D03*
X015539Y001435D03*
X015539Y001433D03*
X015536Y001430D03*
X015536Y001428D03*
X015579Y001498D03*
X015694Y001255D03*
X015696Y001253D03*
X015696Y001250D03*
X015699Y001245D03*
X015704Y001238D03*
X015624Y001200D03*
X015621Y001205D03*
X015619Y001208D03*
X015616Y001213D03*
X015616Y001215D03*
X015614Y001220D03*
X015611Y001225D03*
X015536Y001180D03*
X015536Y001178D03*
X015539Y001175D03*
X015539Y001173D03*
X015541Y001170D03*
X015544Y001165D03*
X015546Y001163D03*
X015724Y001088D03*
X015726Y001083D03*
X015729Y001078D03*
X015801Y001128D03*
X015799Y001133D03*
X015881Y001163D03*
X015881Y001165D03*
X015884Y001160D03*
X015886Y001158D03*
X015886Y001155D03*
X015889Y001153D03*
X015889Y001150D03*
X015891Y001145D03*
X015896Y001133D03*
X015899Y001128D03*
X015846Y001223D03*
X015994Y001230D03*
X016071Y001430D03*
X016071Y001433D03*
X016071Y001435D03*
X016071Y001438D03*
X016071Y001440D03*
X016579Y001163D03*
X016731Y001355D03*
X016799Y001305D03*
X016771Y001435D03*
X017111Y001418D03*
X015901Y000933D03*
X015899Y000928D03*
X015899Y000925D03*
X015896Y000923D03*
X015896Y000920D03*
X015894Y000915D03*
X015894Y000913D03*
X015891Y000910D03*
X015891Y000908D03*
X015889Y000905D03*
X015889Y000903D03*
X015881Y000890D03*
X015846Y000833D03*
X015796Y000920D03*
X015799Y000923D03*
X015799Y000925D03*
X015801Y000928D03*
X015804Y000933D03*
X015806Y000938D03*
X015729Y000978D03*
X015726Y000975D03*
X015726Y000973D03*
X015724Y000968D03*
X015721Y000965D03*
X015721Y000963D03*
X015721Y000960D03*
D28*
X015789Y000910D03*
X015791Y000913D03*
X015786Y000905D03*
X015784Y000903D03*
X015784Y000900D03*
X015866Y000865D03*
X015869Y000870D03*
X015871Y000873D03*
X015874Y000875D03*
X015874Y000878D03*
X015876Y000880D03*
X015846Y000835D03*
X015626Y001005D03*
X015629Y001050D03*
X015576Y001115D03*
X015569Y001128D03*
X015566Y001130D03*
X015564Y001135D03*
X015561Y001138D03*
X015559Y001140D03*
X015551Y001153D03*
X015629Y001193D03*
X015631Y001190D03*
X015634Y001188D03*
X015639Y001180D03*
X015639Y001178D03*
X015784Y001155D03*
X015784Y001153D03*
X015786Y001150D03*
X015789Y001145D03*
X015791Y001143D03*
X015794Y001140D03*
X015866Y001188D03*
X015866Y001190D03*
X015864Y001193D03*
X015861Y001195D03*
X015856Y001203D03*
X015846Y001218D03*
X015869Y001185D03*
X015871Y001183D03*
X015874Y001178D03*
X015796Y001280D03*
X015796Y001328D03*
X015836Y001388D03*
X015844Y001400D03*
X015846Y001403D03*
X015851Y001410D03*
X015854Y001413D03*
X015859Y001420D03*
X015861Y001425D03*
X015781Y001460D03*
X015779Y001458D03*
X015776Y001455D03*
X015776Y001453D03*
X015639Y001430D03*
X015634Y001420D03*
X015631Y001418D03*
X015629Y001415D03*
X015564Y001473D03*
X015561Y001470D03*
X015559Y001468D03*
X015554Y001460D03*
X015566Y001478D03*
X015569Y001480D03*
X015576Y001493D03*
X015619Y001600D03*
X015776Y001700D03*
X015776Y001703D03*
X015779Y001698D03*
X015781Y001695D03*
X015859Y001733D03*
X015859Y001735D03*
X015856Y001738D03*
X015861Y001730D03*
X015864Y001725D03*
X015836Y001768D03*
X016149Y001370D03*
X016431Y001370D03*
X016586Y001375D03*
X016734Y001353D03*
X016749Y001228D03*
X017151Y001435D03*
X009796Y009035D03*
X009816Y009065D03*
X009819Y009070D03*
X009821Y009073D03*
X009824Y009075D03*
X009824Y009078D03*
X009826Y009080D03*
X009741Y009113D03*
X009739Y009110D03*
X009736Y009105D03*
X009734Y009103D03*
X009734Y009100D03*
X009576Y009205D03*
X009579Y009250D03*
X009526Y009315D03*
X009519Y009328D03*
X009516Y009330D03*
X009514Y009335D03*
X009511Y009338D03*
X009509Y009340D03*
X009501Y009353D03*
X009579Y009393D03*
X009581Y009390D03*
X009584Y009388D03*
X009589Y009380D03*
X009589Y009378D03*
X009734Y009355D03*
X009734Y009353D03*
X009736Y009350D03*
X009739Y009345D03*
X009741Y009343D03*
X009744Y009340D03*
X009816Y009388D03*
X009816Y009390D03*
X009814Y009393D03*
X009811Y009395D03*
X009806Y009403D03*
X009796Y009418D03*
X009819Y009385D03*
X009821Y009383D03*
X009824Y009378D03*
X009746Y009480D03*
X009746Y009528D03*
X009786Y009588D03*
X009794Y009600D03*
X009796Y009603D03*
X009801Y009610D03*
X009804Y009613D03*
X009809Y009620D03*
X009811Y009625D03*
X009731Y009660D03*
X009729Y009658D03*
X009726Y009655D03*
X009726Y009653D03*
X009589Y009630D03*
X009584Y009620D03*
X009581Y009618D03*
X009579Y009615D03*
X009514Y009673D03*
X009511Y009670D03*
X009509Y009668D03*
X009504Y009660D03*
X009516Y009678D03*
X009519Y009680D03*
X009526Y009693D03*
X009569Y009800D03*
X009726Y009900D03*
X009726Y009903D03*
X009729Y009898D03*
X009731Y009895D03*
X009809Y009933D03*
X009809Y009935D03*
X009806Y009938D03*
X009811Y009930D03*
X009814Y009925D03*
X009786Y009968D03*
X010099Y009570D03*
X010381Y009570D03*
X010536Y009575D03*
X010684Y009553D03*
X010699Y009428D03*
X011101Y009635D03*
X015501Y010903D03*
X015509Y010890D03*
X015511Y010888D03*
X015514Y010885D03*
X015516Y010880D03*
X015519Y010878D03*
X015526Y010865D03*
X015579Y010800D03*
X015576Y010755D03*
X015589Y010928D03*
X015589Y010930D03*
X015584Y010938D03*
X015581Y010940D03*
X015579Y010943D03*
X015734Y010905D03*
X015734Y010903D03*
X015736Y010900D03*
X015739Y010895D03*
X015741Y010893D03*
X015744Y010890D03*
X015816Y010938D03*
X015816Y010940D03*
X015814Y010943D03*
X015811Y010945D03*
X015806Y010953D03*
X015796Y010968D03*
X015819Y010935D03*
X015821Y010933D03*
X015824Y010928D03*
X015746Y011030D03*
X015746Y011078D03*
X015786Y011138D03*
X015794Y011150D03*
X015796Y011153D03*
X015801Y011160D03*
X015804Y011163D03*
X015809Y011170D03*
X015811Y011175D03*
X015731Y011210D03*
X015729Y011208D03*
X015726Y011205D03*
X015726Y011203D03*
X015589Y011180D03*
X015584Y011170D03*
X015581Y011168D03*
X015579Y011165D03*
X015514Y011223D03*
X015511Y011220D03*
X015509Y011218D03*
X015504Y011210D03*
X015516Y011228D03*
X015519Y011230D03*
X015526Y011243D03*
X015569Y011350D03*
X015726Y011450D03*
X015726Y011453D03*
X015729Y011448D03*
X015731Y011445D03*
X015809Y011483D03*
X015809Y011485D03*
X015806Y011488D03*
X015811Y011480D03*
X015814Y011475D03*
X015786Y011518D03*
X016099Y011120D03*
X016381Y011120D03*
X016536Y011125D03*
X016684Y011103D03*
X016699Y010978D03*
X017101Y011185D03*
X015826Y010630D03*
X015824Y010628D03*
X015824Y010625D03*
X015821Y010623D03*
X015819Y010620D03*
X015816Y010615D03*
X015796Y010585D03*
X015734Y010650D03*
X015734Y010653D03*
X015736Y010655D03*
X015739Y010660D03*
X015741Y010663D03*
D29*
X015738Y010658D03*
X015810Y010608D03*
X015813Y010610D03*
X015815Y010613D03*
X015818Y010618D03*
X015808Y010603D03*
X015805Y010600D03*
X015798Y010588D03*
X015578Y010758D03*
X015578Y010798D03*
X015525Y010868D03*
X015525Y010870D03*
X015523Y010873D03*
X015520Y010875D03*
X015515Y010883D03*
X015585Y010935D03*
X015588Y010933D03*
X015738Y010898D03*
X015808Y010950D03*
X015810Y010948D03*
X015805Y010955D03*
X015803Y010958D03*
X015800Y010960D03*
X015798Y010965D03*
X015748Y011033D03*
X015788Y011140D03*
X015790Y011145D03*
X015793Y011148D03*
X015798Y011155D03*
X015800Y011158D03*
X015588Y011175D03*
X015588Y011178D03*
X015585Y011173D03*
X015515Y011225D03*
X015520Y011233D03*
X015523Y011235D03*
X015525Y011238D03*
X015525Y011240D03*
X015568Y011305D03*
X015568Y011308D03*
X015568Y011348D03*
X015800Y011495D03*
X015803Y011493D03*
X015805Y011490D03*
X015798Y011500D03*
X015795Y011503D03*
X015788Y011515D03*
X016533Y011035D03*
X016688Y011100D03*
X016743Y011060D03*
X016890Y011125D03*
X016888Y010980D03*
X017100Y010978D03*
X011100Y009428D03*
X010888Y009430D03*
X010890Y009575D03*
X010743Y009510D03*
X010688Y009550D03*
X010533Y009485D03*
X009810Y009398D03*
X009808Y009400D03*
X009805Y009405D03*
X009803Y009408D03*
X009800Y009410D03*
X009798Y009415D03*
X009748Y009483D03*
X009788Y009590D03*
X009790Y009595D03*
X009793Y009598D03*
X009798Y009605D03*
X009800Y009608D03*
X009588Y009625D03*
X009588Y009628D03*
X009585Y009623D03*
X009515Y009675D03*
X009520Y009683D03*
X009523Y009685D03*
X009525Y009688D03*
X009525Y009690D03*
X009568Y009755D03*
X009568Y009758D03*
X009568Y009798D03*
X009795Y009953D03*
X009798Y009950D03*
X009800Y009945D03*
X009803Y009943D03*
X009805Y009940D03*
X009788Y009965D03*
X009585Y009385D03*
X009588Y009383D03*
X009515Y009333D03*
X009520Y009325D03*
X009523Y009323D03*
X009525Y009320D03*
X009525Y009318D03*
X009578Y009248D03*
X009578Y009208D03*
X009738Y009108D03*
X009810Y009058D03*
X009813Y009060D03*
X009815Y009063D03*
X009818Y009068D03*
X009808Y009053D03*
X009805Y009050D03*
X009798Y009038D03*
X009738Y009348D03*
X015838Y001765D03*
X015845Y001753D03*
X015848Y001750D03*
X015850Y001745D03*
X015853Y001743D03*
X015855Y001740D03*
X015618Y001598D03*
X015618Y001558D03*
X015618Y001555D03*
X015575Y001490D03*
X015575Y001488D03*
X015573Y001485D03*
X015570Y001483D03*
X015565Y001475D03*
X015638Y001428D03*
X015638Y001425D03*
X015635Y001423D03*
X015838Y001390D03*
X015840Y001395D03*
X015843Y001398D03*
X015848Y001405D03*
X015850Y001408D03*
X015798Y001283D03*
X015848Y001215D03*
X015850Y001210D03*
X015853Y001208D03*
X015855Y001205D03*
X015858Y001200D03*
X015860Y001198D03*
X015788Y001148D03*
X015638Y001183D03*
X015635Y001185D03*
X015565Y001133D03*
X015570Y001125D03*
X015573Y001123D03*
X015575Y001120D03*
X015575Y001118D03*
X015628Y001048D03*
X015628Y001008D03*
X015788Y000908D03*
X015860Y000858D03*
X015863Y000860D03*
X015865Y000863D03*
X015868Y000868D03*
X015858Y000853D03*
X015855Y000850D03*
X015848Y000838D03*
X016583Y001285D03*
X016738Y001350D03*
X016793Y001310D03*
X016940Y001375D03*
X016938Y001230D03*
X017150Y001228D03*
D30*
X016789Y001313D03*
X016741Y001348D03*
X016639Y001355D03*
X016579Y001253D03*
X016624Y001228D03*
X015849Y001213D03*
X015796Y001323D03*
X015796Y001325D03*
X015839Y001393D03*
X015849Y001748D03*
X015844Y001755D03*
X015841Y001758D03*
X015839Y001760D03*
X015839Y001763D03*
X015859Y000855D03*
X015854Y000848D03*
X015851Y000845D03*
X015849Y000843D03*
X015849Y000840D03*
X009799Y009040D03*
X009799Y009043D03*
X009801Y009045D03*
X009804Y009048D03*
X009809Y009055D03*
X009799Y009413D03*
X009746Y009523D03*
X009746Y009525D03*
X009789Y009593D03*
X009799Y009948D03*
X009794Y009955D03*
X009791Y009958D03*
X009789Y009960D03*
X009789Y009963D03*
X010589Y009555D03*
X010691Y009548D03*
X010739Y009513D03*
X010574Y009428D03*
X010529Y009453D03*
X015799Y010590D03*
X015799Y010593D03*
X015801Y010595D03*
X015804Y010598D03*
X015809Y010605D03*
X015799Y010963D03*
X015746Y011073D03*
X015746Y011075D03*
X015789Y011143D03*
X015799Y011498D03*
X015794Y011505D03*
X015791Y011508D03*
X015789Y011510D03*
X015789Y011513D03*
X016589Y011105D03*
X016691Y011098D03*
X016739Y011063D03*
X016574Y010978D03*
X016529Y011003D03*
D31*
X016494Y010975D03*
X016491Y010973D03*
X016489Y010970D03*
X016486Y010963D03*
X016529Y010910D03*
X016576Y010930D03*
X016579Y010933D03*
X016584Y010938D03*
X016586Y010940D03*
X016589Y010943D03*
X016589Y010945D03*
X016591Y010948D03*
X016591Y010950D03*
X016591Y010953D03*
X016659Y010998D03*
X016571Y011055D03*
X016574Y011060D03*
X016576Y011093D03*
X016574Y011100D03*
X016719Y011188D03*
X016759Y011165D03*
X017144Y011165D03*
X016221Y011163D03*
X016221Y011190D03*
X016221Y011123D03*
X015921Y011128D03*
X015921Y011130D03*
X015786Y011120D03*
X015726Y011183D03*
X015651Y011138D03*
X015589Y011200D03*
X015664Y011245D03*
X015569Y011293D03*
X015569Y011363D03*
X015664Y011410D03*
X015726Y011473D03*
X015786Y011535D03*
X015749Y011018D03*
X015796Y010985D03*
X015734Y010923D03*
X015671Y010860D03*
X015589Y010910D03*
X015526Y010848D03*
X015671Y010695D03*
X015734Y010633D03*
X011144Y009615D03*
X010759Y009615D03*
X010719Y009638D03*
X010574Y009550D03*
X010576Y009543D03*
X010574Y009510D03*
X010571Y009505D03*
X010591Y009403D03*
X010591Y009400D03*
X010591Y009398D03*
X010589Y009395D03*
X010589Y009393D03*
X010586Y009390D03*
X010584Y009388D03*
X010579Y009383D03*
X010576Y009380D03*
X010529Y009360D03*
X010486Y009413D03*
X010489Y009420D03*
X010491Y009423D03*
X010494Y009425D03*
X010659Y009448D03*
X010221Y009573D03*
X010221Y009613D03*
X010221Y009640D03*
X009921Y009580D03*
X009921Y009578D03*
X009786Y009570D03*
X009726Y009633D03*
X009651Y009588D03*
X009589Y009650D03*
X009664Y009695D03*
X009569Y009743D03*
X009569Y009813D03*
X009664Y009860D03*
X009726Y009923D03*
X009786Y009985D03*
X009749Y009468D03*
X009796Y009435D03*
X009734Y009373D03*
X009671Y009310D03*
X009589Y009360D03*
X009526Y009298D03*
X009671Y009145D03*
X009734Y009083D03*
X015836Y001785D03*
X015776Y001723D03*
X015714Y001660D03*
X015619Y001613D03*
X015619Y001543D03*
X015639Y001450D03*
X015714Y001495D03*
X015776Y001433D03*
X015836Y001370D03*
X015799Y001268D03*
X015846Y001235D03*
X015784Y001173D03*
X015721Y001110D03*
X015639Y001160D03*
X015576Y001098D03*
X015721Y000945D03*
X015784Y000883D03*
X016271Y001373D03*
X016271Y001413D03*
X016271Y001440D03*
X016624Y001350D03*
X016626Y001343D03*
X016624Y001310D03*
X016621Y001305D03*
X016641Y001203D03*
X016641Y001200D03*
X016641Y001198D03*
X016639Y001195D03*
X016639Y001193D03*
X016636Y001190D03*
X016634Y001188D03*
X016629Y001183D03*
X016626Y001180D03*
X016579Y001160D03*
X016536Y001213D03*
X016539Y001220D03*
X016541Y001223D03*
X016544Y001225D03*
X016709Y001248D03*
X016809Y001415D03*
X016769Y001438D03*
X017194Y001415D03*
X015971Y001380D03*
X015971Y001378D03*
X015701Y001388D03*
D32*
X015703Y001370D03*
X015703Y001368D03*
X015700Y001365D03*
X015698Y001360D03*
X015623Y001405D03*
X015625Y001410D03*
X015628Y001413D03*
X015640Y001433D03*
X015640Y001435D03*
X015578Y001495D03*
X015558Y001465D03*
X015555Y001463D03*
X015553Y001458D03*
X015550Y001455D03*
X015550Y001453D03*
X015548Y001450D03*
X015545Y001445D03*
X015618Y001553D03*
X015618Y001603D03*
X015713Y001640D03*
X015715Y001638D03*
X015785Y001688D03*
X015785Y001690D03*
X015783Y001693D03*
X015775Y001705D03*
X015835Y001770D03*
X015863Y001728D03*
X015865Y001723D03*
X015868Y001720D03*
X015868Y001718D03*
X015870Y001715D03*
X015873Y001710D03*
X015875Y001705D03*
X015878Y001700D03*
X015715Y001518D03*
X015713Y001515D03*
X015783Y001463D03*
X015785Y001465D03*
X015775Y001450D03*
X015855Y001415D03*
X015858Y001418D03*
X015860Y001423D03*
X015863Y001428D03*
X015865Y001430D03*
X015865Y001433D03*
X015868Y001435D03*
X015835Y001385D03*
X015798Y001278D03*
X015845Y001220D03*
X015873Y001180D03*
X015875Y001175D03*
X015878Y001173D03*
X015878Y001170D03*
X015880Y001168D03*
X015800Y001130D03*
X015798Y001135D03*
X015795Y001138D03*
X015783Y001158D03*
X015720Y001095D03*
X015720Y001093D03*
X015723Y001090D03*
X015628Y001053D03*
X015628Y001003D03*
X015578Y001113D03*
X015558Y001143D03*
X015555Y001145D03*
X015555Y001148D03*
X015553Y001150D03*
X015550Y001155D03*
X015548Y001158D03*
X015548Y001160D03*
X015625Y001198D03*
X015628Y001195D03*
X015623Y001203D03*
X015640Y001175D03*
X015703Y001240D03*
X015700Y001243D03*
X015698Y001248D03*
X015795Y000918D03*
X015793Y000915D03*
X015783Y000898D03*
X015878Y000885D03*
X015878Y000883D03*
X015880Y000888D03*
X015883Y000893D03*
X015885Y000895D03*
X015885Y000898D03*
X015888Y000900D03*
X016795Y001308D03*
X017113Y001245D03*
X009828Y009083D03*
X009828Y009085D03*
X009830Y009088D03*
X009833Y009093D03*
X009835Y009095D03*
X009835Y009098D03*
X009838Y009100D03*
X009745Y009118D03*
X009743Y009115D03*
X009733Y009098D03*
X009578Y009203D03*
X009578Y009253D03*
X009528Y009313D03*
X009508Y009343D03*
X009505Y009345D03*
X009505Y009348D03*
X009503Y009350D03*
X009500Y009355D03*
X009498Y009358D03*
X009498Y009360D03*
X009575Y009398D03*
X009578Y009395D03*
X009573Y009403D03*
X009590Y009375D03*
X009653Y009440D03*
X009650Y009443D03*
X009648Y009448D03*
X009748Y009478D03*
X009795Y009420D03*
X009823Y009380D03*
X009825Y009375D03*
X009828Y009373D03*
X009828Y009370D03*
X009830Y009368D03*
X009750Y009330D03*
X009748Y009335D03*
X009745Y009338D03*
X009733Y009358D03*
X009670Y009295D03*
X009670Y009293D03*
X009673Y009290D03*
X009648Y009560D03*
X009650Y009565D03*
X009653Y009568D03*
X009653Y009570D03*
X009578Y009613D03*
X009575Y009610D03*
X009573Y009605D03*
X009590Y009633D03*
X009590Y009635D03*
X009528Y009695D03*
X009508Y009665D03*
X009505Y009663D03*
X009503Y009658D03*
X009500Y009655D03*
X009500Y009653D03*
X009498Y009650D03*
X009495Y009645D03*
X009568Y009753D03*
X009568Y009803D03*
X009663Y009840D03*
X009665Y009838D03*
X009735Y009888D03*
X009735Y009890D03*
X009733Y009893D03*
X009725Y009905D03*
X009785Y009970D03*
X009813Y009928D03*
X009815Y009923D03*
X009818Y009920D03*
X009818Y009918D03*
X009820Y009915D03*
X009823Y009910D03*
X009825Y009905D03*
X009828Y009900D03*
X009665Y009718D03*
X009663Y009715D03*
X009733Y009663D03*
X009735Y009665D03*
X009725Y009650D03*
X009805Y009615D03*
X009808Y009618D03*
X009810Y009623D03*
X009813Y009628D03*
X009815Y009630D03*
X009815Y009633D03*
X009818Y009635D03*
X009785Y009585D03*
X010745Y009508D03*
X011063Y009445D03*
X015498Y010908D03*
X015498Y010910D03*
X015500Y010905D03*
X015503Y010900D03*
X015505Y010898D03*
X015505Y010895D03*
X015508Y010893D03*
X015528Y010863D03*
X015578Y010803D03*
X015578Y010753D03*
X015670Y010843D03*
X015670Y010845D03*
X015673Y010840D03*
X015745Y010888D03*
X015748Y010885D03*
X015750Y010880D03*
X015733Y010908D03*
X015795Y010970D03*
X015823Y010930D03*
X015825Y010925D03*
X015828Y010923D03*
X015828Y010920D03*
X015830Y010918D03*
X015748Y011028D03*
X015653Y010990D03*
X015650Y010993D03*
X015648Y010998D03*
X015573Y010953D03*
X015575Y010948D03*
X015578Y010945D03*
X015590Y010925D03*
X015648Y011110D03*
X015650Y011115D03*
X015653Y011118D03*
X015653Y011120D03*
X015578Y011163D03*
X015575Y011160D03*
X015573Y011155D03*
X015590Y011183D03*
X015590Y011185D03*
X015528Y011245D03*
X015508Y011215D03*
X015505Y011213D03*
X015503Y011208D03*
X015500Y011205D03*
X015500Y011203D03*
X015498Y011200D03*
X015495Y011195D03*
X015568Y011303D03*
X015568Y011353D03*
X015663Y011390D03*
X015665Y011388D03*
X015735Y011438D03*
X015735Y011440D03*
X015733Y011443D03*
X015725Y011455D03*
X015785Y011520D03*
X015813Y011478D03*
X015815Y011473D03*
X015818Y011470D03*
X015818Y011468D03*
X015820Y011465D03*
X015823Y011460D03*
X015825Y011455D03*
X015828Y011450D03*
X015665Y011268D03*
X015663Y011265D03*
X015733Y011213D03*
X015735Y011215D03*
X015725Y011200D03*
X015805Y011165D03*
X015808Y011168D03*
X015810Y011173D03*
X015813Y011178D03*
X015815Y011180D03*
X015815Y011183D03*
X015818Y011185D03*
X015785Y011135D03*
X015745Y010668D03*
X015743Y010665D03*
X015733Y010648D03*
X015828Y010635D03*
X015828Y010633D03*
X015830Y010638D03*
X015833Y010643D03*
X015835Y010645D03*
X015835Y010648D03*
X015838Y010650D03*
X016745Y011058D03*
X017063Y010995D03*
D33*
X017141Y010995D03*
X016944Y011035D03*
X016941Y011025D03*
X016941Y011023D03*
X016939Y011018D03*
X016939Y011015D03*
X016936Y011013D03*
X016936Y011010D03*
X016934Y011008D03*
X016934Y011005D03*
X016931Y011003D03*
X016929Y011000D03*
X016926Y010998D03*
X016924Y010995D03*
X016851Y010998D03*
X016849Y011000D03*
X016846Y011003D03*
X016844Y011005D03*
X016844Y011008D03*
X016841Y011010D03*
X016839Y011015D03*
X016839Y011018D03*
X016836Y011023D03*
X016836Y011025D03*
X016834Y011035D03*
X016834Y011070D03*
X016836Y011080D03*
X016836Y011083D03*
X016839Y011088D03*
X016839Y011090D03*
X016841Y011093D03*
X016841Y011095D03*
X016844Y011098D03*
X016846Y011103D03*
X016849Y011105D03*
X016851Y011108D03*
X016854Y011110D03*
X016926Y011108D03*
X016929Y011105D03*
X016931Y011103D03*
X016934Y011100D03*
X016934Y011098D03*
X016936Y011095D03*
X016936Y011093D03*
X016939Y011090D03*
X016939Y011088D03*
X016941Y011083D03*
X016941Y011080D03*
X016944Y011070D03*
X016759Y011023D03*
X016759Y011020D03*
X016759Y011018D03*
X016756Y011015D03*
X016756Y011013D03*
X016754Y011008D03*
X016751Y011005D03*
X016666Y011130D03*
X016666Y011133D03*
X016666Y011135D03*
X016666Y011138D03*
X016669Y011148D03*
X016674Y011158D03*
X016676Y011160D03*
X016679Y011163D03*
X016561Y011045D03*
X016529Y011030D03*
X016501Y011050D03*
X016499Y011053D03*
X016496Y011055D03*
X016496Y011058D03*
X016494Y011060D03*
X016494Y011063D03*
X016494Y011065D03*
X016491Y011070D03*
X016491Y011073D03*
X016491Y011075D03*
X016491Y011078D03*
X016491Y011080D03*
X016491Y011083D03*
X016491Y011085D03*
X016491Y011088D03*
X016494Y011095D03*
X016496Y011103D03*
X016501Y011110D03*
X016504Y011113D03*
X016406Y011090D03*
X016406Y011088D03*
X016406Y011085D03*
X016314Y011123D03*
X016221Y011165D03*
X016221Y011168D03*
X016221Y011185D03*
X016221Y011188D03*
X016121Y011095D03*
X016124Y011090D03*
X016124Y011088D03*
X016124Y011085D03*
X016031Y011198D03*
X015919Y011125D03*
X015921Y011010D03*
X015921Y011008D03*
X015796Y010983D03*
X015734Y010920D03*
X015671Y010858D03*
X015589Y010913D03*
X015526Y010850D03*
X015671Y010698D03*
X015734Y010635D03*
X015746Y011088D03*
X015786Y011123D03*
X015726Y011185D03*
X015664Y011248D03*
X015589Y011198D03*
X015651Y011135D03*
X015664Y011408D03*
X015726Y011470D03*
X015786Y011533D03*
X016486Y010948D03*
X016486Y010945D03*
X016486Y010943D03*
X016489Y010940D03*
X016571Y010928D03*
X016591Y010963D03*
X016591Y010965D03*
X011141Y009445D03*
X010944Y009485D03*
X010941Y009475D03*
X010941Y009473D03*
X010939Y009468D03*
X010939Y009465D03*
X010936Y009463D03*
X010936Y009460D03*
X010934Y009458D03*
X010934Y009455D03*
X010931Y009453D03*
X010929Y009450D03*
X010926Y009448D03*
X010924Y009445D03*
X010851Y009448D03*
X010849Y009450D03*
X010846Y009453D03*
X010844Y009455D03*
X010844Y009458D03*
X010841Y009460D03*
X010839Y009465D03*
X010839Y009468D03*
X010836Y009473D03*
X010836Y009475D03*
X010834Y009485D03*
X010834Y009520D03*
X010836Y009530D03*
X010836Y009533D03*
X010839Y009538D03*
X010839Y009540D03*
X010841Y009543D03*
X010841Y009545D03*
X010844Y009548D03*
X010846Y009553D03*
X010849Y009555D03*
X010851Y009558D03*
X010854Y009560D03*
X010926Y009558D03*
X010929Y009555D03*
X010931Y009553D03*
X010934Y009550D03*
X010934Y009548D03*
X010936Y009545D03*
X010936Y009543D03*
X010939Y009540D03*
X010939Y009538D03*
X010941Y009533D03*
X010941Y009530D03*
X010944Y009520D03*
X010759Y009473D03*
X010759Y009470D03*
X010759Y009468D03*
X010756Y009465D03*
X010756Y009463D03*
X010754Y009458D03*
X010751Y009455D03*
X010666Y009580D03*
X010666Y009583D03*
X010666Y009585D03*
X010666Y009588D03*
X010669Y009598D03*
X010674Y009608D03*
X010676Y009610D03*
X010679Y009613D03*
X010561Y009495D03*
X010529Y009480D03*
X010501Y009500D03*
X010499Y009503D03*
X010496Y009505D03*
X010496Y009508D03*
X010494Y009510D03*
X010494Y009513D03*
X010494Y009515D03*
X010491Y009520D03*
X010491Y009523D03*
X010491Y009525D03*
X010491Y009528D03*
X010491Y009530D03*
X010491Y009533D03*
X010491Y009535D03*
X010491Y009538D03*
X010494Y009545D03*
X010496Y009553D03*
X010501Y009560D03*
X010504Y009563D03*
X010406Y009540D03*
X010406Y009538D03*
X010406Y009535D03*
X010314Y009573D03*
X010221Y009615D03*
X010221Y009618D03*
X010221Y009635D03*
X010221Y009638D03*
X010121Y009545D03*
X010124Y009540D03*
X010124Y009538D03*
X010124Y009535D03*
X010031Y009648D03*
X009919Y009575D03*
X009921Y009460D03*
X009921Y009458D03*
X009796Y009433D03*
X009734Y009370D03*
X009671Y009308D03*
X009589Y009363D03*
X009526Y009300D03*
X009671Y009148D03*
X009734Y009085D03*
X009746Y009538D03*
X009786Y009573D03*
X009726Y009635D03*
X009664Y009698D03*
X009589Y009648D03*
X009651Y009585D03*
X009664Y009858D03*
X009726Y009920D03*
X009786Y009983D03*
X010486Y009398D03*
X010486Y009395D03*
X010486Y009393D03*
X010489Y009390D03*
X010571Y009378D03*
X010591Y009413D03*
X010591Y009415D03*
X015836Y001783D03*
X015776Y001720D03*
X015714Y001658D03*
X015714Y001498D03*
X015776Y001435D03*
X015836Y001373D03*
X015796Y001338D03*
X015701Y001385D03*
X015639Y001448D03*
X015639Y001163D03*
X015576Y001100D03*
X015721Y001108D03*
X015784Y001170D03*
X015846Y001233D03*
X015971Y001258D03*
X015971Y001260D03*
X015969Y001375D03*
X016081Y001448D03*
X016171Y001345D03*
X016174Y001340D03*
X016174Y001338D03*
X016174Y001335D03*
X016271Y001415D03*
X016271Y001418D03*
X016271Y001435D03*
X016271Y001438D03*
X016364Y001373D03*
X016456Y001340D03*
X016456Y001338D03*
X016456Y001335D03*
X016541Y001335D03*
X016541Y001338D03*
X016541Y001333D03*
X016541Y001330D03*
X016541Y001328D03*
X016541Y001325D03*
X016541Y001323D03*
X016541Y001320D03*
X016544Y001315D03*
X016544Y001313D03*
X016544Y001310D03*
X016546Y001308D03*
X016546Y001305D03*
X016549Y001303D03*
X016551Y001300D03*
X016579Y001280D03*
X016611Y001295D03*
X016544Y001345D03*
X016546Y001353D03*
X016551Y001360D03*
X016554Y001363D03*
X016716Y001380D03*
X016716Y001383D03*
X016716Y001385D03*
X016716Y001388D03*
X016719Y001398D03*
X016724Y001408D03*
X016726Y001410D03*
X016729Y001413D03*
X016809Y001273D03*
X016809Y001270D03*
X016809Y001268D03*
X016806Y001265D03*
X016806Y001263D03*
X016804Y001258D03*
X016801Y001255D03*
X016886Y001273D03*
X016886Y001275D03*
X016889Y001268D03*
X016889Y001265D03*
X016891Y001260D03*
X016894Y001258D03*
X016894Y001255D03*
X016896Y001253D03*
X016899Y001250D03*
X016901Y001248D03*
X016884Y001285D03*
X016884Y001320D03*
X016886Y001330D03*
X016886Y001333D03*
X016889Y001338D03*
X016889Y001340D03*
X016891Y001343D03*
X016891Y001345D03*
X016894Y001348D03*
X016896Y001353D03*
X016899Y001355D03*
X016901Y001358D03*
X016904Y001360D03*
X016976Y001358D03*
X016979Y001355D03*
X016981Y001353D03*
X016984Y001350D03*
X016984Y001348D03*
X016986Y001345D03*
X016986Y001343D03*
X016989Y001340D03*
X016989Y001338D03*
X016991Y001333D03*
X016991Y001330D03*
X016994Y001320D03*
X016994Y001285D03*
X016991Y001275D03*
X016991Y001273D03*
X016989Y001268D03*
X016989Y001265D03*
X016986Y001263D03*
X016986Y001260D03*
X016984Y001258D03*
X016984Y001255D03*
X016981Y001253D03*
X016979Y001250D03*
X016976Y001248D03*
X016974Y001245D03*
X016641Y001215D03*
X016641Y001213D03*
X016621Y001178D03*
X016539Y001190D03*
X016536Y001193D03*
X016536Y001195D03*
X016536Y001198D03*
X017191Y001245D03*
X015784Y000885D03*
X015721Y000948D03*
D34*
X015721Y000950D03*
X015784Y000888D03*
X015721Y001105D03*
X015784Y001168D03*
X015846Y001230D03*
X015974Y001250D03*
X015966Y001373D03*
X015836Y001375D03*
X015701Y001383D03*
X015714Y001500D03*
X015619Y001545D03*
X015714Y001655D03*
X015776Y001718D03*
X015836Y001780D03*
X016271Y001433D03*
X016271Y001430D03*
X016271Y001428D03*
X016271Y001425D03*
X016271Y001423D03*
X016271Y001420D03*
X016556Y001295D03*
X016541Y001185D03*
X016544Y001183D03*
X016546Y001180D03*
X016714Y001245D03*
X016794Y001248D03*
X016809Y001283D03*
X016809Y001285D03*
X016809Y001288D03*
X016909Y001243D03*
X016969Y001243D03*
X017071Y001288D03*
X017071Y001290D03*
X017069Y001295D03*
X017069Y001298D03*
X017066Y001303D03*
X017066Y001305D03*
X017066Y001308D03*
X017066Y001310D03*
X017064Y001315D03*
X017064Y001318D03*
X017064Y001320D03*
X017064Y001323D03*
X017064Y001325D03*
X017064Y001328D03*
X017064Y001330D03*
X017064Y001333D03*
X017064Y001335D03*
X017064Y001338D03*
X017064Y001340D03*
X017064Y001343D03*
X017064Y001345D03*
X017064Y001348D03*
X017066Y001353D03*
X017066Y001355D03*
X017066Y001358D03*
X017066Y001360D03*
X017069Y001365D03*
X017069Y001368D03*
X017071Y001373D03*
X017071Y001375D03*
X017074Y001380D03*
X017076Y001385D03*
X017079Y001390D03*
X017081Y001393D03*
X017081Y001395D03*
X017084Y001398D03*
X017086Y001400D03*
X017089Y001403D03*
X017091Y001405D03*
X017189Y001418D03*
X017074Y001283D03*
X017076Y001278D03*
X017079Y001275D03*
X017079Y001273D03*
X017081Y001270D03*
X017084Y001268D03*
X017086Y001263D03*
X016974Y001360D03*
X016969Y001363D03*
X016909Y001363D03*
X016719Y001373D03*
X015701Y001228D03*
X015639Y001165D03*
X015576Y001103D03*
X009734Y009088D03*
X009671Y009150D03*
X009671Y009305D03*
X009734Y009368D03*
X009796Y009430D03*
X009924Y009450D03*
X009916Y009573D03*
X009786Y009575D03*
X009651Y009583D03*
X009664Y009700D03*
X009569Y009745D03*
X009664Y009855D03*
X009726Y009918D03*
X009786Y009980D03*
X010221Y009633D03*
X010221Y009630D03*
X010221Y009628D03*
X010221Y009625D03*
X010221Y009623D03*
X010221Y009620D03*
X010506Y009495D03*
X010491Y009385D03*
X010494Y009383D03*
X010496Y009380D03*
X010664Y009445D03*
X010744Y009448D03*
X010759Y009483D03*
X010759Y009485D03*
X010759Y009488D03*
X010859Y009443D03*
X010919Y009443D03*
X011021Y009488D03*
X011021Y009490D03*
X011019Y009495D03*
X011019Y009498D03*
X011016Y009503D03*
X011016Y009505D03*
X011016Y009508D03*
X011016Y009510D03*
X011014Y009515D03*
X011014Y009518D03*
X011014Y009520D03*
X011014Y009523D03*
X011014Y009525D03*
X011014Y009528D03*
X011014Y009530D03*
X011014Y009533D03*
X011014Y009535D03*
X011014Y009538D03*
X011014Y009540D03*
X011014Y009543D03*
X011014Y009545D03*
X011014Y009548D03*
X011016Y009553D03*
X011016Y009555D03*
X011016Y009558D03*
X011016Y009560D03*
X011019Y009565D03*
X011019Y009568D03*
X011021Y009573D03*
X011021Y009575D03*
X011024Y009580D03*
X011026Y009585D03*
X011029Y009590D03*
X011031Y009593D03*
X011031Y009595D03*
X011034Y009598D03*
X011036Y009600D03*
X011039Y009603D03*
X011041Y009605D03*
X011139Y009618D03*
X011024Y009483D03*
X011026Y009478D03*
X011029Y009475D03*
X011029Y009473D03*
X011031Y009470D03*
X011034Y009468D03*
X011036Y009463D03*
X010924Y009560D03*
X010919Y009563D03*
X010859Y009563D03*
X010669Y009573D03*
X009651Y009428D03*
X009589Y009365D03*
X009526Y009303D03*
X015526Y010853D03*
X015589Y010915D03*
X015651Y010978D03*
X015734Y010918D03*
X015796Y010980D03*
X015924Y011000D03*
X015916Y011123D03*
X015786Y011125D03*
X015651Y011133D03*
X015664Y011250D03*
X015569Y011295D03*
X015664Y011405D03*
X015726Y011468D03*
X015786Y011530D03*
X016221Y011183D03*
X016221Y011180D03*
X016221Y011178D03*
X016221Y011175D03*
X016221Y011173D03*
X016221Y011170D03*
X016506Y011045D03*
X016491Y010935D03*
X016494Y010933D03*
X016496Y010930D03*
X016664Y010995D03*
X016744Y010998D03*
X016759Y011033D03*
X016759Y011035D03*
X016759Y011038D03*
X016859Y010993D03*
X016919Y010993D03*
X017021Y011038D03*
X017021Y011040D03*
X017019Y011045D03*
X017019Y011048D03*
X017016Y011053D03*
X017016Y011055D03*
X017016Y011058D03*
X017016Y011060D03*
X017014Y011065D03*
X017014Y011068D03*
X017014Y011070D03*
X017014Y011073D03*
X017014Y011075D03*
X017014Y011078D03*
X017014Y011080D03*
X017014Y011083D03*
X017014Y011085D03*
X017014Y011088D03*
X017014Y011090D03*
X017014Y011093D03*
X017014Y011095D03*
X017014Y011098D03*
X017016Y011103D03*
X017016Y011105D03*
X017016Y011108D03*
X017016Y011110D03*
X017019Y011115D03*
X017019Y011118D03*
X017021Y011123D03*
X017021Y011125D03*
X017024Y011130D03*
X017026Y011135D03*
X017029Y011140D03*
X017031Y011143D03*
X017031Y011145D03*
X017034Y011148D03*
X017036Y011150D03*
X017039Y011153D03*
X017041Y011155D03*
X017139Y011168D03*
X017024Y011033D03*
X017026Y011028D03*
X017029Y011025D03*
X017029Y011023D03*
X017031Y011020D03*
X017034Y011018D03*
X017036Y011013D03*
X016924Y011110D03*
X016919Y011113D03*
X016859Y011113D03*
X016669Y011123D03*
X015734Y010638D03*
X015671Y010700D03*
X015671Y010855D03*
D35*
X015671Y010853D03*
X015689Y010803D03*
X015689Y010800D03*
X015689Y010755D03*
X015689Y010753D03*
X015671Y010703D03*
X015734Y010640D03*
X015779Y010760D03*
X015779Y010763D03*
X015779Y010765D03*
X015779Y010768D03*
X015779Y010770D03*
X015779Y010773D03*
X015779Y010775D03*
X015779Y010778D03*
X015779Y010780D03*
X015779Y010783D03*
X015779Y010785D03*
X015779Y010788D03*
X015779Y010790D03*
X015779Y010793D03*
X015779Y010795D03*
X015734Y010915D03*
X015796Y010978D03*
X015746Y011085D03*
X015786Y011128D03*
X015634Y011073D03*
X015631Y011055D03*
X015631Y011053D03*
X015631Y011048D03*
X015634Y011035D03*
X015651Y010980D03*
X015589Y010918D03*
X015526Y010855D03*
X015461Y011005D03*
X015461Y011103D03*
X015664Y011253D03*
X015664Y011403D03*
X015786Y011528D03*
X016101Y011125D03*
X016214Y011118D03*
X016384Y011125D03*
X016499Y010928D03*
X016756Y011043D03*
X016686Y011168D03*
X017051Y011163D03*
X017049Y011003D03*
X011051Y009613D03*
X011049Y009453D03*
X010756Y009493D03*
X010686Y009618D03*
X010499Y009378D03*
X010384Y009575D03*
X010214Y009568D03*
X010101Y009575D03*
X009786Y009578D03*
X009746Y009535D03*
X009634Y009523D03*
X009631Y009505D03*
X009631Y009503D03*
X009631Y009498D03*
X009634Y009485D03*
X009651Y009430D03*
X009589Y009368D03*
X009526Y009305D03*
X009671Y009303D03*
X009689Y009253D03*
X009689Y009250D03*
X009689Y009205D03*
X009689Y009203D03*
X009671Y009153D03*
X009734Y009090D03*
X009779Y009210D03*
X009779Y009213D03*
X009779Y009215D03*
X009779Y009218D03*
X009779Y009220D03*
X009779Y009223D03*
X009779Y009225D03*
X009779Y009228D03*
X009779Y009230D03*
X009779Y009233D03*
X009779Y009235D03*
X009779Y009238D03*
X009779Y009240D03*
X009779Y009243D03*
X009779Y009245D03*
X009734Y009365D03*
X009796Y009428D03*
X009664Y009703D03*
X009664Y009853D03*
X009786Y009978D03*
X009461Y009553D03*
X009461Y009455D03*
X015836Y001778D03*
X015714Y001653D03*
X015714Y001503D03*
X015836Y001378D03*
X015796Y001335D03*
X015684Y001323D03*
X015681Y001305D03*
X015681Y001303D03*
X015681Y001298D03*
X015684Y001285D03*
X015701Y001230D03*
X015639Y001168D03*
X015576Y001105D03*
X015721Y001103D03*
X015739Y001053D03*
X015739Y001050D03*
X015739Y001005D03*
X015739Y001003D03*
X015721Y000953D03*
X015784Y000890D03*
X015829Y001010D03*
X015829Y001013D03*
X015829Y001015D03*
X015829Y001018D03*
X015829Y001020D03*
X015829Y001023D03*
X015829Y001025D03*
X015829Y001028D03*
X015829Y001030D03*
X015829Y001033D03*
X015829Y001035D03*
X015829Y001038D03*
X015829Y001040D03*
X015829Y001043D03*
X015829Y001045D03*
X015784Y001165D03*
X015846Y001228D03*
X015511Y001255D03*
X015511Y001353D03*
X016151Y001375D03*
X016264Y001368D03*
X016434Y001375D03*
X016549Y001178D03*
X016806Y001293D03*
X016736Y001418D03*
X017101Y001413D03*
X017099Y001253D03*
D36*
X017106Y001248D03*
X016801Y001300D03*
X016729Y001358D03*
X016726Y001360D03*
X016571Y001255D03*
X016091Y001353D03*
X016074Y001443D03*
X015896Y001503D03*
X015896Y001505D03*
X015896Y001508D03*
X015899Y001510D03*
X015899Y001513D03*
X015899Y001515D03*
X015901Y001523D03*
X015901Y001525D03*
X015904Y001538D03*
X015904Y001540D03*
X015904Y001543D03*
X015904Y001545D03*
X015904Y001548D03*
X015894Y001498D03*
X015894Y001495D03*
X015811Y001518D03*
X015811Y001520D03*
X015811Y001523D03*
X015814Y001528D03*
X015816Y001540D03*
X015819Y001555D03*
X015809Y001515D03*
X015809Y001513D03*
X015809Y001510D03*
X015806Y001505D03*
X015804Y001500D03*
X015726Y001540D03*
X015726Y001543D03*
X015729Y001545D03*
X015729Y001548D03*
X015724Y001535D03*
X015721Y001530D03*
X015711Y001508D03*
X015731Y001563D03*
X015731Y001593D03*
X015729Y001608D03*
X015729Y001610D03*
X015726Y001613D03*
X015726Y001615D03*
X015724Y001620D03*
X015721Y001625D03*
X015711Y001648D03*
X015804Y001655D03*
X015806Y001648D03*
X015809Y001645D03*
X015809Y001643D03*
X015809Y001640D03*
X015811Y001638D03*
X015811Y001635D03*
X015811Y001633D03*
X015814Y001628D03*
X015816Y001618D03*
X015816Y001615D03*
X015819Y001600D03*
X015904Y001605D03*
X015904Y001608D03*
X015901Y001628D03*
X015901Y001630D03*
X015899Y001640D03*
X015899Y001643D03*
X015896Y001648D03*
X015896Y001650D03*
X015889Y001673D03*
X015836Y001775D03*
X015836Y001380D03*
X015796Y001333D03*
X015704Y001375D03*
X015691Y001348D03*
X015689Y001343D03*
X015689Y001340D03*
X015686Y001338D03*
X015686Y001335D03*
X015686Y001275D03*
X015686Y001273D03*
X015686Y001270D03*
X015689Y001268D03*
X015689Y001265D03*
X015691Y001260D03*
X015606Y001238D03*
X015604Y001243D03*
X015604Y001245D03*
X015604Y001248D03*
X015601Y001250D03*
X015601Y001253D03*
X015599Y001260D03*
X015599Y001263D03*
X015599Y001265D03*
X015596Y001273D03*
X015596Y001275D03*
X015596Y001278D03*
X015596Y001280D03*
X015596Y001328D03*
X015596Y001330D03*
X015596Y001333D03*
X015596Y001335D03*
X015599Y001343D03*
X015599Y001345D03*
X015599Y001348D03*
X015601Y001355D03*
X015601Y001358D03*
X015604Y001363D03*
X015604Y001365D03*
X015606Y001370D03*
X015521Y001388D03*
X015521Y001390D03*
X015521Y001393D03*
X015524Y001398D03*
X015524Y001400D03*
X015529Y001413D03*
X015519Y001385D03*
X015519Y001383D03*
X015516Y001378D03*
X015516Y001375D03*
X015516Y001373D03*
X015514Y001368D03*
X015514Y001365D03*
X015514Y001363D03*
X015514Y001360D03*
X015509Y001335D03*
X015509Y001333D03*
X015509Y001275D03*
X015509Y001273D03*
X015509Y001270D03*
X015509Y001268D03*
X015509Y001265D03*
X015514Y001248D03*
X015514Y001245D03*
X015514Y001243D03*
X015514Y001240D03*
X015516Y001235D03*
X015516Y001233D03*
X015516Y001230D03*
X015519Y001228D03*
X015519Y001225D03*
X015519Y001223D03*
X015521Y001220D03*
X015521Y001218D03*
X015521Y001215D03*
X015524Y001208D03*
X015529Y001195D03*
X015576Y001108D03*
X015639Y001170D03*
X015721Y001100D03*
X015731Y001073D03*
X015734Y001068D03*
X015734Y001065D03*
X015736Y001063D03*
X015736Y001060D03*
X015741Y001043D03*
X015741Y001040D03*
X015741Y001015D03*
X015736Y000995D03*
X015736Y000993D03*
X015734Y000990D03*
X015734Y000988D03*
X015731Y000983D03*
X015721Y000955D03*
X015784Y000893D03*
X015814Y000953D03*
X015816Y000960D03*
X015816Y000963D03*
X015819Y000965D03*
X015819Y000968D03*
X015821Y000970D03*
X015821Y000973D03*
X015821Y000975D03*
X015824Y000983D03*
X015824Y000985D03*
X015826Y001000D03*
X015826Y001003D03*
X015826Y001055D03*
X015826Y001058D03*
X015826Y001060D03*
X015824Y001070D03*
X015824Y001073D03*
X015824Y001075D03*
X015821Y001080D03*
X015821Y001083D03*
X015821Y001085D03*
X015819Y001088D03*
X015819Y001090D03*
X015816Y001095D03*
X015816Y001098D03*
X015814Y001103D03*
X015784Y001163D03*
X015846Y001225D03*
X015901Y001123D03*
X015901Y001120D03*
X015904Y001113D03*
X015904Y001110D03*
X015906Y001105D03*
X015909Y001098D03*
X015909Y001095D03*
X015909Y001093D03*
X015911Y001090D03*
X015911Y001088D03*
X015911Y001085D03*
X015911Y001083D03*
X015911Y001080D03*
X015914Y001073D03*
X015914Y001070D03*
X015914Y001068D03*
X015914Y001065D03*
X015914Y001063D03*
X015914Y001060D03*
X015916Y001058D03*
X015916Y001055D03*
X015916Y001053D03*
X015916Y001050D03*
X015916Y001048D03*
X015916Y001045D03*
X015916Y001043D03*
X015916Y001040D03*
X015916Y001038D03*
X015916Y001035D03*
X015916Y001033D03*
X015916Y001030D03*
X015916Y001028D03*
X015916Y001025D03*
X015916Y001023D03*
X015916Y001020D03*
X015916Y001018D03*
X015916Y001015D03*
X015916Y001013D03*
X015916Y001010D03*
X015916Y001008D03*
X015916Y001005D03*
X015916Y001003D03*
X015916Y001000D03*
X015916Y000998D03*
X015914Y000985D03*
X015914Y000983D03*
X015914Y000980D03*
X015911Y000975D03*
X015911Y000973D03*
X015911Y000970D03*
X015911Y000968D03*
X015909Y000960D03*
X015909Y000958D03*
X015904Y000943D03*
X009734Y009093D03*
X009764Y009153D03*
X009766Y009160D03*
X009766Y009163D03*
X009769Y009165D03*
X009769Y009168D03*
X009771Y009170D03*
X009771Y009173D03*
X009771Y009175D03*
X009774Y009183D03*
X009774Y009185D03*
X009776Y009200D03*
X009776Y009203D03*
X009776Y009255D03*
X009776Y009258D03*
X009776Y009260D03*
X009774Y009270D03*
X009774Y009273D03*
X009774Y009275D03*
X009771Y009280D03*
X009771Y009283D03*
X009771Y009285D03*
X009769Y009288D03*
X009769Y009290D03*
X009766Y009295D03*
X009766Y009298D03*
X009764Y009303D03*
X009734Y009363D03*
X009796Y009425D03*
X009851Y009323D03*
X009851Y009320D03*
X009854Y009313D03*
X009854Y009310D03*
X009856Y009305D03*
X009859Y009298D03*
X009859Y009295D03*
X009859Y009293D03*
X009861Y009290D03*
X009861Y009288D03*
X009861Y009285D03*
X009861Y009283D03*
X009861Y009280D03*
X009864Y009273D03*
X009864Y009270D03*
X009864Y009268D03*
X009864Y009265D03*
X009864Y009263D03*
X009864Y009260D03*
X009866Y009258D03*
X009866Y009255D03*
X009866Y009253D03*
X009866Y009250D03*
X009866Y009248D03*
X009866Y009245D03*
X009866Y009243D03*
X009866Y009240D03*
X009866Y009238D03*
X009866Y009235D03*
X009866Y009233D03*
X009866Y009230D03*
X009866Y009228D03*
X009866Y009225D03*
X009866Y009223D03*
X009866Y009220D03*
X009866Y009218D03*
X009866Y009215D03*
X009866Y009213D03*
X009866Y009210D03*
X009866Y009208D03*
X009866Y009205D03*
X009866Y009203D03*
X009866Y009200D03*
X009866Y009198D03*
X009864Y009185D03*
X009864Y009183D03*
X009864Y009180D03*
X009861Y009175D03*
X009861Y009173D03*
X009861Y009170D03*
X009861Y009168D03*
X009859Y009160D03*
X009859Y009158D03*
X009854Y009143D03*
X009686Y009193D03*
X009686Y009195D03*
X009684Y009190D03*
X009684Y009188D03*
X009681Y009183D03*
X009671Y009155D03*
X009691Y009215D03*
X009691Y009240D03*
X009691Y009243D03*
X009686Y009260D03*
X009686Y009263D03*
X009684Y009265D03*
X009684Y009268D03*
X009681Y009273D03*
X009671Y009300D03*
X009589Y009370D03*
X009556Y009438D03*
X009554Y009443D03*
X009554Y009445D03*
X009554Y009448D03*
X009551Y009450D03*
X009551Y009453D03*
X009549Y009460D03*
X009549Y009463D03*
X009549Y009465D03*
X009546Y009473D03*
X009546Y009475D03*
X009546Y009478D03*
X009546Y009480D03*
X009546Y009528D03*
X009546Y009530D03*
X009546Y009533D03*
X009546Y009535D03*
X009549Y009543D03*
X009549Y009545D03*
X009549Y009548D03*
X009551Y009555D03*
X009551Y009558D03*
X009554Y009563D03*
X009554Y009565D03*
X009556Y009570D03*
X009471Y009588D03*
X009471Y009590D03*
X009471Y009593D03*
X009474Y009598D03*
X009474Y009600D03*
X009479Y009613D03*
X009469Y009585D03*
X009469Y009583D03*
X009466Y009578D03*
X009466Y009575D03*
X009466Y009573D03*
X009464Y009568D03*
X009464Y009565D03*
X009464Y009563D03*
X009464Y009560D03*
X009459Y009535D03*
X009459Y009533D03*
X009459Y009475D03*
X009459Y009473D03*
X009459Y009470D03*
X009459Y009468D03*
X009459Y009465D03*
X009464Y009448D03*
X009464Y009445D03*
X009464Y009443D03*
X009464Y009440D03*
X009466Y009435D03*
X009466Y009433D03*
X009466Y009430D03*
X009469Y009428D03*
X009469Y009425D03*
X009469Y009423D03*
X009471Y009420D03*
X009471Y009418D03*
X009471Y009415D03*
X009474Y009408D03*
X009479Y009395D03*
X009526Y009308D03*
X009641Y009460D03*
X009639Y009465D03*
X009639Y009468D03*
X009636Y009470D03*
X009636Y009473D03*
X009636Y009475D03*
X009636Y009535D03*
X009636Y009538D03*
X009639Y009540D03*
X009639Y009543D03*
X009641Y009548D03*
X009654Y009575D03*
X009746Y009533D03*
X009786Y009580D03*
X009754Y009700D03*
X009756Y009705D03*
X009759Y009710D03*
X009759Y009713D03*
X009759Y009715D03*
X009761Y009718D03*
X009761Y009720D03*
X009761Y009723D03*
X009764Y009728D03*
X009766Y009740D03*
X009769Y009755D03*
X009769Y009800D03*
X009766Y009815D03*
X009766Y009818D03*
X009764Y009828D03*
X009761Y009833D03*
X009761Y009835D03*
X009761Y009838D03*
X009759Y009840D03*
X009759Y009843D03*
X009759Y009845D03*
X009756Y009848D03*
X009754Y009855D03*
X009839Y009873D03*
X009846Y009850D03*
X009846Y009848D03*
X009849Y009843D03*
X009849Y009840D03*
X009851Y009830D03*
X009851Y009828D03*
X009854Y009808D03*
X009854Y009805D03*
X009854Y009748D03*
X009854Y009745D03*
X009854Y009743D03*
X009854Y009740D03*
X009854Y009738D03*
X009851Y009725D03*
X009851Y009723D03*
X009849Y009715D03*
X009849Y009713D03*
X009849Y009710D03*
X009846Y009708D03*
X009846Y009705D03*
X009846Y009703D03*
X009844Y009698D03*
X009844Y009695D03*
X009679Y009745D03*
X009679Y009748D03*
X009676Y009743D03*
X009676Y009740D03*
X009674Y009735D03*
X009671Y009730D03*
X009661Y009708D03*
X009681Y009763D03*
X009681Y009793D03*
X009679Y009808D03*
X009679Y009810D03*
X009676Y009813D03*
X009676Y009815D03*
X009674Y009820D03*
X009671Y009825D03*
X009661Y009848D03*
X009786Y009975D03*
X010024Y009643D03*
X010041Y009553D03*
X010521Y009455D03*
X010676Y009560D03*
X010679Y009558D03*
X010751Y009500D03*
X011056Y009448D03*
X015474Y010958D03*
X015471Y010965D03*
X015471Y010968D03*
X015471Y010970D03*
X015469Y010973D03*
X015469Y010975D03*
X015469Y010978D03*
X015466Y010980D03*
X015466Y010983D03*
X015466Y010985D03*
X015464Y010990D03*
X015464Y010993D03*
X015464Y010995D03*
X015464Y010998D03*
X015459Y011015D03*
X015459Y011018D03*
X015459Y011020D03*
X015459Y011023D03*
X015459Y011025D03*
X015459Y011083D03*
X015459Y011085D03*
X015464Y011110D03*
X015464Y011113D03*
X015464Y011115D03*
X015464Y011118D03*
X015466Y011123D03*
X015466Y011125D03*
X015466Y011128D03*
X015469Y011133D03*
X015469Y011135D03*
X015471Y011138D03*
X015471Y011140D03*
X015471Y011143D03*
X015474Y011148D03*
X015474Y011150D03*
X015479Y011163D03*
X015556Y011120D03*
X015554Y011115D03*
X015554Y011113D03*
X015551Y011108D03*
X015551Y011105D03*
X015549Y011098D03*
X015549Y011095D03*
X015549Y011093D03*
X015546Y011085D03*
X015546Y011083D03*
X015546Y011080D03*
X015546Y011078D03*
X015546Y011030D03*
X015546Y011028D03*
X015546Y011025D03*
X015546Y011023D03*
X015549Y011015D03*
X015549Y011013D03*
X015549Y011010D03*
X015551Y011003D03*
X015551Y011000D03*
X015554Y010998D03*
X015554Y010995D03*
X015554Y010993D03*
X015556Y010988D03*
X015589Y010920D03*
X015526Y010858D03*
X015479Y010945D03*
X015636Y011020D03*
X015636Y011023D03*
X015636Y011025D03*
X015639Y011018D03*
X015639Y011015D03*
X015641Y011010D03*
X015636Y011085D03*
X015636Y011088D03*
X015639Y011090D03*
X015639Y011093D03*
X015641Y011098D03*
X015654Y011125D03*
X015746Y011083D03*
X015786Y011130D03*
X015754Y011250D03*
X015756Y011255D03*
X015759Y011260D03*
X015759Y011263D03*
X015759Y011265D03*
X015761Y011268D03*
X015761Y011270D03*
X015761Y011273D03*
X015764Y011278D03*
X015766Y011290D03*
X015769Y011305D03*
X015769Y011350D03*
X015766Y011365D03*
X015766Y011368D03*
X015764Y011378D03*
X015761Y011383D03*
X015761Y011385D03*
X015761Y011388D03*
X015759Y011390D03*
X015759Y011393D03*
X015759Y011395D03*
X015756Y011398D03*
X015754Y011405D03*
X015839Y011423D03*
X015846Y011400D03*
X015846Y011398D03*
X015849Y011393D03*
X015849Y011390D03*
X015851Y011380D03*
X015851Y011378D03*
X015854Y011358D03*
X015854Y011355D03*
X015854Y011298D03*
X015854Y011295D03*
X015854Y011293D03*
X015854Y011290D03*
X015854Y011288D03*
X015851Y011275D03*
X015851Y011273D03*
X015849Y011265D03*
X015849Y011263D03*
X015849Y011260D03*
X015846Y011258D03*
X015846Y011255D03*
X015846Y011253D03*
X015844Y011248D03*
X015844Y011245D03*
X015679Y011295D03*
X015679Y011298D03*
X015676Y011293D03*
X015676Y011290D03*
X015674Y011285D03*
X015671Y011280D03*
X015661Y011258D03*
X015681Y011313D03*
X015681Y011343D03*
X015679Y011358D03*
X015679Y011360D03*
X015676Y011363D03*
X015676Y011365D03*
X015674Y011370D03*
X015671Y011375D03*
X015661Y011398D03*
X015786Y011525D03*
X016024Y011193D03*
X016041Y011103D03*
X015796Y010975D03*
X015734Y010913D03*
X015764Y010853D03*
X015766Y010848D03*
X015766Y010845D03*
X015769Y010840D03*
X015769Y010838D03*
X015771Y010835D03*
X015771Y010833D03*
X015771Y010830D03*
X015774Y010825D03*
X015774Y010823D03*
X015774Y010820D03*
X015776Y010810D03*
X015776Y010808D03*
X015776Y010805D03*
X015776Y010753D03*
X015776Y010750D03*
X015774Y010735D03*
X015774Y010733D03*
X015771Y010725D03*
X015771Y010723D03*
X015771Y010720D03*
X015769Y010718D03*
X015769Y010715D03*
X015766Y010713D03*
X015766Y010710D03*
X015764Y010703D03*
X015734Y010643D03*
X015671Y010705D03*
X015681Y010733D03*
X015684Y010738D03*
X015684Y010740D03*
X015686Y010743D03*
X015686Y010745D03*
X015691Y010765D03*
X015691Y010790D03*
X015691Y010793D03*
X015686Y010810D03*
X015686Y010813D03*
X015684Y010815D03*
X015684Y010818D03*
X015681Y010823D03*
X015671Y010850D03*
X015851Y010870D03*
X015851Y010873D03*
X015854Y010863D03*
X015854Y010860D03*
X015856Y010855D03*
X015859Y010848D03*
X015859Y010845D03*
X015859Y010843D03*
X015861Y010840D03*
X015861Y010838D03*
X015861Y010835D03*
X015861Y010833D03*
X015861Y010830D03*
X015864Y010823D03*
X015864Y010820D03*
X015864Y010818D03*
X015864Y010815D03*
X015864Y010813D03*
X015864Y010810D03*
X015866Y010808D03*
X015866Y010805D03*
X015866Y010803D03*
X015866Y010800D03*
X015866Y010798D03*
X015866Y010795D03*
X015866Y010793D03*
X015866Y010790D03*
X015866Y010788D03*
X015866Y010785D03*
X015866Y010783D03*
X015866Y010780D03*
X015866Y010778D03*
X015866Y010775D03*
X015866Y010773D03*
X015866Y010770D03*
X015866Y010768D03*
X015866Y010765D03*
X015866Y010763D03*
X015866Y010760D03*
X015866Y010758D03*
X015866Y010755D03*
X015866Y010753D03*
X015866Y010750D03*
X015866Y010748D03*
X015864Y010735D03*
X015864Y010733D03*
X015864Y010730D03*
X015861Y010725D03*
X015861Y010723D03*
X015861Y010720D03*
X015861Y010718D03*
X015859Y010710D03*
X015859Y010708D03*
X015854Y010693D03*
X016521Y011005D03*
X016676Y011110D03*
X016679Y011108D03*
X016751Y011050D03*
X017056Y010998D03*
D37*
X015981Y010998D03*
X015734Y010938D03*
X015674Y010680D03*
X009981Y009448D03*
X009734Y009388D03*
X009674Y009130D03*
X015784Y001188D03*
X016031Y001248D03*
X015724Y000930D03*
D38*
X015628Y001010D03*
X015628Y001013D03*
X015628Y001015D03*
X015628Y001040D03*
X015628Y001043D03*
X015628Y001045D03*
X015798Y001285D03*
X015995Y001233D03*
X016178Y001240D03*
X016148Y001368D03*
X016430Y001368D03*
X016460Y001240D03*
X016638Y001358D03*
X016785Y001315D03*
X015618Y001560D03*
X015618Y001563D03*
X015618Y001595D03*
X009578Y009210D03*
X009578Y009213D03*
X009578Y009215D03*
X009578Y009240D03*
X009578Y009243D03*
X009578Y009245D03*
X009748Y009485D03*
X009945Y009433D03*
X010128Y009440D03*
X010098Y009568D03*
X010380Y009568D03*
X010410Y009440D03*
X010588Y009558D03*
X010735Y009515D03*
X009568Y009760D03*
X009568Y009763D03*
X009568Y009795D03*
X015578Y010760D03*
X015578Y010763D03*
X015578Y010765D03*
X015578Y010790D03*
X015578Y010793D03*
X015578Y010795D03*
X015748Y011035D03*
X015945Y010983D03*
X016128Y010990D03*
X016098Y011118D03*
X016380Y011118D03*
X016410Y010990D03*
X016588Y011108D03*
X016735Y011065D03*
X015568Y011310D03*
X015568Y011313D03*
X015568Y011345D03*
D39*
X015569Y011343D03*
X015569Y011340D03*
X015569Y011315D03*
X015746Y011070D03*
X015746Y011068D03*
X015746Y011065D03*
X015746Y011063D03*
X015746Y011045D03*
X015746Y011043D03*
X015746Y011040D03*
X015746Y011038D03*
X016031Y010990D03*
X016031Y010988D03*
X016031Y010985D03*
X016031Y010983D03*
X016031Y010980D03*
X016031Y010978D03*
X016126Y010978D03*
X016126Y010980D03*
X016126Y010983D03*
X016126Y010985D03*
X016126Y010988D03*
X016314Y010988D03*
X016314Y010990D03*
X016314Y010985D03*
X016314Y010983D03*
X016314Y010980D03*
X016314Y010978D03*
X016409Y010978D03*
X016409Y010980D03*
X016409Y010983D03*
X016409Y010985D03*
X016409Y010988D03*
X016529Y010915D03*
X016586Y011110D03*
X016694Y011095D03*
X015576Y010788D03*
X015576Y010770D03*
X015576Y010768D03*
X010694Y009545D03*
X010586Y009560D03*
X010409Y009438D03*
X010409Y009435D03*
X010409Y009433D03*
X010409Y009430D03*
X010409Y009428D03*
X010314Y009428D03*
X010314Y009430D03*
X010314Y009433D03*
X010314Y009435D03*
X010314Y009438D03*
X010314Y009440D03*
X010126Y009438D03*
X010126Y009435D03*
X010126Y009433D03*
X010126Y009430D03*
X010126Y009428D03*
X010031Y009428D03*
X010031Y009430D03*
X010031Y009433D03*
X010031Y009435D03*
X010031Y009438D03*
X010031Y009440D03*
X009746Y009488D03*
X009746Y009490D03*
X009746Y009493D03*
X009746Y009495D03*
X009746Y009513D03*
X009746Y009515D03*
X009746Y009518D03*
X009746Y009520D03*
X009569Y009765D03*
X009569Y009790D03*
X009569Y009793D03*
X009576Y009238D03*
X009576Y009220D03*
X009576Y009218D03*
X010529Y009365D03*
X015619Y001593D03*
X015619Y001590D03*
X015619Y001565D03*
X015796Y001320D03*
X015796Y001318D03*
X015796Y001315D03*
X015796Y001313D03*
X015796Y001295D03*
X015796Y001293D03*
X015796Y001290D03*
X015796Y001288D03*
X016081Y001240D03*
X016081Y001238D03*
X016081Y001235D03*
X016081Y001233D03*
X016081Y001230D03*
X016081Y001228D03*
X016176Y001228D03*
X016176Y001230D03*
X016176Y001233D03*
X016176Y001235D03*
X016176Y001238D03*
X016364Y001238D03*
X016364Y001240D03*
X016364Y001235D03*
X016364Y001233D03*
X016364Y001230D03*
X016364Y001228D03*
X016459Y001228D03*
X016459Y001230D03*
X016459Y001233D03*
X016459Y001235D03*
X016459Y001238D03*
X016579Y001165D03*
X016636Y001360D03*
X016744Y001345D03*
X015626Y001038D03*
X015626Y001020D03*
X015626Y001018D03*
D40*
X015628Y001023D03*
X015628Y001033D03*
X015628Y001035D03*
X015995Y001235D03*
X015995Y001238D03*
X016270Y001240D03*
X016583Y001288D03*
X016588Y001373D03*
X016635Y001363D03*
X016748Y001343D03*
X016783Y001318D03*
X016773Y001433D03*
X016940Y001373D03*
X016938Y001233D03*
X015618Y001568D03*
X015618Y001570D03*
X015618Y001573D03*
X015618Y001585D03*
X015618Y001588D03*
X009578Y009223D03*
X009578Y009233D03*
X009578Y009235D03*
X009945Y009435D03*
X009945Y009438D03*
X010220Y009440D03*
X010533Y009488D03*
X010538Y009573D03*
X010585Y009563D03*
X010698Y009543D03*
X010733Y009518D03*
X010723Y009633D03*
X010890Y009573D03*
X010888Y009433D03*
X009568Y009768D03*
X009568Y009770D03*
X009568Y009773D03*
X009568Y009785D03*
X009568Y009788D03*
X015578Y010773D03*
X015578Y010783D03*
X015578Y010785D03*
X015945Y010985D03*
X015945Y010988D03*
X016220Y010990D03*
X016533Y011038D03*
X016538Y011123D03*
X016585Y011113D03*
X016698Y011093D03*
X016733Y011068D03*
X016723Y011183D03*
X016890Y011123D03*
X016888Y010983D03*
X015568Y011318D03*
X015568Y011320D03*
X015568Y011323D03*
X015568Y011335D03*
X015568Y011338D03*
D41*
X015569Y011333D03*
X015569Y011330D03*
X015746Y011060D03*
X015746Y011058D03*
X015746Y011050D03*
X015746Y011048D03*
X015944Y010993D03*
X015944Y010990D03*
X016096Y011115D03*
X016221Y010988D03*
X016221Y010985D03*
X016221Y010983D03*
X016221Y010980D03*
X016221Y010978D03*
X016379Y011115D03*
X016534Y011000D03*
X016701Y011090D03*
X016729Y011070D03*
X015579Y010780D03*
X015576Y010775D03*
X010729Y009520D03*
X010701Y009540D03*
X010534Y009450D03*
X010379Y009565D03*
X010221Y009438D03*
X010221Y009435D03*
X010221Y009433D03*
X010221Y009430D03*
X010221Y009428D03*
X010096Y009565D03*
X009944Y009443D03*
X009944Y009440D03*
X009746Y009498D03*
X009746Y009500D03*
X009746Y009508D03*
X009746Y009510D03*
X009569Y009780D03*
X009569Y009783D03*
X009579Y009230D03*
X009576Y009225D03*
X015619Y001583D03*
X015619Y001580D03*
X015796Y001310D03*
X015796Y001308D03*
X015796Y001300D03*
X015796Y001298D03*
X015994Y001243D03*
X015994Y001240D03*
X016146Y001365D03*
X016271Y001238D03*
X016271Y001235D03*
X016271Y001233D03*
X016271Y001230D03*
X016271Y001228D03*
X016429Y001365D03*
X016584Y001250D03*
X016751Y001340D03*
X016779Y001320D03*
X015629Y001030D03*
X015626Y001025D03*
D42*
X015628Y001028D03*
X015798Y001303D03*
X015798Y001305D03*
X015993Y001245D03*
X015618Y001575D03*
X015618Y001578D03*
X016583Y001290D03*
X016615Y001230D03*
X016633Y001365D03*
X016755Y001338D03*
X016773Y001325D03*
X016775Y001323D03*
X009578Y009228D03*
X009943Y009445D03*
X009748Y009503D03*
X009748Y009505D03*
X009568Y009775D03*
X009568Y009778D03*
X010533Y009490D03*
X010565Y009430D03*
X010583Y009565D03*
X010705Y009538D03*
X010723Y009525D03*
X010725Y009523D03*
X015578Y010778D03*
X015748Y011053D03*
X015748Y011055D03*
X015943Y010995D03*
X015568Y011325D03*
X015568Y011328D03*
X016533Y011040D03*
X016565Y010980D03*
X016583Y011115D03*
X016705Y011088D03*
X016723Y011075D03*
X016725Y011073D03*
D43*
X015796Y010998D03*
X015786Y011108D03*
X015726Y011170D03*
X015589Y011213D03*
X015649Y010958D03*
X015526Y010835D03*
X015726Y011485D03*
X015786Y011548D03*
X009786Y009998D03*
X009726Y009935D03*
X009589Y009663D03*
X009726Y009620D03*
X009786Y009558D03*
X009796Y009448D03*
X009649Y009408D03*
X009526Y009285D03*
X015836Y001798D03*
X015776Y001735D03*
X015639Y001463D03*
X015776Y001420D03*
X015836Y001358D03*
X015846Y001248D03*
X015699Y001208D03*
X015576Y001085D03*
D44*
X015576Y001088D03*
X015724Y001123D03*
X015699Y001210D03*
X015846Y001245D03*
X015836Y001360D03*
X015776Y001423D03*
X015639Y001460D03*
X015776Y001733D03*
X015836Y001795D03*
X016271Y001448D03*
X016271Y001405D03*
X009674Y009323D03*
X009649Y009410D03*
X009796Y009445D03*
X009786Y009560D03*
X009726Y009623D03*
X009589Y009660D03*
X009726Y009933D03*
X009786Y009995D03*
X010221Y009648D03*
X010221Y009605D03*
X009526Y009288D03*
X015526Y010838D03*
X015674Y010873D03*
X015649Y010960D03*
X015796Y010995D03*
X015786Y011110D03*
X015726Y011173D03*
X015589Y011210D03*
X015726Y011483D03*
X015786Y011545D03*
X016221Y011198D03*
X016221Y011155D03*
D45*
X016229Y011128D03*
X015929Y011158D03*
X015929Y011160D03*
X015786Y011113D03*
X015746Y011093D03*
X015726Y011175D03*
X015589Y011208D03*
X015649Y010963D03*
X015674Y010870D03*
X015526Y010840D03*
X015796Y010993D03*
X015726Y011480D03*
X015786Y011543D03*
X016514Y011025D03*
X016511Y011020D03*
X016764Y011128D03*
X010764Y009578D03*
X010514Y009475D03*
X010511Y009470D03*
X010229Y009578D03*
X009929Y009608D03*
X009929Y009610D03*
X009786Y009563D03*
X009746Y009543D03*
X009726Y009625D03*
X009589Y009658D03*
X009649Y009413D03*
X009674Y009320D03*
X009526Y009290D03*
X009796Y009443D03*
X009726Y009930D03*
X009786Y009993D03*
X015836Y001793D03*
X015776Y001730D03*
X015776Y001425D03*
X015796Y001343D03*
X015836Y001363D03*
X015846Y001243D03*
X015699Y001213D03*
X015724Y001120D03*
X015576Y001090D03*
X015639Y001458D03*
X015979Y001410D03*
X015979Y001408D03*
X016279Y001378D03*
X016561Y001270D03*
X016564Y001275D03*
X016814Y001378D03*
D46*
X016814Y001380D03*
X016814Y001383D03*
X016814Y001385D03*
X016814Y001388D03*
X016814Y001390D03*
X016814Y001393D03*
X016704Y001288D03*
X016704Y001285D03*
X016704Y001283D03*
X016704Y001280D03*
X016704Y001278D03*
X016704Y001275D03*
X016559Y001265D03*
X016371Y001378D03*
X016271Y001408D03*
X016271Y001445D03*
X016089Y001453D03*
X015976Y001400D03*
X015976Y001398D03*
X015836Y001365D03*
X015776Y001428D03*
X015639Y001455D03*
X015619Y001540D03*
X015776Y001728D03*
X015836Y001790D03*
X015846Y001240D03*
X015699Y001215D03*
X015724Y001118D03*
X015576Y001093D03*
X017199Y001265D03*
X017199Y001268D03*
X017199Y001270D03*
X017199Y001273D03*
X017199Y001275D03*
X017199Y001388D03*
X017199Y001390D03*
X017199Y001393D03*
X017199Y001395D03*
X017199Y001398D03*
X017199Y001400D03*
X009674Y009318D03*
X009649Y009415D03*
X009796Y009440D03*
X009786Y009565D03*
X009726Y009628D03*
X009589Y009655D03*
X009569Y009740D03*
X009726Y009928D03*
X009786Y009990D03*
X010039Y009653D03*
X009926Y009600D03*
X009926Y009598D03*
X010221Y009608D03*
X010221Y009645D03*
X010321Y009578D03*
X010509Y009465D03*
X010654Y009475D03*
X010654Y009478D03*
X010654Y009480D03*
X010654Y009483D03*
X010654Y009485D03*
X010654Y009488D03*
X010764Y009580D03*
X010764Y009583D03*
X010764Y009585D03*
X010764Y009588D03*
X010764Y009590D03*
X010764Y009593D03*
X011149Y009593D03*
X011149Y009595D03*
X011149Y009598D03*
X011149Y009600D03*
X011149Y009590D03*
X011149Y009588D03*
X011149Y009475D03*
X011149Y009473D03*
X011149Y009470D03*
X011149Y009468D03*
X011149Y009465D03*
X009526Y009293D03*
X015526Y010843D03*
X015674Y010868D03*
X015649Y010965D03*
X015796Y010990D03*
X015786Y011115D03*
X015726Y011178D03*
X015589Y011205D03*
X015569Y011290D03*
X015726Y011478D03*
X015786Y011540D03*
X015926Y011150D03*
X015926Y011148D03*
X016039Y011203D03*
X016221Y011195D03*
X016221Y011158D03*
X016321Y011128D03*
X016509Y011015D03*
X016654Y011025D03*
X016654Y011028D03*
X016654Y011030D03*
X016654Y011033D03*
X016654Y011035D03*
X016654Y011038D03*
X016764Y011130D03*
X016764Y011133D03*
X016764Y011135D03*
X016764Y011138D03*
X016764Y011140D03*
X016764Y011143D03*
X017149Y011143D03*
X017149Y011145D03*
X017149Y011148D03*
X017149Y011150D03*
X017149Y011140D03*
X017149Y011138D03*
X017149Y011025D03*
X017149Y011023D03*
X017149Y011020D03*
X017149Y011018D03*
X017149Y011015D03*
D47*
X017146Y011000D03*
X017146Y011163D03*
X016761Y011160D03*
X016656Y011003D03*
X016656Y011000D03*
X016509Y011010D03*
X016536Y011130D03*
X016221Y011160D03*
X016221Y011193D03*
X015924Y011140D03*
X015924Y011138D03*
X015786Y011118D03*
X015746Y011090D03*
X015726Y011180D03*
X015651Y011140D03*
X015589Y011203D03*
X015664Y011243D03*
X015664Y011413D03*
X015726Y011475D03*
X015786Y011538D03*
X015796Y010988D03*
X015526Y010845D03*
X011146Y009613D03*
X011146Y009450D03*
X010761Y009610D03*
X010656Y009453D03*
X010656Y009450D03*
X010509Y009460D03*
X010536Y009580D03*
X010221Y009610D03*
X010221Y009643D03*
X009924Y009590D03*
X009924Y009588D03*
X009786Y009568D03*
X009746Y009540D03*
X009726Y009630D03*
X009651Y009590D03*
X009589Y009653D03*
X009664Y009693D03*
X009664Y009863D03*
X009726Y009925D03*
X009786Y009988D03*
X009796Y009438D03*
X009526Y009295D03*
X015836Y001788D03*
X015776Y001725D03*
X015714Y001663D03*
X015714Y001493D03*
X015639Y001453D03*
X015701Y001390D03*
X015776Y001430D03*
X015836Y001368D03*
X015796Y001340D03*
X015846Y001238D03*
X015576Y001095D03*
X015974Y001388D03*
X015974Y001390D03*
X016271Y001410D03*
X016271Y001443D03*
X016586Y001380D03*
X016559Y001260D03*
X016706Y001253D03*
X016706Y001250D03*
X016811Y001410D03*
X017196Y001413D03*
X017196Y001250D03*
D48*
X015723Y001125D03*
X015638Y001145D03*
X015715Y001480D03*
X015578Y001525D03*
X015715Y001675D03*
X009673Y009325D03*
X009588Y009345D03*
X009665Y009680D03*
X009528Y009725D03*
X009665Y009875D03*
X015588Y010895D03*
X015673Y010875D03*
X015665Y011230D03*
X015528Y011275D03*
X015665Y011425D03*
D49*
X016538Y010998D03*
X016530Y010918D03*
X016890Y011120D03*
X017103Y011183D03*
X017103Y010980D03*
X011103Y009633D03*
X010890Y009570D03*
X011103Y009430D03*
X010538Y009448D03*
X010530Y009368D03*
X017153Y001433D03*
X016940Y001370D03*
X017153Y001230D03*
X016588Y001248D03*
X016580Y001168D03*
D50*
X016581Y001170D03*
X016591Y001245D03*
X016939Y001238D03*
X016939Y001368D03*
X010531Y009370D03*
X010541Y009445D03*
X010889Y009438D03*
X010889Y009568D03*
X016531Y010920D03*
X016541Y010995D03*
X016889Y010988D03*
X016889Y011118D03*
D51*
X016724Y011175D03*
X016549Y010988D03*
X016531Y010923D03*
X010724Y009625D03*
X010549Y009438D03*
X010531Y009373D03*
X016774Y001425D03*
X016599Y001238D03*
X016581Y001173D03*
D52*
X016583Y001175D03*
X016748Y001238D03*
X016770Y001420D03*
X010698Y009438D03*
X010533Y009375D03*
X010720Y009620D03*
X016533Y010925D03*
X016698Y010988D03*
X016720Y011170D03*
D53*
X016709Y011085D03*
X016711Y011083D03*
X016716Y011080D03*
X016719Y011078D03*
X016696Y010980D03*
X016889Y010985D03*
X010889Y009435D03*
X010696Y009430D03*
X010719Y009528D03*
X010716Y009530D03*
X010711Y009533D03*
X010709Y009535D03*
X016759Y001335D03*
X016761Y001333D03*
X016766Y001330D03*
X016769Y001328D03*
X016746Y001230D03*
X016939Y001235D03*
D54*
X016751Y001243D03*
X016596Y001233D03*
X017151Y001238D03*
X011101Y009438D03*
X010701Y009443D03*
X010546Y009433D03*
X016546Y010983D03*
X016701Y010993D03*
X017101Y010988D03*
D55*
X016695Y010983D03*
X015935Y011118D03*
X010695Y009433D03*
X009935Y009568D03*
X015985Y001368D03*
X016745Y001233D03*
D56*
X016595Y001240D03*
X017153Y001233D03*
X015983Y001355D03*
X015983Y001358D03*
X015983Y001360D03*
X015983Y001363D03*
X015983Y001365D03*
X011103Y009433D03*
X010545Y009440D03*
X009933Y009555D03*
X009933Y009558D03*
X009933Y009560D03*
X009933Y009563D03*
X009933Y009565D03*
X015933Y011105D03*
X015933Y011108D03*
X015933Y011110D03*
X015933Y011113D03*
X015933Y011115D03*
X016545Y010990D03*
X017103Y010983D03*
D57*
X016695Y010985D03*
X016550Y010985D03*
X016723Y011173D03*
X010723Y009623D03*
X010695Y009435D03*
X010550Y009435D03*
X016773Y001423D03*
X016745Y001235D03*
X016600Y001235D03*
D58*
X017154Y001235D03*
X017154Y001428D03*
X011104Y009435D03*
X011104Y009628D03*
X017104Y010985D03*
X017104Y011178D03*
D59*
X017103Y011175D03*
X016700Y010990D03*
X011103Y009625D03*
X010700Y009440D03*
X017153Y001425D03*
X016750Y001240D03*
D60*
X016594Y001243D03*
X016774Y001428D03*
X016939Y001365D03*
X016939Y001240D03*
X017154Y001430D03*
X010889Y009440D03*
X010889Y009565D03*
X010724Y009628D03*
X010544Y009443D03*
X011104Y009630D03*
X016544Y010993D03*
X016724Y011178D03*
X016889Y011115D03*
X016889Y010990D03*
X017104Y011180D03*
D61*
X017100Y011173D03*
X017100Y010990D03*
X016075Y011113D03*
X011100Y009623D03*
X011100Y009440D03*
X010075Y009563D03*
X017150Y001423D03*
X017150Y001240D03*
X016125Y001363D03*
D62*
X016128Y001355D03*
X017148Y001420D03*
X017148Y001243D03*
X011098Y009443D03*
X011098Y009620D03*
X010078Y009555D03*
X016078Y011105D03*
X017098Y011170D03*
X017098Y010993D03*
D63*
X016533Y011043D03*
X015938Y011120D03*
X010533Y009493D03*
X009938Y009570D03*
X015988Y001370D03*
X016583Y001293D03*
D64*
X016400Y001355D03*
X010350Y009555D03*
X016350Y011105D03*
D65*
X016076Y011108D03*
X016076Y011110D03*
X010076Y009560D03*
X010076Y009558D03*
X016126Y001360D03*
X016126Y001358D03*
D66*
X016399Y001358D03*
X016399Y001360D03*
X010349Y009558D03*
X010349Y009560D03*
X016349Y011108D03*
X016349Y011110D03*
D67*
X016348Y011113D03*
X010348Y009563D03*
X016398Y001363D03*
D68*
X016608Y001368D03*
X010558Y009568D03*
X016558Y011118D03*
D69*
X016559Y011120D03*
X010559Y009570D03*
X016609Y001370D03*
D70*
X016774Y001430D03*
X010724Y009630D03*
X016724Y011180D03*
D71*
X015725Y011488D03*
X009725Y009938D03*
X015775Y001738D03*
D72*
X012228Y003800D03*
M02*
