G75*
%MOIN*%
%OFA0B0*%
%FSLAX24Y24*%
%IPPOS*%
%LPD*%
%AMOC8*
5,1,8,0,0,1.08239X$1,22.5*
%
%ADD10R,0.0640X0.0640*%
%ADD11OC8,0.0640*%
%ADD12R,0.0740X0.0740*%
%ADD13OC8,0.0740*%
%ADD14C,0.0100*%
%ADD15C,0.0340*%
%ADD16C,0.0240*%
%ADD17C,0.0120*%
%ADD18C,0.0070*%
D10*
X003898Y001700D03*
D11*
X004898Y001700D03*
X005898Y001700D03*
X006898Y001700D03*
X007898Y001700D03*
X008898Y001700D03*
X009898Y001700D03*
X010898Y001700D03*
X011898Y001700D03*
X012898Y001700D03*
X013898Y001700D03*
X014898Y001700D03*
X014898Y010700D03*
X013898Y010700D03*
X012898Y010700D03*
X011898Y010700D03*
X010898Y010700D03*
X009898Y010700D03*
X008898Y010700D03*
X007898Y010700D03*
X006898Y010700D03*
X005898Y010700D03*
X004898Y010700D03*
X003898Y010700D03*
D12*
X017748Y009700D03*
D13*
X016748Y009700D03*
X016748Y008700D03*
X017748Y008700D03*
X017748Y007700D03*
X016748Y007700D03*
X016748Y006700D03*
X017748Y006700D03*
X017748Y005700D03*
X016748Y005700D03*
X016748Y004700D03*
X017748Y004700D03*
X017748Y003700D03*
X016748Y003700D03*
X016748Y002700D03*
X017748Y002700D03*
D14*
X017798Y002700D02*
X018318Y002700D01*
X018238Y002750D02*
X018238Y002903D01*
X017960Y003180D01*
X017963Y003180D01*
X018268Y003485D01*
X018268Y003915D01*
X017983Y004200D01*
X018318Y004200D01*
X018318Y004100D02*
X018083Y004100D01*
X018098Y004085D02*
X018098Y004315D01*
X018083Y004300D02*
X018318Y004300D01*
X018318Y004400D02*
X018183Y004400D01*
X018198Y004415D02*
X018198Y003985D01*
X018183Y004000D02*
X018318Y004000D01*
X018318Y003900D02*
X018268Y003900D01*
X018268Y003800D02*
X018318Y003800D01*
X018318Y003700D02*
X018268Y003700D01*
X018268Y003600D02*
X018318Y003600D01*
X018318Y003500D02*
X018268Y003500D01*
X018198Y003415D02*
X018198Y002943D01*
X018238Y002900D02*
X018318Y002900D01*
X018318Y002800D02*
X018238Y002800D01*
X018238Y002750D02*
X017798Y002750D01*
X017798Y002650D01*
X018238Y002650D01*
X018238Y002497D01*
X017950Y002210D01*
X017798Y002210D01*
X017798Y001494D01*
X017856Y001494D02*
X017639Y001494D01*
X017440Y001411D01*
X017287Y001258D01*
X017204Y001058D01*
X017204Y000842D01*
X017287Y000642D01*
X017440Y000489D01*
X017639Y000406D01*
X017856Y000406D01*
X018056Y000489D01*
X018208Y000642D01*
X018291Y000842D01*
X018291Y001058D01*
X018208Y001258D01*
X018056Y001411D01*
X017856Y001494D01*
X017898Y001476D02*
X017898Y002210D01*
X017798Y002210D02*
X017798Y002650D01*
X017698Y002650D01*
X017698Y001494D01*
X017598Y001476D02*
X017598Y002210D01*
X017545Y002210D02*
X017698Y002210D01*
X017698Y002650D01*
X017698Y002600D02*
X017798Y002600D01*
X017798Y002500D02*
X017698Y002500D01*
X017698Y002400D02*
X017798Y002400D01*
X017798Y002300D02*
X017698Y002300D01*
X017545Y002210D02*
X017448Y002307D01*
X017448Y002267D01*
X017248Y002067D01*
X017130Y001950D01*
X015270Y001950D01*
X015338Y001882D01*
X015338Y001750D01*
X014948Y001750D01*
X014948Y001650D01*
X015338Y001650D01*
X015338Y001518D01*
X015080Y001260D01*
X014948Y001260D01*
X014948Y001650D01*
X014848Y001650D01*
X014848Y001260D01*
X014715Y001260D01*
X014458Y001518D01*
X014458Y001650D01*
X014848Y001650D01*
X014848Y001750D01*
X014458Y001750D01*
X014458Y001882D01*
X014525Y001950D01*
X014312Y001950D01*
X014368Y001895D01*
X014368Y001505D01*
X014092Y001230D01*
X013703Y001230D01*
X013428Y001505D01*
X013428Y001895D01*
X013483Y001950D01*
X013312Y001950D01*
X013368Y001895D01*
X013368Y001505D01*
X013092Y001230D01*
X012703Y001230D01*
X012428Y001505D01*
X012428Y001895D01*
X012483Y001950D01*
X012312Y001950D01*
X012368Y001895D01*
X012368Y001505D01*
X012092Y001230D01*
X011703Y001230D01*
X011428Y001505D01*
X011428Y001895D01*
X011483Y001950D01*
X011312Y001950D01*
X011368Y001895D01*
X011368Y001505D01*
X011092Y001230D01*
X010703Y001230D01*
X010428Y001505D01*
X010428Y001830D01*
X010368Y001830D01*
X010368Y001505D01*
X010092Y001230D01*
X009703Y001230D01*
X009428Y001505D01*
X009428Y001895D01*
X009703Y002170D01*
X010078Y002170D01*
X010078Y002214D01*
X010126Y002331D01*
X010216Y002421D01*
X010334Y002470D01*
X010461Y002470D01*
X010579Y002421D01*
X010650Y002350D01*
X016405Y002350D01*
X016258Y002497D01*
X016258Y002650D01*
X016698Y002650D01*
X016698Y002750D01*
X016258Y002750D01*
X016258Y002903D01*
X016535Y003180D01*
X016532Y003180D01*
X016228Y003485D01*
X016228Y003700D01*
X014650Y003700D01*
X014579Y003629D01*
X014461Y003580D01*
X014334Y003580D01*
X014216Y003629D01*
X014126Y003719D01*
X014078Y003836D01*
X014078Y003840D01*
X014069Y003819D01*
X013998Y003747D01*
X013998Y002350D01*
X014098Y002350D02*
X014098Y003788D01*
X014093Y003800D02*
X014050Y003800D01*
X013998Y003747D02*
X013998Y003017D01*
X013880Y002900D01*
X016258Y002900D01*
X016298Y002943D02*
X016298Y003415D01*
X016312Y003400D02*
X013998Y003400D01*
X013998Y003300D02*
X016412Y003300D01*
X016398Y003315D02*
X016398Y003043D01*
X016355Y003000D02*
X013980Y003000D01*
X013998Y003100D02*
X016455Y003100D01*
X016498Y003143D02*
X016498Y003215D01*
X016512Y003200D02*
X013998Y003200D01*
X013798Y003100D02*
X013798Y004000D01*
X013748Y004000D01*
X013478Y004000D02*
X013250Y004000D01*
X013269Y004019D02*
X013198Y003947D01*
X013198Y002900D01*
X013298Y002900D02*
X013298Y004088D01*
X013302Y004100D02*
X013493Y004100D01*
X013498Y004112D02*
X013498Y004330D01*
X013598Y004330D02*
X013598Y004253D01*
X013616Y004271D02*
X013526Y004181D01*
X013478Y004064D01*
X013478Y003936D01*
X013526Y003819D01*
X013598Y003747D01*
X013598Y003183D01*
X013315Y002900D01*
X012880Y002900D01*
X013080Y003100D01*
X013515Y003100D01*
X013498Y003083D02*
X013498Y003888D01*
X013493Y003900D02*
X013198Y003900D01*
X013198Y003947D02*
X013198Y003217D01*
X013080Y003100D01*
X013098Y003117D02*
X013098Y002900D01*
X012998Y002900D02*
X012998Y003017D01*
X012980Y003000D02*
X013415Y003000D01*
X013398Y002983D02*
X013398Y004330D01*
X013302Y004300D02*
X013686Y004300D01*
X013698Y004305D02*
X013698Y004330D01*
X013734Y004320D02*
X013616Y004271D01*
X013545Y004200D02*
X013318Y004200D01*
X013318Y004136D02*
X013318Y004264D01*
X013290Y004330D01*
X015615Y004330D01*
X015616Y004329D01*
X015734Y004280D01*
X015861Y004280D01*
X015979Y004329D01*
X016069Y004419D01*
X016073Y004430D01*
X016282Y004430D01*
X016512Y004200D01*
X014509Y004200D01*
X014498Y004205D02*
X014498Y004330D01*
X014598Y004330D02*
X014598Y004153D01*
X014579Y004171D02*
X014461Y004220D01*
X014334Y004220D01*
X014216Y004171D01*
X014126Y004081D01*
X014118Y004060D01*
X014118Y004064D01*
X014069Y004181D01*
X013979Y004271D01*
X013861Y004320D01*
X013734Y004320D01*
X013798Y004320D02*
X013798Y004330D01*
X013898Y004330D02*
X013898Y004305D01*
X013909Y004300D02*
X015686Y004300D01*
X015698Y004295D02*
X015698Y004100D01*
X015798Y004100D02*
X015798Y004280D01*
X015898Y004295D02*
X015898Y004100D01*
X015998Y004100D02*
X015998Y004347D01*
X016050Y004400D02*
X016312Y004400D01*
X016298Y004415D02*
X016298Y004100D01*
X016398Y004100D02*
X016398Y004315D01*
X016412Y004300D02*
X015909Y004300D01*
X016098Y004430D02*
X016098Y004100D01*
X016198Y004100D02*
X016198Y004430D01*
X016498Y004215D02*
X016498Y004185D01*
X016512Y004200D02*
X016412Y004100D01*
X014650Y004100D01*
X016412Y004100D01*
X016548Y003900D02*
X016748Y003700D01*
X016548Y003900D02*
X014398Y003900D01*
X014650Y004100D02*
X014579Y004171D01*
X014698Y004100D02*
X014698Y004330D01*
X014798Y004330D02*
X014798Y004100D01*
X014898Y004100D02*
X014898Y004330D01*
X014998Y004330D02*
X014998Y004100D01*
X015098Y004100D02*
X015098Y004330D01*
X015198Y004330D02*
X015198Y004100D01*
X015298Y004100D02*
X015298Y004330D01*
X015398Y004330D02*
X015398Y004100D01*
X015498Y004100D02*
X015498Y004330D01*
X015598Y004330D02*
X015598Y004100D01*
X015598Y003700D02*
X015598Y002350D01*
X015698Y002350D02*
X015698Y003700D01*
X015798Y003700D02*
X015798Y002350D01*
X015898Y002350D02*
X015898Y003700D01*
X015998Y003700D02*
X015998Y002350D01*
X016098Y002350D02*
X016098Y003700D01*
X016198Y003700D02*
X016198Y002350D01*
X016298Y002350D02*
X016298Y002457D01*
X016258Y002500D02*
X013480Y002500D01*
X013880Y002900D01*
X013898Y002917D02*
X013898Y002350D01*
X013798Y002350D02*
X013798Y002817D01*
X013780Y002800D02*
X016258Y002800D01*
X016298Y002750D02*
X016298Y002650D01*
X016258Y002600D02*
X013580Y002600D01*
X013598Y002617D02*
X013598Y002350D01*
X013698Y002350D02*
X013698Y002717D01*
X013680Y002700D02*
X016698Y002700D01*
X016598Y002650D02*
X016598Y002750D01*
X016498Y002750D02*
X016498Y002650D01*
X016398Y002650D02*
X016398Y002750D01*
X016355Y002400D02*
X010600Y002400D01*
X010598Y002403D02*
X010598Y002500D01*
X010698Y002500D02*
X010698Y002350D01*
X010798Y002350D02*
X010798Y002500D01*
X010898Y002500D02*
X010898Y002350D01*
X010998Y002350D02*
X010998Y002500D01*
X011098Y002500D02*
X011098Y002350D01*
X011198Y002350D02*
X011198Y002500D01*
X011298Y002500D02*
X011298Y002350D01*
X011398Y002350D02*
X011398Y002500D01*
X011498Y002500D02*
X011498Y002350D01*
X011598Y002350D02*
X011598Y002500D01*
X011698Y002500D02*
X011698Y002350D01*
X011798Y002350D02*
X011798Y002500D01*
X011898Y002500D02*
X011898Y002350D01*
X011998Y002350D02*
X011998Y002500D01*
X012098Y002500D02*
X012098Y002350D01*
X012198Y002350D02*
X012198Y002500D01*
X012298Y002500D02*
X012298Y002350D01*
X012398Y002350D02*
X012398Y002500D01*
X012498Y002500D02*
X012498Y002350D01*
X012598Y002350D02*
X012598Y002500D01*
X012698Y002500D02*
X012698Y002350D01*
X012798Y002350D02*
X012798Y002500D01*
X012898Y002500D02*
X012898Y002350D01*
X012998Y002350D02*
X012998Y002500D01*
X013098Y002500D02*
X013098Y002350D01*
X013198Y002350D02*
X013198Y002500D01*
X013298Y002500D02*
X013298Y002350D01*
X013398Y002350D02*
X013398Y002500D01*
X013480Y002500D02*
X003348Y002500D01*
X003348Y000380D01*
X017798Y000380D01*
X017899Y000390D01*
X018086Y000468D01*
X018230Y000611D01*
X018308Y000799D01*
X018318Y000900D01*
X018291Y000900D01*
X018318Y000900D02*
X018318Y011961D01*
X018290Y011993D01*
X018259Y012020D01*
X003348Y012020D01*
X003348Y008910D01*
X004485Y008910D01*
X004608Y008787D01*
X004885Y008510D01*
X006885Y008510D01*
X006893Y008501D01*
X006926Y008581D01*
X007016Y008671D01*
X007134Y008720D01*
X007261Y008720D01*
X007379Y008671D01*
X007448Y008603D01*
X007516Y008671D01*
X007525Y008675D01*
X007516Y008679D01*
X007426Y008769D01*
X007378Y008886D01*
X007378Y009014D01*
X007398Y009062D01*
X007398Y009917D01*
X007230Y009750D01*
X006950Y009750D01*
X006879Y009679D01*
X006761Y009630D01*
X006634Y009630D01*
X006516Y009679D01*
X006426Y009769D01*
X006378Y009886D01*
X006378Y010014D01*
X006426Y010131D01*
X006516Y010221D01*
X006634Y010270D01*
X006663Y010270D01*
X006428Y010505D01*
X006428Y010895D01*
X006703Y011170D01*
X007092Y011170D01*
X007368Y010895D01*
X007368Y010505D01*
X007092Y010230D01*
X006858Y010230D01*
X006879Y010221D01*
X006950Y010150D01*
X007065Y010150D01*
X007428Y010513D01*
X007428Y010895D01*
X007703Y011170D01*
X008092Y011170D01*
X008368Y010895D01*
X008368Y010505D01*
X008262Y010400D01*
X008533Y010400D01*
X008428Y010505D01*
X008428Y010895D01*
X008703Y011170D01*
X009092Y011170D01*
X009368Y010895D01*
X009368Y010505D01*
X009262Y010400D01*
X009533Y010400D01*
X009428Y010505D01*
X009428Y010895D01*
X009703Y011170D01*
X010092Y011170D01*
X010368Y010895D01*
X010368Y010505D01*
X010262Y010400D01*
X010533Y010400D01*
X010428Y010505D01*
X010428Y010895D01*
X010703Y011170D01*
X011092Y011170D01*
X011368Y010895D01*
X011368Y010520D01*
X011428Y010520D01*
X011428Y010895D01*
X011703Y011170D01*
X012092Y011170D01*
X012368Y010895D01*
X012368Y010520D01*
X012428Y010520D01*
X012428Y010895D01*
X012703Y011170D01*
X013092Y011170D01*
X013368Y010895D01*
X013368Y010505D01*
X013092Y010230D01*
X012718Y010230D01*
X012718Y010136D01*
X012704Y010102D01*
X012779Y010071D01*
X012869Y009981D01*
X012918Y009864D01*
X012918Y009736D01*
X012902Y009700D01*
X015686Y009700D01*
X012902Y009700D01*
X012998Y009700D02*
X012998Y010230D01*
X013098Y010235D02*
X013098Y009700D01*
X013198Y009700D02*
X013198Y010335D01*
X013162Y010300D02*
X013628Y010300D01*
X013628Y010305D02*
X013628Y010046D01*
X013669Y009947D01*
X013745Y009871D01*
X013845Y009771D01*
X013944Y009730D01*
X015615Y009730D01*
X015616Y009729D01*
X015686Y009700D01*
X015598Y009700D02*
X015598Y009730D01*
X015498Y009730D02*
X015498Y009700D01*
X015398Y009700D02*
X015398Y009730D01*
X015298Y009730D02*
X015298Y009700D01*
X015198Y009700D02*
X015198Y009730D01*
X015098Y009730D02*
X015098Y009700D01*
X014998Y009700D02*
X014998Y009730D01*
X014898Y009730D02*
X014898Y009700D01*
X014798Y009700D02*
X014798Y009730D01*
X014698Y009730D02*
X014698Y009700D01*
X014598Y009700D02*
X014598Y009730D01*
X014498Y009730D02*
X014498Y009700D01*
X014398Y009700D02*
X014398Y009730D01*
X014298Y009730D02*
X014298Y009700D01*
X014198Y009700D02*
X014198Y009730D01*
X014098Y009730D02*
X014098Y009700D01*
X013998Y009700D02*
X013998Y009730D01*
X013898Y009749D02*
X013898Y009700D01*
X013798Y009700D02*
X013798Y009818D01*
X013816Y009800D02*
X012918Y009800D01*
X012902Y009900D02*
X013716Y009900D01*
X013698Y009918D02*
X013698Y009700D01*
X013598Y009700D02*
X013598Y010335D01*
X013628Y010305D02*
X013428Y010505D01*
X013428Y010895D01*
X013703Y011170D01*
X014092Y011170D01*
X014368Y010895D01*
X014368Y010505D01*
X014168Y010305D01*
X014168Y010270D01*
X014705Y010270D01*
X014458Y010518D01*
X014458Y010650D01*
X014848Y010650D01*
X014848Y010750D01*
X014848Y011140D01*
X014715Y011140D01*
X014458Y010882D01*
X014458Y010750D01*
X014848Y010750D01*
X014948Y010750D01*
X015338Y010750D01*
X015338Y010882D01*
X015080Y011140D01*
X014948Y011140D01*
X014948Y010750D01*
X014948Y010650D01*
X015338Y010650D01*
X015338Y010518D01*
X015090Y010270D01*
X015615Y010270D01*
X015616Y010271D01*
X015734Y010320D01*
X015861Y010320D01*
X015979Y010271D01*
X016069Y010181D01*
X016118Y010064D01*
X016118Y009936D01*
X016069Y009819D01*
X015979Y009729D01*
X015909Y009700D01*
X016030Y009700D01*
X016228Y009503D01*
X016228Y009915D01*
X016532Y010220D01*
X016963Y010220D01*
X017228Y009955D01*
X017228Y010132D01*
X017315Y010220D01*
X018180Y010220D01*
X018268Y010132D01*
X018268Y009268D01*
X018180Y009180D01*
X018003Y009180D01*
X018268Y008915D01*
X018268Y008485D01*
X017983Y008200D01*
X018318Y008200D01*
X018318Y008100D02*
X018083Y008100D01*
X018098Y008085D02*
X018098Y008315D01*
X018083Y008300D02*
X018318Y008300D01*
X018318Y008400D02*
X018183Y008400D01*
X018198Y008415D02*
X018198Y007985D01*
X018183Y008000D02*
X018318Y008000D01*
X018268Y007915D02*
X017983Y008200D01*
X017998Y008185D02*
X017998Y008215D01*
X018268Y007915D02*
X018268Y007485D01*
X017983Y007200D01*
X018318Y007200D01*
X018318Y007100D02*
X018083Y007100D01*
X018098Y007085D02*
X018098Y007315D01*
X018083Y007300D02*
X018318Y007300D01*
X018318Y007400D02*
X018183Y007400D01*
X018198Y007415D02*
X018198Y006985D01*
X018183Y007000D02*
X018318Y007000D01*
X018268Y006915D02*
X017983Y007200D01*
X017998Y007185D02*
X017998Y007215D01*
X018268Y006915D02*
X018268Y006485D01*
X017983Y006200D01*
X018318Y006200D01*
X018318Y006100D02*
X018083Y006100D01*
X018098Y006085D02*
X018098Y006315D01*
X018083Y006300D02*
X018318Y006300D01*
X018318Y006400D02*
X018183Y006400D01*
X018198Y006415D02*
X018198Y005985D01*
X018183Y006000D02*
X018318Y006000D01*
X018268Y005915D02*
X017983Y006200D01*
X017998Y006185D02*
X017998Y006215D01*
X018268Y005915D02*
X018268Y005485D01*
X017983Y005200D01*
X018318Y005200D01*
X018318Y005100D02*
X018083Y005100D01*
X018098Y005085D02*
X018098Y005315D01*
X018083Y005300D02*
X018318Y005300D01*
X018318Y005400D02*
X018183Y005400D01*
X018198Y005415D02*
X018198Y004985D01*
X018183Y005000D02*
X018318Y005000D01*
X018268Y004915D02*
X017983Y005200D01*
X017998Y005185D02*
X017998Y005215D01*
X018268Y004915D02*
X018268Y004485D01*
X017983Y004200D01*
X017998Y004185D02*
X017998Y004215D01*
X018268Y004500D02*
X018318Y004500D01*
X018318Y004600D02*
X018268Y004600D01*
X018268Y004700D02*
X018318Y004700D01*
X018318Y004800D02*
X018268Y004800D01*
X018268Y004900D02*
X018318Y004900D01*
X018318Y005500D02*
X018268Y005500D01*
X018268Y005600D02*
X018318Y005600D01*
X018318Y005700D02*
X018268Y005700D01*
X018268Y005800D02*
X018318Y005800D01*
X018318Y005900D02*
X018268Y005900D01*
X017512Y006200D02*
X017448Y006200D01*
X017498Y006185D02*
X017498Y006215D01*
X017512Y006200D02*
X017448Y006265D01*
X017448Y006135D01*
X017512Y006200D01*
X017048Y006200D02*
X016983Y006200D01*
X017048Y006135D01*
X017048Y006265D01*
X016983Y006200D01*
X016998Y006185D02*
X016998Y006215D01*
X016512Y006200D02*
X013609Y006200D01*
X013598Y006205D02*
X013598Y006400D01*
X013698Y006400D02*
X013698Y006153D01*
X013679Y006171D02*
X013561Y006220D01*
X013434Y006220D01*
X013316Y006171D01*
X013226Y006081D01*
X013178Y005964D01*
X013178Y005836D01*
X013226Y005719D01*
X013316Y005629D01*
X013434Y005580D01*
X013561Y005580D01*
X013679Y005629D01*
X013750Y005700D01*
X016228Y005700D01*
X016228Y005485D01*
X016314Y005398D01*
X016261Y005420D01*
X016259Y005420D01*
X016250Y005429D01*
X016151Y005470D01*
X015744Y005470D01*
X015645Y005429D01*
X015569Y005353D01*
X015486Y005270D01*
X015080Y005270D01*
X015079Y005271D01*
X014961Y005320D01*
X014834Y005320D01*
X014716Y005271D01*
X014715Y005270D01*
X009980Y005270D01*
X009979Y005271D01*
X009861Y005320D01*
X009734Y005320D01*
X009616Y005271D01*
X009615Y005270D01*
X006444Y005270D01*
X006345Y005229D01*
X006269Y005153D01*
X006228Y005054D01*
X006228Y004683D01*
X006226Y004681D01*
X006178Y004564D01*
X006178Y004470D01*
X004680Y004470D01*
X004679Y004471D01*
X004561Y004520D01*
X004434Y004520D01*
X004368Y004493D01*
X004368Y005388D01*
X004409Y005430D01*
X004451Y005430D01*
X004550Y005471D01*
X004626Y005547D01*
X004668Y005646D01*
X004668Y007154D01*
X004632Y007239D01*
X004729Y007279D01*
X004819Y007369D01*
X004868Y007486D01*
X004868Y007614D01*
X004819Y007731D01*
X004729Y007821D01*
X004611Y007870D01*
X004484Y007870D01*
X004366Y007821D01*
X004295Y007750D01*
X003965Y007750D01*
X003848Y007633D01*
X003548Y007333D01*
X003548Y006967D01*
X003595Y006920D01*
X003534Y006920D01*
X003468Y006893D01*
X003468Y008017D01*
X003469Y008019D01*
X003518Y008136D01*
X003518Y008264D01*
X003469Y008381D01*
X003379Y008471D01*
X003348Y008484D01*
X003348Y008490D01*
X004311Y008490D01*
X004711Y008090D01*
X006435Y008090D01*
X006426Y008081D01*
X006378Y007964D01*
X006378Y007836D01*
X006426Y007719D01*
X006498Y007647D01*
X006498Y007217D01*
X006498Y005270D01*
X006598Y005270D02*
X006598Y007117D01*
X006615Y007100D02*
X004668Y007100D01*
X004668Y007000D02*
X006715Y007000D01*
X006698Y007017D02*
X006698Y005270D01*
X006798Y005270D02*
X006798Y006917D01*
X006815Y006900D02*
X004668Y006900D01*
X004668Y006800D02*
X009298Y006800D01*
X009298Y006700D02*
X004668Y006700D01*
X004668Y006600D02*
X009298Y006600D01*
X009298Y006500D02*
X004668Y006500D01*
X004668Y006400D02*
X009298Y006400D01*
X009298Y006300D02*
X004668Y006300D01*
X004668Y006200D02*
X009315Y006200D01*
X009298Y006217D02*
X009298Y005270D01*
X009398Y005270D02*
X009398Y006117D01*
X009415Y006100D02*
X004668Y006100D01*
X004668Y006000D02*
X009515Y006000D01*
X009498Y006017D02*
X009498Y005270D01*
X009598Y005270D02*
X009598Y005917D01*
X009615Y005900D02*
X004668Y005900D01*
X004668Y005800D02*
X012545Y005800D01*
X012526Y005819D02*
X012616Y005729D01*
X012734Y005680D01*
X012861Y005680D01*
X012979Y005729D01*
X013069Y005819D01*
X013118Y005936D01*
X013118Y006064D01*
X013069Y006181D01*
X012979Y006271D01*
X012861Y006320D01*
X012858Y006320D01*
X012879Y006329D01*
X012950Y006400D01*
X016312Y006400D01*
X016512Y006200D01*
X016412Y006100D01*
X013750Y006100D01*
X016412Y006100D01*
X016398Y006100D02*
X016398Y006315D01*
X016412Y006300D02*
X012909Y006300D01*
X012898Y006305D02*
X012898Y006347D01*
X012998Y006400D02*
X012998Y006253D01*
X013050Y006200D02*
X013386Y006200D01*
X013398Y006205D02*
X013398Y006400D01*
X013498Y006400D02*
X013498Y006220D01*
X013679Y006171D02*
X013750Y006100D01*
X013798Y006100D02*
X013798Y006400D01*
X013898Y006400D02*
X013898Y006100D01*
X013998Y006100D02*
X013998Y006400D01*
X014098Y006400D02*
X014098Y006100D01*
X014198Y006100D02*
X014198Y006400D01*
X014298Y006400D02*
X014298Y006100D01*
X014398Y006100D02*
X014398Y006400D01*
X014498Y006400D02*
X014498Y006100D01*
X014598Y006100D02*
X014598Y006400D01*
X014698Y006400D02*
X014698Y006100D01*
X014798Y006100D02*
X014798Y006400D01*
X014898Y006400D02*
X014898Y006100D01*
X014998Y006100D02*
X014998Y006400D01*
X015098Y006400D02*
X015098Y006100D01*
X015198Y006100D02*
X015198Y006400D01*
X015298Y006400D02*
X015298Y006100D01*
X015398Y006100D02*
X015398Y006400D01*
X015498Y006400D02*
X015498Y006100D01*
X015598Y006100D02*
X015598Y006400D01*
X015698Y006400D02*
X015698Y006100D01*
X015798Y006100D02*
X015798Y006400D01*
X015898Y006400D02*
X015898Y006100D01*
X015998Y006100D02*
X015998Y006400D01*
X016098Y006400D02*
X016098Y006100D01*
X016198Y006100D02*
X016198Y006400D01*
X016298Y006400D02*
X016298Y006100D01*
X016498Y006185D02*
X016498Y006215D01*
X016548Y005900D02*
X016748Y005700D01*
X016548Y005900D02*
X013498Y005900D01*
X013178Y005900D02*
X013102Y005900D01*
X013098Y005888D02*
X013098Y005270D01*
X013198Y005270D02*
X013198Y005788D01*
X013193Y005800D02*
X013050Y005800D01*
X012998Y005747D02*
X012998Y005270D01*
X012898Y005270D02*
X012898Y005695D01*
X012909Y005700D02*
X013245Y005700D01*
X013298Y005647D02*
X013298Y005270D01*
X013398Y005270D02*
X013398Y005595D01*
X013386Y005600D02*
X004648Y005600D01*
X004598Y005518D02*
X004598Y004505D01*
X004609Y004500D02*
X006178Y004500D01*
X006098Y004470D02*
X006098Y008090D01*
X006198Y008090D02*
X006198Y004612D01*
X006193Y004600D02*
X004368Y004600D01*
X004398Y004505D02*
X004398Y005418D01*
X004379Y005400D02*
X015616Y005400D01*
X015598Y005382D02*
X015598Y005700D01*
X015698Y005700D02*
X015698Y005451D01*
X015798Y005470D02*
X015798Y005700D01*
X015898Y005700D02*
X015898Y005470D01*
X015998Y005470D02*
X015998Y005700D01*
X016098Y005700D02*
X016098Y005470D01*
X016198Y005451D02*
X016198Y005700D01*
X016228Y005600D02*
X013609Y005600D01*
X013598Y005595D02*
X013598Y005270D01*
X013698Y005270D02*
X013698Y005647D01*
X013798Y005700D02*
X013798Y005270D01*
X013898Y005270D02*
X013898Y005700D01*
X013998Y005700D02*
X013998Y005270D01*
X014098Y005270D02*
X014098Y005700D01*
X014198Y005700D02*
X014198Y005270D01*
X014298Y005270D02*
X014298Y005700D01*
X014398Y005700D02*
X014398Y005270D01*
X014498Y005270D02*
X014498Y005700D01*
X014598Y005700D02*
X014598Y005270D01*
X014698Y005270D02*
X014698Y005700D01*
X014798Y005700D02*
X014798Y005305D01*
X014786Y005300D02*
X009909Y005300D01*
X009898Y005305D02*
X009898Y005900D01*
X009998Y005900D02*
X009998Y005270D01*
X010098Y005270D02*
X010098Y005900D01*
X010198Y005900D02*
X010198Y005270D01*
X010298Y005270D02*
X010298Y005900D01*
X010398Y005900D02*
X010398Y005270D01*
X010498Y005270D02*
X010498Y005900D01*
X010598Y005900D02*
X010598Y005270D01*
X010698Y005270D02*
X010698Y005900D01*
X010798Y005900D02*
X010798Y005270D01*
X010898Y005270D02*
X010898Y005900D01*
X010998Y005900D02*
X010998Y005270D01*
X011098Y005270D02*
X011098Y005900D01*
X011198Y005900D02*
X011198Y005270D01*
X011298Y005270D02*
X011298Y005900D01*
X011398Y005900D02*
X011398Y005270D01*
X011498Y005270D02*
X011498Y005900D01*
X011598Y005900D02*
X011598Y005270D01*
X011698Y005270D02*
X011698Y005900D01*
X011798Y005900D02*
X011798Y005270D01*
X011898Y005270D02*
X011898Y005900D01*
X011998Y005900D02*
X011998Y005270D01*
X012098Y005270D02*
X012098Y005900D01*
X012198Y005900D02*
X012198Y005270D01*
X012298Y005270D02*
X012298Y005900D01*
X012398Y005900D02*
X012398Y005270D01*
X012498Y005270D02*
X012498Y005888D01*
X012493Y005900D02*
X012526Y005819D01*
X012493Y005900D02*
X009615Y005900D01*
X009498Y006017D01*
X009298Y006217D01*
X009298Y006900D01*
X006815Y006900D01*
X006698Y007017D01*
X006498Y007217D01*
X006515Y007200D02*
X004648Y007200D01*
X004698Y007266D02*
X004698Y004470D01*
X004798Y004470D02*
X004798Y007347D01*
X004832Y007400D02*
X006498Y007400D01*
X006498Y007300D02*
X004750Y007300D01*
X004868Y007500D02*
X006498Y007500D01*
X006498Y007600D02*
X004868Y007600D01*
X004832Y007700D02*
X006445Y007700D01*
X006398Y007788D02*
X006398Y005251D01*
X006316Y005200D02*
X004368Y005200D01*
X004368Y005100D02*
X006247Y005100D01*
X006298Y005182D02*
X006298Y008090D01*
X006398Y008090D02*
X006398Y008012D01*
X006393Y008000D02*
X003468Y008000D01*
X003498Y008088D02*
X003498Y006905D01*
X003486Y006900D02*
X003468Y006900D01*
X003468Y007000D02*
X003548Y007000D01*
X003548Y007100D02*
X003468Y007100D01*
X003468Y007200D02*
X003548Y007200D01*
X003548Y007300D02*
X003468Y007300D01*
X003468Y007400D02*
X003615Y007400D01*
X003598Y007383D02*
X003598Y008490D01*
X003698Y008490D02*
X003698Y007483D01*
X003715Y007500D02*
X003468Y007500D01*
X003468Y007600D02*
X003815Y007600D01*
X003798Y007583D02*
X003798Y008490D01*
X003898Y008490D02*
X003898Y007683D01*
X003915Y007700D02*
X003468Y007700D01*
X003468Y007800D02*
X004345Y007800D01*
X004398Y007834D02*
X004398Y008403D01*
X004401Y008400D02*
X003450Y008400D01*
X003398Y008453D02*
X003398Y008490D01*
X003498Y008490D02*
X003498Y008312D01*
X003502Y008300D02*
X004501Y008300D01*
X004498Y008303D02*
X004498Y007870D01*
X004598Y007870D02*
X004598Y008203D01*
X004601Y008200D02*
X003518Y008200D01*
X003502Y008100D02*
X004701Y008100D01*
X004698Y008103D02*
X004698Y007834D01*
X004750Y007800D02*
X006393Y007800D01*
X006378Y007900D02*
X003468Y007900D01*
X003998Y007750D02*
X003998Y008490D01*
X004098Y008490D02*
X004098Y007750D01*
X004198Y007750D02*
X004198Y008490D01*
X004298Y008490D02*
X004298Y007753D01*
X004048Y007550D02*
X004548Y007550D01*
X004798Y007753D02*
X004798Y008090D01*
X004898Y008090D02*
X004898Y004470D01*
X004998Y004470D02*
X004998Y008090D01*
X005098Y008090D02*
X005098Y004470D01*
X005198Y004470D02*
X005198Y008090D01*
X005298Y008090D02*
X005298Y004470D01*
X005398Y004470D02*
X005398Y008090D01*
X005498Y008090D02*
X005498Y004470D01*
X005598Y004470D02*
X005598Y008090D01*
X005698Y008090D02*
X005698Y004470D01*
X005798Y004470D02*
X005798Y008090D01*
X005898Y008090D02*
X005898Y004470D01*
X005998Y004470D02*
X005998Y008090D01*
X006698Y007900D02*
X006698Y007300D01*
X006898Y007100D01*
X009398Y007100D01*
X009498Y007000D01*
X009498Y006300D01*
X009698Y006100D01*
X012698Y006100D01*
X012798Y006000D01*
X013118Y006000D02*
X013193Y006000D01*
X013198Y006012D02*
X013198Y006400D01*
X013298Y006400D02*
X013298Y006153D01*
X013245Y006100D02*
X013102Y006100D01*
X013098Y006112D02*
X013098Y006400D01*
X012698Y006600D02*
X016648Y006600D01*
X016748Y006700D01*
X016228Y006800D02*
X016130Y006800D01*
X016228Y006897D01*
X016228Y006800D01*
X016130Y006800D01*
X016198Y006800D02*
X016198Y006867D01*
X015948Y006900D02*
X016748Y007700D01*
X016228Y007700D02*
X015150Y007700D01*
X015169Y007719D02*
X015218Y007836D01*
X015218Y007964D01*
X015202Y008000D01*
X015945Y008000D01*
X016016Y007929D01*
X016134Y007880D01*
X016228Y007880D01*
X016228Y007485D01*
X016238Y007474D01*
X015865Y007100D01*
X014402Y007100D01*
X014418Y007136D01*
X014418Y007264D01*
X014369Y007381D01*
X014298Y007453D01*
X014298Y007630D01*
X014280Y007600D02*
X014786Y007600D01*
X014798Y007595D02*
X014798Y007100D01*
X014898Y007100D02*
X014898Y007580D01*
X014961Y007580D02*
X014834Y007580D01*
X014716Y007629D01*
X014715Y007630D01*
X014250Y007630D01*
X014298Y007583D01*
X014298Y007453D01*
X014298Y007500D02*
X016228Y007500D01*
X016198Y007433D02*
X016198Y007880D01*
X016228Y007800D02*
X015202Y007800D01*
X015198Y007788D02*
X015198Y007100D01*
X015298Y007100D02*
X015298Y008000D01*
X015398Y008000D02*
X015398Y007100D01*
X015498Y007100D02*
X015498Y008000D01*
X015598Y008000D02*
X015598Y007100D01*
X015698Y007100D02*
X015698Y008000D01*
X015798Y008000D02*
X015798Y007100D01*
X015865Y007100D02*
X014402Y007100D01*
X014498Y007100D02*
X014498Y007630D01*
X014598Y007630D02*
X014598Y007100D01*
X014698Y007100D02*
X014698Y007630D01*
X014398Y007630D02*
X014398Y007312D01*
X014402Y007300D02*
X016065Y007300D01*
X016098Y007333D02*
X016098Y007895D01*
X016086Y007900D02*
X015218Y007900D01*
X015169Y007719D02*
X015079Y007629D01*
X014961Y007580D01*
X014998Y007595D02*
X014998Y007100D01*
X015098Y007100D02*
X015098Y007647D01*
X015009Y007600D02*
X016228Y007600D01*
X016165Y007400D02*
X014350Y007400D01*
X014098Y007500D02*
X014098Y007200D01*
X014418Y007200D02*
X015965Y007200D01*
X015998Y007233D02*
X015998Y007947D01*
X015898Y008000D02*
X015898Y007133D01*
X015948Y006900D02*
X009798Y006900D01*
X009698Y007000D01*
X009698Y007300D01*
X009498Y007500D01*
X006998Y007500D01*
X007250Y007300D02*
X007250Y007300D01*
X009315Y007300D01*
X009415Y007300D01*
X009415Y007300D01*
X007250Y007300D01*
X007298Y007300D02*
X007298Y007300D01*
X007398Y007300D02*
X007398Y007300D01*
X007498Y007300D02*
X007498Y007300D01*
X007598Y007300D02*
X007598Y007300D01*
X007698Y007300D02*
X007698Y007300D01*
X007798Y007300D02*
X007798Y007300D01*
X007898Y007300D02*
X007898Y007300D01*
X007998Y007300D02*
X007998Y007300D01*
X008098Y007300D02*
X008098Y007300D01*
X008198Y007300D02*
X008198Y007300D01*
X008298Y007300D02*
X008298Y007300D01*
X008398Y007300D02*
X008398Y007300D01*
X008498Y007300D02*
X008498Y007300D01*
X008598Y007300D02*
X008598Y007300D01*
X008698Y007300D02*
X008698Y007300D01*
X008798Y007300D02*
X008798Y007300D01*
X008898Y007300D02*
X008898Y007300D01*
X008998Y007300D02*
X008998Y007300D01*
X009098Y007300D02*
X009098Y007300D01*
X009198Y007300D02*
X009198Y007300D01*
X009298Y007300D02*
X009298Y007300D01*
X009398Y007300D02*
X009398Y007300D01*
X009198Y006900D02*
X009198Y005270D01*
X009098Y005270D02*
X009098Y006900D01*
X008998Y006900D02*
X008998Y005270D01*
X008898Y005270D02*
X008898Y006900D01*
X008798Y006900D02*
X008798Y005270D01*
X008698Y005270D02*
X008698Y006900D01*
X008598Y006900D02*
X008598Y005270D01*
X008498Y005270D02*
X008498Y006900D01*
X008398Y006900D02*
X008398Y005270D01*
X008298Y005270D02*
X008298Y006900D01*
X008198Y006900D02*
X008198Y005270D01*
X008098Y005270D02*
X008098Y006900D01*
X007998Y006900D02*
X007998Y005270D01*
X007898Y005270D02*
X007898Y006900D01*
X007798Y006900D02*
X007798Y005270D01*
X007698Y005270D02*
X007698Y006900D01*
X007598Y006900D02*
X007598Y005270D01*
X007498Y005270D02*
X007498Y006900D01*
X007398Y006900D02*
X007398Y005270D01*
X007298Y005270D02*
X007298Y006900D01*
X007198Y006900D02*
X007198Y005270D01*
X007098Y005270D02*
X007098Y006900D01*
X006998Y006900D02*
X006998Y005270D01*
X006898Y005270D02*
X006898Y006900D01*
X007298Y007800D02*
X009598Y007800D01*
X009998Y007400D01*
X009998Y007235D01*
X010041Y007192D01*
X010490Y007192D01*
X010698Y007400D01*
X010920Y007630D02*
X010969Y007581D01*
X010978Y007560D01*
X010978Y007564D01*
X011005Y007630D01*
X010920Y007630D01*
X010950Y007600D02*
X010993Y007600D01*
X010998Y007612D02*
X010998Y007630D01*
X011298Y007500D02*
X014098Y007500D01*
X013793Y007300D02*
X013778Y007264D01*
X013778Y007136D01*
X013793Y007100D01*
X010809Y007100D01*
X010879Y007129D01*
X010969Y007219D01*
X011018Y007336D01*
X011018Y007340D01*
X011026Y007319D01*
X011116Y007229D01*
X011234Y007180D01*
X011361Y007180D01*
X011479Y007229D01*
X011550Y007300D01*
X013793Y007300D01*
X013698Y007300D02*
X013698Y007100D01*
X013793Y007100D02*
X010809Y007100D01*
X010898Y007100D02*
X010898Y007147D01*
X010950Y007200D02*
X011186Y007200D01*
X011198Y007195D02*
X011198Y007100D01*
X011298Y007100D02*
X011298Y007180D01*
X011398Y007195D02*
X011398Y007100D01*
X011498Y007100D02*
X011498Y007247D01*
X011409Y007200D02*
X013778Y007200D01*
X013598Y007100D02*
X013598Y007300D01*
X013498Y007300D02*
X013498Y007100D01*
X013398Y007100D02*
X013398Y007300D01*
X013298Y007300D02*
X013298Y007100D01*
X013198Y007100D02*
X013198Y007300D01*
X013098Y007300D02*
X013098Y007100D01*
X012998Y007100D02*
X012998Y007300D01*
X012898Y007300D02*
X012898Y007100D01*
X012798Y007100D02*
X012798Y007300D01*
X012698Y007300D02*
X012698Y007100D01*
X012598Y007100D02*
X012598Y007300D01*
X012498Y007300D02*
X012498Y007100D01*
X012398Y007100D02*
X012398Y007300D01*
X012298Y007300D02*
X012298Y007100D01*
X012198Y007100D02*
X012198Y007300D01*
X012098Y007300D02*
X012098Y007100D01*
X011998Y007100D02*
X011998Y007300D01*
X011898Y007300D02*
X011898Y007100D01*
X011798Y007100D02*
X011798Y007300D01*
X011698Y007300D02*
X011698Y007100D01*
X011598Y007100D02*
X011598Y007300D01*
X011098Y007247D02*
X011098Y007100D01*
X010998Y007100D02*
X010998Y007288D01*
X011002Y007300D02*
X011045Y007300D01*
X010475Y007630D02*
X010426Y007581D01*
X010378Y007464D01*
X010378Y007392D01*
X010198Y007392D01*
X010198Y007580D01*
X010261Y007580D02*
X010379Y007629D01*
X010380Y007630D01*
X010475Y007630D01*
X010445Y007600D02*
X010309Y007600D01*
X010298Y007595D02*
X010298Y007392D01*
X010378Y007400D02*
X010198Y007400D01*
X010198Y007392D02*
X010198Y007483D01*
X010080Y007600D01*
X010086Y007600D01*
X010080Y007600D02*
X010077Y007604D01*
X010134Y007580D01*
X010261Y007580D01*
X010180Y007500D02*
X010393Y007500D01*
X010398Y007512D02*
X010398Y007630D01*
X010098Y007595D02*
X010098Y007583D01*
X009901Y007779D02*
X009878Y007836D01*
X009878Y007964D01*
X009893Y008000D01*
X008180Y008000D01*
X008180Y008000D01*
X009680Y008000D01*
X009798Y007883D01*
X009798Y008000D01*
X009698Y008000D02*
X009698Y007983D01*
X009598Y008000D02*
X009598Y008000D01*
X009498Y008000D02*
X009498Y008000D01*
X009398Y008000D02*
X009398Y008000D01*
X009298Y008000D02*
X009298Y008000D01*
X009198Y008000D02*
X009198Y008000D01*
X009098Y008000D02*
X009098Y008000D01*
X008998Y008000D02*
X008998Y008000D01*
X008898Y008000D02*
X008898Y008000D01*
X008798Y008000D02*
X008798Y008000D01*
X008698Y008000D02*
X008698Y008000D01*
X008598Y008000D02*
X008598Y008000D01*
X008498Y008000D02*
X008498Y008000D01*
X008398Y008000D02*
X008398Y008000D01*
X008298Y008000D02*
X008298Y008000D01*
X008198Y008000D02*
X008198Y008000D01*
X007998Y008100D02*
X007998Y008200D01*
X016198Y008200D01*
X015998Y008453D02*
X015998Y009167D01*
X015965Y009200D02*
X012718Y009200D01*
X012718Y009136D02*
X012718Y009264D01*
X012702Y009300D01*
X015865Y009300D01*
X016238Y008926D01*
X016228Y008915D01*
X016228Y008520D01*
X016134Y008520D01*
X016016Y008471D01*
X015945Y008400D01*
X014850Y008400D01*
X014869Y008419D01*
X014918Y008536D01*
X014918Y008664D01*
X014869Y008781D01*
X014779Y008871D01*
X014661Y008920D01*
X014534Y008920D01*
X014416Y008871D01*
X014326Y008781D01*
X014278Y008664D01*
X014278Y008600D01*
X007950Y008600D01*
X007879Y008671D01*
X007870Y008675D01*
X007879Y008679D01*
X007969Y008769D01*
X008018Y008886D01*
X008018Y009014D01*
X007969Y009131D01*
X007920Y009180D01*
X008011Y009180D01*
X008129Y009229D01*
X008200Y009300D01*
X008643Y009300D01*
X008628Y009264D01*
X008628Y009136D01*
X008676Y009019D01*
X008766Y008929D01*
X008884Y008880D01*
X009011Y008880D01*
X009129Y008929D01*
X009200Y009000D01*
X010715Y009000D01*
X010815Y008900D01*
X009059Y008900D01*
X009098Y008916D02*
X009098Y008600D01*
X009198Y008600D02*
X009198Y008997D01*
X009298Y009000D02*
X009298Y008600D01*
X009398Y008600D02*
X009398Y009000D01*
X009498Y009000D02*
X009498Y008600D01*
X009598Y008600D02*
X009598Y009000D01*
X009698Y009000D02*
X009698Y008600D01*
X009798Y008600D02*
X009798Y009000D01*
X009898Y009000D02*
X009898Y008600D01*
X009998Y008600D02*
X009998Y009000D01*
X010098Y009000D02*
X010098Y008600D01*
X010198Y008600D02*
X010198Y009000D01*
X010298Y009000D02*
X010298Y008600D01*
X010398Y008600D02*
X010398Y009000D01*
X010498Y009000D02*
X010498Y008600D01*
X010598Y008600D02*
X010598Y009000D01*
X010698Y009000D02*
X010698Y008600D01*
X010798Y008600D02*
X010798Y008917D01*
X010815Y008900D02*
X012286Y008900D01*
X012334Y008880D01*
X012461Y008880D01*
X012579Y008929D01*
X012669Y009019D01*
X012718Y009136D01*
X012702Y009100D02*
X016065Y009100D01*
X016098Y009067D02*
X016098Y008505D01*
X016086Y008500D02*
X014902Y008500D01*
X014898Y008488D02*
X014898Y008400D01*
X014850Y008400D02*
X015945Y008400D01*
X015898Y008400D02*
X015898Y009267D01*
X015798Y009300D02*
X015798Y008400D01*
X015698Y008400D02*
X015698Y009300D01*
X015598Y009300D02*
X015598Y008400D01*
X015498Y008400D02*
X015498Y009300D01*
X015398Y009300D02*
X015398Y008400D01*
X015298Y008400D02*
X015298Y009300D01*
X015198Y009300D02*
X015198Y008400D01*
X015098Y008400D02*
X015098Y009300D01*
X014998Y009300D02*
X014998Y008400D01*
X014918Y008600D02*
X016228Y008600D01*
X016198Y008520D02*
X016198Y008967D01*
X016165Y009000D02*
X012650Y009000D01*
X012598Y008947D02*
X012598Y008600D01*
X012698Y008600D02*
X012698Y009088D01*
X012509Y008900D02*
X014486Y008900D01*
X014498Y008905D02*
X014498Y009300D01*
X014598Y009300D02*
X014598Y008920D01*
X014698Y008905D02*
X014698Y009300D01*
X014798Y009300D02*
X014798Y008853D01*
X014850Y008800D02*
X016228Y008800D01*
X016228Y008700D02*
X014902Y008700D01*
X014898Y008712D02*
X014898Y009300D01*
X014398Y009300D02*
X014398Y008853D01*
X014345Y008800D02*
X007982Y008800D01*
X007998Y008838D02*
X007998Y008600D01*
X007950Y008600D02*
X014278Y008600D01*
X014198Y008600D02*
X014198Y009300D01*
X014298Y009300D02*
X014298Y008712D01*
X014293Y008700D02*
X007900Y008700D01*
X007898Y008697D02*
X007898Y008653D01*
X008098Y008600D02*
X008098Y009216D01*
X008059Y009200D02*
X008628Y009200D01*
X008643Y009100D02*
X007982Y009100D01*
X007998Y009062D02*
X007998Y009180D01*
X008018Y009000D02*
X008695Y009000D01*
X008698Y008997D02*
X008698Y008600D01*
X008798Y008600D02*
X008798Y008916D01*
X008836Y008900D02*
X008018Y008900D01*
X007698Y008950D02*
X007598Y009050D01*
X007598Y010000D01*
X007798Y010200D01*
X008548Y010200D01*
X008748Y010000D01*
X011098Y010000D01*
X011298Y009800D01*
X011598Y009800D01*
X011798Y010000D01*
X011998Y010000D01*
X012198Y010200D01*
X012398Y010200D01*
X012718Y010200D02*
X013628Y010200D01*
X013628Y010100D02*
X012709Y010100D01*
X012798Y010053D02*
X012798Y010230D01*
X012898Y010230D02*
X012898Y009912D01*
X012850Y010000D02*
X013647Y010000D01*
X014168Y010300D02*
X014675Y010300D01*
X014698Y010278D02*
X014698Y010270D01*
X014598Y010270D02*
X014598Y010378D01*
X014575Y010400D02*
X014262Y010400D01*
X014298Y010435D02*
X014298Y010270D01*
X014398Y010270D02*
X014398Y012020D01*
X014498Y012020D02*
X014498Y010922D01*
X014475Y010900D02*
X014362Y010900D01*
X014298Y010965D02*
X014298Y012020D01*
X014198Y012020D02*
X014198Y011065D01*
X014162Y011100D02*
X014675Y011100D01*
X014698Y011122D02*
X014698Y012020D01*
X014798Y012020D02*
X014798Y011140D01*
X014848Y011100D02*
X014948Y011100D01*
X014998Y011140D02*
X014998Y012020D01*
X015098Y012020D02*
X015098Y011122D01*
X015120Y011100D02*
X017329Y011100D01*
X017298Y011131D02*
X017298Y010202D01*
X017295Y010200D02*
X016983Y010200D01*
X016998Y010185D02*
X016998Y012020D01*
X017098Y012020D02*
X017098Y010085D01*
X017083Y010100D02*
X017228Y010100D01*
X017228Y010000D02*
X017183Y010000D01*
X017198Y009985D02*
X017198Y012020D01*
X017298Y012020D02*
X017298Y011769D01*
X017287Y011758D02*
X017204Y011558D01*
X017204Y011342D01*
X017287Y011142D01*
X017440Y010989D01*
X017639Y010906D01*
X017856Y010906D01*
X018056Y010989D01*
X018208Y011142D01*
X018291Y011342D01*
X018291Y011558D01*
X018208Y011758D01*
X018056Y011911D01*
X017856Y011994D01*
X017639Y011994D01*
X017440Y011911D01*
X017287Y011758D01*
X017329Y011800D02*
X003348Y011800D01*
X003348Y011700D02*
X017263Y011700D01*
X017221Y011600D02*
X003348Y011600D01*
X003348Y011500D02*
X017204Y011500D01*
X017204Y011400D02*
X003348Y011400D01*
X003348Y011300D02*
X017221Y011300D01*
X017263Y011200D02*
X003348Y011200D01*
X003348Y011100D02*
X003633Y011100D01*
X003598Y011065D02*
X003598Y012020D01*
X003698Y012020D02*
X003698Y011165D01*
X003703Y011170D02*
X003428Y010895D01*
X003428Y010505D01*
X003698Y010235D01*
X003698Y009967D01*
X003698Y008910D01*
X003798Y008910D02*
X003798Y009867D01*
X003815Y009850D02*
X003815Y009850D01*
X004115Y009550D01*
X004495Y009550D01*
X004566Y009479D01*
X004684Y009430D01*
X004811Y009430D01*
X004878Y009457D01*
X004878Y009393D01*
X004811Y009420D01*
X004684Y009420D01*
X004566Y009371D01*
X004476Y009281D01*
X004428Y009164D01*
X004428Y009036D01*
X004476Y008919D01*
X004566Y008829D01*
X004684Y008780D01*
X004811Y008780D01*
X004929Y008829D01*
X005000Y008900D01*
X005928Y008900D01*
X005928Y008886D01*
X005976Y008769D01*
X006066Y008679D01*
X006184Y008630D01*
X006311Y008630D01*
X006429Y008679D01*
X006519Y008769D01*
X006568Y008886D01*
X006568Y009014D01*
X006519Y009131D01*
X006429Y009221D01*
X006311Y009270D01*
X006210Y009270D01*
X006180Y009300D01*
X005482Y009300D01*
X007398Y009300D01*
X007398Y009200D02*
X006450Y009200D01*
X006398Y009234D02*
X006398Y009838D01*
X006413Y009800D02*
X005398Y009800D01*
X005398Y009703D02*
X005398Y010483D01*
X005368Y010513D01*
X005368Y010895D01*
X005092Y011170D01*
X004703Y011170D01*
X004428Y010895D01*
X004428Y010505D01*
X004703Y010230D01*
X004998Y010230D01*
X004998Y009953D01*
X004929Y010021D01*
X004811Y010070D01*
X004684Y010070D01*
X004566Y010021D01*
X004495Y009950D01*
X004280Y009950D01*
X004098Y010133D01*
X004098Y010235D01*
X004368Y010505D01*
X004368Y010895D01*
X004092Y011170D01*
X003703Y011170D01*
X003798Y011170D02*
X003798Y012020D01*
X003898Y012020D02*
X003898Y011170D01*
X003998Y011170D02*
X003998Y012020D01*
X004098Y012020D02*
X004098Y011165D01*
X004162Y011100D02*
X004633Y011100D01*
X004598Y011065D02*
X004598Y012020D01*
X004698Y012020D02*
X004698Y011165D01*
X004798Y011170D02*
X004798Y012020D01*
X004898Y012020D02*
X004898Y011170D01*
X004998Y011170D02*
X004998Y012020D01*
X005098Y012020D02*
X005098Y011165D01*
X005162Y011100D02*
X005633Y011100D01*
X005598Y011065D02*
X005598Y012020D01*
X005698Y012020D02*
X005698Y011165D01*
X005703Y011170D02*
X005428Y010895D01*
X005428Y010505D01*
X005703Y010230D01*
X006092Y010230D01*
X006368Y010505D01*
X006368Y010895D01*
X006092Y011170D01*
X005703Y011170D01*
X005798Y011170D02*
X005798Y012020D01*
X005898Y012020D02*
X005898Y011170D01*
X005998Y011170D02*
X005998Y012020D01*
X006098Y012020D02*
X006098Y011165D01*
X006162Y011100D02*
X006633Y011100D01*
X006598Y011065D02*
X006598Y012020D01*
X006698Y012020D02*
X006698Y011165D01*
X006798Y011170D02*
X006798Y012020D01*
X006898Y012020D02*
X006898Y011170D01*
X006998Y011170D02*
X006998Y012020D01*
X007098Y012020D02*
X007098Y011165D01*
X007162Y011100D02*
X007633Y011100D01*
X007598Y011065D02*
X007598Y012020D01*
X007698Y012020D02*
X007698Y011165D01*
X007798Y011170D02*
X007798Y012020D01*
X007898Y012020D02*
X007898Y011170D01*
X007998Y011170D02*
X007998Y012020D01*
X008098Y012020D02*
X008098Y011165D01*
X008162Y011100D02*
X008633Y011100D01*
X008598Y011065D02*
X008598Y012020D01*
X008698Y012020D02*
X008698Y011165D01*
X008798Y011170D02*
X008798Y012020D01*
X008898Y012020D02*
X008898Y011170D01*
X008998Y011170D02*
X008998Y012020D01*
X009098Y012020D02*
X009098Y011165D01*
X009162Y011100D02*
X009633Y011100D01*
X009598Y011065D02*
X009598Y012020D01*
X009698Y012020D02*
X009698Y011165D01*
X009798Y011170D02*
X009798Y012020D01*
X009898Y012020D02*
X009898Y011170D01*
X009998Y011170D02*
X009998Y012020D01*
X010098Y012020D02*
X010098Y011165D01*
X010162Y011100D02*
X010633Y011100D01*
X010598Y011065D02*
X010598Y012020D01*
X010698Y012020D02*
X010698Y011165D01*
X010798Y011170D02*
X010798Y012020D01*
X010898Y012020D02*
X010898Y011170D01*
X010998Y011170D02*
X010998Y012020D01*
X011098Y012020D02*
X011098Y011165D01*
X011162Y011100D02*
X011633Y011100D01*
X011598Y011065D02*
X011598Y012020D01*
X011698Y012020D02*
X011698Y011165D01*
X011798Y011170D02*
X011798Y012020D01*
X011898Y012020D02*
X011898Y011170D01*
X011998Y011170D02*
X011998Y012020D01*
X012098Y012020D02*
X012098Y011165D01*
X012162Y011100D02*
X012633Y011100D01*
X012598Y011065D02*
X012598Y012020D01*
X012698Y012020D02*
X012698Y011165D01*
X012798Y011170D02*
X012798Y012020D01*
X012898Y012020D02*
X012898Y011170D01*
X012998Y011170D02*
X012998Y012020D01*
X013098Y012020D02*
X013098Y011165D01*
X013162Y011100D02*
X013633Y011100D01*
X013598Y011065D02*
X013598Y012020D01*
X013698Y012020D02*
X013698Y011165D01*
X013798Y011170D02*
X013798Y012020D01*
X013898Y012020D02*
X013898Y011170D01*
X013998Y011170D02*
X013998Y012020D01*
X014098Y012020D02*
X014098Y011165D01*
X014262Y011000D02*
X014575Y011000D01*
X014598Y011022D02*
X014598Y012020D01*
X014898Y012020D02*
X014898Y010750D01*
X014848Y010800D02*
X014948Y010800D01*
X014998Y010750D02*
X014998Y010650D01*
X014948Y010700D02*
X018318Y010700D01*
X018318Y010600D02*
X015338Y010600D01*
X015298Y010650D02*
X015298Y010750D01*
X015338Y010800D02*
X018318Y010800D01*
X018318Y010900D02*
X015320Y010900D01*
X015298Y010922D02*
X015298Y012020D01*
X015398Y012020D02*
X015398Y010270D01*
X015498Y010270D02*
X015498Y012020D01*
X015598Y012020D02*
X015598Y010270D01*
X015686Y010300D02*
X015120Y010300D01*
X015098Y010278D02*
X015098Y010270D01*
X015198Y010270D02*
X015198Y010378D01*
X015220Y010400D02*
X018318Y010400D01*
X018318Y010300D02*
X015909Y010300D01*
X015898Y010305D02*
X015898Y012020D01*
X015998Y012020D02*
X015998Y010253D01*
X016050Y010200D02*
X016512Y010200D01*
X016498Y010185D02*
X016498Y012020D01*
X016598Y012020D02*
X016598Y010220D01*
X016698Y010220D02*
X016698Y012020D01*
X016798Y012020D02*
X016798Y010220D01*
X016898Y010220D02*
X016898Y012020D01*
X017398Y012020D02*
X017398Y011869D01*
X017429Y011900D02*
X003348Y011900D01*
X003348Y012000D02*
X018282Y012000D01*
X018298Y011985D02*
X018298Y000774D01*
X018308Y000800D02*
X018274Y000800D01*
X018267Y000700D02*
X018232Y000700D01*
X018198Y000631D02*
X018198Y000579D01*
X018219Y000600D02*
X018166Y000600D01*
X018098Y000531D02*
X018098Y000479D01*
X018119Y000500D02*
X018066Y000500D01*
X017998Y000465D02*
X017998Y000431D01*
X017923Y000400D02*
X003348Y000400D01*
X003398Y000380D02*
X003398Y002500D01*
X003498Y002500D02*
X003498Y002152D01*
X003515Y002170D02*
X003428Y002082D01*
X003428Y001318D01*
X003515Y001230D01*
X004280Y001230D01*
X004368Y001318D01*
X004368Y002082D01*
X004280Y002170D01*
X003515Y002170D01*
X003598Y002170D02*
X003598Y002500D01*
X003698Y002500D02*
X003698Y002170D01*
X003798Y002170D02*
X003798Y002500D01*
X003898Y002500D02*
X003898Y002170D01*
X003998Y002170D02*
X003998Y002500D01*
X004098Y002500D02*
X004098Y002170D01*
X004198Y002170D02*
X004198Y002500D01*
X004298Y002500D02*
X004298Y002152D01*
X004350Y002100D02*
X004633Y002100D01*
X004598Y002065D02*
X004598Y002500D01*
X004698Y002500D02*
X004698Y002165D01*
X004703Y002170D02*
X004428Y001895D01*
X004428Y001505D01*
X004703Y001230D01*
X005092Y001230D01*
X005368Y001505D01*
X005368Y001895D01*
X005092Y002170D01*
X004703Y002170D01*
X004798Y002170D02*
X004798Y002500D01*
X004898Y002500D02*
X004898Y002170D01*
X004998Y002170D02*
X004998Y002500D01*
X005098Y002500D02*
X005098Y002165D01*
X005162Y002100D02*
X005633Y002100D01*
X005598Y002065D02*
X005598Y002500D01*
X005698Y002500D02*
X005698Y002165D01*
X005703Y002170D02*
X005428Y001895D01*
X005428Y001505D01*
X005703Y001230D01*
X006092Y001230D01*
X006368Y001505D01*
X006368Y001895D01*
X006092Y002170D01*
X005703Y002170D01*
X005798Y002170D02*
X005798Y002500D01*
X005898Y002500D02*
X005898Y002170D01*
X005998Y002170D02*
X005998Y002500D01*
X006098Y002500D02*
X006098Y002165D01*
X006162Y002100D02*
X006633Y002100D01*
X006598Y002065D02*
X006598Y002500D01*
X006698Y002500D02*
X006698Y002165D01*
X006703Y002170D02*
X006428Y001895D01*
X006428Y001505D01*
X006703Y001230D01*
X007092Y001230D01*
X007368Y001505D01*
X007368Y001895D01*
X007092Y002170D01*
X006703Y002170D01*
X006798Y002170D02*
X006798Y002500D01*
X006898Y002500D02*
X006898Y002170D01*
X006998Y002170D02*
X006998Y002500D01*
X007098Y002500D02*
X007098Y002165D01*
X007162Y002100D02*
X007633Y002100D01*
X007598Y002065D02*
X007598Y002500D01*
X007698Y002500D02*
X007698Y002165D01*
X007703Y002170D02*
X007428Y001895D01*
X007428Y001505D01*
X007703Y001230D01*
X008092Y001230D01*
X008368Y001505D01*
X008368Y001895D01*
X008092Y002170D01*
X007703Y002170D01*
X007798Y002170D02*
X007798Y002500D01*
X007898Y002500D02*
X007898Y002170D01*
X007998Y002170D02*
X007998Y002500D01*
X008098Y002500D02*
X008098Y002165D01*
X008162Y002100D02*
X008633Y002100D01*
X008598Y002065D02*
X008598Y002500D01*
X008698Y002500D02*
X008698Y002165D01*
X008703Y002170D02*
X008428Y001895D01*
X008428Y001505D01*
X008703Y001230D01*
X009092Y001230D01*
X009368Y001505D01*
X009368Y001895D01*
X009092Y002170D01*
X008703Y002170D01*
X008798Y002170D02*
X008798Y002500D01*
X008898Y002500D02*
X008898Y002170D01*
X008998Y002170D02*
X008998Y002500D01*
X009098Y002500D02*
X009098Y002165D01*
X009162Y002100D02*
X009633Y002100D01*
X009598Y002065D02*
X009598Y002500D01*
X009698Y002500D02*
X009698Y002165D01*
X009798Y002170D02*
X009798Y002500D01*
X009898Y002500D02*
X009898Y002170D01*
X009998Y002170D02*
X009998Y002500D01*
X010098Y002500D02*
X010098Y002262D01*
X010113Y002300D02*
X003348Y002300D01*
X003348Y002200D02*
X010078Y002200D01*
X010195Y002400D02*
X003348Y002400D01*
X003348Y002100D02*
X003445Y002100D01*
X003428Y002000D02*
X003348Y002000D01*
X003348Y001900D02*
X003428Y001900D01*
X003428Y001800D02*
X003348Y001800D01*
X003348Y001700D02*
X003428Y001700D01*
X003428Y001600D02*
X003348Y001600D01*
X003348Y001500D02*
X003428Y001500D01*
X003428Y001400D02*
X003348Y001400D01*
X003348Y001300D02*
X003445Y001300D01*
X003498Y001248D02*
X003498Y000380D01*
X003598Y000380D02*
X003598Y001230D01*
X003698Y001230D02*
X003698Y000380D01*
X003798Y000380D02*
X003798Y001230D01*
X003898Y001230D02*
X003898Y000380D01*
X003998Y000380D02*
X003998Y001230D01*
X004098Y001230D02*
X004098Y000380D01*
X004198Y000380D02*
X004198Y001230D01*
X004298Y001248D02*
X004298Y000380D01*
X004398Y000380D02*
X004398Y002500D01*
X004498Y002500D02*
X004498Y001965D01*
X004533Y002000D02*
X004368Y002000D01*
X004368Y001900D02*
X004433Y001900D01*
X004428Y001800D02*
X004368Y001800D01*
X004368Y001700D02*
X004428Y001700D01*
X004428Y001600D02*
X004368Y001600D01*
X004368Y001500D02*
X004433Y001500D01*
X004498Y001435D02*
X004498Y000380D01*
X004598Y000380D02*
X004598Y001335D01*
X004633Y001300D02*
X004350Y001300D01*
X004368Y001400D02*
X004533Y001400D01*
X004698Y001235D02*
X004698Y000380D01*
X004798Y000380D02*
X004798Y001230D01*
X004898Y001230D02*
X004898Y000380D01*
X004998Y000380D02*
X004998Y001230D01*
X005098Y001235D02*
X005098Y000380D01*
X005198Y000380D02*
X005198Y001335D01*
X005162Y001300D02*
X005633Y001300D01*
X005598Y001335D02*
X005598Y000380D01*
X005698Y000380D02*
X005698Y001235D01*
X005798Y001230D02*
X005798Y000380D01*
X005898Y000380D02*
X005898Y001230D01*
X005998Y001230D02*
X005998Y000380D01*
X006098Y000380D02*
X006098Y001235D01*
X006162Y001300D02*
X006633Y001300D01*
X006598Y001335D02*
X006598Y000380D01*
X006698Y000380D02*
X006698Y001235D01*
X006798Y001230D02*
X006798Y000380D01*
X006898Y000380D02*
X006898Y001230D01*
X006998Y001230D02*
X006998Y000380D01*
X007098Y000380D02*
X007098Y001235D01*
X007162Y001300D02*
X007633Y001300D01*
X007598Y001335D02*
X007598Y000380D01*
X007698Y000380D02*
X007698Y001235D01*
X007798Y001230D02*
X007798Y000380D01*
X007898Y000380D02*
X007898Y001230D01*
X007998Y001230D02*
X007998Y000380D01*
X008098Y000380D02*
X008098Y001235D01*
X008162Y001300D02*
X008633Y001300D01*
X008598Y001335D02*
X008598Y000380D01*
X008698Y000380D02*
X008698Y001235D01*
X008798Y001230D02*
X008798Y000380D01*
X008898Y000380D02*
X008898Y001230D01*
X008998Y001230D02*
X008998Y000380D01*
X009098Y000380D02*
X009098Y001235D01*
X009162Y001300D02*
X009633Y001300D01*
X009598Y001335D02*
X009598Y000380D01*
X009698Y000380D02*
X009698Y001235D01*
X009798Y001230D02*
X009798Y000380D01*
X009898Y000380D02*
X009898Y001230D01*
X009998Y001230D02*
X009998Y000380D01*
X010098Y000380D02*
X010098Y001235D01*
X010162Y001300D02*
X010633Y001300D01*
X010598Y001335D02*
X010598Y000380D01*
X010698Y000380D02*
X010698Y001235D01*
X010798Y001230D02*
X010798Y000380D01*
X010898Y000380D02*
X010898Y001230D01*
X010998Y001230D02*
X010998Y000380D01*
X011098Y000380D02*
X011098Y001235D01*
X011162Y001300D02*
X011633Y001300D01*
X011598Y001335D02*
X011598Y000380D01*
X011698Y000380D02*
X011698Y001235D01*
X011798Y001230D02*
X011798Y000380D01*
X011898Y000380D02*
X011898Y001230D01*
X011998Y001230D02*
X011998Y000380D01*
X012098Y000380D02*
X012098Y001235D01*
X012162Y001300D02*
X012633Y001300D01*
X012598Y001335D02*
X012598Y000380D01*
X012698Y000380D02*
X012698Y001235D01*
X012798Y001230D02*
X012798Y000380D01*
X012898Y000380D02*
X012898Y001230D01*
X012998Y001230D02*
X012998Y000380D01*
X013098Y000380D02*
X013098Y001235D01*
X013162Y001300D02*
X013633Y001300D01*
X013598Y001335D02*
X013598Y000380D01*
X013698Y000380D02*
X013698Y001235D01*
X013798Y001230D02*
X013798Y000380D01*
X013898Y000380D02*
X013898Y001230D01*
X013998Y001230D02*
X013998Y000380D01*
X014098Y000380D02*
X014098Y001235D01*
X014162Y001300D02*
X014675Y001300D01*
X014698Y001278D02*
X014698Y000380D01*
X014798Y000380D02*
X014798Y001260D01*
X014848Y001300D02*
X014948Y001300D01*
X014998Y001260D02*
X014998Y000380D01*
X015098Y000380D02*
X015098Y001278D01*
X015120Y001300D02*
X017329Y001300D01*
X017298Y001269D02*
X017298Y002117D01*
X017280Y002100D02*
X018318Y002100D01*
X018318Y002000D02*
X017180Y002000D01*
X017198Y002017D02*
X017198Y000380D01*
X017298Y000380D02*
X017298Y000631D01*
X017329Y000600D02*
X003348Y000600D01*
X003348Y000500D02*
X017429Y000500D01*
X017398Y000531D02*
X017398Y000380D01*
X017498Y000380D02*
X017498Y000465D01*
X017598Y000424D02*
X017598Y000380D01*
X017698Y000380D02*
X017698Y000406D01*
X017798Y000406D02*
X017798Y000380D01*
X017898Y000390D02*
X017898Y000424D01*
X017263Y000700D02*
X003348Y000700D01*
X003348Y000800D02*
X017221Y000800D01*
X017204Y000900D02*
X003348Y000900D01*
X003348Y001000D02*
X017204Y001000D01*
X017221Y001100D02*
X003348Y001100D01*
X003348Y001200D02*
X017263Y001200D01*
X017398Y001369D02*
X017398Y002217D01*
X017380Y002200D02*
X018318Y002200D01*
X018318Y002300D02*
X018040Y002300D01*
X017998Y002257D02*
X017998Y001435D01*
X018066Y001400D02*
X018318Y001400D01*
X018318Y001300D02*
X018166Y001300D01*
X018198Y001269D02*
X018198Y002457D01*
X018238Y002500D02*
X018318Y002500D01*
X018318Y002600D02*
X018238Y002600D01*
X018198Y002650D02*
X018198Y002750D01*
X018098Y002750D02*
X018098Y002650D01*
X017998Y002650D02*
X017998Y002750D01*
X017898Y002750D02*
X017898Y002650D01*
X018140Y002400D02*
X018318Y002400D01*
X018098Y002357D02*
X018098Y001369D01*
X018232Y001200D02*
X018318Y001200D01*
X018318Y001100D02*
X018274Y001100D01*
X018291Y001000D02*
X018318Y001000D01*
X018318Y001500D02*
X015320Y001500D01*
X015298Y001478D02*
X015298Y000380D01*
X015398Y000380D02*
X015398Y001950D01*
X015320Y001900D02*
X018318Y001900D01*
X018318Y001800D02*
X015338Y001800D01*
X015298Y001750D02*
X015298Y001650D01*
X015338Y001600D02*
X018318Y001600D01*
X018318Y001700D02*
X014948Y001700D01*
X014998Y001650D02*
X014998Y001750D01*
X015098Y001750D02*
X015098Y001650D01*
X015198Y001650D02*
X015198Y001750D01*
X015298Y001922D02*
X015298Y001950D01*
X015498Y001950D02*
X015498Y000380D01*
X015598Y000380D02*
X015598Y001950D01*
X015698Y001950D02*
X015698Y000380D01*
X015798Y000380D02*
X015798Y001950D01*
X015898Y001950D02*
X015898Y000380D01*
X015998Y000380D02*
X015998Y001950D01*
X016098Y001950D02*
X016098Y000380D01*
X016198Y000380D02*
X016198Y001950D01*
X016298Y001950D02*
X016298Y000380D01*
X016398Y000380D02*
X016398Y001950D01*
X016498Y001950D02*
X016498Y000380D01*
X016598Y000380D02*
X016598Y001950D01*
X016698Y001950D02*
X016698Y000380D01*
X016798Y000380D02*
X016798Y001950D01*
X016898Y001950D02*
X016898Y000380D01*
X016998Y000380D02*
X016998Y001950D01*
X017098Y001950D02*
X017098Y000380D01*
X017429Y001400D02*
X015220Y001400D01*
X015198Y001378D02*
X015198Y000380D01*
X014898Y000380D02*
X014898Y001650D01*
X014848Y001600D02*
X014948Y001600D01*
X014948Y001500D02*
X014848Y001500D01*
X014848Y001400D02*
X014948Y001400D01*
X014798Y001650D02*
X014798Y001750D01*
X014848Y001700D02*
X014368Y001700D01*
X014368Y001600D02*
X014458Y001600D01*
X014498Y001650D02*
X014498Y001750D01*
X014458Y001800D02*
X014368Y001800D01*
X014362Y001900D02*
X014475Y001900D01*
X014498Y001922D02*
X014498Y001950D01*
X014398Y001950D02*
X014398Y000380D01*
X014498Y000380D02*
X014498Y001478D01*
X014475Y001500D02*
X014362Y001500D01*
X014298Y001435D02*
X014298Y000380D01*
X014198Y000380D02*
X014198Y001335D01*
X014262Y001400D02*
X014575Y001400D01*
X014598Y001378D02*
X014598Y000380D01*
X013498Y000380D02*
X013498Y001435D01*
X013533Y001400D02*
X013262Y001400D01*
X013298Y001435D02*
X013298Y000380D01*
X013398Y000380D02*
X013398Y001950D01*
X013362Y001900D02*
X013433Y001900D01*
X013428Y001800D02*
X013368Y001800D01*
X013368Y001700D02*
X013428Y001700D01*
X013428Y001600D02*
X013368Y001600D01*
X013362Y001500D02*
X013433Y001500D01*
X013198Y001335D02*
X013198Y000380D01*
X012498Y000380D02*
X012498Y001435D01*
X012533Y001400D02*
X012262Y001400D01*
X012298Y001435D02*
X012298Y000380D01*
X012398Y000380D02*
X012398Y001950D01*
X012362Y001900D02*
X012433Y001900D01*
X012428Y001800D02*
X012368Y001800D01*
X012368Y001700D02*
X012428Y001700D01*
X012428Y001600D02*
X012368Y001600D01*
X012362Y001500D02*
X012433Y001500D01*
X012198Y001335D02*
X012198Y000380D01*
X011498Y000380D02*
X011498Y001435D01*
X011533Y001400D02*
X011262Y001400D01*
X011298Y001435D02*
X011298Y000380D01*
X011398Y000380D02*
X011398Y001950D01*
X011362Y001900D02*
X011433Y001900D01*
X011428Y001800D02*
X011368Y001800D01*
X011368Y001700D02*
X011428Y001700D01*
X011428Y001600D02*
X011368Y001600D01*
X011362Y001500D02*
X011433Y001500D01*
X011198Y001335D02*
X011198Y000380D01*
X010498Y000380D02*
X010498Y001435D01*
X010533Y001400D02*
X010262Y001400D01*
X010298Y001435D02*
X010298Y000380D01*
X010398Y000380D02*
X010398Y001830D01*
X010368Y001800D02*
X010428Y001800D01*
X010428Y001700D02*
X010368Y001700D01*
X010368Y001600D02*
X010428Y001600D01*
X010433Y001500D02*
X010362Y001500D01*
X010198Y001335D02*
X010198Y000380D01*
X009498Y000380D02*
X009498Y001435D01*
X009533Y001400D02*
X009262Y001400D01*
X009298Y001435D02*
X009298Y000380D01*
X009398Y000380D02*
X009398Y002500D01*
X009498Y002500D02*
X009498Y001965D01*
X009533Y002000D02*
X009262Y002000D01*
X009298Y001965D02*
X009298Y002500D01*
X009198Y002500D02*
X009198Y002065D01*
X009362Y001900D02*
X009433Y001900D01*
X009428Y001800D02*
X009368Y001800D01*
X009368Y001700D02*
X009428Y001700D01*
X009428Y001600D02*
X009368Y001600D01*
X009362Y001500D02*
X009433Y001500D01*
X009198Y001335D02*
X009198Y000380D01*
X008498Y000380D02*
X008498Y001435D01*
X008533Y001400D02*
X008262Y001400D01*
X008298Y001435D02*
X008298Y000380D01*
X008398Y000380D02*
X008398Y002500D01*
X008498Y002500D02*
X008498Y001965D01*
X008533Y002000D02*
X008262Y002000D01*
X008298Y001965D02*
X008298Y002500D01*
X008198Y002500D02*
X008198Y002065D01*
X008362Y001900D02*
X008433Y001900D01*
X008428Y001800D02*
X008368Y001800D01*
X008368Y001700D02*
X008428Y001700D01*
X008428Y001600D02*
X008368Y001600D01*
X008362Y001500D02*
X008433Y001500D01*
X008198Y001335D02*
X008198Y000380D01*
X007498Y000380D02*
X007498Y001435D01*
X007533Y001400D02*
X007262Y001400D01*
X007298Y001435D02*
X007298Y000380D01*
X007398Y000380D02*
X007398Y002500D01*
X007498Y002500D02*
X007498Y001965D01*
X007533Y002000D02*
X007262Y002000D01*
X007298Y001965D02*
X007298Y002500D01*
X007198Y002500D02*
X007198Y002065D01*
X007362Y001900D02*
X007433Y001900D01*
X007428Y001800D02*
X007368Y001800D01*
X007368Y001700D02*
X007428Y001700D01*
X007428Y001600D02*
X007368Y001600D01*
X007362Y001500D02*
X007433Y001500D01*
X007198Y001335D02*
X007198Y000380D01*
X006498Y000380D02*
X006498Y001435D01*
X006533Y001400D02*
X006262Y001400D01*
X006298Y001435D02*
X006298Y000380D01*
X006398Y000380D02*
X006398Y002500D01*
X006498Y002500D02*
X006498Y001965D01*
X006533Y002000D02*
X006262Y002000D01*
X006298Y001965D02*
X006298Y002500D01*
X006198Y002500D02*
X006198Y002065D01*
X006362Y001900D02*
X006433Y001900D01*
X006428Y001800D02*
X006368Y001800D01*
X006368Y001700D02*
X006428Y001700D01*
X006428Y001600D02*
X006368Y001600D01*
X006362Y001500D02*
X006433Y001500D01*
X006198Y001335D02*
X006198Y000380D01*
X005498Y000380D02*
X005498Y001435D01*
X005533Y001400D02*
X005262Y001400D01*
X005298Y001435D02*
X005298Y000380D01*
X005398Y000380D02*
X005398Y002500D01*
X005498Y002500D02*
X005498Y001965D01*
X005533Y002000D02*
X005262Y002000D01*
X005298Y001965D02*
X005298Y002500D01*
X005198Y002500D02*
X005198Y002065D01*
X005362Y001900D02*
X005433Y001900D01*
X005428Y001800D02*
X005368Y001800D01*
X005368Y001700D02*
X005428Y001700D01*
X005428Y001600D02*
X005368Y001600D01*
X005362Y001500D02*
X005433Y001500D01*
X007498Y002950D02*
X012648Y002950D01*
X012998Y003300D01*
X012998Y004200D01*
X012705Y004330D02*
X012678Y004264D01*
X012678Y004136D01*
X012726Y004019D01*
X012798Y003947D01*
X012798Y003383D01*
X012565Y003150D01*
X007782Y003150D01*
X007818Y003236D01*
X007818Y003364D01*
X007769Y003481D01*
X007679Y003571D01*
X007561Y003620D01*
X007434Y003620D01*
X007418Y003613D01*
X007418Y003664D01*
X007369Y003781D01*
X007368Y003783D01*
X007368Y004288D01*
X007409Y004330D01*
X008515Y004330D01*
X008516Y004329D01*
X008634Y004280D01*
X008761Y004280D01*
X008879Y004329D01*
X008880Y004330D01*
X009465Y004330D01*
X009466Y004329D01*
X009584Y004280D01*
X009711Y004280D01*
X009829Y004329D01*
X009830Y004330D01*
X011102Y004330D01*
X011160Y004306D01*
X011287Y004306D01*
X011405Y004355D01*
X011495Y004445D01*
X011544Y004562D01*
X011544Y004690D01*
X011527Y004730D01*
X011705Y004730D01*
X011678Y004664D01*
X011678Y004536D01*
X011726Y004419D01*
X011816Y004329D01*
X011934Y004280D01*
X012061Y004280D01*
X012179Y004329D01*
X012180Y004330D01*
X012705Y004330D01*
X012698Y004330D02*
X012698Y004312D01*
X012693Y004300D02*
X012109Y004300D01*
X012098Y004295D02*
X012098Y003150D01*
X012198Y003150D02*
X012198Y004330D01*
X012298Y004330D02*
X012298Y003150D01*
X012398Y003150D02*
X012398Y004330D01*
X012498Y004330D02*
X012498Y003150D01*
X012598Y003183D02*
X012598Y004330D01*
X012678Y004200D02*
X007368Y004200D01*
X007368Y004100D02*
X012693Y004100D01*
X012698Y004088D02*
X012698Y003283D01*
X012715Y003300D02*
X007818Y003300D01*
X007802Y003200D02*
X012615Y003200D01*
X012798Y003400D02*
X007802Y003400D01*
X007798Y003412D02*
X007798Y004330D01*
X007898Y004330D02*
X007898Y003150D01*
X007998Y003150D02*
X007998Y004330D01*
X008098Y004330D02*
X008098Y003150D01*
X008198Y003150D02*
X008198Y004330D01*
X008298Y004330D02*
X008298Y003150D01*
X008398Y003150D02*
X008398Y004330D01*
X008498Y004330D02*
X008498Y003150D01*
X008598Y003150D02*
X008598Y004295D01*
X008586Y004300D02*
X007379Y004300D01*
X007398Y004318D02*
X007398Y003712D01*
X007402Y003700D02*
X012798Y003700D01*
X012798Y003600D02*
X007609Y003600D01*
X007598Y003605D02*
X007598Y004330D01*
X007698Y004330D02*
X007698Y003553D01*
X007750Y003500D02*
X012798Y003500D01*
X012798Y003800D02*
X007368Y003800D01*
X007368Y003900D02*
X012798Y003900D01*
X012745Y004000D02*
X007368Y004000D01*
X007498Y004330D02*
X007498Y003620D01*
X007498Y003300D02*
X003798Y003300D01*
X003698Y003400D01*
X003698Y005550D01*
X003998Y005850D01*
X003998Y006800D01*
X003748Y007050D01*
X003748Y007250D01*
X004048Y007550D01*
X003598Y006600D02*
X003598Y005900D01*
X003798Y006153D02*
X003798Y006153D01*
X003798Y006347D01*
X003798Y006153D01*
X003798Y006200D02*
X003798Y006200D01*
X003798Y006300D02*
X003798Y006300D01*
X003798Y006347D02*
X003798Y006347D01*
X004668Y005700D02*
X012686Y005700D01*
X012698Y005695D02*
X012698Y005270D01*
X012798Y005270D02*
X012798Y005680D01*
X012598Y005747D02*
X012598Y005270D01*
X013498Y005270D02*
X013498Y005580D01*
X012586Y006300D02*
X009780Y006300D01*
X012586Y006300D01*
X012516Y006329D01*
X012426Y006419D01*
X012378Y006536D01*
X012378Y006664D01*
X012393Y006700D01*
X009715Y006700D01*
X009698Y006700D01*
X009698Y006717D02*
X009715Y006700D01*
X009698Y006717D02*
X009698Y006383D01*
X009698Y006717D01*
X009798Y006700D02*
X009798Y006300D01*
X009780Y006300D02*
X009698Y006383D01*
X009698Y006400D02*
X012445Y006400D01*
X012498Y006347D02*
X012498Y006300D01*
X012398Y006300D02*
X012398Y006488D01*
X012393Y006500D02*
X009698Y006500D01*
X009698Y006600D02*
X012378Y006600D01*
X012298Y006700D02*
X012298Y006300D01*
X012198Y006300D02*
X012198Y006700D01*
X012098Y006700D02*
X012098Y006300D01*
X011998Y006300D02*
X011998Y006700D01*
X011898Y006700D02*
X011898Y006300D01*
X011798Y006300D02*
X011798Y006700D01*
X011698Y006700D02*
X011698Y006300D01*
X011598Y006300D02*
X011598Y006700D01*
X011498Y006700D02*
X011498Y006300D01*
X011398Y006300D02*
X011398Y006700D01*
X011298Y006700D02*
X011298Y006300D01*
X011198Y006300D02*
X011198Y006700D01*
X011098Y006700D02*
X011098Y006300D01*
X010998Y006300D02*
X010998Y006700D01*
X010898Y006700D02*
X010898Y006300D01*
X010798Y006300D02*
X010798Y006700D01*
X010698Y006700D02*
X010698Y006300D01*
X010598Y006300D02*
X010598Y006700D01*
X010498Y006700D02*
X010498Y006300D01*
X010398Y006300D02*
X010398Y006700D01*
X010298Y006700D02*
X010298Y006300D01*
X010198Y006300D02*
X010198Y006700D01*
X010098Y006700D02*
X010098Y006300D01*
X009998Y006300D02*
X009998Y006700D01*
X009898Y006700D02*
X009898Y006300D01*
X009798Y005900D02*
X009798Y005320D01*
X009698Y005305D02*
X009698Y005900D01*
X009686Y005300D02*
X004368Y005300D01*
X004498Y005449D02*
X004498Y004520D01*
X004386Y004500D02*
X004368Y004500D01*
X004368Y004700D02*
X006228Y004700D01*
X006228Y004800D02*
X004368Y004800D01*
X004368Y004900D02*
X006228Y004900D01*
X006228Y005000D02*
X004368Y005000D01*
X004579Y005500D02*
X016228Y005500D01*
X016298Y005415D02*
X016298Y005405D01*
X016309Y005400D02*
X016312Y005400D01*
X016496Y005217D02*
X016512Y005200D01*
X016502Y005200D01*
X016505Y005193D02*
X016496Y005217D01*
X016498Y005215D02*
X016498Y005212D01*
X016512Y005200D02*
X016505Y005193D01*
X016983Y005200D02*
X017048Y005200D01*
X016998Y005185D02*
X016998Y005215D01*
X016983Y005200D02*
X017048Y005135D01*
X017048Y005265D01*
X016983Y005200D01*
X017448Y005200D02*
X017512Y005200D01*
X017448Y005265D01*
X017448Y005135D01*
X017512Y005200D01*
X017498Y005185D02*
X017498Y005215D01*
X017448Y004265D02*
X017512Y004200D01*
X017448Y004200D01*
X017498Y004185D02*
X017498Y004215D01*
X017512Y004200D02*
X017448Y004135D01*
X017448Y004265D01*
X017048Y004265D02*
X017048Y004135D01*
X016983Y004200D01*
X017048Y004200D01*
X016998Y004185D02*
X016998Y004215D01*
X016983Y004200D02*
X017048Y004265D01*
X016228Y003600D02*
X014509Y003600D01*
X014498Y003595D02*
X014498Y002350D01*
X014598Y002350D02*
X014598Y003647D01*
X014698Y003700D02*
X014698Y002350D01*
X014798Y002350D02*
X014798Y003700D01*
X014898Y003700D02*
X014898Y002350D01*
X014998Y002350D02*
X014998Y003700D01*
X015098Y003700D02*
X015098Y002350D01*
X015198Y002350D02*
X015198Y003700D01*
X015298Y003700D02*
X015298Y002350D01*
X015398Y002350D02*
X015398Y003700D01*
X015498Y003700D02*
X015498Y002350D01*
X016398Y002350D02*
X016398Y002357D01*
X017048Y002150D02*
X010398Y002150D01*
X010398Y002470D02*
X010398Y002500D01*
X010498Y002500D02*
X010498Y002455D01*
X010298Y002455D02*
X010298Y002500D01*
X010198Y002500D02*
X010198Y002403D01*
X010198Y003150D02*
X010198Y004330D01*
X010298Y004330D02*
X010298Y003150D01*
X010398Y003150D02*
X010398Y004330D01*
X010498Y004330D02*
X010498Y003150D01*
X010598Y003150D02*
X010598Y004330D01*
X010698Y004330D02*
X010698Y003150D01*
X010798Y003150D02*
X010798Y004330D01*
X010898Y004330D02*
X010898Y003150D01*
X010998Y003150D02*
X010998Y004330D01*
X011098Y004330D02*
X011098Y003150D01*
X011198Y003150D02*
X011198Y004306D01*
X011298Y004310D02*
X011298Y003150D01*
X011398Y003150D02*
X011398Y004352D01*
X011450Y004400D02*
X011745Y004400D01*
X011798Y004347D02*
X011798Y003150D01*
X011898Y003150D02*
X011898Y004295D01*
X011886Y004300D02*
X009759Y004300D01*
X009798Y004316D02*
X009798Y003150D01*
X009898Y003150D02*
X009898Y004330D01*
X009998Y004330D02*
X009998Y003150D01*
X010098Y003150D02*
X010098Y004330D01*
X009698Y004280D02*
X009698Y003150D01*
X009598Y003150D02*
X009598Y004280D01*
X009536Y004300D02*
X008809Y004300D01*
X008798Y004295D02*
X008798Y003150D01*
X008898Y003150D02*
X008898Y004330D01*
X008998Y004330D02*
X008998Y003150D01*
X009098Y003150D02*
X009098Y004330D01*
X009198Y004330D02*
X009198Y003150D01*
X009298Y003150D02*
X009298Y004330D01*
X009398Y004330D02*
X009398Y003150D01*
X009498Y003150D02*
X009498Y004316D01*
X008698Y004280D02*
X008698Y003150D01*
X007798Y003150D02*
X007798Y003188D01*
X006793Y003500D02*
X005702Y003500D01*
X006793Y003500D01*
X006778Y003536D01*
X006778Y003664D01*
X006826Y003781D01*
X006828Y003783D01*
X006828Y004454D01*
X006869Y004553D01*
X007046Y004730D01*
X006768Y004730D01*
X006768Y004683D01*
X006769Y004681D01*
X006818Y004564D01*
X006818Y004436D01*
X006769Y004319D01*
X006768Y004317D01*
X006768Y004146D01*
X006726Y004047D01*
X006650Y003971D01*
X006551Y003930D01*
X004680Y003930D01*
X004679Y003929D01*
X004561Y003880D01*
X004434Y003880D01*
X004368Y003907D01*
X004368Y003870D01*
X005215Y003870D01*
X005216Y003871D01*
X005334Y003920D01*
X005461Y003920D01*
X005579Y003871D01*
X005669Y003781D01*
X005718Y003664D01*
X005718Y003536D01*
X005702Y003500D01*
X005798Y003500D02*
X005798Y003930D01*
X005898Y003930D02*
X005898Y003500D01*
X005998Y003500D02*
X005998Y003930D01*
X006098Y003930D02*
X006098Y003500D01*
X006198Y003500D02*
X006198Y003930D01*
X006298Y003930D02*
X006298Y003500D01*
X006398Y003500D02*
X006398Y003930D01*
X006498Y003930D02*
X006498Y003500D01*
X006598Y003500D02*
X006598Y003949D01*
X006679Y004000D02*
X006828Y004000D01*
X006828Y004100D02*
X006748Y004100D01*
X006698Y004018D02*
X006698Y003500D01*
X006778Y003600D02*
X005718Y003600D01*
X005702Y003700D02*
X006793Y003700D01*
X006798Y003712D02*
X006798Y004388D01*
X006802Y004400D02*
X006828Y004400D01*
X006828Y004300D02*
X006768Y004300D01*
X006768Y004200D02*
X006828Y004200D01*
X006828Y003900D02*
X005509Y003900D01*
X005498Y003905D02*
X005498Y003930D01*
X005598Y003930D02*
X005598Y003853D01*
X005650Y003800D02*
X006828Y003800D01*
X006818Y004500D02*
X006847Y004500D01*
X006898Y004582D02*
X006898Y004730D01*
X006998Y004730D02*
X006998Y004682D01*
X007016Y004700D02*
X006768Y004700D01*
X006798Y004730D02*
X006798Y004612D01*
X006802Y004600D02*
X006916Y004600D01*
X005698Y003930D02*
X005698Y003712D01*
X005398Y003920D02*
X005398Y003930D01*
X005298Y003930D02*
X005298Y003905D01*
X005286Y003900D02*
X004609Y003900D01*
X004598Y003895D02*
X004598Y003870D01*
X004698Y003870D02*
X004698Y003930D01*
X004798Y003930D02*
X004798Y003870D01*
X004898Y003870D02*
X004898Y003930D01*
X004998Y003930D02*
X004998Y003870D01*
X005098Y003870D02*
X005098Y003930D01*
X005198Y003930D02*
X005198Y003870D01*
X004498Y003870D02*
X004498Y003880D01*
X004398Y003870D02*
X004398Y003895D01*
X004386Y003900D02*
X004368Y003900D01*
X003498Y003900D02*
X003348Y003900D01*
X003348Y003916D02*
X003348Y003160D01*
X003655Y003160D01*
X003615Y003200D01*
X003348Y003200D01*
X003398Y003160D02*
X003398Y003947D01*
X003379Y003929D02*
X003469Y004019D01*
X003498Y004088D01*
X003498Y003317D01*
X003498Y003160D01*
X003598Y003160D02*
X003598Y003217D01*
X003615Y003200D02*
X003498Y003317D01*
X003515Y003300D02*
X003348Y003300D01*
X003348Y003400D02*
X003498Y003400D01*
X003498Y003500D02*
X003348Y003500D01*
X003348Y003600D02*
X003498Y003600D01*
X003498Y003700D02*
X003348Y003700D01*
X003348Y003800D02*
X003498Y003800D01*
X003379Y003929D02*
X003348Y003916D01*
X003450Y004000D02*
X003498Y004000D01*
X003498Y004312D02*
X003469Y004381D01*
X003468Y004383D01*
X003468Y005607D01*
X003498Y005595D01*
X003498Y004312D01*
X003498Y004400D02*
X003468Y004400D01*
X003468Y004500D02*
X003498Y004500D01*
X003498Y004600D02*
X003468Y004600D01*
X003468Y004700D02*
X003498Y004700D01*
X003498Y004800D02*
X003468Y004800D01*
X003468Y004900D02*
X003498Y004900D01*
X003498Y005000D02*
X003468Y005000D01*
X003468Y005100D02*
X003498Y005100D01*
X003498Y005200D02*
X003468Y005200D01*
X003468Y005300D02*
X003498Y005300D01*
X003498Y005400D02*
X003468Y005400D01*
X003468Y005500D02*
X003498Y005500D01*
X003486Y005600D02*
X003468Y005600D01*
X006798Y008300D02*
X007298Y007800D01*
X007498Y008000D02*
X007198Y008400D01*
X006945Y008600D02*
X004795Y008600D01*
X004798Y008597D02*
X004798Y008780D01*
X004859Y008800D02*
X005963Y008800D01*
X005998Y008747D02*
X005998Y008510D01*
X006098Y008510D02*
X006098Y008666D01*
X006045Y008700D02*
X004695Y008700D01*
X004698Y008697D02*
X004698Y008780D01*
X004636Y008800D02*
X004595Y008800D01*
X004598Y008797D02*
X004598Y008816D01*
X004498Y008897D02*
X004498Y008897D01*
X004495Y008900D02*
X004495Y008900D01*
X004398Y008910D02*
X004398Y009550D01*
X004498Y009547D02*
X004498Y009303D01*
X004495Y009300D02*
X003348Y009300D01*
X003348Y009200D02*
X004443Y009200D01*
X004428Y009100D02*
X003348Y009100D01*
X003348Y009000D02*
X004443Y009000D01*
X004298Y008910D02*
X004298Y009550D01*
X004198Y009550D02*
X004198Y008910D01*
X004098Y008910D02*
X004098Y009567D01*
X004065Y009600D02*
X003348Y009600D01*
X003348Y009500D02*
X004545Y009500D01*
X004598Y009466D02*
X004598Y009384D01*
X004636Y009400D02*
X003348Y009400D01*
X003348Y009700D02*
X003965Y009700D01*
X003998Y009667D02*
X003998Y008910D01*
X003898Y008910D02*
X003898Y009767D01*
X003865Y009800D02*
X003348Y009800D01*
X003348Y009900D02*
X003765Y009900D01*
X003815Y009850D02*
X003698Y009967D01*
X003698Y010000D02*
X003348Y010000D01*
X003348Y010100D02*
X003698Y010100D01*
X003698Y010200D02*
X003348Y010200D01*
X003348Y010300D02*
X003633Y010300D01*
X003598Y010335D02*
X003598Y008910D01*
X003498Y008910D02*
X003498Y010435D01*
X003533Y010400D02*
X003348Y010400D01*
X003348Y010500D02*
X003433Y010500D01*
X003428Y010600D02*
X003348Y010600D01*
X003348Y010700D02*
X003428Y010700D01*
X003428Y010800D02*
X003348Y010800D01*
X003348Y010900D02*
X003433Y010900D01*
X003498Y010965D02*
X003498Y012020D01*
X003398Y012020D02*
X003398Y008910D01*
X004198Y009750D02*
X003898Y010050D01*
X003898Y010700D01*
X004262Y010400D02*
X004533Y010400D01*
X004498Y010435D02*
X004498Y009953D01*
X004545Y010000D02*
X004230Y010000D01*
X004198Y010033D02*
X004198Y010335D01*
X004162Y010300D02*
X004633Y010300D01*
X004598Y010335D02*
X004598Y010034D01*
X004698Y010070D02*
X004698Y010235D01*
X004798Y010230D02*
X004798Y010070D01*
X004898Y010034D02*
X004898Y010230D01*
X004998Y010200D02*
X004098Y010200D01*
X004098Y010235D02*
X004098Y010133D01*
X004130Y010100D02*
X004998Y010100D01*
X004998Y010000D02*
X004950Y010000D01*
X004748Y009750D02*
X004198Y009750D01*
X004298Y009950D02*
X004298Y010435D01*
X004362Y010500D02*
X004433Y010500D01*
X004428Y010600D02*
X004368Y010600D01*
X004368Y010700D02*
X004428Y010700D01*
X004428Y010800D02*
X004368Y010800D01*
X004362Y010900D02*
X004433Y010900D01*
X004498Y010965D02*
X004498Y012020D01*
X004398Y012020D02*
X004398Y009950D01*
X004698Y009430D02*
X004698Y009420D01*
X004798Y009420D02*
X004798Y009430D01*
X004859Y009400D02*
X004878Y009400D01*
X005198Y009450D02*
X005198Y010400D01*
X004898Y010700D01*
X005368Y010700D02*
X005428Y010700D01*
X005428Y010600D02*
X005368Y010600D01*
X005380Y010500D02*
X005433Y010500D01*
X005498Y010435D02*
X005498Y009562D01*
X005482Y009600D02*
X007398Y009600D01*
X007398Y009500D02*
X005518Y009500D01*
X005518Y009514D02*
X005469Y009631D01*
X005398Y009703D01*
X005398Y012020D01*
X005498Y012020D02*
X005498Y010965D01*
X005533Y011000D02*
X005262Y011000D01*
X005298Y010965D02*
X005298Y012020D01*
X005198Y012020D02*
X005198Y011065D01*
X005362Y010900D02*
X005433Y010900D01*
X005428Y010800D02*
X005368Y010800D01*
X005398Y010400D02*
X005533Y010400D01*
X005598Y010335D02*
X005598Y009300D01*
X005698Y009300D02*
X005698Y010235D01*
X005633Y010300D02*
X005398Y010300D01*
X005398Y010200D02*
X006495Y010200D01*
X006498Y010203D02*
X006498Y010435D01*
X006533Y010400D02*
X006262Y010400D01*
X006298Y010435D02*
X006298Y009270D01*
X006198Y009283D02*
X006198Y010335D01*
X006162Y010300D02*
X006633Y010300D01*
X006598Y010335D02*
X006598Y010255D01*
X006898Y010230D02*
X006898Y010203D01*
X006900Y010200D02*
X007115Y010200D01*
X007098Y010183D02*
X007098Y010235D01*
X007162Y010300D02*
X007215Y010300D01*
X007198Y010283D02*
X007198Y010335D01*
X007262Y010400D02*
X007315Y010400D01*
X007298Y010383D02*
X007298Y010435D01*
X007362Y010500D02*
X007415Y010500D01*
X007398Y010483D02*
X007398Y012020D01*
X007498Y012020D02*
X007498Y010965D01*
X007533Y011000D02*
X007262Y011000D01*
X007298Y010965D02*
X007298Y012020D01*
X007198Y012020D02*
X007198Y011065D01*
X007362Y010900D02*
X007433Y010900D01*
X007428Y010800D02*
X007368Y010800D01*
X007368Y010700D02*
X007428Y010700D01*
X007428Y010600D02*
X007368Y010600D01*
X006998Y010230D02*
X006998Y010150D01*
X007148Y009950D02*
X006698Y009950D01*
X006398Y010062D02*
X006398Y012020D01*
X006498Y012020D02*
X006498Y010965D01*
X006533Y011000D02*
X006262Y011000D01*
X006298Y010965D02*
X006298Y012020D01*
X006198Y012020D02*
X006198Y011065D01*
X006362Y010900D02*
X006433Y010900D01*
X006428Y010800D02*
X006368Y010800D01*
X006368Y010700D02*
X006428Y010700D01*
X006428Y010600D02*
X006368Y010600D01*
X006362Y010500D02*
X006433Y010500D01*
X006098Y010235D02*
X006098Y009300D01*
X005998Y009300D02*
X005998Y010230D01*
X005898Y010230D02*
X005898Y009300D01*
X005798Y009300D02*
X005798Y010230D01*
X005398Y010100D02*
X006413Y010100D01*
X006378Y010000D02*
X005398Y010000D01*
X005398Y009900D02*
X006378Y009900D01*
X006495Y009700D02*
X005400Y009700D01*
X005518Y009514D02*
X005518Y009386D01*
X005482Y009300D01*
X005498Y009300D02*
X005498Y009338D01*
X005518Y009400D02*
X007398Y009400D01*
X007398Y009700D02*
X006900Y009700D01*
X006898Y009697D02*
X006898Y008512D01*
X006798Y008510D02*
X006798Y009645D01*
X006698Y009630D02*
X006698Y008510D01*
X006598Y008510D02*
X006598Y009645D01*
X006498Y009697D02*
X006498Y009153D01*
X006532Y009100D02*
X007398Y009100D01*
X007378Y009000D02*
X006568Y009000D01*
X006568Y008900D02*
X007378Y008900D01*
X007398Y008838D02*
X007398Y008653D01*
X007498Y008653D02*
X007498Y008697D01*
X007495Y008700D02*
X007309Y008700D01*
X007298Y008705D02*
X007298Y009817D01*
X007280Y009800D02*
X007398Y009800D01*
X007398Y009900D02*
X007380Y009900D01*
X007198Y009750D02*
X007198Y008720D01*
X007098Y008705D02*
X007098Y009750D01*
X006998Y009750D02*
X006998Y008653D01*
X007086Y008700D02*
X006450Y008700D01*
X006398Y008666D02*
X006398Y008510D01*
X006498Y008510D02*
X006498Y008747D01*
X006532Y008800D02*
X007413Y008800D01*
X007698Y008400D02*
X014498Y008400D01*
X014598Y008500D01*
X014598Y008600D01*
X014598Y008400D02*
X014498Y008400D01*
X014098Y008600D02*
X014098Y009300D01*
X013998Y009300D02*
X013998Y008600D01*
X013898Y008600D02*
X013898Y009300D01*
X013798Y009300D02*
X013798Y008600D01*
X013698Y008600D02*
X013698Y009300D01*
X013598Y009300D02*
X013598Y008600D01*
X013498Y008600D02*
X013498Y009300D01*
X013398Y009300D02*
X013398Y008600D01*
X013298Y008600D02*
X013298Y009300D01*
X013198Y009300D02*
X013198Y008600D01*
X013098Y008600D02*
X013098Y009300D01*
X012998Y009300D02*
X012998Y008600D01*
X012898Y008600D02*
X012898Y009300D01*
X012798Y009300D02*
X012798Y008600D01*
X012498Y008600D02*
X012498Y008895D01*
X012398Y008880D02*
X012398Y008600D01*
X012298Y008600D02*
X012298Y008895D01*
X012198Y008900D02*
X012198Y008600D01*
X012098Y008600D02*
X012098Y008900D01*
X011998Y008900D02*
X011998Y008600D01*
X011898Y008600D02*
X011898Y008900D01*
X011798Y008900D02*
X011798Y008600D01*
X011698Y008600D02*
X011698Y008900D01*
X011598Y008900D02*
X011598Y008600D01*
X011498Y008600D02*
X011498Y008900D01*
X011398Y008900D02*
X011398Y008600D01*
X011298Y008600D02*
X011298Y008900D01*
X011198Y008900D02*
X011198Y008600D01*
X011098Y008600D02*
X011098Y008900D01*
X010998Y008900D02*
X010998Y008600D01*
X010898Y008600D02*
X010898Y008900D01*
X010898Y009100D02*
X012398Y009100D01*
X012398Y009200D01*
X012098Y009500D02*
X015948Y009500D01*
X016748Y008700D01*
X017048Y008265D02*
X017048Y008135D01*
X016983Y008200D01*
X017048Y008200D01*
X016998Y008185D02*
X016998Y008215D01*
X016983Y008200D02*
X017048Y008265D01*
X017448Y008265D02*
X017512Y008200D01*
X017448Y008200D01*
X017498Y008185D02*
X017498Y008215D01*
X017512Y008200D02*
X017448Y008135D01*
X017448Y008265D01*
X018268Y008500D02*
X018318Y008500D01*
X018318Y008600D02*
X018268Y008600D01*
X018268Y008700D02*
X018318Y008700D01*
X018318Y008800D02*
X018268Y008800D01*
X018268Y008900D02*
X018318Y008900D01*
X018318Y009000D02*
X018183Y009000D01*
X018198Y008985D02*
X018198Y009198D01*
X018200Y009200D02*
X018318Y009200D01*
X018318Y009300D02*
X018268Y009300D01*
X018268Y009400D02*
X018318Y009400D01*
X018318Y009500D02*
X018268Y009500D01*
X018268Y009600D02*
X018318Y009600D01*
X018318Y009700D02*
X018268Y009700D01*
X018268Y009800D02*
X018318Y009800D01*
X018318Y009900D02*
X018268Y009900D01*
X018268Y010000D02*
X018318Y010000D01*
X018318Y010100D02*
X018268Y010100D01*
X018318Y010200D02*
X018200Y010200D01*
X018198Y010202D02*
X018198Y011131D01*
X018166Y011100D02*
X018318Y011100D01*
X018318Y011000D02*
X018066Y011000D01*
X018098Y011031D02*
X018098Y010220D01*
X017998Y010220D02*
X017998Y010965D01*
X017898Y010924D02*
X017898Y010220D01*
X017798Y010220D02*
X017798Y010906D01*
X017698Y010906D02*
X017698Y010220D01*
X017598Y010220D02*
X017598Y010924D01*
X017498Y010965D02*
X017498Y010220D01*
X017398Y010220D02*
X017398Y011031D01*
X017429Y011000D02*
X015220Y011000D01*
X015198Y011022D02*
X015198Y012020D01*
X015698Y012020D02*
X015698Y010305D01*
X015798Y010320D02*
X015798Y012020D01*
X016098Y012020D02*
X016098Y010112D01*
X016102Y010100D02*
X016412Y010100D01*
X016398Y010085D02*
X016398Y012020D01*
X016298Y012020D02*
X016298Y009985D01*
X016312Y010000D02*
X016118Y010000D01*
X016102Y009900D02*
X016228Y009900D01*
X016228Y009800D02*
X016050Y009800D01*
X015998Y009747D02*
X015998Y009700D01*
X015909Y009700D02*
X016228Y009700D01*
X016228Y009600D02*
X016130Y009600D01*
X016098Y009633D02*
X016098Y009888D01*
X016198Y009533D02*
X016198Y012020D01*
X017498Y012020D02*
X017498Y011935D01*
X017598Y011976D02*
X017598Y012020D01*
X017698Y012020D02*
X017698Y011994D01*
X017798Y011994D02*
X017798Y012020D01*
X017898Y012020D02*
X017898Y011976D01*
X017998Y011935D02*
X017998Y012020D01*
X018098Y012020D02*
X018098Y011869D01*
X018066Y011900D02*
X018318Y011900D01*
X018318Y011800D02*
X018166Y011800D01*
X018198Y011769D02*
X018198Y012020D01*
X018232Y011700D02*
X018318Y011700D01*
X018318Y011600D02*
X018274Y011600D01*
X018291Y011500D02*
X018318Y011500D01*
X018318Y011400D02*
X018291Y011400D01*
X018274Y011300D02*
X018318Y011300D01*
X018318Y011200D02*
X018232Y011200D01*
X018318Y010500D02*
X015320Y010500D01*
X015298Y010478D02*
X015298Y010270D01*
X015198Y010650D02*
X015198Y010750D01*
X015098Y010750D02*
X015098Y010650D01*
X014848Y010700D02*
X014368Y010700D01*
X014368Y010600D02*
X014458Y010600D01*
X014498Y010650D02*
X014498Y010750D01*
X014458Y010800D02*
X014368Y010800D01*
X014598Y010750D02*
X014598Y010650D01*
X014698Y010650D02*
X014698Y010750D01*
X014798Y010750D02*
X014798Y010650D01*
X014848Y010900D02*
X014948Y010900D01*
X014948Y011000D02*
X014848Y011000D01*
X014475Y010500D02*
X014362Y010500D01*
X014498Y010478D02*
X014498Y010270D01*
X014198Y010270D02*
X014198Y010335D01*
X013533Y010400D02*
X013262Y010400D01*
X013298Y010435D02*
X013298Y009700D01*
X013398Y009700D02*
X013398Y012020D01*
X013498Y012020D02*
X013498Y010965D01*
X013533Y011000D02*
X013262Y011000D01*
X013298Y010965D02*
X013298Y012020D01*
X013198Y012020D02*
X013198Y011065D01*
X013362Y010900D02*
X013433Y010900D01*
X013428Y010800D02*
X013368Y010800D01*
X013368Y010700D02*
X013428Y010700D01*
X013428Y010600D02*
X013368Y010600D01*
X013362Y010500D02*
X013433Y010500D01*
X013498Y010435D02*
X013498Y009700D01*
X012598Y009800D02*
X012098Y009800D01*
X011898Y009600D01*
X011098Y009600D01*
X010898Y009800D01*
X008348Y009800D01*
X008043Y009900D02*
X007798Y009900D01*
X007798Y009917D02*
X007798Y009784D01*
X007798Y009917D01*
X007880Y010000D01*
X008095Y010000D01*
X008076Y009981D01*
X008028Y009864D01*
X008028Y009813D01*
X008011Y009820D01*
X007884Y009820D01*
X007798Y009784D01*
X007798Y009800D02*
X007836Y009800D01*
X007898Y009820D02*
X007898Y010000D01*
X007998Y010000D02*
X007998Y009820D01*
X007948Y009500D02*
X010898Y009500D01*
X011098Y009300D01*
X011898Y009300D01*
X012098Y009500D01*
X011915Y010200D02*
X011718Y010200D01*
X011915Y010200D01*
X011945Y010230D01*
X011718Y010230D01*
X011718Y010200D01*
X011798Y010200D02*
X011798Y010230D01*
X011898Y010230D02*
X011898Y010200D01*
X011398Y010200D02*
X008998Y010200D01*
X008898Y010300D01*
X008898Y010700D01*
X008428Y010700D02*
X008368Y010700D01*
X008368Y010600D02*
X008428Y010600D01*
X008433Y010500D02*
X008362Y010500D01*
X008298Y010435D02*
X008298Y010400D01*
X008262Y010400D02*
X008533Y010400D01*
X008498Y010400D02*
X008498Y010435D01*
X008398Y010400D02*
X008398Y012020D01*
X008498Y012020D02*
X008498Y010965D01*
X008533Y011000D02*
X008262Y011000D01*
X008298Y010965D02*
X008298Y012020D01*
X008198Y012020D02*
X008198Y011065D01*
X008362Y010900D02*
X008433Y010900D01*
X008428Y010800D02*
X008368Y010800D01*
X007898Y010700D02*
X007148Y009950D01*
X008198Y009297D02*
X008198Y008600D01*
X008298Y008600D02*
X008298Y009300D01*
X008398Y009300D02*
X008398Y008600D01*
X008498Y008600D02*
X008498Y009300D01*
X008598Y009300D02*
X008598Y008600D01*
X008898Y008600D02*
X008898Y008880D01*
X008998Y008880D02*
X008998Y008600D01*
X008948Y009200D02*
X010798Y009200D01*
X010898Y009100D01*
X009878Y007900D02*
X009780Y007900D01*
X009798Y007883D02*
X009798Y007883D01*
X009901Y007779D01*
X009898Y007783D02*
X009898Y007788D01*
X009893Y007800D02*
X009880Y007800D01*
X007998Y008100D02*
X007898Y008000D01*
X007498Y008000D01*
X006298Y008510D02*
X006298Y008630D01*
X006198Y008630D02*
X006198Y008510D01*
X005898Y008510D02*
X005898Y008900D01*
X005798Y008900D02*
X005798Y008510D01*
X005698Y008510D02*
X005698Y008900D01*
X005598Y008900D02*
X005598Y008510D01*
X005498Y008510D02*
X005498Y008900D01*
X005398Y008900D02*
X005398Y008510D01*
X005298Y008510D02*
X005298Y008900D01*
X005198Y008900D02*
X005198Y008510D01*
X005098Y008510D02*
X005098Y008900D01*
X004998Y008897D02*
X004998Y008510D01*
X004898Y008510D02*
X004898Y008816D01*
X004748Y009100D02*
X006098Y009100D01*
X006248Y008950D01*
X004298Y010965D02*
X004298Y012020D01*
X004198Y012020D02*
X004198Y011065D01*
X004262Y011000D02*
X004533Y011000D01*
X003533Y011000D02*
X003348Y011000D01*
X009198Y011065D02*
X009198Y012020D01*
X009298Y012020D02*
X009298Y010965D01*
X009262Y011000D02*
X009533Y011000D01*
X009498Y010965D02*
X009498Y012020D01*
X009398Y012020D02*
X009398Y010400D01*
X009498Y010400D02*
X009498Y010435D01*
X009533Y010400D02*
X009262Y010400D01*
X009298Y010400D02*
X009298Y010435D01*
X009362Y010500D02*
X009433Y010500D01*
X009428Y010600D02*
X009368Y010600D01*
X009368Y010700D02*
X009428Y010700D01*
X009428Y010800D02*
X009368Y010800D01*
X009362Y010900D02*
X009433Y010900D01*
X010198Y011065D02*
X010198Y012020D01*
X010298Y012020D02*
X010298Y010965D01*
X010262Y011000D02*
X010533Y011000D01*
X010498Y010965D02*
X010498Y012020D01*
X010398Y012020D02*
X010398Y010400D01*
X010498Y010400D02*
X010498Y010435D01*
X010533Y010400D02*
X010262Y010400D01*
X010298Y010400D02*
X010298Y010435D01*
X010362Y010500D02*
X010433Y010500D01*
X010428Y010600D02*
X010368Y010600D01*
X010368Y010700D02*
X010428Y010700D01*
X010428Y010800D02*
X010368Y010800D01*
X010362Y010900D02*
X010433Y010900D01*
X011198Y011065D02*
X011198Y012020D01*
X011298Y012020D02*
X011298Y010965D01*
X011262Y011000D02*
X011533Y011000D01*
X011498Y010965D02*
X011498Y012020D01*
X011398Y012020D02*
X011398Y010520D01*
X011368Y010600D02*
X011428Y010600D01*
X011428Y010700D02*
X011368Y010700D01*
X011368Y010800D02*
X011428Y010800D01*
X011433Y010900D02*
X011362Y010900D01*
X012198Y011065D02*
X012198Y012020D01*
X012298Y012020D02*
X012298Y010965D01*
X012262Y011000D02*
X012533Y011000D01*
X012498Y010965D02*
X012498Y012020D01*
X012398Y012020D02*
X012398Y010520D01*
X012368Y010600D02*
X012428Y010600D01*
X012428Y010700D02*
X012368Y010700D01*
X012368Y010800D02*
X012428Y010800D01*
X012433Y010900D02*
X012362Y010900D01*
X014709Y008900D02*
X016228Y008900D01*
X016983Y009200D02*
X017048Y009200D01*
X016998Y009185D02*
X016998Y009215D01*
X016983Y009200D02*
X017048Y009135D01*
X017048Y009265D01*
X016983Y009200D01*
X017248Y009200D02*
X017248Y002350D01*
X017048Y002150D01*
X017448Y002300D02*
X017455Y002300D01*
X017498Y002257D02*
X017498Y001435D01*
X017448Y003093D02*
X017448Y003265D01*
X017532Y003180D01*
X017535Y003180D01*
X017448Y003093D01*
X017448Y003100D02*
X017455Y003100D01*
X017498Y003143D02*
X017498Y003215D01*
X017512Y003200D02*
X017448Y003200D01*
X017048Y003200D02*
X016983Y003200D01*
X016998Y003215D02*
X016998Y003143D01*
X016963Y003180D02*
X017048Y003265D01*
X017048Y003093D01*
X016960Y003180D01*
X016963Y003180D01*
X017040Y003100D02*
X017048Y003100D01*
X016228Y003500D02*
X013998Y003500D01*
X013998Y003600D02*
X014286Y003600D01*
X014298Y003595D02*
X014298Y002350D01*
X014398Y002350D02*
X014398Y003580D01*
X014198Y003647D02*
X014198Y002350D01*
X013498Y002350D02*
X013498Y002517D01*
X013398Y002700D02*
X013798Y003100D01*
X013598Y003200D02*
X013180Y003200D01*
X013198Y003300D02*
X013598Y003300D01*
X013598Y003400D02*
X013198Y003400D01*
X013198Y003500D02*
X013598Y003500D01*
X013598Y003600D02*
X013198Y003600D01*
X013198Y003700D02*
X013598Y003700D01*
X013545Y003800D02*
X013198Y003800D01*
X013269Y004019D02*
X013318Y004136D01*
X013298Y004312D02*
X013298Y004330D01*
X013998Y004330D02*
X013998Y004253D01*
X014050Y004200D02*
X014286Y004200D01*
X014298Y004205D02*
X014298Y004330D01*
X014398Y004330D02*
X014398Y004220D01*
X014198Y004153D02*
X014198Y004330D01*
X014098Y004330D02*
X014098Y004112D01*
X014102Y004100D02*
X014145Y004100D01*
X014145Y003700D02*
X013998Y003700D01*
X013315Y002900D02*
X012880Y002900D01*
X012898Y002900D02*
X012898Y002917D01*
X013398Y002700D02*
X001848Y002700D01*
X011498Y003150D02*
X011498Y004451D01*
X011518Y004500D02*
X011693Y004500D01*
X011698Y004488D02*
X011698Y003150D01*
X011598Y003150D02*
X011598Y004730D01*
X011539Y004700D02*
X011693Y004700D01*
X011698Y004712D02*
X011698Y004730D01*
X011678Y004600D02*
X011544Y004600D01*
X011998Y004280D02*
X011998Y003150D01*
X014598Y001750D02*
X014598Y001650D01*
X014698Y001650D02*
X014698Y001750D01*
X017998Y003143D02*
X017998Y003215D01*
X017983Y003200D02*
X018318Y003200D01*
X018318Y003100D02*
X018040Y003100D01*
X018098Y003043D02*
X018098Y003315D01*
X018083Y003300D02*
X018318Y003300D01*
X018318Y003400D02*
X018183Y003400D01*
X018140Y003000D02*
X018318Y003000D01*
X015569Y005353D02*
X015569Y005353D01*
X015516Y005300D02*
X015009Y005300D01*
X014998Y005305D02*
X014998Y005700D01*
X015098Y005700D02*
X015098Y005270D01*
X015198Y005270D02*
X015198Y005700D01*
X015298Y005700D02*
X015298Y005270D01*
X015398Y005270D02*
X015398Y005700D01*
X015498Y005700D02*
X015498Y005282D01*
X014898Y005320D02*
X014898Y005700D01*
X016983Y007200D02*
X017048Y007200D01*
X016998Y007185D02*
X016998Y007215D01*
X016983Y007200D02*
X017048Y007135D01*
X017048Y007265D01*
X016983Y007200D01*
X017448Y007200D02*
X017512Y007200D01*
X017448Y007265D01*
X017448Y007135D01*
X017512Y007200D01*
X017498Y007185D02*
X017498Y007215D01*
X018268Y007500D02*
X018318Y007500D01*
X018318Y007600D02*
X018268Y007600D01*
X018268Y007700D02*
X018318Y007700D01*
X018318Y007800D02*
X018268Y007800D01*
X018268Y007900D02*
X018318Y007900D01*
X018318Y006900D02*
X018268Y006900D01*
X018268Y006800D02*
X018318Y006800D01*
X018318Y006700D02*
X018268Y006700D01*
X018268Y006600D02*
X018318Y006600D01*
X018318Y006500D02*
X018268Y006500D01*
X018098Y009085D02*
X018098Y009180D01*
X018083Y009100D02*
X018318Y009100D01*
X017748Y009700D02*
X017248Y009200D01*
D15*
X001848Y002200D03*
X001848Y003200D03*
X003198Y004200D03*
X004498Y004200D03*
X005398Y003600D03*
X006498Y004500D03*
X007098Y003600D03*
X007498Y003300D03*
X008698Y004600D03*
X009648Y004600D03*
X009798Y005000D03*
X011224Y004626D03*
X011998Y004600D03*
X012998Y004200D03*
X013798Y004000D03*
X014398Y003900D03*
X015798Y004600D03*
X016198Y005100D03*
X015298Y005400D03*
X014898Y005000D03*
X014098Y005400D03*
X013498Y005900D03*
X012798Y006000D03*
X012698Y006600D03*
X014098Y007200D03*
X014898Y007900D03*
X014598Y008600D03*
X015298Y009000D03*
X016198Y008200D03*
X015798Y010000D03*
X012598Y009800D03*
X012398Y010200D03*
X011398Y010200D03*
X012398Y009200D03*
X011198Y008800D03*
X010198Y007900D03*
X010698Y007400D03*
X011298Y007500D03*
X009198Y008800D03*
X008948Y009200D03*
X008348Y009800D03*
X007948Y009500D03*
X007698Y008950D03*
X007698Y008400D03*
X007198Y008400D03*
X006698Y007900D03*
X006998Y007500D03*
X005998Y006300D03*
X006898Y005900D03*
X004498Y005300D03*
X003598Y005900D03*
X003598Y006600D03*
X004198Y007100D03*
X004548Y007550D03*
X003198Y008200D03*
X001798Y009200D03*
X001798Y010200D03*
X004748Y009750D03*
X005198Y009450D03*
X004748Y009100D03*
X006248Y008950D03*
X006698Y009950D03*
X011498Y005500D03*
X010398Y002150D03*
D16*
X007098Y003600D02*
X007098Y004400D01*
X007298Y004600D01*
X008698Y004600D01*
X009648Y004600D01*
X011198Y004600D01*
X011224Y004626D01*
X011998Y004600D02*
X015798Y004600D01*
X015898Y004700D01*
X016748Y004700D01*
X016198Y005100D02*
X016098Y005200D01*
X015798Y005200D01*
X015598Y005000D01*
X014898Y005000D01*
X009798Y005000D01*
X006498Y005000D01*
X006498Y004500D01*
X006498Y004200D01*
X004498Y004200D01*
X004098Y003600D02*
X004098Y005500D01*
X004298Y005700D01*
X004398Y005700D01*
X004398Y007100D01*
X004198Y007100D01*
X003198Y008200D02*
X003198Y004200D01*
X004098Y003600D02*
X005398Y003600D01*
X005998Y005300D02*
X004498Y005300D01*
X005998Y005300D02*
X005998Y006300D01*
X006898Y006300D01*
X006898Y005900D01*
X006898Y005600D01*
X006998Y005500D01*
X011498Y005500D01*
X011598Y005400D01*
X014098Y005400D01*
X015298Y005400D01*
X014898Y007900D02*
X010198Y007900D01*
X009198Y008800D02*
X011198Y008800D01*
X012698Y008800D01*
X012898Y009000D01*
X015298Y009000D01*
X015798Y010000D02*
X013998Y010000D01*
X013898Y010100D01*
X013898Y010700D01*
D17*
X006798Y008300D02*
X004798Y008300D01*
X004398Y008700D01*
X001838Y008700D01*
X001802Y008700D01*
X001848Y003200D02*
X002098Y002950D01*
X007498Y002950D01*
D18*
X001848Y002700D02*
X001848Y002200D01*
X001838Y008700D02*
X001838Y009160D01*
X001798Y009200D01*
M02*
