G75*
%MOIN*%
%OFA0B0*%
%FSLAX24Y24*%
%IPPOS*%
%LPD*%
%AMOC8*
5,1,8,0,0,1.08239X$1,22.5*
%
%ADD10R,0.0720X0.0720*%
%ADD11OC8,0.0720*%
%ADD12C,0.0867*%
%ADD13R,0.0820X0.0820*%
%ADD14OC8,0.0820*%
D10*
X003898Y001700D03*
D11*
X004898Y001700D03*
X005898Y001700D03*
X006898Y001700D03*
X007898Y001700D03*
X008898Y001700D03*
X009898Y001700D03*
X010898Y001700D03*
X011898Y001700D03*
X012898Y001700D03*
X013898Y001700D03*
X014898Y001700D03*
X014898Y010700D03*
X013898Y010700D03*
X012898Y010700D03*
X011898Y010700D03*
X010898Y010700D03*
X009898Y010700D03*
X008898Y010700D03*
X007898Y010700D03*
X006898Y010700D03*
X005898Y010700D03*
X004898Y010700D03*
X003898Y010700D03*
D12*
X001748Y000950D03*
X001748Y011450D03*
X017748Y011450D03*
X017748Y000950D03*
D13*
X017748Y009700D03*
D14*
X016748Y009700D03*
X016748Y008700D03*
X017748Y008700D03*
X017748Y007700D03*
X016748Y007700D03*
X016748Y006700D03*
X017748Y006700D03*
X017748Y005700D03*
X016748Y005700D03*
X016748Y004700D03*
X017748Y004700D03*
X017748Y003700D03*
X016748Y003700D03*
X016748Y002700D03*
X017748Y002700D03*
M02*
