%
M48
M72
T01C0.0140
T02C0.0400
T03C0.0787
%
T01
X1848Y2200
X1848Y3200
X3198Y4200
X4498Y4200
X5398Y3600
X6498Y4500
X7098Y3600
X7498Y3300
X8698Y4600
X9648Y4600
X9798Y5000
X11224Y4626
X11998Y4600
X12998Y4200
X13798Y4000
X14398Y3900
X15798Y4600
X16198Y5100
X15298Y5400
X14898Y5000
X14098Y5400
X13498Y5900
X12798Y6000
X12698Y6600
X14098Y7200
X14898Y7900
X14598Y8600
X15298Y9000
X16198Y8200
X15798Y10000
X12598Y9800
X12398Y10200
X11398Y10200
X12398Y9200
X11198Y8800
X10198Y7900
X10698Y7400
X11298Y7500
X9198Y8800
X8948Y9200
X8348Y9800
X7948Y9500
X7698Y8950
X7698Y8400
X7198Y8400
X6698Y7900
X6998Y7500
X5998Y6300
X6898Y5900
X4498Y5300
X3598Y5900
X3598Y6600
X4198Y7100
X4548Y7550
X3198Y8200
X1798Y9200
X1798Y10200
X4748Y9750
X5198Y9450
X4748Y9100
X6248Y8950
X6698Y9950
X11498Y5500
X10398Y2150
T02
X10898Y1700
X11898Y1700
X12898Y1700
X13898Y1700
X14898Y1700
X16748Y2700
X17748Y2700
X17748Y3700
X16748Y3700
X16748Y4700
X17748Y4700
X17748Y5700
X16748Y5700
X16748Y6700
X17748Y6700
X17748Y7700
X16748Y7700
X16748Y8700
X17748Y8700
X17748Y9700
X16748Y9700
X14898Y10700
X13898Y10700
X12898Y10700
X11898Y10700
X10898Y10700
X9898Y10700
X8898Y10700
X7898Y10700
X6898Y10700
X5898Y10700
X4898Y10700
X3898Y10700
X3898Y1700
X4898Y1700
X5898Y1700
X6898Y1700
X7898Y1700
X8898Y1700
X9898Y1700
T03
X1748Y950
X1748Y11450
X17748Y11450
X17748Y950
M30
