G75*
%MOIN*%
%OFA0B0*%
%FSLAX24Y24*%
%IPPOS*%
%LPD*%
%AMOC8*
5,1,8,0,0,1.08239X$1,22.5*
%
%ADD10C,0.0060*%
%ADD11C,0.0000*%
D10*
X000998Y000900D02*
X000998Y011500D01*
X001000Y011550D01*
X001005Y011600D01*
X001014Y011649D01*
X001026Y011697D01*
X001042Y011745D01*
X001061Y011791D01*
X001084Y011835D01*
X001109Y011878D01*
X001138Y011919D01*
X001169Y011958D01*
X001203Y011995D01*
X001240Y012029D01*
X001279Y012060D01*
X001320Y012089D01*
X001363Y012114D01*
X001407Y012137D01*
X001453Y012156D01*
X001501Y012172D01*
X001549Y012184D01*
X001598Y012193D01*
X001648Y012198D01*
X001698Y012200D01*
X018498Y012200D01*
X018498Y000900D01*
X018496Y000850D01*
X018491Y000800D01*
X018482Y000751D01*
X018470Y000703D01*
X018454Y000655D01*
X018435Y000609D01*
X018412Y000565D01*
X018387Y000522D01*
X018358Y000481D01*
X018327Y000442D01*
X018293Y000405D01*
X018256Y000371D01*
X018217Y000340D01*
X018176Y000311D01*
X018133Y000286D01*
X018089Y000263D01*
X018043Y000244D01*
X017995Y000228D01*
X017947Y000216D01*
X017898Y000207D01*
X017848Y000202D01*
X017798Y000200D01*
X001698Y000200D01*
X001648Y000202D01*
X001598Y000207D01*
X001549Y000216D01*
X001501Y000228D01*
X001453Y000244D01*
X001407Y000263D01*
X001363Y000286D01*
X001320Y000311D01*
X001279Y000340D01*
X001240Y000371D01*
X001203Y000405D01*
X001169Y000442D01*
X001138Y000481D01*
X001109Y000522D01*
X001084Y000565D01*
X001061Y000609D01*
X001042Y000655D01*
X001026Y000703D01*
X001014Y000751D01*
X001005Y000800D01*
X001000Y000850D01*
X000998Y000900D01*
D11*
X001354Y000950D02*
X001356Y000989D01*
X001362Y001028D01*
X001372Y001066D01*
X001385Y001103D01*
X001402Y001138D01*
X001422Y001172D01*
X001446Y001203D01*
X001473Y001232D01*
X001502Y001258D01*
X001534Y001281D01*
X001568Y001301D01*
X001604Y001317D01*
X001641Y001329D01*
X001680Y001338D01*
X001719Y001343D01*
X001758Y001344D01*
X001797Y001341D01*
X001836Y001334D01*
X001873Y001323D01*
X001910Y001309D01*
X001945Y001291D01*
X001978Y001270D01*
X002009Y001245D01*
X002037Y001218D01*
X002062Y001188D01*
X002084Y001155D01*
X002103Y001121D01*
X002118Y001085D01*
X002130Y001047D01*
X002138Y001009D01*
X002142Y000970D01*
X002142Y000930D01*
X002138Y000891D01*
X002130Y000853D01*
X002118Y000815D01*
X002103Y000779D01*
X002084Y000745D01*
X002062Y000712D01*
X002037Y000682D01*
X002009Y000655D01*
X001978Y000630D01*
X001945Y000609D01*
X001910Y000591D01*
X001873Y000577D01*
X001836Y000566D01*
X001797Y000559D01*
X001758Y000556D01*
X001719Y000557D01*
X001680Y000562D01*
X001641Y000571D01*
X001604Y000583D01*
X001568Y000599D01*
X001534Y000619D01*
X001502Y000642D01*
X001473Y000668D01*
X001446Y000697D01*
X001422Y000728D01*
X001402Y000762D01*
X001385Y000797D01*
X001372Y000834D01*
X001362Y000872D01*
X001356Y000911D01*
X001354Y000950D01*
X001354Y011450D02*
X001356Y011489D01*
X001362Y011528D01*
X001372Y011566D01*
X001385Y011603D01*
X001402Y011638D01*
X001422Y011672D01*
X001446Y011703D01*
X001473Y011732D01*
X001502Y011758D01*
X001534Y011781D01*
X001568Y011801D01*
X001604Y011817D01*
X001641Y011829D01*
X001680Y011838D01*
X001719Y011843D01*
X001758Y011844D01*
X001797Y011841D01*
X001836Y011834D01*
X001873Y011823D01*
X001910Y011809D01*
X001945Y011791D01*
X001978Y011770D01*
X002009Y011745D01*
X002037Y011718D01*
X002062Y011688D01*
X002084Y011655D01*
X002103Y011621D01*
X002118Y011585D01*
X002130Y011547D01*
X002138Y011509D01*
X002142Y011470D01*
X002142Y011430D01*
X002138Y011391D01*
X002130Y011353D01*
X002118Y011315D01*
X002103Y011279D01*
X002084Y011245D01*
X002062Y011212D01*
X002037Y011182D01*
X002009Y011155D01*
X001978Y011130D01*
X001945Y011109D01*
X001910Y011091D01*
X001873Y011077D01*
X001836Y011066D01*
X001797Y011059D01*
X001758Y011056D01*
X001719Y011057D01*
X001680Y011062D01*
X001641Y011071D01*
X001604Y011083D01*
X001568Y011099D01*
X001534Y011119D01*
X001502Y011142D01*
X001473Y011168D01*
X001446Y011197D01*
X001422Y011228D01*
X001402Y011262D01*
X001385Y011297D01*
X001372Y011334D01*
X001362Y011372D01*
X001356Y011411D01*
X001354Y011450D01*
X017354Y011450D02*
X017356Y011489D01*
X017362Y011528D01*
X017372Y011566D01*
X017385Y011603D01*
X017402Y011638D01*
X017422Y011672D01*
X017446Y011703D01*
X017473Y011732D01*
X017502Y011758D01*
X017534Y011781D01*
X017568Y011801D01*
X017604Y011817D01*
X017641Y011829D01*
X017680Y011838D01*
X017719Y011843D01*
X017758Y011844D01*
X017797Y011841D01*
X017836Y011834D01*
X017873Y011823D01*
X017910Y011809D01*
X017945Y011791D01*
X017978Y011770D01*
X018009Y011745D01*
X018037Y011718D01*
X018062Y011688D01*
X018084Y011655D01*
X018103Y011621D01*
X018118Y011585D01*
X018130Y011547D01*
X018138Y011509D01*
X018142Y011470D01*
X018142Y011430D01*
X018138Y011391D01*
X018130Y011353D01*
X018118Y011315D01*
X018103Y011279D01*
X018084Y011245D01*
X018062Y011212D01*
X018037Y011182D01*
X018009Y011155D01*
X017978Y011130D01*
X017945Y011109D01*
X017910Y011091D01*
X017873Y011077D01*
X017836Y011066D01*
X017797Y011059D01*
X017758Y011056D01*
X017719Y011057D01*
X017680Y011062D01*
X017641Y011071D01*
X017604Y011083D01*
X017568Y011099D01*
X017534Y011119D01*
X017502Y011142D01*
X017473Y011168D01*
X017446Y011197D01*
X017422Y011228D01*
X017402Y011262D01*
X017385Y011297D01*
X017372Y011334D01*
X017362Y011372D01*
X017356Y011411D01*
X017354Y011450D01*
X017354Y000950D02*
X017356Y000989D01*
X017362Y001028D01*
X017372Y001066D01*
X017385Y001103D01*
X017402Y001138D01*
X017422Y001172D01*
X017446Y001203D01*
X017473Y001232D01*
X017502Y001258D01*
X017534Y001281D01*
X017568Y001301D01*
X017604Y001317D01*
X017641Y001329D01*
X017680Y001338D01*
X017719Y001343D01*
X017758Y001344D01*
X017797Y001341D01*
X017836Y001334D01*
X017873Y001323D01*
X017910Y001309D01*
X017945Y001291D01*
X017978Y001270D01*
X018009Y001245D01*
X018037Y001218D01*
X018062Y001188D01*
X018084Y001155D01*
X018103Y001121D01*
X018118Y001085D01*
X018130Y001047D01*
X018138Y001009D01*
X018142Y000970D01*
X018142Y000930D01*
X018138Y000891D01*
X018130Y000853D01*
X018118Y000815D01*
X018103Y000779D01*
X018084Y000745D01*
X018062Y000712D01*
X018037Y000682D01*
X018009Y000655D01*
X017978Y000630D01*
X017945Y000609D01*
X017910Y000591D01*
X017873Y000577D01*
X017836Y000566D01*
X017797Y000559D01*
X017758Y000556D01*
X017719Y000557D01*
X017680Y000562D01*
X017641Y000571D01*
X017604Y000583D01*
X017568Y000599D01*
X017534Y000619D01*
X017502Y000642D01*
X017473Y000668D01*
X017446Y000697D01*
X017422Y000728D01*
X017402Y000762D01*
X017385Y000797D01*
X017372Y000834D01*
X017362Y000872D01*
X017356Y000911D01*
X017354Y000950D01*
M02*
