G75*
%MOIN*%
%OFA0B0*%
%FSLAX24Y24*%
%IPPOS*%
%LPD*%
%AMOC8*
5,1,8,0,0,1.08239X$1,22.5*
%
%ADD10OC8,0.0780*%
%ADD11C,0.0867*%
%ADD12OC8,0.0820*%
D10*
X003800Y001650D03*
X004800Y001650D03*
X005800Y001650D03*
X006800Y001650D03*
X007800Y001650D03*
X008800Y001650D03*
X009800Y001650D03*
X010800Y001650D03*
X011800Y001650D03*
X012800Y001650D03*
X013800Y001650D03*
X014800Y001650D03*
X015800Y002650D03*
X015800Y003650D03*
X015800Y004650D03*
X015800Y005650D03*
X015800Y006650D03*
X015800Y007650D03*
X015800Y008650D03*
X015800Y009650D03*
X014800Y010650D03*
X013800Y010650D03*
X012800Y010650D03*
X011800Y010650D03*
X010800Y010650D03*
X009800Y010650D03*
X008800Y010650D03*
X007800Y010650D03*
X006800Y010650D03*
X005800Y010650D03*
X004800Y010650D03*
X003800Y010650D03*
D11*
X001250Y000900D03*
X017250Y000900D03*
X017250Y011400D03*
X001250Y011400D03*
D12*
X018850Y009650D03*
X019850Y009650D03*
X019850Y008650D03*
X018850Y008650D03*
X018850Y007650D03*
X019850Y007650D03*
X019850Y006650D03*
X018850Y006650D03*
X018850Y005650D03*
X019850Y005650D03*
X019850Y004650D03*
X018850Y004650D03*
X018850Y003650D03*
X019850Y003650D03*
X019850Y002650D03*
X018850Y002650D03*
M02*
