G75*
%MOIN*%
%OFA0B0*%
%FSLAX24Y24*%
%IPPOS*%
%LPD*%
%AMOC8*
5,1,8,0,0,1.08239X$1,22.5*
%
%ADD10R,0.0631X0.0237*%
%ADD11R,0.0828X0.0867*%
%ADD12R,0.0828X0.0946*%
%ADD13R,0.0395X0.0474*%
%ADD14R,0.0474X0.0395*%
%ADD15R,0.0375X0.0237*%
%ADD16C,0.0330*%
%ADD17OC8,0.0780*%
%ADD18C,0.0142*%
%ADD19R,0.0297X0.0552*%
%ADD20C,0.0180*%
%ADD21R,0.1419X0.1419*%
%ADD22R,0.0580X0.0280*%
%ADD23R,0.0710X0.0789*%
%ADD24C,0.0867*%
%ADD25OC8,0.0820*%
%ADD26R,0.0474X0.0789*%
D10*
X002422Y005638D03*
X002422Y005894D03*
X002422Y006150D03*
X002422Y006406D03*
X002422Y006662D03*
D11*
X001300Y006642D03*
X001300Y005658D03*
D12*
X001300Y004575D03*
X001300Y007725D03*
D13*
X003485Y008650D03*
X004115Y008650D03*
X004115Y009650D03*
X003485Y009650D03*
X004885Y007050D03*
X005515Y007050D03*
X005515Y005450D03*
X004885Y005450D03*
X004885Y004850D03*
X005515Y004850D03*
X005515Y004250D03*
X004885Y004250D03*
X004115Y003650D03*
X003485Y003650D03*
X003485Y002650D03*
X004115Y002650D03*
X006985Y004450D03*
X007615Y004450D03*
X007415Y005250D03*
X006785Y005250D03*
X010285Y005350D03*
X010915Y005350D03*
X011115Y008250D03*
X010485Y008250D03*
D14*
X014000Y008365D03*
X014000Y007735D03*
X014000Y006565D03*
X014000Y005935D03*
X010600Y004665D03*
X010600Y004035D03*
X010600Y003465D03*
X010600Y002835D03*
D15*
X005464Y006250D03*
X004736Y005994D03*
X004736Y006506D03*
D16*
X002300Y011450D03*
X016200Y011450D03*
X016200Y000850D03*
X002300Y000850D03*
D17*
X003800Y001650D03*
X004800Y001650D03*
X005800Y001650D03*
X006800Y001650D03*
X007800Y001650D03*
X008800Y001650D03*
X009800Y001650D03*
X010800Y001650D03*
X011800Y001650D03*
X012800Y001650D03*
X013800Y001650D03*
X014800Y001650D03*
X015800Y002650D03*
X015800Y003650D03*
X015800Y004650D03*
X015800Y005650D03*
X015800Y006650D03*
X015800Y007650D03*
X015800Y008650D03*
X015800Y009650D03*
X014800Y010650D03*
X013800Y010650D03*
X012800Y010650D03*
X011800Y010650D03*
X010800Y010650D03*
X009800Y010650D03*
X008800Y010650D03*
X007800Y010650D03*
X006800Y010650D03*
X005800Y010650D03*
X004800Y010650D03*
X003800Y010650D03*
D18*
X002161Y009816D02*
X002161Y009484D01*
X001829Y009484D01*
X001829Y009816D01*
X002161Y009816D01*
X002161Y009625D02*
X001829Y009625D01*
X001829Y009766D02*
X002161Y009766D01*
X001471Y009816D02*
X001471Y009484D01*
X001139Y009484D01*
X001139Y009816D01*
X001471Y009816D01*
X001471Y009625D02*
X001139Y009625D01*
X001139Y009766D02*
X001471Y009766D01*
X001471Y008816D02*
X001471Y008484D01*
X001139Y008484D01*
X001139Y008816D01*
X001471Y008816D01*
X001471Y008625D02*
X001139Y008625D01*
X001139Y008766D02*
X001471Y008766D01*
X002161Y008816D02*
X002161Y008484D01*
X001829Y008484D01*
X001829Y008816D01*
X002161Y008816D01*
X002161Y008625D02*
X001829Y008625D01*
X001829Y008766D02*
X002161Y008766D01*
X002061Y003816D02*
X002061Y003484D01*
X001729Y003484D01*
X001729Y003816D01*
X002061Y003816D01*
X002061Y003625D02*
X001729Y003625D01*
X001729Y003766D02*
X002061Y003766D01*
X001371Y003816D02*
X001371Y003484D01*
X001039Y003484D01*
X001039Y003816D01*
X001371Y003816D01*
X001371Y003625D02*
X001039Y003625D01*
X001039Y003766D02*
X001371Y003766D01*
X001371Y002816D02*
X001371Y002484D01*
X001039Y002484D01*
X001039Y002816D01*
X001371Y002816D01*
X001371Y002625D02*
X001039Y002625D01*
X001039Y002766D02*
X001371Y002766D01*
X002061Y002816D02*
X002061Y002484D01*
X001729Y002484D01*
X001729Y002816D01*
X002061Y002816D01*
X002061Y002625D02*
X001729Y002625D01*
X001729Y002766D02*
X002061Y002766D01*
D19*
X011126Y002838D03*
X011874Y002838D03*
X011874Y003862D03*
X011500Y003862D03*
X011126Y003862D03*
D20*
X009589Y005382D02*
X009589Y005832D01*
X009392Y005832D02*
X009392Y005382D01*
X009195Y005382D02*
X009195Y005832D01*
X008998Y005832D02*
X008998Y005382D01*
X008802Y005382D02*
X008802Y005832D01*
X008605Y005832D02*
X008605Y005382D01*
X008408Y005382D02*
X008408Y005832D01*
X008211Y005832D02*
X008211Y005382D01*
X008082Y005961D02*
X007632Y005961D01*
X007632Y006158D02*
X008082Y006158D01*
X008082Y006355D02*
X007632Y006355D01*
X007632Y006552D02*
X008082Y006552D01*
X008082Y006748D02*
X007632Y006748D01*
X007632Y006945D02*
X008082Y006945D01*
X008082Y007142D02*
X007632Y007142D01*
X007632Y007339D02*
X008082Y007339D01*
X008211Y007468D02*
X008211Y007918D01*
X008408Y007918D02*
X008408Y007468D01*
X008605Y007468D02*
X008605Y007918D01*
X008802Y007918D02*
X008802Y007468D01*
X008998Y007468D02*
X008998Y007918D01*
X009195Y007918D02*
X009195Y007468D01*
X009392Y007468D02*
X009392Y007918D01*
X009589Y007918D02*
X009589Y007468D01*
X009718Y007339D02*
X010168Y007339D01*
X010168Y007142D02*
X009718Y007142D01*
X009718Y006945D02*
X010168Y006945D01*
X010168Y006748D02*
X009718Y006748D01*
X009718Y006552D02*
X010168Y006552D01*
X010168Y006355D02*
X009718Y006355D01*
X009718Y006158D02*
X010168Y006158D01*
X010168Y005961D02*
X009718Y005961D01*
D21*
X008900Y006650D03*
D22*
X004900Y008130D03*
X004900Y008450D03*
X004900Y008770D03*
X012700Y003670D03*
X012700Y003350D03*
X012700Y003030D03*
D23*
X013649Y002550D03*
X014751Y002550D03*
X014751Y009650D03*
X013649Y009650D03*
D24*
X001250Y000900D03*
X017250Y000900D03*
X017250Y011400D03*
X001250Y011400D03*
D25*
X018850Y009650D03*
X019850Y009650D03*
X019850Y008650D03*
X018850Y008650D03*
X018850Y007650D03*
X019850Y007650D03*
X019850Y006650D03*
X018850Y006650D03*
X018850Y005650D03*
X019850Y005650D03*
X019850Y004650D03*
X018850Y004650D03*
X018850Y003650D03*
X019850Y003650D03*
X019850Y002650D03*
X018850Y002650D03*
D26*
X006701Y002850D03*
X005599Y002850D03*
M02*
