G75*
%MOIN*%
%OFA0B0*%
%FSLAX24Y24*%
%IPPOS*%
%LPD*%
%AMOC8*
5,1,8,0,0,1.08239X$1,22.5*
%
%ADD10R,0.0551X0.0157*%
%ADD11R,0.0748X0.0787*%
%ADD12R,0.0748X0.0866*%
%ADD13R,0.0315X0.0394*%
%ADD14R,0.0394X0.0315*%
%ADD15R,0.0295X0.0157*%
%ADD16C,0.0118*%
%ADD17R,0.0217X0.0472*%
%ADD18C,0.0100*%
%ADD19R,0.1339X0.1339*%
%ADD20R,0.0790X0.0670*%
%ADD21R,0.0630X0.0709*%
%ADD22R,0.0394X0.0709*%
D10*
X002422Y005638D03*
X002422Y005894D03*
X002422Y006150D03*
X002422Y006406D03*
X002422Y006662D03*
D11*
X001300Y006642D03*
X001300Y005658D03*
D12*
X001300Y004575D03*
X001300Y007725D03*
D13*
X003485Y008650D03*
X004115Y008650D03*
X004115Y009650D03*
X003485Y009650D03*
X004885Y007050D03*
X005515Y007050D03*
X005515Y005450D03*
X004885Y005450D03*
X004885Y004850D03*
X005515Y004850D03*
X005515Y004250D03*
X004885Y004250D03*
X004115Y003650D03*
X003485Y003650D03*
X003485Y002650D03*
X004115Y002650D03*
X006985Y004450D03*
X007615Y004450D03*
X007415Y005250D03*
X006785Y005250D03*
X010285Y005350D03*
X010915Y005350D03*
X011115Y008250D03*
X010485Y008250D03*
D14*
X014000Y008365D03*
X014000Y007735D03*
X014000Y006565D03*
X014000Y005935D03*
X010600Y004665D03*
X010600Y004035D03*
X010600Y003465D03*
X010600Y002835D03*
D15*
X005464Y006250D03*
X004736Y005994D03*
X004736Y006506D03*
X004736Y006506D03*
X004736Y006506D03*
D16*
X001343Y002788D02*
X001343Y002512D01*
X001067Y002512D01*
X001067Y002788D01*
X001343Y002788D01*
X001343Y002629D02*
X001067Y002629D01*
X001067Y002746D02*
X001343Y002746D01*
X002033Y002788D02*
X002033Y002512D01*
X001757Y002512D01*
X001757Y002788D01*
X002033Y002788D01*
X002033Y002629D02*
X001757Y002629D01*
X001757Y002746D02*
X002033Y002746D01*
X002033Y003512D02*
X002033Y003788D01*
X002033Y003512D02*
X001757Y003512D01*
X001757Y003788D01*
X002033Y003788D01*
X002033Y003629D02*
X001757Y003629D01*
X001757Y003746D02*
X002033Y003746D01*
X001343Y003788D02*
X001343Y003512D01*
X001067Y003512D01*
X001067Y003788D01*
X001343Y003788D01*
X001343Y003629D02*
X001067Y003629D01*
X001067Y003746D02*
X001343Y003746D01*
X001443Y008512D02*
X001443Y008788D01*
X001443Y008512D02*
X001167Y008512D01*
X001167Y008788D01*
X001443Y008788D01*
X001443Y008629D02*
X001167Y008629D01*
X001167Y008746D02*
X001443Y008746D01*
X002133Y008788D02*
X002133Y008512D01*
X001857Y008512D01*
X001857Y008788D01*
X002133Y008788D01*
X002133Y008629D02*
X001857Y008629D01*
X001857Y008746D02*
X002133Y008746D01*
X002133Y009512D02*
X002133Y009788D01*
X002133Y009512D02*
X001857Y009512D01*
X001857Y009788D01*
X002133Y009788D01*
X002133Y009629D02*
X001857Y009629D01*
X001857Y009746D02*
X002133Y009746D01*
X001443Y009788D02*
X001443Y009512D01*
X001167Y009512D01*
X001167Y009788D01*
X001443Y009788D01*
X001443Y009629D02*
X001167Y009629D01*
X001167Y009746D02*
X001443Y009746D01*
D17*
X011126Y003862D03*
X011500Y003862D03*
X011874Y003862D03*
X011874Y002838D03*
X011126Y002838D03*
D18*
X009589Y005382D02*
X009589Y005832D01*
X009392Y005832D02*
X009392Y005382D01*
X009195Y005382D02*
X009195Y005832D01*
X008998Y005832D02*
X008998Y005382D01*
X008802Y005382D02*
X008802Y005832D01*
X008605Y005832D02*
X008605Y005382D01*
X008408Y005382D02*
X008408Y005832D01*
X008211Y005832D02*
X008211Y005382D01*
X008082Y005961D02*
X007632Y005961D01*
X007632Y006158D02*
X008082Y006158D01*
X008082Y006355D02*
X007632Y006355D01*
X007632Y006552D02*
X008082Y006552D01*
X008082Y006748D02*
X007632Y006748D01*
X007632Y006945D02*
X008082Y006945D01*
X008082Y007142D02*
X007632Y007142D01*
X007632Y007339D02*
X008082Y007339D01*
X008211Y007468D02*
X008211Y007918D01*
X008408Y007918D02*
X008408Y007468D01*
X008605Y007468D02*
X008605Y007918D01*
X008802Y007918D02*
X008802Y007468D01*
X008998Y007468D02*
X008998Y007918D01*
X009195Y007918D02*
X009195Y007468D01*
X009392Y007468D02*
X009392Y007918D01*
X009589Y007918D02*
X009589Y007468D01*
X009718Y007339D02*
X010168Y007339D01*
X010168Y007142D02*
X009718Y007142D01*
X009718Y006945D02*
X010168Y006945D01*
X010168Y006748D02*
X009718Y006748D01*
X009718Y006552D02*
X010168Y006552D01*
X010168Y006355D02*
X009718Y006355D01*
X009718Y006158D02*
X010168Y006158D01*
X010168Y005961D02*
X009718Y005961D01*
D19*
X008900Y006650D03*
D20*
X004895Y008625D03*
X012695Y003525D03*
D21*
X013649Y002550D03*
X014751Y002550D03*
X014751Y009650D03*
X013649Y009650D03*
D22*
X006701Y002850D03*
X005599Y002850D03*
M02*
