G75*
%MOIN*%
%OFA0B0*%
%FSLAX24Y24*%
%IPPOS*%
%LPD*%
%AMOC8*
5,1,8,0,0,1.08239X$1,22.5*
%
%ADD10R,0.0551X0.0157*%
%ADD11R,0.0748X0.0787*%
%ADD12R,0.0748X0.0866*%
%ADD13R,0.0315X0.0394*%
%ADD14R,0.0394X0.0315*%
%ADD15R,0.0295X0.0157*%
%ADD16C,0.0250*%
%ADD17OC8,0.0700*%
%ADD18C,0.0118*%
%ADD19R,0.0217X0.0472*%
%ADD20C,0.0100*%
%ADD21R,0.1339X0.1339*%
%ADD22R,0.0500X0.0200*%
%ADD23R,0.0630X0.0709*%
%ADD24OC8,0.0740*%
%ADD25R,0.0394X0.0709*%
%ADD26C,0.0320*%
%ADD27C,0.0340*%
%ADD28C,0.0240*%
%ADD29C,0.0160*%
%ADD30C,0.0070*%
D10*
X002422Y005638D03*
X002422Y005894D03*
X002422Y006150D03*
X002422Y006406D03*
X002422Y006662D03*
D11*
X001300Y006642D03*
X001300Y005658D03*
D12*
X001300Y004575D03*
X001300Y007725D03*
D13*
X003485Y008650D03*
X004115Y008650D03*
X004115Y009650D03*
X003485Y009650D03*
X004885Y007050D03*
X005515Y007050D03*
X005515Y005450D03*
X004885Y005450D03*
X004885Y004850D03*
X005515Y004850D03*
X005515Y004250D03*
X004885Y004250D03*
X004115Y003650D03*
X003485Y003650D03*
X003485Y002650D03*
X004115Y002650D03*
X006985Y004450D03*
X007615Y004450D03*
X007415Y005250D03*
X006785Y005250D03*
X010285Y005350D03*
X010915Y005350D03*
X011115Y008250D03*
X010485Y008250D03*
D14*
X014000Y008365D03*
X014000Y007735D03*
X014000Y006565D03*
X014000Y005935D03*
X010600Y004665D03*
X010600Y004035D03*
X010600Y003465D03*
X010600Y002835D03*
D15*
X005464Y006250D03*
X004736Y005994D03*
X004736Y006506D03*
D16*
X002300Y000850D03*
X016200Y000850D03*
X016200Y011450D03*
X002300Y011450D03*
D17*
X003800Y010650D03*
X004800Y010650D03*
X005800Y010650D03*
X006800Y010650D03*
X007800Y010650D03*
X008800Y010650D03*
X009800Y010650D03*
X010800Y010650D03*
X011800Y010650D03*
X012800Y010650D03*
X013800Y010650D03*
X014800Y010650D03*
X015800Y009650D03*
X015800Y008650D03*
X015800Y007650D03*
X015800Y006650D03*
X015800Y005650D03*
X015800Y004650D03*
X015800Y003650D03*
X015800Y002650D03*
X014800Y001650D03*
X013800Y001650D03*
X012800Y001650D03*
X011800Y001650D03*
X010800Y001650D03*
X009800Y001650D03*
X008800Y001650D03*
X007800Y001650D03*
X006800Y001650D03*
X005800Y001650D03*
X004800Y001650D03*
X003800Y001650D03*
D18*
X002033Y002512D02*
X002033Y002788D01*
X002033Y002512D02*
X001757Y002512D01*
X001757Y002788D01*
X002033Y002788D01*
X002033Y002629D02*
X001757Y002629D01*
X001757Y002746D02*
X002033Y002746D01*
X001343Y002788D02*
X001343Y002512D01*
X001067Y002512D01*
X001067Y002788D01*
X001343Y002788D01*
X001343Y002629D02*
X001067Y002629D01*
X001067Y002746D02*
X001343Y002746D01*
X001343Y003512D02*
X001343Y003788D01*
X001343Y003512D02*
X001067Y003512D01*
X001067Y003788D01*
X001343Y003788D01*
X001343Y003629D02*
X001067Y003629D01*
X001067Y003746D02*
X001343Y003746D01*
X002033Y003788D02*
X002033Y003512D01*
X001757Y003512D01*
X001757Y003788D01*
X002033Y003788D01*
X002033Y003629D02*
X001757Y003629D01*
X001757Y003746D02*
X002033Y003746D01*
X002133Y008512D02*
X002133Y008788D01*
X002133Y008512D02*
X001857Y008512D01*
X001857Y008788D01*
X002133Y008788D01*
X002133Y008629D02*
X001857Y008629D01*
X001857Y008746D02*
X002133Y008746D01*
X001443Y008788D02*
X001443Y008512D01*
X001167Y008512D01*
X001167Y008788D01*
X001443Y008788D01*
X001443Y008629D02*
X001167Y008629D01*
X001167Y008746D02*
X001443Y008746D01*
X001443Y009512D02*
X001443Y009788D01*
X001443Y009512D02*
X001167Y009512D01*
X001167Y009788D01*
X001443Y009788D01*
X001443Y009629D02*
X001167Y009629D01*
X001167Y009746D02*
X001443Y009746D01*
X002133Y009788D02*
X002133Y009512D01*
X001857Y009512D01*
X001857Y009788D01*
X002133Y009788D01*
X002133Y009629D02*
X001857Y009629D01*
X001857Y009746D02*
X002133Y009746D01*
D19*
X011126Y003862D03*
X011500Y003862D03*
X011874Y003862D03*
X011874Y002838D03*
X011126Y002838D03*
D20*
X011396Y002850D02*
X011604Y002850D01*
X011604Y002892D02*
X011604Y002784D01*
X011616Y002756D01*
X011616Y002540D01*
X011704Y002452D01*
X012044Y002452D01*
X012132Y002540D01*
X012132Y002568D01*
X012562Y002568D01*
X012661Y002609D01*
X012812Y002760D01*
X013057Y002760D01*
X013184Y002633D01*
X013184Y002134D01*
X013272Y002046D01*
X013489Y002046D01*
X013300Y001857D01*
X013300Y002046D01*
X013267Y002050D02*
X013107Y002050D01*
X013100Y002057D02*
X013100Y002717D01*
X013067Y002750D02*
X012802Y002750D01*
X012800Y002748D02*
X012800Y002150D01*
X012900Y002150D02*
X012900Y002760D01*
X013000Y002760D02*
X013000Y002150D01*
X013007Y002150D02*
X012593Y002150D01*
X012300Y001857D01*
X012300Y002568D01*
X012200Y002568D02*
X012200Y001957D01*
X012207Y001950D02*
X012393Y001950D01*
X012400Y001957D02*
X012400Y002568D01*
X012500Y002568D02*
X012500Y002057D01*
X012493Y002050D02*
X012107Y002050D01*
X012100Y002057D02*
X012100Y002508D01*
X012132Y002550D02*
X013184Y002550D01*
X013184Y002450D02*
X007048Y002450D01*
X007048Y002434D02*
X006960Y002346D01*
X006442Y002346D01*
X006354Y002434D01*
X006354Y003266D01*
X006391Y003303D01*
X006391Y003563D01*
X006438Y003677D01*
X006487Y003726D01*
X006574Y003813D01*
X006688Y003860D01*
X006912Y003860D01*
X006936Y003870D01*
X007064Y003870D01*
X007181Y003821D01*
X007271Y003731D01*
X007320Y003614D01*
X007320Y003486D01*
X007271Y003369D01*
X007181Y003279D01*
X007064Y003230D01*
X007048Y003230D01*
X007048Y002434D01*
X007000Y002386D02*
X007000Y002150D01*
X007007Y002150D02*
X006593Y002150D01*
X006300Y001857D01*
X006300Y004145D01*
X006288Y004150D02*
X005792Y004150D01*
X005792Y004221D02*
X005792Y004037D01*
X005784Y004007D01*
X005768Y003979D01*
X005746Y003957D01*
X005719Y003941D01*
X005688Y003933D01*
X005544Y003933D01*
X005544Y004221D01*
X005544Y004279D01*
X005792Y004279D01*
X005792Y004463D01*
X005784Y004493D01*
X005768Y004521D01*
X005746Y004543D01*
X005734Y004550D01*
X006095Y004550D01*
X006100Y004562D02*
X006100Y005567D01*
X006083Y005550D02*
X006566Y005550D01*
X006554Y005543D02*
X006532Y005521D01*
X006516Y005493D01*
X006508Y005463D01*
X006508Y005279D01*
X006756Y005279D01*
X006756Y005221D01*
X006814Y005221D01*
X006814Y005279D01*
X007063Y005279D01*
X007063Y005463D01*
X007054Y005493D01*
X007039Y005521D01*
X007016Y005543D01*
X006989Y005559D01*
X006958Y005567D01*
X006814Y005567D01*
X006814Y005279D01*
X006756Y005279D01*
X006756Y005567D01*
X006612Y005567D01*
X006581Y005559D01*
X006554Y005543D01*
X006600Y005564D02*
X006600Y005958D01*
X006700Y005958D02*
X006700Y005567D01*
X006756Y005550D02*
X006814Y005550D01*
X006900Y005567D02*
X006900Y005958D01*
X007000Y005958D02*
X007000Y005552D01*
X007004Y005550D02*
X007148Y005550D01*
X007107Y005509D02*
X007107Y004991D01*
X007195Y004903D01*
X007635Y004903D01*
X007722Y004991D01*
X007722Y005306D01*
X008004Y005643D01*
X008041Y005680D01*
X008041Y005607D01*
X008208Y005607D01*
X008208Y005607D01*
X008041Y005607D01*
X008041Y005359D01*
X008053Y005315D01*
X008075Y005277D01*
X008107Y005245D01*
X008145Y005223D01*
X008189Y005211D01*
X008208Y005211D01*
X008208Y004941D01*
X007922Y004655D01*
X007922Y004709D01*
X007835Y004797D01*
X007395Y004797D01*
X007307Y004709D01*
X007307Y004191D01*
X007395Y004103D01*
X007835Y004103D01*
X007922Y004191D01*
X007922Y004250D01*
X008083Y004250D01*
X008488Y004250D01*
X008500Y004245D02*
X008500Y002057D01*
X008493Y002050D02*
X008107Y002050D01*
X008100Y002057D02*
X008100Y004267D01*
X008083Y004250D02*
X008200Y004367D01*
X008291Y004459D01*
X008329Y004369D01*
X008419Y004279D01*
X008536Y004230D01*
X008664Y004230D01*
X008781Y004279D01*
X008871Y004369D01*
X008920Y004486D01*
X008920Y004614D01*
X008871Y004731D01*
X008802Y004800D01*
X008804Y004971D01*
X008805Y004972D01*
X008805Y005054D01*
X008805Y005136D01*
X008805Y005211D01*
X008824Y005211D01*
X008867Y005223D01*
X008872Y005225D01*
X008916Y005181D01*
X009081Y005181D01*
X009097Y005197D01*
X009112Y005181D01*
X009192Y005181D01*
X009192Y005175D01*
X009300Y005067D01*
X009300Y001857D01*
X009007Y002150D01*
X008593Y002150D01*
X008300Y001857D01*
X008300Y004438D01*
X008295Y004450D02*
X008283Y004450D01*
X008200Y004367D02*
X008200Y001957D01*
X008207Y001950D02*
X008393Y001950D01*
X008400Y001957D02*
X008400Y004297D01*
X008347Y004350D02*
X008183Y004350D01*
X008000Y004250D02*
X008000Y002150D01*
X008007Y002150D02*
X007593Y002150D01*
X007300Y001857D01*
X007300Y003438D01*
X007305Y003450D02*
X010571Y003450D01*
X010571Y003436D02*
X010283Y003436D01*
X010283Y003292D01*
X010291Y003261D01*
X010307Y003234D01*
X010329Y003211D01*
X010357Y003196D01*
X010387Y003187D01*
X010571Y003187D01*
X010571Y003436D01*
X010629Y003436D01*
X010629Y003494D01*
X010917Y003494D01*
X010917Y003514D01*
X010956Y003476D01*
X011296Y003476D01*
X011339Y003518D01*
X011345Y003514D01*
X011376Y003506D01*
X011496Y003506D01*
X011496Y003858D01*
X011396Y003858D01*
X011396Y003866D01*
X011496Y003866D01*
X011496Y004218D01*
X011396Y004218D01*
X011396Y004280D01*
X011630Y004280D01*
X011630Y004216D01*
X011630Y004210D01*
X011630Y004216D02*
X011624Y004218D01*
X011504Y004218D01*
X011490Y004210D01*
X011504Y004218D02*
X011504Y003866D01*
X011490Y003860D01*
X011500Y003862D01*
X011490Y003930D01*
X011504Y003930D01*
X011504Y003950D02*
X011496Y003950D01*
X011470Y003900D02*
X011540Y003900D01*
X011500Y003862D01*
X011470Y003830D01*
X011504Y003866D01*
X011496Y003866D01*
X011496Y003858D01*
X011504Y003858D01*
X011504Y003506D01*
X011624Y003506D01*
X011655Y003514D01*
X011661Y003518D01*
X011704Y003476D01*
X012044Y003476D01*
X012132Y003563D01*
X012132Y003592D01*
X012300Y003592D01*
X012300Y003108D01*
X012132Y003108D01*
X012132Y003137D01*
X012044Y003224D01*
X011704Y003224D01*
X011616Y003137D01*
X011616Y002920D01*
X011604Y002892D01*
X011616Y002950D02*
X011384Y002950D01*
X011384Y002920D02*
X011384Y003137D01*
X011296Y003224D01*
X010956Y003224D01*
X010868Y003137D01*
X010868Y003134D01*
X010859Y003143D01*
X010341Y003143D01*
X010253Y003055D01*
X010253Y002615D01*
X010341Y002528D01*
X010859Y002528D01*
X010869Y002538D01*
X010956Y002452D01*
X011296Y002452D01*
X011384Y002540D01*
X011384Y002756D01*
X011396Y002784D01*
X011396Y002892D01*
X011384Y002920D01*
X011384Y003050D02*
X011616Y003050D01*
X011629Y003150D02*
X011371Y003150D01*
X011300Y003221D02*
X011300Y003479D01*
X011200Y003476D02*
X011200Y003224D01*
X011100Y003224D02*
X011100Y003476D01*
X011000Y003476D02*
X011000Y003224D01*
X010909Y003261D02*
X010917Y003292D01*
X010917Y003436D01*
X010629Y003436D01*
X010629Y003187D01*
X010813Y003187D01*
X010843Y003196D01*
X010871Y003211D01*
X010893Y003234D01*
X010909Y003261D01*
X010902Y003250D02*
X012300Y003250D01*
X012300Y003150D02*
X012119Y003150D01*
X012100Y003169D02*
X012100Y003531D01*
X012119Y003550D02*
X012300Y003550D01*
X012300Y003450D02*
X010629Y003450D01*
X010600Y003436D02*
X010600Y003143D01*
X010700Y003143D02*
X010700Y003187D01*
X010629Y003250D02*
X010571Y003250D01*
X010500Y003187D02*
X010500Y003143D01*
X010400Y003143D02*
X010400Y003187D01*
X010300Y003246D02*
X010300Y003102D01*
X010253Y003050D02*
X007048Y003050D01*
X007048Y003150D02*
X010881Y003150D01*
X010900Y003169D02*
X010900Y003246D01*
X010917Y003350D02*
X012300Y003350D01*
X012000Y003224D02*
X012000Y003476D01*
X011900Y003476D02*
X011900Y003224D01*
X011800Y003224D02*
X011800Y003476D01*
X011700Y003479D02*
X011700Y003221D01*
X011600Y003506D02*
X011600Y002150D01*
X011593Y002150D02*
X011300Y001857D01*
X011300Y002456D01*
X011200Y002452D02*
X011200Y001957D01*
X011207Y001950D02*
X011393Y001950D01*
X011400Y001957D02*
X011400Y003506D01*
X011496Y003550D02*
X011504Y003550D01*
X011496Y003650D02*
X011504Y003650D01*
X011496Y003750D02*
X011504Y003750D01*
X011496Y003850D02*
X011504Y003850D01*
X011500Y003858D02*
X011500Y002057D01*
X011493Y002050D02*
X011107Y002050D01*
X011100Y002057D02*
X011100Y002452D01*
X011000Y002452D02*
X011000Y002150D01*
X011007Y002150D02*
X010593Y002150D01*
X010300Y001857D01*
X010300Y002569D01*
X010319Y002550D02*
X007048Y002550D01*
X007048Y002650D02*
X010253Y002650D01*
X010253Y002750D02*
X007048Y002750D01*
X007048Y002850D02*
X010253Y002850D01*
X010253Y002950D02*
X007048Y002950D01*
X007100Y003245D02*
X007100Y002057D01*
X007107Y002050D02*
X007493Y002050D01*
X007500Y002057D02*
X007500Y004103D01*
X007600Y004103D02*
X007600Y002150D01*
X007700Y002150D02*
X007700Y004103D01*
X007800Y004103D02*
X007800Y002150D01*
X007900Y002150D02*
X007900Y004169D01*
X007881Y004150D02*
X010283Y004150D01*
X010283Y004208D02*
X010283Y004064D01*
X010571Y004064D01*
X010571Y004006D01*
X010629Y004006D01*
X010629Y003758D01*
X010813Y003758D01*
X010843Y003766D01*
X010868Y003780D01*
X010868Y003780D01*
X010868Y003720D01*
X010843Y003734D01*
X010813Y003742D01*
X010629Y003742D01*
X010629Y003494D01*
X010571Y003494D01*
X010571Y003742D01*
X010387Y003742D01*
X010357Y003734D01*
X010329Y003718D01*
X010307Y003696D01*
X010291Y003669D01*
X010283Y003638D01*
X010283Y003494D01*
X010571Y003494D01*
X010571Y003436D01*
X010600Y003494D02*
X010600Y004006D01*
X010571Y004006D02*
X010571Y003758D01*
X010387Y003758D01*
X010357Y003766D01*
X010329Y003782D01*
X010307Y003804D01*
X010291Y003831D01*
X010283Y003862D01*
X010283Y004006D01*
X010571Y004006D01*
X010571Y004050D02*
X005792Y004050D01*
X005734Y003950D02*
X010283Y003950D01*
X010300Y004006D02*
X010300Y004064D01*
X010400Y004064D02*
X010400Y004006D01*
X010500Y004006D02*
X010500Y004064D01*
X010571Y004064D02*
X010571Y004313D01*
X010387Y004313D01*
X010357Y004304D01*
X010329Y004289D01*
X010307Y004266D01*
X010291Y004239D01*
X010283Y004208D01*
X010298Y004250D02*
X008712Y004250D01*
X008700Y004245D02*
X008700Y002150D01*
X008800Y002150D02*
X008800Y004297D01*
X008853Y004350D02*
X010856Y004350D01*
X010856Y004357D02*
X010856Y004297D01*
X010843Y004304D01*
X010813Y004313D01*
X010629Y004313D01*
X010629Y004064D01*
X010571Y004064D01*
X010600Y004064D02*
X010600Y004357D01*
X010700Y004357D02*
X010700Y004313D01*
X010629Y004250D02*
X010571Y004250D01*
X010500Y004313D02*
X010500Y004357D01*
X010400Y004357D02*
X010400Y004313D01*
X010341Y004357D02*
X010856Y004357D01*
X010800Y004357D02*
X010800Y004313D01*
X010629Y004150D02*
X010571Y004150D01*
X010571Y003950D02*
X010629Y003950D01*
X010629Y003850D02*
X010571Y003850D01*
X010500Y003758D02*
X010500Y003742D01*
X010400Y003742D02*
X010400Y003758D01*
X010300Y003816D02*
X010300Y003684D01*
X010286Y003650D02*
X007305Y003650D01*
X007300Y003662D02*
X007300Y004903D01*
X007400Y004903D02*
X007400Y004797D01*
X007348Y004750D02*
X007252Y004750D01*
X007293Y004709D02*
X007205Y004797D01*
X006765Y004797D01*
X006689Y004720D01*
X006583Y004720D01*
X006581Y004721D01*
X006464Y004770D01*
X006336Y004770D01*
X006219Y004721D01*
X006129Y004631D01*
X006080Y004514D01*
X006080Y004386D01*
X006129Y004269D01*
X006219Y004179D01*
X006336Y004130D01*
X006464Y004130D01*
X006581Y004179D01*
X006583Y004180D01*
X006689Y004180D01*
X006765Y004103D01*
X007205Y004103D01*
X007293Y004191D01*
X007293Y004709D01*
X007293Y004650D02*
X007307Y004650D01*
X007293Y004550D02*
X007307Y004550D01*
X007293Y004450D02*
X007307Y004450D01*
X007293Y004350D02*
X007307Y004350D01*
X007293Y004250D02*
X007307Y004250D01*
X007348Y004150D02*
X007252Y004150D01*
X007200Y004103D02*
X007200Y003803D01*
X007253Y003750D02*
X010868Y003750D01*
X010800Y003742D02*
X010800Y003758D01*
X010700Y003758D02*
X010700Y003742D01*
X010629Y003650D02*
X010571Y003650D01*
X010571Y003550D02*
X010629Y003550D01*
X010700Y003494D02*
X010700Y003436D01*
X010800Y003436D02*
X010800Y003494D01*
X010900Y003494D02*
X010900Y003436D01*
X010629Y003350D02*
X010571Y003350D01*
X010500Y003436D02*
X010500Y003494D01*
X010400Y003494D02*
X010400Y003436D01*
X010300Y003436D02*
X010300Y003494D01*
X010283Y003550D02*
X007320Y003550D01*
X007253Y003350D02*
X010283Y003350D01*
X010298Y003250D02*
X007112Y003250D01*
X007200Y003297D02*
X007200Y001957D01*
X007207Y001950D02*
X007393Y001950D01*
X007400Y001957D02*
X007400Y004103D01*
X007100Y004103D02*
X007100Y003855D01*
X007112Y003850D02*
X010286Y003850D01*
X010300Y004254D02*
X010300Y004398D01*
X010341Y004357D02*
X010253Y004445D01*
X010253Y004680D01*
X010183Y004680D01*
X010181Y004679D01*
X010064Y004630D01*
X009936Y004630D01*
X009819Y004679D01*
X009729Y004769D01*
X009680Y004886D01*
X009680Y004950D01*
X009417Y004950D01*
X008804Y004950D01*
X008805Y005050D02*
X009317Y005050D01*
X009300Y005067D02*
X009417Y004950D01*
X009400Y004967D02*
X009400Y001957D01*
X009393Y001950D02*
X009207Y001950D01*
X009200Y001957D02*
X009200Y005167D01*
X009217Y005150D02*
X008805Y005150D01*
X008805Y005136D02*
X008805Y005136D01*
X008900Y005197D02*
X008900Y004662D01*
X008905Y004650D02*
X009888Y004650D01*
X009900Y004645D02*
X009900Y002150D01*
X010000Y002150D02*
X010000Y004630D01*
X010100Y004645D02*
X010100Y002057D01*
X010107Y002050D02*
X010493Y002050D01*
X010500Y002057D02*
X010500Y002528D01*
X010400Y002528D02*
X010400Y001957D01*
X010393Y001950D02*
X010207Y001950D01*
X010200Y001957D02*
X010200Y004680D01*
X010253Y004650D02*
X010112Y004650D01*
X010253Y004550D02*
X008920Y004550D01*
X008905Y004450D02*
X010253Y004450D01*
X009800Y004697D02*
X009800Y002150D01*
X009700Y002150D02*
X009700Y004838D01*
X009695Y004850D02*
X008803Y004850D01*
X008853Y004750D02*
X009747Y004750D01*
X009600Y004950D02*
X009600Y002150D01*
X009593Y002150D02*
X009300Y001857D01*
X009300Y001443D01*
X009300Y000300D01*
X009400Y000300D02*
X009400Y001343D01*
X009393Y001350D02*
X009207Y001350D01*
X009200Y001343D02*
X009200Y000300D01*
X009100Y000300D02*
X009100Y001243D01*
X009107Y001250D02*
X009493Y001250D01*
X009500Y001243D02*
X009500Y000300D01*
X009600Y000300D02*
X009600Y001150D01*
X009593Y001150D02*
X009007Y001150D01*
X009300Y001443D01*
X009593Y001150D01*
X010007Y001150D01*
X010593Y001150D01*
X011007Y001150D01*
X011593Y001150D01*
X012007Y001150D01*
X012593Y001150D01*
X013007Y001150D01*
X013593Y001150D01*
X014007Y001150D01*
X016765Y001150D01*
X016789Y001208D02*
X016706Y001008D01*
X016706Y000792D01*
X016789Y000592D01*
X016942Y000439D01*
X017142Y000356D01*
X017358Y000356D01*
X017558Y000439D01*
X017711Y000592D01*
X017794Y000792D01*
X017794Y001008D01*
X017711Y001208D01*
X017558Y001361D01*
X017358Y001444D01*
X017142Y001444D01*
X016942Y001361D01*
X016789Y001208D01*
X016800Y001219D02*
X016800Y003845D01*
X016812Y003850D02*
X017550Y003850D01*
X017550Y003866D02*
X017550Y003667D01*
X017667Y003550D01*
X016300Y003550D01*
X016300Y003650D02*
X017567Y003650D01*
X017600Y003617D02*
X017600Y001319D01*
X017569Y001350D02*
X017850Y001350D01*
X017850Y001250D02*
X017669Y001250D01*
X017700Y001219D02*
X017700Y003517D01*
X017667Y003550D02*
X017767Y003450D01*
X016300Y003450D01*
X016300Y003443D02*
X016007Y003150D01*
X018000Y003150D01*
X018000Y003050D02*
X016107Y003050D01*
X016100Y003057D02*
X016100Y003243D01*
X016107Y003250D02*
X018000Y003250D01*
X018000Y003350D02*
X016207Y003350D01*
X016200Y003343D02*
X016200Y002957D01*
X016207Y002950D02*
X018000Y002950D01*
X018000Y002850D02*
X016300Y002850D01*
X016300Y002857D02*
X016007Y003150D01*
X015593Y003150D01*
X014982Y003150D01*
X015000Y003168D02*
X015000Y003024D01*
X015082Y003024D02*
X014801Y003024D01*
X014801Y002600D01*
X014701Y002600D01*
X014701Y002500D01*
X014316Y002500D01*
X014316Y002180D01*
X014324Y002149D01*
X014340Y002122D01*
X014363Y002100D01*
X014390Y002084D01*
X014420Y002076D01*
X014561Y002076D01*
X014330Y001845D01*
X014330Y001700D01*
X014750Y001700D01*
X014750Y002120D01*
X014701Y002120D01*
X014701Y002500D01*
X014710Y002530D01*
X014751Y002550D01*
X014780Y002460D01*
X014801Y002450D02*
X014701Y002450D01*
X014701Y002500D02*
X014801Y002500D01*
X014801Y002076D01*
X014850Y002076D01*
X014850Y001700D01*
X015270Y001700D01*
X015270Y001845D01*
X015039Y002076D01*
X015082Y002076D01*
X015112Y002084D01*
X015140Y002100D01*
X015162Y002122D01*
X015178Y002149D01*
X015186Y002180D01*
X015186Y002500D01*
X014801Y002500D01*
X014801Y002600D01*
X015186Y002600D01*
X015186Y002920D01*
X015178Y002951D01*
X015162Y002978D01*
X015140Y003000D01*
X015112Y003016D01*
X015082Y003024D01*
X015100Y003019D02*
X015100Y004838D01*
X015105Y004850D02*
X015300Y004850D01*
X015300Y004857D02*
X015300Y005443D01*
X015593Y005150D01*
X015070Y005150D01*
X015070Y005133D02*
X015070Y007667D01*
X015071Y007669D01*
X015120Y007786D01*
X015120Y007914D01*
X015071Y008031D01*
X014981Y008121D01*
X014864Y008170D01*
X014736Y008170D01*
X014670Y008143D01*
X014670Y008704D01*
X014629Y008803D01*
X014429Y009003D01*
X014353Y009079D01*
X014254Y009120D01*
X013970Y009120D01*
X013970Y009146D01*
X014026Y009146D01*
X014114Y009234D01*
X014114Y010066D01*
X014110Y010070D01*
X014110Y010253D01*
X014300Y010443D01*
X014300Y010857D01*
X014007Y011150D01*
X013593Y011150D01*
X013300Y010857D01*
X013300Y012000D01*
X013200Y012000D02*
X013200Y010957D01*
X013207Y010950D02*
X013393Y010950D01*
X013400Y010957D02*
X013400Y012000D01*
X013500Y012000D02*
X013500Y011057D01*
X013493Y011050D02*
X013107Y011050D01*
X013100Y011057D02*
X013100Y012000D01*
X013000Y012000D02*
X013000Y011150D01*
X013007Y011150D02*
X012593Y011150D01*
X012300Y010857D01*
X012300Y012000D01*
X012200Y012000D02*
X012200Y010957D01*
X012207Y010950D02*
X012393Y010950D01*
X012400Y010957D02*
X012400Y012000D01*
X012500Y012000D02*
X012500Y011057D01*
X012493Y011050D02*
X012107Y011050D01*
X012100Y011057D02*
X012100Y012000D01*
X012000Y012000D02*
X012000Y011150D01*
X012007Y011150D02*
X011593Y011150D01*
X011300Y010857D01*
X011300Y012000D01*
X011200Y012000D02*
X011200Y010957D01*
X011207Y010950D02*
X011393Y010950D01*
X011400Y010957D02*
X011400Y012000D01*
X011500Y012000D02*
X011500Y011057D01*
X011493Y011050D02*
X011107Y011050D01*
X011100Y011057D02*
X011100Y012000D01*
X011000Y012000D02*
X011000Y011150D01*
X011007Y011150D02*
X010593Y011150D01*
X010300Y010857D01*
X010300Y012000D01*
X010400Y012000D02*
X010400Y010957D01*
X010393Y010950D02*
X010207Y010950D01*
X010200Y010957D02*
X010200Y012000D01*
X010100Y012000D02*
X010100Y011057D01*
X010107Y011050D02*
X010493Y011050D01*
X010500Y011057D02*
X010500Y012000D01*
X010600Y012000D02*
X010600Y011150D01*
X010700Y011150D02*
X010700Y012000D01*
X010800Y012000D02*
X010800Y011150D01*
X010900Y011150D02*
X010900Y012000D01*
X011600Y012000D02*
X011600Y011150D01*
X011700Y011150D02*
X011700Y012000D01*
X011800Y012000D02*
X011800Y011150D01*
X011900Y011150D02*
X011900Y012000D01*
X012600Y012000D02*
X012600Y011150D01*
X012700Y011150D02*
X012700Y012000D01*
X012800Y012000D02*
X012800Y011150D01*
X012900Y011150D02*
X012900Y012000D01*
X013600Y012000D02*
X013600Y011150D01*
X013700Y011150D02*
X013700Y012000D01*
X013800Y012000D02*
X013800Y011150D01*
X013900Y011150D02*
X013900Y012000D01*
X014000Y012000D02*
X014000Y011150D01*
X014100Y011057D02*
X014100Y012000D01*
X014200Y012000D02*
X014200Y010957D01*
X014207Y010950D02*
X014435Y010950D01*
X014400Y010915D02*
X014400Y012000D01*
X014300Y012000D02*
X014300Y009101D01*
X014382Y009050D02*
X015493Y009050D01*
X015500Y009057D02*
X015500Y009285D01*
X015535Y009250D02*
X015178Y009250D01*
X015178Y009249D02*
X015186Y009280D01*
X015186Y009600D01*
X014801Y009600D01*
X014801Y009176D01*
X015082Y009176D01*
X015112Y009184D01*
X015140Y009200D01*
X015162Y009222D01*
X015178Y009249D01*
X015186Y009350D02*
X015435Y009350D01*
X015400Y009385D02*
X015400Y008957D01*
X015393Y008950D02*
X014482Y008950D01*
X014500Y008932D02*
X014500Y009176D01*
X014420Y009176D02*
X014701Y009176D01*
X014701Y009600D01*
X014316Y009600D01*
X014316Y009280D01*
X014324Y009249D01*
X014340Y009222D01*
X014363Y009200D01*
X014390Y009184D01*
X014420Y009176D01*
X014400Y009181D02*
X014400Y009032D01*
X014200Y009120D02*
X014200Y010343D01*
X014207Y010350D02*
X014435Y010350D01*
X014400Y010385D02*
X014400Y010119D01*
X014390Y010116D02*
X014363Y010100D01*
X014340Y010078D01*
X014324Y010051D01*
X014316Y010020D01*
X014316Y009700D01*
X014701Y009700D01*
X014701Y009600D01*
X014801Y009600D01*
X014801Y009700D01*
X014701Y009700D01*
X014701Y010124D01*
X014420Y010124D01*
X014390Y010116D01*
X014324Y010050D02*
X014114Y010050D01*
X014114Y009950D02*
X014316Y009950D01*
X014316Y009850D02*
X014114Y009850D01*
X014114Y009750D02*
X014316Y009750D01*
X014400Y009700D02*
X014400Y009600D01*
X014316Y009550D02*
X014114Y009550D01*
X014114Y009450D02*
X014316Y009450D01*
X014316Y009350D02*
X014114Y009350D01*
X014114Y009250D02*
X014324Y009250D01*
X014100Y009220D02*
X014100Y009120D01*
X014030Y009150D02*
X016300Y009150D01*
X016300Y009050D02*
X016107Y009050D01*
X016100Y009057D02*
X016100Y009285D01*
X016065Y009250D02*
X016300Y009250D01*
X016300Y009350D02*
X016165Y009350D01*
X016200Y009385D02*
X016200Y008957D01*
X016207Y008950D02*
X016300Y008950D01*
X016300Y008857D02*
X016007Y009150D01*
X015593Y009150D01*
X015300Y008857D01*
X015300Y012000D01*
X015400Y012000D02*
X015400Y009915D01*
X015435Y009950D02*
X015186Y009950D01*
X015186Y010020D02*
X015178Y010051D01*
X015162Y010078D01*
X015140Y010100D01*
X015112Y010116D01*
X015082Y010124D01*
X014801Y010124D01*
X014801Y009700D01*
X015186Y009700D01*
X015186Y010020D01*
X015178Y010050D02*
X015535Y010050D01*
X015500Y010015D02*
X015500Y012000D01*
X015600Y012000D02*
X015600Y010115D01*
X015605Y010120D02*
X015330Y009845D01*
X015330Y009700D01*
X015750Y009700D01*
X015750Y010120D01*
X015605Y010120D01*
X015700Y010120D02*
X015700Y012000D01*
X015800Y012000D02*
X015800Y009700D01*
X015850Y009700D02*
X015750Y009700D01*
X015750Y009600D01*
X015850Y009600D01*
X015850Y009700D01*
X016270Y009700D01*
X016270Y009845D01*
X015995Y010120D01*
X015850Y010120D01*
X015850Y009700D01*
X015850Y009650D02*
X016317Y009650D01*
X016300Y009633D02*
X016300Y011194D01*
X016255Y011175D02*
X016356Y011217D01*
X016433Y011294D01*
X016475Y011395D01*
X016475Y011505D01*
X016433Y011606D01*
X016356Y011683D01*
X016255Y011725D01*
X016145Y011725D01*
X016044Y011683D01*
X015967Y011606D01*
X015925Y011505D01*
X015925Y011395D01*
X015967Y011294D01*
X016044Y011217D01*
X016145Y011175D01*
X016255Y011175D01*
X016200Y011175D02*
X016200Y009915D01*
X016165Y009950D02*
X018000Y009950D01*
X018000Y009850D02*
X016265Y009850D01*
X016270Y009750D02*
X016417Y009750D01*
X016400Y009733D02*
X016400Y011261D01*
X016389Y011250D02*
X016724Y011250D01*
X016706Y011292D02*
X016789Y011092D01*
X016942Y010939D01*
X017142Y010856D01*
X017358Y010856D01*
X017558Y010939D01*
X017711Y011092D01*
X017794Y011292D01*
X017794Y011508D01*
X017711Y011708D01*
X017558Y011861D01*
X017358Y011944D01*
X017142Y011944D01*
X016942Y011861D01*
X016789Y011708D01*
X016706Y011508D01*
X016706Y011292D01*
X016706Y011350D02*
X016456Y011350D01*
X016475Y011450D02*
X016706Y011450D01*
X016724Y011550D02*
X016456Y011550D01*
X016400Y011639D02*
X016400Y012000D01*
X016300Y012000D02*
X016300Y011706D01*
X016200Y011725D02*
X016200Y012000D01*
X016100Y012000D02*
X016100Y011706D01*
X016011Y011650D02*
X003250Y011650D01*
X003250Y011750D02*
X016831Y011750D01*
X016800Y011719D02*
X016800Y012000D01*
X016700Y012000D02*
X016700Y009850D01*
X016800Y009850D02*
X016800Y011081D01*
X016831Y011050D02*
X015065Y011050D01*
X015100Y011015D02*
X015100Y012000D01*
X015200Y012000D02*
X015200Y010915D01*
X015165Y010950D02*
X016931Y010950D01*
X016900Y010981D02*
X016900Y009850D01*
X017000Y009850D02*
X017000Y010915D01*
X017100Y010874D02*
X017100Y009850D01*
X017200Y009850D02*
X017200Y010856D01*
X017300Y010856D02*
X017300Y009850D01*
X017400Y009850D02*
X017400Y010874D01*
X017500Y010915D02*
X017500Y009850D01*
X017600Y009850D02*
X017600Y010981D01*
X017569Y010950D02*
X017850Y010950D01*
X017850Y011050D02*
X017669Y011050D01*
X017700Y011081D02*
X017700Y009850D01*
X017800Y009850D02*
X017800Y011652D01*
X017801Y011650D02*
X017735Y011650D01*
X017700Y011719D02*
X017700Y011813D01*
X017663Y011850D02*
X017569Y011850D01*
X017600Y011819D02*
X017600Y011910D01*
X017606Y011907D02*
X017757Y011756D01*
X017839Y011557D01*
X017850Y011450D01*
X017794Y011450D01*
X017850Y011450D02*
X017850Y010409D01*
X017928Y010221D01*
X018000Y010149D01*
X018000Y009850D01*
X016517Y009850D01*
X016400Y009733D01*
X016300Y009633D01*
X016300Y008470D01*
X016300Y008857D01*
X016300Y008850D02*
X016300Y008850D01*
X016300Y008750D02*
X016300Y008750D01*
X016300Y008650D02*
X016300Y008650D01*
X016300Y008550D02*
X016300Y008550D01*
X016300Y008470D02*
X016300Y008470D01*
X016500Y008300D02*
X016500Y009550D01*
X016600Y009650D01*
X018850Y009650D01*
X018000Y009450D02*
X018000Y009262D01*
X017971Y009331D01*
X017881Y009421D01*
X017812Y009450D01*
X018000Y009450D01*
X018000Y009350D02*
X017953Y009350D01*
X017900Y009403D02*
X017900Y009450D01*
X017588Y009450D02*
X017519Y009421D01*
X017429Y009331D01*
X017380Y009214D01*
X017380Y009086D01*
X017429Y008969D01*
X017519Y008879D01*
X017636Y008830D01*
X017737Y008830D01*
X018000Y008567D01*
X018000Y007850D01*
X016412Y007850D01*
X016400Y007845D02*
X016400Y007403D01*
X016419Y007421D02*
X016329Y007331D01*
X016280Y007214D01*
X016280Y007086D01*
X016329Y006969D01*
X016419Y006879D01*
X016536Y006830D01*
X016664Y006830D01*
X016781Y006879D01*
X016871Y006969D01*
X016920Y007086D01*
X016920Y007187D01*
X017183Y007450D01*
X018000Y007450D01*
X018000Y006350D01*
X016383Y006350D01*
X016295Y006438D01*
X016300Y006443D01*
X016300Y006857D01*
X016007Y007150D01*
X016280Y007150D01*
X016295Y007050D02*
X016107Y007050D01*
X016100Y007057D02*
X016100Y007243D01*
X016107Y007250D02*
X016295Y007250D01*
X016300Y007262D02*
X016300Y007830D01*
X016364Y007830D01*
X016481Y007879D01*
X016571Y007969D01*
X016620Y008086D01*
X016620Y008137D01*
X016700Y008217D01*
X016700Y009450D01*
X016700Y007533D01*
X016717Y007550D02*
X016300Y007550D01*
X016300Y007450D02*
X016488Y007450D01*
X016500Y007455D02*
X016500Y007897D01*
X016553Y007950D02*
X018000Y007950D01*
X018000Y008050D02*
X016605Y008050D01*
X016600Y008038D02*
X016600Y007470D01*
X016637Y007470D02*
X016536Y007470D01*
X016419Y007421D01*
X016347Y007350D02*
X016207Y007350D01*
X016200Y007343D02*
X016200Y006957D01*
X016207Y006950D02*
X016347Y006950D01*
X016400Y006897D02*
X016400Y006350D01*
X016383Y006350D02*
X018000Y006350D01*
X018000Y006450D02*
X016300Y006450D01*
X016300Y006433D02*
X016300Y007038D01*
X016300Y006850D02*
X016488Y006850D01*
X016500Y006845D02*
X016500Y006350D01*
X016600Y006350D02*
X016600Y006830D01*
X016700Y006845D02*
X016700Y006350D01*
X016800Y006350D02*
X016800Y006897D01*
X016853Y006950D02*
X018000Y006950D01*
X018000Y006850D02*
X016712Y006850D01*
X016900Y007038D02*
X016900Y006350D01*
X017000Y006350D02*
X017000Y007267D01*
X016983Y007250D02*
X018000Y007250D01*
X018000Y007150D02*
X016920Y007150D01*
X016905Y007050D02*
X018000Y007050D01*
X018000Y006750D02*
X016300Y006750D01*
X016300Y006650D02*
X018000Y006650D01*
X018000Y006550D02*
X016300Y006550D01*
X016300Y006150D02*
X018350Y006150D01*
X018850Y006650D01*
X017900Y006350D02*
X017900Y007450D01*
X017800Y007450D02*
X017800Y006350D01*
X017700Y006350D02*
X017700Y007450D01*
X017600Y007450D02*
X017600Y006350D01*
X017500Y006350D02*
X017500Y007450D01*
X017400Y007450D02*
X017400Y006350D01*
X017300Y006350D02*
X017300Y007450D01*
X017200Y007450D02*
X017200Y006350D01*
X017100Y006350D02*
X017100Y007367D01*
X017083Y007350D02*
X018000Y007350D01*
X018000Y007850D02*
X017017Y007850D01*
X016900Y007733D01*
X016900Y009450D01*
X017000Y009450D02*
X017000Y007833D01*
X017100Y007850D02*
X017100Y009450D01*
X017200Y009450D02*
X017200Y007850D01*
X017300Y007850D02*
X017300Y009450D01*
X017400Y009450D02*
X017400Y009262D01*
X017395Y009250D02*
X016700Y009250D01*
X016700Y009350D02*
X017447Y009350D01*
X017500Y009403D02*
X017500Y009450D01*
X017588Y009450D02*
X016700Y009450D01*
X016800Y009450D02*
X016800Y007633D01*
X016817Y007650D02*
X016300Y007650D01*
X016300Y007750D02*
X016917Y007750D01*
X016900Y007733D02*
X016900Y007733D01*
X016637Y007470D01*
X016300Y007443D02*
X016007Y007150D01*
X015593Y007150D01*
X015070Y007150D01*
X015070Y007050D02*
X015493Y007050D01*
X015500Y007057D02*
X015500Y007243D01*
X015493Y007250D02*
X015070Y007250D01*
X015070Y007350D02*
X015393Y007350D01*
X015400Y007343D02*
X015400Y006957D01*
X015393Y006950D02*
X015070Y006950D01*
X015070Y006850D02*
X015300Y006850D01*
X015300Y006857D02*
X015300Y007443D01*
X015593Y007150D01*
X015300Y006857D01*
X015300Y006443D01*
X015300Y005857D01*
X015300Y005443D01*
X015300Y005450D02*
X015070Y005450D01*
X015070Y005550D02*
X015300Y005550D01*
X015300Y005650D02*
X015070Y005650D01*
X015070Y005750D02*
X015300Y005750D01*
X015300Y005850D02*
X015070Y005850D01*
X015070Y005950D02*
X015393Y005950D01*
X015400Y005957D02*
X015400Y006343D01*
X015393Y006350D02*
X015070Y006350D01*
X015070Y006450D02*
X015300Y006450D01*
X015300Y006443D02*
X015593Y006150D01*
X015070Y006150D01*
X015070Y006050D02*
X015493Y006050D01*
X015500Y006057D02*
X015500Y006243D01*
X015493Y006250D02*
X015070Y006250D01*
X015070Y006550D02*
X015300Y006550D01*
X015300Y006650D02*
X015070Y006650D01*
X015070Y006750D02*
X015300Y006750D01*
X015800Y006650D02*
X016300Y006150D01*
X016300Y005950D02*
X016300Y005850D01*
X018000Y005850D01*
X016300Y005850D01*
X016300Y005857D01*
X016007Y006150D01*
X016017Y006150D01*
X016012Y006155D02*
X016100Y006067D01*
X016100Y006057D01*
X016107Y006050D02*
X016117Y006050D01*
X016100Y006067D02*
X016217Y005950D01*
X016207Y005950D01*
X016200Y005957D02*
X016200Y005967D01*
X016217Y005950D02*
X018000Y005950D01*
X018000Y005850D01*
X017900Y005850D02*
X017900Y005950D01*
X017800Y005950D02*
X017800Y005850D01*
X017700Y005850D02*
X017700Y005950D01*
X017600Y005950D02*
X017600Y005850D01*
X017500Y005850D02*
X017500Y005950D01*
X017400Y005950D02*
X017400Y005850D01*
X017300Y005850D02*
X017300Y005950D01*
X017200Y005950D02*
X017200Y005850D01*
X017100Y005850D02*
X017100Y005950D01*
X017000Y005950D02*
X017000Y005850D01*
X016900Y005850D02*
X016900Y005950D01*
X016800Y005950D02*
X016800Y005850D01*
X016700Y005850D02*
X016700Y005950D01*
X016600Y005950D02*
X016600Y005850D01*
X016500Y005850D02*
X016500Y005950D01*
X016400Y005950D02*
X016400Y005850D01*
X016100Y006067D02*
X016100Y006067D01*
X016007Y006150D02*
X016012Y006155D01*
X016007Y006150D02*
X015593Y006150D01*
X015300Y005857D01*
X015593Y006150D02*
X016007Y006150D01*
X016000Y006150D02*
X016000Y006150D01*
X015900Y006150D02*
X015900Y006150D01*
X015800Y006150D02*
X015800Y006150D01*
X015700Y006150D02*
X015700Y006150D01*
X015600Y006150D02*
X015600Y006150D01*
X015800Y005650D02*
X018850Y005650D01*
X018000Y005450D02*
X018000Y004960D01*
X017743Y004960D01*
X017681Y005021D01*
X017564Y005070D01*
X017436Y005070D01*
X017319Y005021D01*
X017229Y004931D01*
X017180Y004814D01*
X017180Y004686D01*
X017190Y004662D01*
X017190Y004588D01*
X017237Y004474D01*
X017324Y004387D01*
X017438Y004340D01*
X017429Y004331D01*
X017380Y004214D01*
X017380Y004086D01*
X017429Y003969D01*
X017519Y003879D01*
X017550Y003866D01*
X017500Y003897D02*
X017500Y001385D01*
X017400Y001426D02*
X017400Y004038D01*
X017395Y004050D02*
X017005Y004050D01*
X017000Y004038D02*
X017000Y001385D01*
X016931Y001350D02*
X015165Y001350D01*
X015200Y001385D02*
X015200Y000300D01*
X015100Y000300D02*
X015100Y001285D01*
X015065Y001250D02*
X016831Y001250D01*
X016900Y001319D02*
X016900Y003897D01*
X016881Y003879D02*
X016971Y003969D01*
X017020Y004086D01*
X017020Y004214D01*
X016971Y004331D01*
X016881Y004421D01*
X016764Y004470D01*
X016636Y004470D01*
X016519Y004421D01*
X016447Y004350D01*
X016383Y004350D01*
X016295Y004438D01*
X016300Y004443D01*
X016300Y004857D01*
X016007Y005150D01*
X018000Y005150D01*
X018000Y005050D02*
X017612Y005050D01*
X017600Y005055D02*
X017600Y005450D01*
X017700Y005450D02*
X017700Y005003D01*
X017800Y004960D02*
X017800Y005450D01*
X017900Y005450D02*
X017900Y004960D01*
X018000Y005250D02*
X016107Y005250D01*
X016100Y005243D02*
X016100Y005057D01*
X016107Y005050D02*
X017388Y005050D01*
X017400Y005055D02*
X017400Y005450D01*
X017500Y005450D02*
X017500Y005070D01*
X017300Y005003D02*
X017300Y005450D01*
X017200Y005450D02*
X017200Y004862D01*
X017195Y004850D02*
X016300Y004850D01*
X016300Y004750D02*
X017180Y004750D01*
X017190Y004650D02*
X016300Y004650D01*
X016300Y004550D02*
X017206Y004550D01*
X017200Y004564D02*
X017200Y001444D01*
X017300Y001444D02*
X017300Y004412D01*
X017262Y004450D02*
X016812Y004450D01*
X016800Y004455D02*
X016800Y005450D01*
X016700Y005450D02*
X016700Y004470D01*
X016600Y004455D02*
X016600Y005450D01*
X016500Y005450D02*
X016500Y004403D01*
X016447Y004350D02*
X016383Y004350D01*
X016400Y004350D02*
X016400Y005450D01*
X016300Y005450D02*
X016300Y004433D01*
X016300Y004450D02*
X016588Y004450D01*
X016900Y004403D02*
X016900Y005450D01*
X017000Y005450D02*
X017000Y004262D01*
X017005Y004250D02*
X017395Y004250D01*
X017400Y004262D02*
X017400Y004356D01*
X017414Y004350D02*
X016953Y004350D01*
X017020Y004150D02*
X017380Y004150D01*
X017447Y003950D02*
X016953Y003950D01*
X016881Y003879D02*
X016764Y003830D01*
X016636Y003830D01*
X016519Y003879D01*
X016447Y003950D01*
X016217Y003950D01*
X016207Y003950D01*
X016200Y003957D02*
X016200Y003967D01*
X016217Y003950D02*
X016100Y004067D01*
X016100Y004057D01*
X016107Y004050D02*
X016117Y004050D01*
X016100Y004067D02*
X016012Y004155D01*
X016007Y004150D01*
X016017Y004150D01*
X016007Y004150D02*
X015593Y004150D01*
X015070Y004150D01*
X015070Y004050D02*
X015493Y004050D01*
X015500Y004057D02*
X015500Y004243D01*
X015493Y004250D02*
X015070Y004250D01*
X015070Y004350D02*
X015393Y004350D01*
X015400Y004343D02*
X015400Y003957D01*
X015393Y003950D02*
X015070Y003950D01*
X015070Y003850D02*
X015300Y003850D01*
X015300Y003857D02*
X015300Y004443D01*
X015593Y004150D01*
X015300Y003857D01*
X015300Y003443D01*
X015300Y002857D01*
X015300Y002443D01*
X015300Y000300D01*
X015400Y000300D02*
X015400Y002343D01*
X015393Y002350D02*
X015186Y002350D01*
X015186Y002250D02*
X015493Y002250D01*
X015500Y002243D02*
X015500Y000300D01*
X015600Y000300D02*
X015600Y002150D01*
X015593Y002150D02*
X015178Y002150D01*
X015100Y002081D02*
X015100Y002015D01*
X015065Y002050D02*
X017916Y002050D01*
X017928Y002079D02*
X017850Y001891D01*
X017850Y000850D01*
X017794Y000850D01*
X017850Y000850D02*
X017839Y000743D01*
X017757Y000544D01*
X017606Y000393D01*
X017407Y000311D01*
X017300Y000300D01*
X017300Y000356D01*
X017300Y000300D02*
X003250Y000300D01*
X003250Y002319D01*
X003265Y002303D01*
X003705Y002303D01*
X003793Y002391D01*
X003793Y002909D01*
X003705Y002997D01*
X003265Y002997D01*
X003250Y002981D01*
X003250Y003319D01*
X003265Y003303D01*
X003705Y003303D01*
X003793Y003391D01*
X003793Y003880D01*
X003807Y003880D01*
X003807Y003391D01*
X003845Y003354D01*
X003845Y002946D01*
X003807Y002909D01*
X003807Y002391D01*
X003895Y002303D01*
X004335Y002303D01*
X004422Y002391D01*
X004422Y002909D01*
X004385Y002946D01*
X004385Y003354D01*
X004422Y003391D01*
X004422Y003909D01*
X004370Y003961D01*
X004370Y003967D01*
X004371Y003969D01*
X004420Y004086D01*
X004420Y004214D01*
X004401Y004260D01*
X004426Y004242D01*
X004447Y004221D01*
X004469Y004212D01*
X004578Y004136D01*
X004578Y003991D01*
X004665Y003903D01*
X005105Y003903D01*
X005193Y003991D01*
X005193Y004509D01*
X005155Y004546D01*
X005155Y004554D01*
X005193Y004591D01*
X005193Y005109D01*
X005152Y005150D01*
X005248Y005150D01*
X005270Y005129D02*
X005261Y005121D01*
X005246Y005093D01*
X005237Y005063D01*
X005237Y004879D01*
X005486Y004879D01*
X005486Y004821D01*
X005237Y004821D01*
X005237Y004637D01*
X005246Y004607D01*
X005261Y004579D01*
X005284Y004557D01*
X005296Y004550D01*
X005155Y004550D01*
X005193Y004450D02*
X005237Y004450D01*
X005237Y004463D02*
X005237Y004279D01*
X005486Y004279D01*
X005486Y004821D01*
X005544Y004821D01*
X005544Y004879D01*
X005792Y004879D01*
X005792Y005063D01*
X005784Y005093D01*
X005768Y005121D01*
X005760Y005129D01*
X005822Y005191D01*
X005822Y005290D01*
X005900Y005367D01*
X006491Y005958D01*
X007431Y005958D01*
X007431Y005878D01*
X007548Y005761D01*
X007582Y005761D01*
X007444Y005597D01*
X007195Y005597D01*
X007107Y005509D01*
X007107Y005450D02*
X007063Y005450D01*
X007063Y005350D02*
X007107Y005350D01*
X007107Y005250D02*
X006814Y005250D01*
X006814Y005221D02*
X007063Y005221D01*
X007063Y005037D01*
X007054Y005007D01*
X007039Y004979D01*
X007016Y004957D01*
X006989Y004941D01*
X006958Y004933D01*
X006814Y004933D01*
X006814Y005221D01*
X006800Y005221D02*
X006800Y004797D01*
X006719Y004750D02*
X006512Y004750D01*
X006500Y004755D02*
X006500Y005958D01*
X006483Y005950D02*
X007431Y005950D01*
X007400Y005958D02*
X007400Y005597D01*
X007300Y005597D02*
X007300Y005958D01*
X007200Y005958D02*
X007200Y005597D01*
X006814Y005450D02*
X006756Y005450D01*
X006756Y005350D02*
X006814Y005350D01*
X006800Y005335D02*
X006785Y005250D01*
X006800Y005278D01*
X006800Y005279D02*
X006800Y005958D01*
X007100Y005958D02*
X007100Y004797D01*
X007200Y004797D02*
X007200Y004903D01*
X007148Y004950D02*
X007004Y004950D01*
X007000Y004948D02*
X007000Y004797D01*
X006900Y004797D02*
X006900Y004933D01*
X006900Y004850D02*
X006800Y005050D01*
X006800Y005335D01*
X006756Y005250D02*
X005822Y005250D01*
X005800Y005169D02*
X005800Y003738D01*
X005788Y003750D02*
X006512Y003750D01*
X006500Y003738D02*
X006500Y004145D01*
X006512Y004150D02*
X006719Y004150D01*
X006700Y004169D02*
X006700Y003860D01*
X006664Y003850D02*
X005636Y003850D01*
X005612Y003860D02*
X005388Y003860D01*
X005364Y003870D01*
X005236Y003870D01*
X005119Y003821D01*
X005029Y003731D01*
X004980Y003614D01*
X004980Y003486D01*
X005029Y003369D01*
X005119Y003279D01*
X005236Y003230D01*
X005252Y003230D01*
X005252Y002434D01*
X005340Y002346D01*
X005858Y002346D01*
X005946Y002434D01*
X005946Y003266D01*
X005909Y003303D01*
X005909Y003563D01*
X005862Y003677D01*
X005813Y003726D01*
X005726Y003813D01*
X005612Y003860D01*
X005600Y003860D02*
X005600Y003933D01*
X005544Y003950D02*
X005486Y003950D01*
X005486Y003933D02*
X005486Y004221D01*
X005544Y004221D01*
X005792Y004221D01*
X005700Y004221D02*
X005700Y004279D01*
X005600Y004279D02*
X005600Y004221D01*
X005544Y004250D02*
X006147Y004250D01*
X006200Y004197D02*
X006200Y001957D01*
X006207Y001950D02*
X006393Y001950D01*
X006400Y001957D02*
X006400Y002388D01*
X006438Y002350D02*
X005862Y002350D01*
X005900Y002388D02*
X005900Y002150D01*
X005800Y002150D02*
X005800Y002346D01*
X005700Y002346D02*
X005700Y002150D01*
X005600Y002150D02*
X005600Y002346D01*
X005500Y002346D02*
X005500Y002057D01*
X005493Y002050D02*
X005107Y002050D01*
X005100Y002057D02*
X005100Y003297D01*
X005047Y003350D02*
X004385Y003350D01*
X004400Y003369D02*
X004400Y002931D01*
X004385Y002950D02*
X005252Y002950D01*
X005252Y002850D02*
X004422Y002850D01*
X004422Y002750D02*
X005252Y002750D01*
X005252Y002650D02*
X004422Y002650D01*
X004422Y002550D02*
X005252Y002550D01*
X005252Y002450D02*
X004422Y002450D01*
X004400Y002369D02*
X004400Y001957D01*
X004393Y001950D02*
X004207Y001950D01*
X004200Y001957D02*
X004200Y002303D01*
X004300Y002303D02*
X004300Y001857D01*
X004007Y002150D01*
X003593Y002150D01*
X003300Y001857D01*
X003300Y002303D01*
X003250Y002250D02*
X013184Y002250D01*
X013184Y002150D02*
X003250Y002150D01*
X003250Y002050D02*
X003493Y002050D01*
X003500Y002057D02*
X003500Y002303D01*
X003400Y002303D02*
X003400Y001957D01*
X003393Y001950D02*
X003250Y001950D01*
X003250Y001850D02*
X003300Y001850D01*
X003300Y001857D02*
X003300Y001443D01*
X003300Y000300D01*
X003250Y000350D02*
X017502Y000350D01*
X017500Y000349D02*
X017500Y000415D01*
X017569Y000450D02*
X017663Y000450D01*
X017700Y000487D02*
X017700Y000581D01*
X017669Y000550D02*
X017760Y000550D01*
X017735Y000650D02*
X017801Y000650D01*
X017800Y000648D02*
X017800Y003450D01*
X017767Y003450D02*
X018000Y003450D01*
X018000Y002151D01*
X017928Y002079D01*
X017928Y002079D01*
X017900Y002012D02*
X017900Y003450D01*
X017850Y003650D02*
X017750Y003750D01*
X017750Y004100D01*
X017700Y004150D01*
X018000Y004262D02*
X017971Y004331D01*
X017963Y004340D01*
X018000Y004340D01*
X018000Y004262D01*
X018000Y004038D02*
X018000Y003850D01*
X017950Y003850D01*
X017950Y003947D01*
X017971Y003969D01*
X018000Y004038D01*
X018000Y003950D02*
X017953Y003950D01*
X017950Y003850D02*
X018000Y003850D01*
X017850Y003650D02*
X018850Y003650D01*
X017550Y003750D02*
X016300Y003750D01*
X016300Y003850D02*
X016588Y003850D01*
X016600Y003845D02*
X016600Y000300D01*
X016500Y000300D02*
X016500Y003897D01*
X016400Y003950D02*
X016400Y001039D01*
X016389Y001050D02*
X016724Y001050D01*
X016706Y000950D02*
X016456Y000950D01*
X016475Y000905D02*
X016433Y001006D01*
X016356Y001083D01*
X016255Y001125D01*
X016145Y001125D01*
X016044Y001083D01*
X015967Y001006D01*
X015925Y000905D01*
X015925Y000795D01*
X015967Y000694D01*
X016044Y000617D01*
X016145Y000575D01*
X016255Y000575D01*
X016356Y000617D01*
X016433Y000694D01*
X016475Y000795D01*
X016475Y000905D01*
X016475Y000850D02*
X016706Y000850D01*
X016724Y000750D02*
X016456Y000750D01*
X016400Y000661D02*
X016400Y000300D01*
X016300Y000300D02*
X016300Y000594D01*
X016200Y000575D02*
X016200Y000300D01*
X016100Y000300D02*
X016100Y000594D01*
X016011Y000650D02*
X003250Y000650D01*
X003250Y000750D02*
X015944Y000750D01*
X015925Y000850D02*
X003250Y000850D01*
X003250Y000950D02*
X015944Y000950D01*
X016000Y001039D02*
X016000Y002150D01*
X016007Y002150D02*
X017999Y002150D01*
X018000Y002250D02*
X016107Y002250D01*
X016100Y002243D02*
X016100Y001106D01*
X016200Y001125D02*
X016200Y002343D01*
X016207Y002350D02*
X018000Y002350D01*
X018000Y002450D02*
X016300Y002450D01*
X016300Y002443D02*
X016007Y002150D01*
X015593Y002150D01*
X015300Y002443D01*
X015300Y002450D02*
X015186Y002450D01*
X015100Y002500D02*
X015100Y002600D01*
X015186Y002650D02*
X015300Y002650D01*
X015300Y002550D02*
X014801Y002550D01*
X014780Y002530D02*
X014780Y002500D01*
X014800Y002500D02*
X014800Y001700D01*
X014850Y001700D02*
X014750Y001700D01*
X014750Y001600D01*
X014850Y001600D01*
X014850Y001700D01*
X014900Y001700D02*
X014900Y001600D01*
X014850Y001600D02*
X015270Y001600D01*
X015270Y001455D01*
X014995Y001180D01*
X014850Y001180D01*
X014850Y001600D01*
X014850Y001550D02*
X014750Y001550D01*
X014750Y001600D02*
X014750Y001180D01*
X014605Y001180D01*
X014330Y001455D01*
X014330Y001600D01*
X014750Y001600D01*
X014800Y001600D02*
X014800Y000300D01*
X014700Y000300D02*
X014700Y001180D01*
X014750Y001250D02*
X014850Y001250D01*
X014900Y001180D02*
X014900Y000300D01*
X015000Y000300D02*
X015000Y001185D01*
X014850Y001350D02*
X014750Y001350D01*
X014750Y001450D02*
X014850Y001450D01*
X014700Y001600D02*
X014700Y001700D01*
X014710Y001760D02*
X014750Y001760D01*
X014750Y001750D02*
X014850Y001750D01*
X014850Y001760D02*
X014850Y001760D01*
X014800Y001650D01*
X014710Y001760D01*
X014780Y001760D02*
X014800Y001650D01*
X014850Y001830D01*
X014850Y001830D01*
X014850Y001850D02*
X014750Y001850D01*
X014750Y001950D02*
X014850Y001950D01*
X014850Y002050D02*
X014750Y002050D01*
X014751Y002040D02*
X014780Y002040D01*
X014801Y002150D02*
X014701Y002150D01*
X014710Y002180D02*
X014751Y002180D01*
X014701Y002250D02*
X014801Y002250D01*
X014780Y002320D02*
X014751Y002550D01*
X014780Y002390D01*
X014801Y002350D02*
X014701Y002350D01*
X014700Y002500D02*
X014700Y002600D01*
X014701Y002600D02*
X014316Y002600D01*
X014316Y002920D01*
X014324Y002951D01*
X014340Y002978D01*
X014363Y003000D01*
X014390Y003016D01*
X014420Y003024D01*
X014701Y003024D01*
X014701Y002600D01*
X014701Y002650D02*
X014801Y002650D01*
X014800Y002600D02*
X014800Y003080D01*
X014854Y003080D02*
X014953Y003121D01*
X015029Y003197D01*
X015070Y003296D01*
X015070Y004767D01*
X015071Y004769D01*
X015120Y004886D01*
X015120Y005014D01*
X015071Y005131D01*
X015070Y005133D01*
X015100Y005062D02*
X015100Y007738D01*
X015105Y007750D02*
X015300Y007750D01*
X015300Y007650D02*
X015070Y007650D01*
X015070Y007550D02*
X015300Y007550D01*
X015300Y007450D02*
X015070Y007450D01*
X015300Y007443D02*
X015300Y007857D01*
X015300Y008443D01*
X015593Y008150D01*
X014912Y008150D01*
X014900Y008155D02*
X014900Y009176D01*
X015000Y009176D02*
X015000Y008103D01*
X015053Y008050D02*
X015493Y008050D01*
X015500Y008057D02*
X015500Y008243D01*
X015493Y008250D02*
X014670Y008250D01*
X014700Y008155D02*
X014700Y009176D01*
X014701Y009250D02*
X014801Y009250D01*
X014801Y009350D02*
X014701Y009350D01*
X014701Y009450D02*
X014801Y009450D01*
X014801Y009550D02*
X014701Y009550D01*
X014700Y009600D02*
X014700Y009700D01*
X014701Y009650D02*
X014114Y009650D01*
X014500Y009600D02*
X014500Y009700D01*
X014600Y009700D02*
X014600Y009600D01*
X014800Y009600D02*
X014800Y008170D01*
X014688Y008150D02*
X014670Y008150D01*
X014670Y008350D02*
X015393Y008350D01*
X015400Y008343D02*
X015400Y007957D01*
X015393Y007950D02*
X015105Y007950D01*
X015100Y007962D02*
X015100Y009181D01*
X015186Y009450D02*
X015335Y009450D01*
X015330Y009455D02*
X015605Y009180D01*
X015750Y009180D01*
X015750Y009600D01*
X015330Y009600D01*
X015330Y009455D01*
X015330Y009550D02*
X015186Y009550D01*
X015100Y009600D02*
X015100Y009700D01*
X015186Y009750D02*
X015330Y009750D01*
X015400Y009700D02*
X015400Y009600D01*
X015500Y009600D02*
X015500Y009700D01*
X015600Y009700D02*
X015600Y009600D01*
X015700Y009600D02*
X015700Y009700D01*
X015750Y009650D02*
X014801Y009650D01*
X014800Y009700D02*
X014800Y010600D01*
X014750Y010600D02*
X014850Y010600D01*
X014850Y010700D01*
X014750Y010700D01*
X014750Y011120D01*
X014605Y011120D01*
X014330Y010845D01*
X014330Y010700D01*
X014750Y010700D01*
X014750Y010600D01*
X014330Y010600D01*
X014330Y010455D01*
X014605Y010180D01*
X014750Y010180D01*
X014750Y010600D01*
X014700Y010600D02*
X014700Y010700D01*
X014750Y010650D02*
X014300Y010650D01*
X014300Y010750D02*
X014330Y010750D01*
X014400Y010700D02*
X014400Y010600D01*
X014330Y010550D02*
X014300Y010550D01*
X014300Y010450D02*
X014335Y010450D01*
X014500Y010600D02*
X014500Y010700D01*
X014600Y010700D02*
X014600Y010600D01*
X014750Y010550D02*
X014850Y010550D01*
X014850Y010600D02*
X014850Y010180D01*
X014995Y010180D01*
X015270Y010455D01*
X015270Y010600D01*
X014850Y010600D01*
X014900Y010600D02*
X014900Y010700D01*
X014850Y010700D02*
X015270Y010700D01*
X015270Y010845D01*
X014995Y011120D01*
X014850Y011120D01*
X014850Y010700D01*
X014850Y010750D02*
X014750Y010750D01*
X014800Y010700D02*
X014800Y012000D01*
X014700Y012000D02*
X014700Y011120D01*
X014750Y011050D02*
X014850Y011050D01*
X014900Y011120D02*
X014900Y012000D01*
X015000Y012000D02*
X015000Y011115D01*
X014850Y010950D02*
X014750Y010950D01*
X014750Y010850D02*
X014850Y010850D01*
X014850Y010650D02*
X017850Y010650D01*
X017850Y010750D02*
X015270Y010750D01*
X015200Y010700D02*
X015200Y010600D01*
X015270Y010550D02*
X017850Y010550D01*
X017850Y010450D02*
X015265Y010450D01*
X015200Y010385D02*
X015200Y001915D01*
X015165Y001950D02*
X017874Y001950D01*
X017850Y001850D02*
X015265Y001850D01*
X015270Y001750D02*
X017850Y001750D01*
X017850Y001650D02*
X014850Y001650D01*
X014750Y001650D02*
X014300Y001650D01*
X014300Y001750D02*
X014330Y001750D01*
X014400Y001700D02*
X014400Y001600D01*
X014330Y001550D02*
X014300Y001550D01*
X014300Y001450D02*
X014335Y001450D01*
X014300Y001443D02*
X014300Y001857D01*
X014110Y002047D01*
X014110Y002130D01*
X014114Y002134D01*
X014114Y002966D01*
X014026Y003054D01*
X013526Y003054D01*
X013501Y003080D01*
X014854Y003080D01*
X014900Y003099D02*
X014900Y003024D01*
X014801Y002950D02*
X014701Y002950D01*
X014700Y003024D02*
X014700Y003080D01*
X014600Y003080D02*
X014600Y003024D01*
X014500Y003024D02*
X014500Y003080D01*
X014400Y003080D02*
X014400Y003019D01*
X014324Y002950D02*
X014114Y002950D01*
X014100Y002980D02*
X014100Y003080D01*
X014030Y003050D02*
X015493Y003050D01*
X015500Y003057D02*
X015500Y003243D01*
X015493Y003250D02*
X015051Y003250D01*
X015070Y003350D02*
X015393Y003350D01*
X015400Y003343D02*
X015400Y002957D01*
X015393Y002950D02*
X015178Y002950D01*
X015186Y002850D02*
X015300Y002850D01*
X015300Y002857D02*
X015593Y003150D01*
X016007Y003150D01*
X016000Y003150D02*
X016000Y003150D01*
X015900Y003150D02*
X015900Y003150D01*
X015800Y003150D02*
X015800Y003150D01*
X015700Y003150D02*
X015700Y003150D01*
X015600Y003150D02*
X015600Y003150D01*
X015593Y003150D02*
X015300Y003443D01*
X015300Y003450D02*
X015070Y003450D01*
X015070Y003550D02*
X015300Y003550D01*
X015300Y003650D02*
X015070Y003650D01*
X015070Y003750D02*
X015300Y003750D01*
X015593Y004150D02*
X016007Y004150D01*
X016300Y003857D01*
X016300Y003443D01*
X016700Y003830D02*
X016700Y000300D01*
X016800Y000300D02*
X016800Y000581D01*
X016831Y000550D02*
X003250Y000550D01*
X003250Y000450D02*
X016931Y000450D01*
X016900Y000481D02*
X016900Y000300D01*
X017000Y000300D02*
X017000Y000415D01*
X017100Y000374D02*
X017100Y000300D01*
X017200Y000300D02*
X017200Y000356D01*
X017400Y000374D02*
X017400Y000310D01*
X017600Y000390D02*
X017600Y000481D01*
X017776Y000750D02*
X017840Y000750D01*
X017850Y000950D02*
X017794Y000950D01*
X017776Y001050D02*
X017850Y001050D01*
X017850Y001150D02*
X017735Y001150D01*
X017850Y001450D02*
X015265Y001450D01*
X015270Y001550D02*
X017850Y001550D01*
X017100Y001426D02*
X017100Y005450D01*
X017247Y004950D02*
X016207Y004950D01*
X016200Y004957D02*
X016200Y005343D01*
X016207Y005350D02*
X018000Y005350D01*
X018000Y005450D02*
X016300Y005450D01*
X016300Y005443D01*
X016007Y005150D01*
X015593Y005150D01*
X015300Y004857D01*
X015300Y004443D01*
X015300Y004450D02*
X015070Y004450D01*
X015070Y004550D02*
X015300Y004550D01*
X015300Y004650D02*
X015070Y004650D01*
X015070Y004750D02*
X015300Y004750D01*
X015393Y004950D02*
X015120Y004950D01*
X015105Y005050D02*
X015493Y005050D01*
X015500Y005057D02*
X015500Y005243D01*
X015493Y005250D02*
X015070Y005250D01*
X015070Y005350D02*
X015393Y005350D01*
X015400Y005343D02*
X015400Y004957D01*
X015593Y005150D02*
X016007Y005150D01*
X016000Y005150D02*
X016000Y005150D01*
X015900Y005150D02*
X015900Y005150D01*
X015800Y005150D02*
X015800Y005150D01*
X015700Y005150D02*
X015700Y005150D01*
X015600Y005150D02*
X015600Y005150D01*
X015800Y004650D02*
X016300Y004150D01*
X016700Y004150D01*
X016300Y003950D02*
X016300Y001106D01*
X016011Y001050D02*
X003250Y001050D01*
X003250Y001150D02*
X003593Y001150D01*
X004007Y001150D01*
X004593Y001150D01*
X005007Y001150D01*
X005593Y001150D01*
X006007Y001150D01*
X006593Y001150D01*
X007007Y001150D01*
X007593Y001150D01*
X008007Y001150D01*
X008593Y001150D01*
X009007Y001150D01*
X009000Y001150D02*
X009000Y000300D01*
X008900Y000300D02*
X008900Y001150D01*
X008800Y001150D02*
X008800Y000300D01*
X008700Y000300D02*
X008700Y001150D01*
X008600Y001150D02*
X008600Y000300D01*
X008500Y000300D02*
X008500Y001243D01*
X008493Y001250D02*
X008107Y001250D01*
X008100Y001243D02*
X008100Y000300D01*
X008200Y000300D02*
X008200Y001343D01*
X008207Y001350D02*
X008393Y001350D01*
X008400Y001343D02*
X008400Y000300D01*
X008300Y000300D02*
X008300Y001443D01*
X008007Y001150D01*
X008000Y001150D02*
X008000Y000300D01*
X007900Y000300D02*
X007900Y001150D01*
X007800Y001150D02*
X007800Y000300D01*
X007700Y000300D02*
X007700Y001150D01*
X007600Y001150D02*
X007600Y000300D01*
X007500Y000300D02*
X007500Y001243D01*
X007493Y001250D02*
X007107Y001250D01*
X007100Y001243D02*
X007100Y000300D01*
X007200Y000300D02*
X007200Y001343D01*
X007207Y001350D02*
X007393Y001350D01*
X007400Y001343D02*
X007400Y000300D01*
X007300Y000300D02*
X007300Y001443D01*
X007007Y001150D01*
X007000Y001150D02*
X007000Y000300D01*
X006900Y000300D02*
X006900Y001150D01*
X006800Y001150D02*
X006800Y000300D01*
X006700Y000300D02*
X006700Y001150D01*
X006600Y001150D02*
X006600Y000300D01*
X006500Y000300D02*
X006500Y001243D01*
X006493Y001250D02*
X006107Y001250D01*
X006100Y001243D02*
X006100Y000300D01*
X006000Y000300D02*
X006000Y001150D01*
X006007Y001150D02*
X006300Y001443D01*
X006300Y000300D01*
X006200Y000300D02*
X006200Y001343D01*
X006207Y001350D02*
X006393Y001350D01*
X006400Y001343D02*
X006400Y000300D01*
X005900Y000300D02*
X005900Y001150D01*
X005800Y001150D02*
X005800Y000300D01*
X005700Y000300D02*
X005700Y001150D01*
X005600Y001150D02*
X005600Y000300D01*
X005500Y000300D02*
X005500Y001243D01*
X005493Y001250D02*
X005107Y001250D01*
X005100Y001243D02*
X005100Y000300D01*
X005000Y000300D02*
X005000Y001150D01*
X005007Y001150D02*
X005300Y001443D01*
X005300Y000300D01*
X005200Y000300D02*
X005200Y001343D01*
X005207Y001350D02*
X005393Y001350D01*
X005400Y001343D02*
X005400Y000300D01*
X004900Y000300D02*
X004900Y001150D01*
X004800Y001150D02*
X004800Y000300D01*
X004700Y000300D02*
X004700Y001150D01*
X004600Y001150D02*
X004600Y000300D01*
X004500Y000300D02*
X004500Y001243D01*
X004493Y001250D02*
X004107Y001250D01*
X004100Y001243D02*
X004100Y000300D01*
X004000Y000300D02*
X004000Y001150D01*
X004007Y001150D02*
X004300Y001443D01*
X004300Y000300D01*
X004200Y000300D02*
X004200Y001343D01*
X004207Y001350D02*
X004393Y001350D01*
X004400Y001343D02*
X004400Y000300D01*
X003900Y000300D02*
X003900Y001150D01*
X003800Y001150D02*
X003800Y000300D01*
X003700Y000300D02*
X003700Y001150D01*
X003600Y001150D02*
X003600Y000300D01*
X003500Y000300D02*
X003500Y001243D01*
X003493Y001250D02*
X003250Y001250D01*
X003250Y001350D02*
X003393Y001350D01*
X003400Y001343D02*
X003400Y000300D01*
X003593Y001150D02*
X003300Y001443D01*
X003300Y001450D02*
X003250Y001450D01*
X003250Y001550D02*
X003300Y001550D01*
X003300Y001650D02*
X003250Y001650D01*
X003250Y001750D02*
X003300Y001750D01*
X003600Y002150D02*
X003600Y002303D01*
X003700Y002303D02*
X003700Y002150D01*
X003800Y002150D02*
X003800Y003880D01*
X003793Y003850D02*
X003807Y003850D01*
X003793Y003750D02*
X003807Y003750D01*
X003793Y003650D02*
X003807Y003650D01*
X003793Y003550D02*
X003807Y003550D01*
X003793Y003450D02*
X003807Y003450D01*
X003845Y003350D02*
X003752Y003350D01*
X003700Y003303D02*
X003700Y002997D01*
X003752Y002950D02*
X003845Y002950D01*
X003845Y003050D02*
X003250Y003050D01*
X003300Y002997D02*
X003300Y003303D01*
X003250Y003250D02*
X003845Y003250D01*
X003845Y003150D02*
X003250Y003150D01*
X003400Y002997D02*
X003400Y003303D01*
X003500Y003303D02*
X003500Y002997D01*
X003600Y002997D02*
X003600Y003303D01*
X003793Y002850D02*
X003807Y002850D01*
X003793Y002750D02*
X003807Y002750D01*
X003793Y002650D02*
X003807Y002650D01*
X003793Y002550D02*
X003807Y002550D01*
X003793Y002450D02*
X003807Y002450D01*
X003848Y002350D02*
X003752Y002350D01*
X003900Y002303D02*
X003900Y002150D01*
X004000Y002150D02*
X004000Y002303D01*
X004100Y002303D02*
X004100Y002057D01*
X004107Y002050D02*
X004493Y002050D01*
X004500Y002057D02*
X004500Y004190D01*
X004557Y004150D02*
X004420Y004150D01*
X004415Y004250D02*
X004405Y004250D01*
X004401Y004260D02*
X004401Y004260D01*
X004405Y004050D02*
X004578Y004050D01*
X004600Y003969D02*
X004600Y002150D01*
X004593Y002150D02*
X004300Y001857D01*
X004300Y001443D01*
X004593Y001150D01*
X004300Y001443D02*
X004300Y001857D01*
X004300Y001850D02*
X004300Y001850D01*
X004300Y001750D02*
X004300Y001750D01*
X004300Y001650D02*
X004300Y001650D01*
X004300Y001550D02*
X004300Y001550D01*
X004300Y001450D02*
X004300Y001450D01*
X004593Y002150D02*
X005007Y002150D01*
X005300Y001857D01*
X005300Y002386D01*
X005336Y002350D02*
X004381Y002350D01*
X004700Y002150D02*
X004700Y003903D01*
X004619Y003950D02*
X004381Y003950D01*
X004400Y003931D02*
X004400Y004038D01*
X004422Y003850D02*
X005188Y003850D01*
X005200Y003855D02*
X005200Y006143D01*
X005198Y006150D02*
X005018Y006150D01*
X005033Y006135D02*
X004946Y006223D01*
X004736Y006223D01*
X004790Y006277D01*
X004946Y006277D01*
X005033Y006365D01*
X005033Y006647D01*
X004977Y006703D01*
X005105Y006703D01*
X005193Y006791D01*
X005193Y007309D01*
X005105Y007397D01*
X005099Y007397D01*
X005171Y007469D01*
X005220Y007586D01*
X005220Y007714D01*
X005171Y007831D01*
X005123Y007880D01*
X005212Y007880D01*
X005300Y007968D01*
X005300Y008612D01*
X005267Y008645D01*
X005270Y008654D01*
X005270Y008770D01*
X005270Y008886D01*
X005262Y008916D01*
X005246Y008944D01*
X005224Y008966D01*
X005196Y008982D01*
X005166Y008990D01*
X004900Y008990D01*
X004900Y008770D01*
X004900Y009350D01*
X004817Y009350D02*
X004385Y009350D01*
X004385Y009354D02*
X004422Y009391D01*
X004422Y009850D01*
X004600Y009850D01*
X004600Y009567D01*
X004600Y008980D01*
X004604Y008982D02*
X004576Y008966D01*
X004554Y008944D01*
X004538Y008916D01*
X004530Y008886D01*
X004530Y008770D01*
X004900Y008770D01*
X004900Y008770D01*
X005270Y008770D01*
X004900Y008770D01*
X004900Y008770D01*
X004900Y008770D01*
X004900Y008990D01*
X004634Y008990D01*
X004604Y008982D01*
X004560Y008950D02*
X004385Y008950D01*
X004385Y008946D02*
X004385Y009354D01*
X004400Y009369D02*
X004400Y008931D01*
X004385Y008946D02*
X004422Y008909D01*
X004422Y008650D01*
X004531Y008650D01*
X004422Y008650D01*
X004500Y008650D02*
X004500Y009850D01*
X004422Y009750D02*
X004600Y009750D01*
X004600Y009650D02*
X004422Y009650D01*
X004422Y009550D02*
X004617Y009550D01*
X004600Y009567D02*
X004717Y009450D01*
X004422Y009450D01*
X004385Y009250D02*
X005395Y009250D01*
X005400Y009262D02*
X005400Y009350D01*
X005429Y009331D02*
X005380Y009214D01*
X005380Y009086D01*
X005429Y008969D01*
X005519Y008879D01*
X005636Y008830D01*
X005700Y008830D01*
X005700Y007397D01*
X005295Y007397D01*
X005207Y007309D01*
X005207Y006791D01*
X005295Y006703D01*
X005735Y006703D01*
X005749Y006718D01*
X006217Y006250D01*
X005464Y006250D01*
X004763Y006250D01*
X004800Y006223D02*
X004800Y006277D01*
X004900Y006277D02*
X004900Y006223D01*
X005000Y006168D02*
X005000Y006332D01*
X005018Y006350D02*
X005198Y006350D01*
X005197Y006345D02*
X005197Y006250D01*
X005197Y006155D01*
X005205Y006125D01*
X005221Y006098D01*
X005243Y006075D01*
X005270Y006059D01*
X005301Y006051D01*
X005464Y006051D01*
X005464Y006250D01*
X005197Y006250D01*
X005464Y006250D01*
X005464Y006250D01*
X005464Y006250D01*
X005464Y006449D01*
X005301Y006449D01*
X005270Y006441D01*
X005243Y006425D01*
X005221Y006402D01*
X005205Y006375D01*
X005197Y006345D01*
X005200Y006357D02*
X005200Y007538D01*
X005205Y007550D02*
X005700Y007550D01*
X005700Y007450D02*
X005153Y007450D01*
X005100Y007397D02*
X005100Y007397D01*
X005152Y007350D02*
X005248Y007350D01*
X005300Y007397D02*
X005300Y009350D01*
X005200Y009350D02*
X005200Y008980D01*
X005240Y008950D02*
X005447Y008950D01*
X005500Y008897D02*
X005500Y007397D01*
X005400Y007397D02*
X005400Y009038D01*
X005395Y009050D02*
X004385Y009050D01*
X004385Y009150D02*
X005380Y009150D01*
X005429Y009331D02*
X005447Y009350D01*
X004817Y009350D01*
X004717Y009450D01*
X004700Y009467D02*
X004700Y008990D01*
X004800Y008990D02*
X004800Y009367D01*
X005000Y009350D02*
X005000Y008990D01*
X005100Y008990D02*
X005100Y009350D01*
X004900Y009550D02*
X004800Y009650D01*
X004800Y010050D01*
X004800Y010650D01*
X005300Y010650D02*
X005300Y010650D01*
X005300Y010750D02*
X005300Y010750D01*
X005300Y010850D02*
X005300Y010850D01*
X005300Y010857D02*
X005300Y012000D01*
X005200Y012000D02*
X005200Y010957D01*
X005207Y010950D02*
X005393Y010950D01*
X005400Y010957D02*
X005400Y012000D01*
X005500Y012000D02*
X005500Y011057D01*
X005493Y011050D02*
X005107Y011050D01*
X005100Y011057D02*
X005100Y012000D01*
X005000Y012000D02*
X005000Y011150D01*
X005007Y011150D02*
X004593Y011150D01*
X004300Y010857D01*
X004300Y012000D01*
X004200Y012000D02*
X004200Y010957D01*
X004207Y010950D02*
X004393Y010950D01*
X004400Y010957D02*
X004400Y012000D01*
X004500Y012000D02*
X004500Y011057D01*
X004493Y011050D02*
X004107Y011050D01*
X004100Y011057D02*
X004100Y012000D01*
X004000Y012000D02*
X004000Y011150D01*
X004007Y011150D02*
X003593Y011150D01*
X003300Y010857D01*
X003300Y012000D01*
X003250Y012000D02*
X017300Y012000D01*
X017300Y011944D01*
X017300Y012000D02*
X017407Y011989D01*
X017606Y011907D01*
X017500Y011885D02*
X017500Y011951D01*
X017502Y011950D02*
X003250Y011950D01*
X003250Y012000D02*
X003250Y010250D01*
X003493Y010250D01*
X003250Y010250D01*
X003300Y010250D02*
X003300Y010443D01*
X003493Y010250D01*
X003400Y010250D02*
X003400Y010343D01*
X003393Y010350D02*
X003250Y010350D01*
X003250Y010450D02*
X003300Y010450D01*
X003300Y010443D02*
X003300Y010857D01*
X003300Y010850D02*
X003250Y010850D01*
X003250Y010750D02*
X003300Y010750D01*
X003300Y010650D02*
X003250Y010650D01*
X003250Y010550D02*
X003300Y010550D01*
X003250Y010950D02*
X003393Y010950D01*
X003400Y010957D02*
X003400Y012000D01*
X003500Y012000D02*
X003500Y011057D01*
X003493Y011050D02*
X003250Y011050D01*
X003250Y011150D02*
X016765Y011150D01*
X016100Y011194D02*
X016100Y010015D01*
X016065Y010050D02*
X018000Y010050D01*
X017999Y010150D02*
X014110Y010150D01*
X014110Y010250D02*
X014535Y010250D01*
X014500Y010285D02*
X014500Y010124D01*
X014600Y010124D02*
X014600Y010185D01*
X014700Y010180D02*
X014700Y010124D01*
X014701Y010050D02*
X014801Y010050D01*
X014801Y009950D02*
X014701Y009950D01*
X014701Y009850D02*
X014801Y009850D01*
X014801Y009750D02*
X014701Y009750D01*
X014900Y009700D02*
X014900Y009600D01*
X015000Y009600D02*
X015000Y009700D01*
X015186Y009850D02*
X015335Y009850D01*
X015100Y010119D02*
X015100Y010285D01*
X015065Y010250D02*
X017916Y010250D01*
X017928Y010221D02*
X017928Y010221D01*
X017900Y010288D02*
X017900Y009850D01*
X017874Y010350D02*
X015165Y010350D01*
X015000Y010185D02*
X015000Y010124D01*
X014900Y010124D02*
X014900Y010180D01*
X014850Y010250D02*
X014750Y010250D01*
X014750Y010350D02*
X014850Y010350D01*
X014850Y010450D02*
X014750Y010450D01*
X015000Y010600D02*
X015000Y010700D01*
X015100Y010700D02*
X015100Y010600D01*
X015265Y010850D02*
X017850Y010850D01*
X017850Y011150D02*
X017735Y011150D01*
X017776Y011250D02*
X017850Y011250D01*
X017850Y011350D02*
X017794Y011350D01*
X017776Y011550D02*
X017840Y011550D01*
X017760Y011750D02*
X017669Y011750D01*
X017400Y011926D02*
X017400Y011990D01*
X017200Y012000D02*
X017200Y011944D01*
X017100Y011926D02*
X017100Y012000D01*
X017000Y012000D02*
X017000Y011885D01*
X016931Y011850D02*
X003250Y011850D01*
X003250Y011550D02*
X015944Y011550D01*
X015925Y011450D02*
X003250Y011450D01*
X003250Y011350D02*
X015944Y011350D01*
X016000Y011261D02*
X016000Y010115D01*
X015900Y010120D02*
X015900Y012000D01*
X016000Y012000D02*
X016000Y011639D01*
X016389Y011650D02*
X016765Y011650D01*
X016900Y011819D02*
X016900Y012000D01*
X016600Y012000D02*
X016600Y009850D01*
X016500Y009833D02*
X016500Y012000D01*
X016011Y011250D02*
X003250Y011250D01*
X003600Y011150D02*
X003600Y012000D01*
X003700Y012000D02*
X003700Y011150D01*
X003800Y011150D02*
X003800Y012000D01*
X003900Y012000D02*
X003900Y011150D01*
X004007Y011150D02*
X004300Y010857D01*
X004300Y010443D01*
X004300Y010250D01*
X004200Y010250D02*
X004200Y010343D01*
X004207Y010350D02*
X004393Y010350D01*
X004400Y010343D02*
X004400Y010250D01*
X004493Y010250D02*
X004107Y010250D01*
X004300Y010443D01*
X004493Y010250D01*
X004107Y010250D01*
X004300Y010443D02*
X004300Y010857D01*
X004300Y010850D02*
X004300Y010850D01*
X004300Y010750D02*
X004300Y010750D01*
X004300Y010650D02*
X004300Y010650D01*
X004300Y010550D02*
X004300Y010550D01*
X004300Y010450D02*
X004300Y010450D01*
X004800Y010050D02*
X001550Y010050D01*
X001450Y010150D01*
X001350Y010150D01*
X003250Y009319D02*
X003265Y009303D01*
X003705Y009303D01*
X003793Y009391D01*
X003793Y009448D01*
X003807Y009428D01*
X003807Y009391D01*
X003845Y009354D01*
X003845Y008946D01*
X003807Y008909D01*
X003807Y008815D01*
X003797Y008807D01*
X003793Y008800D01*
X003793Y008909D01*
X003705Y008997D01*
X003265Y008997D01*
X003250Y008981D01*
X003250Y009319D01*
X003300Y009303D02*
X003300Y008997D01*
X003250Y009050D02*
X003845Y009050D01*
X003845Y008950D02*
X003752Y008950D01*
X003700Y008997D02*
X003700Y009303D01*
X003752Y009350D02*
X003845Y009350D01*
X003800Y009438D02*
X003800Y008810D01*
X003793Y008850D02*
X003807Y008850D01*
X003600Y008997D02*
X003600Y009303D01*
X003500Y009303D02*
X003500Y008997D01*
X003400Y008997D02*
X003400Y009303D01*
X003250Y009250D02*
X003845Y009250D01*
X003845Y009150D02*
X003250Y009150D01*
X003793Y009800D02*
X003793Y009850D01*
X003807Y009850D01*
X003807Y009815D01*
X003797Y009807D01*
X003793Y009800D01*
X003800Y009810D02*
X003800Y009850D01*
X004900Y009550D02*
X005800Y009550D01*
X006100Y009250D01*
X006100Y007250D01*
X006405Y006945D01*
X007857Y006945D01*
X007632Y006945D02*
X008082Y006945D01*
X008082Y006748D02*
X007632Y006748D01*
X007855Y006750D02*
X007857Y006748D01*
X007855Y006750D02*
X006300Y006750D01*
X005900Y007150D01*
X005900Y008950D01*
X005700Y009150D01*
X005588Y008850D02*
X005270Y008850D01*
X005270Y008750D02*
X005700Y008750D01*
X005700Y008650D02*
X005269Y008650D01*
X005300Y008550D02*
X005700Y008550D01*
X005700Y008450D02*
X005300Y008450D01*
X005300Y008350D02*
X005700Y008350D01*
X005700Y008250D02*
X005300Y008250D01*
X005300Y008150D02*
X005700Y008150D01*
X005700Y008050D02*
X005300Y008050D01*
X005282Y007950D02*
X005700Y007950D01*
X005700Y007850D02*
X005153Y007850D01*
X005200Y007880D02*
X005200Y007762D01*
X005205Y007750D02*
X005700Y007750D01*
X005700Y007650D02*
X005220Y007650D01*
X004900Y007650D02*
X004900Y008130D01*
X004900Y008450D02*
X004500Y008450D01*
X004300Y008250D01*
X004300Y007750D01*
X003980Y007750D02*
X003250Y007750D01*
X003250Y007650D02*
X003995Y007650D01*
X004000Y007638D02*
X004000Y007355D01*
X003988Y007350D02*
X003250Y007350D01*
X003250Y007280D02*
X003250Y007866D01*
X003281Y007879D01*
X003283Y007880D01*
X004007Y007880D01*
X003980Y007814D01*
X003980Y007686D01*
X004029Y007569D01*
X004119Y007479D01*
X004236Y007430D01*
X004364Y007430D01*
X004481Y007479D01*
X004571Y007569D01*
X004580Y007590D01*
X004580Y007586D01*
X004629Y007469D01*
X004701Y007397D01*
X004665Y007397D01*
X004578Y007309D01*
X004578Y006939D01*
X004536Y006897D01*
X004536Y006872D01*
X004523Y006851D01*
X004536Y006792D01*
X004536Y006735D01*
X004526Y006735D01*
X004438Y006647D01*
X004438Y006550D01*
X003805Y006550D01*
X003820Y006586D01*
X003820Y006714D01*
X003776Y006820D01*
X003877Y006820D01*
X003919Y006779D01*
X004036Y006730D01*
X004164Y006730D01*
X004281Y006779D01*
X004371Y006869D01*
X004420Y006986D01*
X004420Y007114D01*
X004371Y007231D01*
X004281Y007321D01*
X004164Y007370D01*
X004036Y007370D01*
X003919Y007321D01*
X003877Y007280D01*
X003250Y007280D01*
X003300Y007280D02*
X003300Y007880D01*
X003250Y007850D02*
X003995Y007850D01*
X004000Y007862D02*
X004000Y007880D01*
X003900Y007880D02*
X003900Y007303D01*
X003800Y007280D02*
X003800Y007880D01*
X003700Y007880D02*
X003700Y007280D01*
X003600Y007280D02*
X003600Y007880D01*
X003500Y007880D02*
X003500Y007280D01*
X003400Y007280D02*
X003400Y007880D01*
X003250Y007550D02*
X004047Y007550D01*
X004100Y007497D02*
X004100Y007370D01*
X004200Y007355D02*
X004200Y007445D01*
X004188Y007450D02*
X003250Y007450D01*
X003800Y006820D02*
X003800Y006762D01*
X003805Y006750D02*
X003988Y006750D01*
X004000Y006745D02*
X004000Y006550D01*
X004100Y006550D02*
X004100Y006730D01*
X004200Y006745D02*
X004200Y006550D01*
X004300Y006550D02*
X004300Y006797D01*
X004353Y006850D02*
X004523Y006850D01*
X004536Y006750D02*
X004212Y006750D01*
X004441Y006650D02*
X003820Y006650D01*
X003805Y006550D02*
X004438Y006550D01*
X004400Y006550D02*
X004400Y006938D01*
X004405Y006950D02*
X004578Y006950D01*
X004578Y007050D02*
X004420Y007050D01*
X004405Y007150D02*
X004578Y007150D01*
X004578Y007250D02*
X004353Y007250D01*
X004300Y007303D02*
X004300Y007430D01*
X004400Y007445D02*
X004400Y007162D01*
X004600Y007331D02*
X004600Y007538D01*
X004595Y007550D02*
X004553Y007550D01*
X004500Y007497D02*
X004500Y006709D01*
X004736Y006814D02*
X004885Y007050D01*
X004736Y006814D02*
X004736Y006506D01*
X004580Y006350D01*
X003700Y006350D01*
X003500Y006150D01*
X002422Y006150D01*
X002422Y006406D02*
X003256Y006406D01*
X003500Y006650D01*
X003900Y006550D02*
X003900Y006797D01*
X004736Y006506D02*
X004780Y006550D01*
X005033Y006550D02*
X005917Y006550D01*
X005900Y006567D02*
X005900Y005933D01*
X005917Y005950D02*
X005033Y005950D01*
X005033Y005853D02*
X005033Y006135D01*
X005033Y006050D02*
X006017Y006050D01*
X006000Y006033D02*
X006000Y006467D01*
X006017Y006450D02*
X005033Y006450D01*
X005200Y006250D02*
X005200Y006250D01*
X005300Y006250D02*
X005300Y006250D01*
X005400Y006250D02*
X005400Y006250D01*
X005464Y006250D02*
X005464Y006250D01*
X005464Y006051D01*
X005628Y006051D01*
X005658Y006059D01*
X005685Y006075D01*
X005708Y006098D01*
X005724Y006125D01*
X005732Y006155D01*
X005732Y006250D01*
X005732Y006345D01*
X005724Y006375D01*
X005708Y006402D01*
X005685Y006425D01*
X005658Y006441D01*
X005628Y006449D01*
X005464Y006449D01*
X005464Y006250D01*
X005732Y006250D01*
X005464Y006250D01*
X005464Y006250D01*
X005500Y006250D02*
X005500Y006250D01*
X005600Y006250D02*
X005600Y006250D01*
X005700Y006250D02*
X005700Y006250D01*
X005730Y006150D02*
X006117Y006150D01*
X006100Y006133D02*
X006100Y006367D01*
X006117Y006350D02*
X005730Y006350D01*
X005700Y006410D02*
X005700Y006703D01*
X005600Y006703D02*
X005600Y006449D01*
X005500Y006449D02*
X005500Y006703D01*
X005400Y006703D02*
X005400Y006449D01*
X005300Y006449D02*
X005300Y006703D01*
X005248Y006750D02*
X005152Y006750D01*
X005100Y006703D02*
X005100Y005797D01*
X005105Y005797D02*
X004977Y005797D01*
X005033Y005853D01*
X005030Y005850D02*
X005817Y005850D01*
X005800Y005833D02*
X005800Y006667D01*
X005817Y006650D02*
X005030Y006650D01*
X005000Y006680D02*
X005000Y006703D01*
X005193Y006850D02*
X005207Y006850D01*
X005193Y006950D02*
X005207Y006950D01*
X005193Y007050D02*
X005207Y007050D01*
X005193Y007150D02*
X005207Y007150D01*
X005193Y007250D02*
X005207Y007250D01*
X005515Y007050D02*
X005700Y007050D01*
X006395Y006355D01*
X007857Y006355D01*
X007632Y006355D02*
X008082Y006355D01*
X008082Y006552D02*
X007632Y006552D01*
X007632Y006158D02*
X008082Y006158D01*
X007857Y006158D02*
X006408Y006158D01*
X005700Y005450D01*
X005515Y005450D01*
X005207Y005450D02*
X005193Y005450D01*
X005193Y005550D02*
X005207Y005550D01*
X005193Y005650D02*
X005207Y005650D01*
X005207Y005709D02*
X005207Y005191D01*
X005270Y005129D01*
X005237Y005050D02*
X005193Y005050D01*
X005193Y004950D02*
X005237Y004950D01*
X005300Y004879D02*
X005300Y004821D01*
X005237Y004750D02*
X005193Y004750D01*
X005193Y004650D02*
X005237Y004650D01*
X005296Y004550D02*
X005284Y004543D01*
X005261Y004521D01*
X005246Y004493D01*
X005237Y004463D01*
X005237Y004350D02*
X005193Y004350D01*
X005193Y004250D02*
X005486Y004250D01*
X005486Y004279D02*
X005486Y004221D01*
X005237Y004221D01*
X005237Y004037D01*
X005246Y004007D01*
X005261Y003979D01*
X005284Y003957D01*
X005311Y003941D01*
X005342Y003933D01*
X005486Y003933D01*
X005500Y003860D02*
X005500Y004221D01*
X005500Y004279D02*
X005500Y004821D01*
X005486Y004850D02*
X005193Y004850D01*
X005400Y004821D02*
X005400Y004879D01*
X005544Y004850D02*
X008117Y004850D01*
X008100Y004833D02*
X008100Y005252D01*
X008102Y005250D02*
X007722Y005250D01*
X007722Y005150D02*
X008208Y005150D01*
X008200Y005211D02*
X008200Y004933D01*
X008208Y004950D02*
X007681Y004950D01*
X007700Y004969D02*
X007700Y004797D01*
X007800Y004797D02*
X007800Y005399D01*
X007759Y005350D02*
X008043Y005350D01*
X008041Y005450D02*
X007843Y005450D01*
X007900Y005518D02*
X007900Y004731D01*
X007881Y004750D02*
X008017Y004750D01*
X008000Y004733D02*
X008000Y005638D01*
X008011Y005650D02*
X008041Y005650D01*
X008100Y005607D02*
X008100Y005607D01*
X008041Y005550D02*
X007926Y005550D01*
X008200Y005607D02*
X008200Y005607D01*
X008211Y005382D02*
X008211Y005832D01*
X007857Y005778D02*
X007415Y005250D01*
X007107Y005150D02*
X007063Y005150D01*
X007000Y005221D02*
X007000Y005279D01*
X006900Y005279D02*
X006900Y005221D01*
X006814Y005150D02*
X006756Y005150D01*
X006756Y005221D02*
X006756Y004933D01*
X006612Y004933D01*
X006581Y004941D01*
X006554Y004957D01*
X006532Y004979D01*
X006516Y005007D01*
X006508Y005037D01*
X006508Y005221D01*
X006756Y005221D01*
X006700Y005221D02*
X006700Y005279D01*
X006600Y005279D02*
X006600Y005221D01*
X006508Y005150D02*
X005781Y005150D01*
X005792Y005050D02*
X006508Y005050D01*
X006566Y004950D02*
X005792Y004950D01*
X005700Y004879D02*
X005700Y004821D01*
X005792Y004821D02*
X005544Y004821D01*
X005544Y004533D01*
X005544Y004279D01*
X005486Y004279D01*
X005486Y004350D02*
X005544Y004350D01*
X005544Y004450D02*
X005486Y004450D01*
X005486Y004550D02*
X005544Y004550D01*
X005544Y004650D02*
X005486Y004650D01*
X005486Y004750D02*
X005544Y004750D01*
X005600Y004821D02*
X005600Y004879D01*
X005792Y004821D02*
X005792Y004637D01*
X005784Y004607D01*
X005768Y004579D01*
X005746Y004557D01*
X005734Y004550D01*
X005792Y004650D02*
X006147Y004650D01*
X006200Y004703D02*
X006200Y005667D01*
X006183Y005650D02*
X007489Y005650D01*
X007500Y005664D02*
X007500Y005809D01*
X007459Y005850D02*
X006383Y005850D01*
X006400Y005867D02*
X006400Y004770D01*
X006300Y004755D02*
X006300Y005767D01*
X006283Y005750D02*
X007572Y005750D01*
X007857Y005778D02*
X007857Y005961D01*
X007632Y005961D02*
X008082Y005961D01*
X008211Y005607D02*
X008211Y005061D01*
X008000Y004850D01*
X006900Y004850D01*
X006814Y004950D02*
X006756Y004950D01*
X006700Y004933D02*
X006700Y004731D01*
X006600Y004720D02*
X006600Y004936D01*
X006756Y005050D02*
X006814Y005050D01*
X007063Y005050D02*
X007107Y005050D01*
X007500Y004903D02*
X007500Y004797D01*
X007600Y004797D02*
X007600Y004903D01*
X007722Y005050D02*
X008208Y005050D01*
X008408Y004858D02*
X008000Y004450D01*
X007615Y004450D01*
X007000Y004103D02*
X007000Y003870D01*
X006900Y003860D02*
X006900Y004103D01*
X006800Y004103D02*
X006800Y003860D01*
X006600Y003823D02*
X006600Y004180D01*
X006400Y004130D02*
X006400Y003584D01*
X006391Y003550D02*
X005909Y003550D01*
X005900Y003584D02*
X005900Y005367D01*
X005883Y005350D02*
X006508Y005350D01*
X006508Y005450D02*
X005983Y005450D01*
X006000Y005467D02*
X006000Y002150D01*
X006007Y002150D02*
X005593Y002150D01*
X005300Y001857D01*
X005300Y001443D01*
X005593Y001150D01*
X005300Y001443D02*
X005300Y001857D01*
X005300Y001850D02*
X005300Y001850D01*
X005300Y001750D02*
X005300Y001750D01*
X005300Y001650D02*
X005300Y001650D01*
X005300Y001550D02*
X005300Y001550D01*
X005300Y001450D02*
X005300Y001450D01*
X005207Y001950D02*
X005393Y001950D01*
X005400Y001957D02*
X005400Y002346D01*
X005000Y002150D02*
X005000Y003438D01*
X004995Y003450D02*
X004422Y003450D01*
X004422Y003550D02*
X004980Y003550D01*
X004995Y003650D02*
X004422Y003650D01*
X004422Y003750D02*
X005047Y003750D01*
X005100Y003803D02*
X005100Y003903D01*
X005152Y003950D02*
X005296Y003950D01*
X005300Y003948D02*
X005300Y003870D01*
X005400Y003860D02*
X005400Y003933D01*
X005486Y004050D02*
X005544Y004050D01*
X005544Y004150D02*
X005486Y004150D01*
X005400Y004221D02*
X005400Y004279D01*
X005300Y004279D02*
X005300Y004221D01*
X005237Y004150D02*
X005193Y004150D01*
X005193Y004050D02*
X005237Y004050D01*
X005000Y003903D02*
X005000Y003662D01*
X004900Y003903D02*
X004900Y002150D01*
X004800Y002150D02*
X004800Y003903D01*
X005700Y003936D02*
X005700Y003823D01*
X005873Y003650D02*
X006427Y003650D01*
X006391Y003450D02*
X005909Y003450D01*
X005909Y003350D02*
X006391Y003350D01*
X006354Y003250D02*
X005946Y003250D01*
X005946Y003150D02*
X006354Y003150D01*
X006354Y003050D02*
X005946Y003050D01*
X005946Y002950D02*
X006354Y002950D01*
X006354Y002850D02*
X005946Y002850D01*
X005946Y002750D02*
X006354Y002750D01*
X006354Y002650D02*
X005946Y002650D01*
X005946Y002550D02*
X006354Y002550D01*
X006354Y002450D02*
X005946Y002450D01*
X006007Y002150D02*
X006300Y001857D01*
X006300Y001443D01*
X006593Y001150D01*
X006300Y001443D02*
X006300Y001857D01*
X006300Y001850D02*
X006300Y001850D01*
X006300Y001750D02*
X006300Y001750D01*
X006300Y001650D02*
X006300Y001650D01*
X006300Y001550D02*
X006300Y001550D01*
X006300Y001450D02*
X006300Y001450D01*
X006107Y002050D02*
X006493Y002050D01*
X006500Y002057D02*
X006500Y002346D01*
X006600Y002346D02*
X006600Y002150D01*
X006700Y002150D02*
X006700Y002346D01*
X006800Y002346D02*
X006800Y002150D01*
X006900Y002150D02*
X006900Y002346D01*
X006964Y002350D02*
X013184Y002350D01*
X013200Y002117D02*
X013200Y001957D01*
X013207Y001950D02*
X013393Y001950D01*
X013400Y001957D02*
X013400Y002046D01*
X013300Y001857D02*
X013007Y002150D01*
X012700Y002150D02*
X012700Y002648D01*
X012702Y002650D02*
X013167Y002650D01*
X012600Y002584D02*
X012600Y002150D01*
X012300Y001857D02*
X012300Y001443D01*
X012300Y000300D01*
X012200Y000300D02*
X012200Y001343D01*
X012207Y001350D02*
X012393Y001350D01*
X012400Y001343D02*
X012400Y000300D01*
X012500Y000300D02*
X012500Y001243D01*
X012493Y001250D02*
X012107Y001250D01*
X012100Y001243D02*
X012100Y000300D01*
X012000Y000300D02*
X012000Y001150D01*
X012007Y001150D02*
X012300Y001443D01*
X012593Y001150D01*
X012600Y001150D02*
X012600Y000300D01*
X012700Y000300D02*
X012700Y001150D01*
X012800Y001150D02*
X012800Y000300D01*
X012900Y000300D02*
X012900Y001150D01*
X013000Y001150D02*
X013000Y000300D01*
X013100Y000300D02*
X013100Y001243D01*
X013107Y001250D02*
X013493Y001250D01*
X013500Y001243D02*
X013500Y000300D01*
X013400Y000300D02*
X013400Y001343D01*
X013393Y001350D02*
X013207Y001350D01*
X013200Y001343D02*
X013200Y000300D01*
X013300Y000300D02*
X013300Y001443D01*
X013007Y001150D01*
X013300Y001443D02*
X013300Y001857D01*
X013300Y001443D01*
X013593Y001150D01*
X013600Y001150D02*
X013600Y000300D01*
X013700Y000300D02*
X013700Y001150D01*
X013800Y001150D02*
X013800Y000300D01*
X013900Y000300D02*
X013900Y001150D01*
X014000Y001150D02*
X014000Y000300D01*
X014100Y000300D02*
X014100Y001243D01*
X014107Y001250D02*
X014535Y001250D01*
X014500Y001285D02*
X014500Y000300D01*
X014600Y000300D02*
X014600Y001185D01*
X014435Y001350D02*
X014207Y001350D01*
X014200Y001343D02*
X014200Y000300D01*
X014300Y000300D02*
X014300Y003080D01*
X014200Y003080D02*
X014200Y001957D01*
X014207Y001950D02*
X014435Y001950D01*
X014400Y001915D02*
X014400Y002081D01*
X014500Y002076D02*
X014500Y002015D01*
X014535Y002050D02*
X014110Y002050D01*
X014114Y002150D02*
X014324Y002150D01*
X014316Y002250D02*
X014114Y002250D01*
X014114Y002350D02*
X014316Y002350D01*
X014316Y002450D02*
X014114Y002450D01*
X014114Y002550D02*
X014701Y002550D01*
X014751Y002550D02*
X014780Y002530D01*
X014900Y002500D02*
X014900Y002600D01*
X015000Y002600D02*
X015000Y002500D01*
X014920Y002460D02*
X014920Y001830D01*
X014850Y001760D01*
X015000Y001700D02*
X015000Y001600D01*
X015100Y001600D02*
X015100Y001700D01*
X015200Y001700D02*
X015200Y001600D01*
X014600Y001600D02*
X014600Y001700D01*
X014500Y001700D02*
X014500Y001600D01*
X014300Y001443D02*
X014007Y001150D01*
X014400Y001385D02*
X014400Y000300D01*
X015700Y000300D02*
X015700Y002150D01*
X015800Y002150D02*
X015800Y000300D01*
X015900Y000300D02*
X015900Y002150D01*
X016300Y002443D02*
X016300Y002857D01*
X016300Y002750D02*
X018000Y002750D01*
X018000Y002650D02*
X016300Y002650D01*
X016300Y002550D02*
X018000Y002550D01*
X016000Y004150D02*
X016000Y004150D01*
X015900Y004150D02*
X015900Y004150D01*
X015800Y004150D02*
X015800Y004150D01*
X015700Y004150D02*
X015700Y004150D01*
X015600Y004150D02*
X015600Y004150D01*
X014530Y004150D02*
X014483Y004150D01*
X014500Y004133D02*
X014403Y004230D01*
X014464Y004230D01*
X014530Y004257D01*
X014530Y004073D01*
X014500Y004103D01*
X014500Y004133D01*
X014500Y004103D02*
X014500Y004245D01*
X014512Y004250D02*
X014530Y004250D01*
X014300Y004050D02*
X014000Y004350D01*
X014000Y004750D01*
X013500Y005250D01*
X013500Y005850D01*
X013000Y006350D01*
X013000Y008550D01*
X012800Y009150D01*
X013100Y009150D02*
X013100Y009350D01*
X013000Y009450D01*
X012800Y009450D01*
X012500Y009750D01*
X012200Y009638D02*
X012200Y009455D01*
X012200Y009638D01*
X012229Y009569D01*
X012319Y009479D01*
X012340Y009470D01*
X012236Y009470D01*
X012200Y009455D01*
X012200Y009550D02*
X012247Y009550D01*
X012300Y009497D02*
X012300Y009470D01*
X012460Y009430D02*
X012537Y009430D01*
X012582Y009385D01*
X012550Y009353D01*
X012481Y009421D01*
X012460Y009430D01*
X012500Y009430D02*
X012500Y009403D01*
X012300Y009150D02*
X012300Y008650D01*
X012600Y008350D01*
X012600Y006550D01*
X012280Y006555D02*
X012188Y006555D01*
X012200Y006567D01*
X012200Y008467D01*
X012200Y006555D01*
X012280Y006555D02*
X012280Y006614D01*
X012329Y006731D01*
X012400Y006803D01*
X012400Y008267D01*
X012217Y008450D01*
X012200Y008450D01*
X012217Y008450D02*
X012217Y008450D01*
X012200Y008467D01*
X012200Y008350D02*
X012317Y008350D01*
X012300Y008367D02*
X012300Y006662D01*
X012295Y006650D02*
X012200Y006650D01*
X012200Y006750D02*
X012347Y006750D01*
X012400Y006850D02*
X012200Y006850D01*
X012200Y006950D02*
X012400Y006950D01*
X012400Y007050D02*
X012200Y007050D01*
X012200Y007150D02*
X012400Y007150D01*
X012400Y007250D02*
X012200Y007250D01*
X012200Y007350D02*
X012400Y007350D01*
X012400Y007450D02*
X012200Y007450D01*
X012200Y007550D02*
X012400Y007550D01*
X012400Y007650D02*
X012200Y007650D01*
X012200Y007750D02*
X012400Y007750D01*
X012400Y007850D02*
X012200Y007850D01*
X012200Y007950D02*
X012400Y007950D01*
X012400Y008050D02*
X012200Y008050D01*
X012200Y008150D02*
X012400Y008150D01*
X012400Y008250D02*
X012200Y008250D01*
X012683Y008550D02*
X012789Y008550D01*
X012800Y008518D02*
X012800Y006803D01*
X012800Y008433D01*
X012683Y008550D01*
X012683Y008550D01*
X012500Y008733D01*
X012500Y008897D01*
X012550Y008947D01*
X012619Y008879D01*
X012689Y008849D01*
X012800Y008518D01*
X012800Y008450D02*
X012783Y008450D01*
X012800Y008350D02*
X012800Y008350D01*
X012800Y008250D02*
X012800Y008250D01*
X012800Y008150D02*
X012800Y008150D01*
X012800Y008050D02*
X012800Y008050D01*
X012800Y007950D02*
X012800Y007950D01*
X012800Y007850D02*
X012800Y007850D01*
X012800Y007750D02*
X012800Y007750D01*
X012800Y007650D02*
X012800Y007650D01*
X012800Y007550D02*
X012800Y007550D01*
X012800Y007450D02*
X012800Y007450D01*
X012800Y007350D02*
X012800Y007350D01*
X012800Y007250D02*
X012800Y007250D01*
X012800Y007150D02*
X012800Y007150D01*
X012800Y007050D02*
X012800Y007050D01*
X012800Y006950D02*
X012800Y006950D01*
X012800Y006850D02*
X012800Y006850D01*
X012800Y006803D02*
X012800Y006803D01*
X013200Y006803D02*
X013200Y008503D01*
X013200Y006803D01*
X013200Y006803D01*
X013200Y006850D02*
X013200Y006850D01*
X013200Y006950D02*
X013200Y006950D01*
X013200Y007050D02*
X013200Y007050D01*
X013200Y007150D02*
X013200Y007150D01*
X013200Y007250D02*
X013200Y007250D01*
X013200Y007350D02*
X013200Y007350D01*
X013200Y007450D02*
X013200Y007450D01*
X013200Y007550D02*
X013200Y007550D01*
X013200Y007650D02*
X013200Y007650D01*
X013200Y007750D02*
X013200Y007750D01*
X013200Y007850D02*
X013200Y007850D01*
X013200Y007950D02*
X013200Y007950D01*
X013200Y008050D02*
X013200Y008050D01*
X013200Y008150D02*
X013200Y008150D01*
X013200Y008250D02*
X013200Y008250D01*
X013200Y008350D02*
X013200Y008350D01*
X013200Y008450D02*
X013200Y008450D01*
X013200Y008503D02*
X013200Y008503D01*
X013200Y008582D02*
X013200Y008582D01*
X013200Y008767D01*
X013108Y008860D01*
X013175Y008658D01*
X013200Y008633D01*
X013200Y008582D01*
X013200Y008650D02*
X013183Y008650D01*
X013200Y008750D02*
X013144Y008750D01*
X013117Y008850D02*
X013111Y008850D01*
X013400Y008850D02*
X013100Y009150D01*
X013387Y009146D02*
X013430Y009146D01*
X013430Y009103D01*
X013387Y009146D01*
X013400Y009146D02*
X013400Y009133D01*
X014000Y009120D02*
X014000Y009146D01*
X014600Y009176D02*
X014600Y008832D01*
X014582Y008850D02*
X015300Y008850D01*
X015300Y008857D02*
X015300Y008443D01*
X015300Y008450D02*
X014670Y008450D01*
X014670Y008550D02*
X015300Y008550D01*
X015300Y008650D02*
X014670Y008650D01*
X014651Y008750D02*
X015300Y008750D01*
X015600Y009150D02*
X015600Y009185D01*
X015700Y009180D02*
X015700Y009150D01*
X015800Y009150D02*
X015800Y009600D01*
X015850Y009600D02*
X015850Y009180D01*
X015995Y009180D01*
X016270Y009455D01*
X016270Y009600D01*
X015850Y009600D01*
X015850Y009550D02*
X015750Y009550D01*
X015750Y009450D02*
X015850Y009450D01*
X015850Y009350D02*
X015750Y009350D01*
X015750Y009250D02*
X015850Y009250D01*
X015900Y009180D02*
X015900Y009150D01*
X016000Y009150D02*
X016000Y009185D01*
X016265Y009450D02*
X016300Y009450D01*
X016300Y009550D02*
X016270Y009550D01*
X016200Y009600D02*
X016200Y009700D01*
X016100Y009700D02*
X016100Y009600D01*
X016000Y009600D02*
X016000Y009700D01*
X015900Y009700D02*
X015900Y009600D01*
X015850Y009750D02*
X015750Y009750D01*
X015750Y009850D02*
X015850Y009850D01*
X015850Y009950D02*
X015750Y009950D01*
X015750Y010050D02*
X015850Y010050D01*
X016700Y009150D02*
X017380Y009150D01*
X017395Y009050D02*
X016700Y009050D01*
X016700Y008950D02*
X017447Y008950D01*
X017500Y008897D02*
X017500Y007850D01*
X017400Y007850D02*
X017400Y009038D01*
X017700Y009150D02*
X018200Y008650D01*
X018850Y008650D01*
X018000Y008550D02*
X016700Y008550D01*
X016700Y008450D02*
X018000Y008450D01*
X018000Y008350D02*
X016700Y008350D01*
X016700Y008250D02*
X018000Y008250D01*
X018000Y008150D02*
X016633Y008150D01*
X016500Y008300D02*
X016350Y008150D01*
X016300Y008150D01*
X015980Y008150D02*
X015593Y008150D01*
X015300Y007857D01*
X015300Y007850D02*
X015120Y007850D01*
X015593Y008150D02*
X015980Y008150D01*
X015980Y008150D01*
X015900Y008150D02*
X015900Y008150D01*
X015800Y008150D02*
X015800Y008150D01*
X015700Y008150D02*
X015700Y008150D01*
X015600Y008150D02*
X015600Y008150D01*
X016300Y007830D02*
X016300Y007443D01*
X016007Y007150D02*
X015593Y007150D01*
X015600Y007150D02*
X015600Y007150D01*
X015700Y007150D02*
X015700Y007150D01*
X015800Y007150D02*
X015800Y007150D01*
X015900Y007150D02*
X015900Y007150D01*
X016000Y007150D02*
X016000Y007150D01*
X016600Y007150D02*
X017100Y007650D01*
X018850Y007650D01*
X017900Y007850D02*
X017900Y008667D01*
X017917Y008650D02*
X016700Y008650D01*
X016700Y008750D02*
X017817Y008750D01*
X017800Y008767D02*
X017800Y007850D01*
X017700Y007850D02*
X017700Y008830D01*
X017600Y008845D02*
X017600Y007850D01*
X017588Y008850D02*
X016700Y008850D01*
X014400Y008250D02*
X014372Y008278D01*
X014000Y008365D01*
X013653Y008350D02*
X013600Y008350D01*
X013600Y008450D02*
X013653Y008450D01*
X013653Y008550D02*
X013600Y008550D01*
X013653Y008585D02*
X013653Y008145D01*
X013741Y008057D01*
X014130Y008057D01*
X014130Y008043D01*
X013741Y008043D01*
X013653Y007955D01*
X013653Y007515D01*
X013741Y007428D01*
X013800Y007428D01*
X013800Y007403D01*
X013729Y007331D01*
X013680Y007214D01*
X013680Y007086D01*
X013729Y006969D01*
X013800Y006897D01*
X013800Y006872D01*
X013741Y006872D01*
X013653Y006785D01*
X013653Y006749D01*
X013600Y006803D01*
X013600Y008668D01*
X013600Y006803D01*
X013600Y006850D02*
X013719Y006850D01*
X013700Y006831D02*
X013700Y007038D01*
X013695Y007050D02*
X013600Y007050D01*
X013600Y006950D02*
X013747Y006950D01*
X013653Y006750D02*
X013653Y006750D01*
X013400Y006550D02*
X013400Y008850D01*
X013600Y008668D02*
X013647Y008621D01*
X013677Y008609D01*
X013653Y008585D01*
X013618Y008650D02*
X013600Y008650D01*
X013600Y008250D02*
X013653Y008250D01*
X013653Y008150D02*
X013600Y008150D01*
X013600Y008050D02*
X014130Y008050D01*
X014100Y008043D02*
X014100Y008057D01*
X014000Y008043D02*
X014000Y008057D01*
X013900Y008043D02*
X013900Y008057D01*
X013800Y008043D02*
X013800Y008057D01*
X013700Y008098D02*
X013700Y008002D01*
X013653Y007950D02*
X013600Y007950D01*
X013600Y007850D02*
X013653Y007850D01*
X013653Y007750D02*
X013600Y007750D01*
X013600Y007650D02*
X013653Y007650D01*
X013653Y007550D02*
X013600Y007550D01*
X013600Y007450D02*
X013719Y007450D01*
X013700Y007469D02*
X013700Y007262D01*
X013695Y007250D02*
X013600Y007250D01*
X013600Y007150D02*
X013680Y007150D01*
X014000Y007150D02*
X014000Y006565D01*
X013741Y006257D02*
X013653Y006345D01*
X013653Y006351D01*
X013581Y006279D01*
X013464Y006230D01*
X013403Y006230D01*
X013700Y005933D01*
X013700Y005906D01*
X013700Y005964D01*
X013683Y005964D02*
X013971Y005964D01*
X013971Y005906D01*
X013700Y005906D01*
X013683Y005950D02*
X013971Y005950D01*
X013971Y005964D02*
X013971Y006213D01*
X013787Y006213D01*
X013757Y006204D01*
X013729Y006189D01*
X013707Y006166D01*
X013691Y006139D01*
X013683Y006108D01*
X013683Y005964D01*
X013683Y006050D02*
X013583Y006050D01*
X013600Y006033D02*
X013600Y006297D01*
X013653Y006350D02*
X013653Y006350D01*
X013700Y006298D02*
X013700Y006154D01*
X013698Y006150D02*
X013483Y006150D01*
X013500Y006133D02*
X013500Y006245D01*
X013512Y006250D02*
X014130Y006250D01*
X014130Y006257D02*
X014130Y006213D01*
X014029Y006213D01*
X014029Y005964D01*
X013971Y005964D01*
X014000Y005964D02*
X014000Y006257D01*
X013900Y006257D02*
X013900Y006213D01*
X013971Y006150D02*
X014029Y006150D01*
X014100Y006213D02*
X014100Y006257D01*
X014130Y006257D02*
X013741Y006257D01*
X013800Y006257D02*
X013800Y006213D01*
X013971Y006050D02*
X014029Y006050D01*
X014000Y005935D02*
X014000Y005350D01*
X014130Y005350D02*
X013700Y005350D01*
X013700Y005333D02*
X013700Y005716D01*
X013700Y005333D01*
X014130Y004903D01*
X014130Y005658D01*
X014029Y005658D01*
X014029Y005906D01*
X013971Y005906D01*
X013971Y005658D01*
X013787Y005658D01*
X013757Y005666D01*
X013729Y005682D01*
X013707Y005704D01*
X013700Y005716D01*
X013700Y005650D02*
X014130Y005650D01*
X014100Y005658D02*
X014100Y004933D01*
X014083Y004950D02*
X014130Y004950D01*
X014130Y005050D02*
X013983Y005050D01*
X014000Y005033D02*
X014000Y005906D01*
X013971Y005850D02*
X014029Y005850D01*
X014029Y005750D02*
X013971Y005750D01*
X013900Y005658D02*
X013900Y005133D01*
X013883Y005150D02*
X014130Y005150D01*
X014130Y005250D02*
X013783Y005250D01*
X013800Y005233D02*
X013800Y005658D01*
X013700Y005550D02*
X014130Y005550D01*
X014130Y005450D02*
X013700Y005450D01*
X013300Y005450D02*
X012500Y005450D01*
X012500Y005550D02*
X013300Y005550D01*
X013300Y005650D02*
X012812Y005650D01*
X012800Y005645D02*
X012800Y004833D01*
X012800Y005033D01*
X012500Y005333D01*
X012500Y005697D01*
X012500Y005333D01*
X012500Y005350D02*
X013300Y005350D01*
X013300Y005250D02*
X012583Y005250D01*
X012600Y005233D02*
X012600Y005645D01*
X012588Y005650D02*
X012500Y005650D01*
X012519Y005679D02*
X012636Y005630D01*
X012764Y005630D01*
X012881Y005679D01*
X012971Y005769D01*
X013020Y005886D01*
X013020Y006014D01*
X012996Y006071D01*
X013300Y005767D01*
X013300Y005167D01*
X013300Y004633D01*
X013283Y004650D02*
X013800Y004650D01*
X013800Y004667D02*
X013800Y004267D01*
X013800Y004255D01*
X013800Y004267D02*
X013821Y004246D01*
X013764Y004270D01*
X013663Y004270D01*
X013183Y004750D01*
X012883Y004750D01*
X013717Y004750D01*
X013700Y004767D02*
X013700Y004270D01*
X013812Y004250D02*
X013817Y004250D01*
X013800Y004350D02*
X013583Y004350D01*
X013600Y004333D02*
X013600Y004867D01*
X013617Y004850D02*
X012800Y004850D01*
X012800Y004833D02*
X012883Y004750D01*
X012900Y004750D02*
X012900Y005697D01*
X012953Y005750D02*
X013300Y005750D01*
X013217Y005850D02*
X013005Y005850D01*
X013000Y005838D02*
X013000Y004750D01*
X013100Y004750D02*
X013100Y005967D01*
X013117Y005950D02*
X013020Y005950D01*
X013017Y006050D02*
X013005Y006050D01*
X013000Y006062D02*
X013000Y006067D01*
X013200Y005867D02*
X013200Y004733D01*
X013100Y004550D02*
X012800Y004550D01*
X012600Y004750D01*
X012600Y004950D01*
X012300Y005250D01*
X012300Y005850D01*
X011992Y006158D01*
X009943Y006158D01*
X010168Y006158D02*
X009718Y006158D01*
X009718Y005961D02*
X010168Y005961D01*
X009943Y005961D02*
X011689Y005961D01*
X012000Y005650D01*
X012000Y005150D01*
X012400Y004750D01*
X012400Y004450D01*
X012900Y004150D01*
X013153Y003950D02*
X013380Y003950D01*
X013380Y003987D02*
X013380Y003886D01*
X013429Y003769D01*
X013519Y003679D01*
X013636Y003630D01*
X013764Y003630D01*
X013881Y003679D01*
X013971Y003769D01*
X013980Y003790D01*
X013980Y003786D01*
X014029Y003669D01*
X014077Y003620D01*
X013100Y003620D01*
X013100Y003897D01*
X013081Y003879D02*
X013171Y003969D01*
X013220Y004086D01*
X013220Y004147D01*
X013380Y003987D01*
X013317Y004050D02*
X013205Y004050D01*
X013200Y004038D02*
X013200Y003620D01*
X013300Y003620D02*
X013300Y004067D01*
X013395Y003850D02*
X013082Y003850D01*
X013100Y003832D02*
X013062Y003871D01*
X013081Y003879D01*
X013100Y003832D02*
X013100Y003620D01*
X013100Y003650D02*
X013588Y003650D01*
X013600Y003645D02*
X013600Y003620D01*
X013700Y003620D02*
X013700Y003630D01*
X013800Y003620D02*
X013800Y003645D01*
X013812Y003650D02*
X014047Y003650D01*
X014000Y003620D02*
X014000Y003738D01*
X013995Y003750D02*
X013953Y003750D01*
X013900Y003697D02*
X013900Y003620D01*
X013500Y003620D02*
X013500Y003697D01*
X013447Y003750D02*
X013100Y003750D01*
X013400Y003838D02*
X013400Y003620D01*
X013700Y003950D02*
X013100Y004550D01*
X013383Y004550D02*
X013800Y004550D01*
X013800Y004450D02*
X013483Y004450D01*
X013500Y004433D02*
X013500Y004967D01*
X013517Y004950D02*
X012800Y004950D01*
X012783Y005050D02*
X013417Y005050D01*
X013800Y004667D01*
X013400Y004533D02*
X013400Y005067D01*
X013417Y005050D02*
X013300Y005167D01*
X013317Y005150D02*
X012683Y005150D01*
X012700Y005133D02*
X012700Y005630D01*
X012519Y005679D02*
X012500Y005697D01*
X012700Y005950D02*
X012295Y006355D01*
X009943Y006355D01*
X010168Y006355D02*
X009718Y006355D01*
X009718Y006552D02*
X010168Y006552D01*
X009943Y006552D02*
X011898Y006552D01*
X011900Y006550D01*
X012000Y006650D01*
X012000Y010050D01*
X012100Y010150D01*
X012300Y010150D01*
X012300Y010470D02*
X012300Y010857D01*
X012007Y011150D01*
X012300Y010857D02*
X012300Y010470D01*
X012300Y010470D01*
X012300Y010550D02*
X012300Y010550D01*
X012300Y010650D02*
X012300Y010650D01*
X012300Y010750D02*
X012300Y010750D01*
X012300Y010850D02*
X012300Y010850D01*
X013007Y011150D02*
X013300Y010857D01*
X013300Y010443D01*
X013300Y010154D01*
X013272Y010154D02*
X013184Y010066D01*
X013184Y009549D01*
X013183Y009550D01*
X013083Y009650D01*
X012883Y009650D01*
X012820Y009713D01*
X012820Y009814D01*
X012771Y009931D01*
X012681Y010021D01*
X012606Y010052D01*
X012620Y010086D01*
X012620Y010150D01*
X013007Y010150D01*
X013267Y010150D01*
X013272Y010154D02*
X013490Y010154D01*
X013490Y010253D01*
X013300Y010443D01*
X013007Y010150D01*
X013000Y010150D02*
X013000Y009650D01*
X012900Y009650D02*
X012900Y010150D01*
X012800Y010150D02*
X012800Y009862D01*
X012805Y009850D02*
X013184Y009850D01*
X013184Y009950D02*
X012753Y009950D01*
X012700Y010003D02*
X012700Y010150D01*
X012612Y010050D02*
X013184Y010050D01*
X013200Y010083D02*
X013200Y010343D01*
X013207Y010350D02*
X013393Y010350D01*
X013400Y010343D02*
X013400Y010154D01*
X013490Y010250D02*
X013107Y010250D01*
X013100Y010243D02*
X013100Y009633D01*
X013184Y009650D02*
X012883Y009650D01*
X012820Y009750D02*
X013184Y009750D01*
X013183Y009550D02*
X013184Y009550D01*
X012600Y008897D02*
X012600Y008633D01*
X012583Y008650D02*
X012756Y008650D01*
X012723Y008750D02*
X012500Y008750D01*
X012500Y008733D02*
X012500Y008897D01*
X012500Y008850D02*
X012688Y008850D01*
X012700Y008818D02*
X012700Y008533D01*
X011600Y008850D02*
X011200Y009250D01*
X010700Y009250D01*
X010600Y009350D01*
X010600Y010450D01*
X010800Y010650D01*
X011300Y010650D02*
X011300Y010650D01*
X011300Y010750D02*
X011300Y010750D01*
X011300Y010850D02*
X011300Y010850D01*
X011300Y010857D02*
X011007Y011150D01*
X011300Y010857D02*
X011300Y010470D01*
X011300Y010470D01*
X011300Y010857D01*
X011300Y010550D02*
X011300Y010550D01*
X011300Y010150D02*
X011800Y009550D01*
X011800Y006950D01*
X011598Y006748D01*
X009943Y006748D01*
X010168Y006748D02*
X009718Y006748D01*
X009718Y006945D02*
X010168Y006945D01*
X009943Y006945D02*
X010895Y006945D01*
X011000Y007050D01*
X011400Y007050D01*
X011600Y007250D01*
X011600Y008850D01*
X011400Y008767D02*
X011400Y007703D01*
X011381Y007721D01*
X011264Y007770D01*
X011163Y007770D01*
X011083Y007850D01*
X010420Y007850D01*
X011400Y007850D01*
X011400Y007950D02*
X011334Y007950D01*
X011346Y007957D02*
X011368Y007979D01*
X011384Y008007D01*
X011392Y008037D01*
X011392Y008221D01*
X011144Y008221D01*
X011144Y008279D01*
X011086Y008279D01*
X011086Y008567D01*
X010942Y008567D01*
X010911Y008559D01*
X010884Y008543D01*
X010861Y008521D01*
X010846Y008493D01*
X010837Y008463D01*
X010837Y008279D01*
X011086Y008279D01*
X011086Y008221D01*
X010837Y008221D01*
X010837Y008037D01*
X010846Y008007D01*
X010861Y007979D01*
X010884Y007957D01*
X010911Y007941D01*
X010942Y007933D01*
X011086Y007933D01*
X011086Y008221D01*
X011144Y008221D01*
X011144Y007933D01*
X011288Y007933D01*
X011319Y007941D01*
X011346Y007957D01*
X011300Y007936D02*
X011300Y007755D01*
X011312Y007750D02*
X011400Y007750D01*
X011200Y007770D02*
X011200Y007933D01*
X011144Y007950D02*
X011086Y007950D01*
X011000Y007933D02*
X011000Y007850D01*
X010900Y007850D02*
X010900Y007948D01*
X010896Y007950D02*
X010752Y007950D01*
X010793Y007991D02*
X010793Y008509D01*
X010705Y008597D01*
X010265Y008597D01*
X010189Y008520D01*
X010046Y008520D01*
X010000Y008501D01*
X010000Y010150D01*
X010007Y010150D01*
X010400Y010150D01*
X010400Y010250D02*
X010107Y010250D01*
X010100Y010243D02*
X010100Y008520D01*
X010200Y008531D02*
X010200Y010343D01*
X010207Y010350D02*
X010393Y010350D01*
X010400Y010343D02*
X010400Y009267D01*
X010400Y008597D01*
X010500Y008597D02*
X010500Y009167D01*
X010517Y009150D02*
X010400Y009267D01*
X010417Y009250D02*
X010000Y009250D01*
X010000Y009350D02*
X010400Y009350D01*
X010400Y009450D02*
X010000Y009450D01*
X010000Y009550D02*
X010400Y009550D01*
X010400Y009650D02*
X010000Y009650D01*
X010000Y009750D02*
X010400Y009750D01*
X010400Y009850D02*
X010000Y009850D01*
X010000Y009950D02*
X010400Y009950D01*
X010400Y010050D02*
X010000Y010050D01*
X010000Y010150D02*
X010000Y008501D01*
X010000Y008550D02*
X010219Y008550D01*
X010300Y008597D02*
X010300Y010443D01*
X010300Y010857D01*
X010007Y011150D01*
X009593Y011150D01*
X009300Y010857D01*
X009300Y012000D01*
X009400Y012000D02*
X009400Y010957D01*
X009393Y010950D02*
X009207Y010950D01*
X009200Y010957D02*
X009200Y012000D01*
X009100Y012000D02*
X009100Y011057D01*
X009107Y011050D02*
X009493Y011050D01*
X009500Y011057D02*
X009500Y012000D01*
X009600Y012000D02*
X009600Y011150D01*
X009700Y011150D02*
X009700Y012000D01*
X009800Y012000D02*
X009800Y011150D01*
X009900Y011150D02*
X009900Y012000D01*
X010000Y012000D02*
X010000Y011150D01*
X010300Y010857D02*
X010300Y010443D01*
X010007Y010150D01*
X009600Y010150D02*
X009600Y010133D01*
X009483Y010250D01*
X009107Y010250D01*
X009300Y010443D01*
X009300Y010250D01*
X009400Y010250D02*
X009400Y010343D01*
X009393Y010350D02*
X009207Y010350D01*
X009200Y010343D02*
X009200Y010250D01*
X009107Y010250D02*
X009493Y010250D01*
X009500Y010243D02*
X009500Y010233D01*
X009583Y010150D02*
X009593Y010150D01*
X009600Y010150D01*
X009593Y010150D02*
X009300Y010443D01*
X009300Y010857D01*
X009007Y011150D01*
X008593Y011150D01*
X008300Y010857D01*
X008300Y012000D01*
X008400Y012000D02*
X008400Y010957D01*
X008393Y010950D02*
X008207Y010950D01*
X008200Y010957D02*
X008200Y012000D01*
X008100Y012000D02*
X008100Y011057D01*
X008107Y011050D02*
X008493Y011050D01*
X008500Y011057D02*
X008500Y012000D01*
X008600Y012000D02*
X008600Y011150D01*
X008700Y011150D02*
X008700Y012000D01*
X008800Y012000D02*
X008800Y011150D01*
X008900Y011150D02*
X008900Y012000D01*
X009000Y012000D02*
X009000Y011150D01*
X009300Y010857D02*
X009300Y010443D01*
X009300Y010450D02*
X009300Y010450D01*
X009300Y010550D02*
X009300Y010550D01*
X009300Y010650D02*
X009300Y010650D01*
X009300Y010750D02*
X009300Y010750D01*
X009300Y010850D02*
X009300Y010850D01*
X009800Y010650D02*
X009800Y008450D01*
X009392Y008042D01*
X009392Y007693D01*
X009392Y007918D02*
X009392Y007468D01*
X009195Y007468D02*
X009195Y007918D01*
X009195Y007693D02*
X009195Y008245D01*
X009500Y008550D01*
X009500Y009950D01*
X009400Y010050D01*
X007000Y010050D01*
X006800Y010250D01*
X006800Y010650D01*
X007300Y010650D02*
X007300Y010650D01*
X007300Y010750D02*
X007300Y010750D01*
X007300Y010850D02*
X007300Y010850D01*
X007300Y010857D02*
X007300Y012000D01*
X007400Y012000D02*
X007400Y010957D01*
X007393Y010950D02*
X007207Y010950D01*
X007200Y010957D02*
X007200Y012000D01*
X007100Y012000D02*
X007100Y011057D01*
X007107Y011050D02*
X007493Y011050D01*
X007500Y011057D02*
X007500Y012000D01*
X007600Y012000D02*
X007600Y011150D01*
X007593Y011150D02*
X007300Y010857D01*
X007007Y011150D01*
X006593Y011150D01*
X006300Y010857D01*
X006300Y012000D01*
X006200Y012000D02*
X006200Y010957D01*
X006207Y010950D02*
X006393Y010950D01*
X006400Y010957D02*
X006400Y012000D01*
X006500Y012000D02*
X006500Y011057D01*
X006493Y011050D02*
X006107Y011050D01*
X006100Y011057D02*
X006100Y012000D01*
X006000Y012000D02*
X006000Y011150D01*
X006007Y011150D02*
X005593Y011150D01*
X005300Y010857D01*
X005007Y011150D01*
X004900Y011150D02*
X004900Y012000D01*
X004800Y012000D02*
X004800Y011150D01*
X004700Y011150D02*
X004700Y012000D01*
X004600Y012000D02*
X004600Y011150D01*
X005300Y010857D02*
X005300Y010443D01*
X005300Y009750D01*
X005200Y009750D02*
X005200Y010343D01*
X005207Y010350D02*
X005393Y010350D01*
X005400Y010343D02*
X005400Y009750D01*
X005500Y009750D02*
X005500Y010243D01*
X005493Y010250D02*
X005107Y010250D01*
X005100Y010243D02*
X005100Y009750D01*
X005000Y009750D02*
X005000Y010150D01*
X005007Y010150D01*
X005593Y010150D01*
X005600Y010150D01*
X005600Y009767D01*
X005600Y009750D01*
X005617Y009750D02*
X005000Y009750D01*
X005000Y010150D01*
X005007Y010150D02*
X005300Y010443D01*
X005593Y010150D01*
X005600Y010050D02*
X005000Y010050D01*
X005000Y009950D02*
X005600Y009950D01*
X005600Y009850D02*
X005000Y009850D01*
X005000Y009750D02*
X005617Y009750D01*
X005600Y009767D01*
X005800Y009850D02*
X006300Y009350D01*
X006300Y007950D01*
X006500Y007850D01*
X006753Y008050D02*
X006888Y008050D01*
X006900Y008045D02*
X006900Y007770D01*
X006964Y007770D02*
X006836Y007770D01*
X006808Y007758D01*
X006820Y007786D01*
X006820Y007914D01*
X006771Y008031D01*
X006681Y008121D01*
X006564Y008170D01*
X006500Y008170D01*
X006500Y010243D01*
X006493Y010250D02*
X006107Y010250D01*
X006100Y010243D02*
X006100Y009833D01*
X006083Y009850D02*
X006917Y009850D01*
X007495Y009850D01*
X007480Y009814D01*
X007480Y009686D01*
X007529Y009569D01*
X007600Y009497D01*
X007600Y009291D01*
X007519Y009385D01*
X007520Y009386D01*
X007520Y009514D01*
X007471Y009631D01*
X007381Y009721D01*
X007264Y009770D01*
X007136Y009770D01*
X007019Y009721D01*
X006929Y009631D01*
X006880Y009514D01*
X006880Y009386D01*
X006929Y009269D01*
X007019Y009179D01*
X007136Y009130D01*
X007211Y009130D01*
X007606Y008670D01*
X007536Y008670D01*
X007419Y008621D01*
X007329Y008531D01*
X007300Y008462D01*
X007300Y009026D01*
X007280Y009050D02*
X006500Y009050D01*
X006500Y008950D02*
X007365Y008950D01*
X007400Y008910D02*
X007400Y008603D01*
X007347Y008550D02*
X007253Y008550D01*
X007271Y008531D02*
X007181Y008621D01*
X007064Y008670D01*
X006936Y008670D01*
X006819Y008621D01*
X006729Y008531D01*
X006680Y008414D01*
X006680Y008286D01*
X006729Y008169D01*
X006819Y008079D01*
X006936Y008030D01*
X007037Y008030D01*
X007100Y007967D01*
X007100Y007703D01*
X007081Y007721D01*
X006964Y007770D01*
X007000Y007755D02*
X007000Y008030D01*
X007100Y007950D02*
X006805Y007950D01*
X006800Y007962D02*
X006800Y008097D01*
X006747Y008150D02*
X006612Y008150D01*
X006600Y008155D02*
X006600Y010150D01*
X006593Y010150D02*
X006007Y010150D01*
X006300Y010443D01*
X006300Y009633D01*
X006283Y009650D02*
X006947Y009650D01*
X007000Y009703D02*
X007000Y009850D01*
X006917Y009850D02*
X006717Y010050D01*
X006000Y010050D01*
X006000Y010150D02*
X006000Y009933D01*
X006000Y010150D01*
X006007Y010150D01*
X006200Y010343D02*
X006200Y009733D01*
X006183Y009750D02*
X007088Y009750D01*
X007100Y009755D02*
X007100Y009850D01*
X007200Y009850D02*
X007200Y009770D01*
X007300Y009755D02*
X007300Y009850D01*
X007400Y009850D02*
X007400Y009703D01*
X007453Y009650D02*
X007495Y009650D01*
X007500Y009638D02*
X007500Y009562D01*
X007505Y009550D02*
X007547Y009550D01*
X007520Y009450D02*
X007600Y009450D01*
X007600Y009350D02*
X007549Y009350D01*
X007800Y009150D02*
X007800Y009750D01*
X007480Y009750D02*
X007312Y009750D01*
X006900Y009867D02*
X006900Y009562D01*
X006895Y009550D02*
X006383Y009550D01*
X006000Y009933D01*
X006000Y009950D02*
X006817Y009950D01*
X006800Y009967D02*
X006800Y008603D01*
X006747Y008550D02*
X006500Y008550D01*
X006500Y008450D02*
X006695Y008450D01*
X006700Y008462D02*
X006700Y010067D01*
X006717Y010050D02*
X006617Y010150D01*
X006593Y010150D01*
X006300Y010443D01*
X006300Y010857D01*
X006007Y011150D01*
X005900Y011150D02*
X005900Y012000D01*
X005800Y012000D02*
X005800Y011150D01*
X005700Y011150D02*
X005700Y012000D01*
X005600Y012000D02*
X005600Y011150D01*
X005300Y010857D02*
X005300Y010443D01*
X005300Y010450D02*
X005300Y010450D01*
X005300Y010550D02*
X005300Y010550D01*
X005800Y010650D02*
X005800Y009850D01*
X006383Y009550D02*
X006500Y009433D01*
X006500Y008170D01*
X006500Y008250D02*
X006695Y008250D01*
X006700Y008238D02*
X006700Y008103D01*
X006680Y008350D02*
X006500Y008350D01*
X006500Y008650D02*
X006888Y008650D01*
X006900Y008655D02*
X006900Y009338D01*
X006895Y009350D02*
X006500Y009350D01*
X006500Y009250D02*
X006947Y009250D01*
X007000Y009197D02*
X007000Y008670D01*
X007100Y008655D02*
X007100Y009145D01*
X007088Y009150D02*
X006500Y009150D01*
X006483Y009450D02*
X006880Y009450D01*
X007200Y009450D02*
X008408Y008042D01*
X008408Y007693D01*
X008408Y007918D02*
X008408Y007468D01*
X008605Y007468D02*
X008605Y007918D01*
X008605Y007693D02*
X008605Y008345D01*
X007800Y009150D01*
X008000Y009233D02*
X008000Y009497D01*
X008071Y009569D01*
X008120Y009686D01*
X008120Y009814D01*
X008105Y009850D01*
X009300Y009850D01*
X009300Y008633D01*
X009002Y008334D01*
X009002Y008531D01*
X008700Y008833D01*
X008700Y008897D01*
X008771Y008969D01*
X008820Y009086D01*
X008820Y009214D01*
X008771Y009331D01*
X008681Y009421D01*
X008564Y009470D01*
X008436Y009470D01*
X008319Y009421D01*
X008229Y009331D01*
X008180Y009214D01*
X008180Y009086D01*
X008204Y009029D01*
X008000Y009233D01*
X008000Y009497D01*
X008000Y009450D02*
X008388Y009450D01*
X008400Y009455D02*
X008400Y009850D01*
X008300Y009850D02*
X008300Y009403D01*
X008247Y009350D02*
X008000Y009350D01*
X008000Y009250D02*
X008195Y009250D01*
X008200Y009262D02*
X008200Y009850D01*
X008120Y009750D02*
X009300Y009750D01*
X009300Y009650D02*
X008105Y009650D01*
X008100Y009638D02*
X008100Y009133D01*
X008083Y009150D02*
X008180Y009150D01*
X008183Y009050D02*
X008195Y009050D01*
X008200Y009038D02*
X008200Y009033D01*
X008500Y009150D02*
X008500Y008750D01*
X008802Y008448D01*
X008802Y007693D01*
X008802Y007918D02*
X008802Y007468D01*
X008998Y007468D02*
X008998Y007918D01*
X008998Y007693D02*
X008998Y006748D01*
X008900Y006650D01*
X008802Y006552D01*
X008802Y005607D01*
X008802Y005382D02*
X008802Y005832D01*
X008998Y005832D02*
X008998Y005382D01*
X009100Y005194D02*
X009100Y002057D01*
X009107Y002050D02*
X009493Y002050D01*
X009500Y002057D02*
X009500Y004950D01*
X009500Y005150D02*
X009800Y005150D01*
X010000Y004950D01*
X009978Y005270D02*
X009963Y005270D01*
X009883Y005350D01*
X009757Y005350D01*
X009978Y005350D01*
X009900Y005333D02*
X009900Y005761D01*
X010000Y005761D02*
X010000Y005631D01*
X010019Y005650D02*
X009759Y005650D01*
X009759Y005607D02*
X009759Y005761D01*
X011606Y005761D01*
X011800Y005567D01*
X011800Y005067D01*
X011800Y004855D01*
X011788Y004850D02*
X011301Y004850D01*
X011300Y004850D02*
X011300Y005761D01*
X011200Y005761D02*
X011200Y004892D01*
X011190Y004896D02*
X011062Y004896D01*
X010947Y004848D01*
X010947Y004885D01*
X010859Y004972D01*
X010602Y004972D01*
X010620Y005015D01*
X010640Y005060D01*
X010640Y005064D01*
X010642Y005068D01*
X010642Y005118D01*
X010642Y005121D01*
X010646Y005107D01*
X010661Y005079D01*
X010684Y005057D01*
X010711Y005041D01*
X010742Y005033D01*
X010886Y005033D01*
X010886Y005321D01*
X010637Y005321D01*
X010637Y005185D01*
X010623Y005221D01*
X010593Y005301D01*
X010593Y005609D01*
X010505Y005697D01*
X010065Y005697D01*
X009978Y005609D01*
X009978Y005270D01*
X009800Y005350D02*
X009800Y005761D01*
X009759Y005750D02*
X011617Y005750D01*
X011600Y005761D02*
X011600Y004820D01*
X011700Y004820D02*
X011700Y005667D01*
X011717Y005650D02*
X011134Y005650D01*
X011146Y005643D02*
X011119Y005659D01*
X011088Y005667D01*
X010944Y005667D01*
X010944Y005379D01*
X010886Y005379D01*
X010886Y005667D01*
X010742Y005667D01*
X010711Y005659D01*
X010684Y005643D01*
X010661Y005621D01*
X010646Y005593D01*
X010637Y005563D01*
X010637Y005379D01*
X010886Y005379D01*
X010886Y005321D01*
X010944Y005321D01*
X010944Y005379D01*
X011192Y005379D01*
X011192Y005563D01*
X011184Y005593D01*
X011168Y005621D01*
X011146Y005643D01*
X011100Y005664D02*
X011100Y005761D01*
X011100Y005750D02*
X011400Y005450D01*
X011192Y005450D02*
X011800Y005450D01*
X011800Y005550D02*
X011192Y005550D01*
X011100Y005379D02*
X011100Y005321D01*
X011192Y005321D02*
X010944Y005321D01*
X010944Y005033D01*
X011088Y005033D01*
X011119Y005041D01*
X011146Y005057D01*
X011168Y005079D01*
X011184Y005107D01*
X011192Y005137D01*
X011192Y005321D01*
X011192Y005250D02*
X011800Y005250D01*
X011800Y005150D02*
X011192Y005150D01*
X011134Y005050D02*
X011817Y005050D01*
X011800Y005067D02*
X012021Y004846D01*
X011964Y004870D01*
X011836Y004870D01*
X011719Y004821D01*
X011717Y004820D01*
X011335Y004820D01*
X011307Y004847D01*
X011190Y004896D01*
X011100Y004896D02*
X011100Y005036D01*
X011000Y005033D02*
X011000Y004870D01*
X010951Y004850D02*
X010947Y004850D01*
X010900Y004931D02*
X010900Y005321D01*
X010886Y005350D02*
X010593Y005350D01*
X010600Y005281D02*
X010600Y005761D01*
X010700Y005761D02*
X010700Y005652D01*
X010696Y005650D02*
X010552Y005650D01*
X010500Y005697D02*
X010500Y005761D01*
X010400Y005761D02*
X010400Y005697D01*
X010300Y005697D02*
X010300Y005761D01*
X010200Y005761D02*
X010200Y005697D01*
X010100Y005697D02*
X010100Y005761D01*
X010000Y005750D02*
X011100Y005750D01*
X011000Y005761D02*
X011000Y005667D01*
X010944Y005650D02*
X010886Y005650D01*
X010800Y005667D02*
X010800Y005761D01*
X010900Y005761D02*
X010900Y005379D01*
X010915Y005350D02*
X010800Y005378D01*
X010800Y005379D02*
X010800Y005321D01*
X010700Y005321D02*
X010700Y005379D01*
X010637Y005450D02*
X010593Y005450D01*
X010593Y005550D02*
X010637Y005550D01*
X010886Y005550D02*
X010944Y005550D01*
X010944Y005450D02*
X010886Y005450D01*
X010944Y005350D02*
X011800Y005350D01*
X011900Y004967D02*
X011900Y004870D01*
X011917Y004950D02*
X010881Y004950D01*
X010800Y004972D02*
X010800Y005033D01*
X010886Y005050D02*
X010944Y005050D01*
X010944Y005150D02*
X010886Y005150D01*
X010886Y005250D02*
X010944Y005250D01*
X011000Y005321D02*
X011000Y005379D01*
X010637Y005250D02*
X010612Y005250D01*
X010635Y005050D02*
X010696Y005050D01*
X010700Y005048D02*
X010700Y004972D01*
X011400Y004820D02*
X011400Y005761D01*
X011500Y005761D02*
X011500Y004820D01*
X012000Y004855D02*
X012000Y004867D01*
X012012Y004850D02*
X012017Y004850D01*
X012196Y004671D02*
X012200Y004662D01*
X012200Y004667D01*
X012196Y004671D01*
X012198Y004433D02*
X012200Y004425D01*
X012200Y004367D01*
X012200Y004132D01*
X012170Y004132D02*
X012170Y004367D01*
X012171Y004369D01*
X012198Y004433D01*
X012200Y004367D02*
X012219Y004348D01*
X012226Y004321D01*
X012276Y004291D01*
X012317Y004250D01*
X012170Y004250D01*
X012170Y004150D02*
X012511Y004150D01*
X012500Y004157D02*
X012500Y004132D01*
X012542Y004132D02*
X012454Y004132D01*
X012170Y004132D01*
X012300Y004132D02*
X012300Y004267D01*
X012317Y004250D02*
X012345Y004250D01*
X012542Y004132D01*
X012400Y004132D02*
X012400Y004217D01*
X012217Y004350D02*
X012170Y004350D01*
X011630Y004250D02*
X011396Y004250D01*
X011400Y004280D02*
X011400Y004218D01*
X011470Y004180D02*
X011504Y004180D01*
X011504Y004150D02*
X011496Y004150D01*
X011496Y004050D02*
X011504Y004050D01*
X011500Y003866D02*
X011500Y004280D01*
X011600Y004280D02*
X011600Y004218D01*
X011470Y003900D02*
X011500Y003862D01*
X011400Y003858D02*
X011400Y003866D01*
X012200Y003592D02*
X012200Y003108D01*
X011616Y002750D02*
X011384Y002750D01*
X011384Y002650D02*
X011616Y002650D01*
X011616Y002550D02*
X011384Y002550D01*
X011700Y002456D02*
X011700Y002150D01*
X011800Y002150D02*
X011800Y002452D01*
X011900Y002452D02*
X011900Y002150D01*
X012000Y002150D02*
X012000Y002452D01*
X012007Y002150D02*
X011593Y002150D01*
X012007Y002150D02*
X012300Y001857D01*
X012300Y001443D01*
X012300Y001450D02*
X012300Y001450D01*
X012300Y001550D02*
X012300Y001550D01*
X012300Y001650D02*
X012300Y001650D01*
X012300Y001750D02*
X012300Y001750D01*
X012300Y001850D02*
X012300Y001850D01*
X011400Y001343D02*
X011400Y000300D01*
X011500Y000300D02*
X011500Y001243D01*
X011493Y001250D02*
X011107Y001250D01*
X011100Y001243D02*
X011100Y000300D01*
X011000Y000300D02*
X011000Y001150D01*
X011007Y001150D02*
X011300Y001443D01*
X011300Y000300D01*
X011200Y000300D02*
X011200Y001343D01*
X011207Y001350D02*
X011393Y001350D01*
X011300Y001443D02*
X011593Y001150D01*
X011600Y001150D02*
X011600Y000300D01*
X011700Y000300D02*
X011700Y001150D01*
X011800Y001150D02*
X011800Y000300D01*
X011900Y000300D02*
X011900Y001150D01*
X011300Y001443D02*
X011300Y001857D01*
X011007Y002150D01*
X010900Y002150D02*
X010900Y002508D01*
X010800Y002528D02*
X010800Y002150D01*
X010700Y002150D02*
X010700Y002528D01*
X010600Y002528D02*
X010600Y002150D01*
X010300Y001857D02*
X010300Y001443D01*
X010300Y000300D01*
X010400Y000300D02*
X010400Y001343D01*
X010393Y001350D02*
X010207Y001350D01*
X010200Y001343D02*
X010200Y000300D01*
X010100Y000300D02*
X010100Y001243D01*
X010107Y001250D02*
X010493Y001250D01*
X010500Y001243D02*
X010500Y000300D01*
X010600Y000300D02*
X010600Y001150D01*
X010593Y001150D02*
X010300Y001443D01*
X010007Y001150D01*
X010000Y001150D02*
X010000Y000300D01*
X009900Y000300D02*
X009900Y001150D01*
X009800Y001150D02*
X009800Y000300D01*
X009700Y000300D02*
X009700Y001150D01*
X009300Y001443D02*
X009300Y001857D01*
X009300Y001850D02*
X009300Y001850D01*
X009300Y001750D02*
X009300Y001750D01*
X009300Y001650D02*
X009300Y001650D01*
X009300Y001550D02*
X009300Y001550D01*
X009300Y001450D02*
X009300Y001450D01*
X008593Y001150D02*
X008300Y001443D01*
X008300Y001857D01*
X008007Y002150D01*
X008300Y001857D02*
X008300Y001443D01*
X008300Y001450D02*
X008300Y001450D01*
X008300Y001550D02*
X008300Y001550D01*
X008300Y001650D02*
X008300Y001650D01*
X008300Y001750D02*
X008300Y001750D01*
X008300Y001850D02*
X008300Y001850D01*
X008600Y002150D02*
X008600Y004230D01*
X008600Y004550D02*
X008605Y005055D01*
X008605Y005607D01*
X008605Y005382D02*
X008605Y005832D01*
X008408Y005832D02*
X008408Y005382D01*
X008408Y005607D02*
X008408Y004858D01*
X008900Y004438D02*
X008900Y002150D01*
X009000Y002150D02*
X009000Y005181D01*
X009392Y005258D02*
X009500Y005150D01*
X009392Y005258D02*
X009392Y005607D01*
X009392Y005382D02*
X009392Y005832D01*
X009195Y005832D02*
X009195Y005382D01*
X009589Y005382D02*
X009589Y005832D01*
X009589Y005607D02*
X009857Y005607D01*
X010000Y005750D01*
X009759Y005607D02*
X009592Y005607D01*
X009592Y005607D01*
X009759Y005607D01*
X009759Y005359D01*
X009757Y005350D01*
X009759Y005450D02*
X009978Y005450D01*
X009978Y005550D02*
X009759Y005550D01*
X009700Y005607D02*
X009700Y005607D01*
X009600Y005607D02*
X009600Y005607D01*
X009718Y007142D02*
X010168Y007142D01*
X010392Y007142D02*
X009943Y007142D01*
X010168Y007339D02*
X009718Y007339D01*
X009789Y007539D02*
X009789Y007556D01*
X009865Y007632D01*
X009919Y007579D01*
X010009Y007541D01*
X010006Y007539D01*
X009789Y007539D01*
X009800Y007539D02*
X009800Y007567D01*
X009789Y007550D02*
X009988Y007550D01*
X010000Y007545D02*
X010000Y007539D01*
X009900Y007539D02*
X009900Y007597D01*
X009943Y007339D02*
X010089Y007339D01*
X010400Y007650D01*
X011000Y007650D01*
X011200Y007450D01*
X010947Y007250D02*
X010917Y007250D01*
X010896Y007229D01*
X010920Y007286D01*
X010920Y007290D01*
X010929Y007269D01*
X010947Y007250D01*
X010905Y007250D01*
X010900Y007238D02*
X010900Y007233D01*
X010600Y007350D02*
X010392Y007142D01*
X009800Y007850D02*
X009643Y007693D01*
X009589Y007693D01*
X009589Y007918D02*
X009589Y007468D01*
X009800Y007850D02*
X010100Y007850D01*
X010420Y007850D02*
X010420Y007903D01*
X010705Y007903D01*
X010793Y007991D01*
X010793Y008050D02*
X010837Y008050D01*
X010837Y008150D02*
X010793Y008150D01*
X010793Y008250D02*
X011086Y008250D01*
X011100Y008279D02*
X011100Y009050D01*
X011117Y009050D02*
X011400Y008767D01*
X011400Y008750D02*
X010000Y008750D01*
X010000Y008850D02*
X011317Y008850D01*
X011300Y008867D02*
X011300Y008564D01*
X011288Y008567D02*
X011144Y008567D01*
X011144Y008279D01*
X011392Y008279D01*
X011392Y008463D01*
X011384Y008493D01*
X011368Y008521D01*
X011346Y008543D01*
X011319Y008559D01*
X011288Y008567D01*
X011334Y008550D02*
X011400Y008550D01*
X011392Y008450D02*
X011400Y008450D01*
X011392Y008350D02*
X011400Y008350D01*
X011400Y008250D02*
X011144Y008250D01*
X011100Y008221D02*
X011100Y007833D01*
X010800Y007850D02*
X010800Y009050D01*
X010900Y009050D02*
X010900Y008552D01*
X010896Y008550D02*
X010752Y008550D01*
X010700Y008597D02*
X010700Y009050D01*
X010617Y009050D02*
X010000Y009050D01*
X010000Y008950D02*
X011217Y008950D01*
X011200Y008967D02*
X011200Y008567D01*
X011144Y008550D02*
X011086Y008550D01*
X011000Y008567D02*
X011000Y009050D01*
X011117Y009050D02*
X010617Y009050D01*
X010517Y009150D01*
X010000Y009150D01*
X010600Y009067D02*
X010600Y008597D01*
X010793Y008450D02*
X010837Y008450D01*
X010837Y008350D02*
X010793Y008350D01*
X010900Y008279D02*
X010900Y008221D01*
X011000Y008221D02*
X011000Y008279D01*
X011086Y008350D02*
X011144Y008350D01*
X011200Y008279D02*
X011200Y008221D01*
X011144Y008150D02*
X011086Y008150D01*
X011086Y008050D02*
X011144Y008050D01*
X011300Y008221D02*
X011300Y008279D01*
X011392Y008150D02*
X011400Y008150D01*
X011392Y008050D02*
X011400Y008050D01*
X011144Y008450D02*
X011086Y008450D01*
X011400Y008650D02*
X010000Y008650D01*
X009300Y008650D02*
X008883Y008650D01*
X008900Y008633D02*
X008900Y009850D01*
X009000Y009850D02*
X009000Y008533D01*
X008998Y008552D02*
X009100Y008750D01*
X009300Y008750D02*
X008783Y008750D01*
X008800Y008733D02*
X008800Y009038D01*
X008805Y009050D02*
X009300Y009050D01*
X009300Y008950D02*
X008753Y008950D01*
X008700Y008897D02*
X008700Y008833D01*
X008700Y008850D02*
X009300Y008850D01*
X009217Y008550D02*
X008983Y008550D01*
X008998Y008552D02*
X008998Y007693D01*
X008211Y007918D02*
X008211Y007468D01*
X008168Y007650D02*
X008000Y007650D01*
X007600Y008050D01*
X007600Y008350D01*
X007300Y008462D02*
X007271Y008531D01*
X007200Y008603D02*
X007200Y009130D01*
X007451Y008850D02*
X006500Y008850D01*
X006500Y008750D02*
X007537Y008750D01*
X007500Y008793D02*
X007500Y008655D01*
X007488Y008650D02*
X007112Y008650D01*
X007000Y008350D02*
X007300Y008050D01*
X007300Y007650D01*
X007611Y007339D01*
X007857Y007339D01*
X007632Y007339D02*
X008082Y007339D01*
X007828Y007539D02*
X007694Y007539D01*
X007500Y007733D01*
X007500Y007867D01*
X007500Y007733D01*
X007500Y007750D02*
X007617Y007750D01*
X007600Y007767D02*
X007600Y007633D01*
X007583Y007650D02*
X007717Y007650D01*
X007700Y007667D02*
X007700Y007539D01*
X007683Y007550D02*
X007817Y007550D01*
X007828Y007539D02*
X007800Y007567D01*
X007800Y007539D01*
X007800Y007567D02*
X007500Y007867D01*
X007500Y007850D02*
X007517Y007850D01*
X007818Y008115D02*
X007871Y008169D01*
X007920Y008286D01*
X007920Y008304D01*
X008101Y008092D01*
X008011Y008002D01*
X008011Y007922D01*
X007818Y008115D01*
X007853Y008150D02*
X008052Y008150D01*
X008100Y008094D02*
X008100Y008091D01*
X008059Y008050D02*
X007883Y008050D01*
X007900Y008033D02*
X007900Y008238D01*
X007905Y008250D02*
X007966Y008250D01*
X008000Y008210D02*
X008000Y007933D01*
X008011Y007950D02*
X007983Y007950D01*
X008211Y007693D02*
X008168Y007650D01*
X008082Y007142D02*
X007632Y007142D01*
X007857Y007142D02*
X007208Y007142D01*
X006900Y007450D01*
X006600Y007338D02*
X006600Y007145D01*
X006700Y007145D02*
X006700Y007197D01*
X006719Y007179D02*
X006799Y007145D01*
X006488Y007145D01*
X006300Y007333D01*
X006300Y007597D01*
X006300Y007333D01*
X006300Y007350D02*
X006595Y007350D01*
X006580Y007386D02*
X006580Y007514D01*
X006592Y007542D01*
X006564Y007530D01*
X006436Y007530D01*
X006319Y007579D01*
X006300Y007597D01*
X006300Y007550D02*
X006388Y007550D01*
X006400Y007545D02*
X006400Y007233D01*
X006383Y007250D02*
X006647Y007250D01*
X006629Y007269D02*
X006719Y007179D01*
X006788Y007150D02*
X006483Y007150D01*
X006500Y007145D02*
X006500Y007530D01*
X006580Y007450D02*
X006300Y007450D01*
X006580Y007386D02*
X006629Y007269D01*
X007220Y007413D02*
X007220Y007447D01*
X007325Y007342D01*
X007291Y007342D01*
X007220Y007413D01*
X007283Y007350D02*
X007317Y007350D01*
X007300Y007342D02*
X007300Y007367D01*
X007100Y007750D02*
X007012Y007750D01*
X007100Y007850D02*
X006820Y007850D01*
X007600Y008670D02*
X007600Y008677D01*
X008500Y009470D02*
X008500Y009850D01*
X008600Y009850D02*
X008600Y009455D01*
X008612Y009450D02*
X009300Y009450D01*
X009300Y009350D02*
X008753Y009350D01*
X008700Y009403D02*
X008700Y009850D01*
X008800Y009850D02*
X008800Y009262D01*
X008805Y009250D02*
X009300Y009250D01*
X009300Y009150D02*
X008820Y009150D01*
X009300Y009550D02*
X008053Y009550D01*
X009100Y009850D02*
X009100Y008433D01*
X009117Y008450D02*
X009002Y008450D01*
X009002Y008350D02*
X009017Y008350D01*
X009200Y008533D02*
X009200Y009850D01*
X008493Y010250D02*
X008107Y010250D01*
X008300Y010443D01*
X008300Y010250D01*
X008400Y010250D02*
X008400Y010343D01*
X008393Y010350D02*
X008207Y010350D01*
X008200Y010343D02*
X008200Y010250D01*
X008107Y010250D02*
X008493Y010250D01*
X008300Y010443D01*
X008300Y010857D01*
X008007Y011150D01*
X007593Y011150D01*
X007700Y011150D02*
X007700Y012000D01*
X007800Y012000D02*
X007800Y011150D01*
X007900Y011150D02*
X007900Y012000D01*
X008000Y012000D02*
X008000Y011150D01*
X008300Y010857D02*
X008300Y010443D01*
X008300Y010450D02*
X008300Y010450D01*
X008300Y010550D02*
X008300Y010550D01*
X008300Y010650D02*
X008300Y010650D01*
X008300Y010750D02*
X008300Y010750D01*
X008300Y010850D02*
X008300Y010850D01*
X007493Y010250D02*
X007107Y010250D01*
X007300Y010443D01*
X007300Y010250D01*
X007400Y010250D02*
X007400Y010343D01*
X007393Y010350D02*
X007207Y010350D01*
X007200Y010343D02*
X007200Y010250D01*
X007107Y010250D02*
X007493Y010250D01*
X007300Y010443D01*
X007300Y010857D01*
X007300Y010443D01*
X007300Y010450D02*
X007300Y010450D01*
X007300Y010550D02*
X007300Y010550D01*
X006400Y010343D02*
X006400Y009533D01*
X006393Y010350D02*
X006207Y010350D01*
X006300Y010443D02*
X006300Y010857D01*
X006300Y010850D02*
X006300Y010850D01*
X006300Y010750D02*
X006300Y010750D01*
X006300Y010650D02*
X006300Y010650D01*
X006300Y010550D02*
X006300Y010550D01*
X006300Y010450D02*
X006300Y010450D01*
X006600Y011150D02*
X006600Y012000D01*
X006700Y012000D02*
X006700Y011150D01*
X006800Y011150D02*
X006800Y012000D01*
X006900Y012000D02*
X006900Y011150D01*
X007000Y011150D02*
X007000Y012000D01*
X010300Y010850D02*
X010300Y010850D01*
X010300Y010750D02*
X010300Y010750D01*
X010300Y010650D02*
X010300Y010650D01*
X010300Y010550D02*
X010300Y010550D01*
X010300Y010450D02*
X010300Y010450D01*
X010300Y010443D02*
X010400Y010343D01*
X010800Y010150D02*
X010980Y010150D01*
X010980Y010086D01*
X011029Y009969D01*
X011119Y009879D01*
X011236Y009830D01*
X011306Y009830D01*
X011600Y009478D01*
X011600Y009133D01*
X011400Y009333D01*
X011283Y009450D01*
X010800Y009450D01*
X010800Y010150D01*
X010800Y009450D01*
X011600Y009450D01*
X011600Y009350D02*
X011383Y009350D01*
X011400Y009333D02*
X011400Y009718D01*
X011373Y009750D02*
X010800Y009750D01*
X010800Y009850D02*
X011188Y009850D01*
X011200Y009845D02*
X011200Y009450D01*
X011100Y009450D02*
X011100Y009897D01*
X011047Y009950D02*
X010800Y009950D01*
X010800Y010050D02*
X010995Y010050D01*
X011000Y010038D02*
X011000Y009450D01*
X010900Y009450D02*
X010900Y010150D01*
X011300Y009830D02*
X011300Y009433D01*
X011483Y009250D02*
X011600Y009250D01*
X011600Y009150D02*
X011583Y009150D01*
X011500Y009233D02*
X011500Y009598D01*
X011540Y009550D02*
X010800Y009550D01*
X010800Y009650D02*
X011456Y009650D01*
X011727Y009950D02*
X011800Y009950D01*
X011800Y009862D02*
X011618Y010081D01*
X011620Y010086D01*
X011620Y010150D01*
X011817Y010150D01*
X011800Y010133D01*
X011800Y010150D01*
X011800Y010133D02*
X011800Y009862D01*
X011700Y009982D02*
X011700Y010150D01*
X011644Y010050D02*
X011800Y010050D01*
X013300Y010443D02*
X013300Y010857D01*
X013300Y010850D02*
X013300Y010850D01*
X013300Y010750D02*
X013300Y010750D01*
X013300Y010650D02*
X013300Y010650D01*
X013300Y010550D02*
X013300Y010550D01*
X013300Y010450D02*
X013300Y010450D01*
X014107Y011050D02*
X014535Y011050D01*
X014500Y011015D02*
X014500Y012000D01*
X014600Y012000D02*
X014600Y011115D01*
X014335Y010850D02*
X014300Y010850D01*
X009830Y008197D02*
X009830Y008050D01*
X009741Y008050D01*
X009830Y008050D01*
X009800Y008050D02*
X009800Y008167D01*
X009783Y008150D02*
X009830Y008150D01*
X009830Y008197D02*
X009712Y008079D01*
X009741Y008050D01*
X010500Y007903D02*
X010500Y007850D01*
X010600Y007850D02*
X010600Y007903D01*
X010700Y007903D02*
X010700Y007850D01*
X012760Y006270D02*
X012781Y006279D01*
X012800Y006297D01*
X012800Y006267D01*
X012800Y006255D01*
X012800Y006267D02*
X012821Y006246D01*
X012764Y006270D01*
X012760Y006270D01*
X012812Y006250D02*
X012817Y006250D01*
X013800Y005964D02*
X013800Y005906D01*
X013900Y005906D02*
X013900Y005964D01*
X014000Y007150D02*
X014000Y007735D01*
X013747Y007350D02*
X013600Y007350D01*
X013996Y004071D02*
X014032Y004035D01*
X014029Y004031D01*
X014020Y004010D01*
X014020Y004014D01*
X013996Y004071D01*
X014000Y004067D02*
X014000Y004062D01*
X014005Y004050D02*
X014017Y004050D01*
X014300Y004050D02*
X014300Y003850D01*
X014000Y003080D02*
X014000Y003054D01*
X013900Y003054D02*
X013900Y003080D01*
X013800Y003080D02*
X013800Y003054D01*
X013700Y003054D02*
X013700Y003080D01*
X013600Y003080D02*
X013600Y003054D01*
X014114Y002850D02*
X014316Y002850D01*
X014316Y002750D02*
X014114Y002750D01*
X014114Y002650D02*
X014316Y002650D01*
X014400Y002600D02*
X014400Y002500D01*
X014500Y002500D02*
X014500Y002600D01*
X014600Y002600D02*
X014600Y002500D01*
X014701Y002750D02*
X014801Y002750D01*
X014801Y002850D02*
X014701Y002850D01*
X015186Y002750D02*
X015300Y002750D01*
X015200Y003150D02*
X015210Y003160D01*
X014335Y001850D02*
X014300Y001850D01*
X013300Y001850D02*
X013300Y001850D01*
X013300Y001750D02*
X013300Y001750D01*
X013300Y001650D02*
X013300Y001650D01*
X013300Y001550D02*
X013300Y001550D01*
X013300Y001450D02*
X013300Y001450D01*
X011300Y001450D02*
X011300Y001450D01*
X011300Y001443D02*
X011300Y001857D01*
X011300Y001850D02*
X011300Y001850D01*
X011300Y001750D02*
X011300Y001750D01*
X011300Y001650D02*
X011300Y001650D01*
X011300Y001550D02*
X011300Y001550D01*
X010900Y001150D02*
X010900Y000300D01*
X010800Y000300D02*
X010800Y001150D01*
X010700Y001150D02*
X010700Y000300D01*
X010300Y001443D02*
X010300Y001857D01*
X010007Y002150D01*
X009593Y002150D01*
X010300Y001850D02*
X010300Y001850D01*
X010300Y001750D02*
X010300Y001750D01*
X010300Y001650D02*
X010300Y001650D01*
X010300Y001550D02*
X010300Y001550D01*
X010300Y001450D02*
X010300Y001450D01*
X010800Y003143D02*
X010800Y003187D01*
X007593Y001150D02*
X007300Y001443D01*
X007300Y001857D01*
X007007Y002150D01*
X007300Y001857D02*
X007300Y001443D01*
X007300Y001450D02*
X007300Y001450D01*
X007300Y001550D02*
X007300Y001550D01*
X007300Y001650D02*
X007300Y001650D01*
X007300Y001750D02*
X007300Y001750D01*
X007300Y001850D02*
X007300Y001850D01*
X006100Y002057D02*
X006100Y004338D01*
X006095Y004350D02*
X005792Y004350D01*
X005792Y004450D02*
X006080Y004450D01*
X006288Y004750D02*
X005792Y004750D01*
X005193Y005191D02*
X005152Y005150D01*
X005193Y005191D02*
X005193Y005709D01*
X005105Y005797D01*
X005152Y005750D02*
X005248Y005750D01*
X005207Y005709D02*
X005295Y005797D01*
X005735Y005797D01*
X005749Y005782D01*
X006217Y006250D01*
X006200Y006233D02*
X006200Y006267D01*
X005700Y006090D02*
X005700Y005797D01*
X005600Y005797D02*
X005600Y006051D01*
X005500Y006051D02*
X005500Y005797D01*
X005400Y005797D02*
X005400Y006051D01*
X005300Y006051D02*
X005300Y005797D01*
X005000Y005797D02*
X005000Y005820D01*
X004736Y005686D02*
X004885Y005450D01*
X004736Y005686D02*
X004736Y005994D01*
X004592Y005850D01*
X003500Y005850D01*
X003718Y006085D02*
X003783Y006150D01*
X004453Y006150D01*
X004438Y006135D01*
X004438Y006050D01*
X003753Y006050D01*
X003718Y006085D01*
X003753Y006050D02*
X004438Y006050D01*
X004400Y006050D02*
X004400Y006150D01*
X004300Y006150D02*
X004300Y006050D01*
X004200Y006050D02*
X004200Y006150D01*
X004100Y006150D02*
X004100Y006050D01*
X004000Y006050D02*
X004000Y006150D01*
X003900Y006150D02*
X003900Y006050D01*
X003800Y006050D02*
X003800Y006150D01*
X003800Y005650D02*
X003800Y004845D01*
X003900Y004845D02*
X003900Y005650D01*
X004000Y005650D02*
X004000Y004845D01*
X004100Y004845D02*
X004100Y005650D01*
X004200Y005650D02*
X004200Y004845D01*
X004300Y004845D02*
X004300Y005650D01*
X004400Y005650D02*
X004400Y004845D01*
X004500Y004845D02*
X004500Y005650D01*
X004523Y005649D02*
X004536Y005628D01*
X004536Y005603D01*
X004578Y005561D01*
X004578Y005191D01*
X004619Y005150D01*
X003250Y005150D01*
X003250Y005050D02*
X004578Y005050D01*
X004578Y005109D02*
X004578Y004825D01*
X004529Y004845D01*
X003250Y004845D01*
X003250Y005647D01*
X003319Y005579D01*
X003436Y005530D01*
X003564Y005530D01*
X003681Y005579D01*
X003753Y005650D01*
X004523Y005650D01*
X004523Y005649D01*
X004578Y005550D02*
X003612Y005550D01*
X003600Y005545D02*
X003600Y004845D01*
X003700Y004845D02*
X003700Y005597D01*
X003500Y005530D02*
X003500Y004845D01*
X003400Y004845D02*
X003400Y005545D01*
X003388Y005550D02*
X003250Y005550D01*
X003300Y005597D02*
X003300Y004845D01*
X003250Y004850D02*
X004578Y004850D01*
X004578Y004950D02*
X003250Y004950D01*
X003250Y005250D02*
X004578Y005250D01*
X004600Y005169D02*
X004600Y005131D01*
X004619Y005150D02*
X004578Y005109D01*
X004578Y005350D02*
X003250Y005350D01*
X003250Y005450D02*
X004578Y005450D01*
X005193Y005350D02*
X005207Y005350D01*
X005193Y005250D02*
X005207Y005250D01*
X004692Y005950D02*
X004736Y005994D01*
X005464Y006150D02*
X005464Y006150D01*
X005464Y006350D02*
X005464Y006350D01*
X005600Y007397D02*
X005600Y008845D01*
X005200Y008770D02*
X005200Y008770D01*
X005100Y008770D02*
X005100Y008770D01*
X005000Y008770D02*
X005000Y008770D01*
X004900Y008770D02*
X004530Y008770D01*
X004530Y008654D01*
X004531Y008650D01*
X004530Y008750D02*
X004422Y008750D01*
X004422Y008850D02*
X004530Y008850D01*
X004600Y008770D02*
X004600Y008770D01*
X004700Y008770D02*
X004700Y008770D01*
X004800Y008770D02*
X004800Y008770D01*
X004900Y008850D02*
X004900Y008850D01*
X004900Y008950D02*
X004900Y008950D01*
X004500Y008167D02*
X004500Y008003D01*
X004500Y008167D01*
X004500Y008167D01*
X004500Y008150D02*
X004500Y008150D01*
X004500Y008050D02*
X004500Y008050D01*
X004500Y008003D02*
X004500Y008003D01*
X004593Y007880D02*
X004677Y007880D01*
X004629Y007831D01*
X004620Y007810D01*
X004620Y007814D01*
X004593Y007880D01*
X004600Y007880D02*
X004600Y007862D01*
X004605Y007850D02*
X004647Y007850D01*
X004647Y007450D02*
X004412Y007450D01*
X004212Y007350D02*
X004619Y007350D01*
X004700Y007397D02*
X004700Y007397D01*
X002175Y007725D02*
X002000Y007550D01*
X002000Y004850D01*
X002200Y004650D01*
X002525Y004650D01*
X001300Y004575D01*
X004385Y003250D02*
X005188Y003250D01*
X005200Y003245D02*
X005200Y001957D01*
X005252Y003050D02*
X004385Y003050D01*
X004385Y003150D02*
X005252Y003150D01*
X002175Y007725D02*
X001300Y007725D01*
X016000Y000661D02*
X016000Y000300D01*
X016389Y000650D02*
X016765Y000650D01*
D21*
X008900Y006650D03*
D22*
X004900Y008130D03*
X004900Y008450D03*
X004900Y008770D03*
X012700Y003670D03*
X012700Y003350D03*
X012700Y003030D03*
D23*
X013649Y002550D03*
X014751Y002550D03*
X014751Y009650D03*
X013649Y009650D03*
D24*
X018850Y009650D03*
X019850Y009650D03*
X019850Y008650D03*
X018850Y008650D03*
X018850Y007650D03*
X019850Y007650D03*
X019850Y006650D03*
X018850Y006650D03*
X018850Y005650D03*
X019850Y005650D03*
X019850Y004650D03*
X018850Y004650D03*
X018850Y003650D03*
X019850Y003650D03*
X019850Y002650D03*
X018850Y002650D03*
D25*
X006701Y002850D03*
X005599Y002850D03*
D26*
X005599Y003501D01*
X005550Y003550D01*
X005300Y003550D01*
X006701Y003501D02*
X006701Y002850D01*
X006701Y003501D02*
X006750Y003550D01*
X007000Y003550D01*
X013649Y002550D02*
X013800Y002399D01*
X013800Y001650D01*
X014751Y001699D02*
X014800Y001650D01*
X014791Y001659D01*
X014800Y001650D02*
X017000Y001650D01*
X017000Y002650D01*
X018850Y002650D01*
X019850Y002650D01*
X019850Y004650D02*
X018850Y004650D01*
X017500Y004650D01*
X017500Y004750D01*
X014751Y002550D02*
X014751Y002180D01*
X014751Y002040D01*
X014751Y001699D01*
X014800Y009650D02*
X015800Y009650D01*
X014800Y009650D02*
X014800Y010650D01*
X013800Y010650D02*
X013800Y009692D01*
D27*
X012800Y009150D03*
X012300Y009150D03*
X012500Y009750D03*
X012300Y010150D03*
X011300Y010150D03*
X011100Y008750D03*
X010100Y007850D03*
X010600Y007350D03*
X011200Y007450D03*
X012600Y006550D03*
X012700Y005950D03*
X013400Y006550D03*
X014000Y007150D03*
X014800Y007850D03*
X015200Y008950D03*
X016300Y008150D03*
X016600Y007150D03*
X015200Y005350D03*
X014800Y004950D03*
X014400Y004550D03*
X013700Y003950D03*
X014300Y003850D03*
X012900Y004150D03*
X011900Y004550D03*
X011126Y004576D03*
X010000Y004950D03*
X008600Y004550D03*
X007000Y003550D03*
X006400Y004450D03*
X005300Y003550D03*
X004100Y004150D03*
X003100Y004150D03*
X004100Y005250D03*
X003500Y005850D03*
X003500Y006650D03*
X004100Y007050D03*
X004900Y007650D03*
X004300Y007750D03*
X003100Y008150D03*
X001250Y009150D03*
X001350Y010150D03*
X005500Y008750D03*
X005700Y009150D03*
X007000Y008350D03*
X007600Y008350D03*
X006500Y007850D03*
X006900Y007450D03*
X005900Y006250D03*
X006800Y005850D03*
X011400Y005450D03*
X014000Y005350D03*
X016700Y004150D03*
X017700Y004150D03*
X017500Y004750D03*
X011500Y002550D03*
X009100Y008750D03*
X008500Y009150D03*
X007800Y009750D03*
X007200Y009450D03*
X001250Y003150D03*
X001250Y002150D03*
X017700Y009150D03*
D28*
X015200Y008950D02*
X014800Y008950D01*
X014800Y009601D01*
X014751Y009650D01*
X013800Y009692D02*
X013691Y009692D01*
X013649Y009650D01*
X013700Y009599D01*
X013700Y008950D01*
X013800Y008850D01*
X014200Y008850D01*
X014400Y008650D01*
X014400Y008250D01*
X014400Y004550D01*
X014800Y004950D02*
X014800Y007850D01*
X015200Y008950D02*
X015200Y005350D01*
X015200Y003150D01*
X015200Y002999D01*
X014751Y002550D01*
X013649Y002550D02*
X013169Y003030D01*
X012700Y003030D01*
X012508Y002838D01*
X011874Y002838D01*
X011500Y002550D02*
X011500Y003350D01*
X010628Y003350D01*
X010600Y003465D01*
X010572Y003350D01*
X010572Y004093D01*
X010600Y004035D01*
X011126Y003862D02*
X011126Y004576D01*
X011124Y004578D01*
X011126Y004576D02*
X011100Y004550D01*
X011900Y004550D01*
X011900Y003888D01*
X011874Y003862D01*
X012508Y003862D01*
X012700Y003670D01*
X012700Y003350D02*
X014800Y003350D01*
X014800Y004950D01*
X011400Y005450D02*
X011272Y005322D01*
X010800Y005322D01*
X010915Y005350D01*
X010372Y005122D02*
X010200Y004950D01*
X010372Y005122D02*
X010285Y005350D01*
X011500Y003862D02*
X011500Y003350D01*
X011126Y002838D02*
X010684Y002838D01*
X010600Y002835D01*
X006985Y004450D02*
X006400Y004450D01*
X006100Y004850D02*
X005515Y004850D01*
X005515Y004250D01*
X004885Y004250D02*
X004885Y004850D01*
X004600Y004450D02*
X004475Y004575D01*
X001300Y004575D01*
X001250Y003650D02*
X001205Y003650D01*
X001250Y003650D02*
X001250Y003150D01*
X001250Y002650D02*
X001205Y002650D01*
X001250Y002650D02*
X001250Y002150D01*
X001895Y002650D02*
X003485Y002650D01*
X004115Y002650D02*
X004115Y003650D01*
X004100Y003665D01*
X004100Y004150D01*
X003100Y004150D01*
X003485Y003650D02*
X001895Y003650D01*
X004600Y004450D02*
X004885Y004250D01*
X006100Y004850D02*
X006200Y004950D01*
X006200Y005250D01*
X006785Y005250D01*
X006800Y005365D01*
X006800Y005850D01*
X010100Y007850D02*
X010100Y008250D01*
X010485Y008250D01*
X011100Y008250D02*
X011100Y008750D01*
X011115Y008250D02*
X011100Y008250D01*
X005500Y008750D02*
X005480Y008770D01*
X004900Y008770D01*
X004115Y008650D02*
X004115Y009650D01*
X004000Y009622D01*
X003485Y009650D02*
X001995Y009650D01*
X001350Y009650D02*
X001350Y010150D01*
X001350Y009650D02*
X001305Y009650D01*
X001250Y009150D02*
X001250Y008705D01*
X001305Y008650D01*
X001995Y008650D02*
X003485Y008650D01*
X004000Y008622D02*
X004115Y008650D01*
X004000Y008622D02*
X004000Y008150D01*
X003100Y008150D01*
D29*
X002500Y007050D02*
X002422Y006972D01*
X002422Y006662D01*
X002500Y007050D02*
X004100Y007050D01*
X005464Y006250D02*
X005900Y006250D01*
X004100Y005250D02*
X002500Y005250D01*
X002422Y005328D01*
X002422Y005638D01*
D30*
X010000Y004950D02*
X010200Y004950D01*
X010600Y004665D02*
X010600Y004550D01*
X011000Y004550D01*
X011126Y004576D01*
M02*
