G75*
%MOIN*%
%OFA0B0*%
%FSLAX24Y24*%
%IPPOS*%
%LPD*%
%AMOC8*
5,1,8,0,0,1.08239X$1,22.5*
%
%ADD10C,0.0000*%
D10*
X001200Y000150D02*
X017300Y000150D01*
X017350Y000152D01*
X017400Y000157D01*
X017449Y000166D01*
X017497Y000178D01*
X017545Y000194D01*
X017591Y000213D01*
X017635Y000236D01*
X017678Y000261D01*
X017719Y000290D01*
X017758Y000321D01*
X017795Y000355D01*
X017829Y000392D01*
X017860Y000431D01*
X017889Y000472D01*
X017914Y000515D01*
X017937Y000559D01*
X017956Y000605D01*
X017972Y000653D01*
X017984Y000701D01*
X017993Y000750D01*
X017998Y000800D01*
X018000Y000850D01*
X018000Y001789D01*
X018002Y001827D01*
X018008Y001864D01*
X018018Y001901D01*
X018031Y001936D01*
X018048Y001969D01*
X018069Y002001D01*
X018093Y002031D01*
X018119Y002057D01*
X018149Y002081D01*
X018181Y002102D01*
X018214Y002119D01*
X018249Y002132D01*
X018286Y002142D01*
X018323Y002148D01*
X018361Y002150D01*
X020139Y002150D01*
X020177Y002152D01*
X020214Y002158D01*
X020251Y002168D01*
X020286Y002181D01*
X020320Y002198D01*
X020351Y002219D01*
X020381Y002243D01*
X020407Y002269D01*
X020431Y002299D01*
X020452Y002330D01*
X020469Y002364D01*
X020482Y002399D01*
X020492Y002436D01*
X020498Y002473D01*
X020500Y002511D01*
X020500Y009789D01*
X020498Y009827D01*
X020492Y009864D01*
X020482Y009901D01*
X020469Y009936D01*
X020452Y009970D01*
X020431Y010001D01*
X020407Y010031D01*
X020381Y010057D01*
X020351Y010081D01*
X020320Y010102D01*
X020286Y010119D01*
X020251Y010132D01*
X020214Y010142D01*
X020177Y010148D01*
X020139Y010150D01*
X018361Y010150D01*
X018323Y010152D01*
X018286Y010158D01*
X018249Y010168D01*
X018214Y010181D01*
X018181Y010198D01*
X018149Y010219D01*
X018119Y010243D01*
X018093Y010269D01*
X018069Y010299D01*
X018048Y010331D01*
X018031Y010364D01*
X018018Y010399D01*
X018008Y010436D01*
X018002Y010473D01*
X018000Y010511D01*
X018000Y011450D01*
X017998Y011500D01*
X017993Y011550D01*
X017984Y011599D01*
X017972Y011647D01*
X017956Y011695D01*
X017937Y011741D01*
X017914Y011785D01*
X017889Y011828D01*
X017860Y011869D01*
X017829Y011908D01*
X017795Y011945D01*
X017758Y011979D01*
X017719Y012010D01*
X017678Y012039D01*
X017635Y012064D01*
X017591Y012087D01*
X017545Y012106D01*
X017497Y012122D01*
X017449Y012134D01*
X017400Y012143D01*
X017350Y012148D01*
X017300Y012150D01*
X001200Y012150D01*
X001150Y012148D01*
X001100Y012143D01*
X001051Y012134D01*
X001003Y012122D01*
X000955Y012106D01*
X000909Y012087D01*
X000865Y012064D01*
X000822Y012039D01*
X000781Y012010D01*
X000742Y011979D01*
X000705Y011945D01*
X000671Y011908D01*
X000640Y011869D01*
X000611Y011828D01*
X000586Y011785D01*
X000563Y011741D01*
X000544Y011695D01*
X000528Y011647D01*
X000516Y011599D01*
X000507Y011550D01*
X000502Y011500D01*
X000500Y011450D01*
X000500Y000850D01*
X000502Y000800D01*
X000507Y000750D01*
X000516Y000701D01*
X000528Y000653D01*
X000544Y000605D01*
X000563Y000559D01*
X000586Y000515D01*
X000611Y000472D01*
X000640Y000431D01*
X000671Y000392D01*
X000705Y000355D01*
X000742Y000321D01*
X000781Y000290D01*
X000822Y000261D01*
X000865Y000236D01*
X000909Y000213D01*
X000955Y000194D01*
X001003Y000178D01*
X001051Y000166D01*
X001100Y000157D01*
X001150Y000152D01*
X001200Y000150D01*
X000856Y000900D02*
X000858Y000939D01*
X000864Y000978D01*
X000874Y001016D01*
X000887Y001053D01*
X000904Y001088D01*
X000924Y001122D01*
X000948Y001153D01*
X000975Y001182D01*
X001004Y001208D01*
X001036Y001231D01*
X001070Y001251D01*
X001106Y001267D01*
X001143Y001279D01*
X001182Y001288D01*
X001221Y001293D01*
X001260Y001294D01*
X001299Y001291D01*
X001338Y001284D01*
X001375Y001273D01*
X001412Y001259D01*
X001447Y001241D01*
X001480Y001220D01*
X001511Y001195D01*
X001539Y001168D01*
X001564Y001138D01*
X001586Y001105D01*
X001605Y001071D01*
X001620Y001035D01*
X001632Y000997D01*
X001640Y000959D01*
X001644Y000920D01*
X001644Y000880D01*
X001640Y000841D01*
X001632Y000803D01*
X001620Y000765D01*
X001605Y000729D01*
X001586Y000695D01*
X001564Y000662D01*
X001539Y000632D01*
X001511Y000605D01*
X001480Y000580D01*
X001447Y000559D01*
X001412Y000541D01*
X001375Y000527D01*
X001338Y000516D01*
X001299Y000509D01*
X001260Y000506D01*
X001221Y000507D01*
X001182Y000512D01*
X001143Y000521D01*
X001106Y000533D01*
X001070Y000549D01*
X001036Y000569D01*
X001004Y000592D01*
X000975Y000618D01*
X000948Y000647D01*
X000924Y000678D01*
X000904Y000712D01*
X000887Y000747D01*
X000874Y000784D01*
X000864Y000822D01*
X000858Y000861D01*
X000856Y000900D01*
X016856Y000900D02*
X016858Y000939D01*
X016864Y000978D01*
X016874Y001016D01*
X016887Y001053D01*
X016904Y001088D01*
X016924Y001122D01*
X016948Y001153D01*
X016975Y001182D01*
X017004Y001208D01*
X017036Y001231D01*
X017070Y001251D01*
X017106Y001267D01*
X017143Y001279D01*
X017182Y001288D01*
X017221Y001293D01*
X017260Y001294D01*
X017299Y001291D01*
X017338Y001284D01*
X017375Y001273D01*
X017412Y001259D01*
X017447Y001241D01*
X017480Y001220D01*
X017511Y001195D01*
X017539Y001168D01*
X017564Y001138D01*
X017586Y001105D01*
X017605Y001071D01*
X017620Y001035D01*
X017632Y000997D01*
X017640Y000959D01*
X017644Y000920D01*
X017644Y000880D01*
X017640Y000841D01*
X017632Y000803D01*
X017620Y000765D01*
X017605Y000729D01*
X017586Y000695D01*
X017564Y000662D01*
X017539Y000632D01*
X017511Y000605D01*
X017480Y000580D01*
X017447Y000559D01*
X017412Y000541D01*
X017375Y000527D01*
X017338Y000516D01*
X017299Y000509D01*
X017260Y000506D01*
X017221Y000507D01*
X017182Y000512D01*
X017143Y000521D01*
X017106Y000533D01*
X017070Y000549D01*
X017036Y000569D01*
X017004Y000592D01*
X016975Y000618D01*
X016948Y000647D01*
X016924Y000678D01*
X016904Y000712D01*
X016887Y000747D01*
X016874Y000784D01*
X016864Y000822D01*
X016858Y000861D01*
X016856Y000900D01*
X016856Y011400D02*
X016858Y011439D01*
X016864Y011478D01*
X016874Y011516D01*
X016887Y011553D01*
X016904Y011588D01*
X016924Y011622D01*
X016948Y011653D01*
X016975Y011682D01*
X017004Y011708D01*
X017036Y011731D01*
X017070Y011751D01*
X017106Y011767D01*
X017143Y011779D01*
X017182Y011788D01*
X017221Y011793D01*
X017260Y011794D01*
X017299Y011791D01*
X017338Y011784D01*
X017375Y011773D01*
X017412Y011759D01*
X017447Y011741D01*
X017480Y011720D01*
X017511Y011695D01*
X017539Y011668D01*
X017564Y011638D01*
X017586Y011605D01*
X017605Y011571D01*
X017620Y011535D01*
X017632Y011497D01*
X017640Y011459D01*
X017644Y011420D01*
X017644Y011380D01*
X017640Y011341D01*
X017632Y011303D01*
X017620Y011265D01*
X017605Y011229D01*
X017586Y011195D01*
X017564Y011162D01*
X017539Y011132D01*
X017511Y011105D01*
X017480Y011080D01*
X017447Y011059D01*
X017412Y011041D01*
X017375Y011027D01*
X017338Y011016D01*
X017299Y011009D01*
X017260Y011006D01*
X017221Y011007D01*
X017182Y011012D01*
X017143Y011021D01*
X017106Y011033D01*
X017070Y011049D01*
X017036Y011069D01*
X017004Y011092D01*
X016975Y011118D01*
X016948Y011147D01*
X016924Y011178D01*
X016904Y011212D01*
X016887Y011247D01*
X016874Y011284D01*
X016864Y011322D01*
X016858Y011361D01*
X016856Y011400D01*
X000856Y011400D02*
X000858Y011439D01*
X000864Y011478D01*
X000874Y011516D01*
X000887Y011553D01*
X000904Y011588D01*
X000924Y011622D01*
X000948Y011653D01*
X000975Y011682D01*
X001004Y011708D01*
X001036Y011731D01*
X001070Y011751D01*
X001106Y011767D01*
X001143Y011779D01*
X001182Y011788D01*
X001221Y011793D01*
X001260Y011794D01*
X001299Y011791D01*
X001338Y011784D01*
X001375Y011773D01*
X001412Y011759D01*
X001447Y011741D01*
X001480Y011720D01*
X001511Y011695D01*
X001539Y011668D01*
X001564Y011638D01*
X001586Y011605D01*
X001605Y011571D01*
X001620Y011535D01*
X001632Y011497D01*
X001640Y011459D01*
X001644Y011420D01*
X001644Y011380D01*
X001640Y011341D01*
X001632Y011303D01*
X001620Y011265D01*
X001605Y011229D01*
X001586Y011195D01*
X001564Y011162D01*
X001539Y011132D01*
X001511Y011105D01*
X001480Y011080D01*
X001447Y011059D01*
X001412Y011041D01*
X001375Y011027D01*
X001338Y011016D01*
X001299Y011009D01*
X001260Y011006D01*
X001221Y011007D01*
X001182Y011012D01*
X001143Y011021D01*
X001106Y011033D01*
X001070Y011049D01*
X001036Y011069D01*
X001004Y011092D01*
X000975Y011118D01*
X000948Y011147D01*
X000924Y011178D01*
X000904Y011212D01*
X000887Y011247D01*
X000874Y011284D01*
X000864Y011322D01*
X000858Y011361D01*
X000856Y011400D01*
M02*
