G75*
%MOIN*%
%OFA0B0*%
%FSLAX24Y24*%
%IPPOS*%
%LPD*%
%AMOC8*
5,1,8,0,0,1.08239X$1,22.5*
%
%ADD10C,0.0040*%
%ADD11C,0.0050*%
%ADD12C,0.0030*%
%ADD13C,0.0060*%
%ADD14C,0.0100*%
%ADD15C,0.0080*%
%ADD16C,0.0100*%
%ADD17C,0.0000*%
%ADD18R,0.0013X0.0003*%
%ADD19R,0.0018X0.0003*%
%ADD20R,0.0022X0.0003*%
%ADD21R,0.0027X0.0003*%
%ADD22R,0.0032X0.0003*%
%ADD23R,0.0037X0.0003*%
%ADD24R,0.0043X0.0003*%
%ADD25R,0.0047X0.0003*%
%ADD26R,0.0053X0.0003*%
%ADD27R,0.0057X0.0003*%
%ADD28R,0.0060X0.0003*%
%ADD29R,0.0065X0.0003*%
%ADD30R,0.0067X0.0003*%
%ADD31R,0.0070X0.0003*%
%ADD32R,0.0035X0.0003*%
%ADD33R,0.0063X0.0003*%
%ADD34R,0.0040X0.0003*%
%ADD35R,0.0045X0.0003*%
%ADD36R,0.0050X0.0003*%
%ADD37R,0.0055X0.0003*%
%ADD38R,0.0005X0.0003*%
%ADD39R,0.0073X0.0003*%
%ADD40R,0.0075X0.0003*%
%ADD41R,0.0077X0.0003*%
%ADD42R,0.0080X0.0003*%
%ADD43R,0.0083X0.0003*%
%ADD44R,0.0010X0.0003*%
%ADD45R,0.0015X0.0003*%
%ADD46R,0.0020X0.0003*%
%ADD47R,0.0025X0.0003*%
%ADD48R,0.0030X0.0003*%
%ADD49R,0.0008X0.0003*%
%ADD50R,0.0088X0.0003*%
%ADD51R,0.0095X0.0003*%
%ADD52R,0.0105X0.0003*%
%ADD53R,0.0113X0.0003*%
%ADD54R,0.0085X0.0003*%
%ADD55R,0.0120X0.0003*%
%ADD56R,0.0098X0.0003*%
%ADD57R,0.0103X0.0003*%
%ADD58R,0.0107X0.0003*%
%ADD59R,0.0115X0.0003*%
%ADD60R,0.0118X0.0003*%
%ADD61R,0.0100X0.0003*%
%ADD62R,0.0123X0.0003*%
%ADD63R,0.0127X0.0003*%
%ADD64R,0.0092X0.0003*%
%ADD65R,0.0147X0.0003*%
%ADD66R,0.0125X0.0003*%
%ADD67R,0.0145X0.0003*%
%ADD68R,0.0143X0.0003*%
%ADD69R,0.0133X0.0003*%
%ADD70R,0.0130X0.0003*%
%ADD71R,0.0090X0.0003*%
%ADD72R,0.0003X0.0003*%
D10*
X001670Y002145D02*
X001670Y002345D01*
X001770Y002345D01*
X001803Y002312D01*
X001803Y002245D01*
X001770Y002212D01*
X001670Y002212D01*
X001737Y002212D02*
X001803Y002145D01*
X001891Y002145D02*
X002024Y002345D01*
X002112Y002345D02*
X002212Y002345D01*
X002245Y002312D01*
X002245Y002178D01*
X002212Y002145D01*
X002112Y002145D01*
X002112Y002345D01*
X002024Y002145D02*
X001891Y002345D01*
X001891Y003145D02*
X002024Y003345D01*
X002112Y003345D02*
X002212Y003345D01*
X002245Y003312D01*
X002245Y003178D01*
X002212Y003145D01*
X002112Y003145D01*
X002112Y003345D01*
X002024Y003145D02*
X001891Y003345D01*
X001803Y003345D02*
X001670Y003345D01*
X001737Y003345D02*
X001737Y003145D01*
X002753Y004420D02*
X002820Y004420D01*
X002853Y004453D01*
X002853Y004620D01*
X002941Y004587D02*
X002941Y004553D01*
X002974Y004520D01*
X003041Y004520D01*
X003074Y004487D01*
X003074Y004453D01*
X003041Y004420D01*
X002974Y004420D01*
X002941Y004453D01*
X002941Y004587D02*
X002974Y004620D01*
X003041Y004620D01*
X003074Y004587D01*
X003162Y004620D02*
X003262Y004620D01*
X003295Y004587D01*
X003295Y004553D01*
X003262Y004520D01*
X003162Y004520D01*
X003162Y004420D02*
X003262Y004420D01*
X003295Y004453D01*
X003295Y004487D01*
X003262Y004520D01*
X003162Y004420D02*
X003162Y004620D01*
X002720Y004620D02*
X002720Y004453D01*
X002753Y004420D01*
X002637Y008995D02*
X002571Y009062D01*
X002604Y009062D02*
X002504Y009062D01*
X002504Y008995D02*
X002504Y009195D01*
X002604Y009195D01*
X002637Y009162D01*
X002637Y009095D01*
X002604Y009062D01*
X002416Y008995D02*
X002283Y008995D01*
X002283Y009195D01*
X002416Y009195D01*
X002350Y009095D02*
X002283Y009095D01*
X002195Y008995D02*
X002195Y009195D01*
X002062Y009195D02*
X002062Y008995D01*
X002129Y009062D01*
X002195Y008995D01*
X001974Y009028D02*
X001974Y009162D01*
X001941Y009195D01*
X001874Y009195D01*
X001841Y009162D01*
X001841Y009028D01*
X001874Y008995D01*
X001941Y008995D01*
X001974Y009028D01*
X001753Y009095D02*
X001753Y009162D01*
X001720Y009195D01*
X001620Y009195D01*
X001620Y008995D01*
X001620Y009062D02*
X001720Y009062D01*
X001753Y009095D01*
X001720Y009995D02*
X001653Y009995D01*
X001620Y010028D01*
X001653Y010095D02*
X001620Y010128D01*
X001620Y010162D01*
X001653Y010195D01*
X001720Y010195D01*
X001753Y010162D01*
X001720Y010095D02*
X001753Y010062D01*
X001753Y010028D01*
X001720Y009995D01*
X001720Y010095D02*
X001653Y010095D01*
X001841Y010028D02*
X001874Y009995D01*
X001941Y009995D01*
X001974Y010028D01*
X001974Y010195D01*
X002062Y010162D02*
X002062Y010128D01*
X002095Y010095D01*
X002162Y010095D01*
X002195Y010062D01*
X002195Y010028D01*
X002162Y009995D01*
X002095Y009995D01*
X002062Y010028D01*
X002062Y010162D02*
X002095Y010195D01*
X002162Y010195D01*
X002195Y010162D01*
X002283Y010195D02*
X002283Y009995D01*
X002283Y010062D02*
X002383Y010062D01*
X002416Y010095D01*
X002416Y010162D01*
X002383Y010195D01*
X002283Y010195D01*
X002504Y010195D02*
X002504Y009995D01*
X002637Y009995D01*
X002725Y009995D02*
X002725Y010195D01*
X002858Y009995D01*
X002858Y010195D01*
X002946Y010195D02*
X002946Y009995D01*
X003046Y009995D01*
X003079Y010028D01*
X003079Y010162D01*
X003046Y010195D01*
X002946Y010195D01*
X002637Y010195D02*
X002504Y010195D01*
X002504Y010095D02*
X002571Y010095D01*
X001841Y010028D02*
X001841Y010195D01*
X011328Y004380D02*
X011328Y004213D01*
X011361Y004180D01*
X011428Y004180D01*
X011461Y004213D01*
X011461Y004380D01*
X011549Y004313D02*
X011616Y004380D01*
X011616Y004180D01*
X011682Y004180D02*
X011549Y004180D01*
X012220Y004170D02*
X012287Y004203D01*
X012320Y004203D01*
X012353Y004170D01*
X012353Y004103D01*
X012320Y004070D01*
X012253Y004070D01*
X012220Y004103D01*
X012220Y004170D02*
X012220Y004270D01*
X012353Y004270D01*
X012441Y004270D02*
X012441Y004137D01*
X012508Y004070D01*
X012574Y004137D01*
X012574Y004270D01*
X014020Y003187D02*
X014020Y003053D01*
X014053Y003020D01*
X014120Y003020D01*
X014153Y003053D01*
X014241Y003053D02*
X014274Y003020D01*
X014341Y003020D01*
X014374Y003053D01*
X014374Y003087D01*
X014341Y003120D01*
X014308Y003120D01*
X014341Y003120D02*
X014374Y003153D01*
X014374Y003187D01*
X014341Y003220D01*
X014274Y003220D01*
X014241Y003187D01*
X014153Y003187D02*
X014120Y003220D01*
X014053Y003220D01*
X014020Y003187D01*
X015180Y003170D02*
X015180Y003270D01*
X015213Y003303D01*
X015280Y003303D01*
X015313Y003270D01*
X015313Y003170D01*
X015313Y003237D02*
X015380Y003303D01*
X015380Y003170D02*
X015180Y003170D01*
X015180Y003391D02*
X015180Y003524D01*
X015180Y003458D02*
X015380Y003458D01*
X015347Y003612D02*
X015380Y003645D01*
X015380Y003712D01*
X015347Y003745D01*
X015313Y003745D01*
X015280Y003712D01*
X015280Y003645D01*
X015247Y003612D01*
X015213Y003612D01*
X015180Y003645D01*
X015180Y003712D01*
X015213Y003745D01*
X015247Y003833D02*
X015180Y003900D01*
X015380Y003900D01*
X015380Y003966D02*
X015380Y003833D01*
X015380Y004170D02*
X015180Y004170D01*
X015180Y004270D01*
X015213Y004303D01*
X015347Y004303D01*
X015380Y004270D01*
X015380Y004170D01*
X015180Y004391D02*
X015180Y004524D01*
X015180Y004458D02*
X015380Y004458D01*
X015380Y004612D02*
X015180Y004612D01*
X015180Y004712D01*
X015213Y004745D01*
X015280Y004745D01*
X015313Y004712D01*
X015313Y004612D01*
X015313Y004679D02*
X015380Y004745D01*
X015380Y004833D02*
X015380Y004966D01*
X015380Y004900D02*
X015180Y004900D01*
X015247Y004833D01*
X015313Y005270D02*
X015313Y005370D01*
X015280Y005403D01*
X015213Y005403D01*
X015180Y005370D01*
X015180Y005270D01*
X015380Y005270D01*
X015313Y005337D02*
X015380Y005403D01*
X015380Y005491D02*
X015180Y005624D01*
X015180Y005712D02*
X015180Y005812D01*
X015213Y005845D01*
X015347Y005845D01*
X015380Y005812D01*
X015380Y005712D01*
X015180Y005712D01*
X015380Y005624D02*
X015180Y005491D01*
X015247Y005933D02*
X015180Y006000D01*
X015380Y006000D01*
X015380Y006066D02*
X015380Y005933D01*
X015180Y006270D02*
X015180Y006403D01*
X015180Y006337D02*
X015380Y006337D01*
X015380Y006491D02*
X015180Y006624D01*
X015180Y006712D02*
X015180Y006812D01*
X015213Y006845D01*
X015347Y006845D01*
X015380Y006812D01*
X015380Y006712D01*
X015180Y006712D01*
X015380Y006624D02*
X015180Y006491D01*
X015247Y006933D02*
X015180Y007000D01*
X015380Y007000D01*
X015380Y007066D02*
X015380Y006933D01*
X015313Y007370D02*
X015180Y007370D01*
X015313Y007370D02*
X015380Y007437D01*
X015313Y007503D01*
X015180Y007503D01*
X015213Y007591D02*
X015347Y007591D01*
X015380Y007624D01*
X015380Y007691D01*
X015347Y007724D01*
X015347Y007812D02*
X015380Y007845D01*
X015380Y007912D01*
X015347Y007945D01*
X015347Y007812D02*
X015213Y007812D01*
X015180Y007845D01*
X015180Y007912D01*
X015213Y007945D01*
X015213Y007724D02*
X015180Y007691D01*
X015180Y007624D01*
X015213Y007591D01*
X015213Y008270D02*
X015347Y008270D01*
X015380Y008303D01*
X015380Y008370D01*
X015347Y008403D01*
X015213Y008403D02*
X015180Y008370D01*
X015180Y008303D01*
X015213Y008270D01*
X015180Y008491D02*
X015180Y008624D01*
X015180Y008558D02*
X015380Y008558D01*
X015347Y008712D02*
X015380Y008745D01*
X015380Y008812D01*
X015347Y008845D01*
X015313Y008845D01*
X015280Y008812D01*
X015280Y008745D01*
X015247Y008712D01*
X015213Y008712D01*
X015180Y008745D01*
X015180Y008812D01*
X015213Y008845D01*
X015247Y008933D02*
X015180Y009000D01*
X015380Y009000D01*
X015380Y009066D02*
X015380Y008933D01*
X015347Y009370D02*
X015213Y009370D01*
X015180Y009403D01*
X015180Y009470D01*
X015213Y009503D01*
X015280Y009503D02*
X015280Y009437D01*
X015280Y009503D02*
X015347Y009503D01*
X015380Y009470D01*
X015380Y009403D01*
X015347Y009370D01*
X015380Y009591D02*
X015180Y009591D01*
X015380Y009724D01*
X015180Y009724D01*
X015180Y009812D02*
X015180Y009912D01*
X015213Y009945D01*
X015347Y009945D01*
X015380Y009912D01*
X015380Y009812D01*
X015180Y009812D01*
X013130Y009824D02*
X013130Y009691D01*
X012997Y009824D01*
X012963Y009824D01*
X012930Y009791D01*
X012930Y009724D01*
X012963Y009691D01*
X012963Y009603D02*
X012930Y009570D01*
X012930Y009503D01*
X012963Y009470D01*
X013097Y009470D01*
X013130Y009503D01*
X013130Y009570D01*
X013097Y009603D01*
X018080Y009624D02*
X018113Y009591D01*
X018147Y009591D01*
X018180Y009624D01*
X018180Y009691D01*
X018213Y009724D01*
X018247Y009724D01*
X018280Y009691D01*
X018280Y009624D01*
X018247Y009591D01*
X018247Y009503D02*
X018113Y009503D01*
X018080Y009470D01*
X018080Y009370D01*
X018280Y009370D01*
X018280Y009470D01*
X018247Y009503D01*
X018080Y009624D02*
X018080Y009691D01*
X018113Y009724D01*
X018080Y009812D02*
X018080Y009912D01*
X018113Y009945D01*
X018180Y009945D01*
X018213Y009912D01*
X018213Y009812D01*
X018213Y009879D02*
X018280Y009945D01*
X018280Y010033D02*
X018280Y010166D01*
X018280Y010100D02*
X018080Y010100D01*
X018147Y010033D01*
X018080Y009812D02*
X018280Y009812D01*
X018280Y009166D02*
X018280Y009033D01*
X018280Y009100D02*
X018080Y009100D01*
X018147Y009033D01*
X018113Y008945D02*
X018080Y008912D01*
X018080Y008845D01*
X018113Y008812D01*
X018147Y008812D01*
X018180Y008845D01*
X018180Y008912D01*
X018213Y008945D01*
X018247Y008945D01*
X018280Y008912D01*
X018280Y008845D01*
X018247Y008812D01*
X018280Y008658D02*
X018080Y008658D01*
X018080Y008724D02*
X018080Y008591D01*
X018113Y008503D02*
X018180Y008503D01*
X018213Y008470D01*
X018213Y008370D01*
X018213Y008437D02*
X018280Y008503D01*
X018280Y008370D02*
X018080Y008370D01*
X018080Y008470D01*
X018113Y008503D01*
X018280Y008166D02*
X018280Y008033D01*
X018280Y008100D02*
X018080Y008100D01*
X018147Y008033D01*
X018180Y007945D02*
X018113Y007945D01*
X018080Y007912D01*
X018080Y007812D01*
X018280Y007812D01*
X018213Y007812D02*
X018213Y007912D01*
X018180Y007945D01*
X018213Y007879D02*
X018280Y007945D01*
X018080Y007724D02*
X018080Y007591D01*
X018080Y007658D02*
X018280Y007658D01*
X018247Y007503D02*
X018113Y007503D01*
X018080Y007470D01*
X018080Y007370D01*
X018280Y007370D01*
X018280Y007470D01*
X018247Y007503D01*
X018280Y007166D02*
X018280Y007033D01*
X018280Y007100D02*
X018080Y007100D01*
X018147Y007033D01*
X018113Y006945D02*
X018080Y006912D01*
X018080Y006812D01*
X018280Y006812D01*
X018280Y006912D01*
X018247Y006945D01*
X018113Y006945D01*
X018080Y006724D02*
X018280Y006591D01*
X018280Y006503D02*
X018213Y006437D01*
X018213Y006470D02*
X018213Y006370D01*
X018280Y006370D02*
X018080Y006370D01*
X018080Y006470D01*
X018113Y006503D01*
X018180Y006503D01*
X018213Y006470D01*
X018080Y006591D02*
X018280Y006724D01*
X018280Y006166D02*
X018280Y006033D01*
X018280Y006100D02*
X018080Y006100D01*
X018147Y006033D01*
X018113Y005945D02*
X018080Y005912D01*
X018080Y005812D01*
X018280Y005812D01*
X018280Y005912D01*
X018247Y005945D01*
X018113Y005945D01*
X018080Y005724D02*
X018280Y005591D01*
X018280Y005724D02*
X018080Y005591D01*
X018080Y005503D02*
X018080Y005370D01*
X018080Y005437D02*
X018280Y005437D01*
X018247Y004945D02*
X018280Y004912D01*
X018280Y004845D01*
X018247Y004812D01*
X018113Y004812D01*
X018080Y004845D01*
X018080Y004912D01*
X018113Y004945D01*
X018113Y004724D02*
X018080Y004691D01*
X018080Y004624D01*
X018113Y004591D01*
X018247Y004591D01*
X018280Y004624D01*
X018280Y004691D01*
X018247Y004724D01*
X018213Y004503D02*
X018080Y004503D01*
X018080Y004370D02*
X018213Y004370D01*
X018280Y004437D01*
X018213Y004503D01*
X018280Y004166D02*
X018280Y004033D01*
X018280Y004100D02*
X018080Y004100D01*
X018147Y004033D01*
X018113Y003945D02*
X018080Y003912D01*
X018080Y003845D01*
X018113Y003812D01*
X018147Y003812D01*
X018180Y003845D01*
X018180Y003912D01*
X018213Y003945D01*
X018247Y003945D01*
X018280Y003912D01*
X018280Y003845D01*
X018247Y003812D01*
X018080Y003724D02*
X018080Y003591D01*
X018080Y003658D02*
X018280Y003658D01*
X018247Y003503D02*
X018280Y003470D01*
X018280Y003403D01*
X018247Y003370D01*
X018113Y003370D01*
X018080Y003403D01*
X018080Y003470D01*
X018113Y003503D01*
X018113Y002945D02*
X018080Y002912D01*
X018080Y002812D01*
X018280Y002812D01*
X018280Y002912D01*
X018247Y002945D01*
X018113Y002945D01*
X018080Y002724D02*
X018280Y002724D01*
X018080Y002591D01*
X018280Y002591D01*
X018247Y002503D02*
X018180Y002503D01*
X018180Y002437D01*
X018247Y002503D02*
X018280Y002470D01*
X018280Y002403D01*
X018247Y002370D01*
X018113Y002370D01*
X018080Y002403D01*
X018080Y002470D01*
X018113Y002503D01*
X015380Y002524D02*
X015347Y002491D01*
X015380Y002524D02*
X015380Y002591D01*
X015347Y002624D01*
X015313Y002624D01*
X015280Y002591D01*
X015280Y002524D01*
X015247Y002491D01*
X015213Y002491D01*
X015180Y002524D01*
X015180Y002591D01*
X015213Y002624D01*
X015180Y002712D02*
X015180Y002812D01*
X015213Y002845D01*
X015280Y002845D01*
X015313Y002812D01*
X015313Y002712D01*
X015313Y002779D02*
X015380Y002845D01*
X015380Y002933D02*
X015380Y003066D01*
X015380Y003000D02*
X015180Y003000D01*
X015247Y002933D01*
X015180Y002712D02*
X015380Y002712D01*
X015347Y002403D02*
X015213Y002403D01*
X015180Y002370D01*
X015180Y002270D01*
X015380Y002270D01*
X015380Y002370D01*
X015347Y002403D01*
X012574Y002437D02*
X012574Y002570D01*
X012441Y002570D02*
X012441Y002437D01*
X012508Y002370D01*
X012574Y002437D01*
X012353Y002437D02*
X012353Y002403D01*
X012320Y002370D01*
X012253Y002370D01*
X012220Y002403D01*
X012287Y002470D02*
X012320Y002470D01*
X012353Y002437D01*
X012320Y002470D02*
X012353Y002503D01*
X012353Y002537D01*
X012320Y002570D01*
X012253Y002570D01*
X012220Y002537D01*
D11*
X013270Y003875D02*
X013315Y003875D01*
X013360Y003920D01*
X013360Y004145D01*
X013315Y004145D02*
X013405Y004145D01*
X013520Y004055D02*
X013610Y004145D01*
X013610Y003875D01*
X013520Y003875D02*
X013700Y003875D01*
X013270Y003875D02*
X013225Y003920D01*
X011765Y005455D02*
X011675Y005455D01*
X011630Y005500D01*
X011630Y005545D01*
X011675Y005590D01*
X011765Y005590D01*
X011811Y005545D01*
X011811Y005500D01*
X011765Y005455D01*
X011765Y005590D02*
X011811Y005635D01*
X011811Y005680D01*
X011765Y005725D01*
X011675Y005725D01*
X011630Y005680D01*
X011630Y005635D01*
X011675Y005590D01*
X011516Y005500D02*
X011471Y005455D01*
X011381Y005455D01*
X011336Y005500D01*
X011336Y005680D01*
X011381Y005725D01*
X011471Y005725D01*
X011516Y005680D01*
X012825Y006475D02*
X012825Y006745D01*
X012960Y006745D01*
X013005Y006700D01*
X013005Y006610D01*
X012960Y006565D01*
X012825Y006565D01*
X012915Y006565D02*
X013005Y006475D01*
X013120Y006475D02*
X013300Y006475D01*
X013210Y006475D02*
X013210Y006745D01*
X013120Y006655D01*
X013414Y006610D02*
X013504Y006655D01*
X013549Y006655D01*
X013594Y006610D01*
X013594Y006520D01*
X013549Y006475D01*
X013459Y006475D01*
X013414Y006520D01*
X013414Y006610D02*
X013414Y006745D01*
X013594Y006745D01*
X011820Y008175D02*
X011820Y008220D01*
X012000Y008400D01*
X012000Y008445D01*
X011820Y008445D01*
X011705Y008400D02*
X011660Y008445D01*
X011570Y008445D01*
X011525Y008400D01*
X011525Y008220D01*
X011570Y008175D01*
X011660Y008175D01*
X011705Y008220D01*
X010935Y007858D02*
X010935Y007813D01*
X010755Y007633D01*
X010935Y007633D01*
X010935Y007858D02*
X010890Y007903D01*
X010800Y007903D01*
X010755Y007858D01*
X010641Y007903D02*
X010641Y007678D01*
X010596Y007633D01*
X010505Y007633D01*
X010460Y007678D01*
X010460Y007903D01*
X012825Y008275D02*
X012825Y008545D01*
X012960Y008545D01*
X013005Y008500D01*
X013005Y008410D01*
X012960Y008365D01*
X012825Y008365D01*
X012915Y008365D02*
X013005Y008275D01*
X013120Y008275D02*
X013300Y008275D01*
X013210Y008275D02*
X013210Y008545D01*
X013120Y008455D01*
X013414Y008500D02*
X013459Y008545D01*
X013549Y008545D01*
X013594Y008500D01*
X013594Y008455D01*
X013549Y008410D01*
X013594Y008365D01*
X013594Y008320D01*
X013549Y008275D01*
X013459Y008275D01*
X013414Y008320D01*
X013504Y008410D02*
X013549Y008410D01*
X013655Y011075D02*
X013790Y011075D01*
X013745Y011165D01*
X013745Y011210D01*
X013790Y011255D01*
X013880Y011255D01*
X013925Y011210D01*
X013925Y011120D01*
X013880Y011075D01*
X013655Y011075D02*
X013655Y011255D01*
X013655Y011370D02*
X013835Y011370D01*
X013925Y011460D01*
X013835Y011550D01*
X013655Y011550D01*
X013700Y011664D02*
X013655Y011709D01*
X013655Y011799D01*
X013700Y011844D01*
X013880Y011664D01*
X013925Y011709D01*
X013925Y011799D01*
X013880Y011844D01*
X013700Y011844D01*
X013700Y011664D02*
X013880Y011664D01*
X014655Y011664D02*
X014655Y011799D01*
X014700Y011844D01*
X014880Y011844D01*
X014925Y011799D01*
X014925Y011664D01*
X014655Y011664D01*
X014655Y011550D02*
X014925Y011550D01*
X014655Y011370D01*
X014925Y011370D01*
X014880Y011255D02*
X014790Y011255D01*
X014790Y011165D01*
X014700Y011075D02*
X014880Y011075D01*
X014925Y011120D01*
X014925Y011210D01*
X014880Y011255D01*
X014700Y011255D02*
X014655Y011210D01*
X014655Y011120D01*
X014700Y011075D01*
X012925Y011075D02*
X012655Y011075D01*
X012925Y011255D01*
X012655Y011255D01*
X012700Y011370D02*
X012880Y011370D01*
X012925Y011415D01*
X012925Y011505D01*
X012880Y011550D01*
X012700Y011550D02*
X012655Y011505D01*
X012655Y011415D01*
X012700Y011370D01*
X011925Y011415D02*
X011880Y011370D01*
X011700Y011370D01*
X011655Y011415D01*
X011655Y011505D01*
X011700Y011550D01*
X011880Y011550D02*
X011925Y011505D01*
X011925Y011415D01*
X011925Y011255D02*
X011655Y011255D01*
X011655Y011075D02*
X011925Y011255D01*
X011925Y011075D02*
X011655Y011075D01*
X010875Y011165D02*
X010605Y011165D01*
X010605Y011075D02*
X010605Y011255D01*
X010605Y011370D02*
X010875Y011550D01*
X010875Y011664D02*
X010605Y011664D01*
X010605Y011799D01*
X010650Y011844D01*
X010830Y011844D01*
X010875Y011799D01*
X010875Y011664D01*
X010605Y011550D02*
X010875Y011370D01*
X009925Y011370D02*
X009655Y011550D01*
X009655Y011664D02*
X009655Y011799D01*
X009700Y011844D01*
X009880Y011844D01*
X009925Y011799D01*
X009925Y011664D01*
X009655Y011664D01*
X009925Y011550D02*
X009655Y011370D01*
X009700Y011255D02*
X009655Y011210D01*
X009655Y011075D01*
X009925Y011075D01*
X009835Y011075D02*
X009835Y011210D01*
X009790Y011255D01*
X009700Y011255D01*
X009835Y011165D02*
X009925Y011255D01*
X008925Y011210D02*
X008925Y011120D01*
X008880Y011075D01*
X008700Y011075D01*
X008655Y011120D01*
X008655Y011210D01*
X008700Y011255D01*
X008655Y011370D02*
X008655Y011550D01*
X008655Y011460D02*
X008925Y011460D01*
X008880Y011664D02*
X008925Y011709D01*
X008925Y011799D01*
X008880Y011844D01*
X008835Y011844D01*
X008790Y011799D01*
X008790Y011709D01*
X008745Y011664D01*
X008700Y011664D01*
X008655Y011709D01*
X008655Y011799D01*
X008700Y011844D01*
X007925Y011849D02*
X007925Y011759D01*
X007880Y011714D01*
X007790Y011759D02*
X007790Y011849D01*
X007835Y011894D01*
X007880Y011894D01*
X007925Y011849D01*
X007790Y011759D02*
X007745Y011714D01*
X007700Y011714D01*
X007655Y011759D01*
X007655Y011849D01*
X007700Y011894D01*
X007655Y011600D02*
X007655Y011420D01*
X007655Y011510D02*
X007925Y011510D01*
X007925Y011305D02*
X007835Y011215D01*
X007835Y011260D02*
X007790Y011305D01*
X007700Y011305D01*
X007655Y011260D01*
X007655Y011125D01*
X007925Y011125D01*
X007835Y011125D02*
X007835Y011260D01*
X006925Y011210D02*
X006925Y011075D01*
X006655Y011075D01*
X006655Y011210D01*
X006700Y011255D01*
X006880Y011255D01*
X006925Y011210D01*
X006655Y011370D02*
X006655Y011550D01*
X006655Y011460D02*
X006925Y011460D01*
X006925Y011664D02*
X006655Y011664D01*
X006655Y011799D01*
X006700Y011844D01*
X006790Y011844D01*
X006835Y011799D01*
X006835Y011664D01*
X006835Y011754D02*
X006925Y011844D01*
X005925Y011844D02*
X005835Y011754D01*
X005835Y011799D02*
X005835Y011664D01*
X005925Y011664D02*
X005655Y011664D01*
X005655Y011799D01*
X005700Y011844D01*
X005790Y011844D01*
X005835Y011799D01*
X005835Y011550D02*
X005880Y011550D01*
X005925Y011505D01*
X005925Y011415D01*
X005880Y011370D01*
X005790Y011415D02*
X005790Y011505D01*
X005835Y011550D01*
X005700Y011550D02*
X005655Y011505D01*
X005655Y011415D01*
X005700Y011370D01*
X005745Y011370D01*
X005790Y011415D01*
X005880Y011255D02*
X005700Y011255D01*
X005655Y011210D01*
X005655Y011075D01*
X005925Y011075D01*
X005925Y011210D01*
X005880Y011255D01*
X004925Y011210D02*
X004925Y011075D01*
X004655Y011075D01*
X004655Y011210D01*
X004700Y011255D01*
X004880Y011255D01*
X004925Y011210D01*
X004880Y011370D02*
X004700Y011370D01*
X004655Y011415D01*
X004655Y011505D01*
X004700Y011550D01*
X004655Y011664D02*
X004655Y011799D01*
X004700Y011844D01*
X004880Y011844D01*
X004925Y011799D01*
X004925Y011664D01*
X004655Y011664D01*
X004880Y011550D02*
X004925Y011505D01*
X004925Y011415D01*
X004880Y011370D01*
X003925Y011370D02*
X003925Y011460D01*
X003925Y011415D02*
X003655Y011415D01*
X003655Y011370D02*
X003655Y011460D01*
X003700Y011255D02*
X003790Y011255D01*
X003835Y011210D01*
X003835Y011075D01*
X003925Y011075D02*
X003655Y011075D01*
X003655Y011210D01*
X003700Y011255D01*
X003835Y011165D02*
X003925Y011255D01*
X004915Y009445D02*
X005005Y009445D01*
X004960Y009445D02*
X004960Y009220D01*
X004915Y009175D01*
X004870Y009175D01*
X004825Y009220D01*
X005120Y009175D02*
X005300Y009355D01*
X005300Y009400D01*
X005255Y009445D01*
X005165Y009445D01*
X005120Y009400D01*
X005120Y009175D02*
X005300Y009175D01*
X004400Y009210D02*
X004220Y009210D01*
X004355Y009345D01*
X004355Y009075D01*
X004105Y009075D02*
X004015Y009165D01*
X004060Y009165D02*
X003925Y009165D01*
X003925Y009075D02*
X003925Y009345D01*
X004060Y009345D01*
X004105Y009300D01*
X004105Y009210D01*
X004060Y009165D01*
X004159Y008345D02*
X004114Y008300D01*
X004114Y008120D01*
X004294Y008300D01*
X004294Y008120D01*
X004249Y008075D01*
X004159Y008075D01*
X004114Y008120D01*
X004000Y008075D02*
X003820Y008075D01*
X003910Y008075D02*
X003910Y008345D01*
X003820Y008255D01*
X003705Y008210D02*
X003660Y008165D01*
X003525Y008165D01*
X003525Y008075D02*
X003525Y008345D01*
X003660Y008345D01*
X003705Y008300D01*
X003705Y008210D01*
X003615Y008165D02*
X003705Y008075D01*
X004159Y008345D02*
X004249Y008345D01*
X004294Y008300D01*
X005925Y007245D02*
X006060Y007245D01*
X006105Y007200D01*
X006105Y007110D01*
X006060Y007065D01*
X005925Y007065D01*
X005925Y006975D02*
X005925Y007245D01*
X006015Y007065D02*
X006105Y006975D01*
X006220Y006975D02*
X006400Y007155D01*
X006400Y007200D01*
X006355Y007245D01*
X006265Y007245D01*
X006220Y007200D01*
X006220Y006975D02*
X006400Y006975D01*
X005237Y006574D02*
X005237Y006439D01*
X004967Y006439D01*
X004967Y006574D01*
X005012Y006619D01*
X005192Y006619D01*
X005237Y006574D01*
X004975Y006563D02*
X004977Y006574D01*
X004982Y006583D01*
X004990Y006590D01*
X005001Y006594D01*
X005011Y006594D01*
X005021Y006590D01*
X005030Y006583D01*
X005035Y006574D01*
X005037Y006563D01*
X005035Y006552D01*
X005030Y006543D01*
X005022Y006536D01*
X005011Y006532D01*
X005001Y006532D01*
X004990Y006536D01*
X004982Y006543D01*
X004977Y006552D01*
X004975Y006563D01*
X005012Y006325D02*
X004967Y006280D01*
X004967Y006190D01*
X005012Y006145D01*
X005057Y006145D01*
X005102Y006190D01*
X005102Y006280D01*
X005147Y006325D01*
X005192Y006325D01*
X005237Y006280D01*
X005237Y006190D01*
X005192Y006145D01*
X005237Y006030D02*
X005237Y005850D01*
X004967Y005850D01*
X004967Y006030D01*
X005102Y005940D02*
X005102Y005850D01*
X005925Y005745D02*
X005925Y005475D01*
X005925Y005565D02*
X006060Y005565D01*
X006105Y005610D01*
X006105Y005700D01*
X006060Y005745D01*
X005925Y005745D01*
X006015Y005565D02*
X006105Y005475D01*
X006220Y005520D02*
X006265Y005475D01*
X006355Y005475D01*
X006400Y005520D01*
X006400Y005565D01*
X006355Y005610D01*
X006310Y005610D01*
X006355Y005610D02*
X006400Y005655D01*
X006400Y005700D01*
X006355Y005745D01*
X006265Y005745D01*
X006220Y005700D01*
X006825Y005620D02*
X006870Y005575D01*
X006960Y005575D01*
X007005Y005620D01*
X007120Y005620D02*
X007165Y005575D01*
X007255Y005575D01*
X007300Y005620D01*
X007300Y005665D01*
X007255Y005710D01*
X007120Y005710D01*
X007120Y005620D01*
X007120Y005710D02*
X007210Y005800D01*
X007300Y005845D01*
X007005Y005800D02*
X006960Y005845D01*
X006870Y005845D01*
X006825Y005800D01*
X006825Y005620D01*
X006310Y004945D02*
X006310Y004675D01*
X006220Y004675D02*
X006400Y004675D01*
X006220Y004855D02*
X006310Y004945D01*
X006105Y004900D02*
X006105Y004810D01*
X006060Y004765D01*
X005925Y004765D01*
X005925Y004675D02*
X005925Y004945D01*
X006060Y004945D01*
X006105Y004900D01*
X006015Y004765D02*
X006105Y004675D01*
X006060Y004245D02*
X005970Y004245D01*
X005925Y004200D01*
X005925Y004020D01*
X005970Y003975D01*
X006060Y003975D01*
X006105Y004020D01*
X006220Y003975D02*
X006400Y003975D01*
X006310Y003975D02*
X006310Y004245D01*
X006220Y004155D01*
X006105Y004200D02*
X006060Y004245D01*
X005204Y003745D02*
X005204Y003475D01*
X005114Y003475D02*
X005294Y003475D01*
X005114Y003655D02*
X005204Y003745D01*
X004910Y003745D02*
X004910Y003475D01*
X004820Y003475D02*
X005000Y003475D01*
X004820Y003655D02*
X004910Y003745D01*
X004705Y003700D02*
X004705Y003610D01*
X004660Y003565D01*
X004525Y003565D01*
X004525Y003475D02*
X004525Y003745D01*
X004660Y003745D01*
X004705Y003700D01*
X004615Y003565D02*
X004705Y003475D01*
X004660Y002645D02*
X004525Y002645D01*
X004525Y002375D01*
X004525Y002465D02*
X004660Y002465D01*
X004705Y002510D01*
X004705Y002600D01*
X004660Y002645D01*
X004820Y002555D02*
X004910Y002645D01*
X004910Y002375D01*
X004820Y002375D02*
X005000Y002375D01*
X005114Y002375D02*
X005294Y002555D01*
X005294Y002600D01*
X005249Y002645D01*
X005159Y002645D01*
X005114Y002600D01*
X005114Y002375D02*
X005294Y002375D01*
X005675Y002310D02*
X005765Y002310D01*
X005675Y002175D02*
X005675Y002445D01*
X005855Y002445D01*
X005970Y002445D02*
X005970Y002220D01*
X006015Y002175D01*
X006105Y002175D01*
X006150Y002220D01*
X006150Y002445D01*
X006264Y002400D02*
X006264Y002355D01*
X006309Y002310D01*
X006399Y002310D01*
X006444Y002265D01*
X006444Y002220D01*
X006399Y002175D01*
X006309Y002175D01*
X006264Y002220D01*
X006264Y002400D02*
X006309Y002445D01*
X006399Y002445D01*
X006444Y002400D01*
X006559Y002445D02*
X006559Y002175D01*
X006739Y002175D01*
X006649Y002310D02*
X006559Y002310D01*
X006559Y002445D02*
X006739Y002445D01*
X007725Y002875D02*
X007725Y003055D01*
X007815Y003145D01*
X007905Y003055D01*
X007905Y002875D01*
X008020Y002920D02*
X008065Y002875D01*
X008200Y002875D01*
X008200Y002830D02*
X008200Y003055D01*
X008065Y003055D01*
X008020Y003010D01*
X008020Y002920D01*
X007905Y003010D02*
X007725Y003010D01*
X008110Y002785D02*
X008155Y002785D01*
X008200Y002830D01*
X008314Y002920D02*
X008314Y003010D01*
X008359Y003055D01*
X008449Y003055D01*
X008494Y003010D01*
X008494Y002965D01*
X008314Y002965D01*
X008314Y002920D02*
X008359Y002875D01*
X008449Y002875D01*
X008609Y002875D02*
X008609Y003055D01*
X008744Y003055D01*
X008789Y003010D01*
X008789Y002875D01*
X008949Y002920D02*
X008994Y002875D01*
X008949Y002920D02*
X008949Y003100D01*
X008904Y003055D02*
X008994Y003055D01*
X009100Y003010D02*
X009145Y003055D01*
X009280Y003055D01*
X009235Y002965D02*
X009145Y002965D01*
X009100Y003010D01*
X009100Y002875D02*
X009235Y002875D01*
X009280Y002920D01*
X009235Y002965D01*
X009247Y003355D02*
X009247Y003535D01*
X009382Y003535D01*
X009428Y003490D01*
X009428Y003355D01*
X009137Y003535D02*
X009092Y003535D01*
X009002Y003445D01*
X009002Y003355D02*
X009002Y003535D01*
X008887Y003490D02*
X008887Y003445D01*
X008707Y003445D01*
X008707Y003400D02*
X008707Y003490D01*
X008752Y003535D01*
X008842Y003535D01*
X008887Y003490D01*
X008842Y003355D02*
X008752Y003355D01*
X008707Y003400D01*
X008601Y003355D02*
X008556Y003400D01*
X008556Y003580D01*
X008511Y003535D02*
X008601Y003535D01*
X008404Y003535D02*
X008314Y003535D01*
X008359Y003580D02*
X008359Y003400D01*
X008404Y003355D01*
X008200Y003355D02*
X008200Y003490D01*
X008155Y003535D01*
X008065Y003535D01*
X008065Y003445D02*
X008200Y003445D01*
X008200Y003355D02*
X008065Y003355D01*
X008020Y003400D01*
X008065Y003445D01*
X007905Y003490D02*
X007905Y003580D01*
X007860Y003625D01*
X007725Y003625D01*
X007725Y003355D01*
X007725Y003445D02*
X007860Y003445D01*
X007905Y003490D01*
X008025Y004275D02*
X008025Y004545D01*
X008160Y004545D01*
X008205Y004500D01*
X008205Y004410D01*
X008160Y004365D01*
X008025Y004365D01*
X008115Y004365D02*
X008205Y004275D01*
X008320Y004275D02*
X008500Y004275D01*
X008410Y004275D02*
X008410Y004545D01*
X008320Y004455D01*
X008614Y004545D02*
X008794Y004545D01*
X008794Y004500D01*
X008614Y004320D01*
X008614Y004275D01*
X009736Y004400D02*
X009781Y004355D01*
X009871Y004355D01*
X009916Y004400D01*
X010030Y004400D02*
X010075Y004355D01*
X010165Y004355D01*
X010211Y004400D01*
X010211Y004490D01*
X010165Y004535D01*
X010120Y004535D01*
X010030Y004490D01*
X010030Y004625D01*
X010211Y004625D01*
X009916Y004580D02*
X009871Y004625D01*
X009781Y004625D01*
X009736Y004580D01*
X009736Y004400D01*
X009831Y003775D02*
X009786Y003730D01*
X009786Y003550D01*
X009831Y003505D01*
X009921Y003505D01*
X009966Y003550D01*
X010080Y003640D02*
X010261Y003640D01*
X010215Y003505D02*
X010215Y003775D01*
X010080Y003640D01*
X009966Y003730D02*
X009921Y003775D01*
X009831Y003775D01*
X009900Y001261D02*
X009945Y001215D01*
X009945Y001125D01*
X009900Y001080D01*
X009720Y001080D01*
X009675Y001125D01*
X009675Y001215D01*
X009720Y001261D01*
X009675Y000966D02*
X009945Y000966D01*
X009675Y000786D01*
X009945Y000786D01*
X010675Y000786D02*
X010945Y000966D01*
X010675Y000966D01*
X010720Y001080D02*
X010675Y001125D01*
X010675Y001215D01*
X010720Y001261D01*
X010900Y001261D02*
X010945Y001215D01*
X010945Y001125D01*
X010900Y001080D01*
X010720Y001080D01*
X010675Y000786D02*
X010945Y000786D01*
X011675Y000786D02*
X011945Y000966D01*
X011675Y000966D01*
X011720Y001080D02*
X011900Y001080D01*
X011945Y001125D01*
X011945Y001215D01*
X011900Y001261D01*
X011720Y001261D02*
X011675Y001215D01*
X011675Y001125D01*
X011720Y001080D01*
X011675Y000786D02*
X011945Y000786D01*
X012675Y000786D02*
X012945Y000966D01*
X012675Y000966D01*
X012720Y001080D02*
X012900Y001080D01*
X012945Y001125D01*
X012945Y001215D01*
X012900Y001261D01*
X012720Y001261D02*
X012675Y001215D01*
X012675Y001125D01*
X012720Y001080D01*
X012675Y000786D02*
X012945Y000786D01*
X013675Y000736D02*
X013855Y000736D01*
X013945Y000826D01*
X013855Y000916D01*
X013675Y000916D01*
X013720Y001030D02*
X013675Y001075D01*
X013675Y001165D01*
X013720Y001211D01*
X013765Y001211D01*
X013810Y001165D01*
X013855Y001211D01*
X013900Y001211D01*
X013945Y001165D01*
X013945Y001075D01*
X013900Y001030D01*
X013810Y001120D02*
X013810Y001165D01*
X014675Y001165D02*
X014675Y001030D01*
X014945Y001030D01*
X014945Y001165D01*
X014900Y001211D01*
X014720Y001211D01*
X014675Y001165D01*
X014675Y000916D02*
X014945Y000916D01*
X014675Y000736D01*
X014945Y000736D01*
X014900Y000621D02*
X014810Y000621D01*
X014810Y000531D01*
X014720Y000441D02*
X014900Y000441D01*
X014945Y000486D01*
X014945Y000576D01*
X014900Y000621D01*
X014720Y000621D02*
X014675Y000576D01*
X014675Y000486D01*
X014720Y000441D01*
X013945Y000486D02*
X013900Y000441D01*
X013945Y000486D02*
X013945Y000576D01*
X013900Y000621D01*
X013855Y000621D01*
X013810Y000576D01*
X013810Y000531D01*
X013810Y000576D02*
X013765Y000621D01*
X013720Y000621D01*
X013675Y000576D01*
X013675Y000486D01*
X013720Y000441D01*
X008945Y000736D02*
X008675Y000736D01*
X008945Y000916D01*
X008675Y000916D01*
X008720Y001030D02*
X008900Y001030D01*
X008945Y001075D01*
X008945Y001165D01*
X008900Y001211D01*
X008720Y001211D02*
X008675Y001165D01*
X008675Y001075D01*
X008720Y001030D01*
X007945Y001075D02*
X007945Y001165D01*
X007900Y001211D01*
X007945Y001075D02*
X007900Y001030D01*
X007720Y001030D01*
X007675Y001075D01*
X007675Y001165D01*
X007720Y001211D01*
X007675Y000916D02*
X007945Y000916D01*
X007675Y000736D01*
X007945Y000736D01*
X006945Y000736D02*
X006675Y000736D01*
X006945Y000916D01*
X006675Y000916D01*
X006720Y001030D02*
X006900Y001030D01*
X006945Y001075D01*
X006945Y001165D01*
X006900Y001211D01*
X006720Y001211D02*
X006675Y001165D01*
X006675Y001075D01*
X006720Y001030D01*
X005945Y001075D02*
X005945Y001165D01*
X005900Y001211D01*
X005945Y001075D02*
X005900Y001030D01*
X005720Y001030D01*
X005675Y001075D01*
X005675Y001165D01*
X005720Y001211D01*
X005675Y000916D02*
X005945Y000916D01*
X005675Y000736D01*
X005945Y000736D01*
X004945Y000736D02*
X004675Y000736D01*
X004945Y000916D01*
X004675Y000916D01*
X004720Y001030D02*
X004900Y001030D01*
X004945Y001075D01*
X004945Y001165D01*
X004900Y001211D01*
X004720Y001211D02*
X004675Y001165D01*
X004675Y001075D01*
X004720Y001030D01*
X003945Y001075D02*
X003945Y001165D01*
X003900Y001211D01*
X003945Y001075D02*
X003900Y001030D01*
X003720Y001030D01*
X003675Y001075D01*
X003675Y001165D01*
X003720Y001211D01*
X003675Y000916D02*
X003945Y000916D01*
X003675Y000736D01*
X003945Y000736D01*
X004705Y002375D02*
X004615Y002465D01*
X008925Y011210D02*
X008880Y011255D01*
D12*
X000825Y010750D02*
X000790Y010785D01*
X000755Y010785D01*
X000720Y010750D01*
X000720Y010680D01*
X000685Y010645D01*
X000650Y010645D01*
X000615Y010680D01*
X000615Y010750D01*
X000650Y010785D01*
X000825Y010750D02*
X000825Y010680D01*
X000790Y010645D01*
X000825Y010564D02*
X000650Y010564D01*
X000615Y010529D01*
X000615Y010459D01*
X000650Y010424D01*
X000825Y010424D01*
X000790Y010343D02*
X000755Y010343D01*
X000720Y010308D01*
X000720Y010238D01*
X000685Y010203D01*
X000650Y010203D01*
X000615Y010238D01*
X000615Y010308D01*
X000650Y010343D01*
X000790Y010343D02*
X000825Y010308D01*
X000825Y010238D01*
X000790Y010203D01*
X000825Y010122D02*
X000825Y010017D01*
X000790Y009982D01*
X000720Y009982D01*
X000685Y010017D01*
X000685Y010122D01*
X000615Y010122D02*
X000825Y010122D01*
X000825Y009901D02*
X000615Y009901D01*
X000615Y009761D01*
X000615Y009680D02*
X000825Y009680D01*
X000615Y009540D01*
X000825Y009540D01*
X000825Y009459D02*
X000825Y009354D01*
X000790Y009319D01*
X000650Y009319D01*
X000615Y009354D01*
X000615Y009459D01*
X000825Y009459D01*
X000825Y009761D02*
X000825Y009901D01*
X000720Y009901D02*
X000720Y009831D01*
X000685Y008985D02*
X000685Y008880D01*
X000720Y008845D01*
X000790Y008845D01*
X000825Y008880D01*
X000825Y008985D01*
X000615Y008985D01*
X000615Y008764D02*
X000685Y008694D01*
X000615Y008624D01*
X000825Y008624D01*
X000825Y008543D02*
X000825Y008438D01*
X000790Y008403D01*
X000720Y008403D01*
X000685Y008438D01*
X000685Y008543D01*
X000615Y008543D02*
X000825Y008543D01*
X000685Y008473D02*
X000615Y008403D01*
X000615Y008764D02*
X000825Y008764D01*
X000825Y003935D02*
X000825Y003795D01*
X000825Y003865D02*
X000615Y003865D01*
X000615Y003714D02*
X000825Y003574D01*
X000825Y003493D02*
X000825Y003388D01*
X000790Y003353D01*
X000650Y003353D01*
X000615Y003388D01*
X000615Y003493D01*
X000825Y003493D01*
X000825Y003714D02*
X000615Y003574D01*
X000615Y002835D02*
X000825Y002835D01*
X000825Y002730D01*
X000790Y002695D01*
X000720Y002695D01*
X000685Y002730D01*
X000685Y002835D01*
X000685Y002765D02*
X000615Y002695D01*
X000615Y002614D02*
X000825Y002474D01*
X000825Y002393D02*
X000825Y002288D01*
X000790Y002253D01*
X000650Y002253D01*
X000615Y002288D01*
X000615Y002393D01*
X000825Y002393D01*
X000825Y002614D02*
X000615Y002474D01*
D13*
X016880Y003537D02*
X016880Y003650D01*
X016936Y003707D01*
X017050Y003707D01*
X017107Y003650D01*
X016993Y003650D01*
X016993Y003537D01*
X017107Y003537D01*
X017107Y003650D01*
X017163Y003707D02*
X017220Y003650D01*
X017220Y003537D01*
X017163Y003480D01*
X016936Y003480D01*
X016880Y003537D01*
X016880Y003848D02*
X016880Y004018D01*
X016936Y004075D01*
X017050Y004075D01*
X017107Y004018D01*
X017107Y003848D01*
X017220Y003848D02*
X016880Y003848D01*
X016993Y004273D02*
X016993Y004387D01*
X017050Y004443D01*
X017220Y004443D01*
X017220Y004273D01*
X017163Y004217D01*
X017107Y004273D01*
X017107Y004443D01*
X016993Y004585D02*
X016993Y004698D01*
X016936Y004642D02*
X017163Y004642D01*
X017220Y004698D01*
X017163Y004887D02*
X016936Y004887D01*
X016993Y004830D02*
X016993Y004944D01*
X017050Y005076D02*
X016993Y005133D01*
X016993Y005246D01*
X017050Y005303D01*
X017107Y005303D01*
X017107Y005076D01*
X017163Y005076D02*
X017050Y005076D01*
X017163Y005076D02*
X017220Y005133D01*
X017220Y005246D01*
X017220Y005444D02*
X016993Y005444D01*
X017107Y005444D02*
X016993Y005558D01*
X016993Y005614D01*
X016993Y005751D02*
X016993Y005921D01*
X017050Y005978D01*
X017220Y005978D01*
X017220Y006120D02*
X016993Y006120D01*
X016880Y006233D01*
X016993Y006346D01*
X017220Y006346D01*
X017163Y006488D02*
X017050Y006488D01*
X016993Y006545D01*
X016993Y006715D01*
X017277Y006715D01*
X017333Y006658D01*
X017333Y006601D01*
X017220Y006545D02*
X017220Y006715D01*
X017163Y006856D02*
X017050Y006856D01*
X016993Y006913D01*
X016993Y007026D01*
X017050Y007083D01*
X017107Y007083D01*
X017107Y006856D01*
X017163Y006856D02*
X017220Y006913D01*
X017220Y007026D01*
X017220Y007225D02*
X016993Y007225D01*
X016993Y007395D01*
X017050Y007451D01*
X017220Y007451D01*
X017163Y007650D02*
X016936Y007650D01*
X016993Y007706D02*
X016993Y007593D01*
X017163Y007650D02*
X017220Y007706D01*
X017220Y007838D02*
X017220Y008009D01*
X017163Y008065D01*
X017107Y008009D01*
X017107Y007895D01*
X017050Y007838D01*
X016993Y007895D01*
X016993Y008065D01*
X017220Y006545D02*
X017163Y006488D01*
X017050Y006346D02*
X017050Y006120D01*
X016993Y005751D02*
X017220Y005751D01*
X017220Y004944D02*
X017163Y004887D01*
D14*
X009800Y007650D02*
X009802Y007670D01*
X009808Y007688D01*
X009817Y007706D01*
X009829Y007721D01*
X009844Y007733D01*
X009862Y007742D01*
X009880Y007748D01*
X009900Y007750D01*
X009920Y007748D01*
X009938Y007742D01*
X009956Y007733D01*
X009971Y007721D01*
X009983Y007706D01*
X009992Y007688D01*
X009998Y007670D01*
X010000Y007650D01*
X009998Y007630D01*
X009992Y007612D01*
X009983Y007594D01*
X009971Y007579D01*
X009956Y007567D01*
X009938Y007558D01*
X009920Y007552D01*
X009900Y007550D01*
X009880Y007552D01*
X009862Y007558D01*
X009844Y007567D01*
X009829Y007579D01*
X009817Y007594D01*
X009808Y007612D01*
X009802Y007630D01*
X009800Y007650D01*
X002481Y007764D02*
X002481Y006859D01*
X002481Y007764D02*
X001772Y007764D01*
X000828Y007764D02*
X000552Y007764D01*
X002481Y005441D02*
X002481Y004536D01*
X001772Y004536D01*
X000828Y004536D02*
X000552Y004536D01*
D15*
X001483Y003831D02*
X001483Y003650D01*
X001605Y003742D01*
X001483Y003650D02*
X001483Y003469D01*
X001605Y003564D02*
X001489Y003640D01*
X001483Y002831D02*
X001483Y002650D01*
X001605Y002742D01*
X001483Y002650D02*
X001483Y002469D01*
X001605Y002564D02*
X001489Y002640D01*
X005900Y002550D02*
X006400Y002550D01*
X006400Y003150D02*
X005900Y003150D01*
X011000Y003181D02*
X011000Y003519D01*
X011394Y003071D02*
X011606Y003071D01*
X012000Y003181D02*
X012000Y003519D01*
X012300Y003500D02*
X012300Y002850D01*
X012302Y002833D01*
X012306Y002816D01*
X012313Y002800D01*
X012323Y002786D01*
X012336Y002773D01*
X012350Y002763D01*
X012366Y002756D01*
X012383Y002752D01*
X012400Y002750D01*
X013000Y002750D01*
X013017Y002752D01*
X013034Y002756D01*
X013050Y002763D01*
X013064Y002773D01*
X013077Y002786D01*
X013087Y002800D01*
X013094Y002816D01*
X013098Y002833D01*
X013100Y002850D01*
X013100Y003500D01*
X013100Y003750D02*
X013100Y003850D01*
X013098Y003867D01*
X013094Y003884D01*
X013087Y003900D01*
X013077Y003914D01*
X013064Y003927D01*
X013050Y003937D01*
X013034Y003944D01*
X013017Y003948D01*
X013000Y003950D01*
X012400Y003950D01*
X012383Y003948D01*
X012366Y003944D01*
X012350Y003937D01*
X012336Y003927D01*
X012323Y003914D01*
X012313Y003900D01*
X012306Y003884D01*
X012302Y003867D01*
X012300Y003850D01*
X012300Y003750D01*
X013255Y002944D02*
X013255Y002156D01*
X015145Y002156D01*
X015145Y002944D01*
X013255Y002944D01*
X005300Y007950D02*
X005300Y008600D01*
X005300Y008850D02*
X005300Y008950D01*
X005298Y008967D01*
X005294Y008984D01*
X005287Y009000D01*
X005277Y009014D01*
X005264Y009027D01*
X005250Y009037D01*
X005234Y009044D01*
X005217Y009048D01*
X005200Y009050D01*
X004600Y009050D01*
X004583Y009048D01*
X004566Y009044D01*
X004550Y009037D01*
X004536Y009027D01*
X004523Y009014D01*
X004513Y009000D01*
X004506Y008984D01*
X004502Y008967D01*
X004500Y008950D01*
X004500Y008850D01*
X004500Y008600D02*
X004500Y007950D01*
X004502Y007933D01*
X004506Y007916D01*
X004513Y007900D01*
X004523Y007886D01*
X004536Y007873D01*
X004550Y007863D01*
X004566Y007856D01*
X004583Y007852D01*
X004600Y007850D01*
X005200Y007850D01*
X005217Y007852D01*
X005234Y007856D01*
X005250Y007863D01*
X005264Y007873D01*
X005277Y007886D01*
X005287Y007900D01*
X005294Y007916D01*
X005298Y007933D01*
X005300Y007950D01*
X001705Y008564D02*
X001589Y008640D01*
X001583Y008650D02*
X001705Y008742D01*
X001583Y008831D02*
X001583Y008650D01*
X001583Y008469D01*
X001583Y009469D02*
X001583Y009650D01*
X001705Y009742D01*
X001583Y009831D02*
X001583Y009650D01*
X001589Y009640D02*
X001705Y009564D01*
X013255Y009256D02*
X013255Y010044D01*
X015145Y010044D01*
X015145Y009256D01*
X013255Y009256D01*
D16*
X012130Y003750D03*
D17*
X017300Y000150D02*
X001200Y000150D01*
X001150Y000152D01*
X001100Y000157D01*
X001051Y000166D01*
X001003Y000178D01*
X000955Y000194D01*
X000909Y000213D01*
X000865Y000236D01*
X000822Y000261D01*
X000781Y000290D01*
X000742Y000321D01*
X000705Y000355D01*
X000671Y000392D01*
X000640Y000431D01*
X000611Y000472D01*
X000586Y000515D01*
X000563Y000559D01*
X000544Y000605D01*
X000528Y000653D01*
X000516Y000701D01*
X000507Y000750D01*
X000502Y000800D01*
X000500Y000850D01*
X000500Y011450D01*
X000502Y011500D01*
X000507Y011550D01*
X000516Y011599D01*
X000528Y011647D01*
X000544Y011695D01*
X000563Y011741D01*
X000586Y011785D01*
X000611Y011828D01*
X000640Y011869D01*
X000671Y011908D01*
X000705Y011945D01*
X000742Y011979D01*
X000781Y012010D01*
X000822Y012039D01*
X000865Y012064D01*
X000909Y012087D01*
X000955Y012106D01*
X001003Y012122D01*
X001051Y012134D01*
X001100Y012143D01*
X001150Y012148D01*
X001200Y012150D01*
X017300Y012150D01*
X017350Y012148D01*
X017400Y012143D01*
X017449Y012134D01*
X017497Y012122D01*
X017545Y012106D01*
X017591Y012087D01*
X017635Y012064D01*
X017678Y012039D01*
X017719Y012010D01*
X017758Y011979D01*
X017795Y011945D01*
X017829Y011908D01*
X017860Y011869D01*
X017889Y011828D01*
X017914Y011785D01*
X017937Y011741D01*
X017956Y011695D01*
X017972Y011647D01*
X017984Y011599D01*
X017993Y011550D01*
X017998Y011500D01*
X018000Y011450D01*
X018000Y010511D01*
X018002Y010473D01*
X018008Y010436D01*
X018018Y010399D01*
X018031Y010364D01*
X018048Y010331D01*
X018069Y010299D01*
X018093Y010269D01*
X018119Y010243D01*
X018149Y010219D01*
X018181Y010198D01*
X018214Y010181D01*
X018249Y010168D01*
X018286Y010158D01*
X018323Y010152D01*
X018361Y010150D01*
X020139Y010150D01*
X020177Y010148D01*
X020214Y010142D01*
X020251Y010132D01*
X020286Y010119D01*
X020320Y010102D01*
X020351Y010081D01*
X020381Y010057D01*
X020407Y010031D01*
X020431Y010001D01*
X020452Y009970D01*
X020469Y009936D01*
X020482Y009901D01*
X020492Y009864D01*
X020498Y009827D01*
X020500Y009789D01*
X020500Y002511D01*
X020498Y002473D01*
X020492Y002436D01*
X020482Y002399D01*
X020469Y002364D01*
X020452Y002330D01*
X020431Y002299D01*
X020407Y002269D01*
X020381Y002243D01*
X020351Y002219D01*
X020320Y002198D01*
X020286Y002181D01*
X020251Y002168D01*
X020214Y002158D01*
X020177Y002152D01*
X020139Y002150D01*
X018361Y002150D01*
X018323Y002148D01*
X018286Y002142D01*
X018249Y002132D01*
X018214Y002119D01*
X018181Y002102D01*
X018149Y002081D01*
X018119Y002057D01*
X018093Y002031D01*
X018069Y002001D01*
X018048Y001969D01*
X018031Y001936D01*
X018018Y001901D01*
X018008Y001864D01*
X018002Y001827D01*
X018000Y001789D01*
X018000Y000850D01*
X017998Y000800D01*
X017993Y000750D01*
X017984Y000701D01*
X017972Y000653D01*
X017956Y000605D01*
X017937Y000559D01*
X017914Y000515D01*
X017889Y000472D01*
X017860Y000431D01*
X017829Y000392D01*
X017795Y000355D01*
X017758Y000321D01*
X017719Y000290D01*
X017678Y000261D01*
X017635Y000236D01*
X017591Y000213D01*
X017545Y000194D01*
X017497Y000178D01*
X017449Y000166D01*
X017400Y000157D01*
X017350Y000152D01*
X017300Y000150D01*
X016856Y000900D02*
X016858Y000939D01*
X016864Y000978D01*
X016874Y001016D01*
X016887Y001053D01*
X016904Y001088D01*
X016924Y001122D01*
X016948Y001153D01*
X016975Y001182D01*
X017004Y001208D01*
X017036Y001231D01*
X017070Y001251D01*
X017106Y001267D01*
X017143Y001279D01*
X017182Y001288D01*
X017221Y001293D01*
X017260Y001294D01*
X017299Y001291D01*
X017338Y001284D01*
X017375Y001273D01*
X017412Y001259D01*
X017447Y001241D01*
X017480Y001220D01*
X017511Y001195D01*
X017539Y001168D01*
X017564Y001138D01*
X017586Y001105D01*
X017605Y001071D01*
X017620Y001035D01*
X017632Y000997D01*
X017640Y000959D01*
X017644Y000920D01*
X017644Y000880D01*
X017640Y000841D01*
X017632Y000803D01*
X017620Y000765D01*
X017605Y000729D01*
X017586Y000695D01*
X017564Y000662D01*
X017539Y000632D01*
X017511Y000605D01*
X017480Y000580D01*
X017447Y000559D01*
X017412Y000541D01*
X017375Y000527D01*
X017338Y000516D01*
X017299Y000509D01*
X017260Y000506D01*
X017221Y000507D01*
X017182Y000512D01*
X017143Y000521D01*
X017106Y000533D01*
X017070Y000549D01*
X017036Y000569D01*
X017004Y000592D01*
X016975Y000618D01*
X016948Y000647D01*
X016924Y000678D01*
X016904Y000712D01*
X016887Y000747D01*
X016874Y000784D01*
X016864Y000822D01*
X016858Y000861D01*
X016856Y000900D01*
X000856Y000900D02*
X000858Y000939D01*
X000864Y000978D01*
X000874Y001016D01*
X000887Y001053D01*
X000904Y001088D01*
X000924Y001122D01*
X000948Y001153D01*
X000975Y001182D01*
X001004Y001208D01*
X001036Y001231D01*
X001070Y001251D01*
X001106Y001267D01*
X001143Y001279D01*
X001182Y001288D01*
X001221Y001293D01*
X001260Y001294D01*
X001299Y001291D01*
X001338Y001284D01*
X001375Y001273D01*
X001412Y001259D01*
X001447Y001241D01*
X001480Y001220D01*
X001511Y001195D01*
X001539Y001168D01*
X001564Y001138D01*
X001586Y001105D01*
X001605Y001071D01*
X001620Y001035D01*
X001632Y000997D01*
X001640Y000959D01*
X001644Y000920D01*
X001644Y000880D01*
X001640Y000841D01*
X001632Y000803D01*
X001620Y000765D01*
X001605Y000729D01*
X001586Y000695D01*
X001564Y000662D01*
X001539Y000632D01*
X001511Y000605D01*
X001480Y000580D01*
X001447Y000559D01*
X001412Y000541D01*
X001375Y000527D01*
X001338Y000516D01*
X001299Y000509D01*
X001260Y000506D01*
X001221Y000507D01*
X001182Y000512D01*
X001143Y000521D01*
X001106Y000533D01*
X001070Y000549D01*
X001036Y000569D01*
X001004Y000592D01*
X000975Y000618D01*
X000948Y000647D01*
X000924Y000678D01*
X000904Y000712D01*
X000887Y000747D01*
X000874Y000784D01*
X000864Y000822D01*
X000858Y000861D01*
X000856Y000900D01*
X000856Y011400D02*
X000858Y011439D01*
X000864Y011478D01*
X000874Y011516D01*
X000887Y011553D01*
X000904Y011588D01*
X000924Y011622D01*
X000948Y011653D01*
X000975Y011682D01*
X001004Y011708D01*
X001036Y011731D01*
X001070Y011751D01*
X001106Y011767D01*
X001143Y011779D01*
X001182Y011788D01*
X001221Y011793D01*
X001260Y011794D01*
X001299Y011791D01*
X001338Y011784D01*
X001375Y011773D01*
X001412Y011759D01*
X001447Y011741D01*
X001480Y011720D01*
X001511Y011695D01*
X001539Y011668D01*
X001564Y011638D01*
X001586Y011605D01*
X001605Y011571D01*
X001620Y011535D01*
X001632Y011497D01*
X001640Y011459D01*
X001644Y011420D01*
X001644Y011380D01*
X001640Y011341D01*
X001632Y011303D01*
X001620Y011265D01*
X001605Y011229D01*
X001586Y011195D01*
X001564Y011162D01*
X001539Y011132D01*
X001511Y011105D01*
X001480Y011080D01*
X001447Y011059D01*
X001412Y011041D01*
X001375Y011027D01*
X001338Y011016D01*
X001299Y011009D01*
X001260Y011006D01*
X001221Y011007D01*
X001182Y011012D01*
X001143Y011021D01*
X001106Y011033D01*
X001070Y011049D01*
X001036Y011069D01*
X001004Y011092D01*
X000975Y011118D01*
X000948Y011147D01*
X000924Y011178D01*
X000904Y011212D01*
X000887Y011247D01*
X000874Y011284D01*
X000864Y011322D01*
X000858Y011361D01*
X000856Y011400D01*
X016856Y011400D02*
X016858Y011439D01*
X016864Y011478D01*
X016874Y011516D01*
X016887Y011553D01*
X016904Y011588D01*
X016924Y011622D01*
X016948Y011653D01*
X016975Y011682D01*
X017004Y011708D01*
X017036Y011731D01*
X017070Y011751D01*
X017106Y011767D01*
X017143Y011779D01*
X017182Y011788D01*
X017221Y011793D01*
X017260Y011794D01*
X017299Y011791D01*
X017338Y011784D01*
X017375Y011773D01*
X017412Y011759D01*
X017447Y011741D01*
X017480Y011720D01*
X017511Y011695D01*
X017539Y011668D01*
X017564Y011638D01*
X017586Y011605D01*
X017605Y011571D01*
X017620Y011535D01*
X017632Y011497D01*
X017640Y011459D01*
X017644Y011420D01*
X017644Y011380D01*
X017640Y011341D01*
X017632Y011303D01*
X017620Y011265D01*
X017605Y011229D01*
X017586Y011195D01*
X017564Y011162D01*
X017539Y011132D01*
X017511Y011105D01*
X017480Y011080D01*
X017447Y011059D01*
X017412Y011041D01*
X017375Y011027D01*
X017338Y011016D01*
X017299Y011009D01*
X017260Y011006D01*
X017221Y011007D01*
X017182Y011012D01*
X017143Y011021D01*
X017106Y011033D01*
X017070Y011049D01*
X017036Y011069D01*
X017004Y011092D01*
X016975Y011118D01*
X016948Y011147D01*
X016924Y011178D01*
X016904Y011212D01*
X016887Y011247D01*
X016874Y011284D01*
X016864Y011322D01*
X016858Y011361D01*
X016856Y011400D01*
D18*
X015618Y011073D03*
X015618Y010883D03*
X015603Y010800D03*
X015480Y010923D03*
X015540Y010548D03*
X015688Y010585D03*
X015625Y010333D03*
X015688Y010270D03*
X015750Y010208D03*
X015618Y001923D03*
X015480Y001773D03*
X015618Y001733D03*
X015603Y001650D03*
X015688Y001435D03*
X015540Y001398D03*
X015625Y001183D03*
X015688Y001120D03*
X015750Y001058D03*
D19*
X015750Y001060D03*
X015688Y001123D03*
X015625Y001185D03*
X015540Y001400D03*
X015688Y001433D03*
X015603Y001648D03*
X015618Y001735D03*
X015480Y001770D03*
X015618Y001920D03*
X015995Y001705D03*
X016278Y001630D03*
X016468Y001528D03*
X015750Y010210D03*
X015688Y010273D03*
X015625Y010335D03*
X015540Y010550D03*
X015688Y010583D03*
X015603Y010798D03*
X015618Y010885D03*
X015480Y010920D03*
X015618Y011070D03*
X015995Y010855D03*
X016278Y010780D03*
X016468Y010678D03*
D20*
X016465Y010673D03*
X016463Y010668D03*
X016338Y010780D03*
X016055Y010780D03*
X015880Y010803D03*
X015880Y010805D03*
X015700Y010665D03*
X015688Y010580D03*
X015540Y010553D03*
X015530Y010465D03*
X015530Y010390D03*
X015625Y010338D03*
X015688Y010275D03*
X015750Y010213D03*
X015603Y010795D03*
X015618Y010888D03*
X015480Y010918D03*
X015520Y011015D03*
X015618Y011068D03*
X017103Y010785D03*
X017103Y010783D03*
X017103Y010780D03*
X017103Y010778D03*
X017103Y010688D03*
X017103Y010685D03*
X017103Y010683D03*
X017103Y010680D03*
X017103Y010678D03*
X015618Y001918D03*
X015520Y001865D03*
X015480Y001768D03*
X015618Y001738D03*
X015603Y001645D03*
X015700Y001515D03*
X015688Y001430D03*
X015540Y001403D03*
X015530Y001315D03*
X015530Y001240D03*
X015625Y001188D03*
X015688Y001125D03*
X015750Y001063D03*
X016463Y001518D03*
X016465Y001523D03*
X016338Y001630D03*
X016055Y001630D03*
X015880Y001653D03*
X015880Y001655D03*
X017103Y001635D03*
X017103Y001633D03*
X017103Y001630D03*
X017103Y001628D03*
X017103Y001538D03*
X017103Y001535D03*
X017103Y001533D03*
X017103Y001530D03*
X017103Y001528D03*
D21*
X017100Y001513D03*
X017100Y001510D03*
X017100Y001508D03*
X017100Y001505D03*
X017100Y001503D03*
X017100Y001653D03*
X017100Y001655D03*
X017100Y001658D03*
X017100Y001660D03*
X016715Y001658D03*
X016715Y001655D03*
X016715Y001653D03*
X016715Y001650D03*
X016715Y001648D03*
X016715Y001645D03*
X016608Y001523D03*
X016608Y001520D03*
X016608Y001518D03*
X016608Y001515D03*
X016608Y001513D03*
X016608Y001510D03*
X016608Y001508D03*
X016608Y001505D03*
X016463Y001513D03*
X016178Y001625D03*
X015878Y001643D03*
X015878Y001645D03*
X015890Y001475D03*
X015688Y001428D03*
X015625Y001365D03*
X015540Y001405D03*
X015603Y001468D03*
X015603Y001643D03*
X015618Y001740D03*
X015480Y001765D03*
X015618Y001915D03*
X015625Y001190D03*
X015688Y001128D03*
X015750Y001065D03*
X015750Y010215D03*
X015688Y010278D03*
X015625Y010340D03*
X015625Y010515D03*
X015688Y010578D03*
X015603Y010618D03*
X015540Y010555D03*
X015603Y010793D03*
X015618Y010890D03*
X015480Y010915D03*
X015618Y011065D03*
X015878Y010795D03*
X015878Y010793D03*
X016178Y010775D03*
X016463Y010663D03*
X016608Y010663D03*
X016608Y010665D03*
X016608Y010668D03*
X016608Y010670D03*
X016608Y010673D03*
X016608Y010660D03*
X016608Y010658D03*
X016608Y010655D03*
X016715Y010795D03*
X016715Y010798D03*
X016715Y010800D03*
X016715Y010803D03*
X016715Y010805D03*
X016715Y010808D03*
X017100Y010808D03*
X017100Y010810D03*
X017100Y010805D03*
X017100Y010803D03*
X017100Y010663D03*
X017100Y010660D03*
X017100Y010658D03*
X017100Y010655D03*
X017100Y010653D03*
X015890Y010625D03*
D22*
X015688Y010575D03*
X015625Y010513D03*
X015540Y010558D03*
X015603Y010620D03*
X015530Y010463D03*
X015530Y010393D03*
X015625Y010343D03*
X015688Y010280D03*
X015750Y010218D03*
X016448Y010628D03*
X016450Y010630D03*
X016535Y010585D03*
X016840Y010625D03*
X017098Y010648D03*
X016843Y010780D03*
X016713Y010813D03*
X016270Y010775D03*
X015988Y010850D03*
X015875Y010785D03*
X015875Y010783D03*
X015480Y010913D03*
X015480Y001763D03*
X015603Y001470D03*
X015540Y001408D03*
X015530Y001313D03*
X015530Y001243D03*
X015625Y001193D03*
X015688Y001130D03*
X015750Y001068D03*
X015625Y001363D03*
X015688Y001425D03*
X015875Y001633D03*
X015875Y001635D03*
X015988Y001700D03*
X016270Y001625D03*
X016448Y001478D03*
X016450Y001480D03*
X016535Y001435D03*
X016840Y001475D03*
X016843Y001630D03*
X016713Y001663D03*
X017098Y001498D03*
D23*
X017053Y001475D03*
X016798Y001600D03*
X016708Y001510D03*
X016653Y001475D03*
X016545Y001460D03*
X016545Y001458D03*
X016545Y001455D03*
X016465Y001508D03*
X016440Y001468D03*
X016440Y001465D03*
X016438Y001460D03*
X016438Y001458D03*
X016438Y001455D03*
X016438Y001453D03*
X016438Y001450D03*
X016360Y001495D03*
X016360Y001498D03*
X016360Y001500D03*
X016360Y001503D03*
X016360Y001505D03*
X016360Y001508D03*
X016360Y001510D03*
X016360Y001513D03*
X016360Y001515D03*
X016360Y001518D03*
X016360Y001520D03*
X016360Y001523D03*
X016360Y001525D03*
X016360Y001528D03*
X016360Y001530D03*
X016360Y001533D03*
X016360Y001535D03*
X016360Y001538D03*
X016360Y001540D03*
X016360Y001543D03*
X016360Y001545D03*
X016360Y001548D03*
X016360Y001550D03*
X016360Y001553D03*
X016360Y001555D03*
X016360Y001558D03*
X016360Y001560D03*
X016360Y001563D03*
X016360Y001565D03*
X016360Y001568D03*
X016360Y001570D03*
X016360Y001573D03*
X016360Y001575D03*
X016360Y001578D03*
X016360Y001580D03*
X016360Y001583D03*
X016338Y001628D03*
X016268Y001598D03*
X016268Y001595D03*
X016268Y001593D03*
X016268Y001590D03*
X016268Y001588D03*
X016268Y001585D03*
X016268Y001583D03*
X016268Y001580D03*
X016268Y001578D03*
X016268Y001575D03*
X016268Y001573D03*
X016268Y001570D03*
X016268Y001568D03*
X016268Y001565D03*
X016268Y001563D03*
X016268Y001560D03*
X016268Y001558D03*
X016268Y001555D03*
X016268Y001553D03*
X016268Y001550D03*
X016268Y001548D03*
X016268Y001545D03*
X016268Y001543D03*
X016268Y001540D03*
X016268Y001538D03*
X016268Y001535D03*
X016268Y001533D03*
X016268Y001530D03*
X016268Y001528D03*
X016268Y001525D03*
X016268Y001523D03*
X016268Y001520D03*
X016268Y001518D03*
X016268Y001515D03*
X016268Y001513D03*
X016268Y001510D03*
X016268Y001508D03*
X016268Y001505D03*
X016268Y001503D03*
X016268Y001500D03*
X016268Y001498D03*
X016268Y001495D03*
X016173Y001495D03*
X016173Y001498D03*
X016173Y001500D03*
X016173Y001503D03*
X016173Y001505D03*
X016173Y001508D03*
X016173Y001510D03*
X016173Y001513D03*
X016173Y001515D03*
X016173Y001518D03*
X016173Y001520D03*
X016173Y001523D03*
X016173Y001525D03*
X016173Y001528D03*
X016173Y001530D03*
X016173Y001533D03*
X016173Y001535D03*
X016173Y001538D03*
X016173Y001540D03*
X016173Y001543D03*
X016173Y001545D03*
X016173Y001548D03*
X016173Y001550D03*
X016173Y001553D03*
X016173Y001555D03*
X016173Y001558D03*
X016173Y001560D03*
X016173Y001563D03*
X016173Y001565D03*
X016173Y001568D03*
X016173Y001570D03*
X016173Y001573D03*
X016173Y001575D03*
X016173Y001578D03*
X016173Y001580D03*
X016173Y001583D03*
X016173Y001585D03*
X016173Y001588D03*
X016173Y001590D03*
X016173Y001593D03*
X016173Y001595D03*
X016173Y001598D03*
X016173Y001600D03*
X016173Y001603D03*
X016078Y001583D03*
X016078Y001580D03*
X016078Y001578D03*
X016078Y001575D03*
X016078Y001573D03*
X016078Y001570D03*
X016078Y001568D03*
X016078Y001565D03*
X016078Y001563D03*
X016078Y001560D03*
X016078Y001558D03*
X016078Y001555D03*
X016078Y001553D03*
X016078Y001550D03*
X016078Y001548D03*
X016078Y001545D03*
X016078Y001543D03*
X016078Y001540D03*
X016078Y001538D03*
X016078Y001535D03*
X016078Y001533D03*
X016078Y001530D03*
X016078Y001528D03*
X016078Y001525D03*
X016078Y001523D03*
X016078Y001520D03*
X016078Y001518D03*
X016078Y001515D03*
X016078Y001513D03*
X016078Y001510D03*
X016078Y001508D03*
X016078Y001505D03*
X016078Y001503D03*
X016078Y001500D03*
X016078Y001498D03*
X016078Y001495D03*
X015985Y001495D03*
X015985Y001498D03*
X015985Y001500D03*
X015985Y001503D03*
X015985Y001505D03*
X015985Y001508D03*
X015985Y001510D03*
X015985Y001513D03*
X015985Y001515D03*
X015985Y001518D03*
X015985Y001520D03*
X015985Y001523D03*
X015985Y001525D03*
X015985Y001528D03*
X015985Y001530D03*
X015985Y001533D03*
X015985Y001535D03*
X015985Y001538D03*
X015985Y001540D03*
X015985Y001543D03*
X015985Y001545D03*
X015985Y001548D03*
X015985Y001550D03*
X015985Y001553D03*
X015985Y001555D03*
X015985Y001558D03*
X015985Y001560D03*
X015985Y001563D03*
X015985Y001565D03*
X015985Y001568D03*
X015985Y001570D03*
X015985Y001573D03*
X015985Y001575D03*
X015985Y001578D03*
X015985Y001580D03*
X015985Y001583D03*
X015985Y001585D03*
X015985Y001588D03*
X015985Y001590D03*
X015985Y001593D03*
X015985Y001595D03*
X015985Y001598D03*
X015985Y001615D03*
X015985Y001618D03*
X015985Y001620D03*
X015985Y001623D03*
X015985Y001625D03*
X015985Y001628D03*
X015985Y001630D03*
X015985Y001633D03*
X015985Y001635D03*
X015985Y001638D03*
X015985Y001640D03*
X015985Y001643D03*
X015985Y001645D03*
X015985Y001648D03*
X015985Y001650D03*
X015985Y001653D03*
X015985Y001655D03*
X015985Y001658D03*
X015985Y001660D03*
X015985Y001663D03*
X015985Y001665D03*
X015985Y001668D03*
X015985Y001670D03*
X015985Y001673D03*
X015985Y001675D03*
X015985Y001678D03*
X016055Y001628D03*
X015873Y001603D03*
X015873Y001600D03*
X015873Y001598D03*
X015873Y001595D03*
X015873Y001593D03*
X015873Y001590D03*
X015873Y001588D03*
X015873Y001585D03*
X015873Y001583D03*
X015873Y001580D03*
X015873Y001578D03*
X015873Y001575D03*
X015873Y001573D03*
X015873Y001570D03*
X015873Y001568D03*
X015873Y001565D03*
X015873Y001563D03*
X015873Y001560D03*
X015873Y001558D03*
X015873Y001555D03*
X015873Y001553D03*
X015873Y001550D03*
X015873Y001548D03*
X015873Y001545D03*
X015873Y001543D03*
X015873Y001540D03*
X015873Y001538D03*
X015873Y001535D03*
X015873Y001533D03*
X015873Y001530D03*
X015873Y001528D03*
X015873Y001525D03*
X015873Y001523D03*
X015873Y001520D03*
X015873Y001518D03*
X015873Y001515D03*
X015873Y001513D03*
X015603Y001473D03*
X015480Y001760D03*
X016445Y001593D03*
X016445Y001590D03*
X016448Y001598D03*
X016448Y001600D03*
X016450Y001605D03*
X016453Y001608D03*
X016525Y001603D03*
X016528Y001598D03*
X016528Y001595D03*
X016530Y001590D03*
X016530Y001588D03*
X016530Y001585D03*
X016530Y001583D03*
X016530Y001580D03*
X016530Y001578D03*
X016530Y001575D03*
X016530Y001573D03*
X016530Y001570D03*
X016528Y001568D03*
X016528Y001565D03*
X016528Y001563D03*
X016525Y001558D03*
X016523Y001553D03*
X016520Y001550D03*
X016518Y001548D03*
X016620Y001640D03*
X016620Y001643D03*
X016620Y001645D03*
X016623Y001650D03*
X016623Y001653D03*
X016625Y001655D03*
X017053Y001688D03*
X015750Y001070D03*
X015750Y010220D03*
X015603Y010623D03*
X015873Y010663D03*
X015873Y010665D03*
X015873Y010668D03*
X015873Y010670D03*
X015873Y010673D03*
X015873Y010675D03*
X015873Y010678D03*
X015873Y010680D03*
X015873Y010683D03*
X015873Y010685D03*
X015873Y010688D03*
X015873Y010690D03*
X015873Y010693D03*
X015873Y010695D03*
X015873Y010698D03*
X015873Y010700D03*
X015873Y010703D03*
X015873Y010705D03*
X015873Y010708D03*
X015873Y010710D03*
X015873Y010713D03*
X015873Y010715D03*
X015873Y010718D03*
X015873Y010720D03*
X015873Y010723D03*
X015873Y010725D03*
X015873Y010728D03*
X015873Y010730D03*
X015873Y010733D03*
X015873Y010735D03*
X015873Y010738D03*
X015873Y010740D03*
X015873Y010743D03*
X015873Y010745D03*
X015873Y010748D03*
X015873Y010750D03*
X015873Y010753D03*
X015985Y010748D03*
X015985Y010745D03*
X015985Y010743D03*
X015985Y010740D03*
X015985Y010738D03*
X015985Y010735D03*
X015985Y010733D03*
X015985Y010730D03*
X015985Y010728D03*
X015985Y010725D03*
X015985Y010723D03*
X015985Y010720D03*
X015985Y010718D03*
X015985Y010715D03*
X015985Y010713D03*
X015985Y010710D03*
X015985Y010708D03*
X015985Y010705D03*
X015985Y010703D03*
X015985Y010700D03*
X015985Y010698D03*
X015985Y010695D03*
X015985Y010693D03*
X015985Y010690D03*
X015985Y010688D03*
X015985Y010685D03*
X015985Y010683D03*
X015985Y010680D03*
X015985Y010678D03*
X015985Y010675D03*
X015985Y010673D03*
X015985Y010670D03*
X015985Y010668D03*
X015985Y010665D03*
X015985Y010663D03*
X015985Y010660D03*
X015985Y010658D03*
X015985Y010655D03*
X015985Y010653D03*
X015985Y010650D03*
X015985Y010648D03*
X015985Y010645D03*
X016078Y010645D03*
X016078Y010648D03*
X016078Y010650D03*
X016078Y010653D03*
X016078Y010655D03*
X016078Y010658D03*
X016078Y010660D03*
X016078Y010663D03*
X016078Y010665D03*
X016078Y010668D03*
X016078Y010670D03*
X016078Y010673D03*
X016078Y010675D03*
X016078Y010678D03*
X016078Y010680D03*
X016078Y010683D03*
X016078Y010685D03*
X016078Y010688D03*
X016078Y010690D03*
X016078Y010693D03*
X016078Y010695D03*
X016078Y010698D03*
X016078Y010700D03*
X016078Y010703D03*
X016078Y010705D03*
X016078Y010708D03*
X016078Y010710D03*
X016078Y010713D03*
X016078Y010715D03*
X016078Y010718D03*
X016078Y010720D03*
X016078Y010723D03*
X016078Y010725D03*
X016078Y010728D03*
X016078Y010730D03*
X016078Y010733D03*
X016055Y010778D03*
X015985Y010778D03*
X015985Y010780D03*
X015985Y010783D03*
X015985Y010785D03*
X015985Y010788D03*
X015985Y010790D03*
X015985Y010793D03*
X015985Y010795D03*
X015985Y010798D03*
X015985Y010800D03*
X015985Y010803D03*
X015985Y010805D03*
X015985Y010808D03*
X015985Y010810D03*
X015985Y010813D03*
X015985Y010815D03*
X015985Y010818D03*
X015985Y010820D03*
X015985Y010823D03*
X015985Y010825D03*
X015985Y010828D03*
X015985Y010775D03*
X015985Y010773D03*
X015985Y010770D03*
X015985Y010768D03*
X015985Y010765D03*
X016173Y010753D03*
X016173Y010750D03*
X016173Y010748D03*
X016173Y010745D03*
X016173Y010743D03*
X016173Y010740D03*
X016173Y010738D03*
X016173Y010735D03*
X016173Y010733D03*
X016173Y010730D03*
X016173Y010728D03*
X016173Y010725D03*
X016173Y010723D03*
X016173Y010720D03*
X016173Y010718D03*
X016173Y010715D03*
X016173Y010713D03*
X016173Y010710D03*
X016173Y010708D03*
X016173Y010705D03*
X016173Y010703D03*
X016173Y010700D03*
X016173Y010698D03*
X016173Y010695D03*
X016173Y010693D03*
X016173Y010690D03*
X016173Y010688D03*
X016173Y010685D03*
X016173Y010683D03*
X016173Y010680D03*
X016173Y010678D03*
X016173Y010675D03*
X016173Y010673D03*
X016173Y010670D03*
X016173Y010668D03*
X016173Y010665D03*
X016173Y010663D03*
X016173Y010660D03*
X016173Y010658D03*
X016173Y010655D03*
X016173Y010653D03*
X016173Y010650D03*
X016173Y010648D03*
X016173Y010645D03*
X016268Y010645D03*
X016268Y010648D03*
X016268Y010650D03*
X016268Y010653D03*
X016268Y010655D03*
X016268Y010658D03*
X016268Y010660D03*
X016268Y010663D03*
X016268Y010665D03*
X016268Y010668D03*
X016268Y010670D03*
X016268Y010673D03*
X016268Y010675D03*
X016268Y010678D03*
X016268Y010680D03*
X016268Y010683D03*
X016268Y010685D03*
X016268Y010688D03*
X016268Y010690D03*
X016268Y010693D03*
X016268Y010695D03*
X016268Y010698D03*
X016268Y010700D03*
X016268Y010703D03*
X016268Y010705D03*
X016268Y010708D03*
X016268Y010710D03*
X016268Y010713D03*
X016268Y010715D03*
X016268Y010718D03*
X016268Y010720D03*
X016268Y010723D03*
X016268Y010725D03*
X016268Y010728D03*
X016268Y010730D03*
X016268Y010733D03*
X016268Y010735D03*
X016268Y010738D03*
X016268Y010740D03*
X016268Y010743D03*
X016268Y010745D03*
X016268Y010748D03*
X016338Y010778D03*
X016360Y010733D03*
X016360Y010730D03*
X016360Y010728D03*
X016360Y010725D03*
X016360Y010723D03*
X016360Y010720D03*
X016360Y010718D03*
X016360Y010715D03*
X016360Y010713D03*
X016360Y010710D03*
X016360Y010708D03*
X016360Y010705D03*
X016360Y010703D03*
X016360Y010700D03*
X016360Y010698D03*
X016360Y010695D03*
X016360Y010693D03*
X016360Y010690D03*
X016360Y010688D03*
X016360Y010685D03*
X016360Y010683D03*
X016360Y010680D03*
X016360Y010678D03*
X016360Y010675D03*
X016360Y010673D03*
X016360Y010670D03*
X016360Y010668D03*
X016360Y010665D03*
X016360Y010663D03*
X016360Y010660D03*
X016360Y010658D03*
X016360Y010655D03*
X016360Y010653D03*
X016360Y010650D03*
X016360Y010648D03*
X016360Y010645D03*
X016440Y010618D03*
X016440Y010615D03*
X016438Y010610D03*
X016438Y010608D03*
X016438Y010605D03*
X016438Y010603D03*
X016438Y010600D03*
X016465Y010658D03*
X016518Y010698D03*
X016520Y010700D03*
X016523Y010703D03*
X016525Y010708D03*
X016528Y010713D03*
X016528Y010715D03*
X016528Y010718D03*
X016530Y010720D03*
X016530Y010723D03*
X016530Y010725D03*
X016530Y010728D03*
X016530Y010730D03*
X016530Y010733D03*
X016530Y010735D03*
X016530Y010738D03*
X016530Y010740D03*
X016528Y010745D03*
X016528Y010748D03*
X016525Y010753D03*
X016453Y010758D03*
X016450Y010755D03*
X016448Y010750D03*
X016448Y010748D03*
X016445Y010743D03*
X016445Y010740D03*
X016545Y010610D03*
X016545Y010608D03*
X016545Y010605D03*
X016653Y010625D03*
X016708Y010660D03*
X016798Y010750D03*
X016625Y010805D03*
X016623Y010803D03*
X016623Y010800D03*
X016620Y010795D03*
X016620Y010793D03*
X016620Y010790D03*
X017053Y010838D03*
X017053Y010625D03*
X015480Y010910D03*
D24*
X015480Y010908D03*
X015543Y010845D03*
X015678Y010838D03*
X015700Y010670D03*
X015603Y010625D03*
X015530Y010460D03*
X015530Y010395D03*
X015750Y010223D03*
X016443Y010588D03*
X016360Y010643D03*
X016268Y010643D03*
X016173Y010643D03*
X016078Y010643D03*
X015985Y010643D03*
X015988Y010750D03*
X016073Y010748D03*
X016075Y010743D03*
X016170Y010770D03*
X016270Y010750D03*
X016355Y010748D03*
X016358Y010745D03*
X016358Y010743D03*
X016445Y010718D03*
X016455Y010698D03*
X016460Y010765D03*
X016620Y010775D03*
X016620Y010778D03*
X016635Y010815D03*
X016708Y010818D03*
X016790Y010735D03*
X016788Y010728D03*
X016788Y010725D03*
X016788Y010723D03*
X016785Y010718D03*
X016785Y010715D03*
X016785Y010713D03*
X016785Y010710D03*
X016785Y010708D03*
X016785Y010705D03*
X016785Y010703D03*
X016785Y010700D03*
X016785Y010698D03*
X016785Y010695D03*
X016785Y010693D03*
X016785Y010690D03*
X016785Y010688D03*
X016788Y010683D03*
X016788Y010680D03*
X016788Y010678D03*
X016790Y010670D03*
X016793Y010663D03*
X016805Y010645D03*
X016893Y010670D03*
X016895Y010678D03*
X016895Y010680D03*
X016895Y010683D03*
X016898Y010688D03*
X016898Y010690D03*
X016898Y010693D03*
X016898Y010695D03*
X016898Y010698D03*
X016898Y010700D03*
X016898Y010703D03*
X016898Y010705D03*
X016898Y010708D03*
X016898Y010710D03*
X016898Y010713D03*
X016898Y010715D03*
X016898Y010718D03*
X016895Y010723D03*
X016895Y010725D03*
X016895Y010728D03*
X016893Y010735D03*
X016968Y010750D03*
X016970Y010763D03*
X016973Y010770D03*
X016975Y010778D03*
X016978Y010783D03*
X016980Y010788D03*
X016968Y010713D03*
X016970Y010700D03*
X016973Y010693D03*
X016975Y010685D03*
X016978Y010680D03*
X016713Y010680D03*
X016713Y010678D03*
X016713Y010675D03*
X016703Y010653D03*
X016700Y010650D03*
X016543Y010618D03*
X015875Y010653D03*
X015875Y010655D03*
X015520Y011010D03*
X015520Y001860D03*
X015480Y001758D03*
X015543Y001695D03*
X015678Y001688D03*
X015700Y001520D03*
X015603Y001475D03*
X015530Y001310D03*
X015530Y001245D03*
X015750Y001073D03*
X015875Y001503D03*
X015875Y001505D03*
X015985Y001493D03*
X016078Y001493D03*
X016173Y001493D03*
X016268Y001493D03*
X016360Y001493D03*
X016443Y001438D03*
X016543Y001468D03*
X016455Y001548D03*
X016445Y001568D03*
X016460Y001615D03*
X016358Y001595D03*
X016358Y001593D03*
X016355Y001598D03*
X016270Y001600D03*
X016170Y001620D03*
X016075Y001593D03*
X016073Y001598D03*
X015988Y001600D03*
X016620Y001625D03*
X016620Y001628D03*
X016635Y001665D03*
X016708Y001668D03*
X016790Y001585D03*
X016788Y001578D03*
X016788Y001575D03*
X016788Y001573D03*
X016785Y001568D03*
X016785Y001565D03*
X016785Y001563D03*
X016785Y001560D03*
X016785Y001558D03*
X016785Y001555D03*
X016785Y001553D03*
X016785Y001550D03*
X016785Y001548D03*
X016785Y001545D03*
X016785Y001543D03*
X016785Y001540D03*
X016785Y001538D03*
X016788Y001533D03*
X016788Y001530D03*
X016788Y001528D03*
X016790Y001520D03*
X016793Y001513D03*
X016805Y001495D03*
X016893Y001520D03*
X016895Y001528D03*
X016895Y001530D03*
X016895Y001533D03*
X016898Y001538D03*
X016898Y001540D03*
X016898Y001543D03*
X016898Y001545D03*
X016898Y001548D03*
X016898Y001550D03*
X016898Y001553D03*
X016898Y001555D03*
X016898Y001558D03*
X016898Y001560D03*
X016898Y001563D03*
X016898Y001565D03*
X016898Y001568D03*
X016895Y001573D03*
X016895Y001575D03*
X016895Y001578D03*
X016893Y001585D03*
X016968Y001600D03*
X016970Y001613D03*
X016973Y001620D03*
X016975Y001628D03*
X016978Y001633D03*
X016980Y001638D03*
X016968Y001563D03*
X016970Y001550D03*
X016973Y001543D03*
X016975Y001535D03*
X016978Y001530D03*
X016713Y001530D03*
X016713Y001528D03*
X016713Y001525D03*
X016703Y001503D03*
X016700Y001500D03*
D25*
X016710Y001540D03*
X016625Y001615D03*
X016623Y001618D03*
X016623Y001620D03*
X016540Y001470D03*
X016353Y001600D03*
X016263Y001620D03*
X016070Y001600D03*
X015980Y001695D03*
X015678Y001690D03*
X015605Y001630D03*
X015543Y001693D03*
X015480Y001755D03*
X015678Y001965D03*
X015893Y001478D03*
X015750Y001075D03*
X016988Y001515D03*
X016993Y001510D03*
X016995Y001508D03*
X016998Y001505D03*
X016998Y001658D03*
X017000Y001660D03*
X015750Y010225D03*
X015893Y010628D03*
X016070Y010750D03*
X015980Y010845D03*
X016263Y010770D03*
X016353Y010750D03*
X016540Y010620D03*
X016710Y010690D03*
X016625Y010765D03*
X016623Y010768D03*
X016623Y010770D03*
X016998Y010808D03*
X017000Y010810D03*
X016988Y010665D03*
X016993Y010660D03*
X016995Y010658D03*
X016998Y010655D03*
X015678Y010840D03*
X015605Y010780D03*
X015543Y010843D03*
X015480Y010905D03*
X015678Y011115D03*
D26*
X015678Y011113D03*
X015615Y011050D03*
X015633Y011005D03*
X015633Y011003D03*
X015633Y011000D03*
X015633Y010998D03*
X015633Y010995D03*
X015635Y010990D03*
X015635Y010988D03*
X015635Y010985D03*
X015635Y010983D03*
X015635Y010980D03*
X015635Y010978D03*
X015635Y010975D03*
X015635Y010973D03*
X015635Y010970D03*
X015635Y010968D03*
X015635Y010965D03*
X015633Y010960D03*
X015633Y010958D03*
X015633Y010955D03*
X015633Y010953D03*
X015633Y010950D03*
X015615Y010905D03*
X015678Y010843D03*
X015715Y010925D03*
X015718Y010930D03*
X015718Y010933D03*
X015718Y010935D03*
X015718Y010938D03*
X015720Y010943D03*
X015720Y010945D03*
X015720Y010948D03*
X015720Y010950D03*
X015720Y010953D03*
X015723Y010958D03*
X015723Y010960D03*
X015723Y010963D03*
X015723Y010965D03*
X015723Y010968D03*
X015723Y010970D03*
X015723Y010973D03*
X015723Y010975D03*
X015723Y010978D03*
X015723Y010980D03*
X015723Y010983D03*
X015723Y010985D03*
X015723Y010988D03*
X015723Y010990D03*
X015723Y010993D03*
X015723Y010995D03*
X015723Y010998D03*
X015720Y011003D03*
X015720Y011005D03*
X015720Y011008D03*
X015720Y011010D03*
X015720Y011013D03*
X015718Y011020D03*
X015718Y011023D03*
X015718Y011025D03*
X015715Y011030D03*
X015805Y011025D03*
X015805Y011023D03*
X015805Y011020D03*
X015805Y011018D03*
X015805Y011015D03*
X015805Y011013D03*
X015805Y011010D03*
X015808Y011003D03*
X015808Y011000D03*
X015808Y010998D03*
X015808Y010995D03*
X015808Y010993D03*
X015808Y010990D03*
X015808Y010988D03*
X015808Y010985D03*
X015808Y010983D03*
X015808Y010980D03*
X015808Y010978D03*
X015808Y010975D03*
X015808Y010973D03*
X015808Y010970D03*
X015808Y010968D03*
X015808Y010965D03*
X015808Y010963D03*
X015808Y010960D03*
X015808Y010958D03*
X015808Y010955D03*
X015808Y010953D03*
X015808Y010950D03*
X015805Y010935D03*
X015805Y010933D03*
X015805Y010930D03*
X015805Y010928D03*
X015605Y010778D03*
X015588Y010733D03*
X015588Y010730D03*
X015588Y010728D03*
X015588Y010725D03*
X015585Y010720D03*
X015585Y010718D03*
X015585Y010715D03*
X015585Y010713D03*
X015583Y010710D03*
X015583Y010708D03*
X015583Y010700D03*
X015585Y010695D03*
X015585Y010693D03*
X015585Y010690D03*
X015585Y010688D03*
X015588Y010683D03*
X015588Y010680D03*
X015588Y010678D03*
X015605Y010633D03*
X015700Y010673D03*
X015880Y010648D03*
X016068Y010753D03*
X016260Y010768D03*
X016275Y010753D03*
X016350Y010753D03*
X016488Y010778D03*
X016485Y010683D03*
X016538Y010623D03*
X016690Y010645D03*
X016708Y010695D03*
X016705Y010698D03*
X016628Y010763D03*
X016843Y010778D03*
X016840Y010628D03*
X017005Y010650D03*
X017008Y010815D03*
X015815Y010478D03*
X015815Y010475D03*
X015728Y010468D03*
X015728Y010465D03*
X015728Y010463D03*
X015730Y010453D03*
X015730Y010450D03*
X015730Y010448D03*
X015725Y010478D03*
X015730Y010408D03*
X015730Y010405D03*
X015728Y010398D03*
X015728Y010395D03*
X015728Y010393D03*
X015728Y010390D03*
X015728Y010388D03*
X015725Y010380D03*
X015725Y010378D03*
X015640Y010398D03*
X015640Y010400D03*
X015643Y010408D03*
X015643Y010410D03*
X015643Y010413D03*
X015645Y010418D03*
X015645Y010420D03*
X015645Y010423D03*
X015645Y010425D03*
X015645Y010428D03*
X015645Y010430D03*
X015645Y010433D03*
X015645Y010435D03*
X015645Y010438D03*
X015643Y010445D03*
X015643Y010448D03*
X015640Y010455D03*
X015640Y010458D03*
X015530Y010458D03*
X015530Y010398D03*
X015815Y010378D03*
X015750Y010228D03*
X015503Y010655D03*
X015503Y010658D03*
X015500Y010668D03*
X015500Y010670D03*
X015498Y010683D03*
X015498Y010685D03*
X015498Y010688D03*
X015498Y010690D03*
X015498Y010693D03*
X015498Y010695D03*
X015498Y010698D03*
X015498Y010700D03*
X015498Y010703D03*
X015498Y010705D03*
X015498Y010708D03*
X015498Y010710D03*
X015498Y010713D03*
X015498Y010715D03*
X015498Y010718D03*
X015498Y010720D03*
X015498Y010723D03*
X015498Y010725D03*
X015500Y010738D03*
X015500Y010740D03*
X015503Y010750D03*
X015503Y010753D03*
X015418Y010770D03*
X015415Y010758D03*
X015415Y010755D03*
X015413Y010750D03*
X015413Y010748D03*
X015413Y010745D03*
X015413Y010743D03*
X015413Y010740D03*
X015413Y010738D03*
X015410Y010730D03*
X015410Y010728D03*
X015410Y010725D03*
X015410Y010723D03*
X015410Y010720D03*
X015410Y010718D03*
X015410Y010715D03*
X015410Y010713D03*
X015410Y010710D03*
X015410Y010708D03*
X015410Y010705D03*
X015410Y010703D03*
X015410Y010700D03*
X015410Y010698D03*
X015410Y010695D03*
X015410Y010693D03*
X015410Y010690D03*
X015410Y010688D03*
X015410Y010685D03*
X015410Y010683D03*
X015410Y010680D03*
X015410Y010678D03*
X015413Y010663D03*
X015413Y010660D03*
X015413Y010658D03*
X015415Y010653D03*
X015415Y010650D03*
X015418Y010638D03*
X015543Y010840D03*
X015480Y010903D03*
X015520Y010948D03*
X015520Y011008D03*
X015678Y001963D03*
X015615Y001900D03*
X015633Y001855D03*
X015633Y001853D03*
X015633Y001850D03*
X015633Y001848D03*
X015633Y001845D03*
X015635Y001840D03*
X015635Y001838D03*
X015635Y001835D03*
X015635Y001833D03*
X015635Y001830D03*
X015635Y001828D03*
X015635Y001825D03*
X015635Y001823D03*
X015635Y001820D03*
X015635Y001818D03*
X015635Y001815D03*
X015633Y001810D03*
X015633Y001808D03*
X015633Y001805D03*
X015633Y001803D03*
X015633Y001800D03*
X015615Y001755D03*
X015678Y001693D03*
X015715Y001775D03*
X015718Y001780D03*
X015718Y001783D03*
X015718Y001785D03*
X015718Y001788D03*
X015720Y001793D03*
X015720Y001795D03*
X015720Y001798D03*
X015720Y001800D03*
X015720Y001803D03*
X015723Y001808D03*
X015723Y001810D03*
X015723Y001813D03*
X015723Y001815D03*
X015723Y001818D03*
X015723Y001820D03*
X015723Y001823D03*
X015723Y001825D03*
X015723Y001828D03*
X015723Y001830D03*
X015723Y001833D03*
X015723Y001835D03*
X015723Y001838D03*
X015723Y001840D03*
X015723Y001843D03*
X015723Y001845D03*
X015723Y001848D03*
X015720Y001853D03*
X015720Y001855D03*
X015720Y001858D03*
X015720Y001860D03*
X015720Y001863D03*
X015718Y001870D03*
X015718Y001873D03*
X015718Y001875D03*
X015715Y001880D03*
X015805Y001875D03*
X015805Y001873D03*
X015805Y001870D03*
X015805Y001868D03*
X015805Y001865D03*
X015805Y001863D03*
X015805Y001860D03*
X015808Y001853D03*
X015808Y001850D03*
X015808Y001848D03*
X015808Y001845D03*
X015808Y001843D03*
X015808Y001840D03*
X015808Y001838D03*
X015808Y001835D03*
X015808Y001833D03*
X015808Y001830D03*
X015808Y001828D03*
X015808Y001825D03*
X015808Y001823D03*
X015808Y001820D03*
X015808Y001818D03*
X015808Y001815D03*
X015808Y001813D03*
X015808Y001810D03*
X015808Y001808D03*
X015808Y001805D03*
X015808Y001803D03*
X015808Y001800D03*
X015805Y001785D03*
X015805Y001783D03*
X015805Y001780D03*
X015805Y001778D03*
X015543Y001690D03*
X015605Y001628D03*
X015588Y001583D03*
X015588Y001580D03*
X015588Y001578D03*
X015588Y001575D03*
X015585Y001570D03*
X015585Y001568D03*
X015585Y001565D03*
X015585Y001563D03*
X015583Y001560D03*
X015583Y001558D03*
X015583Y001550D03*
X015585Y001545D03*
X015585Y001543D03*
X015585Y001540D03*
X015585Y001538D03*
X015588Y001533D03*
X015588Y001530D03*
X015588Y001528D03*
X015605Y001483D03*
X015700Y001523D03*
X015880Y001498D03*
X015815Y001328D03*
X015815Y001325D03*
X015728Y001318D03*
X015728Y001315D03*
X015728Y001313D03*
X015730Y001303D03*
X015730Y001300D03*
X015730Y001298D03*
X015725Y001328D03*
X015730Y001258D03*
X015730Y001255D03*
X015728Y001248D03*
X015728Y001245D03*
X015728Y001243D03*
X015728Y001240D03*
X015728Y001238D03*
X015725Y001230D03*
X015725Y001228D03*
X015640Y001248D03*
X015640Y001250D03*
X015643Y001258D03*
X015643Y001260D03*
X015643Y001263D03*
X015645Y001268D03*
X015645Y001270D03*
X015645Y001273D03*
X015645Y001275D03*
X015645Y001278D03*
X015645Y001280D03*
X015645Y001283D03*
X015645Y001285D03*
X015645Y001288D03*
X015643Y001295D03*
X015643Y001298D03*
X015640Y001305D03*
X015640Y001308D03*
X015530Y001308D03*
X015530Y001248D03*
X015750Y001078D03*
X015815Y001228D03*
X015503Y001505D03*
X015503Y001508D03*
X015500Y001518D03*
X015500Y001520D03*
X015498Y001533D03*
X015498Y001535D03*
X015498Y001538D03*
X015498Y001540D03*
X015498Y001543D03*
X015498Y001545D03*
X015498Y001548D03*
X015498Y001550D03*
X015498Y001553D03*
X015498Y001555D03*
X015498Y001558D03*
X015498Y001560D03*
X015498Y001563D03*
X015498Y001565D03*
X015498Y001568D03*
X015498Y001570D03*
X015498Y001573D03*
X015498Y001575D03*
X015500Y001588D03*
X015500Y001590D03*
X015503Y001600D03*
X015503Y001603D03*
X015418Y001620D03*
X015415Y001608D03*
X015415Y001605D03*
X015413Y001600D03*
X015413Y001598D03*
X015413Y001595D03*
X015413Y001593D03*
X015413Y001590D03*
X015413Y001588D03*
X015410Y001580D03*
X015410Y001578D03*
X015410Y001575D03*
X015410Y001573D03*
X015410Y001570D03*
X015410Y001568D03*
X015410Y001565D03*
X015410Y001563D03*
X015410Y001560D03*
X015410Y001558D03*
X015410Y001555D03*
X015410Y001553D03*
X015410Y001550D03*
X015410Y001548D03*
X015410Y001545D03*
X015410Y001543D03*
X015410Y001540D03*
X015410Y001538D03*
X015410Y001535D03*
X015410Y001533D03*
X015410Y001530D03*
X015410Y001528D03*
X015413Y001513D03*
X015413Y001510D03*
X015413Y001508D03*
X015415Y001503D03*
X015415Y001500D03*
X015418Y001488D03*
X015480Y001753D03*
X015520Y001798D03*
X015520Y001858D03*
X016068Y001603D03*
X016260Y001618D03*
X016275Y001603D03*
X016350Y001603D03*
X016488Y001628D03*
X016485Y001533D03*
X016538Y001473D03*
X016690Y001495D03*
X016708Y001545D03*
X016705Y001548D03*
X016628Y001613D03*
X016843Y001628D03*
X016840Y001478D03*
X017005Y001500D03*
X017008Y001665D03*
D27*
X016703Y001553D03*
X016533Y001475D03*
X016335Y001623D03*
X016258Y001615D03*
X016163Y001615D03*
X016163Y001613D03*
X016163Y001610D03*
X016163Y001608D03*
X016163Y001605D03*
X016053Y001623D03*
X015793Y001730D03*
X015793Y001733D03*
X015793Y001735D03*
X015795Y001738D03*
X015795Y001740D03*
X015795Y001743D03*
X015798Y001750D03*
X015803Y001768D03*
X015803Y001770D03*
X015790Y001728D03*
X015790Y001725D03*
X015788Y001723D03*
X015788Y001720D03*
X015788Y001718D03*
X015785Y001715D03*
X015785Y001713D03*
X015783Y001708D03*
X015705Y001745D03*
X015705Y001748D03*
X015708Y001753D03*
X015710Y001758D03*
X015703Y001743D03*
X015703Y001740D03*
X015700Y001738D03*
X015698Y001733D03*
X015678Y001695D03*
X015623Y001778D03*
X015625Y001783D03*
X015628Y001788D03*
X015628Y001868D03*
X015625Y001873D03*
X015623Y001878D03*
X015620Y001883D03*
X015698Y001923D03*
X015700Y001918D03*
X015703Y001915D03*
X015703Y001913D03*
X015705Y001910D03*
X015705Y001908D03*
X015708Y001903D03*
X015708Y001900D03*
X015678Y001960D03*
X015785Y001940D03*
X015788Y001935D03*
X015790Y001928D03*
X015790Y001925D03*
X015793Y001920D03*
X015793Y001918D03*
X015795Y001915D03*
X015795Y001913D03*
X015795Y001910D03*
X015798Y001908D03*
X015798Y001905D03*
X015798Y001903D03*
X015800Y001895D03*
X015803Y001888D03*
X015803Y001885D03*
X015803Y001883D03*
X015520Y001855D03*
X015520Y001800D03*
X015480Y001750D03*
X015445Y001690D03*
X015438Y001675D03*
X015435Y001673D03*
X015435Y001670D03*
X015433Y001668D03*
X015433Y001665D03*
X015430Y001660D03*
X015430Y001658D03*
X015428Y001655D03*
X015428Y001653D03*
X015425Y001645D03*
X015420Y001630D03*
X015505Y001610D03*
X015508Y001618D03*
X015510Y001623D03*
X015510Y001625D03*
X015513Y001628D03*
X015513Y001630D03*
X015513Y001633D03*
X015515Y001635D03*
X015518Y001640D03*
X015523Y001650D03*
X015543Y001688D03*
X015605Y001623D03*
X015598Y001605D03*
X015595Y001603D03*
X015595Y001600D03*
X015593Y001595D03*
X015593Y001513D03*
X015595Y001508D03*
X015605Y001485D03*
X015543Y001423D03*
X015520Y001460D03*
X015518Y001468D03*
X015515Y001473D03*
X015513Y001478D03*
X015513Y001480D03*
X015510Y001483D03*
X015510Y001485D03*
X015508Y001490D03*
X015425Y001463D03*
X015425Y001460D03*
X015428Y001455D03*
X015428Y001453D03*
X015430Y001450D03*
X015430Y001448D03*
X015433Y001443D03*
X015433Y001440D03*
X015435Y001438D03*
X015435Y001435D03*
X015438Y001433D03*
X015445Y001418D03*
X015480Y001360D03*
X015530Y001305D03*
X015530Y001250D03*
X015623Y001208D03*
X015628Y001220D03*
X015633Y001230D03*
X015635Y001235D03*
X015635Y001320D03*
X015633Y001325D03*
X015630Y001330D03*
X015628Y001335D03*
X015623Y001348D03*
X015705Y001375D03*
X015708Y001373D03*
X015708Y001370D03*
X015710Y001368D03*
X015710Y001365D03*
X015713Y001363D03*
X015713Y001360D03*
X015715Y001358D03*
X015715Y001355D03*
X015718Y001350D03*
X015720Y001343D03*
X015685Y001410D03*
X015793Y001398D03*
X015795Y001393D03*
X015798Y001390D03*
X015798Y001388D03*
X015798Y001385D03*
X015800Y001380D03*
X015803Y001375D03*
X015805Y001368D03*
X015805Y001365D03*
X015808Y001358D03*
X015810Y001353D03*
X015810Y001350D03*
X015818Y001245D03*
X015818Y001243D03*
X015818Y001240D03*
X015818Y001238D03*
X015813Y001215D03*
X015813Y001213D03*
X015810Y001205D03*
X015810Y001203D03*
X015808Y001200D03*
X015808Y001198D03*
X015808Y001195D03*
X015805Y001190D03*
X015805Y001188D03*
X015805Y001185D03*
X015803Y001180D03*
X015798Y001168D03*
X015715Y001198D03*
X015715Y001200D03*
X015718Y001205D03*
X015718Y001208D03*
X015713Y001195D03*
X015713Y001193D03*
X015710Y001190D03*
X015708Y001185D03*
X015705Y001180D03*
X015685Y001145D03*
X015750Y001080D03*
X015700Y001525D03*
X015750Y010230D03*
X015685Y010295D03*
X015705Y010330D03*
X015708Y010335D03*
X015710Y010340D03*
X015713Y010343D03*
X015713Y010345D03*
X015715Y010348D03*
X015715Y010350D03*
X015718Y010355D03*
X015718Y010358D03*
X015635Y010385D03*
X015633Y010380D03*
X015628Y010370D03*
X015623Y010358D03*
X015530Y010400D03*
X015530Y010455D03*
X015480Y010510D03*
X015445Y010568D03*
X015438Y010583D03*
X015435Y010585D03*
X015435Y010588D03*
X015433Y010590D03*
X015433Y010593D03*
X015430Y010598D03*
X015430Y010600D03*
X015428Y010603D03*
X015428Y010605D03*
X015425Y010610D03*
X015425Y010613D03*
X015508Y010640D03*
X015510Y010635D03*
X015510Y010633D03*
X015513Y010630D03*
X015513Y010628D03*
X015515Y010623D03*
X015518Y010618D03*
X015520Y010610D03*
X015543Y010573D03*
X015605Y010635D03*
X015595Y010658D03*
X015593Y010663D03*
X015593Y010745D03*
X015595Y010750D03*
X015595Y010753D03*
X015598Y010755D03*
X015605Y010773D03*
X015523Y010800D03*
X015518Y010790D03*
X015515Y010785D03*
X015513Y010783D03*
X015513Y010780D03*
X015513Y010778D03*
X015510Y010775D03*
X015510Y010773D03*
X015508Y010768D03*
X015505Y010760D03*
X015543Y010838D03*
X015480Y010900D03*
X015520Y010950D03*
X015520Y011005D03*
X015620Y011033D03*
X015623Y011028D03*
X015625Y011023D03*
X015628Y011018D03*
X015628Y010938D03*
X015625Y010933D03*
X015623Y010928D03*
X015700Y010888D03*
X015703Y010890D03*
X015703Y010893D03*
X015705Y010895D03*
X015705Y010898D03*
X015708Y010903D03*
X015710Y010908D03*
X015698Y010883D03*
X015678Y010845D03*
X015783Y010858D03*
X015785Y010863D03*
X015785Y010865D03*
X015788Y010868D03*
X015788Y010870D03*
X015788Y010873D03*
X015790Y010875D03*
X015790Y010878D03*
X015793Y010880D03*
X015793Y010883D03*
X015793Y010885D03*
X015795Y010888D03*
X015795Y010890D03*
X015795Y010893D03*
X015798Y010900D03*
X015803Y010918D03*
X015803Y010920D03*
X015803Y011033D03*
X015803Y011035D03*
X015803Y011038D03*
X015800Y011045D03*
X015798Y011053D03*
X015798Y011055D03*
X015798Y011058D03*
X015795Y011060D03*
X015795Y011063D03*
X015795Y011065D03*
X015793Y011068D03*
X015793Y011070D03*
X015790Y011075D03*
X015790Y011078D03*
X015788Y011085D03*
X015785Y011090D03*
X015705Y011060D03*
X015705Y011058D03*
X015703Y011063D03*
X015703Y011065D03*
X015700Y011068D03*
X015698Y011073D03*
X015708Y011053D03*
X015708Y011050D03*
X015678Y011110D03*
X015445Y010840D03*
X015438Y010825D03*
X015435Y010823D03*
X015435Y010820D03*
X015433Y010818D03*
X015433Y010815D03*
X015430Y010810D03*
X015430Y010808D03*
X015428Y010805D03*
X015428Y010803D03*
X015425Y010795D03*
X015420Y010780D03*
X015700Y010675D03*
X015685Y010560D03*
X015705Y010525D03*
X015708Y010523D03*
X015708Y010520D03*
X015710Y010518D03*
X015710Y010515D03*
X015713Y010513D03*
X015713Y010510D03*
X015715Y010508D03*
X015715Y010505D03*
X015718Y010500D03*
X015720Y010493D03*
X015805Y010515D03*
X015805Y010518D03*
X015803Y010525D03*
X015800Y010530D03*
X015798Y010535D03*
X015798Y010538D03*
X015798Y010540D03*
X015795Y010543D03*
X015793Y010548D03*
X015808Y010508D03*
X015810Y010503D03*
X015810Y010500D03*
X015818Y010395D03*
X015818Y010393D03*
X015818Y010390D03*
X015818Y010388D03*
X015813Y010365D03*
X015813Y010363D03*
X015810Y010355D03*
X015810Y010353D03*
X015808Y010350D03*
X015808Y010348D03*
X015808Y010345D03*
X015805Y010340D03*
X015805Y010338D03*
X015805Y010335D03*
X015803Y010330D03*
X015798Y010318D03*
X015635Y010470D03*
X015633Y010475D03*
X015630Y010480D03*
X015628Y010485D03*
X015623Y010498D03*
X016053Y010773D03*
X016163Y010765D03*
X016163Y010763D03*
X016163Y010760D03*
X016163Y010758D03*
X016163Y010755D03*
X016258Y010765D03*
X016335Y010773D03*
X016533Y010625D03*
X016703Y010703D03*
D28*
X016701Y010705D03*
X016634Y010755D03*
X016674Y010835D03*
X016481Y010563D03*
X017014Y010818D03*
X015974Y010830D03*
X015974Y010833D03*
X015974Y010835D03*
X015974Y010838D03*
X015974Y010840D03*
X015784Y010860D03*
X015781Y010855D03*
X015779Y010853D03*
X015779Y010850D03*
X015776Y010848D03*
X015776Y010845D03*
X015774Y010843D03*
X015774Y010840D03*
X015771Y010838D03*
X015739Y010783D03*
X015699Y010730D03*
X015601Y010763D03*
X015599Y010758D03*
X015521Y010798D03*
X015519Y010795D03*
X015519Y010793D03*
X015516Y010788D03*
X015524Y010803D03*
X015526Y010808D03*
X015449Y010848D03*
X015446Y010843D03*
X015444Y010838D03*
X015441Y010835D03*
X015441Y010833D03*
X015439Y010830D03*
X015439Y010828D03*
X015481Y010898D03*
X015614Y010910D03*
X015614Y010913D03*
X015619Y010920D03*
X015621Y010923D03*
X015621Y010925D03*
X015694Y010878D03*
X015694Y010875D03*
X015691Y010873D03*
X015691Y010870D03*
X015689Y010868D03*
X015696Y010880D03*
X015699Y010885D03*
X015676Y010848D03*
X015596Y010655D03*
X015599Y010653D03*
X015599Y010650D03*
X015601Y010645D03*
X015606Y010638D03*
X015526Y010600D03*
X015524Y010605D03*
X015521Y010608D03*
X015519Y010613D03*
X015519Y010615D03*
X015516Y010620D03*
X015514Y010625D03*
X015439Y010580D03*
X015439Y010578D03*
X015441Y010575D03*
X015441Y010573D03*
X015444Y010570D03*
X015446Y010565D03*
X015449Y010563D03*
X015626Y010488D03*
X015629Y010483D03*
X015631Y010478D03*
X015704Y010528D03*
X015701Y010533D03*
X015784Y010563D03*
X015784Y010565D03*
X015786Y010560D03*
X015789Y010558D03*
X015789Y010555D03*
X015791Y010553D03*
X015791Y010550D03*
X015794Y010545D03*
X015799Y010533D03*
X015801Y010528D03*
X015749Y010623D03*
X015896Y010630D03*
X015631Y010378D03*
X015629Y010375D03*
X015629Y010373D03*
X015626Y010368D03*
X015624Y010365D03*
X015624Y010363D03*
X015624Y010360D03*
X015699Y010320D03*
X015701Y010323D03*
X015701Y010325D03*
X015704Y010328D03*
X015706Y010333D03*
X015709Y010338D03*
X015791Y010305D03*
X015791Y010303D03*
X015794Y010308D03*
X015794Y010310D03*
X015796Y010313D03*
X015796Y010315D03*
X015799Y010320D03*
X015799Y010323D03*
X015801Y010325D03*
X015801Y010328D03*
X015804Y010333D03*
X015784Y010290D03*
X015749Y010233D03*
X015621Y011030D03*
X015619Y011035D03*
X015614Y011043D03*
X015614Y011045D03*
X015691Y011083D03*
X015691Y011085D03*
X015694Y011080D03*
X015694Y011078D03*
X015696Y011075D03*
X015699Y011070D03*
X015676Y011108D03*
X015739Y011173D03*
X015774Y011113D03*
X015776Y011108D03*
X015779Y011103D03*
X015781Y011098D03*
X015784Y011095D03*
X015784Y011093D03*
X015786Y011088D03*
X015789Y011083D03*
X015789Y011080D03*
X015739Y002023D03*
X015774Y001963D03*
X015776Y001958D03*
X015779Y001953D03*
X015781Y001948D03*
X015784Y001945D03*
X015784Y001943D03*
X015786Y001938D03*
X015789Y001933D03*
X015789Y001930D03*
X015699Y001920D03*
X015696Y001925D03*
X015694Y001928D03*
X015694Y001930D03*
X015691Y001933D03*
X015691Y001935D03*
X015676Y001958D03*
X015614Y001895D03*
X015614Y001893D03*
X015619Y001885D03*
X015621Y001880D03*
X015621Y001775D03*
X015621Y001773D03*
X015619Y001770D03*
X015614Y001763D03*
X015614Y001760D03*
X015691Y001723D03*
X015691Y001720D03*
X015689Y001718D03*
X015694Y001725D03*
X015694Y001728D03*
X015696Y001730D03*
X015699Y001735D03*
X015676Y001698D03*
X015739Y001633D03*
X015771Y001688D03*
X015774Y001690D03*
X015774Y001693D03*
X015776Y001695D03*
X015776Y001698D03*
X015779Y001700D03*
X015779Y001703D03*
X015781Y001705D03*
X015784Y001710D03*
X015699Y001580D03*
X015601Y001613D03*
X015599Y001608D03*
X015521Y001648D03*
X015519Y001645D03*
X015519Y001643D03*
X015516Y001638D03*
X015524Y001653D03*
X015526Y001658D03*
X015449Y001698D03*
X015446Y001693D03*
X015444Y001688D03*
X015441Y001685D03*
X015441Y001683D03*
X015439Y001680D03*
X015439Y001678D03*
X015481Y001748D03*
X015596Y001505D03*
X015599Y001503D03*
X015599Y001500D03*
X015601Y001495D03*
X015606Y001488D03*
X015526Y001450D03*
X015524Y001455D03*
X015521Y001458D03*
X015519Y001463D03*
X015519Y001465D03*
X015516Y001470D03*
X015514Y001475D03*
X015439Y001430D03*
X015439Y001428D03*
X015441Y001425D03*
X015441Y001423D03*
X015444Y001420D03*
X015446Y001415D03*
X015449Y001413D03*
X015626Y001338D03*
X015629Y001333D03*
X015631Y001328D03*
X015704Y001378D03*
X015701Y001383D03*
X015784Y001413D03*
X015784Y001415D03*
X015786Y001410D03*
X015789Y001408D03*
X015789Y001405D03*
X015791Y001403D03*
X015791Y001400D03*
X015794Y001395D03*
X015799Y001383D03*
X015801Y001378D03*
X015749Y001473D03*
X015896Y001480D03*
X015974Y001680D03*
X015974Y001683D03*
X015974Y001685D03*
X015974Y001688D03*
X015974Y001690D03*
X016481Y001413D03*
X016634Y001605D03*
X016701Y001555D03*
X016674Y001685D03*
X017014Y001668D03*
X015804Y001183D03*
X015801Y001178D03*
X015801Y001175D03*
X015799Y001173D03*
X015799Y001170D03*
X015796Y001165D03*
X015796Y001163D03*
X015794Y001160D03*
X015794Y001158D03*
X015791Y001155D03*
X015791Y001153D03*
X015784Y001140D03*
X015749Y001083D03*
X015699Y001170D03*
X015701Y001173D03*
X015701Y001175D03*
X015704Y001178D03*
X015706Y001183D03*
X015709Y001188D03*
X015631Y001228D03*
X015629Y001225D03*
X015629Y001223D03*
X015626Y001218D03*
X015624Y001215D03*
X015624Y001213D03*
X015624Y001210D03*
D29*
X015691Y001160D03*
X015694Y001163D03*
X015689Y001155D03*
X015686Y001153D03*
X015686Y001150D03*
X015769Y001115D03*
X015771Y001120D03*
X015774Y001123D03*
X015776Y001125D03*
X015776Y001128D03*
X015779Y001130D03*
X015749Y001085D03*
X015529Y001255D03*
X015531Y001300D03*
X015479Y001365D03*
X015471Y001378D03*
X015469Y001380D03*
X015466Y001385D03*
X015464Y001388D03*
X015461Y001390D03*
X015454Y001403D03*
X015531Y001443D03*
X015534Y001440D03*
X015536Y001438D03*
X015541Y001430D03*
X015541Y001428D03*
X015686Y001405D03*
X015686Y001403D03*
X015689Y001400D03*
X015691Y001395D03*
X015694Y001393D03*
X015696Y001390D03*
X015769Y001438D03*
X015769Y001440D03*
X015766Y001443D03*
X015764Y001445D03*
X015759Y001453D03*
X015749Y001468D03*
X015771Y001435D03*
X015774Y001433D03*
X015776Y001428D03*
X015699Y001530D03*
X015699Y001578D03*
X015739Y001638D03*
X015746Y001650D03*
X015749Y001653D03*
X015754Y001660D03*
X015756Y001663D03*
X015761Y001670D03*
X015764Y001675D03*
X015684Y001710D03*
X015681Y001708D03*
X015679Y001705D03*
X015679Y001703D03*
X015541Y001680D03*
X015536Y001670D03*
X015534Y001668D03*
X015531Y001665D03*
X015466Y001723D03*
X015464Y001720D03*
X015461Y001718D03*
X015456Y001710D03*
X015469Y001728D03*
X015471Y001730D03*
X015479Y001743D03*
X015521Y001850D03*
X015679Y001950D03*
X015679Y001953D03*
X015681Y001948D03*
X015684Y001945D03*
X015761Y001983D03*
X015761Y001985D03*
X015759Y001988D03*
X015764Y001980D03*
X015766Y001975D03*
X015739Y002018D03*
X016051Y001620D03*
X016334Y001620D03*
X016489Y001625D03*
X016636Y001603D03*
X016651Y001478D03*
X017054Y001685D03*
X015749Y010235D03*
X015769Y010265D03*
X015771Y010270D03*
X015774Y010273D03*
X015776Y010275D03*
X015776Y010278D03*
X015779Y010280D03*
X015694Y010313D03*
X015691Y010310D03*
X015689Y010305D03*
X015686Y010303D03*
X015686Y010300D03*
X015529Y010405D03*
X015531Y010450D03*
X015479Y010515D03*
X015471Y010528D03*
X015469Y010530D03*
X015466Y010535D03*
X015464Y010538D03*
X015461Y010540D03*
X015454Y010553D03*
X015531Y010593D03*
X015534Y010590D03*
X015536Y010588D03*
X015541Y010580D03*
X015541Y010578D03*
X015686Y010555D03*
X015686Y010553D03*
X015689Y010550D03*
X015691Y010545D03*
X015694Y010543D03*
X015696Y010540D03*
X015769Y010588D03*
X015769Y010590D03*
X015766Y010593D03*
X015764Y010595D03*
X015759Y010603D03*
X015749Y010618D03*
X015771Y010585D03*
X015774Y010583D03*
X015776Y010578D03*
X015699Y010680D03*
X015699Y010728D03*
X015739Y010788D03*
X015746Y010800D03*
X015749Y010803D03*
X015754Y010810D03*
X015756Y010813D03*
X015761Y010820D03*
X015764Y010825D03*
X015684Y010860D03*
X015681Y010858D03*
X015679Y010855D03*
X015679Y010853D03*
X015541Y010830D03*
X015536Y010820D03*
X015534Y010818D03*
X015531Y010815D03*
X015466Y010873D03*
X015464Y010870D03*
X015461Y010868D03*
X015456Y010860D03*
X015469Y010878D03*
X015471Y010880D03*
X015479Y010893D03*
X015521Y011000D03*
X015679Y011100D03*
X015679Y011103D03*
X015681Y011098D03*
X015684Y011095D03*
X015761Y011133D03*
X015761Y011135D03*
X015759Y011138D03*
X015764Y011130D03*
X015766Y011125D03*
X015739Y011168D03*
X016051Y010770D03*
X016334Y010770D03*
X016489Y010775D03*
X016636Y010753D03*
X016651Y010628D03*
X017054Y010835D03*
D30*
X017053Y010628D03*
X016840Y010630D03*
X016843Y010775D03*
X016695Y010710D03*
X016640Y010750D03*
X016485Y010685D03*
X015763Y010598D03*
X015760Y010600D03*
X015758Y010605D03*
X015755Y010608D03*
X015753Y010610D03*
X015750Y010615D03*
X015700Y010683D03*
X015740Y010790D03*
X015743Y010795D03*
X015745Y010798D03*
X015750Y010805D03*
X015753Y010808D03*
X015540Y010825D03*
X015540Y010828D03*
X015538Y010823D03*
X015468Y010875D03*
X015473Y010883D03*
X015475Y010885D03*
X015478Y010888D03*
X015478Y010890D03*
X015520Y010955D03*
X015520Y010958D03*
X015520Y010998D03*
X015748Y011153D03*
X015750Y011150D03*
X015753Y011145D03*
X015755Y011143D03*
X015758Y011140D03*
X015740Y011165D03*
X015538Y010585D03*
X015540Y010583D03*
X015468Y010533D03*
X015473Y010525D03*
X015475Y010523D03*
X015478Y010520D03*
X015478Y010518D03*
X015530Y010448D03*
X015530Y010408D03*
X015690Y010308D03*
X015763Y010258D03*
X015765Y010260D03*
X015768Y010263D03*
X015770Y010268D03*
X015760Y010253D03*
X015758Y010250D03*
X015750Y010238D03*
X015690Y010548D03*
X015740Y002015D03*
X015748Y002003D03*
X015750Y002000D03*
X015753Y001995D03*
X015755Y001993D03*
X015758Y001990D03*
X015520Y001848D03*
X015520Y001808D03*
X015520Y001805D03*
X015478Y001740D03*
X015478Y001738D03*
X015475Y001735D03*
X015473Y001733D03*
X015468Y001725D03*
X015540Y001678D03*
X015540Y001675D03*
X015538Y001673D03*
X015740Y001640D03*
X015743Y001645D03*
X015745Y001648D03*
X015750Y001655D03*
X015753Y001658D03*
X015700Y001533D03*
X015750Y001465D03*
X015753Y001460D03*
X015755Y001458D03*
X015758Y001455D03*
X015760Y001450D03*
X015763Y001448D03*
X015690Y001398D03*
X015540Y001433D03*
X015538Y001435D03*
X015468Y001383D03*
X015473Y001375D03*
X015475Y001373D03*
X015478Y001370D03*
X015478Y001368D03*
X015530Y001298D03*
X015530Y001258D03*
X015690Y001158D03*
X015763Y001108D03*
X015765Y001110D03*
X015768Y001113D03*
X015770Y001118D03*
X015760Y001103D03*
X015758Y001100D03*
X015750Y001088D03*
X016485Y001535D03*
X016640Y001600D03*
X016695Y001560D03*
X016843Y001625D03*
X016840Y001480D03*
X017053Y001478D03*
D31*
X016691Y001563D03*
X016644Y001598D03*
X016541Y001605D03*
X016481Y001503D03*
X016526Y001478D03*
X015751Y001463D03*
X015699Y001573D03*
X015699Y001575D03*
X015741Y001643D03*
X015751Y001998D03*
X015746Y002005D03*
X015744Y002008D03*
X015741Y002010D03*
X015741Y002013D03*
X015761Y001105D03*
X015756Y001098D03*
X015754Y001095D03*
X015751Y001093D03*
X015751Y001090D03*
X015751Y010240D03*
X015751Y010243D03*
X015754Y010245D03*
X015756Y010248D03*
X015761Y010255D03*
X015751Y010613D03*
X015699Y010723D03*
X015699Y010725D03*
X015741Y010793D03*
X015751Y011148D03*
X015746Y011155D03*
X015744Y011158D03*
X015741Y011160D03*
X015741Y011163D03*
X016541Y010755D03*
X016644Y010748D03*
X016691Y010713D03*
X016526Y010628D03*
X016481Y010653D03*
D32*
X016446Y010625D03*
X016444Y010623D03*
X016441Y010620D03*
X016439Y010613D03*
X016481Y010560D03*
X016529Y010580D03*
X016531Y010583D03*
X016536Y010588D03*
X016539Y010590D03*
X016541Y010593D03*
X016541Y010595D03*
X016544Y010598D03*
X016544Y010600D03*
X016544Y010603D03*
X016611Y010648D03*
X016524Y010705D03*
X016526Y010710D03*
X016529Y010743D03*
X016526Y010750D03*
X016671Y010838D03*
X016711Y010815D03*
X017096Y010815D03*
X016174Y010813D03*
X016174Y010840D03*
X016174Y010773D03*
X015874Y010778D03*
X015874Y010780D03*
X015739Y010770D03*
X015679Y010833D03*
X015604Y010788D03*
X015541Y010850D03*
X015616Y010895D03*
X015521Y010943D03*
X015521Y011013D03*
X015616Y011060D03*
X015679Y011123D03*
X015739Y011185D03*
X015701Y010668D03*
X015749Y010635D03*
X015686Y010573D03*
X015624Y010510D03*
X015541Y010560D03*
X015479Y010498D03*
X015624Y010345D03*
X015686Y010283D03*
X015739Y002035D03*
X015679Y001973D03*
X015616Y001910D03*
X015521Y001863D03*
X015521Y001793D03*
X015541Y001700D03*
X015616Y001745D03*
X015679Y001683D03*
X015739Y001620D03*
X015701Y001518D03*
X015749Y001485D03*
X015686Y001423D03*
X015624Y001360D03*
X015541Y001410D03*
X015479Y001348D03*
X015624Y001195D03*
X015686Y001133D03*
X016439Y001463D03*
X016441Y001470D03*
X016444Y001473D03*
X016446Y001475D03*
X016481Y001410D03*
X016529Y001430D03*
X016531Y001433D03*
X016536Y001438D03*
X016539Y001440D03*
X016541Y001443D03*
X016541Y001445D03*
X016544Y001448D03*
X016544Y001450D03*
X016544Y001453D03*
X016611Y001498D03*
X016524Y001555D03*
X016526Y001560D03*
X016529Y001593D03*
X016526Y001600D03*
X016671Y001688D03*
X016711Y001665D03*
X017096Y001665D03*
X016174Y001663D03*
X016174Y001690D03*
X016174Y001623D03*
X015874Y001628D03*
X015874Y001630D03*
X015604Y001638D03*
D33*
X015605Y001620D03*
X015605Y001618D03*
X015603Y001615D03*
X015600Y001610D03*
X015525Y001655D03*
X015528Y001660D03*
X015530Y001663D03*
X015543Y001683D03*
X015543Y001685D03*
X015480Y001745D03*
X015460Y001715D03*
X015458Y001713D03*
X015455Y001708D03*
X015453Y001705D03*
X015453Y001703D03*
X015450Y001700D03*
X015448Y001695D03*
X015520Y001803D03*
X015520Y001853D03*
X015615Y001890D03*
X015618Y001888D03*
X015688Y001938D03*
X015688Y001940D03*
X015685Y001943D03*
X015678Y001955D03*
X015738Y002020D03*
X015765Y001978D03*
X015768Y001973D03*
X015770Y001970D03*
X015770Y001968D03*
X015773Y001965D03*
X015775Y001960D03*
X015778Y001955D03*
X015780Y001950D03*
X015618Y001768D03*
X015615Y001765D03*
X015685Y001713D03*
X015688Y001715D03*
X015678Y001700D03*
X015758Y001665D03*
X015760Y001668D03*
X015763Y001673D03*
X015765Y001678D03*
X015768Y001680D03*
X015768Y001683D03*
X015770Y001685D03*
X015738Y001635D03*
X015700Y001528D03*
X015748Y001470D03*
X015775Y001430D03*
X015778Y001425D03*
X015780Y001423D03*
X015780Y001420D03*
X015783Y001418D03*
X015703Y001380D03*
X015700Y001385D03*
X015698Y001388D03*
X015685Y001408D03*
X015623Y001345D03*
X015623Y001343D03*
X015625Y001340D03*
X015530Y001303D03*
X015530Y001253D03*
X015480Y001363D03*
X015460Y001393D03*
X015458Y001395D03*
X015458Y001398D03*
X015455Y001400D03*
X015453Y001405D03*
X015450Y001408D03*
X015450Y001410D03*
X015528Y001448D03*
X015530Y001445D03*
X015525Y001453D03*
X015543Y001425D03*
X015605Y001490D03*
X015603Y001493D03*
X015600Y001498D03*
X015698Y001168D03*
X015695Y001165D03*
X015685Y001148D03*
X015780Y001135D03*
X015780Y001133D03*
X015783Y001138D03*
X015785Y001143D03*
X015788Y001145D03*
X015788Y001148D03*
X015790Y001150D03*
X016698Y001558D03*
X017015Y001495D03*
X015780Y010283D03*
X015780Y010285D03*
X015783Y010288D03*
X015785Y010293D03*
X015788Y010295D03*
X015788Y010298D03*
X015790Y010300D03*
X015698Y010318D03*
X015695Y010315D03*
X015685Y010298D03*
X015530Y010403D03*
X015530Y010453D03*
X015480Y010513D03*
X015460Y010543D03*
X015458Y010545D03*
X015458Y010548D03*
X015455Y010550D03*
X015453Y010555D03*
X015450Y010558D03*
X015450Y010560D03*
X015528Y010598D03*
X015530Y010595D03*
X015525Y010603D03*
X015543Y010575D03*
X015605Y010640D03*
X015603Y010643D03*
X015600Y010648D03*
X015700Y010678D03*
X015748Y010620D03*
X015775Y010580D03*
X015778Y010575D03*
X015780Y010573D03*
X015780Y010570D03*
X015783Y010568D03*
X015703Y010530D03*
X015700Y010535D03*
X015698Y010538D03*
X015685Y010558D03*
X015623Y010495D03*
X015623Y010493D03*
X015625Y010490D03*
X015600Y010760D03*
X015603Y010765D03*
X015605Y010768D03*
X015605Y010770D03*
X015530Y010813D03*
X015528Y010810D03*
X015525Y010805D03*
X015543Y010833D03*
X015543Y010835D03*
X015480Y010895D03*
X015460Y010865D03*
X015458Y010863D03*
X015455Y010858D03*
X015453Y010855D03*
X015453Y010853D03*
X015450Y010850D03*
X015448Y010845D03*
X015520Y010953D03*
X015520Y011003D03*
X015615Y011040D03*
X015618Y011038D03*
X015688Y011088D03*
X015688Y011090D03*
X015685Y011093D03*
X015678Y011105D03*
X015738Y011170D03*
X015765Y011128D03*
X015768Y011123D03*
X015770Y011120D03*
X015770Y011118D03*
X015773Y011115D03*
X015775Y011110D03*
X015778Y011105D03*
X015780Y011100D03*
X015618Y010918D03*
X015615Y010915D03*
X015685Y010863D03*
X015688Y010865D03*
X015678Y010850D03*
X015758Y010815D03*
X015760Y010818D03*
X015763Y010823D03*
X015765Y010828D03*
X015768Y010830D03*
X015768Y010833D03*
X015770Y010835D03*
X015738Y010785D03*
X016698Y010708D03*
X017015Y010645D03*
D34*
X017094Y010645D03*
X016896Y010685D03*
X016894Y010675D03*
X016894Y010673D03*
X016891Y010668D03*
X016891Y010665D03*
X016889Y010663D03*
X016889Y010660D03*
X016886Y010658D03*
X016886Y010655D03*
X016884Y010653D03*
X016881Y010650D03*
X016879Y010648D03*
X016876Y010645D03*
X016804Y010648D03*
X016801Y010650D03*
X016799Y010653D03*
X016796Y010655D03*
X016796Y010658D03*
X016794Y010660D03*
X016791Y010665D03*
X016791Y010668D03*
X016789Y010673D03*
X016789Y010675D03*
X016786Y010685D03*
X016786Y010720D03*
X016789Y010730D03*
X016789Y010733D03*
X016791Y010738D03*
X016791Y010740D03*
X016794Y010743D03*
X016794Y010745D03*
X016796Y010748D03*
X016799Y010753D03*
X016801Y010755D03*
X016804Y010758D03*
X016806Y010760D03*
X016879Y010758D03*
X016881Y010755D03*
X016884Y010753D03*
X016886Y010750D03*
X016886Y010748D03*
X016889Y010745D03*
X016889Y010743D03*
X016891Y010740D03*
X016891Y010738D03*
X016894Y010733D03*
X016894Y010730D03*
X016896Y010720D03*
X016711Y010673D03*
X016711Y010670D03*
X016711Y010668D03*
X016709Y010665D03*
X016709Y010663D03*
X016706Y010658D03*
X016704Y010655D03*
X016619Y010780D03*
X016619Y010783D03*
X016619Y010785D03*
X016619Y010788D03*
X016621Y010798D03*
X016626Y010808D03*
X016629Y010810D03*
X016631Y010813D03*
X016514Y010695D03*
X016481Y010680D03*
X016454Y010700D03*
X016451Y010703D03*
X016449Y010705D03*
X016449Y010708D03*
X016446Y010710D03*
X016446Y010713D03*
X016446Y010715D03*
X016444Y010720D03*
X016444Y010723D03*
X016444Y010725D03*
X016444Y010728D03*
X016444Y010730D03*
X016444Y010733D03*
X016444Y010735D03*
X016444Y010738D03*
X016446Y010745D03*
X016449Y010753D03*
X016454Y010760D03*
X016456Y010763D03*
X016359Y010740D03*
X016359Y010738D03*
X016359Y010735D03*
X016266Y010773D03*
X016174Y010815D03*
X016174Y010818D03*
X016174Y010835D03*
X016174Y010838D03*
X016074Y010745D03*
X016076Y010740D03*
X016076Y010738D03*
X016076Y010735D03*
X015984Y010848D03*
X015871Y010775D03*
X015874Y010660D03*
X015874Y010658D03*
X015749Y010633D03*
X015686Y010570D03*
X015624Y010508D03*
X015541Y010563D03*
X015479Y010500D03*
X015699Y010738D03*
X015739Y010773D03*
X015679Y010835D03*
X015616Y010898D03*
X015541Y010848D03*
X015604Y010785D03*
X015616Y011058D03*
X015679Y011120D03*
X015739Y011183D03*
X016439Y010598D03*
X016439Y010595D03*
X016439Y010593D03*
X016441Y010590D03*
X016524Y010578D03*
X016544Y010613D03*
X016544Y010615D03*
X015686Y010285D03*
X015624Y010348D03*
X015739Y002033D03*
X015679Y001970D03*
X015616Y001908D03*
X015616Y001748D03*
X015679Y001685D03*
X015739Y001623D03*
X015699Y001588D03*
X015604Y001635D03*
X015541Y001698D03*
X015541Y001413D03*
X015479Y001350D03*
X015624Y001358D03*
X015686Y001420D03*
X015749Y001483D03*
X015874Y001508D03*
X015874Y001510D03*
X015871Y001625D03*
X015984Y001698D03*
X016074Y001595D03*
X016076Y001590D03*
X016076Y001588D03*
X016076Y001585D03*
X016174Y001665D03*
X016174Y001668D03*
X016174Y001685D03*
X016174Y001688D03*
X016266Y001623D03*
X016359Y001590D03*
X016359Y001588D03*
X016359Y001585D03*
X016444Y001585D03*
X016444Y001588D03*
X016444Y001583D03*
X016444Y001580D03*
X016444Y001578D03*
X016444Y001575D03*
X016444Y001573D03*
X016444Y001570D03*
X016446Y001565D03*
X016446Y001563D03*
X016446Y001560D03*
X016449Y001558D03*
X016449Y001555D03*
X016451Y001553D03*
X016454Y001550D03*
X016481Y001530D03*
X016514Y001545D03*
X016446Y001595D03*
X016449Y001603D03*
X016454Y001610D03*
X016456Y001613D03*
X016619Y001630D03*
X016619Y001633D03*
X016619Y001635D03*
X016619Y001638D03*
X016621Y001648D03*
X016626Y001658D03*
X016629Y001660D03*
X016631Y001663D03*
X016711Y001523D03*
X016711Y001520D03*
X016711Y001518D03*
X016709Y001515D03*
X016709Y001513D03*
X016706Y001508D03*
X016704Y001505D03*
X016789Y001523D03*
X016789Y001525D03*
X016791Y001518D03*
X016791Y001515D03*
X016794Y001510D03*
X016796Y001508D03*
X016796Y001505D03*
X016799Y001503D03*
X016801Y001500D03*
X016804Y001498D03*
X016786Y001535D03*
X016786Y001570D03*
X016789Y001580D03*
X016789Y001583D03*
X016791Y001588D03*
X016791Y001590D03*
X016794Y001593D03*
X016794Y001595D03*
X016796Y001598D03*
X016799Y001603D03*
X016801Y001605D03*
X016804Y001608D03*
X016806Y001610D03*
X016879Y001608D03*
X016881Y001605D03*
X016884Y001603D03*
X016886Y001600D03*
X016886Y001598D03*
X016889Y001595D03*
X016889Y001593D03*
X016891Y001590D03*
X016891Y001588D03*
X016894Y001583D03*
X016894Y001580D03*
X016896Y001570D03*
X016896Y001535D03*
X016894Y001525D03*
X016894Y001523D03*
X016891Y001518D03*
X016891Y001515D03*
X016889Y001513D03*
X016889Y001510D03*
X016886Y001508D03*
X016886Y001505D03*
X016884Y001503D03*
X016881Y001500D03*
X016879Y001498D03*
X016876Y001495D03*
X017094Y001495D03*
X016544Y001465D03*
X016544Y001463D03*
X016524Y001428D03*
X016441Y001440D03*
X016439Y001443D03*
X016439Y001445D03*
X016439Y001448D03*
X015686Y001135D03*
X015624Y001198D03*
D35*
X015624Y001200D03*
X015686Y001138D03*
X015624Y001355D03*
X015686Y001418D03*
X015749Y001480D03*
X015876Y001500D03*
X015869Y001623D03*
X015739Y001625D03*
X015604Y001633D03*
X015616Y001750D03*
X015521Y001795D03*
X015616Y001905D03*
X015679Y001968D03*
X015739Y002030D03*
X016174Y001683D03*
X016174Y001680D03*
X016174Y001678D03*
X016174Y001675D03*
X016174Y001673D03*
X016174Y001670D03*
X016459Y001545D03*
X016444Y001435D03*
X016446Y001433D03*
X016449Y001430D03*
X016616Y001495D03*
X016696Y001498D03*
X016711Y001533D03*
X016711Y001535D03*
X016711Y001538D03*
X016811Y001493D03*
X016871Y001493D03*
X016974Y001538D03*
X016974Y001540D03*
X016971Y001545D03*
X016971Y001548D03*
X016969Y001553D03*
X016969Y001555D03*
X016969Y001558D03*
X016969Y001560D03*
X016966Y001565D03*
X016966Y001568D03*
X016966Y001570D03*
X016966Y001573D03*
X016966Y001575D03*
X016966Y001578D03*
X016966Y001580D03*
X016966Y001583D03*
X016966Y001585D03*
X016966Y001588D03*
X016966Y001590D03*
X016966Y001593D03*
X016966Y001595D03*
X016966Y001598D03*
X016969Y001603D03*
X016969Y001605D03*
X016969Y001608D03*
X016969Y001610D03*
X016971Y001615D03*
X016971Y001618D03*
X016974Y001623D03*
X016974Y001625D03*
X016976Y001630D03*
X016979Y001635D03*
X016981Y001640D03*
X016984Y001643D03*
X016984Y001645D03*
X016986Y001648D03*
X016989Y001650D03*
X016991Y001653D03*
X016994Y001655D03*
X017091Y001668D03*
X016976Y001533D03*
X016979Y001528D03*
X016981Y001525D03*
X016981Y001523D03*
X016984Y001520D03*
X016986Y001518D03*
X016989Y001513D03*
X016876Y001610D03*
X016871Y001613D03*
X016811Y001613D03*
X016621Y001623D03*
X015604Y001478D03*
X015541Y001415D03*
X015479Y001353D03*
X015686Y010288D03*
X015624Y010350D03*
X015624Y010505D03*
X015686Y010568D03*
X015749Y010630D03*
X015876Y010650D03*
X015869Y010773D03*
X015739Y010775D03*
X015604Y010783D03*
X015616Y010900D03*
X015521Y010945D03*
X015616Y011055D03*
X015679Y011118D03*
X015739Y011180D03*
X016174Y010833D03*
X016174Y010830D03*
X016174Y010828D03*
X016174Y010825D03*
X016174Y010823D03*
X016174Y010820D03*
X016459Y010695D03*
X016444Y010585D03*
X016446Y010583D03*
X016449Y010580D03*
X016616Y010645D03*
X016696Y010648D03*
X016711Y010683D03*
X016711Y010685D03*
X016711Y010688D03*
X016811Y010643D03*
X016871Y010643D03*
X016974Y010688D03*
X016974Y010690D03*
X016971Y010695D03*
X016971Y010698D03*
X016969Y010703D03*
X016969Y010705D03*
X016969Y010708D03*
X016969Y010710D03*
X016966Y010715D03*
X016966Y010718D03*
X016966Y010720D03*
X016966Y010723D03*
X016966Y010725D03*
X016966Y010728D03*
X016966Y010730D03*
X016966Y010733D03*
X016966Y010735D03*
X016966Y010738D03*
X016966Y010740D03*
X016966Y010743D03*
X016966Y010745D03*
X016966Y010748D03*
X016969Y010753D03*
X016969Y010755D03*
X016969Y010758D03*
X016969Y010760D03*
X016971Y010765D03*
X016971Y010768D03*
X016974Y010773D03*
X016974Y010775D03*
X016976Y010780D03*
X016979Y010785D03*
X016981Y010790D03*
X016984Y010793D03*
X016984Y010795D03*
X016986Y010798D03*
X016989Y010800D03*
X016991Y010803D03*
X016994Y010805D03*
X017091Y010818D03*
X016976Y010683D03*
X016979Y010678D03*
X016981Y010675D03*
X016981Y010673D03*
X016984Y010670D03*
X016986Y010668D03*
X016989Y010663D03*
X016876Y010760D03*
X016871Y010763D03*
X016811Y010763D03*
X016621Y010773D03*
X015604Y010628D03*
X015541Y010565D03*
X015479Y010503D03*
D36*
X015479Y010505D03*
X015541Y010568D03*
X015604Y010630D03*
X015586Y010685D03*
X015584Y010698D03*
X015584Y010703D03*
X015584Y010705D03*
X015586Y010723D03*
X015699Y010735D03*
X015739Y010778D03*
X015749Y010628D03*
X015686Y010565D03*
X015624Y010503D03*
X015641Y010453D03*
X015641Y010450D03*
X015641Y010405D03*
X015641Y010403D03*
X015624Y010353D03*
X015686Y010290D03*
X015731Y010410D03*
X015731Y010413D03*
X015731Y010415D03*
X015731Y010418D03*
X015731Y010420D03*
X015731Y010423D03*
X015731Y010425D03*
X015731Y010428D03*
X015731Y010430D03*
X015731Y010433D03*
X015731Y010435D03*
X015731Y010438D03*
X015731Y010440D03*
X015731Y010443D03*
X015731Y010445D03*
X015414Y010655D03*
X015414Y010753D03*
X015616Y010903D03*
X015616Y011053D03*
X015739Y011178D03*
X016054Y010775D03*
X016166Y010768D03*
X016336Y010775D03*
X016639Y010818D03*
X016709Y010693D03*
X017001Y010653D03*
X017004Y010813D03*
X016451Y010578D03*
X015739Y002028D03*
X015616Y001903D03*
X015616Y001753D03*
X015739Y001628D03*
X015699Y001585D03*
X015586Y001573D03*
X015584Y001555D03*
X015584Y001553D03*
X015584Y001548D03*
X015586Y001535D03*
X015604Y001480D03*
X015541Y001418D03*
X015479Y001355D03*
X015624Y001353D03*
X015641Y001303D03*
X015641Y001300D03*
X015641Y001255D03*
X015641Y001253D03*
X015624Y001203D03*
X015686Y001140D03*
X015731Y001260D03*
X015731Y001263D03*
X015731Y001265D03*
X015731Y001268D03*
X015731Y001270D03*
X015731Y001273D03*
X015731Y001275D03*
X015731Y001278D03*
X015731Y001280D03*
X015731Y001283D03*
X015731Y001285D03*
X015731Y001288D03*
X015731Y001290D03*
X015731Y001293D03*
X015731Y001295D03*
X015686Y001415D03*
X015749Y001478D03*
X016054Y001625D03*
X016166Y001618D03*
X016336Y001625D03*
X016451Y001428D03*
X016709Y001543D03*
X016639Y001668D03*
X017004Y001663D03*
X017001Y001503D03*
X015414Y001505D03*
X015414Y001603D03*
D37*
X015416Y001610D03*
X015416Y001613D03*
X015416Y001615D03*
X015416Y001618D03*
X015419Y001623D03*
X015419Y001625D03*
X015419Y001628D03*
X015421Y001633D03*
X015421Y001635D03*
X015424Y001638D03*
X015424Y001640D03*
X015424Y001643D03*
X015426Y001648D03*
X015426Y001650D03*
X015431Y001663D03*
X015411Y001585D03*
X015411Y001583D03*
X015411Y001525D03*
X015411Y001523D03*
X015411Y001520D03*
X015411Y001518D03*
X015411Y001515D03*
X015416Y001498D03*
X015416Y001495D03*
X015416Y001493D03*
X015416Y001490D03*
X015419Y001485D03*
X015419Y001483D03*
X015419Y001480D03*
X015421Y001478D03*
X015421Y001475D03*
X015421Y001473D03*
X015424Y001470D03*
X015424Y001468D03*
X015424Y001465D03*
X015426Y001458D03*
X015431Y001445D03*
X015509Y001488D03*
X015506Y001493D03*
X015506Y001495D03*
X015506Y001498D03*
X015504Y001500D03*
X015504Y001503D03*
X015501Y001510D03*
X015501Y001513D03*
X015501Y001515D03*
X015499Y001523D03*
X015499Y001525D03*
X015499Y001528D03*
X015499Y001530D03*
X015499Y001578D03*
X015499Y001580D03*
X015499Y001583D03*
X015499Y001585D03*
X015501Y001593D03*
X015501Y001595D03*
X015501Y001598D03*
X015504Y001605D03*
X015504Y001608D03*
X015506Y001613D03*
X015506Y001615D03*
X015509Y001620D03*
X015589Y001588D03*
X015589Y001585D03*
X015591Y001590D03*
X015591Y001593D03*
X015594Y001598D03*
X015606Y001625D03*
X015589Y001525D03*
X015589Y001523D03*
X015589Y001520D03*
X015591Y001518D03*
X015591Y001515D03*
X015594Y001510D03*
X015541Y001420D03*
X015479Y001358D03*
X015624Y001350D03*
X015634Y001323D03*
X015636Y001318D03*
X015636Y001315D03*
X015639Y001313D03*
X015639Y001310D03*
X015644Y001293D03*
X015644Y001290D03*
X015644Y001265D03*
X015639Y001245D03*
X015639Y001243D03*
X015636Y001240D03*
X015636Y001238D03*
X015634Y001233D03*
X015624Y001205D03*
X015686Y001143D03*
X015716Y001203D03*
X015719Y001210D03*
X015719Y001213D03*
X015721Y001215D03*
X015721Y001218D03*
X015724Y001220D03*
X015724Y001223D03*
X015724Y001225D03*
X015726Y001233D03*
X015726Y001235D03*
X015729Y001250D03*
X015729Y001253D03*
X015729Y001305D03*
X015729Y001308D03*
X015729Y001310D03*
X015726Y001320D03*
X015726Y001323D03*
X015726Y001325D03*
X015724Y001330D03*
X015724Y001333D03*
X015724Y001335D03*
X015721Y001338D03*
X015721Y001340D03*
X015719Y001345D03*
X015719Y001348D03*
X015716Y001353D03*
X015686Y001413D03*
X015749Y001475D03*
X015804Y001373D03*
X015804Y001370D03*
X015806Y001363D03*
X015806Y001360D03*
X015809Y001355D03*
X015811Y001348D03*
X015811Y001345D03*
X015811Y001343D03*
X015814Y001340D03*
X015814Y001338D03*
X015814Y001335D03*
X015814Y001333D03*
X015814Y001330D03*
X015816Y001323D03*
X015816Y001320D03*
X015816Y001318D03*
X015816Y001315D03*
X015816Y001313D03*
X015816Y001310D03*
X015819Y001308D03*
X015819Y001305D03*
X015819Y001303D03*
X015819Y001300D03*
X015819Y001298D03*
X015819Y001295D03*
X015819Y001293D03*
X015819Y001290D03*
X015819Y001288D03*
X015819Y001285D03*
X015819Y001283D03*
X015819Y001280D03*
X015819Y001278D03*
X015819Y001275D03*
X015819Y001273D03*
X015819Y001270D03*
X015819Y001268D03*
X015819Y001265D03*
X015819Y001263D03*
X015819Y001260D03*
X015819Y001258D03*
X015819Y001255D03*
X015819Y001253D03*
X015819Y001250D03*
X015819Y001248D03*
X015816Y001235D03*
X015816Y001233D03*
X015816Y001230D03*
X015814Y001225D03*
X015814Y001223D03*
X015814Y001220D03*
X015814Y001218D03*
X015811Y001210D03*
X015811Y001208D03*
X015806Y001193D03*
X015699Y001583D03*
X015739Y001630D03*
X015706Y001750D03*
X015709Y001755D03*
X015711Y001760D03*
X015711Y001763D03*
X015711Y001765D03*
X015714Y001768D03*
X015714Y001770D03*
X015714Y001773D03*
X015716Y001778D03*
X015719Y001790D03*
X015721Y001805D03*
X015721Y001850D03*
X015719Y001865D03*
X015719Y001868D03*
X015716Y001878D03*
X015714Y001883D03*
X015714Y001885D03*
X015714Y001888D03*
X015711Y001890D03*
X015711Y001893D03*
X015711Y001895D03*
X015709Y001898D03*
X015706Y001905D03*
X015629Y001865D03*
X015629Y001863D03*
X015631Y001860D03*
X015631Y001858D03*
X015626Y001870D03*
X015624Y001875D03*
X015614Y001898D03*
X015634Y001843D03*
X015634Y001813D03*
X015631Y001798D03*
X015631Y001795D03*
X015629Y001793D03*
X015629Y001790D03*
X015626Y001785D03*
X015624Y001780D03*
X015614Y001758D03*
X015796Y001748D03*
X015796Y001745D03*
X015799Y001753D03*
X015799Y001755D03*
X015799Y001758D03*
X015801Y001760D03*
X015801Y001763D03*
X015801Y001765D03*
X015804Y001773D03*
X015804Y001775D03*
X015806Y001788D03*
X015806Y001790D03*
X015806Y001793D03*
X015806Y001795D03*
X015806Y001798D03*
X015806Y001855D03*
X015806Y001858D03*
X015804Y001878D03*
X015804Y001880D03*
X015801Y001890D03*
X015801Y001893D03*
X015799Y001898D03*
X015799Y001900D03*
X015791Y001923D03*
X015739Y002025D03*
X015976Y001693D03*
X015994Y001603D03*
X016474Y001505D03*
X016629Y001610D03*
X016631Y001608D03*
X016704Y001550D03*
X017009Y001498D03*
X015686Y010293D03*
X015716Y010353D03*
X015719Y010360D03*
X015719Y010363D03*
X015721Y010365D03*
X015721Y010368D03*
X015724Y010370D03*
X015724Y010373D03*
X015724Y010375D03*
X015726Y010383D03*
X015726Y010385D03*
X015729Y010400D03*
X015729Y010403D03*
X015729Y010455D03*
X015729Y010458D03*
X015729Y010460D03*
X015726Y010470D03*
X015726Y010473D03*
X015726Y010475D03*
X015724Y010480D03*
X015724Y010483D03*
X015724Y010485D03*
X015721Y010488D03*
X015721Y010490D03*
X015719Y010495D03*
X015719Y010498D03*
X015716Y010503D03*
X015686Y010563D03*
X015749Y010625D03*
X015804Y010523D03*
X015804Y010520D03*
X015806Y010513D03*
X015806Y010510D03*
X015809Y010505D03*
X015811Y010498D03*
X015811Y010495D03*
X015811Y010493D03*
X015814Y010490D03*
X015814Y010488D03*
X015814Y010485D03*
X015814Y010483D03*
X015814Y010480D03*
X015816Y010473D03*
X015816Y010470D03*
X015816Y010468D03*
X015816Y010465D03*
X015816Y010463D03*
X015816Y010460D03*
X015819Y010458D03*
X015819Y010455D03*
X015819Y010453D03*
X015819Y010450D03*
X015819Y010448D03*
X015819Y010445D03*
X015819Y010443D03*
X015819Y010440D03*
X015819Y010438D03*
X015819Y010435D03*
X015819Y010433D03*
X015819Y010430D03*
X015819Y010428D03*
X015819Y010425D03*
X015819Y010423D03*
X015819Y010420D03*
X015819Y010418D03*
X015819Y010415D03*
X015819Y010413D03*
X015819Y010410D03*
X015819Y010408D03*
X015819Y010405D03*
X015819Y010403D03*
X015819Y010400D03*
X015819Y010398D03*
X015816Y010385D03*
X015816Y010383D03*
X015816Y010380D03*
X015814Y010375D03*
X015814Y010373D03*
X015814Y010370D03*
X015814Y010368D03*
X015811Y010360D03*
X015811Y010358D03*
X015806Y010343D03*
X015639Y010393D03*
X015639Y010395D03*
X015636Y010390D03*
X015636Y010388D03*
X015634Y010383D03*
X015624Y010355D03*
X015644Y010415D03*
X015644Y010440D03*
X015644Y010443D03*
X015639Y010460D03*
X015639Y010463D03*
X015636Y010465D03*
X015636Y010468D03*
X015634Y010473D03*
X015624Y010500D03*
X015541Y010570D03*
X015509Y010638D03*
X015506Y010643D03*
X015506Y010645D03*
X015506Y010648D03*
X015504Y010650D03*
X015504Y010653D03*
X015501Y010660D03*
X015501Y010663D03*
X015501Y010665D03*
X015499Y010673D03*
X015499Y010675D03*
X015499Y010678D03*
X015499Y010680D03*
X015499Y010728D03*
X015499Y010730D03*
X015499Y010733D03*
X015499Y010735D03*
X015501Y010743D03*
X015501Y010745D03*
X015501Y010748D03*
X015504Y010755D03*
X015504Y010758D03*
X015506Y010763D03*
X015506Y010765D03*
X015509Y010770D03*
X015589Y010738D03*
X015589Y010735D03*
X015591Y010740D03*
X015591Y010743D03*
X015594Y010748D03*
X015606Y010775D03*
X015589Y010675D03*
X015589Y010673D03*
X015589Y010670D03*
X015591Y010668D03*
X015591Y010665D03*
X015594Y010660D03*
X015699Y010733D03*
X015739Y010780D03*
X015706Y010900D03*
X015709Y010905D03*
X015711Y010910D03*
X015711Y010913D03*
X015711Y010915D03*
X015714Y010918D03*
X015714Y010920D03*
X015714Y010923D03*
X015716Y010928D03*
X015719Y010940D03*
X015721Y010955D03*
X015721Y011000D03*
X015719Y011015D03*
X015719Y011018D03*
X015716Y011028D03*
X015714Y011033D03*
X015714Y011035D03*
X015714Y011038D03*
X015711Y011040D03*
X015711Y011043D03*
X015711Y011045D03*
X015709Y011048D03*
X015706Y011055D03*
X015629Y011015D03*
X015629Y011013D03*
X015631Y011010D03*
X015631Y011008D03*
X015626Y011020D03*
X015624Y011025D03*
X015614Y011048D03*
X015634Y010993D03*
X015634Y010963D03*
X015631Y010948D03*
X015631Y010945D03*
X015629Y010943D03*
X015629Y010940D03*
X015626Y010935D03*
X015624Y010930D03*
X015614Y010908D03*
X015796Y010898D03*
X015796Y010895D03*
X015799Y010903D03*
X015799Y010905D03*
X015799Y010908D03*
X015801Y010910D03*
X015801Y010913D03*
X015801Y010915D03*
X015804Y010923D03*
X015804Y010925D03*
X015806Y010938D03*
X015806Y010940D03*
X015806Y010943D03*
X015806Y010945D03*
X015806Y010948D03*
X015806Y011005D03*
X015806Y011008D03*
X015804Y011028D03*
X015804Y011030D03*
X015801Y011040D03*
X015801Y011043D03*
X015799Y011048D03*
X015799Y011050D03*
X015791Y011073D03*
X015739Y011175D03*
X015976Y010843D03*
X015994Y010753D03*
X016474Y010655D03*
X016629Y010760D03*
X016631Y010758D03*
X016704Y010700D03*
X017009Y010648D03*
X015479Y010508D03*
X015431Y010595D03*
X015426Y010608D03*
X015424Y010615D03*
X015424Y010618D03*
X015424Y010620D03*
X015421Y010623D03*
X015421Y010625D03*
X015421Y010628D03*
X015419Y010630D03*
X015419Y010633D03*
X015419Y010635D03*
X015416Y010640D03*
X015416Y010643D03*
X015416Y010645D03*
X015416Y010648D03*
X015411Y010665D03*
X015411Y010668D03*
X015411Y010670D03*
X015411Y010673D03*
X015411Y010675D03*
X015411Y010733D03*
X015411Y010735D03*
X015416Y010760D03*
X015416Y010763D03*
X015416Y010765D03*
X015416Y010768D03*
X015419Y010773D03*
X015419Y010775D03*
X015419Y010778D03*
X015421Y010783D03*
X015421Y010785D03*
X015424Y010788D03*
X015424Y010790D03*
X015424Y010793D03*
X015426Y010798D03*
X015426Y010800D03*
X015431Y010813D03*
D38*
X015686Y010588D03*
X015934Y010648D03*
X015626Y010330D03*
X015934Y001498D03*
X015686Y001438D03*
X015626Y001180D03*
D39*
X015530Y001260D03*
X015530Y001263D03*
X015530Y001265D03*
X015530Y001290D03*
X015530Y001293D03*
X015530Y001295D03*
X015700Y001535D03*
X015898Y001483D03*
X016080Y001490D03*
X016050Y001618D03*
X016333Y001618D03*
X016363Y001490D03*
X016540Y001608D03*
X016688Y001565D03*
X015520Y001810D03*
X015520Y001813D03*
X015520Y001845D03*
X015530Y010410D03*
X015530Y010413D03*
X015530Y010415D03*
X015530Y010440D03*
X015530Y010443D03*
X015530Y010445D03*
X015700Y010685D03*
X015898Y010633D03*
X016080Y010640D03*
X016050Y010768D03*
X016333Y010768D03*
X016363Y010640D03*
X016540Y010758D03*
X016688Y010715D03*
X015520Y010960D03*
X015520Y010963D03*
X015520Y010995D03*
D40*
X015521Y010993D03*
X015521Y010990D03*
X015521Y010965D03*
X015699Y010720D03*
X015699Y010718D03*
X015699Y010715D03*
X015699Y010713D03*
X015699Y010695D03*
X015699Y010693D03*
X015699Y010690D03*
X015699Y010688D03*
X015984Y010640D03*
X015984Y010638D03*
X015984Y010635D03*
X015984Y010633D03*
X015984Y010630D03*
X015984Y010628D03*
X016079Y010628D03*
X016079Y010630D03*
X016079Y010633D03*
X016079Y010635D03*
X016079Y010638D03*
X016266Y010638D03*
X016266Y010640D03*
X016266Y010635D03*
X016266Y010633D03*
X016266Y010630D03*
X016266Y010628D03*
X016361Y010628D03*
X016361Y010630D03*
X016361Y010633D03*
X016361Y010635D03*
X016361Y010638D03*
X016481Y010565D03*
X016646Y010745D03*
X016539Y010760D03*
X015529Y010438D03*
X015529Y010420D03*
X015529Y010418D03*
X015521Y001843D03*
X015521Y001840D03*
X015521Y001815D03*
X015699Y001570D03*
X015699Y001568D03*
X015699Y001565D03*
X015699Y001563D03*
X015699Y001545D03*
X015699Y001543D03*
X015699Y001540D03*
X015699Y001538D03*
X015984Y001490D03*
X015984Y001488D03*
X015984Y001485D03*
X015984Y001483D03*
X015984Y001480D03*
X015984Y001478D03*
X016079Y001478D03*
X016079Y001480D03*
X016079Y001483D03*
X016079Y001485D03*
X016079Y001488D03*
X016266Y001488D03*
X016266Y001490D03*
X016266Y001485D03*
X016266Y001483D03*
X016266Y001480D03*
X016266Y001478D03*
X016361Y001478D03*
X016361Y001480D03*
X016361Y001483D03*
X016361Y001485D03*
X016361Y001488D03*
X016481Y001415D03*
X016539Y001610D03*
X016646Y001595D03*
X015529Y001288D03*
X015529Y001270D03*
X015529Y001268D03*
D41*
X015530Y001273D03*
X015530Y001283D03*
X015530Y001285D03*
X015898Y001485D03*
X015898Y001488D03*
X016173Y001490D03*
X016485Y001538D03*
X016490Y001623D03*
X016538Y001613D03*
X016650Y001593D03*
X016685Y001568D03*
X016675Y001683D03*
X016843Y001623D03*
X016840Y001483D03*
X015520Y001818D03*
X015520Y001820D03*
X015520Y001823D03*
X015520Y001835D03*
X015520Y001838D03*
X015530Y010423D03*
X015530Y010433D03*
X015530Y010435D03*
X015898Y010635D03*
X015898Y010638D03*
X016173Y010640D03*
X016485Y010688D03*
X016490Y010773D03*
X016538Y010763D03*
X016650Y010743D03*
X016685Y010718D03*
X016675Y010833D03*
X016843Y010773D03*
X016840Y010633D03*
X015520Y010968D03*
X015520Y010970D03*
X015520Y010973D03*
X015520Y010985D03*
X015520Y010988D03*
D42*
X015521Y010983D03*
X015521Y010980D03*
X015699Y010710D03*
X015699Y010708D03*
X015699Y010700D03*
X015699Y010698D03*
X015896Y010643D03*
X015896Y010640D03*
X016049Y010765D03*
X016174Y010638D03*
X016174Y010635D03*
X016174Y010633D03*
X016174Y010630D03*
X016174Y010628D03*
X016331Y010765D03*
X016486Y010650D03*
X016654Y010740D03*
X016681Y010720D03*
X015531Y010430D03*
X015529Y010425D03*
X015521Y001833D03*
X015521Y001830D03*
X015699Y001560D03*
X015699Y001558D03*
X015699Y001550D03*
X015699Y001548D03*
X015896Y001493D03*
X015896Y001490D03*
X016049Y001615D03*
X016174Y001488D03*
X016174Y001485D03*
X016174Y001483D03*
X016174Y001480D03*
X016174Y001478D03*
X016331Y001615D03*
X016486Y001500D03*
X016654Y001590D03*
X016681Y001570D03*
X015531Y001280D03*
X015529Y001275D03*
D43*
X015530Y001278D03*
X015700Y001553D03*
X015700Y001555D03*
X015895Y001495D03*
X015520Y001825D03*
X015520Y001828D03*
X016485Y001540D03*
X016518Y001480D03*
X016535Y001615D03*
X016658Y001588D03*
X016675Y001575D03*
X016678Y001573D03*
X015530Y010428D03*
X015700Y010703D03*
X015700Y010705D03*
X015895Y010645D03*
X015520Y010975D03*
X015520Y010978D03*
X016485Y010690D03*
X016518Y010630D03*
X016535Y010765D03*
X016658Y010738D03*
X016675Y010725D03*
X016678Y010723D03*
D44*
X015749Y010648D03*
X015739Y010758D03*
X015679Y010820D03*
X015541Y010863D03*
X015601Y010608D03*
X015479Y010485D03*
X015679Y011135D03*
X015739Y011198D03*
X015739Y002048D03*
X015679Y001985D03*
X015541Y001713D03*
X015679Y001670D03*
X015739Y001608D03*
X015749Y001498D03*
X015601Y001458D03*
X015479Y001335D03*
D45*
X015479Y001338D03*
X015626Y001373D03*
X015601Y001460D03*
X015749Y001495D03*
X015739Y001610D03*
X015679Y001673D03*
X015541Y001710D03*
X015679Y001983D03*
X015739Y002045D03*
X016174Y001698D03*
X016174Y001655D03*
X015479Y010488D03*
X015626Y010523D03*
X015601Y010610D03*
X015749Y010645D03*
X015739Y010760D03*
X015679Y010823D03*
X015541Y010860D03*
X015679Y011133D03*
X015739Y011195D03*
X016174Y010848D03*
X016174Y010805D03*
D46*
X016181Y010778D03*
X015881Y010808D03*
X015881Y010810D03*
X015739Y010763D03*
X015699Y010743D03*
X015679Y010825D03*
X015541Y010858D03*
X015749Y010643D03*
X015601Y010613D03*
X015626Y010520D03*
X015479Y010490D03*
X016464Y010670D03*
X016466Y010675D03*
X016716Y010778D03*
X015739Y011193D03*
X015679Y011130D03*
X015739Y002043D03*
X015679Y001980D03*
X015679Y001675D03*
X015699Y001593D03*
X015739Y001613D03*
X015749Y001493D03*
X015601Y001463D03*
X015626Y001370D03*
X015479Y001340D03*
X015541Y001708D03*
X015881Y001660D03*
X015881Y001658D03*
X016181Y001628D03*
X016464Y001520D03*
X016466Y001525D03*
X016716Y001628D03*
D47*
X016716Y001630D03*
X016716Y001633D03*
X016716Y001635D03*
X016716Y001638D03*
X016716Y001640D03*
X016716Y001643D03*
X016606Y001538D03*
X016606Y001535D03*
X016606Y001533D03*
X016606Y001530D03*
X016606Y001528D03*
X016606Y001525D03*
X016461Y001515D03*
X016274Y001628D03*
X016174Y001658D03*
X016174Y001695D03*
X015991Y001703D03*
X015879Y001650D03*
X015879Y001648D03*
X015739Y001615D03*
X015679Y001678D03*
X015541Y001705D03*
X015521Y001790D03*
X015679Y001978D03*
X015739Y002040D03*
X015749Y001490D03*
X015601Y001465D03*
X015626Y001368D03*
X015479Y001343D03*
X017101Y001515D03*
X017101Y001518D03*
X017101Y001520D03*
X017101Y001523D03*
X017101Y001525D03*
X017101Y001638D03*
X017101Y001640D03*
X017101Y001643D03*
X017101Y001645D03*
X017101Y001648D03*
X017101Y001650D03*
X015479Y010493D03*
X015626Y010518D03*
X015601Y010615D03*
X015749Y010640D03*
X015739Y010765D03*
X015679Y010828D03*
X015541Y010855D03*
X015521Y010940D03*
X015679Y011128D03*
X015739Y011190D03*
X015879Y010800D03*
X015879Y010798D03*
X015991Y010853D03*
X016174Y010845D03*
X016174Y010808D03*
X016274Y010778D03*
X016461Y010665D03*
X016606Y010675D03*
X016606Y010678D03*
X016606Y010680D03*
X016606Y010683D03*
X016606Y010685D03*
X016606Y010688D03*
X016716Y010780D03*
X016716Y010783D03*
X016716Y010785D03*
X016716Y010788D03*
X016716Y010790D03*
X016716Y010793D03*
X017101Y010793D03*
X017101Y010795D03*
X017101Y010798D03*
X017101Y010800D03*
X017101Y010790D03*
X017101Y010788D03*
X017101Y010675D03*
X017101Y010673D03*
X017101Y010670D03*
X017101Y010668D03*
X017101Y010665D03*
D48*
X017099Y010650D03*
X017099Y010813D03*
X016714Y010810D03*
X016609Y010653D03*
X016609Y010650D03*
X016461Y010660D03*
X016489Y010780D03*
X016174Y010810D03*
X016174Y010843D03*
X015876Y010790D03*
X015876Y010788D03*
X015739Y010768D03*
X015699Y010740D03*
X015679Y010830D03*
X015604Y010790D03*
X015541Y010853D03*
X015616Y010893D03*
X015616Y011063D03*
X015679Y011125D03*
X015739Y011188D03*
X015749Y010638D03*
X015479Y010495D03*
X015739Y002038D03*
X015679Y001975D03*
X015616Y001913D03*
X015616Y001743D03*
X015541Y001703D03*
X015604Y001640D03*
X015679Y001680D03*
X015739Y001618D03*
X015699Y001590D03*
X015749Y001488D03*
X015876Y001638D03*
X015876Y001640D03*
X016174Y001660D03*
X016174Y001693D03*
X016489Y001630D03*
X016461Y001510D03*
X016609Y001503D03*
X016609Y001500D03*
X016714Y001660D03*
X017099Y001663D03*
X017099Y001500D03*
X015479Y001345D03*
D49*
X015540Y001395D03*
X015625Y001375D03*
X015618Y001730D03*
X015480Y001775D03*
X015618Y001925D03*
X015625Y010525D03*
X015540Y010545D03*
X015618Y010880D03*
X015480Y010925D03*
X015618Y011075D03*
D50*
X016490Y010648D03*
X016483Y010568D03*
X016843Y010770D03*
X017055Y010833D03*
X017055Y010630D03*
X017055Y001683D03*
X016843Y001620D03*
X017055Y001480D03*
X016490Y001498D03*
X016483Y001418D03*
D51*
X016484Y001420D03*
X016494Y001495D03*
X016841Y001488D03*
X016841Y001618D03*
X016484Y010570D03*
X016494Y010645D03*
X016841Y010638D03*
X016841Y010768D03*
D52*
X016676Y010825D03*
X016501Y010638D03*
X016484Y010573D03*
X016676Y001675D03*
X016501Y001488D03*
X016484Y001423D03*
D53*
X016485Y001425D03*
X016650Y001488D03*
X016673Y001670D03*
X016485Y010575D03*
X016650Y010638D03*
X016673Y010820D03*
D54*
X016661Y010735D03*
X016664Y010733D03*
X016669Y010730D03*
X016671Y010728D03*
X016649Y010630D03*
X016841Y010635D03*
X016661Y001585D03*
X016664Y001583D03*
X016669Y001580D03*
X016671Y001578D03*
X016649Y001480D03*
X016841Y001485D03*
D55*
X016654Y001493D03*
X016499Y001483D03*
X017054Y001488D03*
X017054Y010638D03*
X016654Y010643D03*
X016499Y010633D03*
D56*
X016648Y010633D03*
X015888Y010768D03*
X015888Y001618D03*
X016648Y001483D03*
D57*
X016498Y001490D03*
X017055Y001483D03*
X015885Y001605D03*
X015885Y001608D03*
X015885Y001610D03*
X015885Y001613D03*
X015885Y001615D03*
X016498Y010640D03*
X017055Y010633D03*
X015885Y010755D03*
X015885Y010758D03*
X015885Y010760D03*
X015885Y010763D03*
X015885Y010765D03*
D58*
X016503Y010635D03*
X016648Y010635D03*
X016675Y010823D03*
X016675Y001673D03*
X016648Y001485D03*
X016503Y001485D03*
D59*
X017056Y001485D03*
X017056Y001678D03*
X017056Y010635D03*
X017056Y010828D03*
D60*
X017055Y010825D03*
X016653Y010640D03*
X017055Y001675D03*
X016653Y001490D03*
D61*
X016496Y001493D03*
X016841Y001490D03*
X016841Y001615D03*
X016676Y001678D03*
X017056Y001680D03*
X016841Y010640D03*
X016841Y010765D03*
X016676Y010828D03*
X016496Y010643D03*
X017056Y010830D03*
D62*
X017053Y010823D03*
X017053Y010640D03*
X016028Y010763D03*
X017053Y001673D03*
X017053Y001490D03*
X016028Y001613D03*
D63*
X016030Y001605D03*
X017050Y001670D03*
X017050Y001493D03*
X017050Y010643D03*
X017050Y010820D03*
X016030Y010755D03*
D64*
X015890Y010770D03*
X016485Y010693D03*
X015890Y001620D03*
X016485Y001543D03*
D65*
X016303Y001605D03*
X016303Y010755D03*
D66*
X016029Y010758D03*
X016029Y010760D03*
X016029Y001610D03*
X016029Y001608D03*
D67*
X016301Y001608D03*
X016301Y001610D03*
X016301Y010758D03*
X016301Y010760D03*
D68*
X016300Y010763D03*
X016300Y001613D03*
D69*
X016510Y001618D03*
X016510Y010768D03*
D70*
X016511Y010770D03*
X016511Y001620D03*
D71*
X016676Y001680D03*
X016676Y010830D03*
D72*
X015678Y011138D03*
X015678Y001988D03*
M02*
