%
M48
M72
T01C0.0140
T02C0.0400
T03C0.0787
%
T01
X1250Y2150
X1250Y3150
X3100Y4150
X4100Y4150
X5300Y3550
X6400Y4450
X7000Y3550
X8600Y4550
X10000Y4950
X11126Y4576
X11900Y4550
X12900Y4150
X13700Y3950
X14300Y3850
X14400Y4550
X14800Y4950
X15200Y5350
X14000Y5350
X12700Y5950
X12600Y6550
X13400Y6550
X14000Y7150
X14800Y7850
X15200Y8950
X16300Y8150
X16600Y7150
X17700Y9150
X12800Y9150
X12300Y9150
X12500Y9750
X12300Y10150
X11300Y10150
X11100Y8750
X10100Y7850
X10600Y7350
X11200Y7450
X9100Y8750
X8500Y9150
X7800Y9750
X7200Y9450
X5700Y9150
X5500Y8750
X6500Y7850
X6900Y7450
X7000Y8350
X7600Y8350
X4900Y7650
X4300Y7750
X3100Y8150
X4100Y7050
X3500Y6650
X3500Y5850
X4100Y5250
X5900Y6250
X6800Y5850
X11400Y5450
X11500Y2550
X16700Y4150
X17700Y4150
X17500Y4750
X1250Y9150
X1350Y10150
T02
X3800Y10650
X4800Y10650
X5800Y10650
X6800Y10650
X7800Y10650
X8800Y10650
X9800Y10650
X10800Y10650
X11800Y10650
X12800Y10650
X13800Y10650
X14800Y10650
X15800Y9650
X15800Y8650
X15800Y7650
X15800Y6650
X15800Y5650
X15800Y4650
X15800Y3650
X15800Y2650
X14800Y1650
X13800Y1650
X12800Y1650
X11800Y1650
X10800Y1650
X9800Y1650
X8800Y1650
X7800Y1650
X6800Y1650
X5800Y1650
X4800Y1650
X3800Y1650
X18850Y2650
X19850Y2650
X19850Y3650
X18850Y3650
X18850Y4650
X19850Y4650
X19850Y5650
X18850Y5650
X18850Y6650
X19850Y6650
X19850Y7650
X18850Y7650
X18850Y8650
X19850Y8650
X19850Y9650
X18850Y9650
T03
X1250Y900
X17250Y900
X17250Y11400
X1250Y11400
M30
