G75*
%MOIN*%
%OFA0B0*%
%FSLAX24Y24*%
%IPPOS*%
%LPD*%
%AMOC8*
5,1,8,0,0,1.08239X$1,22.5*
%
%ADD10R,0.0551X0.0157*%
%ADD11R,0.0748X0.0787*%
%ADD12R,0.0748X0.0866*%
%ADD13R,0.0315X0.0394*%
%ADD14R,0.0394X0.0315*%
%ADD15R,0.0295X0.0157*%
%ADD16C,0.0118*%
%ADD17R,0.0217X0.0472*%
%ADD18R,0.1181X0.0492*%
%ADD19C,0.0100*%
%ADD20R,0.1339X0.1339*%
%ADD21R,0.0790X0.0670*%
%ADD22R,0.0630X0.0709*%
D10*
X002422Y005588D03*
X002422Y005844D03*
X002422Y006100D03*
X002422Y006356D03*
X002422Y006612D03*
D11*
X001300Y006592D03*
X001300Y005608D03*
D12*
X001300Y004525D03*
X001300Y007675D03*
D13*
X003485Y008600D03*
X004115Y008600D03*
X004115Y009600D03*
X003485Y009600D03*
X004885Y007000D03*
X005515Y007000D03*
X005515Y005400D03*
X004885Y005400D03*
X004885Y004800D03*
X005515Y004800D03*
X005515Y004200D03*
X004885Y004200D03*
X004115Y003600D03*
X003485Y003600D03*
X003485Y002600D03*
X004115Y002600D03*
X005785Y003500D03*
X006415Y003500D03*
X006985Y004400D03*
X007615Y004400D03*
X007415Y005200D03*
X006785Y005200D03*
X010285Y005300D03*
X010915Y005300D03*
X011115Y008200D03*
X010485Y008200D03*
D14*
X014000Y008315D03*
X014000Y007685D03*
X014000Y006515D03*
X014000Y005885D03*
X010600Y004615D03*
X010600Y003985D03*
X010600Y003415D03*
X010600Y002785D03*
D15*
X005464Y006200D03*
X004736Y005944D03*
X004736Y006456D03*
X004736Y006456D03*
X004736Y006456D03*
D16*
X001093Y002738D02*
X001093Y002462D01*
X000817Y002462D01*
X000817Y002738D01*
X001093Y002738D01*
X001093Y002579D02*
X000817Y002579D01*
X000817Y002696D02*
X001093Y002696D01*
X001783Y002738D02*
X001783Y002462D01*
X001507Y002462D01*
X001507Y002738D01*
X001783Y002738D01*
X001783Y002579D02*
X001507Y002579D01*
X001507Y002696D02*
X001783Y002696D01*
X001783Y003462D02*
X001783Y003738D01*
X001783Y003462D02*
X001507Y003462D01*
X001507Y003738D01*
X001783Y003738D01*
X001783Y003579D02*
X001507Y003579D01*
X001507Y003696D02*
X001783Y003696D01*
X001093Y003738D02*
X001093Y003462D01*
X000817Y003462D01*
X000817Y003738D01*
X001093Y003738D01*
X001093Y003579D02*
X000817Y003579D01*
X000817Y003696D02*
X001093Y003696D01*
X001193Y008462D02*
X001193Y008738D01*
X001193Y008462D02*
X000917Y008462D01*
X000917Y008738D01*
X001193Y008738D01*
X001193Y008579D02*
X000917Y008579D01*
X000917Y008696D02*
X001193Y008696D01*
X001883Y008738D02*
X001883Y008462D01*
X001607Y008462D01*
X001607Y008738D01*
X001883Y008738D01*
X001883Y008579D02*
X001607Y008579D01*
X001607Y008696D02*
X001883Y008696D01*
X001883Y009462D02*
X001883Y009738D01*
X001883Y009462D02*
X001607Y009462D01*
X001607Y009738D01*
X001883Y009738D01*
X001883Y009579D02*
X001607Y009579D01*
X001607Y009696D02*
X001883Y009696D01*
X001193Y009738D02*
X001193Y009462D01*
X000917Y009462D01*
X000917Y009738D01*
X001193Y009738D01*
X001193Y009579D02*
X000917Y009579D01*
X000917Y009696D02*
X001193Y009696D01*
D17*
X011126Y003812D03*
X011500Y003812D03*
X011874Y003812D03*
X011874Y002788D03*
X011126Y002788D03*
D18*
X017052Y002600D03*
X017052Y003600D03*
X017052Y004600D03*
X017052Y005600D03*
X017052Y006600D03*
X017052Y007600D03*
X017052Y008600D03*
X017052Y009600D03*
D19*
X010168Y007289D02*
X009718Y007289D01*
X009718Y007092D02*
X010168Y007092D01*
X010168Y006895D02*
X009718Y006895D01*
X009718Y006698D02*
X010168Y006698D01*
X010168Y006502D02*
X009718Y006502D01*
X009718Y006305D02*
X010168Y006305D01*
X010168Y006108D02*
X009718Y006108D01*
X009718Y005911D02*
X010168Y005911D01*
X009589Y005782D02*
X009589Y005332D01*
X009392Y005332D02*
X009392Y005782D01*
X009195Y005782D02*
X009195Y005332D01*
X008998Y005332D02*
X008998Y005782D01*
X008802Y005782D02*
X008802Y005332D01*
X008605Y005332D02*
X008605Y005782D01*
X008408Y005782D02*
X008408Y005332D01*
X008211Y005332D02*
X008211Y005782D01*
X008082Y005911D02*
X007632Y005911D01*
X007632Y006108D02*
X008082Y006108D01*
X008082Y006305D02*
X007632Y006305D01*
X007632Y006502D02*
X008082Y006502D01*
X008082Y006698D02*
X007632Y006698D01*
X007632Y006895D02*
X008082Y006895D01*
X008082Y007092D02*
X007632Y007092D01*
X007632Y007289D02*
X008082Y007289D01*
X008211Y007418D02*
X008211Y007868D01*
X008408Y007868D02*
X008408Y007418D01*
X008605Y007418D02*
X008605Y007868D01*
X008802Y007868D02*
X008802Y007418D01*
X008998Y007418D02*
X008998Y007868D01*
X009195Y007868D02*
X009195Y007418D01*
X009392Y007418D02*
X009392Y007868D01*
X009589Y007868D02*
X009589Y007418D01*
D20*
X008900Y006600D03*
D21*
X004895Y008575D03*
X012695Y003475D03*
D22*
X013649Y002500D03*
X014751Y002500D03*
X014751Y009600D03*
X013649Y009600D03*
M02*
