G75*
%MOIN*%
%OFA0B0*%
%FSLAX24Y24*%
%IPPOS*%
%LPD*%
%AMOC8*
5,1,8,0,0,1.08239X$1,22.5*
%
%ADD10C,0.0000*%
D10*
X001200Y000100D02*
X017300Y000100D01*
X017350Y000102D01*
X017400Y000107D01*
X017449Y000116D01*
X017497Y000128D01*
X017545Y000144D01*
X017591Y000163D01*
X017635Y000186D01*
X017678Y000211D01*
X017719Y000240D01*
X017758Y000271D01*
X017795Y000305D01*
X017829Y000342D01*
X017860Y000381D01*
X017889Y000422D01*
X017914Y000465D01*
X017937Y000509D01*
X017956Y000555D01*
X017972Y000603D01*
X017984Y000651D01*
X017993Y000700D01*
X017998Y000750D01*
X018000Y000800D01*
X018000Y001460D01*
X018002Y001508D01*
X018007Y001555D01*
X018016Y001602D01*
X018028Y001649D01*
X018044Y001694D01*
X018063Y001738D01*
X018086Y001780D01*
X018111Y001821D01*
X018140Y001859D01*
X018171Y001895D01*
X018205Y001929D01*
X018241Y001960D01*
X018279Y001989D01*
X018320Y002014D01*
X018362Y002037D01*
X018406Y002056D01*
X018451Y002072D01*
X018498Y002084D01*
X018545Y002093D01*
X018592Y002098D01*
X018640Y002100D01*
X019860Y002100D01*
X019908Y002102D01*
X019955Y002107D01*
X020002Y002116D01*
X020049Y002128D01*
X020094Y002144D01*
X020138Y002163D01*
X020180Y002186D01*
X020221Y002211D01*
X020259Y002240D01*
X020295Y002271D01*
X020329Y002305D01*
X020360Y002341D01*
X020389Y002379D01*
X020414Y002420D01*
X020437Y002462D01*
X020456Y002506D01*
X020472Y002551D01*
X020484Y002598D01*
X020493Y002645D01*
X020498Y002692D01*
X020500Y002740D01*
X020500Y009460D01*
X020498Y009508D01*
X020493Y009555D01*
X020484Y009602D01*
X020472Y009649D01*
X020456Y009694D01*
X020437Y009738D01*
X020414Y009780D01*
X020389Y009821D01*
X020360Y009859D01*
X020329Y009895D01*
X020295Y009929D01*
X020259Y009960D01*
X020221Y009989D01*
X020180Y010014D01*
X020138Y010037D01*
X020094Y010056D01*
X020049Y010072D01*
X020002Y010084D01*
X019955Y010093D01*
X019908Y010098D01*
X019860Y010100D01*
X018640Y010100D01*
X018592Y010102D01*
X018545Y010107D01*
X018498Y010116D01*
X018451Y010128D01*
X018406Y010144D01*
X018362Y010163D01*
X018320Y010186D01*
X018279Y010211D01*
X018241Y010240D01*
X018205Y010271D01*
X018171Y010305D01*
X018140Y010341D01*
X018111Y010379D01*
X018086Y010420D01*
X018063Y010462D01*
X018044Y010506D01*
X018028Y010551D01*
X018016Y010598D01*
X018007Y010645D01*
X018002Y010692D01*
X018000Y010740D01*
X018000Y011400D01*
X017998Y011450D01*
X017993Y011500D01*
X017984Y011549D01*
X017972Y011597D01*
X017956Y011645D01*
X017937Y011691D01*
X017914Y011735D01*
X017889Y011778D01*
X017860Y011819D01*
X017829Y011858D01*
X017795Y011895D01*
X017758Y011929D01*
X017719Y011960D01*
X017678Y011989D01*
X017635Y012014D01*
X017591Y012037D01*
X017545Y012056D01*
X017497Y012072D01*
X017449Y012084D01*
X017400Y012093D01*
X017350Y012098D01*
X017300Y012100D01*
X001200Y012100D01*
X001150Y012098D01*
X001100Y012093D01*
X001051Y012084D01*
X001003Y012072D01*
X000955Y012056D01*
X000909Y012037D01*
X000865Y012014D01*
X000822Y011989D01*
X000781Y011960D01*
X000742Y011929D01*
X000705Y011895D01*
X000671Y011858D01*
X000640Y011819D01*
X000611Y011778D01*
X000586Y011735D01*
X000563Y011691D01*
X000544Y011645D01*
X000528Y011597D01*
X000516Y011549D01*
X000507Y011500D01*
X000502Y011450D01*
X000500Y011400D01*
X000500Y000800D01*
X000502Y000750D01*
X000507Y000700D01*
X000516Y000651D01*
X000528Y000603D01*
X000544Y000555D01*
X000563Y000509D01*
X000586Y000465D01*
X000611Y000422D01*
X000640Y000381D01*
X000671Y000342D01*
X000705Y000305D01*
X000742Y000271D01*
X000781Y000240D01*
X000822Y000211D01*
X000865Y000186D01*
X000909Y000163D01*
X000955Y000144D01*
X001003Y000128D01*
X001051Y000116D01*
X001100Y000107D01*
X001150Y000102D01*
X001200Y000100D01*
X000856Y000850D02*
X000858Y000889D01*
X000864Y000928D01*
X000874Y000966D01*
X000887Y001003D01*
X000904Y001038D01*
X000924Y001072D01*
X000948Y001103D01*
X000975Y001132D01*
X001004Y001158D01*
X001036Y001181D01*
X001070Y001201D01*
X001106Y001217D01*
X001143Y001229D01*
X001182Y001238D01*
X001221Y001243D01*
X001260Y001244D01*
X001299Y001241D01*
X001338Y001234D01*
X001375Y001223D01*
X001412Y001209D01*
X001447Y001191D01*
X001480Y001170D01*
X001511Y001145D01*
X001539Y001118D01*
X001564Y001088D01*
X001586Y001055D01*
X001605Y001021D01*
X001620Y000985D01*
X001632Y000947D01*
X001640Y000909D01*
X001644Y000870D01*
X001644Y000830D01*
X001640Y000791D01*
X001632Y000753D01*
X001620Y000715D01*
X001605Y000679D01*
X001586Y000645D01*
X001564Y000612D01*
X001539Y000582D01*
X001511Y000555D01*
X001480Y000530D01*
X001447Y000509D01*
X001412Y000491D01*
X001375Y000477D01*
X001338Y000466D01*
X001299Y000459D01*
X001260Y000456D01*
X001221Y000457D01*
X001182Y000462D01*
X001143Y000471D01*
X001106Y000483D01*
X001070Y000499D01*
X001036Y000519D01*
X001004Y000542D01*
X000975Y000568D01*
X000948Y000597D01*
X000924Y000628D01*
X000904Y000662D01*
X000887Y000697D01*
X000874Y000734D01*
X000864Y000772D01*
X000858Y000811D01*
X000856Y000850D01*
X016906Y000850D02*
X016908Y000889D01*
X016914Y000928D01*
X016924Y000966D01*
X016937Y001003D01*
X016954Y001038D01*
X016974Y001072D01*
X016998Y001103D01*
X017025Y001132D01*
X017054Y001158D01*
X017086Y001181D01*
X017120Y001201D01*
X017156Y001217D01*
X017193Y001229D01*
X017232Y001238D01*
X017271Y001243D01*
X017310Y001244D01*
X017349Y001241D01*
X017388Y001234D01*
X017425Y001223D01*
X017462Y001209D01*
X017497Y001191D01*
X017530Y001170D01*
X017561Y001145D01*
X017589Y001118D01*
X017614Y001088D01*
X017636Y001055D01*
X017655Y001021D01*
X017670Y000985D01*
X017682Y000947D01*
X017690Y000909D01*
X017694Y000870D01*
X017694Y000830D01*
X017690Y000791D01*
X017682Y000753D01*
X017670Y000715D01*
X017655Y000679D01*
X017636Y000645D01*
X017614Y000612D01*
X017589Y000582D01*
X017561Y000555D01*
X017530Y000530D01*
X017497Y000509D01*
X017462Y000491D01*
X017425Y000477D01*
X017388Y000466D01*
X017349Y000459D01*
X017310Y000456D01*
X017271Y000457D01*
X017232Y000462D01*
X017193Y000471D01*
X017156Y000483D01*
X017120Y000499D01*
X017086Y000519D01*
X017054Y000542D01*
X017025Y000568D01*
X016998Y000597D01*
X016974Y000628D01*
X016954Y000662D01*
X016937Y000697D01*
X016924Y000734D01*
X016914Y000772D01*
X016908Y000811D01*
X016906Y000850D01*
X016906Y011350D02*
X016908Y011389D01*
X016914Y011428D01*
X016924Y011466D01*
X016937Y011503D01*
X016954Y011538D01*
X016974Y011572D01*
X016998Y011603D01*
X017025Y011632D01*
X017054Y011658D01*
X017086Y011681D01*
X017120Y011701D01*
X017156Y011717D01*
X017193Y011729D01*
X017232Y011738D01*
X017271Y011743D01*
X017310Y011744D01*
X017349Y011741D01*
X017388Y011734D01*
X017425Y011723D01*
X017462Y011709D01*
X017497Y011691D01*
X017530Y011670D01*
X017561Y011645D01*
X017589Y011618D01*
X017614Y011588D01*
X017636Y011555D01*
X017655Y011521D01*
X017670Y011485D01*
X017682Y011447D01*
X017690Y011409D01*
X017694Y011370D01*
X017694Y011330D01*
X017690Y011291D01*
X017682Y011253D01*
X017670Y011215D01*
X017655Y011179D01*
X017636Y011145D01*
X017614Y011112D01*
X017589Y011082D01*
X017561Y011055D01*
X017530Y011030D01*
X017497Y011009D01*
X017462Y010991D01*
X017425Y010977D01*
X017388Y010966D01*
X017349Y010959D01*
X017310Y010956D01*
X017271Y010957D01*
X017232Y010962D01*
X017193Y010971D01*
X017156Y010983D01*
X017120Y010999D01*
X017086Y011019D01*
X017054Y011042D01*
X017025Y011068D01*
X016998Y011097D01*
X016974Y011128D01*
X016954Y011162D01*
X016937Y011197D01*
X016924Y011234D01*
X016914Y011272D01*
X016908Y011311D01*
X016906Y011350D01*
X000856Y011350D02*
X000858Y011389D01*
X000864Y011428D01*
X000874Y011466D01*
X000887Y011503D01*
X000904Y011538D01*
X000924Y011572D01*
X000948Y011603D01*
X000975Y011632D01*
X001004Y011658D01*
X001036Y011681D01*
X001070Y011701D01*
X001106Y011717D01*
X001143Y011729D01*
X001182Y011738D01*
X001221Y011743D01*
X001260Y011744D01*
X001299Y011741D01*
X001338Y011734D01*
X001375Y011723D01*
X001412Y011709D01*
X001447Y011691D01*
X001480Y011670D01*
X001511Y011645D01*
X001539Y011618D01*
X001564Y011588D01*
X001586Y011555D01*
X001605Y011521D01*
X001620Y011485D01*
X001632Y011447D01*
X001640Y011409D01*
X001644Y011370D01*
X001644Y011330D01*
X001640Y011291D01*
X001632Y011253D01*
X001620Y011215D01*
X001605Y011179D01*
X001586Y011145D01*
X001564Y011112D01*
X001539Y011082D01*
X001511Y011055D01*
X001480Y011030D01*
X001447Y011009D01*
X001412Y010991D01*
X001375Y010977D01*
X001338Y010966D01*
X001299Y010959D01*
X001260Y010956D01*
X001221Y010957D01*
X001182Y010962D01*
X001143Y010971D01*
X001106Y010983D01*
X001070Y010999D01*
X001036Y011019D01*
X001004Y011042D01*
X000975Y011068D01*
X000948Y011097D01*
X000924Y011128D01*
X000904Y011162D01*
X000887Y011197D01*
X000874Y011234D01*
X000864Y011272D01*
X000858Y011311D01*
X000856Y011350D01*
M02*
