G75*
%MOIN*%
%OFA0B0*%
%FSLAX24Y24*%
%IPPOS*%
%LPD*%
%AMOC8*
5,1,8,0,0,1.08239X$1,22.5*
%
%ADD10C,0.0050*%
%ADD11R,0.6500X0.1000*%
%ADD12C,0.0040*%
%ADD13C,0.0080*%
%ADD14C,0.0060*%
%ADD15R,0.0050X0.0010*%
%ADD16R,0.0070X0.0010*%
%ADD17R,0.0090X0.0010*%
%ADD18R,0.0110X0.0010*%
%ADD19R,0.0130X0.0010*%
%ADD20R,0.0150X0.0010*%
%ADD21R,0.0170X0.0010*%
%ADD22R,0.0190X0.0010*%
%ADD23R,0.0210X0.0010*%
%ADD24R,0.0230X0.0010*%
%ADD25R,0.0240X0.0010*%
%ADD26R,0.0260X0.0010*%
%ADD27R,0.0270X0.0010*%
%ADD28R,0.0280X0.0010*%
%ADD29R,0.0140X0.0010*%
%ADD30R,0.0250X0.0010*%
%ADD31R,0.0160X0.0010*%
%ADD32R,0.0180X0.0010*%
%ADD33R,0.0200X0.0010*%
%ADD34R,0.0220X0.0010*%
%ADD35R,0.0020X0.0010*%
%ADD36R,0.0290X0.0010*%
%ADD37R,0.0300X0.0010*%
%ADD38R,0.0310X0.0010*%
%ADD39R,0.0320X0.0010*%
%ADD40R,0.0330X0.0010*%
%ADD41R,0.0040X0.0010*%
%ADD42R,0.0060X0.0010*%
%ADD43R,0.0080X0.0010*%
%ADD44R,0.0100X0.0010*%
%ADD45R,0.0120X0.0010*%
%ADD46R,0.0030X0.0010*%
%ADD47R,0.0350X0.0010*%
%ADD48R,0.0380X0.0010*%
%ADD49R,0.0420X0.0010*%
%ADD50R,0.0450X0.0010*%
%ADD51R,0.0340X0.0010*%
%ADD52R,0.0480X0.0010*%
%ADD53R,0.0390X0.0010*%
%ADD54R,0.0410X0.0010*%
%ADD55R,0.0430X0.0010*%
%ADD56R,0.0460X0.0010*%
%ADD57R,0.0470X0.0010*%
%ADD58R,0.0400X0.0010*%
%ADD59R,0.0490X0.0010*%
%ADD60R,0.0510X0.0010*%
%ADD61R,0.0370X0.0010*%
%ADD62R,0.0590X0.0010*%
%ADD63R,0.0500X0.0010*%
%ADD64R,0.0580X0.0010*%
%ADD65R,0.0570X0.0010*%
%ADD66R,0.0530X0.0010*%
%ADD67R,0.0520X0.0010*%
%ADD68R,0.0360X0.0010*%
%ADD69R,0.0010X0.0010*%
%ADD70C,0.0000*%
D10*
X008194Y003825D02*
X008239Y003825D01*
X008239Y003870D01*
X008194Y003870D01*
X008194Y003825D01*
X008194Y003960D02*
X008239Y003960D01*
X008239Y004005D01*
X008194Y004005D01*
X008194Y003960D01*
X008350Y004005D02*
X008395Y004005D01*
X008485Y003915D01*
X008485Y003825D02*
X008485Y004005D01*
X008599Y003960D02*
X008599Y003915D01*
X008779Y003915D01*
X008779Y003870D02*
X008779Y003960D01*
X008734Y004005D01*
X008644Y004005D01*
X008599Y003960D01*
X008644Y003825D02*
X008734Y003825D01*
X008779Y003870D01*
X008894Y003870D02*
X008894Y003960D01*
X008939Y004005D01*
X009074Y004005D01*
X009074Y004095D02*
X009074Y003825D01*
X008939Y003825D01*
X008894Y003870D01*
X009189Y003825D02*
X009189Y003960D01*
X009234Y004005D01*
X009279Y003960D01*
X009279Y003825D01*
X009369Y003825D02*
X009369Y004005D01*
X009324Y004005D01*
X009279Y003960D01*
X009483Y004005D02*
X009483Y003825D01*
X009618Y003825D01*
X009663Y003870D01*
X009663Y004005D01*
X009778Y004095D02*
X009778Y003825D01*
X009958Y004095D01*
X009958Y003825D01*
X010359Y003825D02*
X010449Y003825D01*
X010404Y003825D02*
X010404Y004095D01*
X010449Y004095D01*
X010449Y004225D02*
X010269Y004225D01*
X010154Y004225D02*
X010109Y004225D01*
X010109Y004270D01*
X010154Y004270D01*
X010154Y004225D01*
X010007Y004270D02*
X009827Y004450D01*
X009827Y004270D01*
X009872Y004225D01*
X009962Y004225D01*
X010007Y004270D01*
X010007Y004450D01*
X009962Y004495D01*
X009872Y004495D01*
X009827Y004450D01*
X010269Y004450D02*
X010269Y004405D01*
X010449Y004225D01*
X010846Y004225D02*
X010891Y004225D01*
X010891Y004270D01*
X010846Y004270D01*
X010846Y004225D01*
X010895Y004140D02*
X010895Y004095D01*
X010895Y004005D02*
X010895Y003825D01*
X010940Y003825D02*
X010850Y003825D01*
X010744Y003870D02*
X010699Y003915D01*
X010564Y003915D01*
X010564Y003960D02*
X010564Y003825D01*
X010699Y003825D01*
X010744Y003870D01*
X010699Y004005D02*
X010609Y004005D01*
X010564Y003960D01*
X010895Y004005D02*
X010940Y004005D01*
X011051Y004005D02*
X011096Y004005D01*
X011186Y003915D01*
X011186Y003825D02*
X011186Y004005D01*
X011300Y003960D02*
X011300Y003915D01*
X011480Y003915D01*
X011480Y003870D02*
X011480Y003960D01*
X011435Y004005D01*
X011345Y004005D01*
X011300Y003960D01*
X011345Y003825D02*
X011435Y003825D01*
X011480Y003870D01*
X011595Y003870D02*
X011595Y003915D01*
X011640Y003960D01*
X011730Y003960D01*
X011775Y004005D01*
X011775Y004050D01*
X011730Y004095D01*
X011640Y004095D01*
X011595Y004050D01*
X011595Y004225D02*
X011685Y004315D01*
X011640Y004315D02*
X011775Y004315D01*
X011775Y004225D02*
X011775Y004495D01*
X011640Y004495D01*
X011595Y004450D01*
X011595Y004360D01*
X011640Y004315D01*
X011480Y004315D02*
X011300Y004315D01*
X011300Y004360D01*
X011345Y004405D01*
X011435Y004405D01*
X011480Y004360D01*
X011480Y004270D01*
X011435Y004225D01*
X011345Y004225D01*
X011186Y004405D02*
X011096Y004225D01*
X011006Y004405D01*
X010449Y004450D02*
X010404Y004495D01*
X010314Y004495D01*
X010269Y004450D01*
X011595Y003870D02*
X011640Y003825D01*
X011730Y003825D01*
X011775Y003870D01*
D11*
X008750Y003100D03*
D12*
X008713Y002432D02*
X008680Y002399D01*
X008680Y002332D01*
X008713Y002299D01*
X008847Y002299D01*
X008880Y002332D01*
X008880Y002399D01*
X008847Y002432D01*
X008880Y002211D02*
X008680Y002211D01*
X008880Y002078D01*
X008680Y002078D01*
X007880Y002078D02*
X007680Y002211D01*
X007880Y002211D01*
X007847Y002299D02*
X007713Y002299D01*
X007680Y002332D01*
X007680Y002399D01*
X007713Y002432D01*
X007847Y002432D02*
X007880Y002399D01*
X007880Y002332D01*
X007847Y002299D01*
X007880Y002078D02*
X007680Y002078D01*
X006880Y002078D02*
X006680Y002211D01*
X006880Y002211D01*
X006847Y002299D02*
X006713Y002299D01*
X006680Y002332D01*
X006680Y002399D01*
X006713Y002432D01*
X006847Y002432D02*
X006880Y002399D01*
X006880Y002332D01*
X006847Y002299D01*
X006880Y002078D02*
X006680Y002078D01*
X005880Y002078D02*
X005680Y002211D01*
X005880Y002211D01*
X005847Y002299D02*
X005713Y002299D01*
X005680Y002332D01*
X005680Y002399D01*
X005713Y002432D01*
X005847Y002432D02*
X005880Y002399D01*
X005880Y002332D01*
X005847Y002299D01*
X005880Y002078D02*
X005680Y002078D01*
X004880Y002078D02*
X004680Y002211D01*
X004880Y002211D01*
X004847Y002299D02*
X004713Y002299D01*
X004680Y002332D01*
X004680Y002399D01*
X004713Y002432D01*
X004847Y002432D02*
X004880Y002399D01*
X004880Y002332D01*
X004847Y002299D01*
X004880Y002078D02*
X004680Y002078D01*
X003880Y002078D02*
X003680Y002211D01*
X003880Y002211D01*
X003847Y002299D02*
X003713Y002299D01*
X003680Y002332D01*
X003680Y002399D01*
X003713Y002432D01*
X003847Y002432D02*
X003880Y002399D01*
X003880Y002332D01*
X003847Y002299D01*
X003880Y002078D02*
X003680Y002078D01*
X009680Y002078D02*
X009880Y002078D01*
X009680Y002211D01*
X009880Y002211D01*
X009847Y002299D02*
X009713Y002299D01*
X009680Y002332D01*
X009680Y002399D01*
X009713Y002432D01*
X009847Y002432D02*
X009880Y002399D01*
X009880Y002332D01*
X009847Y002299D01*
X010680Y002332D02*
X010680Y002399D01*
X010713Y002432D01*
X010680Y002332D02*
X010713Y002299D01*
X010847Y002299D01*
X010880Y002332D01*
X010880Y002399D01*
X010847Y002432D01*
X010880Y002211D02*
X010680Y002211D01*
X010880Y002078D01*
X010680Y002078D01*
X011780Y002078D02*
X011980Y002078D01*
X011780Y002211D01*
X011980Y002211D01*
X011947Y002299D02*
X011813Y002299D01*
X011780Y002332D01*
X011780Y002399D01*
X011813Y002432D01*
X011947Y002432D02*
X011980Y002399D01*
X011980Y002332D01*
X011947Y002299D01*
X012680Y002332D02*
X012680Y002399D01*
X012713Y002432D01*
X012680Y002332D02*
X012713Y002299D01*
X012847Y002299D01*
X012880Y002332D01*
X012880Y002399D01*
X012847Y002432D01*
X012880Y002211D02*
X012680Y002211D01*
X012880Y002078D01*
X012680Y002078D01*
X013680Y002090D02*
X013713Y002057D01*
X013680Y002090D02*
X013680Y002157D01*
X013713Y002190D01*
X013747Y002190D01*
X013780Y002157D01*
X013780Y002124D01*
X013780Y002157D02*
X013813Y002190D01*
X013847Y002190D01*
X013880Y002157D01*
X013880Y002090D01*
X013847Y002057D01*
X013880Y002278D02*
X013747Y002278D01*
X013680Y002345D01*
X013747Y002411D01*
X013880Y002411D01*
X013847Y002499D02*
X013880Y002532D01*
X013880Y002599D01*
X013847Y002632D01*
X013813Y002632D01*
X013780Y002599D01*
X013747Y002632D01*
X013713Y002632D01*
X013680Y002599D01*
X013680Y002532D01*
X013713Y002499D01*
X013780Y002566D02*
X013780Y002599D01*
X014680Y002599D02*
X014680Y002499D01*
X014880Y002499D01*
X014880Y002599D01*
X014847Y002632D01*
X014713Y002632D01*
X014680Y002599D01*
X014680Y002411D02*
X014880Y002411D01*
X014880Y002278D02*
X014680Y002278D01*
X014713Y002190D02*
X014780Y002190D01*
X014780Y002124D01*
X014713Y002190D02*
X014680Y002157D01*
X014680Y002090D01*
X014713Y002057D01*
X014847Y002057D01*
X014880Y002090D01*
X014880Y002157D01*
X014847Y002190D01*
X014880Y002278D02*
X014680Y002411D01*
X016320Y002420D02*
X016320Y002320D01*
X016520Y002320D01*
X016520Y002420D01*
X016487Y002453D01*
X016353Y002453D01*
X016320Y002420D01*
X016353Y002541D02*
X016320Y002574D01*
X016320Y002641D01*
X016353Y002674D01*
X016387Y002674D01*
X016420Y002641D01*
X016420Y002574D01*
X016453Y002541D01*
X016487Y002541D01*
X016520Y002574D01*
X016520Y002641D01*
X016487Y002674D01*
X016520Y002762D02*
X016320Y002762D01*
X016387Y002762D02*
X016387Y002862D01*
X016420Y002895D01*
X016487Y002895D01*
X016520Y002862D01*
X016520Y002762D01*
X016387Y002829D02*
X016320Y002895D01*
X016320Y002983D02*
X016320Y003116D01*
X016320Y003050D02*
X016520Y003050D01*
X016453Y002983D01*
X016387Y003220D02*
X016387Y003320D01*
X016420Y003353D01*
X016487Y003353D01*
X016520Y003320D01*
X016520Y003220D01*
X016320Y003220D01*
X016387Y003287D02*
X016320Y003353D01*
X016320Y003508D02*
X016520Y003508D01*
X016520Y003574D02*
X016520Y003441D01*
X016487Y003662D02*
X016453Y003662D01*
X016420Y003695D01*
X016420Y003762D01*
X016387Y003795D01*
X016353Y003795D01*
X016320Y003762D01*
X016320Y003695D01*
X016353Y003662D01*
X016487Y003662D02*
X016520Y003695D01*
X016520Y003762D01*
X016487Y003795D01*
X016453Y003883D02*
X016520Y003950D01*
X016320Y003950D01*
X016320Y004016D02*
X016320Y003883D01*
X016320Y004220D02*
X016320Y004320D01*
X016353Y004353D01*
X016487Y004353D01*
X016520Y004320D01*
X016520Y004220D01*
X016320Y004220D01*
X016320Y004508D02*
X016520Y004508D01*
X016520Y004574D02*
X016520Y004441D01*
X016520Y004662D02*
X016320Y004662D01*
X016387Y004662D02*
X016387Y004762D01*
X016420Y004795D01*
X016487Y004795D01*
X016520Y004762D01*
X016520Y004662D01*
X016387Y004729D02*
X016320Y004795D01*
X016320Y004883D02*
X016320Y005016D01*
X016320Y004950D02*
X016520Y004950D01*
X016453Y004883D01*
X016387Y005120D02*
X016387Y005220D01*
X016420Y005253D01*
X016487Y005253D01*
X016520Y005220D01*
X016520Y005120D01*
X016320Y005120D01*
X016387Y005187D02*
X016320Y005253D01*
X016320Y005341D02*
X016520Y005474D01*
X016520Y005562D02*
X016320Y005562D01*
X016320Y005662D01*
X016353Y005695D01*
X016487Y005695D01*
X016520Y005662D01*
X016520Y005562D01*
X016320Y005474D02*
X016520Y005341D01*
X016453Y005783D02*
X016520Y005850D01*
X016320Y005850D01*
X016320Y005916D02*
X016320Y005783D01*
X016520Y006220D02*
X016520Y006353D01*
X016520Y006287D02*
X016320Y006287D01*
X016320Y006441D02*
X016520Y006574D01*
X016520Y006662D02*
X016520Y006762D01*
X016487Y006795D01*
X016353Y006795D01*
X016320Y006762D01*
X016320Y006662D01*
X016520Y006662D01*
X016320Y006574D02*
X016520Y006441D01*
X016453Y006883D02*
X016520Y006950D01*
X016320Y006950D01*
X016320Y007016D02*
X016320Y006883D01*
X016387Y007320D02*
X016320Y007387D01*
X016387Y007453D01*
X016520Y007453D01*
X016487Y007541D02*
X016520Y007574D01*
X016520Y007641D01*
X016487Y007674D01*
X016487Y007762D02*
X016353Y007762D01*
X016320Y007795D01*
X016320Y007862D01*
X016353Y007895D01*
X016487Y007895D02*
X016520Y007862D01*
X016520Y007795D01*
X016487Y007762D01*
X016353Y007674D02*
X016320Y007641D01*
X016320Y007574D01*
X016353Y007541D01*
X016487Y007541D01*
X016520Y007320D02*
X016387Y007320D01*
X016353Y008220D02*
X016320Y008253D01*
X016320Y008320D01*
X016353Y008353D01*
X016353Y008220D02*
X016487Y008220D01*
X016520Y008253D01*
X016520Y008320D01*
X016487Y008353D01*
X016520Y008441D02*
X016520Y008574D01*
X016520Y008508D02*
X016320Y008508D01*
X016353Y008662D02*
X016320Y008695D01*
X016320Y008762D01*
X016353Y008795D01*
X016387Y008795D01*
X016420Y008762D01*
X016420Y008695D01*
X016453Y008662D01*
X016487Y008662D01*
X016520Y008695D01*
X016520Y008762D01*
X016487Y008795D01*
X016453Y008883D02*
X016520Y008950D01*
X016320Y008950D01*
X016320Y009016D02*
X016320Y008883D01*
X016353Y009320D02*
X016320Y009353D01*
X016320Y009420D01*
X016353Y009453D01*
X016420Y009453D01*
X016420Y009387D01*
X016487Y009453D02*
X016520Y009420D01*
X016520Y009353D01*
X016487Y009320D01*
X016353Y009320D01*
X016320Y009541D02*
X016520Y009541D01*
X016320Y009674D01*
X016520Y009674D01*
X016520Y009762D02*
X016320Y009762D01*
X016320Y009862D01*
X016353Y009895D01*
X016487Y009895D01*
X016520Y009862D01*
X016520Y009762D01*
X014880Y009778D02*
X014680Y009911D01*
X014880Y009911D01*
X014880Y009999D02*
X014680Y009999D01*
X014680Y010099D01*
X014713Y010132D01*
X014847Y010132D01*
X014880Y010099D01*
X014880Y009999D01*
X014880Y009778D02*
X014680Y009778D01*
X014713Y009690D02*
X014780Y009690D01*
X014780Y009624D01*
X014713Y009690D02*
X014680Y009657D01*
X014680Y009590D01*
X014713Y009557D01*
X014847Y009557D01*
X014880Y009590D01*
X014880Y009657D01*
X014847Y009690D01*
X013880Y009690D02*
X013880Y009557D01*
X013780Y009557D01*
X013813Y009624D01*
X013813Y009657D01*
X013780Y009690D01*
X013713Y009690D01*
X013680Y009657D01*
X013680Y009590D01*
X013713Y009557D01*
X013747Y009778D02*
X013680Y009845D01*
X013747Y009911D01*
X013880Y009911D01*
X013847Y009999D02*
X013880Y010032D01*
X013880Y010099D01*
X013847Y010132D01*
X013713Y009999D01*
X013680Y010032D01*
X013680Y010099D01*
X013713Y010132D01*
X013847Y010132D01*
X013847Y009999D02*
X013713Y009999D01*
X013747Y009778D02*
X013880Y009778D01*
X012880Y009778D02*
X012680Y009911D01*
X012880Y009911D01*
X012847Y009999D02*
X012713Y009999D01*
X012680Y010032D01*
X012680Y010099D01*
X012713Y010132D01*
X012847Y010132D02*
X012880Y010099D01*
X012880Y010032D01*
X012847Y009999D01*
X012880Y009778D02*
X012680Y009778D01*
X011880Y009778D02*
X011680Y009911D01*
X011880Y009911D01*
X011847Y009999D02*
X011713Y009999D01*
X011680Y010032D01*
X011680Y010099D01*
X011713Y010132D01*
X011847Y010132D02*
X011880Y010099D01*
X011880Y010032D01*
X011847Y009999D01*
X011880Y009778D02*
X011680Y009778D01*
X010880Y009778D02*
X010680Y009911D01*
X010680Y009999D02*
X010680Y010099D01*
X010713Y010132D01*
X010847Y010132D01*
X010880Y010099D01*
X010880Y009999D01*
X010680Y009999D01*
X010880Y009911D02*
X010680Y009778D01*
X010680Y009624D02*
X010880Y009624D01*
X010880Y009690D02*
X010880Y009557D01*
X009880Y009557D02*
X009880Y009657D01*
X009847Y009690D01*
X009780Y009690D01*
X009747Y009657D01*
X009747Y009557D01*
X009747Y009624D02*
X009680Y009690D01*
X009680Y009778D02*
X009880Y009911D01*
X009880Y009999D02*
X009680Y009999D01*
X009680Y010099D01*
X009713Y010132D01*
X009847Y010132D01*
X009880Y010099D01*
X009880Y009999D01*
X009680Y009911D02*
X009880Y009778D01*
X009880Y009557D02*
X009680Y009557D01*
X008880Y009590D02*
X008847Y009557D01*
X008713Y009557D01*
X008680Y009590D01*
X008680Y009657D01*
X008713Y009690D01*
X008847Y009690D02*
X008880Y009657D01*
X008880Y009590D01*
X008880Y009778D02*
X008880Y009911D01*
X008880Y009845D02*
X008680Y009845D01*
X008713Y009999D02*
X008680Y010032D01*
X008680Y010099D01*
X008713Y010132D01*
X008747Y010132D01*
X008780Y010099D01*
X008780Y010032D01*
X008813Y009999D01*
X008847Y009999D01*
X008880Y010032D01*
X008880Y010099D01*
X008847Y010132D01*
X007880Y010099D02*
X007880Y010032D01*
X007847Y009999D01*
X007813Y009999D01*
X007780Y010032D01*
X007780Y010099D01*
X007747Y010132D01*
X007713Y010132D01*
X007680Y010099D01*
X007680Y010032D01*
X007713Y009999D01*
X007680Y009845D02*
X007880Y009845D01*
X007880Y009911D02*
X007880Y009778D01*
X007847Y009690D02*
X007780Y009690D01*
X007747Y009657D01*
X007747Y009557D01*
X007747Y009624D02*
X007680Y009690D01*
X007680Y009557D02*
X007880Y009557D01*
X007880Y009657D01*
X007847Y009690D01*
X007880Y010099D02*
X007847Y010132D01*
X006880Y010099D02*
X006880Y009999D01*
X006680Y009999D01*
X006747Y009999D02*
X006747Y010099D01*
X006780Y010132D01*
X006847Y010132D01*
X006880Y010099D01*
X006747Y010066D02*
X006680Y010132D01*
X006680Y009845D02*
X006880Y009845D01*
X006880Y009911D02*
X006880Y009778D01*
X006847Y009690D02*
X006713Y009690D01*
X006680Y009657D01*
X006680Y009557D01*
X006880Y009557D01*
X006880Y009657D01*
X006847Y009690D01*
X005880Y009657D02*
X005880Y009557D01*
X005680Y009557D01*
X005680Y009657D01*
X005713Y009690D01*
X005847Y009690D01*
X005880Y009657D01*
X005847Y009778D02*
X005813Y009778D01*
X005780Y009811D01*
X005780Y009878D01*
X005747Y009911D01*
X005713Y009911D01*
X005680Y009878D01*
X005680Y009811D01*
X005713Y009778D01*
X005847Y009778D02*
X005880Y009811D01*
X005880Y009878D01*
X005847Y009911D01*
X005880Y009999D02*
X005680Y009999D01*
X005747Y009999D02*
X005747Y010099D01*
X005780Y010132D01*
X005847Y010132D01*
X005880Y010099D01*
X005880Y009999D01*
X005747Y010066D02*
X005680Y010132D01*
X004880Y010099D02*
X004880Y009999D01*
X004680Y009999D01*
X004680Y010099D01*
X004713Y010132D01*
X004847Y010132D01*
X004880Y010099D01*
X004847Y009911D02*
X004880Y009878D01*
X004880Y009811D01*
X004847Y009778D01*
X004713Y009778D01*
X004680Y009811D01*
X004680Y009878D01*
X004713Y009911D01*
X004713Y009690D02*
X004847Y009690D01*
X004880Y009657D01*
X004880Y009557D01*
X004680Y009557D01*
X004680Y009657D01*
X004713Y009690D01*
X003880Y009852D02*
X003880Y009952D01*
X003847Y009985D01*
X003780Y009985D01*
X003747Y009952D01*
X003747Y009852D01*
X003747Y009918D02*
X003680Y009985D01*
X003680Y010073D02*
X003680Y010139D01*
X003680Y010106D02*
X003880Y010106D01*
X003880Y010073D02*
X003880Y010139D01*
X003880Y009852D02*
X003680Y009852D01*
X019320Y009883D02*
X019320Y010016D01*
X019320Y009950D02*
X019520Y009950D01*
X019453Y009883D01*
X019420Y009795D02*
X019387Y009762D01*
X019387Y009662D01*
X019387Y009729D02*
X019320Y009795D01*
X019420Y009795D02*
X019487Y009795D01*
X019520Y009762D01*
X019520Y009662D01*
X019320Y009662D01*
X019353Y009574D02*
X019320Y009541D01*
X019320Y009474D01*
X019353Y009441D01*
X019420Y009474D02*
X019453Y009441D01*
X019487Y009441D01*
X019520Y009474D01*
X019520Y009541D01*
X019487Y009574D01*
X019420Y009541D02*
X019387Y009574D01*
X019353Y009574D01*
X019420Y009541D02*
X019420Y009474D01*
X019353Y009353D02*
X019487Y009353D01*
X019520Y009320D01*
X019520Y009220D01*
X019320Y009220D01*
X019320Y009320D01*
X019353Y009353D01*
X019320Y009016D02*
X019320Y008883D01*
X019320Y008950D02*
X019520Y008950D01*
X019453Y008883D01*
X019487Y008795D02*
X019520Y008762D01*
X019520Y008695D01*
X019487Y008662D01*
X019453Y008662D01*
X019420Y008695D01*
X019420Y008762D01*
X019387Y008795D01*
X019353Y008795D01*
X019320Y008762D01*
X019320Y008695D01*
X019353Y008662D01*
X019320Y008508D02*
X019520Y008508D01*
X019520Y008574D02*
X019520Y008441D01*
X019487Y008353D02*
X019420Y008353D01*
X019387Y008320D01*
X019387Y008220D01*
X019387Y008287D02*
X019320Y008353D01*
X019320Y008220D02*
X019520Y008220D01*
X019520Y008320D01*
X019487Y008353D01*
X019320Y008016D02*
X019320Y007883D01*
X019320Y007950D02*
X019520Y007950D01*
X019453Y007883D01*
X019420Y007795D02*
X019387Y007762D01*
X019387Y007662D01*
X019387Y007729D02*
X019320Y007795D01*
X019420Y007795D02*
X019487Y007795D01*
X019520Y007762D01*
X019520Y007662D01*
X019320Y007662D01*
X019320Y007508D02*
X019520Y007508D01*
X019520Y007574D02*
X019520Y007441D01*
X019487Y007353D02*
X019520Y007320D01*
X019520Y007220D01*
X019320Y007220D01*
X019320Y007320D01*
X019353Y007353D01*
X019487Y007353D01*
X019320Y007016D02*
X019320Y006883D01*
X019320Y006950D02*
X019520Y006950D01*
X019453Y006883D01*
X019487Y006795D02*
X019520Y006762D01*
X019520Y006662D01*
X019320Y006662D01*
X019320Y006762D01*
X019353Y006795D01*
X019487Y006795D01*
X019520Y006574D02*
X019320Y006441D01*
X019320Y006353D02*
X019387Y006287D01*
X019387Y006320D02*
X019387Y006220D01*
X019320Y006220D02*
X019520Y006220D01*
X019520Y006320D01*
X019487Y006353D01*
X019420Y006353D01*
X019387Y006320D01*
X019520Y006441D02*
X019320Y006574D01*
X019320Y006016D02*
X019320Y005883D01*
X019320Y005950D02*
X019520Y005950D01*
X019453Y005883D01*
X019487Y005795D02*
X019520Y005762D01*
X019520Y005662D01*
X019320Y005662D01*
X019320Y005762D01*
X019353Y005795D01*
X019487Y005795D01*
X019520Y005574D02*
X019320Y005441D01*
X019320Y005574D02*
X019520Y005441D01*
X019520Y005353D02*
X019520Y005220D01*
X019520Y005287D02*
X019320Y005287D01*
X019353Y004895D02*
X019320Y004862D01*
X019320Y004795D01*
X019353Y004762D01*
X019487Y004762D01*
X019520Y004795D01*
X019520Y004862D01*
X019487Y004895D01*
X019487Y004674D02*
X019520Y004641D01*
X019520Y004574D01*
X019487Y004541D01*
X019353Y004541D01*
X019320Y004574D01*
X019320Y004641D01*
X019353Y004674D01*
X019387Y004453D02*
X019520Y004453D01*
X019520Y004320D02*
X019387Y004320D01*
X019320Y004387D01*
X019387Y004453D01*
X019320Y004016D02*
X019320Y003883D01*
X019320Y003950D02*
X019520Y003950D01*
X019453Y003883D01*
X019487Y003795D02*
X019520Y003762D01*
X019520Y003695D01*
X019487Y003662D01*
X019453Y003662D01*
X019420Y003695D01*
X019420Y003762D01*
X019387Y003795D01*
X019353Y003795D01*
X019320Y003762D01*
X019320Y003695D01*
X019353Y003662D01*
X019520Y003574D02*
X019520Y003441D01*
X019520Y003508D02*
X019320Y003508D01*
X019353Y003353D02*
X019320Y003320D01*
X019320Y003253D01*
X019353Y003220D01*
X019487Y003220D01*
X019520Y003253D01*
X019520Y003320D01*
X019487Y003353D01*
X019487Y002895D02*
X019520Y002862D01*
X019520Y002762D01*
X019320Y002762D01*
X019320Y002862D01*
X019353Y002895D01*
X019487Y002895D01*
X019520Y002674D02*
X019320Y002674D01*
X019520Y002541D01*
X019320Y002541D01*
X019353Y002453D02*
X019420Y002453D01*
X019420Y002387D01*
X019353Y002453D02*
X019320Y002420D01*
X019320Y002353D01*
X019353Y002320D01*
X019487Y002320D01*
X019520Y002353D01*
X019520Y002420D01*
X019487Y002453D01*
D13*
X012660Y007840D02*
X012660Y008320D01*
X012420Y008320D01*
X012340Y008240D01*
X012340Y008080D01*
X012420Y008000D01*
X012660Y008000D01*
X012144Y007920D02*
X012064Y008000D01*
X011824Y008000D01*
X011824Y008080D02*
X011824Y007840D01*
X012064Y007840D01*
X012144Y007920D01*
X012064Y008160D02*
X011904Y008160D01*
X011824Y008080D01*
X011629Y008160D02*
X011469Y008160D01*
X011549Y008240D02*
X011549Y007920D01*
X011469Y007840D01*
X011205Y007920D02*
X011125Y007840D01*
X011205Y007920D02*
X011205Y008240D01*
X011285Y008160D02*
X011125Y008160D01*
X010941Y008080D02*
X010861Y008160D01*
X010701Y008160D01*
X010621Y008080D01*
X010621Y008000D01*
X010941Y008000D01*
X010941Y007920D02*
X010941Y008080D01*
X010941Y007920D02*
X010861Y007840D01*
X010701Y007840D01*
X010426Y007840D02*
X010426Y008160D01*
X010426Y008000D02*
X010265Y008160D01*
X010185Y008160D01*
X009996Y008160D02*
X009756Y008160D01*
X009676Y008080D01*
X009676Y007840D01*
X009480Y007840D02*
X009480Y008160D01*
X009320Y008320D01*
X009160Y008160D01*
X009160Y007840D01*
X008965Y007920D02*
X008885Y007840D01*
X008644Y007840D01*
X008644Y007760D02*
X008644Y008160D01*
X008885Y008160D01*
X008965Y008080D01*
X008965Y007920D01*
X009160Y008080D02*
X009480Y008080D01*
X009996Y008160D02*
X009996Y007840D01*
X008804Y007680D02*
X008724Y007680D01*
X008644Y007760D01*
X008449Y007920D02*
X008449Y008080D01*
X008369Y008160D01*
X008209Y008160D01*
X008129Y008080D01*
X008129Y008000D01*
X008449Y008000D01*
X008449Y007920D02*
X008369Y007840D01*
X008209Y007840D01*
X007933Y007840D02*
X007933Y008160D01*
X007693Y008160D01*
X007613Y008080D01*
X007613Y007840D01*
X007338Y007920D02*
X007258Y007840D01*
X007338Y007920D02*
X007338Y008240D01*
X007418Y008160D02*
X007258Y008160D01*
X007074Y008080D02*
X006994Y008000D01*
X006834Y008000D01*
X006754Y007920D01*
X006834Y007840D01*
X007074Y007840D01*
X007074Y008080D02*
X006994Y008160D01*
X006754Y008160D01*
D14*
X007380Y005170D02*
X007494Y005170D01*
X007550Y005114D01*
X007692Y005170D02*
X007919Y005170D01*
X007805Y005170D02*
X007805Y004830D01*
X007550Y004830D02*
X007323Y005057D01*
X007323Y005114D01*
X007380Y005170D01*
X007323Y004830D02*
X007550Y004830D01*
X008060Y004830D02*
X008173Y004943D01*
X008117Y004943D02*
X008287Y004943D01*
X008287Y004830D02*
X008287Y005170D01*
X008117Y005170D01*
X008060Y005114D01*
X008060Y005000D01*
X008117Y004943D01*
X008428Y005000D02*
X008655Y005000D01*
X008655Y005057D02*
X008655Y004830D01*
X008797Y004887D02*
X008797Y005170D01*
X008655Y005057D02*
X008542Y005170D01*
X008428Y005057D01*
X008428Y004830D01*
X008797Y004887D02*
X008853Y004830D01*
X008967Y004830D01*
X009023Y004887D01*
X009023Y005170D01*
X009165Y005114D02*
X009165Y005057D01*
X009222Y005000D01*
X009392Y005000D01*
X009533Y004943D02*
X009533Y004887D01*
X009590Y004830D01*
X009703Y004830D01*
X009760Y004887D01*
X009703Y005000D02*
X009590Y005000D01*
X009533Y004943D01*
X009533Y005114D02*
X009590Y005170D01*
X009703Y005170D01*
X009760Y005114D01*
X009760Y005057D01*
X009703Y005000D01*
X009902Y004887D02*
X009902Y005170D01*
X010128Y005170D02*
X010128Y004887D01*
X010072Y004830D01*
X009958Y004830D01*
X009902Y004887D01*
X010270Y004773D02*
X010497Y004773D01*
X010638Y004887D02*
X010695Y004830D01*
X010808Y004830D01*
X010865Y004887D01*
X010865Y005114D01*
X010808Y005170D01*
X010695Y005170D01*
X010638Y005114D01*
X011007Y005114D02*
X011063Y005170D01*
X011177Y005170D01*
X011233Y005114D01*
X011233Y004887D01*
X011177Y004830D01*
X011063Y004830D01*
X011007Y004887D01*
X011007Y005114D01*
X011375Y005114D02*
X011432Y005170D01*
X011545Y005170D01*
X011602Y005114D01*
X011602Y005057D01*
X011545Y005000D01*
X011432Y005000D01*
X011375Y004943D01*
X011375Y004887D01*
X011432Y004830D01*
X011545Y004830D01*
X011602Y004887D01*
X011857Y004830D02*
X011857Y005170D01*
X011970Y005170D02*
X011743Y005170D01*
X009392Y005170D02*
X009392Y004830D01*
X009222Y004830D01*
X009165Y004887D01*
X009165Y004943D01*
X009222Y005000D01*
X009165Y005114D02*
X009222Y005170D01*
X009392Y005170D01*
D15*
X013300Y004820D03*
X013550Y005070D03*
X013800Y005320D03*
X014140Y006180D03*
X013550Y006330D03*
X013890Y007190D03*
X013830Y007520D03*
X014380Y007680D03*
X013830Y008280D03*
D16*
X013830Y008270D03*
X014380Y007670D03*
X013830Y007530D03*
X013890Y007180D03*
X013550Y006320D03*
X014140Y006190D03*
X013800Y005330D03*
X013550Y005080D03*
X013300Y004830D03*
X010430Y006700D03*
X011190Y007110D03*
X012320Y007410D03*
D17*
X012080Y007110D03*
X012780Y007200D03*
X012780Y007210D03*
X013500Y006650D03*
X013550Y006310D03*
X014140Y006200D03*
X014180Y005850D03*
X014180Y005550D03*
X013800Y005340D03*
X013550Y005090D03*
X013300Y004840D03*
X010450Y006660D03*
X010440Y006680D03*
X010950Y007110D03*
X013830Y007540D03*
X013890Y007170D03*
X014380Y007660D03*
X014220Y008050D03*
X013830Y008260D03*
X007890Y007130D03*
X007890Y007120D03*
X007890Y007110D03*
X007890Y007100D03*
X007890Y006740D03*
X007890Y006730D03*
X007890Y006720D03*
X007890Y006710D03*
X007890Y006700D03*
D18*
X007900Y006640D03*
X007900Y006630D03*
X007900Y006620D03*
X007900Y006610D03*
X007900Y006600D03*
X007900Y007200D03*
X007900Y007210D03*
X007900Y007220D03*
X007900Y007230D03*
X009440Y007220D03*
X009440Y007210D03*
X009440Y007200D03*
X009440Y007190D03*
X009440Y007180D03*
X009440Y007170D03*
X009870Y006680D03*
X009870Y006670D03*
X009870Y006660D03*
X009870Y006650D03*
X009870Y006640D03*
X009870Y006630D03*
X009870Y006620D03*
X009870Y006610D03*
X010450Y006640D03*
X011590Y007090D03*
X012790Y007160D03*
X012790Y007170D03*
X012740Y006490D03*
X013550Y006300D03*
X013800Y006050D03*
X014140Y006210D03*
X013890Y006460D03*
X013890Y007160D03*
X013830Y007550D03*
X014380Y007650D03*
X013830Y008250D03*
X013800Y005350D03*
X013550Y005100D03*
X013300Y004850D03*
D19*
X013300Y004860D03*
X013550Y005110D03*
X013800Y005360D03*
X014180Y005560D03*
X014180Y005840D03*
X013800Y006040D03*
X013550Y006290D03*
X013890Y006470D03*
X014140Y006220D03*
X012800Y007120D03*
X012800Y007130D03*
X012350Y007390D03*
X011220Y007090D03*
X010510Y006500D03*
X010500Y006510D03*
X010160Y006330D03*
X008940Y006490D03*
X008930Y007110D03*
X009450Y007240D03*
X007910Y006580D03*
X014380Y007640D03*
D20*
X014380Y007630D03*
X012810Y007000D03*
X012810Y006990D03*
X012810Y006980D03*
X012810Y006970D03*
X012810Y006960D03*
X012810Y006950D03*
X012810Y006940D03*
X012810Y006930D03*
X012810Y006920D03*
X012810Y006910D03*
X012810Y006900D03*
X012810Y006890D03*
X012810Y006880D03*
X012810Y006870D03*
X012810Y006860D03*
X012810Y006850D03*
X012810Y006840D03*
X012810Y006830D03*
X012810Y006820D03*
X012810Y006810D03*
X012810Y006800D03*
X012810Y006790D03*
X012810Y006780D03*
X012810Y006770D03*
X012810Y006760D03*
X012810Y006750D03*
X012810Y006740D03*
X012810Y006730D03*
X012810Y006720D03*
X012810Y006710D03*
X012810Y006700D03*
X012810Y006690D03*
X012810Y006680D03*
X012810Y006670D03*
X012810Y006660D03*
X012810Y006650D03*
X012810Y006640D03*
X012360Y006640D03*
X012360Y006650D03*
X012360Y006660D03*
X012360Y006670D03*
X012360Y006680D03*
X012360Y006690D03*
X012360Y006700D03*
X012360Y006710D03*
X012360Y006720D03*
X012360Y006730D03*
X012360Y006740D03*
X012360Y006750D03*
X012360Y006760D03*
X012360Y006770D03*
X012360Y006780D03*
X012360Y006790D03*
X012360Y006800D03*
X012360Y006810D03*
X012360Y006820D03*
X012360Y006830D03*
X012360Y006840D03*
X012360Y006850D03*
X012360Y006860D03*
X012360Y006870D03*
X012360Y006880D03*
X012360Y006890D03*
X012360Y006900D03*
X012360Y006910D03*
X012360Y006920D03*
X012360Y006930D03*
X012360Y006940D03*
X012360Y006950D03*
X012360Y006960D03*
X012360Y006970D03*
X012360Y006980D03*
X012360Y007050D03*
X012360Y007060D03*
X012360Y007070D03*
X012360Y007080D03*
X012360Y007090D03*
X012360Y007100D03*
X012360Y007110D03*
X012360Y007120D03*
X012360Y007130D03*
X012360Y007140D03*
X012360Y007150D03*
X012360Y007160D03*
X012360Y007170D03*
X012360Y007180D03*
X012360Y007190D03*
X012360Y007200D03*
X012360Y007210D03*
X012360Y007220D03*
X012360Y007230D03*
X012360Y007240D03*
X012360Y007250D03*
X012360Y007260D03*
X012360Y007270D03*
X012360Y007280D03*
X012360Y007290D03*
X012360Y007300D03*
X012080Y007100D03*
X011990Y006920D03*
X011990Y006910D03*
X011990Y006900D03*
X011990Y006890D03*
X011990Y006880D03*
X011990Y006870D03*
X011990Y006860D03*
X011990Y006850D03*
X011990Y006840D03*
X011990Y006830D03*
X011990Y006820D03*
X011990Y006810D03*
X011990Y006800D03*
X011990Y006790D03*
X011990Y006780D03*
X011990Y006770D03*
X011990Y006760D03*
X011990Y006750D03*
X011990Y006740D03*
X011990Y006730D03*
X011990Y006720D03*
X011990Y006710D03*
X011990Y006700D03*
X011990Y006690D03*
X011990Y006680D03*
X011990Y006670D03*
X011990Y006660D03*
X011990Y006650D03*
X011990Y006640D03*
X011990Y006630D03*
X011990Y006620D03*
X011990Y006610D03*
X011990Y006600D03*
X011990Y006590D03*
X011990Y006580D03*
X011990Y006570D03*
X012360Y006570D03*
X012360Y006580D03*
X012360Y006590D03*
X012360Y006600D03*
X012360Y006610D03*
X012360Y006620D03*
X012360Y006630D03*
X011610Y006630D03*
X011610Y006640D03*
X011610Y006650D03*
X011610Y006660D03*
X011610Y006670D03*
X011610Y006680D03*
X011610Y006690D03*
X011610Y006700D03*
X011610Y006710D03*
X011610Y006720D03*
X011610Y006730D03*
X011610Y006740D03*
X011610Y006750D03*
X011610Y006760D03*
X011610Y006770D03*
X011610Y006780D03*
X011610Y006790D03*
X011610Y006800D03*
X011610Y006810D03*
X011610Y006820D03*
X011610Y006830D03*
X011610Y006840D03*
X011610Y006850D03*
X011610Y006860D03*
X011610Y006870D03*
X011610Y006880D03*
X011610Y006890D03*
X011610Y006900D03*
X011610Y006910D03*
X011610Y006920D03*
X011610Y006930D03*
X011610Y006940D03*
X011610Y006950D03*
X011610Y006960D03*
X011610Y006970D03*
X011610Y006980D03*
X011610Y006990D03*
X011610Y007000D03*
X011230Y006980D03*
X011230Y006970D03*
X011230Y006960D03*
X011230Y006950D03*
X011230Y006940D03*
X011230Y006930D03*
X011230Y006920D03*
X011230Y006910D03*
X011230Y006900D03*
X011230Y006890D03*
X011230Y006880D03*
X011230Y006870D03*
X011230Y006860D03*
X011230Y006850D03*
X011230Y006840D03*
X011230Y006830D03*
X011230Y006820D03*
X011230Y006810D03*
X011230Y006800D03*
X011230Y006790D03*
X011230Y006780D03*
X011230Y006770D03*
X011230Y006760D03*
X011230Y006750D03*
X011230Y006740D03*
X011230Y006730D03*
X011230Y006720D03*
X011230Y006710D03*
X011230Y006700D03*
X011230Y006690D03*
X011230Y006680D03*
X011230Y006670D03*
X011230Y006660D03*
X011230Y006650D03*
X011230Y006640D03*
X011230Y006630D03*
X011230Y006620D03*
X011230Y006610D03*
X011230Y006600D03*
X011230Y006590D03*
X011230Y006580D03*
X011230Y006570D03*
X010860Y006570D03*
X010860Y006580D03*
X010860Y006590D03*
X010860Y006600D03*
X010860Y006610D03*
X010860Y006620D03*
X010860Y006630D03*
X010860Y006640D03*
X010860Y006650D03*
X010860Y006660D03*
X010860Y006670D03*
X010860Y006680D03*
X010860Y006690D03*
X010860Y006700D03*
X010860Y006710D03*
X010860Y006720D03*
X010860Y006730D03*
X010860Y006740D03*
X010860Y006750D03*
X010860Y006760D03*
X010860Y006770D03*
X010860Y006780D03*
X010860Y006790D03*
X010860Y006800D03*
X010860Y006810D03*
X010860Y006820D03*
X010860Y006830D03*
X010860Y006840D03*
X010860Y006850D03*
X010860Y006860D03*
X010860Y006870D03*
X010860Y006880D03*
X010860Y006890D03*
X010860Y006900D03*
X010860Y006910D03*
X010860Y006920D03*
X010950Y007100D03*
X010520Y006960D03*
X010520Y006950D03*
X010510Y006980D03*
X010510Y006990D03*
X010500Y007010D03*
X010490Y007020D03*
X010200Y007000D03*
X010190Y006980D03*
X010190Y006970D03*
X010180Y006950D03*
X010180Y006940D03*
X010180Y006930D03*
X010180Y006920D03*
X010180Y006910D03*
X010180Y006900D03*
X010180Y006890D03*
X010180Y006880D03*
X010180Y006870D03*
X010190Y006860D03*
X010190Y006850D03*
X010190Y006840D03*
X010200Y006820D03*
X010210Y006800D03*
X010220Y006790D03*
X010230Y006780D03*
X010440Y006620D03*
X010540Y006460D03*
X010540Y006450D03*
X010550Y006430D03*
X010550Y006420D03*
X010550Y006410D03*
X010550Y006400D03*
X010550Y006390D03*
X010120Y006410D03*
X010120Y006420D03*
X010120Y006430D03*
X009690Y006490D03*
X009470Y006630D03*
X009110Y006990D03*
X009800Y007210D03*
X009810Y007200D03*
X009810Y007190D03*
X009820Y007170D03*
X009820Y007160D03*
X009820Y007150D03*
X008090Y007340D03*
X008090Y006490D03*
X011610Y006570D03*
X011610Y006580D03*
X011610Y006590D03*
X011610Y006600D03*
X011610Y006610D03*
X011610Y006620D03*
X013890Y006480D03*
X013300Y004870D03*
D21*
X013300Y004880D03*
X014180Y005570D03*
X014180Y005830D03*
X013890Y006490D03*
X013500Y006670D03*
X012800Y006610D03*
X012800Y006600D03*
X012360Y006560D03*
X011990Y006560D03*
X011610Y006560D03*
X011230Y006560D03*
X010860Y006560D03*
X010530Y006340D03*
X010130Y006460D03*
X010480Y006780D03*
X010520Y006860D03*
X010460Y007050D03*
X010870Y006970D03*
X010870Y006960D03*
X010880Y006980D03*
X011220Y006990D03*
X011620Y007070D03*
X012000Y006960D03*
X012010Y006980D03*
X012350Y006990D03*
X013590Y007340D03*
X014130Y007370D03*
X014380Y007620D03*
X014220Y008030D03*
X009820Y007100D03*
X009820Y007090D03*
X009760Y007250D03*
X009470Y007260D03*
X009140Y006930D03*
X009150Y006900D03*
X009150Y006890D03*
X009150Y006880D03*
X009160Y006860D03*
X009160Y006850D03*
X009160Y006840D03*
X009160Y006830D03*
X009160Y006820D03*
X009160Y006810D03*
X009160Y006800D03*
X009160Y006790D03*
X009160Y006780D03*
X009160Y006770D03*
X009160Y006760D03*
X009160Y006750D03*
X009160Y006740D03*
X009150Y006720D03*
X009150Y006710D03*
X009150Y006700D03*
X009140Y006670D03*
X009130Y006640D03*
X009080Y006570D03*
X008730Y006670D03*
X008720Y006700D03*
X008720Y006710D03*
X008720Y006720D03*
X008710Y006740D03*
X008710Y006750D03*
X008710Y006760D03*
X008710Y006770D03*
X008710Y006780D03*
X008710Y006790D03*
X008710Y006800D03*
X008710Y006810D03*
X008710Y006820D03*
X008710Y006830D03*
X008710Y006840D03*
X008710Y006850D03*
X008710Y006860D03*
X008720Y006880D03*
X008720Y006890D03*
X008720Y006900D03*
X008730Y006930D03*
X008430Y006990D03*
X008420Y007040D03*
X008410Y007070D03*
X008400Y007100D03*
X008390Y007120D03*
X008380Y007140D03*
X008430Y006840D03*
X008420Y006790D03*
X008410Y006760D03*
X008400Y006730D03*
X008390Y006710D03*
X009450Y006710D03*
X009450Y006700D03*
X009450Y006690D03*
X009490Y006600D03*
X009500Y006590D03*
D22*
X009460Y006750D03*
X009800Y007050D03*
X009810Y007060D03*
X009810Y007070D03*
X010140Y006470D03*
X010890Y006990D03*
X011250Y007070D03*
X012020Y006990D03*
X012380Y007370D03*
X013590Y007350D03*
X013880Y007110D03*
X014130Y007360D03*
X014380Y007610D03*
X013590Y008450D03*
X012730Y006500D03*
X013300Y004890D03*
X008350Y006650D03*
X008330Y006630D03*
X008320Y006620D03*
X008310Y006610D03*
X008310Y007220D03*
X008300Y007230D03*
D23*
X008270Y007250D03*
X008930Y007100D03*
X009470Y006770D03*
X009480Y006780D03*
X009540Y006570D03*
X008940Y006500D03*
X008280Y006590D03*
X009790Y007040D03*
X010350Y007100D03*
X010360Y006720D03*
X010150Y006480D03*
X010900Y007000D03*
X011200Y007000D03*
X011260Y007060D03*
X012030Y007000D03*
X012780Y006580D03*
X013500Y006680D03*
X013880Y006520D03*
X013950Y006700D03*
X013950Y006710D03*
X013950Y006720D03*
X013960Y006740D03*
X013960Y006750D03*
X013960Y006760D03*
X013960Y006770D03*
X013970Y006790D03*
X013970Y006820D03*
X013970Y006830D03*
X013960Y006840D03*
X013960Y006850D03*
X013960Y006860D03*
X013960Y006870D03*
X013950Y006890D03*
X013950Y006900D03*
X013950Y006910D03*
X013950Y006920D03*
X014290Y006990D03*
X014290Y007000D03*
X014300Y006950D03*
X014300Y006940D03*
X014310Y006890D03*
X014310Y006880D03*
X014310Y006870D03*
X014310Y006860D03*
X014310Y006850D03*
X014310Y006840D03*
X014310Y006830D03*
X014310Y006820D03*
X014310Y006810D03*
X014310Y006800D03*
X014310Y006790D03*
X014310Y006780D03*
X014310Y006770D03*
X014310Y006760D03*
X014310Y006750D03*
X014310Y006740D03*
X014310Y006730D03*
X014310Y006720D03*
X014300Y006670D03*
X014300Y006660D03*
X014290Y006620D03*
X014290Y006610D03*
X014630Y006540D03*
X014640Y006590D03*
X014640Y006600D03*
X014650Y006620D03*
X014650Y006630D03*
X014650Y006640D03*
X014660Y006700D03*
X014660Y006710D03*
X014660Y006720D03*
X014660Y006730D03*
X014660Y006740D03*
X014660Y006750D03*
X014660Y006760D03*
X014660Y006770D03*
X014660Y006780D03*
X014660Y006790D03*
X014660Y006800D03*
X014660Y006810D03*
X014660Y006820D03*
X014660Y006830D03*
X014660Y006840D03*
X014660Y006850D03*
X014660Y006860D03*
X014660Y006870D03*
X014660Y006880D03*
X014660Y006890D03*
X014660Y006900D03*
X014660Y006910D03*
X014650Y006940D03*
X014650Y006950D03*
X014650Y006960D03*
X014650Y006970D03*
X014650Y006980D03*
X014650Y006990D03*
X014640Y007010D03*
X014640Y007020D03*
X014630Y007070D03*
X014130Y007350D03*
X013880Y007100D03*
X013590Y007360D03*
X013840Y007610D03*
X013770Y007790D03*
X013770Y007800D03*
X013770Y007810D03*
X013770Y007820D03*
X013770Y007830D03*
X013760Y007850D03*
X013760Y007860D03*
X013760Y007870D03*
X013760Y007880D03*
X013760Y007890D03*
X013760Y007900D03*
X013760Y007910D03*
X013760Y007920D03*
X013760Y007930D03*
X013760Y007940D03*
X013760Y007950D03*
X013770Y007970D03*
X013770Y007980D03*
X013770Y007990D03*
X013770Y008000D03*
X013770Y008010D03*
X013840Y008190D03*
X013590Y008440D03*
X013440Y008110D03*
X013430Y008090D03*
X013430Y008080D03*
X013430Y008070D03*
X013420Y008040D03*
X013420Y008030D03*
X013420Y008020D03*
X013420Y008010D03*
X013420Y008000D03*
X013410Y007980D03*
X013410Y007970D03*
X013410Y007960D03*
X013410Y007950D03*
X013410Y007940D03*
X013410Y007930D03*
X013410Y007920D03*
X013410Y007910D03*
X013410Y007900D03*
X013410Y007890D03*
X013410Y007880D03*
X013410Y007870D03*
X013410Y007860D03*
X013410Y007850D03*
X013410Y007840D03*
X013410Y007830D03*
X013410Y007820D03*
X013420Y007800D03*
X013420Y007790D03*
X013420Y007780D03*
X013420Y007770D03*
X013420Y007760D03*
X013430Y007740D03*
X013430Y007730D03*
X013430Y007720D03*
X013430Y007710D03*
X013440Y007690D03*
X013080Y007700D03*
X013080Y007710D03*
X013080Y007720D03*
X013080Y007730D03*
X013070Y007790D03*
X013070Y007800D03*
X013070Y007810D03*
X013070Y007820D03*
X013070Y007830D03*
X013070Y007840D03*
X013070Y007850D03*
X013070Y007860D03*
X013070Y007870D03*
X013070Y007880D03*
X013070Y007890D03*
X013070Y007900D03*
X013070Y007910D03*
X013070Y007920D03*
X013070Y007930D03*
X013070Y007940D03*
X013070Y007950D03*
X013070Y007960D03*
X013070Y007970D03*
X013070Y007980D03*
X013070Y007990D03*
X013070Y008000D03*
X013080Y008030D03*
X013080Y008040D03*
X013080Y008050D03*
X013080Y008060D03*
X013080Y008070D03*
X013080Y008080D03*
X013080Y008090D03*
X014220Y008020D03*
X014220Y007780D03*
X014380Y007600D03*
X014180Y005820D03*
X014180Y005580D03*
X013740Y005580D03*
X013740Y005590D03*
X013730Y005620D03*
X013730Y005630D03*
X013730Y005640D03*
X013720Y005660D03*
X013720Y005670D03*
X013720Y005680D03*
X013720Y005690D03*
X013720Y005700D03*
X013720Y005710D03*
X013720Y005720D03*
X013720Y005730D03*
X013720Y005740D03*
X013730Y005770D03*
X013730Y005780D03*
X013740Y005810D03*
X013740Y005820D03*
X013400Y005900D03*
X013390Y005860D03*
X013390Y005850D03*
X013390Y005840D03*
X013380Y005800D03*
X013380Y005790D03*
X013380Y005780D03*
X013380Y005620D03*
X013380Y005610D03*
X013390Y005580D03*
X013390Y005570D03*
X013390Y005560D03*
X013390Y005550D03*
X013390Y005540D03*
X013400Y005510D03*
X013400Y005500D03*
X013040Y005500D03*
X013040Y005890D03*
X013040Y005900D03*
X013300Y004900D03*
D24*
X013300Y004910D03*
X013560Y005170D03*
X013480Y005310D03*
X013470Y005330D03*
X013460Y005350D03*
X013450Y005360D03*
X013450Y005370D03*
X013440Y005380D03*
X013440Y005390D03*
X013430Y005410D03*
X013430Y005420D03*
X013080Y005350D03*
X013080Y005340D03*
X013080Y005330D03*
X013090Y005310D03*
X013110Y005260D03*
X013070Y005370D03*
X013070Y005380D03*
X013070Y005390D03*
X013060Y005400D03*
X013060Y005410D03*
X013050Y005440D03*
X013050Y005450D03*
X013030Y005540D03*
X013030Y005550D03*
X013030Y005560D03*
X013030Y005570D03*
X013060Y005990D03*
X013060Y006000D03*
X013070Y006020D03*
X013080Y006050D03*
X013080Y006060D03*
X013090Y006090D03*
X013100Y006110D03*
X013110Y006130D03*
X013110Y006140D03*
X013110Y006150D03*
X013120Y006160D03*
X013130Y006180D03*
X013440Y006020D03*
X013440Y006010D03*
X013450Y006030D03*
X013450Y006040D03*
X013460Y006050D03*
X013460Y006060D03*
X013470Y006070D03*
X013470Y006080D03*
X013480Y006090D03*
X013430Y005990D03*
X013420Y005960D03*
X013560Y006230D03*
X013810Y005980D03*
X013790Y005930D03*
X013780Y005910D03*
X013770Y005890D03*
X013760Y005870D03*
X014180Y005810D03*
X014380Y006030D03*
X014520Y006260D03*
X014550Y006320D03*
X014560Y006330D03*
X014560Y006340D03*
X014570Y006350D03*
X014570Y006360D03*
X014580Y006380D03*
X014580Y006390D03*
X014590Y006400D03*
X014590Y006410D03*
X014600Y006430D03*
X014600Y006440D03*
X014270Y006550D03*
X014260Y006530D03*
X014260Y006520D03*
X014250Y006510D03*
X014250Y006500D03*
X014240Y006480D03*
X014230Y006460D03*
X014220Y006430D03*
X013920Y006620D03*
X013930Y006640D03*
X013880Y006530D03*
X014130Y006280D03*
X013500Y006690D03*
X013930Y006970D03*
X013920Y006990D03*
X013920Y007000D03*
X013910Y007010D03*
X013880Y007080D03*
X014210Y007190D03*
X014230Y007150D03*
X014240Y007130D03*
X014250Y007120D03*
X014250Y007110D03*
X014250Y007100D03*
X014260Y007090D03*
X014260Y007080D03*
X014270Y007060D03*
X014280Y007030D03*
X014600Y007170D03*
X014590Y007200D03*
X014590Y007210D03*
X014580Y007220D03*
X014580Y007230D03*
X014570Y007250D03*
X014570Y007260D03*
X014560Y007270D03*
X014560Y007280D03*
X014550Y007290D03*
X014520Y007350D03*
X014130Y007340D03*
X014380Y007590D03*
X014220Y007790D03*
X014220Y008010D03*
X013820Y008120D03*
X013810Y008100D03*
X013800Y008080D03*
X013790Y008060D03*
X013790Y007740D03*
X013800Y007720D03*
X013810Y007700D03*
X013490Y007560D03*
X013490Y007550D03*
X013500Y007540D03*
X013510Y007520D03*
X013480Y007570D03*
X013480Y007580D03*
X013470Y007600D03*
X013460Y007620D03*
X013590Y007370D03*
X013170Y007420D03*
X013160Y007440D03*
X013160Y007450D03*
X013150Y007460D03*
X013150Y007470D03*
X013150Y007480D03*
X013140Y007490D03*
X013140Y007500D03*
X013130Y007510D03*
X013130Y007520D03*
X013130Y007530D03*
X013120Y007540D03*
X013120Y007550D03*
X013120Y007560D03*
X013110Y007590D03*
X013090Y007660D03*
X013090Y007670D03*
X013090Y008120D03*
X013090Y008130D03*
X013090Y008140D03*
X013100Y008170D03*
X013110Y008200D03*
X013110Y008210D03*
X013110Y008220D03*
X013120Y008230D03*
X013120Y008240D03*
X013120Y008250D03*
X013130Y008260D03*
X013130Y008270D03*
X013140Y008290D03*
X013140Y008300D03*
X013150Y008330D03*
X013160Y008350D03*
X013480Y008230D03*
X013480Y008220D03*
X013490Y008240D03*
X013490Y008250D03*
X013500Y008260D03*
X013510Y008280D03*
X013470Y008200D03*
X013470Y008190D03*
X013590Y008430D03*
X014620Y007110D03*
X014180Y005590D03*
X013810Y005420D03*
X013790Y005470D03*
X013770Y005510D03*
X013760Y005530D03*
X011650Y007010D03*
X011650Y007020D03*
X011650Y007030D03*
X011650Y007040D03*
X011650Y007050D03*
X011270Y007050D03*
X010960Y007080D03*
X010170Y006490D03*
X009490Y006800D03*
X012090Y007080D03*
D25*
X012405Y007310D03*
X012405Y007320D03*
X012405Y007330D03*
X012405Y007340D03*
X012405Y007350D03*
X013165Y007430D03*
X013175Y007410D03*
X013185Y007400D03*
X013185Y007390D03*
X013195Y007380D03*
X013195Y007370D03*
X013205Y007360D03*
X013205Y007350D03*
X013215Y007340D03*
X013345Y007120D03*
X013505Y006910D03*
X013895Y007040D03*
X013905Y007020D03*
X014215Y007180D03*
X014225Y007170D03*
X014225Y007160D03*
X014235Y007140D03*
X014205Y007200D03*
X014195Y007220D03*
X014505Y007380D03*
X014515Y007360D03*
X014525Y007340D03*
X014535Y007330D03*
X014535Y007320D03*
X014545Y007310D03*
X014545Y007300D03*
X014375Y007580D03*
X013845Y007630D03*
X013845Y007640D03*
X013825Y007670D03*
X013815Y007680D03*
X013815Y007690D03*
X013525Y007500D03*
X013525Y007490D03*
X013535Y007480D03*
X013535Y007470D03*
X013545Y007460D03*
X013515Y007510D03*
X013505Y007530D03*
X013595Y007380D03*
X013815Y008110D03*
X013825Y008130D03*
X013845Y008160D03*
X013845Y008170D03*
X013525Y008300D03*
X013525Y008310D03*
X013535Y008320D03*
X013535Y008330D03*
X013515Y008290D03*
X013505Y008270D03*
X013595Y008420D03*
X013345Y008680D03*
X013205Y008440D03*
X013195Y008420D03*
X013185Y008400D03*
X013175Y008380D03*
X013165Y008370D03*
X013165Y008360D03*
X013155Y008340D03*
X013145Y008320D03*
X013145Y008310D03*
X013915Y006610D03*
X013905Y006600D03*
X013905Y006590D03*
X013895Y006570D03*
X013875Y006540D03*
X014195Y006390D03*
X014205Y006410D03*
X014215Y006420D03*
X014225Y006440D03*
X014225Y006450D03*
X014235Y006470D03*
X014245Y006490D03*
X014545Y006310D03*
X014545Y006300D03*
X014535Y006290D03*
X014535Y006280D03*
X014525Y006270D03*
X014515Y006250D03*
X014505Y006240D03*
X013795Y005940D03*
X013785Y005920D03*
X013775Y005900D03*
X013485Y006100D03*
X013495Y006120D03*
X013165Y006240D03*
X013165Y006250D03*
X013155Y006230D03*
X013145Y006220D03*
X013145Y006210D03*
X013135Y006200D03*
X013135Y006190D03*
X013125Y006170D03*
X013105Y006120D03*
X013095Y006100D03*
X013305Y006480D03*
X012715Y006510D03*
X013775Y005500D03*
X013785Y005490D03*
X013785Y005480D03*
X013795Y005460D03*
X013805Y005450D03*
X013805Y005440D03*
X013805Y005430D03*
X013485Y005300D03*
X013495Y005290D03*
X013495Y005280D03*
X013505Y005270D03*
X013475Y005320D03*
X013465Y005340D03*
X013135Y005210D03*
X013135Y005200D03*
X013125Y005220D03*
X013125Y005230D03*
X013115Y005240D03*
X013115Y005250D03*
X013105Y005270D03*
X013105Y005280D03*
X013095Y005290D03*
X013095Y005300D03*
X013085Y005320D03*
X013165Y005150D03*
X013305Y004920D03*
X010375Y006240D03*
X009495Y006810D03*
X009765Y007010D03*
X009605Y007330D03*
X008245Y007260D03*
D26*
X008085Y007330D03*
X009755Y007000D03*
X010345Y007090D03*
X010965Y007070D03*
X012095Y007070D03*
X013245Y007290D03*
X013255Y007270D03*
X013275Y007240D03*
X013285Y007230D03*
X013305Y007200D03*
X013315Y007190D03*
X013345Y007140D03*
X013505Y006900D03*
X013505Y006710D03*
X013305Y006460D03*
X013265Y006400D03*
X013245Y006370D03*
X013235Y006360D03*
X013225Y006350D03*
X013225Y006340D03*
X013215Y006330D03*
X013205Y006320D03*
X013195Y006300D03*
X013515Y006150D03*
X013525Y006160D03*
X013535Y006170D03*
X013545Y006190D03*
X013555Y006200D03*
X013555Y006210D03*
X014135Y006300D03*
X014135Y006310D03*
X014155Y006340D03*
X014165Y006350D03*
X014175Y006360D03*
X014485Y006200D03*
X014455Y006150D03*
X014445Y006140D03*
X014435Y006130D03*
X014425Y006110D03*
X014415Y006100D03*
X014385Y006050D03*
X014175Y005790D03*
X014185Y005610D03*
X013555Y005200D03*
X013555Y005190D03*
X013545Y005210D03*
X013535Y005230D03*
X013525Y005240D03*
X013215Y005070D03*
X013205Y005080D03*
X013195Y005090D03*
X013195Y005100D03*
X013185Y005110D03*
X013225Y005050D03*
X013305Y004930D03*
X009695Y006500D03*
X013235Y008490D03*
X013245Y008510D03*
X013255Y008520D03*
X013255Y008530D03*
X013265Y008540D03*
X013345Y008660D03*
X013585Y008400D03*
X013585Y008390D03*
X013575Y008380D03*
X013565Y008370D03*
X014215Y007990D03*
X014385Y007560D03*
X014415Y007510D03*
X014425Y007500D03*
X014435Y007480D03*
X014445Y007470D03*
X014455Y007460D03*
X014475Y007430D03*
X014175Y007250D03*
X014165Y007260D03*
X014155Y007270D03*
X014135Y007310D03*
X013585Y007400D03*
X013585Y007410D03*
X013575Y007420D03*
X013565Y007430D03*
D27*
X013300Y007210D03*
X013290Y007220D03*
X013320Y007180D03*
X013330Y007170D03*
X013340Y007150D03*
X013500Y006720D03*
X013300Y006450D03*
X013290Y006430D03*
X013280Y006420D03*
X013270Y006410D03*
X013260Y006390D03*
X013250Y006380D03*
X013540Y006180D03*
X014140Y006320D03*
X014150Y006330D03*
X014430Y006120D03*
X014410Y006090D03*
X014400Y006080D03*
X014390Y006070D03*
X014390Y006060D03*
X014180Y005780D03*
X014180Y005620D03*
X013540Y005220D03*
X013250Y005020D03*
X013240Y005030D03*
X013230Y005040D03*
X013220Y005060D03*
X013260Y005000D03*
X013270Y004990D03*
X013300Y004940D03*
X010360Y006730D03*
X009740Y006990D03*
X009520Y006830D03*
X008930Y007090D03*
X008940Y006510D03*
X008090Y006500D03*
X013270Y008550D03*
X013280Y008560D03*
X013290Y008570D03*
X013300Y008590D03*
X013310Y008600D03*
X013340Y008650D03*
X014220Y007980D03*
X014220Y007820D03*
X014220Y007810D03*
X014390Y007550D03*
X014390Y007540D03*
X014400Y007530D03*
X014410Y007520D03*
X014430Y007490D03*
X014140Y007300D03*
X014140Y007290D03*
X014150Y007280D03*
D28*
X013505Y006890D03*
X013505Y006880D03*
X013335Y007160D03*
X013295Y006440D03*
X013255Y005010D03*
X013275Y004980D03*
X013285Y004970D03*
X013295Y004960D03*
X013295Y004950D03*
X010375Y006600D03*
X010195Y006500D03*
X009535Y006840D03*
X009725Y006980D03*
X010135Y007010D03*
X013295Y008580D03*
X013315Y008610D03*
X013325Y008620D03*
X013335Y008630D03*
X013335Y008640D03*
D29*
X013345Y008730D03*
X013585Y008480D03*
X013835Y008230D03*
X014215Y008040D03*
X014215Y007760D03*
X013835Y007570D03*
X014135Y007390D03*
X013885Y007140D03*
X013585Y007320D03*
X013345Y007070D03*
X012805Y007100D03*
X012805Y007110D03*
X013495Y006660D03*
X013305Y006530D03*
X013555Y006280D03*
X013805Y006030D03*
X014135Y006230D03*
X014385Y005980D03*
X013805Y005370D03*
X013555Y005120D03*
X010545Y006440D03*
X010535Y006470D03*
X010525Y006480D03*
X010515Y006490D03*
X010375Y006230D03*
X010185Y006310D03*
X010175Y006320D03*
X010155Y006340D03*
X010145Y006350D03*
X010135Y006360D03*
X010135Y006370D03*
X010125Y006380D03*
X010125Y006390D03*
X010125Y006400D03*
X009855Y006580D03*
X010205Y006810D03*
X010195Y006830D03*
X010185Y006960D03*
X010195Y006990D03*
X009615Y007340D03*
X009455Y007250D03*
X007915Y007250D03*
X011605Y007240D03*
X011605Y007350D03*
X011605Y007080D03*
D30*
X013220Y007330D03*
X013230Y007320D03*
X013230Y007310D03*
X013240Y007300D03*
X013250Y007280D03*
X013260Y007260D03*
X013270Y007250D03*
X013350Y007130D03*
X013590Y007390D03*
X013560Y007440D03*
X013550Y007450D03*
X013830Y007660D03*
X013840Y007650D03*
X014220Y007800D03*
X014380Y007570D03*
X014460Y007450D03*
X014470Y007440D03*
X014480Y007420D03*
X014490Y007410D03*
X014490Y007400D03*
X014500Y007390D03*
X014510Y007370D03*
X014200Y007210D03*
X014190Y007230D03*
X014180Y007240D03*
X014130Y007320D03*
X014130Y007330D03*
X013880Y007070D03*
X013880Y007060D03*
X013890Y007050D03*
X013900Y007030D03*
X013500Y006700D03*
X013310Y006470D03*
X013200Y006310D03*
X013190Y006290D03*
X013180Y006280D03*
X013180Y006270D03*
X013170Y006260D03*
X013490Y006110D03*
X013500Y006130D03*
X013510Y006140D03*
X013560Y006220D03*
X013810Y005970D03*
X013810Y005960D03*
X013800Y005950D03*
X014180Y005800D03*
X014380Y006040D03*
X014460Y006160D03*
X014470Y006170D03*
X014470Y006180D03*
X014480Y006190D03*
X014490Y006210D03*
X014500Y006220D03*
X014500Y006230D03*
X014190Y006380D03*
X014180Y006370D03*
X014200Y006400D03*
X014130Y006290D03*
X013880Y006550D03*
X013890Y006560D03*
X013900Y006580D03*
X014180Y005600D03*
X013520Y005250D03*
X013510Y005260D03*
X013560Y005180D03*
X013180Y005130D03*
X013180Y005120D03*
X013170Y005140D03*
X013160Y005160D03*
X013150Y005170D03*
X013150Y005180D03*
X013140Y005190D03*
X009510Y006820D03*
X008240Y006570D03*
X013180Y008390D03*
X013190Y008410D03*
X013200Y008430D03*
X013210Y008450D03*
X013220Y008460D03*
X013220Y008470D03*
X013230Y008480D03*
X013240Y008500D03*
X013350Y008670D03*
X013590Y008410D03*
X013560Y008360D03*
X013550Y008350D03*
X013550Y008340D03*
X013830Y008140D03*
X013840Y008150D03*
X014220Y008000D03*
D31*
X013835Y008220D03*
X013585Y008470D03*
X013345Y008720D03*
X013835Y007580D03*
X013585Y007330D03*
X013345Y007080D03*
X013505Y006940D03*
X013885Y007130D03*
X014135Y007380D03*
X012815Y007090D03*
X012365Y007380D03*
X012005Y006970D03*
X011995Y006950D03*
X011995Y006940D03*
X011995Y006930D03*
X011605Y007250D03*
X011605Y007260D03*
X011605Y007330D03*
X011605Y007340D03*
X011235Y007080D03*
X010865Y006950D03*
X010865Y006940D03*
X010865Y006930D03*
X010525Y006930D03*
X010525Y006940D03*
X010525Y006920D03*
X010525Y006910D03*
X010525Y006900D03*
X010525Y006890D03*
X010525Y006880D03*
X010525Y006870D03*
X010515Y006850D03*
X010515Y006840D03*
X010515Y006830D03*
X010505Y006820D03*
X010505Y006810D03*
X010495Y006800D03*
X010485Y006790D03*
X010375Y006710D03*
X010245Y006770D03*
X010515Y006970D03*
X010505Y007000D03*
X010485Y007030D03*
X010475Y007040D03*
X009825Y007110D03*
X009825Y007120D03*
X009825Y007130D03*
X009825Y007140D03*
X009815Y007180D03*
X009795Y007220D03*
X009785Y007230D03*
X009775Y007240D03*
X009135Y006950D03*
X009135Y006940D03*
X009125Y006960D03*
X009125Y006970D03*
X009115Y006980D03*
X009105Y007000D03*
X009095Y007010D03*
X009085Y007020D03*
X009075Y007030D03*
X009145Y006920D03*
X009145Y006910D03*
X009155Y006870D03*
X009155Y006730D03*
X009145Y006690D03*
X009145Y006680D03*
X009135Y006660D03*
X009135Y006650D03*
X009125Y006630D03*
X009115Y006620D03*
X009115Y006610D03*
X009105Y006600D03*
X009095Y006590D03*
X009085Y006580D03*
X008795Y006570D03*
X008785Y006580D03*
X008775Y006590D03*
X008765Y006600D03*
X008755Y006610D03*
X008755Y006620D03*
X008745Y006630D03*
X008745Y006640D03*
X008735Y006650D03*
X008735Y006660D03*
X008725Y006680D03*
X008725Y006690D03*
X008715Y006730D03*
X008715Y006870D03*
X008725Y006910D03*
X008725Y006920D03*
X008735Y006940D03*
X008735Y006950D03*
X008745Y006960D03*
X008745Y006970D03*
X008755Y006980D03*
X008755Y006990D03*
X008765Y007000D03*
X008775Y007010D03*
X008785Y007020D03*
X009455Y006680D03*
X009455Y006670D03*
X009455Y006660D03*
X009465Y006650D03*
X009465Y006640D03*
X009475Y006620D03*
X009485Y006610D03*
X010125Y006450D03*
X010125Y006440D03*
X010205Y006300D03*
X010535Y006350D03*
X010545Y006360D03*
X010545Y006370D03*
X010545Y006380D03*
X012805Y006620D03*
X012805Y006630D03*
X013305Y006520D03*
X013555Y006270D03*
X013805Y006020D03*
X014135Y006240D03*
X014385Y005990D03*
X013805Y005380D03*
X013555Y005130D03*
X007925Y006570D03*
D32*
X008345Y006640D03*
X008355Y006660D03*
X008365Y006670D03*
X008375Y006680D03*
X008375Y006690D03*
X008385Y006700D03*
X008395Y006720D03*
X008405Y006740D03*
X008405Y006750D03*
X008415Y006770D03*
X008415Y006780D03*
X008425Y006800D03*
X008425Y006810D03*
X008425Y006820D03*
X008425Y006830D03*
X008435Y006850D03*
X008435Y006860D03*
X008435Y006870D03*
X008435Y006880D03*
X008435Y006890D03*
X008435Y006900D03*
X008435Y006910D03*
X008435Y006920D03*
X008435Y006930D03*
X008435Y006940D03*
X008435Y006950D03*
X008435Y006960D03*
X008435Y006970D03*
X008435Y006980D03*
X008425Y007000D03*
X008425Y007010D03*
X008425Y007020D03*
X008425Y007030D03*
X008415Y007050D03*
X008415Y007060D03*
X008405Y007080D03*
X008405Y007090D03*
X008395Y007110D03*
X008385Y007130D03*
X008375Y007150D03*
X008365Y007160D03*
X008365Y007170D03*
X008355Y007180D03*
X008345Y007190D03*
X008335Y007200D03*
X008325Y007210D03*
X007935Y007260D03*
X008795Y007030D03*
X008815Y007040D03*
X009055Y007040D03*
X009455Y006740D03*
X009455Y006730D03*
X009455Y006720D03*
X009515Y006580D03*
X009835Y006570D03*
X010465Y006770D03*
X010525Y006330D03*
X010515Y006320D03*
X010505Y006310D03*
X009815Y007080D03*
X009055Y006560D03*
X008815Y006560D03*
X011605Y007270D03*
X011605Y007280D03*
X011605Y007290D03*
X011605Y007300D03*
X011605Y007310D03*
X011605Y007320D03*
X012825Y007080D03*
X013345Y007090D03*
X013885Y007120D03*
X013835Y007590D03*
X014215Y007770D03*
X013835Y008210D03*
X013585Y008460D03*
X013345Y008710D03*
X012795Y006590D03*
X013305Y006510D03*
X013555Y006260D03*
X013805Y006010D03*
X014135Y006250D03*
X013885Y006500D03*
X014385Y006000D03*
X013805Y005390D03*
X013555Y005140D03*
D33*
X013555Y005150D03*
X013805Y005400D03*
X013735Y005600D03*
X013735Y005610D03*
X013735Y005790D03*
X013735Y005800D03*
X013805Y006000D03*
X013555Y006250D03*
X013305Y006500D03*
X013885Y006510D03*
X013955Y006730D03*
X013965Y006780D03*
X013965Y006800D03*
X013965Y006810D03*
X013955Y006880D03*
X013505Y006930D03*
X013345Y007100D03*
X013835Y007600D03*
X013835Y008200D03*
X013345Y008700D03*
X012085Y007090D03*
X011635Y007060D03*
X010955Y007090D03*
X010495Y006300D03*
X009465Y006760D03*
X009745Y007260D03*
X008285Y007240D03*
X008295Y006600D03*
X013375Y005770D03*
X013375Y005760D03*
X013375Y005750D03*
X013375Y005740D03*
X013375Y005730D03*
X013375Y005720D03*
X013375Y005710D03*
X013375Y005700D03*
X013375Y005690D03*
X013375Y005680D03*
X013375Y005670D03*
X013375Y005660D03*
X013375Y005650D03*
X013375Y005640D03*
X013375Y005630D03*
X014135Y006260D03*
X014385Y006010D03*
X014645Y006610D03*
X014645Y007000D03*
D34*
X014635Y007030D03*
X014635Y007040D03*
X014635Y007050D03*
X014635Y007060D03*
X014625Y007080D03*
X014625Y007090D03*
X014625Y007100D03*
X014615Y007120D03*
X014615Y007130D03*
X014605Y007140D03*
X014605Y007150D03*
X014605Y007160D03*
X014595Y007180D03*
X014595Y007190D03*
X014575Y007240D03*
X014655Y006930D03*
X014655Y006920D03*
X014655Y006690D03*
X014655Y006680D03*
X014655Y006670D03*
X014655Y006660D03*
X014655Y006650D03*
X014635Y006580D03*
X014635Y006570D03*
X014635Y006560D03*
X014635Y006550D03*
X014625Y006530D03*
X014625Y006520D03*
X014625Y006510D03*
X014615Y006500D03*
X014615Y006490D03*
X014615Y006480D03*
X014605Y006470D03*
X014605Y006460D03*
X014605Y006450D03*
X014595Y006420D03*
X014575Y006370D03*
X014265Y006540D03*
X014275Y006560D03*
X014275Y006570D03*
X014275Y006580D03*
X014285Y006590D03*
X014285Y006600D03*
X014295Y006630D03*
X014295Y006640D03*
X014295Y006650D03*
X014305Y006680D03*
X014305Y006690D03*
X014305Y006700D03*
X014305Y006710D03*
X014305Y006900D03*
X014305Y006910D03*
X014305Y006920D03*
X014305Y006930D03*
X014295Y006960D03*
X014295Y006970D03*
X014295Y006980D03*
X014285Y007010D03*
X014285Y007020D03*
X014275Y007040D03*
X014275Y007050D03*
X014265Y007070D03*
X013945Y006940D03*
X013945Y006930D03*
X013935Y006950D03*
X013935Y006960D03*
X013925Y006980D03*
X013875Y007090D03*
X013505Y006920D03*
X013345Y007110D03*
X013945Y006690D03*
X013945Y006680D03*
X013945Y006670D03*
X013935Y006660D03*
X013935Y006650D03*
X013925Y006630D03*
X014135Y006270D03*
X014385Y006020D03*
X013805Y005990D03*
X013765Y005880D03*
X013755Y005860D03*
X013755Y005850D03*
X013745Y005840D03*
X013745Y005830D03*
X013725Y005760D03*
X013725Y005750D03*
X013725Y005650D03*
X013745Y005570D03*
X013745Y005560D03*
X013755Y005550D03*
X013755Y005540D03*
X013765Y005520D03*
X013805Y005410D03*
X013555Y005160D03*
X013435Y005400D03*
X013425Y005430D03*
X013425Y005440D03*
X013415Y005450D03*
X013415Y005460D03*
X013405Y005470D03*
X013405Y005480D03*
X013405Y005490D03*
X013395Y005520D03*
X013395Y005530D03*
X013385Y005590D03*
X013385Y005600D03*
X013035Y005530D03*
X013035Y005520D03*
X013035Y005510D03*
X013045Y005490D03*
X013045Y005480D03*
X013045Y005470D03*
X013045Y005460D03*
X013055Y005430D03*
X013055Y005420D03*
X013075Y005360D03*
X013025Y005580D03*
X013025Y005590D03*
X013025Y005600D03*
X013025Y005610D03*
X013025Y005620D03*
X013025Y005630D03*
X013025Y005640D03*
X013025Y005650D03*
X013025Y005660D03*
X013025Y005670D03*
X013025Y005680D03*
X013025Y005690D03*
X013025Y005700D03*
X013025Y005710D03*
X013025Y005720D03*
X013025Y005730D03*
X013025Y005740D03*
X013025Y005750D03*
X013025Y005760D03*
X013025Y005770D03*
X013025Y005780D03*
X013025Y005790D03*
X013025Y005800D03*
X013025Y005810D03*
X013025Y005820D03*
X013035Y005830D03*
X013035Y005840D03*
X013035Y005850D03*
X013035Y005860D03*
X013035Y005870D03*
X013035Y005880D03*
X013045Y005910D03*
X013045Y005920D03*
X013045Y005930D03*
X013045Y005940D03*
X013045Y005950D03*
X013055Y005960D03*
X013055Y005970D03*
X013055Y005980D03*
X013065Y006010D03*
X013075Y006030D03*
X013075Y006040D03*
X013085Y006070D03*
X013085Y006080D03*
X013405Y005930D03*
X013405Y005920D03*
X013405Y005910D03*
X013395Y005890D03*
X013395Y005880D03*
X013395Y005870D03*
X013385Y005830D03*
X013385Y005820D03*
X013385Y005810D03*
X013415Y005940D03*
X013415Y005950D03*
X013425Y005970D03*
X013425Y005980D03*
X013435Y006000D03*
X013555Y006240D03*
X013305Y006490D03*
X012325Y007000D03*
X012395Y007360D03*
X013105Y007600D03*
X013105Y007610D03*
X013105Y007620D03*
X013095Y007630D03*
X013095Y007640D03*
X013095Y007650D03*
X013085Y007680D03*
X013085Y007690D03*
X013075Y007740D03*
X013075Y007750D03*
X013075Y007760D03*
X013075Y007770D03*
X013075Y007780D03*
X013115Y007580D03*
X013115Y007570D03*
X013445Y007660D03*
X013445Y007670D03*
X013445Y007680D03*
X013435Y007700D03*
X013425Y007750D03*
X013415Y007810D03*
X013455Y007650D03*
X013455Y007640D03*
X013455Y007630D03*
X013465Y007610D03*
X013475Y007590D03*
X013785Y007750D03*
X013785Y007760D03*
X013775Y007770D03*
X013775Y007780D03*
X013795Y007730D03*
X013805Y007710D03*
X013845Y007620D03*
X013765Y007840D03*
X013765Y007960D03*
X013775Y008020D03*
X013775Y008030D03*
X013785Y008040D03*
X013785Y008050D03*
X013795Y008070D03*
X013805Y008090D03*
X013845Y008180D03*
X013475Y008210D03*
X013465Y008180D03*
X013455Y008170D03*
X013455Y008160D03*
X013455Y008150D03*
X013445Y008140D03*
X013445Y008130D03*
X013445Y008120D03*
X013435Y008100D03*
X013425Y008060D03*
X013425Y008050D03*
X013415Y007990D03*
X013075Y008010D03*
X013075Y008020D03*
X013085Y008100D03*
X013085Y008110D03*
X013095Y008150D03*
X013095Y008160D03*
X013105Y008180D03*
X013105Y008190D03*
X013135Y008280D03*
X013345Y008690D03*
X010405Y006610D03*
X009785Y007030D03*
X009775Y007020D03*
X009485Y006790D03*
X008265Y006580D03*
D35*
X012565Y006580D03*
X013555Y006340D03*
X013795Y005310D03*
D36*
X014180Y005630D03*
X014180Y005640D03*
X014180Y005650D03*
X014180Y005750D03*
X014180Y005760D03*
X014180Y005770D03*
X012710Y006520D03*
X011980Y006550D03*
X012100Y007060D03*
X010970Y007060D03*
X010140Y007020D03*
X009550Y006850D03*
X010850Y006550D03*
X013500Y006730D03*
X014220Y007830D03*
X014220Y007840D03*
X014220Y007970D03*
D37*
X014215Y007960D03*
X014215Y007950D03*
X014215Y007850D03*
X013505Y006870D03*
X013505Y006860D03*
X013505Y006850D03*
X013505Y006840D03*
X013505Y006770D03*
X013505Y006760D03*
X013505Y006750D03*
X013505Y006740D03*
X012365Y006550D03*
X012365Y006540D03*
X012365Y006530D03*
X012365Y006520D03*
X012365Y006510D03*
X012365Y006500D03*
X011985Y006500D03*
X011985Y006510D03*
X011985Y006520D03*
X011985Y006530D03*
X011985Y006540D03*
X011235Y006540D03*
X011235Y006550D03*
X011235Y006530D03*
X011235Y006520D03*
X011235Y006510D03*
X011235Y006500D03*
X010855Y006500D03*
X010855Y006510D03*
X010855Y006520D03*
X010855Y006530D03*
X010855Y006540D03*
X010375Y006250D03*
X010145Y007030D03*
X009715Y006970D03*
X014185Y005740D03*
X014185Y005670D03*
X014185Y005660D03*
D38*
X014180Y005680D03*
X014180Y005720D03*
X014180Y005730D03*
X012710Y006530D03*
X012710Y006540D03*
X011610Y006550D03*
X010360Y006740D03*
X010150Y007040D03*
X010340Y007080D03*
X009700Y006960D03*
X009560Y006860D03*
X008930Y007080D03*
X009600Y007320D03*
X008940Y006520D03*
X014220Y007860D03*
X014220Y007870D03*
X014220Y007880D03*
X014220Y007930D03*
X014220Y007940D03*
D39*
X014215Y007920D03*
X014215Y007910D03*
X013505Y006830D03*
X013505Y006820D03*
X013505Y006790D03*
X013505Y006780D03*
X012715Y006560D03*
X012715Y006550D03*
X012105Y007050D03*
X011605Y006540D03*
X011605Y006530D03*
X011605Y006520D03*
X011605Y006510D03*
X011605Y006500D03*
X010975Y007050D03*
X010355Y006590D03*
X009685Y006950D03*
X009575Y006870D03*
X014175Y005710D03*
X014185Y005690D03*
D40*
X014180Y005700D03*
X012720Y006570D03*
X013500Y006800D03*
X013500Y006810D03*
X014220Y007890D03*
X014220Y007900D03*
X010360Y006750D03*
X010230Y006510D03*
X009600Y006890D03*
X009590Y006880D03*
X009670Y006940D03*
X010160Y007050D03*
D41*
X013305Y006580D03*
X013345Y007020D03*
X013585Y007270D03*
X014135Y007440D03*
X013585Y008530D03*
X013345Y008780D03*
X013895Y006420D03*
X014385Y005930D03*
D42*
X014385Y005940D03*
X013795Y006080D03*
X013895Y006430D03*
X013305Y006570D03*
X013345Y007030D03*
X013585Y007280D03*
X014135Y007430D03*
X013585Y008520D03*
X013345Y008770D03*
X011605Y007380D03*
X011605Y007210D03*
D43*
X011575Y007100D03*
X012775Y007220D03*
X012775Y007230D03*
X013345Y007040D03*
X013505Y006960D03*
X013585Y007290D03*
X014135Y007420D03*
X013305Y006560D03*
X013895Y006440D03*
X013795Y006070D03*
X014385Y005950D03*
X010445Y006670D03*
X010435Y006690D03*
X009435Y007100D03*
X013345Y008760D03*
X013585Y008510D03*
D44*
X013585Y008500D03*
X013345Y008750D03*
X014215Y007750D03*
X014135Y007410D03*
X013585Y007300D03*
X013345Y007050D03*
X012785Y007180D03*
X012785Y007190D03*
X012335Y007400D03*
X011605Y007370D03*
X011605Y007220D03*
X011205Y007100D03*
X010455Y006650D03*
X009875Y006690D03*
X009875Y006700D03*
X009875Y006710D03*
X009875Y006720D03*
X009875Y006730D03*
X009875Y006740D03*
X009435Y007110D03*
X009435Y007120D03*
X009435Y007130D03*
X009435Y007140D03*
X009435Y007150D03*
X009435Y007160D03*
X007895Y007160D03*
X007895Y007170D03*
X007895Y007180D03*
X007895Y007190D03*
X007895Y007150D03*
X007895Y007140D03*
X007895Y006690D03*
X007895Y006680D03*
X007895Y006670D03*
X007895Y006660D03*
X007895Y006650D03*
X013305Y006550D03*
X013895Y006450D03*
X013795Y006060D03*
X014385Y005960D03*
D45*
X014385Y005970D03*
X013305Y006540D03*
X013505Y006950D03*
X013345Y007060D03*
X013585Y007310D03*
X013885Y007150D03*
X014135Y007400D03*
X013835Y007560D03*
X013835Y008240D03*
X013585Y008490D03*
X013345Y008740D03*
X011605Y007360D03*
X011605Y007230D03*
X012795Y007150D03*
X012795Y007140D03*
X010455Y006630D03*
X009865Y006600D03*
X009865Y006590D03*
X010345Y007110D03*
X009445Y007230D03*
X007905Y007240D03*
X007905Y006590D03*
D46*
X013800Y006090D03*
X014140Y006170D03*
X013830Y007510D03*
X014380Y007690D03*
X013830Y008290D03*
D47*
X010340Y006580D03*
X010370Y006260D03*
X008930Y007070D03*
X008080Y007320D03*
X008080Y006510D03*
D48*
X008935Y006540D03*
X008935Y007060D03*
X010325Y006570D03*
X010365Y006270D03*
D49*
X010365Y006280D03*
X010295Y006540D03*
X009595Y007290D03*
D50*
X009610Y007270D03*
X009700Y006540D03*
X010360Y006290D03*
D51*
X009705Y006510D03*
X009615Y006900D03*
X009625Y006910D03*
X009645Y006920D03*
X009655Y006930D03*
X008935Y006530D03*
D52*
X009685Y006560D03*
X010305Y006520D03*
X008085Y006540D03*
D53*
X009710Y006520D03*
X012750Y007060D03*
D54*
X012760Y007050D03*
X012760Y007040D03*
X012760Y007030D03*
X012760Y007020D03*
X012760Y007010D03*
X010310Y006550D03*
X008080Y006520D03*
D55*
X009710Y006530D03*
X010290Y006530D03*
X009600Y007280D03*
D56*
X008075Y007300D03*
X008075Y006530D03*
D57*
X008080Y007290D03*
X009690Y006550D03*
D58*
X010315Y006560D03*
X009595Y007300D03*
X008935Y007050D03*
X008935Y006550D03*
X008075Y007310D03*
D59*
X008090Y007280D03*
X008090Y006550D03*
X012190Y007040D03*
D60*
X012180Y007010D03*
X008100Y007270D03*
X008100Y006560D03*
D61*
X010360Y006760D03*
X012740Y007070D03*
D62*
X011090Y007010D03*
D63*
X012185Y007020D03*
X012185Y007030D03*
D64*
X011095Y007030D03*
X011095Y007020D03*
D65*
X011100Y007040D03*
D66*
X010260Y007060D03*
D67*
X010255Y007070D03*
D68*
X009595Y007310D03*
D69*
X013590Y008540D03*
D70*
X017300Y000100D02*
X001200Y000100D01*
X001150Y000102D01*
X001100Y000107D01*
X001051Y000116D01*
X001003Y000128D01*
X000955Y000144D01*
X000909Y000163D01*
X000865Y000186D01*
X000822Y000211D01*
X000781Y000240D01*
X000742Y000271D01*
X000705Y000305D01*
X000671Y000342D01*
X000640Y000381D01*
X000611Y000422D01*
X000586Y000465D01*
X000563Y000509D01*
X000544Y000555D01*
X000528Y000603D01*
X000516Y000651D01*
X000507Y000700D01*
X000502Y000750D01*
X000500Y000800D01*
X000500Y011400D01*
X000502Y011452D01*
X000508Y011504D01*
X000518Y011556D01*
X000531Y011606D01*
X000548Y011656D01*
X000569Y011704D01*
X000594Y011750D01*
X000622Y011794D01*
X000653Y011836D01*
X000687Y011876D01*
X000724Y011913D01*
X000764Y011947D01*
X000806Y011978D01*
X000850Y012006D01*
X000896Y012031D01*
X000944Y012052D01*
X000994Y012069D01*
X001044Y012082D01*
X001096Y012092D01*
X001148Y012098D01*
X001200Y012100D01*
X017300Y012100D01*
X017350Y012098D01*
X017400Y012093D01*
X017449Y012084D01*
X017497Y012072D01*
X017545Y012056D01*
X017591Y012037D01*
X017635Y012014D01*
X017678Y011989D01*
X017719Y011960D01*
X017758Y011929D01*
X017795Y011895D01*
X017829Y011858D01*
X017860Y011819D01*
X017889Y011778D01*
X017914Y011735D01*
X017937Y011691D01*
X017956Y011645D01*
X017972Y011597D01*
X017984Y011549D01*
X017993Y011500D01*
X017998Y011450D01*
X018000Y011400D01*
X018000Y010740D01*
X018002Y010692D01*
X018007Y010645D01*
X018016Y010598D01*
X018028Y010551D01*
X018044Y010506D01*
X018063Y010462D01*
X018086Y010420D01*
X018111Y010379D01*
X018140Y010341D01*
X018171Y010305D01*
X018205Y010271D01*
X018241Y010240D01*
X018279Y010211D01*
X018320Y010186D01*
X018362Y010163D01*
X018406Y010144D01*
X018451Y010128D01*
X018498Y010116D01*
X018545Y010107D01*
X018592Y010102D01*
X018640Y010100D01*
X019860Y010100D01*
X019908Y010098D01*
X019955Y010093D01*
X020002Y010084D01*
X020049Y010072D01*
X020094Y010056D01*
X020138Y010037D01*
X020180Y010014D01*
X020221Y009989D01*
X020259Y009960D01*
X020295Y009929D01*
X020329Y009895D01*
X020360Y009859D01*
X020389Y009821D01*
X020414Y009780D01*
X020437Y009738D01*
X020456Y009694D01*
X020472Y009649D01*
X020484Y009602D01*
X020493Y009555D01*
X020498Y009508D01*
X020500Y009460D01*
X020500Y002740D01*
X020498Y002692D01*
X020493Y002645D01*
X020484Y002598D01*
X020472Y002551D01*
X020456Y002506D01*
X020437Y002462D01*
X020414Y002420D01*
X020389Y002379D01*
X020360Y002341D01*
X020329Y002305D01*
X020295Y002271D01*
X020259Y002240D01*
X020221Y002211D01*
X020180Y002186D01*
X020138Y002163D01*
X020094Y002144D01*
X020049Y002128D01*
X020002Y002116D01*
X019955Y002107D01*
X019908Y002102D01*
X019860Y002100D01*
X018640Y002100D01*
X018592Y002098D01*
X018545Y002093D01*
X018498Y002084D01*
X018451Y002072D01*
X018406Y002056D01*
X018362Y002037D01*
X018320Y002014D01*
X018279Y001989D01*
X018241Y001960D01*
X018205Y001929D01*
X018171Y001895D01*
X018140Y001859D01*
X018111Y001821D01*
X018086Y001780D01*
X018063Y001738D01*
X018044Y001694D01*
X018028Y001649D01*
X018016Y001602D01*
X018007Y001555D01*
X018002Y001508D01*
X018000Y001460D01*
X018000Y000800D01*
X017998Y000750D01*
X017993Y000700D01*
X017984Y000651D01*
X017972Y000603D01*
X017956Y000555D01*
X017937Y000509D01*
X017914Y000465D01*
X017889Y000422D01*
X017860Y000381D01*
X017829Y000342D01*
X017795Y000305D01*
X017758Y000271D01*
X017719Y000240D01*
X017678Y000211D01*
X017635Y000186D01*
X017591Y000163D01*
X017545Y000144D01*
X017497Y000128D01*
X017449Y000116D01*
X017400Y000107D01*
X017350Y000102D01*
X017300Y000100D01*
X016906Y000850D02*
X016908Y000889D01*
X016914Y000928D01*
X016924Y000966D01*
X016937Y001003D01*
X016954Y001038D01*
X016974Y001072D01*
X016998Y001103D01*
X017025Y001132D01*
X017054Y001158D01*
X017086Y001181D01*
X017120Y001201D01*
X017156Y001217D01*
X017193Y001229D01*
X017232Y001238D01*
X017271Y001243D01*
X017310Y001244D01*
X017349Y001241D01*
X017388Y001234D01*
X017425Y001223D01*
X017462Y001209D01*
X017497Y001191D01*
X017530Y001170D01*
X017561Y001145D01*
X017589Y001118D01*
X017614Y001088D01*
X017636Y001055D01*
X017655Y001021D01*
X017670Y000985D01*
X017682Y000947D01*
X017690Y000909D01*
X017694Y000870D01*
X017694Y000830D01*
X017690Y000791D01*
X017682Y000753D01*
X017670Y000715D01*
X017655Y000679D01*
X017636Y000645D01*
X017614Y000612D01*
X017589Y000582D01*
X017561Y000555D01*
X017530Y000530D01*
X017497Y000509D01*
X017462Y000491D01*
X017425Y000477D01*
X017388Y000466D01*
X017349Y000459D01*
X017310Y000456D01*
X017271Y000457D01*
X017232Y000462D01*
X017193Y000471D01*
X017156Y000483D01*
X017120Y000499D01*
X017086Y000519D01*
X017054Y000542D01*
X017025Y000568D01*
X016998Y000597D01*
X016974Y000628D01*
X016954Y000662D01*
X016937Y000697D01*
X016924Y000734D01*
X016914Y000772D01*
X016908Y000811D01*
X016906Y000850D01*
X000856Y000850D02*
X000858Y000889D01*
X000864Y000928D01*
X000874Y000966D01*
X000887Y001003D01*
X000904Y001038D01*
X000924Y001072D01*
X000948Y001103D01*
X000975Y001132D01*
X001004Y001158D01*
X001036Y001181D01*
X001070Y001201D01*
X001106Y001217D01*
X001143Y001229D01*
X001182Y001238D01*
X001221Y001243D01*
X001260Y001244D01*
X001299Y001241D01*
X001338Y001234D01*
X001375Y001223D01*
X001412Y001209D01*
X001447Y001191D01*
X001480Y001170D01*
X001511Y001145D01*
X001539Y001118D01*
X001564Y001088D01*
X001586Y001055D01*
X001605Y001021D01*
X001620Y000985D01*
X001632Y000947D01*
X001640Y000909D01*
X001644Y000870D01*
X001644Y000830D01*
X001640Y000791D01*
X001632Y000753D01*
X001620Y000715D01*
X001605Y000679D01*
X001586Y000645D01*
X001564Y000612D01*
X001539Y000582D01*
X001511Y000555D01*
X001480Y000530D01*
X001447Y000509D01*
X001412Y000491D01*
X001375Y000477D01*
X001338Y000466D01*
X001299Y000459D01*
X001260Y000456D01*
X001221Y000457D01*
X001182Y000462D01*
X001143Y000471D01*
X001106Y000483D01*
X001070Y000499D01*
X001036Y000519D01*
X001004Y000542D01*
X000975Y000568D01*
X000948Y000597D01*
X000924Y000628D01*
X000904Y000662D01*
X000887Y000697D01*
X000874Y000734D01*
X000864Y000772D01*
X000858Y000811D01*
X000856Y000850D01*
X000856Y011350D02*
X000858Y011389D01*
X000864Y011428D01*
X000874Y011466D01*
X000887Y011503D01*
X000904Y011538D01*
X000924Y011572D01*
X000948Y011603D01*
X000975Y011632D01*
X001004Y011658D01*
X001036Y011681D01*
X001070Y011701D01*
X001106Y011717D01*
X001143Y011729D01*
X001182Y011738D01*
X001221Y011743D01*
X001260Y011744D01*
X001299Y011741D01*
X001338Y011734D01*
X001375Y011723D01*
X001412Y011709D01*
X001447Y011691D01*
X001480Y011670D01*
X001511Y011645D01*
X001539Y011618D01*
X001564Y011588D01*
X001586Y011555D01*
X001605Y011521D01*
X001620Y011485D01*
X001632Y011447D01*
X001640Y011409D01*
X001644Y011370D01*
X001644Y011330D01*
X001640Y011291D01*
X001632Y011253D01*
X001620Y011215D01*
X001605Y011179D01*
X001586Y011145D01*
X001564Y011112D01*
X001539Y011082D01*
X001511Y011055D01*
X001480Y011030D01*
X001447Y011009D01*
X001412Y010991D01*
X001375Y010977D01*
X001338Y010966D01*
X001299Y010959D01*
X001260Y010956D01*
X001221Y010957D01*
X001182Y010962D01*
X001143Y010971D01*
X001106Y010983D01*
X001070Y010999D01*
X001036Y011019D01*
X001004Y011042D01*
X000975Y011068D01*
X000948Y011097D01*
X000924Y011128D01*
X000904Y011162D01*
X000887Y011197D01*
X000874Y011234D01*
X000864Y011272D01*
X000858Y011311D01*
X000856Y011350D01*
X016906Y011350D02*
X016908Y011389D01*
X016914Y011428D01*
X016924Y011466D01*
X016937Y011503D01*
X016954Y011538D01*
X016974Y011572D01*
X016998Y011603D01*
X017025Y011632D01*
X017054Y011658D01*
X017086Y011681D01*
X017120Y011701D01*
X017156Y011717D01*
X017193Y011729D01*
X017232Y011738D01*
X017271Y011743D01*
X017310Y011744D01*
X017349Y011741D01*
X017388Y011734D01*
X017425Y011723D01*
X017462Y011709D01*
X017497Y011691D01*
X017530Y011670D01*
X017561Y011645D01*
X017589Y011618D01*
X017614Y011588D01*
X017636Y011555D01*
X017655Y011521D01*
X017670Y011485D01*
X017682Y011447D01*
X017690Y011409D01*
X017694Y011370D01*
X017694Y011330D01*
X017690Y011291D01*
X017682Y011253D01*
X017670Y011215D01*
X017655Y011179D01*
X017636Y011145D01*
X017614Y011112D01*
X017589Y011082D01*
X017561Y011055D01*
X017530Y011030D01*
X017497Y011009D01*
X017462Y010991D01*
X017425Y010977D01*
X017388Y010966D01*
X017349Y010959D01*
X017310Y010956D01*
X017271Y010957D01*
X017232Y010962D01*
X017193Y010971D01*
X017156Y010983D01*
X017120Y010999D01*
X017086Y011019D01*
X017054Y011042D01*
X017025Y011068D01*
X016998Y011097D01*
X016974Y011128D01*
X016954Y011162D01*
X016937Y011197D01*
X016924Y011234D01*
X016914Y011272D01*
X016908Y011311D01*
X016906Y011350D01*
M02*
