G75*
%MOIN*%
%OFA0B0*%
%FSLAX24Y24*%
%IPPOS*%
%LPD*%
%AMOC8*
5,1,8,0,0,1.08239X$1,22.5*
%
%ADD10C,0.0040*%
%ADD11C,0.0100*%
%ADD12C,0.0050*%
%ADD13C,0.0080*%
%ADD14C,0.0100*%
%ADD15C,0.0030*%
%ADD16C,0.0000*%
D10*
X000670Y001995D02*
X000670Y002195D01*
X000770Y002195D01*
X000803Y002162D01*
X000803Y002095D01*
X000770Y002062D01*
X000670Y002062D01*
X000737Y002062D02*
X000803Y001995D01*
X000891Y001995D02*
X001024Y002195D01*
X001112Y002195D02*
X001212Y002195D01*
X001245Y002162D01*
X001245Y002028D01*
X001212Y001995D01*
X001112Y001995D01*
X001112Y002195D01*
X001024Y001995D02*
X000891Y002195D01*
X000891Y002995D02*
X001024Y003195D01*
X001112Y003195D02*
X001212Y003195D01*
X001245Y003162D01*
X001245Y003028D01*
X001212Y002995D01*
X001112Y002995D01*
X001112Y003195D01*
X001024Y002995D02*
X000891Y003195D01*
X000803Y003195D02*
X000670Y003195D01*
X000737Y003195D02*
X000737Y002995D01*
X002720Y004403D02*
X002753Y004370D01*
X002820Y004370D01*
X002853Y004403D01*
X002853Y004570D01*
X002941Y004537D02*
X002941Y004503D01*
X002974Y004470D01*
X003041Y004470D01*
X003074Y004437D01*
X003074Y004403D01*
X003041Y004370D01*
X002974Y004370D01*
X002941Y004403D01*
X002720Y004403D02*
X002720Y004570D01*
X002941Y004537D02*
X002974Y004570D01*
X003041Y004570D01*
X003074Y004537D01*
X003162Y004570D02*
X003262Y004570D01*
X003295Y004537D01*
X003295Y004503D01*
X003262Y004470D01*
X003162Y004470D01*
X003162Y004370D02*
X003262Y004370D01*
X003295Y004403D01*
X003295Y004437D01*
X003262Y004470D01*
X003162Y004370D02*
X003162Y004570D01*
X005680Y002341D02*
X005680Y002274D01*
X005713Y002241D01*
X005847Y002241D01*
X005880Y002274D01*
X005880Y002341D01*
X005847Y002374D01*
X005713Y002374D02*
X005680Y002341D01*
X005680Y002153D02*
X005880Y002153D01*
X005680Y002020D01*
X005880Y002020D01*
X006680Y002020D02*
X006880Y002153D01*
X006680Y002153D01*
X006713Y002241D02*
X006847Y002241D01*
X006880Y002274D01*
X006880Y002341D01*
X006847Y002374D01*
X006713Y002374D02*
X006680Y002341D01*
X006680Y002274D01*
X006713Y002241D01*
X006680Y002020D02*
X006880Y002020D01*
X007680Y002020D02*
X007880Y002153D01*
X007680Y002153D01*
X007713Y002241D02*
X007847Y002241D01*
X007880Y002274D01*
X007880Y002341D01*
X007847Y002374D01*
X007713Y002374D02*
X007680Y002341D01*
X007680Y002274D01*
X007713Y002241D01*
X007680Y002020D02*
X007880Y002020D01*
X008680Y002020D02*
X008880Y002153D01*
X008680Y002153D01*
X008713Y002241D02*
X008847Y002241D01*
X008880Y002274D01*
X008880Y002341D01*
X008847Y002374D01*
X008713Y002374D02*
X008680Y002341D01*
X008680Y002274D01*
X008713Y002241D01*
X008680Y002020D02*
X008880Y002020D01*
X009680Y002020D02*
X009880Y002153D01*
X009680Y002153D01*
X009713Y002241D02*
X009847Y002241D01*
X009880Y002274D01*
X009880Y002341D01*
X009847Y002374D01*
X009713Y002374D02*
X009680Y002341D01*
X009680Y002274D01*
X009713Y002241D01*
X009680Y002020D02*
X009880Y002020D01*
X010680Y002020D02*
X010880Y002153D01*
X010680Y002153D01*
X010713Y002241D02*
X010847Y002241D01*
X010880Y002274D01*
X010880Y002341D01*
X010847Y002374D01*
X010713Y002374D02*
X010680Y002341D01*
X010680Y002274D01*
X010713Y002241D01*
X010680Y002020D02*
X010880Y002020D01*
X011680Y002020D02*
X011880Y002153D01*
X011680Y002153D01*
X011713Y002241D02*
X011847Y002241D01*
X011880Y002274D01*
X011880Y002341D01*
X011847Y002374D01*
X011713Y002374D02*
X011680Y002341D01*
X011680Y002274D01*
X011713Y002241D01*
X011680Y002020D02*
X011880Y002020D01*
X012220Y002353D02*
X012253Y002320D01*
X012320Y002320D01*
X012353Y002353D01*
X012353Y002387D01*
X012320Y002420D01*
X012287Y002420D01*
X012320Y002420D02*
X012353Y002453D01*
X012353Y002487D01*
X012320Y002520D01*
X012253Y002520D01*
X012220Y002487D01*
X012441Y002520D02*
X012441Y002387D01*
X012508Y002320D01*
X012574Y002387D01*
X012574Y002520D01*
X012713Y002374D02*
X012680Y002341D01*
X012680Y002274D01*
X012713Y002241D01*
X012847Y002241D01*
X012880Y002274D01*
X012880Y002341D01*
X012847Y002374D01*
X012880Y002153D02*
X012680Y002153D01*
X012680Y002020D02*
X012880Y002153D01*
X012880Y002020D02*
X012680Y002020D01*
X014020Y003003D02*
X014053Y002970D01*
X014120Y002970D01*
X014153Y003003D01*
X014241Y003003D02*
X014274Y002970D01*
X014341Y002970D01*
X014374Y003003D01*
X014374Y003037D01*
X014341Y003070D01*
X014308Y003070D01*
X014341Y003070D02*
X014374Y003103D01*
X014374Y003137D01*
X014341Y003170D01*
X014274Y003170D01*
X014241Y003137D01*
X014153Y003137D02*
X014120Y003170D01*
X014053Y003170D01*
X014020Y003137D01*
X014020Y003003D01*
X015180Y002950D02*
X015380Y002950D01*
X015380Y003016D02*
X015380Y002883D01*
X015380Y002795D02*
X015313Y002729D01*
X015313Y002762D02*
X015313Y002662D01*
X015380Y002662D02*
X015180Y002662D01*
X015180Y002762D01*
X015213Y002795D01*
X015280Y002795D01*
X015313Y002762D01*
X015247Y002883D02*
X015180Y002950D01*
X015180Y003120D02*
X015180Y003220D01*
X015213Y003253D01*
X015280Y003253D01*
X015313Y003220D01*
X015313Y003120D01*
X015313Y003187D02*
X015380Y003253D01*
X015380Y003120D02*
X015180Y003120D01*
X015180Y003341D02*
X015180Y003474D01*
X015180Y003408D02*
X015380Y003408D01*
X015347Y003562D02*
X015380Y003595D01*
X015380Y003662D01*
X015347Y003695D01*
X015313Y003695D01*
X015280Y003662D01*
X015280Y003595D01*
X015247Y003562D01*
X015213Y003562D01*
X015180Y003595D01*
X015180Y003662D01*
X015213Y003695D01*
X015247Y003783D02*
X015180Y003850D01*
X015380Y003850D01*
X015380Y003916D02*
X015380Y003783D01*
X015380Y004120D02*
X015180Y004120D01*
X015180Y004220D01*
X015213Y004253D01*
X015347Y004253D01*
X015380Y004220D01*
X015380Y004120D01*
X015380Y004408D02*
X015180Y004408D01*
X015180Y004474D02*
X015180Y004341D01*
X015180Y004562D02*
X015180Y004662D01*
X015213Y004695D01*
X015280Y004695D01*
X015313Y004662D01*
X015313Y004562D01*
X015313Y004629D02*
X015380Y004695D01*
X015380Y004783D02*
X015380Y004916D01*
X015380Y004850D02*
X015180Y004850D01*
X015247Y004783D01*
X015180Y004562D02*
X015380Y004562D01*
X015380Y005220D02*
X015180Y005220D01*
X015180Y005320D01*
X015213Y005353D01*
X015280Y005353D01*
X015313Y005320D01*
X015313Y005220D01*
X015313Y005287D02*
X015380Y005353D01*
X015380Y005441D02*
X015180Y005574D01*
X015180Y005662D02*
X015180Y005762D01*
X015213Y005795D01*
X015347Y005795D01*
X015380Y005762D01*
X015380Y005662D01*
X015180Y005662D01*
X015380Y005574D02*
X015180Y005441D01*
X015247Y005883D02*
X015180Y005950D01*
X015380Y005950D01*
X015380Y006016D02*
X015380Y005883D01*
X015180Y006220D02*
X015180Y006353D01*
X015180Y006287D02*
X015380Y006287D01*
X015380Y006441D02*
X015180Y006574D01*
X015180Y006662D02*
X015180Y006762D01*
X015213Y006795D01*
X015347Y006795D01*
X015380Y006762D01*
X015380Y006662D01*
X015180Y006662D01*
X015380Y006574D02*
X015180Y006441D01*
X015247Y006883D02*
X015180Y006950D01*
X015380Y006950D01*
X015380Y007016D02*
X015380Y006883D01*
X015313Y007320D02*
X015180Y007320D01*
X015313Y007320D02*
X015380Y007387D01*
X015313Y007453D01*
X015180Y007453D01*
X015213Y007541D02*
X015180Y007574D01*
X015180Y007641D01*
X015213Y007674D01*
X015213Y007762D02*
X015180Y007795D01*
X015180Y007862D01*
X015213Y007895D01*
X015213Y007762D02*
X015347Y007762D01*
X015380Y007795D01*
X015380Y007862D01*
X015347Y007895D01*
X015347Y007674D02*
X015380Y007641D01*
X015380Y007574D01*
X015347Y007541D01*
X015213Y007541D01*
X015213Y008220D02*
X015180Y008253D01*
X015180Y008320D01*
X015213Y008353D01*
X015180Y008441D02*
X015180Y008574D01*
X015180Y008508D02*
X015380Y008508D01*
X015347Y008662D02*
X015380Y008695D01*
X015380Y008762D01*
X015347Y008795D01*
X015313Y008795D01*
X015280Y008762D01*
X015280Y008695D01*
X015247Y008662D01*
X015213Y008662D01*
X015180Y008695D01*
X015180Y008762D01*
X015213Y008795D01*
X015247Y008883D02*
X015180Y008950D01*
X015380Y008950D01*
X015380Y009016D02*
X015380Y008883D01*
X015347Y009320D02*
X015380Y009353D01*
X015380Y009420D01*
X015347Y009453D01*
X015280Y009453D01*
X015280Y009387D01*
X015213Y009453D02*
X015180Y009420D01*
X015180Y009353D01*
X015213Y009320D01*
X015347Y009320D01*
X015380Y009541D02*
X015180Y009541D01*
X015380Y009674D01*
X015180Y009674D01*
X015180Y009762D02*
X015180Y009862D01*
X015213Y009895D01*
X015347Y009895D01*
X015380Y009862D01*
X015380Y009762D01*
X015180Y009762D01*
X013130Y009774D02*
X013130Y009641D01*
X012997Y009774D01*
X012963Y009774D01*
X012930Y009741D01*
X012930Y009674D01*
X012963Y009641D01*
X012963Y009553D02*
X012930Y009520D01*
X012930Y009453D01*
X012963Y009420D01*
X013097Y009420D01*
X013130Y009453D01*
X013130Y009520D01*
X013097Y009553D01*
X010880Y009587D02*
X010680Y009587D01*
X010680Y009653D02*
X010680Y009520D01*
X010680Y009741D02*
X010880Y009874D01*
X010880Y009962D02*
X010680Y009962D01*
X010680Y010062D01*
X010713Y010095D01*
X010847Y010095D01*
X010880Y010062D01*
X010880Y009962D01*
X010680Y009874D02*
X010880Y009741D01*
X009880Y009741D02*
X009680Y009874D01*
X009680Y009962D02*
X009680Y010062D01*
X009713Y010095D01*
X009847Y010095D01*
X009880Y010062D01*
X009880Y009962D01*
X009680Y009962D01*
X009880Y009874D02*
X009680Y009741D01*
X009713Y009653D02*
X009780Y009653D01*
X009813Y009620D01*
X009813Y009520D01*
X009813Y009587D02*
X009880Y009653D01*
X009880Y009520D02*
X009680Y009520D01*
X009680Y009620D01*
X009713Y009653D01*
X008880Y009620D02*
X008880Y009553D01*
X008847Y009520D01*
X008713Y009520D01*
X008680Y009553D01*
X008680Y009620D01*
X008713Y009653D01*
X008680Y009741D02*
X008680Y009874D01*
X008680Y009808D02*
X008880Y009808D01*
X008847Y009653D02*
X008880Y009620D01*
X008847Y009962D02*
X008880Y009995D01*
X008880Y010062D01*
X008847Y010095D01*
X008813Y010095D01*
X008780Y010062D01*
X008780Y009995D01*
X008747Y009962D01*
X008713Y009962D01*
X008680Y009995D01*
X008680Y010062D01*
X008713Y010095D01*
X007880Y010062D02*
X007880Y009995D01*
X007847Y009962D01*
X007780Y009995D02*
X007780Y010062D01*
X007813Y010095D01*
X007847Y010095D01*
X007880Y010062D01*
X007780Y009995D02*
X007747Y009962D01*
X007713Y009962D01*
X007680Y009995D01*
X007680Y010062D01*
X007713Y010095D01*
X007680Y009874D02*
X007680Y009741D01*
X007680Y009808D02*
X007880Y009808D01*
X007880Y009653D02*
X007813Y009587D01*
X007813Y009620D02*
X007813Y009520D01*
X007880Y009520D02*
X007680Y009520D01*
X007680Y009620D01*
X007713Y009653D01*
X007780Y009653D01*
X007813Y009620D01*
X006980Y009620D02*
X006980Y009520D01*
X006780Y009520D01*
X006780Y009620D01*
X006813Y009653D01*
X006947Y009653D01*
X006980Y009620D01*
X006980Y009808D02*
X006780Y009808D01*
X006780Y009874D02*
X006780Y009741D01*
X006780Y009962D02*
X006780Y010062D01*
X006813Y010095D01*
X006880Y010095D01*
X006913Y010062D01*
X006913Y009962D01*
X006913Y010029D02*
X006980Y010095D01*
X006980Y009962D02*
X006780Y009962D01*
X005880Y009962D02*
X005680Y009962D01*
X005680Y010062D01*
X005713Y010095D01*
X005780Y010095D01*
X005813Y010062D01*
X005813Y009962D01*
X005813Y010029D02*
X005880Y010095D01*
X005847Y009874D02*
X005880Y009841D01*
X005880Y009774D01*
X005847Y009741D01*
X005780Y009774D02*
X005780Y009841D01*
X005813Y009874D01*
X005847Y009874D01*
X005780Y009774D02*
X005747Y009741D01*
X005713Y009741D01*
X005680Y009774D01*
X005680Y009841D01*
X005713Y009874D01*
X005713Y009653D02*
X005680Y009620D01*
X005680Y009520D01*
X005880Y009520D01*
X005880Y009620D01*
X005847Y009653D01*
X005713Y009653D01*
X004880Y009620D02*
X004880Y009520D01*
X004680Y009520D01*
X004680Y009620D01*
X004713Y009653D01*
X004847Y009653D01*
X004880Y009620D01*
X004847Y009741D02*
X004713Y009741D01*
X004680Y009774D01*
X004680Y009841D01*
X004713Y009874D01*
X004680Y009962D02*
X004680Y010062D01*
X004713Y010095D01*
X004847Y010095D01*
X004880Y010062D01*
X004880Y009962D01*
X004680Y009962D01*
X004847Y009874D02*
X004880Y009841D01*
X004880Y009774D01*
X004847Y009741D01*
X002229Y010028D02*
X002229Y010162D01*
X002196Y010195D01*
X002096Y010195D01*
X002096Y009995D01*
X002196Y009995D01*
X002229Y010028D01*
X002008Y009995D02*
X002008Y010195D01*
X001875Y010195D02*
X001875Y009995D01*
X001787Y009995D02*
X001654Y009995D01*
X001654Y010195D01*
X001787Y010195D01*
X001875Y010195D02*
X002008Y009995D01*
X001721Y010095D02*
X001654Y010095D01*
X001566Y010095D02*
X001533Y010062D01*
X001433Y010062D01*
X001433Y009995D02*
X001433Y010195D01*
X001533Y010195D01*
X001566Y010162D01*
X001566Y010095D01*
X001345Y010062D02*
X001345Y010028D01*
X001312Y009995D01*
X001245Y009995D01*
X001212Y010028D01*
X001245Y010095D02*
X001312Y010095D01*
X001345Y010062D01*
X001345Y010162D02*
X001312Y010195D01*
X001245Y010195D01*
X001212Y010162D01*
X001212Y010128D01*
X001245Y010095D01*
X001124Y010028D02*
X001124Y010195D01*
X000991Y010195D02*
X000991Y010028D01*
X001024Y009995D01*
X001091Y009995D01*
X001124Y010028D01*
X000903Y010028D02*
X000870Y009995D01*
X000803Y009995D01*
X000770Y010028D01*
X000803Y010095D02*
X000870Y010095D01*
X000903Y010062D01*
X000903Y010028D01*
X000803Y010095D02*
X000770Y010128D01*
X000770Y010162D01*
X000803Y010195D01*
X000870Y010195D01*
X000903Y010162D01*
X000870Y009195D02*
X000770Y009195D01*
X000770Y008995D01*
X000770Y009062D02*
X000870Y009062D01*
X000903Y009095D01*
X000903Y009162D01*
X000870Y009195D01*
X000991Y009162D02*
X000991Y009028D01*
X001024Y008995D01*
X001091Y008995D01*
X001124Y009028D01*
X001124Y009162D01*
X001091Y009195D01*
X001024Y009195D01*
X000991Y009162D01*
X001212Y009195D02*
X001212Y008995D01*
X001279Y009062D01*
X001345Y008995D01*
X001345Y009195D01*
X001433Y009195D02*
X001433Y008995D01*
X001566Y008995D01*
X001654Y008995D02*
X001654Y009195D01*
X001754Y009195D01*
X001787Y009162D01*
X001787Y009095D01*
X001754Y009062D01*
X001654Y009062D01*
X001721Y009062D02*
X001787Y008995D01*
X001566Y009195D02*
X001433Y009195D01*
X001433Y009095D02*
X001500Y009095D01*
X011328Y004330D02*
X011328Y004163D01*
X011361Y004130D01*
X011428Y004130D01*
X011461Y004163D01*
X011461Y004330D01*
X011549Y004263D02*
X011616Y004330D01*
X011616Y004130D01*
X011682Y004130D02*
X011549Y004130D01*
X012220Y004120D02*
X012287Y004153D01*
X012320Y004153D01*
X012353Y004120D01*
X012353Y004053D01*
X012320Y004020D01*
X012253Y004020D01*
X012220Y004053D01*
X012220Y004120D02*
X012220Y004220D01*
X012353Y004220D01*
X012441Y004220D02*
X012441Y004087D01*
X012508Y004020D01*
X012574Y004087D01*
X012574Y004220D01*
X015180Y002541D02*
X015180Y002474D01*
X015213Y002441D01*
X015247Y002441D01*
X015280Y002474D01*
X015280Y002541D01*
X015313Y002574D01*
X015347Y002574D01*
X015380Y002541D01*
X015380Y002474D01*
X015347Y002441D01*
X015347Y002353D02*
X015213Y002353D01*
X015180Y002320D01*
X015180Y002220D01*
X015380Y002220D01*
X015380Y002320D01*
X015347Y002353D01*
X015180Y002541D02*
X015213Y002574D01*
X019380Y002541D02*
X019580Y002674D01*
X019380Y002674D01*
X019380Y002762D02*
X019380Y002862D01*
X019413Y002895D01*
X019547Y002895D01*
X019580Y002862D01*
X019580Y002762D01*
X019380Y002762D01*
X019380Y002541D02*
X019580Y002541D01*
X019547Y002453D02*
X019480Y002453D01*
X019480Y002387D01*
X019547Y002453D02*
X019580Y002420D01*
X019580Y002353D01*
X019547Y002320D01*
X019413Y002320D01*
X019380Y002353D01*
X019380Y002420D01*
X019413Y002453D01*
X019413Y003320D02*
X019547Y003320D01*
X019580Y003353D01*
X019580Y003420D01*
X019547Y003453D01*
X019413Y003453D02*
X019380Y003420D01*
X019380Y003353D01*
X019413Y003320D01*
X019380Y003541D02*
X019380Y003674D01*
X019380Y003608D02*
X019580Y003608D01*
X019547Y003762D02*
X019580Y003795D01*
X019580Y003862D01*
X019547Y003895D01*
X019513Y003895D01*
X019480Y003862D01*
X019480Y003795D01*
X019447Y003762D01*
X019413Y003762D01*
X019380Y003795D01*
X019380Y003862D01*
X019413Y003895D01*
X019447Y003983D02*
X019380Y004050D01*
X019580Y004050D01*
X019580Y004116D02*
X019580Y003983D01*
X019513Y004320D02*
X019580Y004387D01*
X019513Y004453D01*
X019380Y004453D01*
X019413Y004541D02*
X019547Y004541D01*
X019580Y004574D01*
X019580Y004641D01*
X019547Y004674D01*
X019547Y004762D02*
X019580Y004795D01*
X019580Y004862D01*
X019547Y004895D01*
X019547Y004762D02*
X019413Y004762D01*
X019380Y004795D01*
X019380Y004862D01*
X019413Y004895D01*
X019413Y004674D02*
X019380Y004641D01*
X019380Y004574D01*
X019413Y004541D01*
X019380Y004320D02*
X019513Y004320D01*
X019380Y005320D02*
X019380Y005453D01*
X019380Y005387D02*
X019580Y005387D01*
X019580Y005541D02*
X019380Y005674D01*
X019380Y005762D02*
X019380Y005862D01*
X019413Y005895D01*
X019547Y005895D01*
X019580Y005862D01*
X019580Y005762D01*
X019380Y005762D01*
X019580Y005674D02*
X019380Y005541D01*
X019447Y005983D02*
X019380Y006050D01*
X019580Y006050D01*
X019580Y006116D02*
X019580Y005983D01*
X019580Y006320D02*
X019380Y006320D01*
X019380Y006420D01*
X019413Y006453D01*
X019480Y006453D01*
X019513Y006420D01*
X019513Y006320D01*
X019513Y006387D02*
X019580Y006453D01*
X019580Y006541D02*
X019380Y006674D01*
X019380Y006762D02*
X019380Y006862D01*
X019413Y006895D01*
X019547Y006895D01*
X019580Y006862D01*
X019580Y006762D01*
X019380Y006762D01*
X019580Y006674D02*
X019380Y006541D01*
X019447Y006983D02*
X019380Y007050D01*
X019580Y007050D01*
X019580Y007116D02*
X019580Y006983D01*
X019580Y007320D02*
X019380Y007320D01*
X019380Y007420D01*
X019413Y007453D01*
X019547Y007453D01*
X019580Y007420D01*
X019580Y007320D01*
X019380Y007541D02*
X019380Y007674D01*
X019380Y007608D02*
X019580Y007608D01*
X019580Y007762D02*
X019380Y007762D01*
X019380Y007862D01*
X019413Y007895D01*
X019480Y007895D01*
X019513Y007862D01*
X019513Y007762D01*
X019513Y007829D02*
X019580Y007895D01*
X019580Y007983D02*
X019580Y008116D01*
X019580Y008050D02*
X019380Y008050D01*
X019447Y007983D01*
X019513Y008320D02*
X019513Y008420D01*
X019480Y008453D01*
X019413Y008453D01*
X019380Y008420D01*
X019380Y008320D01*
X019580Y008320D01*
X019513Y008387D02*
X019580Y008453D01*
X019580Y008608D02*
X019380Y008608D01*
X019380Y008674D02*
X019380Y008541D01*
X019413Y008762D02*
X019447Y008762D01*
X019480Y008795D01*
X019480Y008862D01*
X019513Y008895D01*
X019547Y008895D01*
X019580Y008862D01*
X019580Y008795D01*
X019547Y008762D01*
X019413Y008762D02*
X019380Y008795D01*
X019380Y008862D01*
X019413Y008895D01*
X019447Y008983D02*
X019380Y009050D01*
X019580Y009050D01*
X019580Y009116D02*
X019580Y008983D01*
X019580Y009320D02*
X019380Y009320D01*
X019380Y009420D01*
X019413Y009453D01*
X019547Y009453D01*
X019580Y009420D01*
X019580Y009320D01*
X019547Y009541D02*
X019580Y009574D01*
X019580Y009641D01*
X019547Y009674D01*
X019513Y009674D01*
X019480Y009641D01*
X019480Y009574D01*
X019447Y009541D01*
X019413Y009541D01*
X019380Y009574D01*
X019380Y009641D01*
X019413Y009674D01*
X019380Y009762D02*
X019380Y009862D01*
X019413Y009895D01*
X019480Y009895D01*
X019513Y009862D01*
X019513Y009762D01*
X019513Y009829D02*
X019580Y009895D01*
X019580Y009983D02*
X019580Y010116D01*
X019580Y010050D02*
X019380Y010050D01*
X019447Y009983D01*
X019380Y009762D02*
X019580Y009762D01*
X015380Y008320D02*
X015380Y008253D01*
X015347Y008220D01*
X015213Y008220D01*
X015347Y008353D02*
X015380Y008320D01*
D11*
X009800Y007600D02*
X009802Y007620D01*
X009808Y007638D01*
X009817Y007656D01*
X009829Y007671D01*
X009844Y007683D01*
X009862Y007692D01*
X009880Y007698D01*
X009900Y007700D01*
X009920Y007698D01*
X009938Y007692D01*
X009956Y007683D01*
X009971Y007671D01*
X009983Y007656D01*
X009992Y007638D01*
X009998Y007620D01*
X010000Y007600D01*
X009998Y007580D01*
X009992Y007562D01*
X009983Y007544D01*
X009971Y007529D01*
X009956Y007517D01*
X009938Y007508D01*
X009920Y007502D01*
X009900Y007500D01*
X009880Y007502D01*
X009862Y007508D01*
X009844Y007517D01*
X009829Y007529D01*
X009817Y007544D01*
X009808Y007562D01*
X009802Y007580D01*
X009800Y007600D01*
X002481Y007714D02*
X002481Y006809D01*
X002481Y007714D02*
X001772Y007714D01*
X000828Y007714D02*
X000552Y007714D01*
X002481Y005391D02*
X002481Y004486D01*
X001772Y004486D01*
X000828Y004486D02*
X000552Y004486D01*
D12*
X004525Y003695D02*
X004525Y003425D01*
X004525Y003515D02*
X004660Y003515D01*
X004705Y003560D01*
X004705Y003650D01*
X004660Y003695D01*
X004525Y003695D01*
X004615Y003515D02*
X004705Y003425D01*
X004820Y003425D02*
X005000Y003425D01*
X004910Y003425D02*
X004910Y003695D01*
X004820Y003605D01*
X005114Y003605D02*
X005204Y003695D01*
X005204Y003425D01*
X005114Y003425D02*
X005294Y003425D01*
X005925Y003970D02*
X005970Y003925D01*
X006060Y003925D01*
X006105Y003970D01*
X006220Y003925D02*
X006400Y003925D01*
X006310Y003925D02*
X006310Y004195D01*
X006220Y004105D01*
X006105Y004150D02*
X006060Y004195D01*
X005970Y004195D01*
X005925Y004150D01*
X005925Y003970D01*
X006825Y003695D02*
X006825Y003425D01*
X006825Y003560D02*
X006915Y003560D01*
X006825Y003695D02*
X007005Y003695D01*
X007120Y003605D02*
X007210Y003695D01*
X007210Y003425D01*
X007120Y003425D02*
X007300Y003425D01*
X008025Y004225D02*
X008025Y004495D01*
X008160Y004495D01*
X008205Y004450D01*
X008205Y004360D01*
X008160Y004315D01*
X008025Y004315D01*
X008115Y004315D02*
X008205Y004225D01*
X008320Y004225D02*
X008500Y004225D01*
X008410Y004225D02*
X008410Y004495D01*
X008320Y004405D01*
X008614Y004495D02*
X008794Y004495D01*
X008794Y004450D01*
X008614Y004270D01*
X008614Y004225D01*
X009736Y004350D02*
X009781Y004305D01*
X009871Y004305D01*
X009916Y004350D01*
X010030Y004350D02*
X010075Y004305D01*
X010165Y004305D01*
X010211Y004350D01*
X010211Y004440D01*
X010165Y004485D01*
X010120Y004485D01*
X010030Y004440D01*
X010030Y004575D01*
X010211Y004575D01*
X009916Y004530D02*
X009871Y004575D01*
X009781Y004575D01*
X009736Y004530D01*
X009736Y004350D01*
X009771Y003475D02*
X009681Y003475D01*
X009636Y003430D01*
X009636Y003250D01*
X009681Y003205D01*
X009771Y003205D01*
X009816Y003250D01*
X009930Y003340D02*
X010111Y003340D01*
X010065Y003205D02*
X010065Y003475D01*
X009930Y003340D01*
X009816Y003430D02*
X009771Y003475D01*
X011381Y005405D02*
X011471Y005405D01*
X011516Y005450D01*
X011630Y005450D02*
X011630Y005495D01*
X011675Y005540D01*
X011765Y005540D01*
X011811Y005495D01*
X011811Y005450D01*
X011765Y005405D01*
X011675Y005405D01*
X011630Y005450D01*
X011675Y005540D02*
X011630Y005585D01*
X011630Y005630D01*
X011675Y005675D01*
X011765Y005675D01*
X011811Y005630D01*
X011811Y005585D01*
X011765Y005540D01*
X011516Y005630D02*
X011471Y005675D01*
X011381Y005675D01*
X011336Y005630D01*
X011336Y005450D01*
X011381Y005405D01*
X012825Y006425D02*
X012825Y006695D01*
X012960Y006695D01*
X013005Y006650D01*
X013005Y006560D01*
X012960Y006515D01*
X012825Y006515D01*
X012915Y006515D02*
X013005Y006425D01*
X013120Y006425D02*
X013300Y006425D01*
X013210Y006425D02*
X013210Y006695D01*
X013120Y006605D01*
X013414Y006560D02*
X013414Y006695D01*
X013594Y006695D01*
X013549Y006605D02*
X013594Y006560D01*
X013594Y006470D01*
X013549Y006425D01*
X013459Y006425D01*
X013414Y006470D01*
X013414Y006560D02*
X013504Y006605D01*
X013549Y006605D01*
X011820Y008125D02*
X011820Y008170D01*
X012000Y008350D01*
X012000Y008395D01*
X011820Y008395D01*
X011705Y008350D02*
X011660Y008395D01*
X011570Y008395D01*
X011525Y008350D01*
X011525Y008170D01*
X011570Y008125D01*
X011660Y008125D01*
X011705Y008170D01*
X010935Y007808D02*
X010890Y007853D01*
X010800Y007853D01*
X010755Y007808D01*
X010641Y007853D02*
X010641Y007628D01*
X010596Y007583D01*
X010505Y007583D01*
X010460Y007628D01*
X010460Y007853D01*
X010755Y007583D02*
X010935Y007763D01*
X010935Y007808D01*
X010935Y007583D02*
X010755Y007583D01*
X012825Y008225D02*
X012825Y008495D01*
X012960Y008495D01*
X013005Y008450D01*
X013005Y008360D01*
X012960Y008315D01*
X012825Y008315D01*
X012915Y008315D02*
X013005Y008225D01*
X013120Y008225D02*
X013300Y008225D01*
X013210Y008225D02*
X013210Y008495D01*
X013120Y008405D01*
X013414Y008450D02*
X013459Y008495D01*
X013549Y008495D01*
X013594Y008450D01*
X013594Y008405D01*
X013549Y008360D01*
X013594Y008315D01*
X013594Y008270D01*
X013549Y008225D01*
X013459Y008225D01*
X013414Y008270D01*
X013504Y008360D02*
X013549Y008360D01*
X007300Y005795D02*
X007210Y005750D01*
X007120Y005660D01*
X007255Y005660D01*
X007300Y005615D01*
X007300Y005570D01*
X007255Y005525D01*
X007165Y005525D01*
X007120Y005570D01*
X007120Y005660D01*
X007005Y005570D02*
X006960Y005525D01*
X006870Y005525D01*
X006825Y005570D01*
X006825Y005750D01*
X006870Y005795D01*
X006960Y005795D01*
X007005Y005750D01*
X006400Y005650D02*
X006400Y005605D01*
X006355Y005560D01*
X006400Y005515D01*
X006400Y005470D01*
X006355Y005425D01*
X006265Y005425D01*
X006220Y005470D01*
X006105Y005425D02*
X006015Y005515D01*
X006060Y005515D02*
X005925Y005515D01*
X005925Y005425D02*
X005925Y005695D01*
X006060Y005695D01*
X006105Y005650D01*
X006105Y005560D01*
X006060Y005515D01*
X006220Y005650D02*
X006265Y005695D01*
X006355Y005695D01*
X006400Y005650D01*
X006355Y005560D02*
X006310Y005560D01*
X005237Y005800D02*
X005237Y005980D01*
X005192Y006095D02*
X005237Y006140D01*
X005237Y006230D01*
X005192Y006275D01*
X005147Y006275D01*
X005102Y006230D01*
X005102Y006140D01*
X005057Y006095D01*
X005012Y006095D01*
X004967Y006140D01*
X004967Y006230D01*
X005012Y006275D01*
X004967Y006389D02*
X004967Y006524D01*
X005012Y006569D01*
X005192Y006569D01*
X005237Y006524D01*
X005237Y006389D01*
X004967Y006389D01*
X004975Y006513D02*
X004977Y006524D01*
X004982Y006533D01*
X004990Y006540D01*
X005001Y006544D01*
X005011Y006544D01*
X005021Y006540D01*
X005030Y006533D01*
X005035Y006524D01*
X005037Y006513D01*
X005035Y006502D01*
X005030Y006493D01*
X005022Y006486D01*
X005011Y006482D01*
X005001Y006482D01*
X004990Y006486D01*
X004982Y006493D01*
X004977Y006502D01*
X004975Y006513D01*
X004967Y005980D02*
X004967Y005800D01*
X005237Y005800D01*
X005102Y005800D02*
X005102Y005890D01*
X005925Y004895D02*
X006060Y004895D01*
X006105Y004850D01*
X006105Y004760D01*
X006060Y004715D01*
X005925Y004715D01*
X005925Y004625D02*
X005925Y004895D01*
X006015Y004715D02*
X006105Y004625D01*
X006220Y004625D02*
X006400Y004625D01*
X006310Y004625D02*
X006310Y004895D01*
X006220Y004805D01*
X006220Y006925D02*
X006400Y007105D01*
X006400Y007150D01*
X006355Y007195D01*
X006265Y007195D01*
X006220Y007150D01*
X006105Y007150D02*
X006105Y007060D01*
X006060Y007015D01*
X005925Y007015D01*
X005925Y006925D02*
X005925Y007195D01*
X006060Y007195D01*
X006105Y007150D01*
X006015Y007015D02*
X006105Y006925D01*
X006220Y006925D02*
X006400Y006925D01*
X004294Y008070D02*
X004249Y008025D01*
X004159Y008025D01*
X004114Y008070D01*
X004294Y008250D01*
X004294Y008070D01*
X004114Y008070D02*
X004114Y008250D01*
X004159Y008295D01*
X004249Y008295D01*
X004294Y008250D01*
X003910Y008295D02*
X003910Y008025D01*
X003820Y008025D02*
X004000Y008025D01*
X003705Y008025D02*
X003615Y008115D01*
X003660Y008115D02*
X003525Y008115D01*
X003525Y008025D02*
X003525Y008295D01*
X003660Y008295D01*
X003705Y008250D01*
X003705Y008160D01*
X003660Y008115D01*
X003820Y008205D02*
X003910Y008295D01*
X003925Y009025D02*
X003925Y009295D01*
X004060Y009295D01*
X004105Y009250D01*
X004105Y009160D01*
X004060Y009115D01*
X003925Y009115D01*
X004015Y009115D02*
X004105Y009025D01*
X004220Y009160D02*
X004400Y009160D01*
X004355Y009025D02*
X004355Y009295D01*
X004220Y009160D01*
X004825Y009170D02*
X004870Y009125D01*
X004915Y009125D01*
X004960Y009170D01*
X004960Y009395D01*
X004915Y009395D02*
X005005Y009395D01*
X005120Y009350D02*
X005165Y009395D01*
X005255Y009395D01*
X005300Y009350D01*
X005300Y009305D01*
X005120Y009125D01*
X005300Y009125D01*
X013315Y004095D02*
X013405Y004095D01*
X013360Y004095D02*
X013360Y003870D01*
X013315Y003825D01*
X013270Y003825D01*
X013225Y003870D01*
X013520Y003825D02*
X013700Y003825D01*
X013610Y003825D02*
X013610Y004095D01*
X013520Y004005D01*
X005294Y002550D02*
X005294Y002505D01*
X005114Y002325D01*
X005294Y002325D01*
X005000Y002325D02*
X004820Y002325D01*
X004910Y002325D02*
X004910Y002595D01*
X004820Y002505D01*
X004705Y002550D02*
X004705Y002460D01*
X004660Y002415D01*
X004525Y002415D01*
X004525Y002325D02*
X004525Y002595D01*
X004660Y002595D01*
X004705Y002550D01*
X004615Y002415D02*
X004705Y002325D01*
X005114Y002550D02*
X005159Y002595D01*
X005249Y002595D01*
X005294Y002550D01*
D13*
X001355Y002514D02*
X001239Y002590D01*
X001233Y002600D02*
X001355Y002692D01*
X001233Y002781D02*
X001233Y002600D01*
X001233Y002419D01*
X001233Y003419D02*
X001233Y003600D01*
X001355Y003692D01*
X001233Y003781D02*
X001233Y003600D01*
X001239Y003590D02*
X001355Y003514D01*
X004600Y007800D02*
X005200Y007800D01*
X005217Y007802D01*
X005234Y007806D01*
X005250Y007813D01*
X005264Y007823D01*
X005277Y007836D01*
X005287Y007850D01*
X005294Y007866D01*
X005298Y007883D01*
X005300Y007900D01*
X005300Y008550D01*
X005300Y008800D02*
X005300Y008900D01*
X005298Y008917D01*
X005294Y008934D01*
X005287Y008950D01*
X005277Y008964D01*
X005264Y008977D01*
X005250Y008987D01*
X005234Y008994D01*
X005217Y008998D01*
X005200Y009000D01*
X004600Y009000D01*
X004583Y008998D01*
X004566Y008994D01*
X004550Y008987D01*
X004536Y008977D01*
X004523Y008964D01*
X004513Y008950D01*
X004506Y008934D01*
X004502Y008917D01*
X004500Y008900D01*
X004500Y008800D01*
X004500Y008550D02*
X004500Y007900D01*
X004502Y007883D01*
X004506Y007866D01*
X004513Y007850D01*
X004523Y007836D01*
X004536Y007823D01*
X004550Y007813D01*
X004566Y007806D01*
X004583Y007802D01*
X004600Y007800D01*
X001455Y008514D02*
X001339Y008590D01*
X001333Y008600D02*
X001455Y008692D01*
X001333Y008781D02*
X001333Y008600D01*
X001333Y008419D01*
X001333Y009419D02*
X001333Y009600D01*
X001455Y009692D01*
X001333Y009781D02*
X001333Y009600D01*
X001339Y009590D02*
X001455Y009514D01*
X011000Y003469D02*
X011000Y003131D01*
X011394Y003021D02*
X011606Y003021D01*
X012000Y003131D02*
X012000Y003469D01*
X012300Y003450D02*
X012300Y002800D01*
X012302Y002783D01*
X012306Y002766D01*
X012313Y002750D01*
X012323Y002736D01*
X012336Y002723D01*
X012350Y002713D01*
X012366Y002706D01*
X012383Y002702D01*
X012400Y002700D01*
X013000Y002700D01*
X013017Y002702D01*
X013034Y002706D01*
X013050Y002713D01*
X013064Y002723D01*
X013077Y002736D01*
X013087Y002750D01*
X013094Y002766D01*
X013098Y002783D01*
X013100Y002800D01*
X013100Y003450D01*
X013100Y003700D02*
X013100Y003800D01*
X013098Y003817D01*
X013094Y003834D01*
X013087Y003850D01*
X013077Y003864D01*
X013064Y003877D01*
X013050Y003887D01*
X013034Y003894D01*
X013017Y003898D01*
X013000Y003900D01*
X012400Y003900D01*
X012383Y003898D01*
X012366Y003894D01*
X012350Y003887D01*
X012336Y003877D01*
X012323Y003864D01*
X012313Y003850D01*
X012306Y003834D01*
X012302Y003817D01*
X012300Y003800D01*
X012300Y003700D01*
X013255Y002894D02*
X013255Y002106D01*
X015145Y002106D01*
X015145Y002894D01*
X013255Y002894D01*
X018300Y002850D02*
X018300Y002350D01*
X018550Y002100D01*
X019050Y002100D01*
X019300Y002350D01*
X019300Y002850D01*
X019050Y003100D01*
X019300Y003350D01*
X019300Y003850D01*
X019050Y004100D01*
X019300Y004350D01*
X019300Y004850D01*
X019050Y005100D01*
X019300Y005350D01*
X019300Y005850D01*
X019050Y006100D01*
X019300Y006350D01*
X019300Y006850D01*
X019050Y007100D01*
X019300Y007350D01*
X019300Y007850D01*
X019050Y008100D01*
X019300Y008350D01*
X019300Y008850D01*
X019050Y009100D01*
X019300Y009350D01*
X019300Y009850D01*
X019050Y010100D01*
X018550Y010100D01*
X018300Y009850D01*
X018300Y009350D01*
X018550Y009100D01*
X018300Y008850D01*
X018300Y008350D01*
X018550Y008100D01*
X018300Y007850D01*
X018300Y007350D01*
X018550Y007100D01*
X018300Y006850D01*
X018300Y006350D01*
X018550Y006100D01*
X018300Y005850D01*
X018300Y005350D01*
X018550Y005100D01*
X018300Y004850D01*
X018300Y004350D01*
X018550Y004100D01*
X018300Y003850D01*
X018300Y003350D01*
X018550Y003100D01*
X018300Y002850D01*
X015145Y009206D02*
X013255Y009206D01*
X013255Y009994D01*
X015145Y009994D01*
X015145Y009206D01*
D14*
X012130Y003700D03*
D15*
X017103Y002247D02*
X017103Y001883D01*
X017103Y002004D02*
X017285Y002004D01*
X017346Y002065D01*
X017346Y002186D01*
X017285Y002247D01*
X017103Y002247D01*
X017466Y002125D02*
X017587Y002247D01*
X017587Y001883D01*
X017466Y001883D02*
X017709Y001883D01*
D16*
X017300Y000100D02*
X001200Y000100D01*
X001150Y000102D01*
X001100Y000107D01*
X001051Y000116D01*
X001003Y000128D01*
X000955Y000144D01*
X000909Y000163D01*
X000865Y000186D01*
X000822Y000211D01*
X000781Y000240D01*
X000742Y000271D01*
X000705Y000305D01*
X000671Y000342D01*
X000640Y000381D01*
X000611Y000422D01*
X000586Y000465D01*
X000563Y000509D01*
X000544Y000555D01*
X000528Y000603D01*
X000516Y000651D01*
X000507Y000700D01*
X000502Y000750D01*
X000500Y000800D01*
X000500Y011400D01*
X000502Y011452D01*
X000508Y011504D01*
X000518Y011556D01*
X000531Y011606D01*
X000548Y011656D01*
X000569Y011704D01*
X000594Y011750D01*
X000622Y011794D01*
X000653Y011836D01*
X000687Y011876D01*
X000724Y011913D01*
X000764Y011947D01*
X000806Y011978D01*
X000850Y012006D01*
X000896Y012031D01*
X000944Y012052D01*
X000994Y012069D01*
X001044Y012082D01*
X001096Y012092D01*
X001148Y012098D01*
X001200Y012100D01*
X017300Y012100D01*
X017350Y012098D01*
X017400Y012093D01*
X017449Y012084D01*
X017497Y012072D01*
X017545Y012056D01*
X017591Y012037D01*
X017635Y012014D01*
X017678Y011989D01*
X017719Y011960D01*
X017758Y011929D01*
X017795Y011895D01*
X017829Y011858D01*
X017860Y011819D01*
X017889Y011778D01*
X017914Y011735D01*
X017937Y011691D01*
X017956Y011645D01*
X017972Y011597D01*
X017984Y011549D01*
X017993Y011500D01*
X017998Y011450D01*
X018000Y011400D01*
X018000Y010740D01*
X018002Y010692D01*
X018007Y010645D01*
X018016Y010598D01*
X018028Y010551D01*
X018044Y010506D01*
X018063Y010462D01*
X018086Y010420D01*
X018111Y010379D01*
X018140Y010341D01*
X018171Y010305D01*
X018205Y010271D01*
X018241Y010240D01*
X018279Y010211D01*
X018320Y010186D01*
X018362Y010163D01*
X018406Y010144D01*
X018451Y010128D01*
X018498Y010116D01*
X018545Y010107D01*
X018592Y010102D01*
X018640Y010100D01*
X019860Y010100D01*
X019908Y010098D01*
X019955Y010093D01*
X020002Y010084D01*
X020049Y010072D01*
X020094Y010056D01*
X020138Y010037D01*
X020180Y010014D01*
X020221Y009989D01*
X020259Y009960D01*
X020295Y009929D01*
X020329Y009895D01*
X020360Y009859D01*
X020389Y009821D01*
X020414Y009780D01*
X020437Y009738D01*
X020456Y009694D01*
X020472Y009649D01*
X020484Y009602D01*
X020493Y009555D01*
X020498Y009508D01*
X020500Y009460D01*
X020500Y002740D01*
X020498Y002692D01*
X020493Y002645D01*
X020484Y002598D01*
X020472Y002551D01*
X020456Y002506D01*
X020437Y002462D01*
X020414Y002420D01*
X020389Y002379D01*
X020360Y002341D01*
X020329Y002305D01*
X020295Y002271D01*
X020259Y002240D01*
X020221Y002211D01*
X020180Y002186D01*
X020138Y002163D01*
X020094Y002144D01*
X020049Y002128D01*
X020002Y002116D01*
X019955Y002107D01*
X019908Y002102D01*
X019860Y002100D01*
X018640Y002100D01*
X018592Y002098D01*
X018545Y002093D01*
X018498Y002084D01*
X018451Y002072D01*
X018406Y002056D01*
X018362Y002037D01*
X018320Y002014D01*
X018279Y001989D01*
X018241Y001960D01*
X018205Y001929D01*
X018171Y001895D01*
X018140Y001859D01*
X018111Y001821D01*
X018086Y001780D01*
X018063Y001738D01*
X018044Y001694D01*
X018028Y001649D01*
X018016Y001602D01*
X018007Y001555D01*
X018002Y001508D01*
X018000Y001460D01*
X018000Y000800D01*
X017998Y000750D01*
X017993Y000700D01*
X017984Y000651D01*
X017972Y000603D01*
X017956Y000555D01*
X017937Y000509D01*
X017914Y000465D01*
X017889Y000422D01*
X017860Y000381D01*
X017829Y000342D01*
X017795Y000305D01*
X017758Y000271D01*
X017719Y000240D01*
X017678Y000211D01*
X017635Y000186D01*
X017591Y000163D01*
X017545Y000144D01*
X017497Y000128D01*
X017449Y000116D01*
X017400Y000107D01*
X017350Y000102D01*
X017300Y000100D01*
X016906Y000850D02*
X016908Y000889D01*
X016914Y000928D01*
X016924Y000966D01*
X016937Y001003D01*
X016954Y001038D01*
X016974Y001072D01*
X016998Y001103D01*
X017025Y001132D01*
X017054Y001158D01*
X017086Y001181D01*
X017120Y001201D01*
X017156Y001217D01*
X017193Y001229D01*
X017232Y001238D01*
X017271Y001243D01*
X017310Y001244D01*
X017349Y001241D01*
X017388Y001234D01*
X017425Y001223D01*
X017462Y001209D01*
X017497Y001191D01*
X017530Y001170D01*
X017561Y001145D01*
X017589Y001118D01*
X017614Y001088D01*
X017636Y001055D01*
X017655Y001021D01*
X017670Y000985D01*
X017682Y000947D01*
X017690Y000909D01*
X017694Y000870D01*
X017694Y000830D01*
X017690Y000791D01*
X017682Y000753D01*
X017670Y000715D01*
X017655Y000679D01*
X017636Y000645D01*
X017614Y000612D01*
X017589Y000582D01*
X017561Y000555D01*
X017530Y000530D01*
X017497Y000509D01*
X017462Y000491D01*
X017425Y000477D01*
X017388Y000466D01*
X017349Y000459D01*
X017310Y000456D01*
X017271Y000457D01*
X017232Y000462D01*
X017193Y000471D01*
X017156Y000483D01*
X017120Y000499D01*
X017086Y000519D01*
X017054Y000542D01*
X017025Y000568D01*
X016998Y000597D01*
X016974Y000628D01*
X016954Y000662D01*
X016937Y000697D01*
X016924Y000734D01*
X016914Y000772D01*
X016908Y000811D01*
X016906Y000850D01*
X000856Y000850D02*
X000858Y000889D01*
X000864Y000928D01*
X000874Y000966D01*
X000887Y001003D01*
X000904Y001038D01*
X000924Y001072D01*
X000948Y001103D01*
X000975Y001132D01*
X001004Y001158D01*
X001036Y001181D01*
X001070Y001201D01*
X001106Y001217D01*
X001143Y001229D01*
X001182Y001238D01*
X001221Y001243D01*
X001260Y001244D01*
X001299Y001241D01*
X001338Y001234D01*
X001375Y001223D01*
X001412Y001209D01*
X001447Y001191D01*
X001480Y001170D01*
X001511Y001145D01*
X001539Y001118D01*
X001564Y001088D01*
X001586Y001055D01*
X001605Y001021D01*
X001620Y000985D01*
X001632Y000947D01*
X001640Y000909D01*
X001644Y000870D01*
X001644Y000830D01*
X001640Y000791D01*
X001632Y000753D01*
X001620Y000715D01*
X001605Y000679D01*
X001586Y000645D01*
X001564Y000612D01*
X001539Y000582D01*
X001511Y000555D01*
X001480Y000530D01*
X001447Y000509D01*
X001412Y000491D01*
X001375Y000477D01*
X001338Y000466D01*
X001299Y000459D01*
X001260Y000456D01*
X001221Y000457D01*
X001182Y000462D01*
X001143Y000471D01*
X001106Y000483D01*
X001070Y000499D01*
X001036Y000519D01*
X001004Y000542D01*
X000975Y000568D01*
X000948Y000597D01*
X000924Y000628D01*
X000904Y000662D01*
X000887Y000697D01*
X000874Y000734D01*
X000864Y000772D01*
X000858Y000811D01*
X000856Y000850D01*
X000856Y011350D02*
X000858Y011389D01*
X000864Y011428D01*
X000874Y011466D01*
X000887Y011503D01*
X000904Y011538D01*
X000924Y011572D01*
X000948Y011603D01*
X000975Y011632D01*
X001004Y011658D01*
X001036Y011681D01*
X001070Y011701D01*
X001106Y011717D01*
X001143Y011729D01*
X001182Y011738D01*
X001221Y011743D01*
X001260Y011744D01*
X001299Y011741D01*
X001338Y011734D01*
X001375Y011723D01*
X001412Y011709D01*
X001447Y011691D01*
X001480Y011670D01*
X001511Y011645D01*
X001539Y011618D01*
X001564Y011588D01*
X001586Y011555D01*
X001605Y011521D01*
X001620Y011485D01*
X001632Y011447D01*
X001640Y011409D01*
X001644Y011370D01*
X001644Y011330D01*
X001640Y011291D01*
X001632Y011253D01*
X001620Y011215D01*
X001605Y011179D01*
X001586Y011145D01*
X001564Y011112D01*
X001539Y011082D01*
X001511Y011055D01*
X001480Y011030D01*
X001447Y011009D01*
X001412Y010991D01*
X001375Y010977D01*
X001338Y010966D01*
X001299Y010959D01*
X001260Y010956D01*
X001221Y010957D01*
X001182Y010962D01*
X001143Y010971D01*
X001106Y010983D01*
X001070Y010999D01*
X001036Y011019D01*
X001004Y011042D01*
X000975Y011068D01*
X000948Y011097D01*
X000924Y011128D01*
X000904Y011162D01*
X000887Y011197D01*
X000874Y011234D01*
X000864Y011272D01*
X000858Y011311D01*
X000856Y011350D01*
X016906Y011350D02*
X016908Y011389D01*
X016914Y011428D01*
X016924Y011466D01*
X016937Y011503D01*
X016954Y011538D01*
X016974Y011572D01*
X016998Y011603D01*
X017025Y011632D01*
X017054Y011658D01*
X017086Y011681D01*
X017120Y011701D01*
X017156Y011717D01*
X017193Y011729D01*
X017232Y011738D01*
X017271Y011743D01*
X017310Y011744D01*
X017349Y011741D01*
X017388Y011734D01*
X017425Y011723D01*
X017462Y011709D01*
X017497Y011691D01*
X017530Y011670D01*
X017561Y011645D01*
X017589Y011618D01*
X017614Y011588D01*
X017636Y011555D01*
X017655Y011521D01*
X017670Y011485D01*
X017682Y011447D01*
X017690Y011409D01*
X017694Y011370D01*
X017694Y011330D01*
X017690Y011291D01*
X017682Y011253D01*
X017670Y011215D01*
X017655Y011179D01*
X017636Y011145D01*
X017614Y011112D01*
X017589Y011082D01*
X017561Y011055D01*
X017530Y011030D01*
X017497Y011009D01*
X017462Y010991D01*
X017425Y010977D01*
X017388Y010966D01*
X017349Y010959D01*
X017310Y010956D01*
X017271Y010957D01*
X017232Y010962D01*
X017193Y010971D01*
X017156Y010983D01*
X017120Y010999D01*
X017086Y011019D01*
X017054Y011042D01*
X017025Y011068D01*
X016998Y011097D01*
X016974Y011128D01*
X016954Y011162D01*
X016937Y011197D01*
X016924Y011234D01*
X016914Y011272D01*
X016908Y011311D01*
X016906Y011350D01*
M02*
