G75*
%MOIN*%
%OFA0B0*%
%FSLAX24Y24*%
%IPPOS*%
%LPD*%
%AMOC8*
5,1,8,0,0,1.08239X$1,22.5*
%
%ADD10R,0.0551X0.0157*%
%ADD11R,0.0748X0.0787*%
%ADD12R,0.0748X0.0866*%
%ADD13R,0.0315X0.0394*%
%ADD14R,0.0394X0.0315*%
%ADD15R,0.0295X0.0157*%
%ADD16C,0.0250*%
%ADD17OC8,0.0700*%
%ADD18C,0.0118*%
%ADD19R,0.0217X0.0472*%
%ADD20R,0.1181X0.0492*%
%ADD21R,0.0740X0.0740*%
%ADD22C,0.0740*%
%ADD23C,0.0100*%
%ADD24R,0.1339X0.1339*%
%ADD25R,0.0500X0.0200*%
%ADD26R,0.0630X0.0709*%
%ADD27C,0.0320*%
%ADD28C,0.0340*%
%ADD29C,0.0240*%
%ADD30C,0.0160*%
%ADD31C,0.0070*%
D10*
X002422Y005588D03*
X002422Y005844D03*
X002422Y006100D03*
X002422Y006356D03*
X002422Y006612D03*
D11*
X001300Y006592D03*
X001300Y005608D03*
D12*
X001300Y004525D03*
X001300Y007675D03*
D13*
X003485Y008600D03*
X004115Y008600D03*
X004115Y009600D03*
X003485Y009600D03*
X004885Y007000D03*
X005515Y007000D03*
X005515Y005400D03*
X004885Y005400D03*
X004885Y004800D03*
X005515Y004800D03*
X005515Y004200D03*
X004885Y004200D03*
X004115Y003600D03*
X003485Y003600D03*
X003485Y002600D03*
X004115Y002600D03*
X005785Y003500D03*
X006415Y003500D03*
X006985Y004400D03*
X007615Y004400D03*
X007415Y005200D03*
X006785Y005200D03*
X010285Y005300D03*
X010915Y005300D03*
X011115Y008200D03*
X010485Y008200D03*
D14*
X014000Y008315D03*
X014000Y007685D03*
X014000Y006515D03*
X014000Y005885D03*
X010600Y004615D03*
X010600Y003985D03*
X010600Y003415D03*
X010600Y002785D03*
D15*
X005464Y006200D03*
X004736Y005944D03*
X004736Y006456D03*
D16*
X002200Y000700D03*
X017800Y001600D03*
X017800Y010600D03*
X002100Y011400D03*
D17*
X003800Y010600D03*
X004800Y010600D03*
X005800Y010600D03*
X006800Y010600D03*
X007800Y010600D03*
X008800Y010600D03*
X009800Y010600D03*
X010800Y010600D03*
X011800Y010600D03*
X012800Y010600D03*
X013800Y010600D03*
X014800Y010600D03*
X015800Y009600D03*
X015800Y008600D03*
X015800Y007600D03*
X015800Y006600D03*
X015800Y005600D03*
X015800Y004600D03*
X015800Y003600D03*
X015800Y002600D03*
X014800Y001600D03*
X013800Y001600D03*
X012800Y001600D03*
X011800Y001600D03*
X010800Y001600D03*
X009800Y001600D03*
X008800Y001600D03*
X007800Y001600D03*
X006800Y001600D03*
X005800Y001600D03*
X004800Y001600D03*
X003800Y001600D03*
D18*
X001783Y002462D02*
X001783Y002738D01*
X001783Y002462D02*
X001507Y002462D01*
X001507Y002738D01*
X001783Y002738D01*
X001783Y002579D02*
X001507Y002579D01*
X001507Y002696D02*
X001783Y002696D01*
X001093Y002738D02*
X001093Y002462D01*
X000817Y002462D01*
X000817Y002738D01*
X001093Y002738D01*
X001093Y002579D02*
X000817Y002579D01*
X000817Y002696D02*
X001093Y002696D01*
X001093Y003462D02*
X001093Y003738D01*
X001093Y003462D02*
X000817Y003462D01*
X000817Y003738D01*
X001093Y003738D01*
X001093Y003579D02*
X000817Y003579D01*
X000817Y003696D02*
X001093Y003696D01*
X001783Y003738D02*
X001783Y003462D01*
X001507Y003462D01*
X001507Y003738D01*
X001783Y003738D01*
X001783Y003579D02*
X001507Y003579D01*
X001507Y003696D02*
X001783Y003696D01*
X001883Y008462D02*
X001883Y008738D01*
X001883Y008462D02*
X001607Y008462D01*
X001607Y008738D01*
X001883Y008738D01*
X001883Y008579D02*
X001607Y008579D01*
X001607Y008696D02*
X001883Y008696D01*
X001193Y008738D02*
X001193Y008462D01*
X000917Y008462D01*
X000917Y008738D01*
X001193Y008738D01*
X001193Y008579D02*
X000917Y008579D01*
X000917Y008696D02*
X001193Y008696D01*
X001193Y009462D02*
X001193Y009738D01*
X001193Y009462D02*
X000917Y009462D01*
X000917Y009738D01*
X001193Y009738D01*
X001193Y009579D02*
X000917Y009579D01*
X000917Y009696D02*
X001193Y009696D01*
X001883Y009738D02*
X001883Y009462D01*
X001607Y009462D01*
X001607Y009738D01*
X001883Y009738D01*
X001883Y009579D02*
X001607Y009579D01*
X001607Y009696D02*
X001883Y009696D01*
D19*
X011126Y003812D03*
X011500Y003812D03*
X011874Y003812D03*
X011874Y002788D03*
X011126Y002788D03*
D20*
X017052Y002600D03*
X017052Y003600D03*
X017052Y004600D03*
X017052Y005600D03*
X017052Y006600D03*
X017052Y007600D03*
X017052Y008600D03*
X017052Y009600D03*
D21*
X018800Y009600D03*
D22*
X018800Y008600D03*
X018800Y007600D03*
X018800Y006600D03*
X018800Y005600D03*
X018800Y004600D03*
X018800Y003600D03*
X018800Y002600D03*
D23*
X018850Y002600D02*
X019300Y002600D01*
X019288Y002650D02*
X019278Y002715D01*
X019254Y002788D01*
X019219Y002857D01*
X019174Y002919D01*
X019119Y002974D01*
X019057Y003019D01*
X018988Y003054D01*
X018915Y003078D01*
X018902Y003080D01*
X018903Y003080D01*
X019095Y003159D01*
X019241Y003305D01*
X019300Y003448D01*
X019300Y002250D01*
X019143Y002250D01*
X019174Y002281D01*
X019219Y002343D01*
X019254Y002412D01*
X019278Y002485D01*
X019288Y002550D01*
X018850Y002550D01*
X018850Y002650D01*
X019288Y002650D01*
X019280Y002700D02*
X019300Y002700D01*
X019300Y002800D02*
X019248Y002800D01*
X019200Y002883D02*
X019200Y003265D01*
X019235Y003300D02*
X019300Y003300D01*
X019300Y003400D02*
X019280Y003400D01*
X019300Y003200D02*
X019135Y003200D01*
X019100Y003165D02*
X019100Y002988D01*
X019083Y003000D02*
X019300Y003000D01*
X019300Y002900D02*
X019188Y002900D01*
X019300Y003100D02*
X018952Y003100D01*
X019000Y003120D02*
X019000Y003048D01*
X018698Y003080D02*
X018685Y003078D01*
X018612Y003054D01*
X018543Y003019D01*
X018481Y002974D01*
X018426Y002919D01*
X018381Y002857D01*
X018346Y002788D01*
X018322Y002715D01*
X018312Y002650D01*
X018750Y002650D01*
X018750Y002550D01*
X018312Y002550D01*
X018322Y002485D01*
X018346Y002412D01*
X018381Y002343D01*
X018426Y002281D01*
X018465Y002242D01*
X018193Y002130D01*
X018193Y002130D01*
X017970Y001907D01*
X017942Y001839D01*
X017855Y001875D01*
X017745Y001875D01*
X017644Y001833D01*
X017567Y001756D01*
X017525Y001655D01*
X017525Y001545D01*
X017567Y001444D01*
X017644Y001367D01*
X017745Y001325D01*
X017850Y001325D01*
X017850Y001100D01*
X017785Y001100D01*
X017761Y001158D01*
X017608Y001311D01*
X017408Y001394D01*
X017192Y001394D01*
X016992Y001311D01*
X016839Y001158D01*
X016815Y001100D01*
X014007Y001100D01*
X014300Y001393D01*
X014300Y001807D01*
X014110Y001997D01*
X014110Y002080D01*
X014114Y002084D01*
X014114Y002916D01*
X014026Y003004D01*
X013526Y003004D01*
X013501Y003030D01*
X014854Y003030D01*
X014953Y003071D01*
X015029Y003147D01*
X015070Y003246D01*
X015070Y004717D01*
X015071Y004719D01*
X015120Y004836D01*
X015120Y004964D01*
X015071Y005081D01*
X015070Y005083D01*
X015070Y007617D01*
X015071Y007619D01*
X015120Y007736D01*
X015120Y007864D01*
X015071Y007981D01*
X014981Y008071D01*
X014864Y008120D01*
X014736Y008120D01*
X014670Y008093D01*
X014670Y008654D01*
X014629Y008753D01*
X014429Y008953D01*
X014353Y009029D01*
X014254Y009070D01*
X013970Y009070D01*
X013970Y009096D01*
X014026Y009096D01*
X014114Y009184D01*
X014114Y010016D01*
X014110Y010020D01*
X014110Y010203D01*
X014300Y010393D01*
X014300Y010807D01*
X014007Y011100D01*
X013593Y011100D01*
X013300Y010807D01*
X013300Y011100D01*
X013400Y011100D02*
X013400Y010907D01*
X013393Y010900D02*
X013207Y010900D01*
X013200Y010907D02*
X013200Y011100D01*
X013100Y011100D02*
X013100Y011007D01*
X013107Y011000D02*
X013493Y011000D01*
X013500Y011007D02*
X013500Y011100D01*
X013600Y011100D02*
X013600Y011100D01*
X013700Y011100D02*
X013700Y011100D01*
X013800Y011100D02*
X013800Y011100D01*
X013900Y011100D02*
X013900Y011100D01*
X014000Y011100D02*
X014000Y011100D01*
X014100Y011100D02*
X014100Y011007D01*
X014107Y011000D02*
X014535Y011000D01*
X014500Y010965D02*
X014500Y011100D01*
X014400Y011100D02*
X014400Y010865D01*
X014435Y010900D02*
X014207Y010900D01*
X014200Y010907D02*
X014200Y011100D01*
X014300Y011100D02*
X014300Y009051D01*
X014382Y009000D02*
X015493Y009000D01*
X015500Y009007D02*
X015500Y009235D01*
X015535Y009200D02*
X015178Y009200D01*
X015178Y009199D02*
X015186Y009230D01*
X015186Y009550D01*
X014801Y009550D01*
X014801Y009126D01*
X015082Y009126D01*
X015112Y009134D01*
X015140Y009150D01*
X015162Y009172D01*
X015178Y009199D01*
X015186Y009300D02*
X015435Y009300D01*
X015400Y009335D02*
X015400Y008907D01*
X015393Y008900D02*
X014482Y008900D01*
X014500Y008882D02*
X014500Y009126D01*
X014420Y009126D02*
X014701Y009126D01*
X014701Y009550D01*
X014316Y009550D01*
X014316Y009230D01*
X014324Y009199D01*
X014340Y009172D01*
X014363Y009150D01*
X014390Y009134D01*
X014420Y009126D01*
X014400Y009131D02*
X014400Y008982D01*
X014200Y009070D02*
X014200Y010293D01*
X014207Y010300D02*
X014435Y010300D01*
X014400Y010335D02*
X014400Y010069D01*
X014390Y010066D02*
X014363Y010050D01*
X014340Y010028D01*
X014324Y010001D01*
X014316Y009970D01*
X014316Y009650D01*
X014701Y009650D01*
X014701Y009550D01*
X014801Y009550D01*
X014801Y009650D01*
X014701Y009650D01*
X014701Y010074D01*
X014420Y010074D01*
X014390Y010066D01*
X014324Y010000D02*
X014114Y010000D01*
X014114Y009900D02*
X014316Y009900D01*
X014316Y009800D02*
X014114Y009800D01*
X014114Y009700D02*
X014316Y009700D01*
X014400Y009650D02*
X014400Y009550D01*
X014316Y009500D02*
X014114Y009500D01*
X014114Y009400D02*
X014316Y009400D01*
X014316Y009300D02*
X014114Y009300D01*
X014114Y009200D02*
X014324Y009200D01*
X014600Y009126D02*
X014600Y008782D01*
X014582Y008800D02*
X015300Y008800D01*
X015300Y008807D02*
X015300Y011100D01*
X015400Y011100D02*
X015400Y009865D01*
X015435Y009900D02*
X015186Y009900D01*
X015186Y009970D02*
X015178Y010001D01*
X015162Y010028D01*
X015140Y010050D01*
X015112Y010066D01*
X015082Y010074D01*
X014801Y010074D01*
X014801Y009650D01*
X015186Y009650D01*
X015186Y009970D01*
X015178Y010000D02*
X015535Y010000D01*
X015500Y009965D02*
X015500Y011100D01*
X015600Y011100D02*
X015600Y010065D01*
X015605Y010070D02*
X015330Y009795D01*
X015330Y009650D01*
X015750Y009650D01*
X015750Y010070D01*
X015605Y010070D01*
X015700Y010070D02*
X015700Y011100D01*
X015800Y011100D02*
X015800Y009650D01*
X015850Y009650D02*
X015750Y009650D01*
X015750Y009550D01*
X015850Y009550D01*
X015850Y009130D01*
X015995Y009130D01*
X016100Y009235D01*
X016100Y009007D01*
X016007Y009100D01*
X015593Y009100D01*
X015300Y008807D01*
X015300Y008393D01*
X015300Y007807D01*
X015300Y007393D01*
X015300Y006807D01*
X015300Y006393D01*
X015300Y005807D01*
X015300Y005393D01*
X015300Y004807D01*
X015300Y004393D01*
X015300Y003807D01*
X015300Y003393D01*
X015300Y002807D01*
X015300Y002393D01*
X015300Y001100D01*
X015400Y001100D02*
X015400Y002293D01*
X015393Y002300D02*
X015186Y002300D01*
X015186Y002200D02*
X015493Y002200D01*
X015500Y002193D02*
X015500Y001100D01*
X015600Y001100D02*
X015600Y002100D01*
X015593Y002100D02*
X015178Y002100D01*
X015178Y002099D02*
X015186Y002130D01*
X015186Y002450D01*
X014801Y002450D01*
X014801Y002026D01*
X014850Y002026D01*
X014850Y001650D01*
X015270Y001650D01*
X015270Y001795D01*
X015039Y002026D01*
X015082Y002026D01*
X015112Y002034D01*
X015140Y002050D01*
X015162Y002072D01*
X015178Y002099D01*
X015100Y002031D02*
X015100Y001965D01*
X015065Y002000D02*
X018063Y002000D01*
X018100Y002037D02*
X018100Y003290D01*
X018200Y003290D02*
X018200Y002133D01*
X018163Y002100D02*
X016007Y002100D01*
X016300Y002393D01*
X016300Y002807D01*
X016007Y003100D01*
X018648Y003100D01*
X018600Y003120D02*
X018600Y003048D01*
X018517Y003000D02*
X016107Y003000D01*
X016100Y003007D02*
X016100Y003193D01*
X016107Y003200D02*
X018465Y003200D01*
X018500Y003165D02*
X018500Y002988D01*
X018412Y002900D02*
X017750Y002900D01*
X017754Y002892D02*
X017738Y002920D01*
X017716Y002942D01*
X017688Y002958D01*
X017658Y002966D01*
X017102Y002966D01*
X017102Y002650D01*
X017762Y002650D01*
X017762Y002862D01*
X017754Y002892D01*
X017700Y002951D02*
X017700Y003204D01*
X017704Y003204D02*
X017790Y003290D01*
X018375Y003290D01*
X018505Y003159D01*
X018697Y003080D01*
X018698Y003080D01*
X018400Y003265D02*
X018400Y002883D01*
X018352Y002800D02*
X017762Y002800D01*
X017762Y002700D02*
X018320Y002700D01*
X018400Y002650D02*
X018400Y002550D01*
X018320Y002500D02*
X017762Y002500D01*
X017762Y002550D02*
X017762Y002338D01*
X017754Y002308D01*
X017738Y002280D01*
X017716Y002258D01*
X017688Y002242D01*
X017658Y002234D01*
X017102Y002234D01*
X017102Y002550D01*
X017102Y002650D01*
X017002Y002650D01*
X017002Y002966D01*
X016445Y002966D01*
X016415Y002958D01*
X016387Y002942D01*
X016365Y002920D01*
X016349Y002892D01*
X016341Y002862D01*
X016341Y002650D01*
X017002Y002650D01*
X017002Y002550D01*
X017102Y002550D01*
X017762Y002550D01*
X017700Y002550D02*
X017700Y002650D01*
X017600Y002650D02*
X017600Y002550D01*
X017500Y002550D02*
X017500Y002650D01*
X017400Y002650D02*
X017400Y002550D01*
X017300Y002550D02*
X017300Y002650D01*
X017200Y002650D02*
X017200Y002550D01*
X017100Y002550D02*
X017100Y001356D01*
X017200Y001394D02*
X017200Y002234D01*
X017300Y002234D02*
X017300Y001394D01*
X017400Y001394D02*
X017400Y002234D01*
X017500Y002234D02*
X017500Y001356D01*
X017600Y001314D02*
X017600Y001411D01*
X017611Y001400D02*
X015265Y001400D01*
X015270Y001405D02*
X015270Y001550D01*
X014850Y001550D01*
X014850Y001650D01*
X014750Y001650D01*
X014750Y002070D01*
X014701Y002070D01*
X014701Y002450D01*
X014316Y002450D01*
X014316Y002130D01*
X014324Y002099D01*
X014340Y002072D01*
X014363Y002050D01*
X014390Y002034D01*
X014420Y002026D01*
X014561Y002026D01*
X014330Y001795D01*
X014330Y001650D01*
X014750Y001650D01*
X014750Y001550D01*
X014850Y001550D01*
X014850Y001130D01*
X014995Y001130D01*
X015270Y001405D01*
X015270Y001500D02*
X017544Y001500D01*
X017525Y001600D02*
X014850Y001600D01*
X014800Y001600D02*
X014710Y001710D01*
X014750Y001710D01*
X014750Y001700D02*
X014850Y001700D01*
X014800Y001650D02*
X014800Y002450D01*
X014801Y002450D02*
X014701Y002450D01*
X014701Y002550D01*
X014316Y002550D01*
X014316Y002870D01*
X014324Y002901D01*
X014340Y002928D01*
X014363Y002950D01*
X014390Y002966D01*
X014420Y002974D01*
X014701Y002974D01*
X014701Y002550D01*
X014801Y002550D01*
X014801Y002974D01*
X015082Y002974D01*
X015112Y002966D01*
X015140Y002950D01*
X015162Y002928D01*
X015178Y002901D01*
X015186Y002870D01*
X015186Y002550D01*
X014801Y002550D01*
X014801Y002450D01*
X014780Y002450D02*
X014780Y002480D01*
X014751Y002500D01*
X014780Y002410D01*
X014801Y002400D02*
X014701Y002400D01*
X014701Y002450D02*
X014710Y002480D01*
X014751Y002500D01*
X014780Y002340D01*
X014801Y002300D02*
X014701Y002300D01*
X014780Y002270D02*
X014751Y002500D01*
X014701Y002500D02*
X014114Y002500D01*
X014114Y002400D02*
X014316Y002400D01*
X014400Y002450D02*
X014400Y002550D01*
X014316Y002600D02*
X014114Y002600D01*
X014114Y002700D02*
X014316Y002700D01*
X014316Y002800D02*
X014114Y002800D01*
X014114Y002900D02*
X014324Y002900D01*
X014400Y002969D02*
X014400Y003030D01*
X014500Y003030D02*
X014500Y002974D01*
X014600Y002974D02*
X014600Y003030D01*
X014700Y003030D02*
X014700Y002974D01*
X014701Y002900D02*
X014801Y002900D01*
X014801Y002800D02*
X014701Y002800D01*
X014701Y002700D02*
X014801Y002700D01*
X014801Y002600D02*
X014701Y002600D01*
X014700Y002550D02*
X014700Y002450D01*
X014600Y002450D02*
X014600Y002550D01*
X014500Y002550D02*
X014500Y002450D01*
X014316Y002300D02*
X014114Y002300D01*
X014114Y002200D02*
X014316Y002200D01*
X014324Y002100D02*
X014114Y002100D01*
X014110Y002000D02*
X014535Y002000D01*
X014500Y002026D02*
X014500Y001965D01*
X014435Y001900D02*
X014207Y001900D01*
X014200Y001907D02*
X014200Y003030D01*
X014300Y003030D02*
X014300Y001100D01*
X014200Y001100D02*
X014200Y001293D01*
X014207Y001300D02*
X014435Y001300D01*
X014400Y001335D02*
X014400Y001100D01*
X014500Y001100D02*
X014500Y001235D01*
X014535Y001200D02*
X014107Y001200D01*
X014100Y001193D02*
X014100Y001100D01*
X014007Y001100D02*
X013593Y001100D01*
X013007Y001100D01*
X013300Y001393D01*
X013300Y001100D01*
X013400Y001100D02*
X013400Y001293D01*
X013393Y001300D02*
X013207Y001300D01*
X013200Y001293D02*
X013200Y001100D01*
X013100Y001100D02*
X013100Y001193D01*
X013107Y001200D02*
X013493Y001200D01*
X013500Y001193D02*
X013500Y001100D01*
X013593Y001100D02*
X013300Y001393D01*
X013300Y001807D01*
X013300Y001996D01*
X013272Y001996D02*
X013489Y001996D01*
X013300Y001807D01*
X013007Y002100D01*
X012593Y002100D01*
X012300Y001807D01*
X012300Y002518D01*
X012200Y002518D02*
X012200Y001907D01*
X012207Y001900D02*
X012393Y001900D01*
X012400Y001907D02*
X012400Y002518D01*
X012500Y002518D02*
X012500Y002007D01*
X012493Y002000D02*
X012107Y002000D01*
X012100Y002007D02*
X012100Y002458D01*
X012132Y002490D02*
X012132Y002518D01*
X012562Y002518D01*
X012661Y002559D01*
X012812Y002710D01*
X013057Y002710D01*
X013184Y002583D01*
X013184Y002084D01*
X013272Y001996D01*
X013267Y002000D02*
X013107Y002000D01*
X013100Y002007D02*
X013100Y002667D01*
X013067Y002700D02*
X012802Y002700D01*
X012800Y002698D02*
X012800Y002100D01*
X012900Y002100D02*
X012900Y002710D01*
X013000Y002710D02*
X013000Y002100D01*
X013184Y002100D02*
X004300Y002100D01*
X004300Y002000D02*
X004493Y002000D01*
X004500Y002007D02*
X004500Y004140D01*
X004469Y004162D02*
X004578Y004086D01*
X004578Y003941D01*
X004665Y003853D01*
X005105Y003853D01*
X005193Y003941D01*
X005193Y004459D01*
X005155Y004496D01*
X005155Y004504D01*
X005193Y004541D01*
X005193Y005059D01*
X005152Y005100D01*
X005248Y005100D01*
X005270Y005079D02*
X005261Y005071D01*
X005246Y005043D01*
X005237Y005013D01*
X005237Y004829D01*
X005486Y004829D01*
X005486Y004771D01*
X005544Y004771D01*
X005544Y004829D01*
X005792Y004829D01*
X005792Y005013D01*
X005784Y005043D01*
X005768Y005071D01*
X005760Y005079D01*
X005822Y005141D01*
X005822Y005240D01*
X005900Y005317D01*
X006491Y005908D01*
X007431Y005908D01*
X007431Y005828D01*
X007548Y005711D01*
X007582Y005711D01*
X007444Y005547D01*
X007195Y005547D01*
X007107Y005459D01*
X007107Y004941D01*
X007195Y004853D01*
X007635Y004853D01*
X007722Y004941D01*
X007722Y005256D01*
X008004Y005593D01*
X008041Y005630D01*
X008041Y005557D01*
X008208Y005557D01*
X008208Y005557D01*
X008041Y005557D01*
X008041Y005309D01*
X008053Y005265D01*
X008075Y005227D01*
X008107Y005195D01*
X008145Y005173D01*
X008189Y005161D01*
X008208Y005161D01*
X008208Y004891D01*
X007922Y004605D01*
X007922Y004659D01*
X007835Y004747D01*
X007395Y004747D01*
X007307Y004659D01*
X007307Y004141D01*
X007395Y004053D01*
X007835Y004053D01*
X007922Y004141D01*
X007922Y004200D01*
X008083Y004200D01*
X008488Y004200D01*
X008500Y004195D02*
X008500Y002007D01*
X008493Y002000D02*
X008107Y002000D01*
X008100Y002007D02*
X008100Y004217D01*
X008083Y004200D02*
X008200Y004317D01*
X008200Y004317D01*
X008291Y004409D01*
X008329Y004319D01*
X008419Y004229D01*
X008536Y004180D01*
X008664Y004180D01*
X008781Y004229D01*
X008871Y004319D01*
X008920Y004436D01*
X008920Y004564D01*
X008871Y004681D01*
X008802Y004750D01*
X008804Y004921D01*
X008805Y004922D01*
X008805Y005004D01*
X008805Y005086D01*
X008805Y005161D01*
X008824Y005161D01*
X008867Y005173D01*
X008872Y005175D01*
X008916Y005131D01*
X009081Y005131D01*
X009097Y005147D01*
X009112Y005131D01*
X009192Y005131D01*
X009192Y005125D01*
X009300Y005017D01*
X009300Y001807D01*
X009300Y001393D01*
X009300Y001100D01*
X009200Y001100D02*
X009200Y001293D01*
X009207Y001300D02*
X009393Y001300D01*
X009400Y001293D02*
X009400Y001100D01*
X009500Y001100D02*
X009500Y001193D01*
X009493Y001200D02*
X009107Y001200D01*
X009100Y001193D02*
X009100Y001100D01*
X009007Y001100D02*
X009593Y001100D01*
X010007Y001100D01*
X010593Y001100D01*
X011007Y001100D01*
X011593Y001100D01*
X012007Y001100D01*
X012593Y001100D01*
X013007Y001100D01*
X012593Y001100D02*
X012300Y001393D01*
X012300Y001100D01*
X012200Y001100D02*
X012200Y001293D01*
X012207Y001300D02*
X012393Y001300D01*
X012400Y001293D02*
X012400Y001100D01*
X012500Y001100D02*
X012500Y001193D01*
X012493Y001200D02*
X012107Y001200D01*
X012100Y001193D02*
X012100Y001100D01*
X012007Y001100D02*
X012300Y001393D01*
X012300Y001807D01*
X012007Y002100D01*
X011593Y002100D01*
X011300Y001807D01*
X011300Y002406D01*
X011296Y002402D02*
X011384Y002490D01*
X011384Y002706D01*
X011396Y002734D01*
X011396Y002842D01*
X011384Y002870D01*
X011384Y003087D01*
X011296Y003174D01*
X010956Y003174D01*
X010868Y003087D01*
X010868Y003084D01*
X010859Y003093D01*
X010341Y003093D01*
X010253Y003005D01*
X010253Y002565D01*
X010341Y002478D01*
X010859Y002478D01*
X010869Y002488D01*
X010956Y002402D01*
X011296Y002402D01*
X011200Y002402D02*
X011200Y001907D01*
X011207Y001900D02*
X011393Y001900D01*
X011400Y001907D02*
X011400Y003456D01*
X011376Y003456D02*
X011496Y003456D01*
X011496Y003808D01*
X011504Y003808D01*
X011504Y003456D01*
X011624Y003456D01*
X011655Y003464D01*
X011661Y003468D01*
X011704Y003426D01*
X012044Y003426D01*
X012132Y003513D01*
X012132Y003542D01*
X012300Y003542D01*
X012300Y003058D01*
X012132Y003058D01*
X012132Y003087D01*
X012044Y003174D01*
X011704Y003174D01*
X011616Y003087D01*
X011616Y002870D01*
X011604Y002842D01*
X011604Y002734D01*
X011616Y002706D01*
X011616Y002490D01*
X011704Y002402D01*
X012044Y002402D01*
X012132Y002490D01*
X012132Y002500D02*
X013184Y002500D01*
X013184Y002400D02*
X004422Y002400D01*
X004422Y002341D02*
X004422Y002859D01*
X004385Y002896D01*
X004385Y003304D01*
X004422Y003341D01*
X004422Y003859D01*
X004370Y003911D01*
X004370Y003917D01*
X004371Y003919D01*
X004420Y004036D01*
X004420Y004164D01*
X004401Y004210D01*
X004426Y004192D01*
X004447Y004171D01*
X004469Y004162D01*
X004415Y004200D02*
X004405Y004200D01*
X004401Y004210D02*
X004401Y004210D01*
X004420Y004100D02*
X004557Y004100D01*
X004578Y004000D02*
X004405Y004000D01*
X004400Y003988D02*
X004400Y003881D01*
X004381Y003900D02*
X004619Y003900D01*
X004600Y003919D02*
X004600Y002100D01*
X004593Y002100D02*
X004300Y001807D01*
X004300Y002253D01*
X004335Y002253D01*
X004422Y002341D01*
X004400Y002319D02*
X004400Y001907D01*
X004393Y001900D02*
X004300Y001900D01*
X004300Y001807D02*
X004300Y001393D01*
X004300Y001100D01*
X004593Y001100D01*
X005007Y001100D01*
X005593Y001100D01*
X006007Y001100D01*
X006593Y001100D01*
X007007Y001100D01*
X007593Y001100D01*
X008007Y001100D01*
X008593Y001100D01*
X009007Y001100D01*
X009300Y001393D01*
X009593Y001100D01*
X010007Y001100D02*
X010300Y001393D01*
X010300Y001100D01*
X010400Y001100D02*
X010400Y001293D01*
X010393Y001300D02*
X010207Y001300D01*
X010200Y001293D02*
X010200Y001100D01*
X010100Y001100D02*
X010100Y001193D01*
X010107Y001200D02*
X010493Y001200D01*
X010500Y001193D02*
X010500Y001100D01*
X010593Y001100D02*
X010300Y001393D01*
X010300Y001807D01*
X010300Y002519D01*
X010319Y002500D02*
X004422Y002500D01*
X004422Y002600D02*
X010253Y002600D01*
X010253Y002700D02*
X004422Y002700D01*
X004422Y002800D02*
X010253Y002800D01*
X010253Y002900D02*
X004385Y002900D01*
X004400Y002881D02*
X004400Y003319D01*
X004385Y003300D02*
X005047Y003300D01*
X005029Y003319D02*
X005119Y003229D01*
X005236Y003180D01*
X005364Y003180D01*
X005481Y003229D01*
X005483Y003230D01*
X005489Y003230D01*
X005565Y003153D01*
X006005Y003153D01*
X006093Y003241D01*
X006093Y003759D01*
X006005Y003847D01*
X005565Y003847D01*
X005489Y003770D01*
X005483Y003770D01*
X005481Y003771D01*
X005364Y003820D01*
X005236Y003820D01*
X005119Y003771D01*
X005029Y003681D01*
X004980Y003564D01*
X004980Y003436D01*
X005029Y003319D01*
X005000Y003388D02*
X005000Y002100D01*
X005007Y002100D02*
X004593Y002100D01*
X004700Y002100D02*
X004700Y003853D01*
X004800Y003853D02*
X004800Y002100D01*
X004900Y002100D02*
X004900Y003853D01*
X005000Y003853D02*
X005000Y003612D01*
X004995Y003600D02*
X004422Y003600D01*
X004422Y003500D02*
X004980Y003500D01*
X004995Y003400D02*
X004422Y003400D01*
X004385Y003200D02*
X005188Y003200D01*
X005200Y003195D02*
X005200Y001907D01*
X005207Y001900D02*
X005393Y001900D01*
X005400Y001907D02*
X005400Y003195D01*
X005412Y003200D02*
X005519Y003200D01*
X005500Y003219D02*
X005500Y002007D01*
X005493Y002000D02*
X005107Y002000D01*
X005100Y002007D02*
X005100Y003247D01*
X005300Y003180D02*
X005300Y001807D01*
X005300Y001393D01*
X005300Y001100D01*
X005400Y001100D02*
X005400Y001293D01*
X005393Y001300D02*
X005207Y001300D01*
X005200Y001293D02*
X005200Y001100D01*
X005100Y001100D02*
X005100Y001193D01*
X005107Y001200D02*
X005493Y001200D01*
X005500Y001193D02*
X005500Y001100D01*
X005593Y001100D02*
X005300Y001393D01*
X005007Y001100D01*
X004593Y001100D02*
X004300Y001393D01*
X004300Y001300D02*
X004393Y001300D01*
X004400Y001293D02*
X004400Y001100D01*
X004500Y001100D02*
X004500Y001193D01*
X004493Y001200D02*
X004300Y001200D01*
X004300Y001100D02*
X004300Y002253D01*
X004300Y002200D02*
X013184Y002200D01*
X013184Y002300D02*
X004381Y002300D01*
X005007Y002100D02*
X005300Y001807D01*
X005593Y002100D01*
X006007Y002100D01*
X006300Y001807D01*
X006300Y003153D01*
X006400Y003153D02*
X006400Y001907D01*
X006393Y001900D02*
X006207Y001900D01*
X006200Y001907D02*
X006200Y003153D01*
X006195Y003153D02*
X006635Y003153D01*
X006711Y003230D01*
X006817Y003230D01*
X006819Y003229D01*
X006936Y003180D01*
X007064Y003180D01*
X007181Y003229D01*
X007271Y003319D01*
X007320Y003436D01*
X007320Y003564D01*
X007271Y003681D01*
X007181Y003771D01*
X007064Y003820D01*
X006936Y003820D01*
X006819Y003771D01*
X006817Y003770D01*
X006711Y003770D01*
X006635Y003847D01*
X006195Y003847D01*
X006107Y003759D01*
X006107Y003241D01*
X006195Y003153D01*
X006148Y003200D02*
X006052Y003200D01*
X006000Y003153D02*
X006000Y002100D01*
X005900Y002100D02*
X005900Y003153D01*
X005800Y003153D02*
X005800Y002100D01*
X005700Y002100D02*
X005700Y003153D01*
X005600Y003153D02*
X005600Y002100D01*
X005300Y001807D02*
X005300Y001393D01*
X005300Y001400D02*
X005300Y001400D01*
X005300Y001500D02*
X005300Y001500D01*
X005300Y001600D02*
X005300Y001600D01*
X005300Y001700D02*
X005300Y001700D01*
X005300Y001800D02*
X005300Y001800D01*
X006100Y002007D02*
X006100Y004288D01*
X006095Y004300D02*
X005792Y004300D01*
X005792Y004229D02*
X005544Y004229D01*
X005486Y004229D01*
X005486Y004771D01*
X005237Y004771D01*
X005237Y004587D01*
X005246Y004557D01*
X005261Y004529D01*
X005284Y004507D01*
X005296Y004500D01*
X005155Y004500D01*
X005193Y004400D02*
X005237Y004400D01*
X005237Y004413D02*
X005237Y004229D01*
X005486Y004229D01*
X005486Y004171D01*
X005544Y004171D01*
X005544Y004229D01*
X005544Y004483D01*
X005544Y004771D01*
X005792Y004771D01*
X005792Y004587D01*
X005784Y004557D01*
X005768Y004529D01*
X005746Y004507D01*
X005734Y004500D01*
X006095Y004500D01*
X006100Y004512D02*
X006100Y005517D01*
X006083Y005500D02*
X006566Y005500D01*
X006554Y005493D02*
X006532Y005471D01*
X006516Y005443D01*
X006508Y005413D01*
X006508Y005229D01*
X006756Y005229D01*
X006756Y005171D01*
X006814Y005171D01*
X006814Y005229D01*
X007063Y005229D01*
X007063Y005413D01*
X007054Y005443D01*
X007039Y005471D01*
X007016Y005493D01*
X006989Y005509D01*
X006958Y005517D01*
X006814Y005517D01*
X006814Y005229D01*
X006756Y005229D01*
X006756Y005517D01*
X006612Y005517D01*
X006581Y005509D01*
X006554Y005493D01*
X006600Y005514D02*
X006600Y005908D01*
X006700Y005908D02*
X006700Y005517D01*
X006756Y005500D02*
X006814Y005500D01*
X006900Y005517D02*
X006900Y005908D01*
X006800Y005908D02*
X006800Y005229D01*
X006800Y005228D02*
X006785Y005200D01*
X006800Y005285D01*
X006800Y005000D01*
X006900Y004800D01*
X008000Y004800D01*
X008211Y005011D01*
X008211Y005557D01*
X008211Y005332D02*
X008211Y005782D01*
X008200Y005557D02*
X008200Y005557D01*
X008100Y005557D02*
X008100Y005557D01*
X008041Y005600D02*
X008011Y005600D01*
X008000Y005588D02*
X008000Y004683D01*
X008017Y004700D02*
X007881Y004700D01*
X007900Y004681D02*
X007900Y005468D01*
X007926Y005500D02*
X008041Y005500D01*
X008041Y005400D02*
X007843Y005400D01*
X007800Y005349D02*
X007800Y004747D01*
X007700Y004747D02*
X007700Y004919D01*
X007681Y004900D02*
X008208Y004900D01*
X008200Y004883D02*
X008200Y005161D01*
X008208Y005100D02*
X007722Y005100D01*
X007722Y005000D02*
X008208Y005000D01*
X008117Y004800D02*
X005544Y004800D01*
X005500Y004771D02*
X005500Y004229D01*
X005486Y004200D02*
X005193Y004200D01*
X005237Y004171D02*
X005237Y003987D01*
X005246Y003957D01*
X005261Y003929D01*
X005284Y003907D01*
X005311Y003891D01*
X005342Y003883D01*
X005486Y003883D01*
X005486Y004171D01*
X005237Y004171D01*
X005300Y004171D02*
X005300Y004229D01*
X005237Y004300D02*
X005193Y004300D01*
X005237Y004413D02*
X005246Y004443D01*
X005261Y004471D01*
X005284Y004493D01*
X005296Y004500D01*
X005237Y004600D02*
X005193Y004600D01*
X005193Y004700D02*
X005237Y004700D01*
X005300Y004771D02*
X005300Y004829D01*
X005237Y004900D02*
X005193Y004900D01*
X005193Y004800D02*
X005486Y004800D01*
X005400Y004771D02*
X005400Y004829D01*
X005486Y004700D02*
X005544Y004700D01*
X005600Y004771D02*
X005600Y004829D01*
X005700Y004829D02*
X005700Y004771D01*
X005792Y004700D02*
X006288Y004700D01*
X006300Y004705D02*
X006300Y005717D01*
X006283Y005700D02*
X007572Y005700D01*
X007500Y005759D02*
X007500Y005614D01*
X007489Y005600D02*
X006183Y005600D01*
X006200Y005617D02*
X006200Y004653D01*
X006219Y004671D02*
X006129Y004581D01*
X006080Y004464D01*
X006080Y004336D01*
X006129Y004219D01*
X006219Y004129D01*
X006336Y004080D01*
X006464Y004080D01*
X006581Y004129D01*
X006583Y004130D01*
X006689Y004130D01*
X006765Y004053D01*
X007205Y004053D01*
X007293Y004141D01*
X007293Y004659D01*
X007205Y004747D01*
X006765Y004747D01*
X006689Y004670D01*
X006583Y004670D01*
X006581Y004671D01*
X006464Y004720D01*
X006336Y004720D01*
X006219Y004671D01*
X006147Y004600D02*
X005792Y004600D01*
X005734Y004500D02*
X005746Y004493D01*
X005768Y004471D01*
X005784Y004443D01*
X005792Y004413D01*
X005792Y004229D01*
X005792Y004171D02*
X005544Y004171D01*
X005544Y003883D01*
X005688Y003883D01*
X005719Y003891D01*
X005746Y003907D01*
X005768Y003929D01*
X005784Y003957D01*
X005792Y003987D01*
X005792Y004171D01*
X005792Y004100D02*
X006288Y004100D01*
X006300Y004095D02*
X006300Y003847D01*
X006400Y003847D02*
X006400Y004080D01*
X006500Y004095D02*
X006500Y003847D01*
X006600Y003847D02*
X006600Y004130D01*
X006512Y004100D02*
X006719Y004100D01*
X006700Y004119D02*
X006700Y003781D01*
X006681Y003800D02*
X006888Y003800D01*
X006900Y003805D02*
X006900Y004053D01*
X006800Y004053D02*
X006800Y003770D01*
X007000Y003820D02*
X007000Y004053D01*
X007100Y004053D02*
X007100Y003805D01*
X007112Y003800D02*
X010286Y003800D01*
X010283Y003812D02*
X010291Y003781D01*
X010307Y003754D01*
X010329Y003732D01*
X010357Y003716D01*
X010387Y003708D01*
X010571Y003708D01*
X010571Y003956D01*
X010629Y003956D01*
X010629Y003708D01*
X010813Y003708D01*
X010843Y003716D01*
X010868Y003730D01*
X010868Y003730D01*
X010868Y003670D01*
X010843Y003684D01*
X010813Y003692D01*
X010629Y003692D01*
X010629Y003444D01*
X010917Y003444D01*
X010917Y003464D01*
X010956Y003426D01*
X011296Y003426D01*
X011339Y003468D01*
X011345Y003464D01*
X011376Y003456D01*
X011300Y003429D02*
X011300Y003171D01*
X011200Y003174D02*
X011200Y003426D01*
X011100Y003426D02*
X011100Y003174D01*
X011000Y003174D02*
X011000Y003426D01*
X010917Y003386D02*
X010629Y003386D01*
X010629Y003444D01*
X010571Y003444D01*
X010571Y003692D01*
X010387Y003692D01*
X010357Y003684D01*
X010329Y003668D01*
X010307Y003646D01*
X010291Y003619D01*
X010283Y003588D01*
X010283Y003444D01*
X010571Y003444D01*
X010571Y003386D01*
X010629Y003386D01*
X010629Y003137D01*
X010813Y003137D01*
X010843Y003146D01*
X010871Y003161D01*
X010893Y003184D01*
X010909Y003211D01*
X010917Y003242D01*
X010917Y003386D01*
X010900Y003386D02*
X010900Y003444D01*
X010800Y003444D02*
X010800Y003386D01*
X010700Y003386D02*
X010700Y003444D01*
X010629Y003400D02*
X012300Y003400D01*
X012300Y003300D02*
X010917Y003300D01*
X010902Y003200D02*
X012300Y003200D01*
X012300Y003100D02*
X012119Y003100D01*
X012100Y003119D02*
X012100Y003481D01*
X012119Y003500D02*
X012300Y003500D01*
X012200Y003542D02*
X012200Y003058D01*
X012000Y003174D02*
X012000Y003426D01*
X011900Y003426D02*
X011900Y003174D01*
X011800Y003174D02*
X011800Y003426D01*
X011700Y003429D02*
X011700Y003171D01*
X011629Y003100D02*
X011371Y003100D01*
X011384Y003000D02*
X011616Y003000D01*
X011616Y002900D02*
X011384Y002900D01*
X011396Y002800D02*
X011604Y002800D01*
X011616Y002700D02*
X011384Y002700D01*
X011384Y002600D02*
X011616Y002600D01*
X011616Y002500D02*
X011384Y002500D01*
X011100Y002402D02*
X011100Y002007D01*
X011107Y002000D02*
X011493Y002000D01*
X011500Y002007D02*
X011500Y003808D01*
X011500Y003812D02*
X011540Y003850D01*
X011470Y003850D01*
X011500Y003812D01*
X011470Y003780D01*
X011504Y003816D01*
X011496Y003816D01*
X011496Y004168D01*
X011396Y004168D01*
X011396Y004230D01*
X011630Y004230D01*
X011630Y004166D01*
X011624Y004168D01*
X011504Y004168D01*
X011504Y003816D01*
X011500Y003816D02*
X011500Y004230D01*
X011600Y004230D02*
X011600Y004168D01*
X011630Y004200D02*
X011396Y004200D01*
X011400Y004230D02*
X011400Y004168D01*
X011470Y004130D02*
X011504Y004130D01*
X011504Y004100D02*
X011496Y004100D01*
X011496Y004000D02*
X011504Y004000D01*
X011496Y003900D02*
X011504Y003900D01*
X011496Y003800D02*
X011504Y003800D01*
X011496Y003700D02*
X011504Y003700D01*
X011496Y003600D02*
X011504Y003600D01*
X011496Y003500D02*
X011504Y003500D01*
X011600Y003456D02*
X011600Y002100D01*
X011700Y002100D02*
X011700Y002406D01*
X011800Y002402D02*
X011800Y002100D01*
X011900Y002100D02*
X011900Y002402D01*
X012000Y002402D02*
X012000Y002100D01*
X012300Y001807D02*
X012300Y001393D01*
X012300Y001400D02*
X012300Y001400D01*
X012300Y001500D02*
X012300Y001500D01*
X012300Y001600D02*
X012300Y001600D01*
X012300Y001700D02*
X012300Y001700D01*
X012300Y001800D02*
X012300Y001800D01*
X012600Y002100D02*
X012600Y002534D01*
X012700Y002598D02*
X012700Y002100D01*
X013200Y002067D02*
X013200Y001907D01*
X013207Y001900D02*
X013393Y001900D01*
X013400Y001907D02*
X013400Y001996D01*
X013300Y001807D02*
X013300Y001393D01*
X013300Y001400D02*
X013300Y001400D01*
X013300Y001500D02*
X013300Y001500D01*
X013300Y001600D02*
X013300Y001600D01*
X013300Y001700D02*
X013300Y001700D01*
X013300Y001800D02*
X013300Y001800D01*
X014300Y001800D02*
X014335Y001800D01*
X014400Y001865D02*
X014400Y002031D01*
X014701Y002100D02*
X014801Y002100D01*
X014801Y002200D02*
X014701Y002200D01*
X014750Y002000D02*
X014850Y002000D01*
X014850Y001900D02*
X014750Y001900D01*
X014750Y001800D02*
X014850Y001800D01*
X014900Y001650D02*
X014900Y001550D01*
X014850Y001500D02*
X014750Y001500D01*
X014750Y001550D02*
X014750Y001130D01*
X014605Y001130D01*
X014330Y001405D01*
X014330Y001550D01*
X014750Y001550D01*
X014700Y001550D02*
X014700Y001650D01*
X014750Y001600D02*
X014300Y001600D01*
X014300Y001500D02*
X014330Y001500D01*
X014400Y001550D02*
X014400Y001650D01*
X014330Y001700D02*
X014300Y001700D01*
X014500Y001650D02*
X014500Y001550D01*
X014600Y001550D02*
X014600Y001650D01*
X014800Y001550D02*
X014800Y001100D01*
X014900Y001100D02*
X014900Y001130D01*
X014850Y001200D02*
X014750Y001200D01*
X014700Y001130D02*
X014700Y001100D01*
X014600Y001100D02*
X014600Y001135D01*
X014750Y001300D02*
X014850Y001300D01*
X014850Y001400D02*
X014750Y001400D01*
X014335Y001400D02*
X014300Y001400D01*
X015000Y001550D02*
X015000Y001650D01*
X015100Y001650D02*
X015100Y001550D01*
X015200Y001550D02*
X015200Y001650D01*
X015270Y001700D02*
X017544Y001700D01*
X017600Y001789D02*
X017600Y002234D01*
X017700Y002249D02*
X017700Y001856D01*
X017800Y001875D02*
X017800Y003290D01*
X017900Y003290D02*
X017900Y001856D01*
X017967Y001900D02*
X015165Y001900D01*
X015200Y001865D02*
X015200Y010335D01*
X015165Y010300D02*
X017967Y010300D01*
X017970Y010293D02*
X018193Y010070D01*
X018281Y010034D01*
X018280Y010032D01*
X018280Y009910D01*
X017790Y009910D01*
X017704Y009996D01*
X016399Y009996D01*
X016311Y009908D01*
X016311Y009794D01*
X016270Y009753D01*
X016270Y009795D01*
X015995Y010070D01*
X015850Y010070D01*
X015850Y009650D01*
X015850Y009700D02*
X015750Y009700D01*
X015700Y009650D02*
X015700Y009550D01*
X015750Y009550D02*
X015330Y009550D01*
X015330Y009405D01*
X015605Y009130D01*
X015750Y009130D01*
X015750Y009550D01*
X015800Y009550D02*
X015800Y009100D01*
X015700Y009100D02*
X015700Y009130D01*
X015750Y009200D02*
X015850Y009200D01*
X015900Y009130D02*
X015900Y009100D01*
X016000Y009100D02*
X016000Y009135D01*
X016065Y009200D02*
X016100Y009200D01*
X016100Y009100D02*
X014030Y009100D01*
X014000Y009096D02*
X014000Y009070D01*
X014100Y009070D02*
X014100Y009170D01*
X014500Y009550D02*
X014500Y009650D01*
X014600Y009650D02*
X014600Y009550D01*
X014700Y009550D02*
X014700Y009650D01*
X014701Y009700D02*
X014801Y009700D01*
X014800Y009650D02*
X014800Y010550D01*
X014850Y010550D02*
X014850Y010130D01*
X014995Y010130D01*
X015270Y010405D01*
X015270Y010550D01*
X014850Y010550D01*
X014850Y010650D01*
X014750Y010650D01*
X014750Y011070D01*
X014605Y011070D01*
X014330Y010795D01*
X014330Y010650D01*
X014750Y010650D01*
X014750Y010550D01*
X014330Y010550D01*
X014330Y010405D01*
X014605Y010130D01*
X014750Y010130D01*
X014750Y010550D01*
X014850Y010550D01*
X014900Y010550D02*
X014900Y010650D01*
X014850Y010650D02*
X015270Y010650D01*
X015270Y010795D01*
X014995Y011070D01*
X014850Y011070D01*
X014850Y010650D01*
X014800Y010650D02*
X014800Y011100D01*
X014900Y011100D02*
X014900Y011070D01*
X014850Y011000D02*
X014750Y011000D01*
X014700Y011070D02*
X014700Y011100D01*
X014600Y011100D02*
X014600Y011065D01*
X014750Y010900D02*
X014850Y010900D01*
X014850Y010800D02*
X014750Y010800D01*
X014750Y010700D02*
X014850Y010700D01*
X014850Y010600D02*
X017525Y010600D01*
X017525Y010655D02*
X017525Y010545D01*
X017567Y010444D01*
X017644Y010367D01*
X017745Y010325D01*
X017855Y010325D01*
X017942Y010361D01*
X017970Y010293D01*
X017970Y010293D01*
X018000Y010263D02*
X018000Y009910D01*
X017900Y009910D02*
X017900Y010344D01*
X017800Y010325D02*
X017800Y009910D01*
X017700Y009996D02*
X017700Y010344D01*
X017611Y010400D02*
X015265Y010400D01*
X015270Y010500D02*
X017544Y010500D01*
X017600Y010411D02*
X017600Y009996D01*
X017500Y009996D02*
X017500Y010844D01*
X017408Y010806D02*
X017192Y010806D01*
X016992Y010889D01*
X016839Y011042D01*
X016815Y011100D01*
X004300Y011100D01*
X004300Y010807D01*
X004300Y010393D01*
X004300Y010200D01*
X004493Y010200D01*
X004300Y010200D01*
X004300Y011100D01*
X004300Y011000D02*
X004493Y011000D01*
X004500Y011007D02*
X004500Y011100D01*
X004593Y011100D02*
X004300Y010807D01*
X004300Y010900D02*
X004393Y010900D01*
X004400Y010907D02*
X004400Y011100D01*
X004593Y011100D02*
X005007Y011100D01*
X005300Y010807D01*
X005300Y011100D01*
X005400Y011100D02*
X005400Y010907D01*
X005393Y010900D02*
X005207Y010900D01*
X005200Y010907D02*
X005200Y011100D01*
X005100Y011100D02*
X005100Y011007D01*
X005107Y011000D02*
X005493Y011000D01*
X005500Y011007D02*
X005500Y011100D01*
X005593Y011100D02*
X005300Y010807D01*
X005300Y010393D01*
X005300Y009700D01*
X005400Y009700D02*
X005400Y010293D01*
X005393Y010300D02*
X005207Y010300D01*
X005200Y010293D02*
X005200Y009700D01*
X005100Y009700D02*
X005100Y010193D01*
X005107Y010200D02*
X005493Y010200D01*
X005500Y010193D02*
X005500Y009700D01*
X005600Y009700D02*
X005600Y009717D01*
X005617Y009700D01*
X005000Y009700D01*
X005000Y010100D01*
X005007Y010100D01*
X005593Y010100D01*
X005600Y010100D01*
X005600Y009717D01*
X005617Y009700D02*
X005000Y009700D01*
X005000Y010100D01*
X005007Y010100D02*
X005300Y010393D01*
X005593Y010100D01*
X005600Y010000D02*
X005000Y010000D01*
X005000Y009900D02*
X005600Y009900D01*
X005600Y009800D02*
X005000Y009800D01*
X004800Y009600D02*
X004800Y010000D01*
X004800Y010600D01*
X005300Y010600D02*
X005300Y010600D01*
X005300Y010700D02*
X005300Y010700D01*
X005300Y010800D02*
X005300Y010800D01*
X005300Y010807D02*
X005300Y010393D01*
X005300Y010400D02*
X005300Y010400D01*
X005300Y010500D02*
X005300Y010500D01*
X005800Y010600D02*
X005800Y009800D01*
X006300Y009300D01*
X006300Y007900D01*
X006500Y007800D01*
X006820Y007800D02*
X007100Y007800D01*
X007100Y007700D02*
X007012Y007700D01*
X007000Y007705D02*
X007000Y007980D01*
X007037Y007980D02*
X007100Y007917D01*
X007100Y007653D01*
X007081Y007671D01*
X006964Y007720D01*
X006836Y007720D01*
X006808Y007708D01*
X006820Y007736D01*
X006820Y007864D01*
X006771Y007981D01*
X006681Y008071D01*
X006564Y008120D01*
X006500Y008120D01*
X006500Y010193D01*
X006493Y010200D02*
X006107Y010200D01*
X006100Y010193D02*
X006100Y009783D01*
X006083Y009800D02*
X006917Y009800D01*
X007495Y009800D01*
X007480Y009764D01*
X007480Y009636D01*
X007529Y009519D01*
X007600Y009447D01*
X007600Y009241D01*
X007519Y009335D01*
X007520Y009336D01*
X007520Y009464D01*
X007471Y009581D01*
X007381Y009671D01*
X007264Y009720D01*
X007136Y009720D01*
X007019Y009671D01*
X006929Y009581D01*
X006880Y009464D01*
X006880Y009336D01*
X006929Y009219D01*
X007019Y009129D01*
X007136Y009080D01*
X007211Y009080D01*
X007606Y008620D01*
X007536Y008620D01*
X007419Y008571D01*
X007329Y008481D01*
X007300Y008412D01*
X007300Y008976D01*
X007280Y009000D02*
X006500Y009000D01*
X006500Y008900D02*
X007365Y008900D01*
X007400Y008860D02*
X007400Y008553D01*
X007347Y008500D02*
X007253Y008500D01*
X007271Y008481D02*
X007181Y008571D01*
X007064Y008620D01*
X006936Y008620D01*
X006819Y008571D01*
X006729Y008481D01*
X006680Y008364D01*
X006680Y008236D01*
X006729Y008119D01*
X006819Y008029D01*
X006936Y007980D01*
X007037Y007980D01*
X007100Y007900D02*
X006805Y007900D01*
X006800Y007912D02*
X006800Y008047D01*
X006753Y008000D02*
X006888Y008000D01*
X006900Y007995D02*
X006900Y007720D01*
X006592Y007492D02*
X006580Y007464D01*
X006580Y007336D01*
X006629Y007219D01*
X006719Y007129D01*
X006799Y007095D01*
X006488Y007095D01*
X006300Y007283D01*
X006300Y007547D01*
X006300Y007283D01*
X006300Y007300D02*
X006595Y007300D01*
X006600Y007288D02*
X006600Y007095D01*
X006700Y007095D02*
X006700Y007147D01*
X006647Y007200D02*
X006383Y007200D01*
X006400Y007183D02*
X006400Y007495D01*
X006388Y007500D02*
X006300Y007500D01*
X006319Y007529D02*
X006436Y007480D01*
X006564Y007480D01*
X006592Y007492D01*
X006580Y007400D02*
X006300Y007400D01*
X006319Y007529D02*
X006300Y007547D01*
X006500Y007480D02*
X006500Y007095D01*
X006483Y007100D02*
X006788Y007100D01*
X006900Y007400D02*
X007208Y007092D01*
X007857Y007092D01*
X007632Y007092D02*
X008082Y007092D01*
X008082Y007289D02*
X007632Y007289D01*
X007611Y007289D02*
X007300Y007600D01*
X007300Y008000D01*
X007000Y008300D01*
X007300Y008412D02*
X007271Y008481D01*
X007200Y008553D02*
X007200Y009080D01*
X007100Y009095D02*
X007100Y008605D01*
X007112Y008600D02*
X007488Y008600D01*
X007500Y008605D02*
X007500Y008743D01*
X007537Y008700D02*
X006500Y008700D01*
X006500Y008800D02*
X007451Y008800D01*
X007600Y008627D02*
X007600Y008620D01*
X007600Y008300D02*
X007600Y008000D01*
X008000Y007600D01*
X008168Y007600D01*
X008211Y007643D01*
X008211Y007868D02*
X008211Y007418D01*
X007857Y007289D02*
X007611Y007289D01*
X007694Y007489D02*
X007500Y007683D01*
X007500Y007817D01*
X007500Y007683D01*
X007500Y007700D02*
X007617Y007700D01*
X007600Y007717D02*
X007600Y007583D01*
X007583Y007600D02*
X007717Y007600D01*
X007700Y007617D02*
X007700Y007489D01*
X007694Y007489D02*
X007828Y007489D01*
X007800Y007517D01*
X007800Y007489D01*
X007817Y007500D02*
X007683Y007500D01*
X007800Y007517D02*
X007500Y007817D01*
X007500Y007800D02*
X007517Y007800D01*
X007818Y008065D02*
X008011Y007872D01*
X008011Y007952D01*
X008101Y008042D01*
X007920Y008254D01*
X007920Y008236D01*
X007871Y008119D01*
X007818Y008065D01*
X007853Y008100D02*
X008052Y008100D01*
X008100Y008044D02*
X008100Y008041D01*
X008059Y008000D02*
X007883Y008000D01*
X007900Y007983D02*
X007900Y008188D01*
X007905Y008200D02*
X007966Y008200D01*
X008000Y008160D02*
X008000Y007883D01*
X008011Y007900D02*
X007983Y007900D01*
X008408Y007992D02*
X008408Y007643D01*
X008408Y007868D02*
X008408Y007418D01*
X008605Y007418D02*
X008605Y007868D01*
X008408Y007992D02*
X007200Y009400D01*
X007520Y009400D02*
X007600Y009400D01*
X007600Y009300D02*
X007549Y009300D01*
X007800Y009100D02*
X007800Y009700D01*
X007480Y009700D02*
X007312Y009700D01*
X007300Y009705D02*
X007300Y009800D01*
X007200Y009800D02*
X007200Y009720D01*
X007100Y009705D02*
X007100Y009800D01*
X007000Y009800D02*
X007000Y009653D01*
X006947Y009600D02*
X006283Y009600D01*
X006300Y009583D02*
X006300Y010393D01*
X006300Y010807D01*
X006300Y011100D01*
X006400Y011100D02*
X006400Y010907D01*
X006393Y010900D02*
X006207Y010900D01*
X006200Y010907D02*
X006200Y011100D01*
X006100Y011100D02*
X006100Y011007D01*
X006107Y011000D02*
X006493Y011000D01*
X006500Y011007D02*
X006500Y011100D01*
X006593Y011100D02*
X006300Y010807D01*
X006007Y011100D01*
X005593Y011100D01*
X005600Y011100D02*
X005600Y011100D01*
X005700Y011100D02*
X005700Y011100D01*
X005800Y011100D02*
X005800Y011100D01*
X005900Y011100D02*
X005900Y011100D01*
X006000Y011100D02*
X006000Y011100D01*
X006300Y010807D02*
X006300Y010393D01*
X006007Y010100D01*
X006593Y010100D01*
X006617Y010100D01*
X006717Y010000D01*
X006000Y010000D01*
X006000Y010100D02*
X006000Y009883D01*
X006000Y010100D01*
X006007Y010100D01*
X006200Y010293D02*
X006200Y009683D01*
X006183Y009700D02*
X007088Y009700D01*
X006917Y009800D02*
X006717Y010000D01*
X006717Y010000D01*
X006700Y010017D02*
X006700Y008412D01*
X006695Y008400D02*
X006500Y008400D01*
X006500Y008300D02*
X006680Y008300D01*
X006695Y008200D02*
X006500Y008200D01*
X006500Y008120D02*
X006500Y009383D01*
X006383Y009500D01*
X006000Y009883D01*
X006000Y009900D02*
X006817Y009900D01*
X006800Y009917D02*
X006800Y008553D01*
X006747Y008500D02*
X006500Y008500D01*
X006500Y008600D02*
X006888Y008600D01*
X006900Y008605D02*
X006900Y009288D01*
X006895Y009300D02*
X006500Y009300D01*
X006500Y009200D02*
X006947Y009200D01*
X007000Y009147D02*
X007000Y008620D01*
X007088Y009100D02*
X006500Y009100D01*
X006100Y009200D02*
X005800Y009500D01*
X004900Y009500D01*
X004800Y009600D01*
X004600Y009600D02*
X004422Y009600D01*
X004422Y009700D02*
X004600Y009700D01*
X004600Y009800D02*
X004422Y009800D01*
X004422Y009341D01*
X004385Y009304D01*
X004385Y008896D01*
X004422Y008859D01*
X004422Y008600D01*
X004531Y008600D01*
X004422Y008600D01*
X004500Y008600D02*
X004500Y009800D01*
X004600Y009800D02*
X004600Y009517D01*
X004600Y008930D01*
X004604Y008932D02*
X004576Y008916D01*
X004554Y008894D01*
X004538Y008866D01*
X004530Y008836D01*
X004530Y008720D01*
X004900Y008720D01*
X004900Y009300D01*
X004817Y009300D02*
X004385Y009300D01*
X004400Y009319D02*
X004400Y008881D01*
X004385Y008900D02*
X004560Y008900D01*
X004604Y008932D02*
X004634Y008940D01*
X004900Y008940D01*
X004900Y008720D01*
X004900Y008720D01*
X005270Y008720D01*
X005270Y008836D01*
X005262Y008866D01*
X005246Y008894D01*
X005224Y008916D01*
X005196Y008932D01*
X005166Y008940D01*
X004900Y008940D01*
X004900Y008720D01*
X004900Y008720D01*
X004900Y008720D01*
X005270Y008720D01*
X005270Y008604D01*
X005267Y008595D01*
X005300Y008562D01*
X005300Y007918D01*
X005212Y007830D01*
X005123Y007830D01*
X005171Y007781D01*
X005220Y007664D01*
X005220Y007536D01*
X005171Y007419D01*
X005099Y007347D01*
X005105Y007347D01*
X005193Y007259D01*
X005193Y006741D01*
X005105Y006653D01*
X004977Y006653D01*
X005033Y006597D01*
X005033Y006315D01*
X004946Y006227D01*
X004790Y006227D01*
X004736Y006173D01*
X004946Y006173D01*
X005033Y006085D01*
X005033Y005803D01*
X004977Y005747D01*
X005105Y005747D01*
X005193Y005659D01*
X005193Y005141D01*
X005152Y005100D01*
X005207Y005141D02*
X005270Y005079D01*
X005237Y005000D02*
X005193Y005000D01*
X005207Y005141D02*
X005207Y005659D01*
X005295Y005747D01*
X005735Y005747D01*
X005749Y005732D01*
X006217Y006200D01*
X005464Y006200D01*
X004763Y006200D01*
X004800Y006173D02*
X004800Y006227D01*
X004900Y006227D02*
X004900Y006173D01*
X005000Y006118D02*
X005000Y006282D01*
X005018Y006300D02*
X005198Y006300D01*
X005197Y006295D02*
X005205Y006325D01*
X005221Y006352D01*
X005243Y006375D01*
X005270Y006391D01*
X005301Y006399D01*
X005464Y006399D01*
X005464Y006200D01*
X005197Y006200D01*
X005464Y006200D01*
X005464Y006200D01*
X005464Y006200D01*
X005464Y006001D01*
X005301Y006001D01*
X005270Y006009D01*
X005243Y006025D01*
X005221Y006048D01*
X005205Y006075D01*
X005197Y006105D01*
X005197Y006200D01*
X005197Y006295D01*
X005200Y006307D02*
X005200Y007488D01*
X005205Y007500D02*
X005700Y007500D01*
X005700Y007400D02*
X005153Y007400D01*
X005100Y007347D02*
X005100Y007347D01*
X005152Y007300D02*
X005248Y007300D01*
X005207Y007259D02*
X005207Y006741D01*
X005295Y006653D01*
X005735Y006653D01*
X005749Y006668D01*
X006217Y006200D01*
X006200Y006183D02*
X006200Y006217D01*
X006117Y006300D02*
X005730Y006300D01*
X005732Y006295D02*
X005724Y006325D01*
X005708Y006352D01*
X005685Y006375D01*
X005658Y006391D01*
X005628Y006399D01*
X005464Y006399D01*
X005464Y006200D01*
X005464Y006200D01*
X005464Y006001D01*
X005628Y006001D01*
X005658Y006009D01*
X005685Y006025D01*
X005708Y006048D01*
X005724Y006075D01*
X005732Y006105D01*
X005732Y006200D01*
X005732Y006295D01*
X005700Y006360D02*
X005700Y006653D01*
X005600Y006653D02*
X005600Y006399D01*
X005500Y006399D02*
X005500Y006653D01*
X005400Y006653D02*
X005400Y006399D01*
X005300Y006399D02*
X005300Y006653D01*
X005248Y006700D02*
X005152Y006700D01*
X005100Y006653D02*
X005100Y005747D01*
X005152Y005700D02*
X005248Y005700D01*
X005300Y005747D02*
X005300Y006001D01*
X005400Y006001D02*
X005400Y005747D01*
X005500Y005747D02*
X005500Y006001D01*
X005600Y006001D02*
X005600Y005747D01*
X005700Y005747D02*
X005700Y006040D01*
X005730Y006100D02*
X006117Y006100D01*
X006100Y006083D02*
X006100Y006317D01*
X006017Y006400D02*
X005033Y006400D01*
X005033Y006500D02*
X005917Y006500D01*
X005900Y006517D02*
X005900Y005883D01*
X005917Y005900D02*
X005033Y005900D01*
X005033Y006000D02*
X006017Y006000D01*
X006000Y005983D02*
X006000Y006417D01*
X005732Y006200D02*
X005464Y006200D01*
X005464Y006200D01*
X005732Y006200D01*
X005700Y006200D02*
X005700Y006200D01*
X005600Y006200D02*
X005600Y006200D01*
X005500Y006200D02*
X005500Y006200D01*
X005400Y006200D02*
X005400Y006200D01*
X005300Y006200D02*
X005300Y006200D01*
X005200Y006200D02*
X005200Y006200D01*
X005198Y006100D02*
X005018Y006100D01*
X005200Y006093D02*
X005200Y003805D01*
X005188Y003800D02*
X004422Y003800D01*
X004422Y003700D02*
X005047Y003700D01*
X005100Y003753D02*
X005100Y003853D01*
X005152Y003900D02*
X005296Y003900D01*
X005300Y003898D02*
X005300Y003820D01*
X005400Y003805D02*
X005400Y003883D01*
X005412Y003800D02*
X005519Y003800D01*
X005500Y003781D02*
X005500Y004171D01*
X005544Y004200D02*
X006147Y004200D01*
X006200Y004147D02*
X006200Y003847D01*
X006148Y003800D02*
X006052Y003800D01*
X006000Y003847D02*
X006000Y005417D01*
X005983Y005400D02*
X006508Y005400D01*
X006508Y005300D02*
X005883Y005300D01*
X005900Y005317D02*
X005900Y003847D01*
X005800Y003847D02*
X005800Y005119D01*
X005781Y005100D02*
X006508Y005100D01*
X006508Y005171D02*
X006508Y004987D01*
X006516Y004957D01*
X006532Y004929D01*
X006554Y004907D01*
X006581Y004891D01*
X006612Y004883D01*
X006756Y004883D01*
X006756Y005171D01*
X006508Y005171D01*
X006600Y005171D02*
X006600Y005229D01*
X006700Y005229D02*
X006700Y005171D01*
X006756Y005200D02*
X005822Y005200D01*
X005700Y005400D02*
X005515Y005400D01*
X005700Y005400D02*
X006408Y006108D01*
X007857Y006108D01*
X007632Y006108D02*
X008082Y006108D01*
X008082Y006305D02*
X007632Y006305D01*
X007857Y006305D02*
X006395Y006305D01*
X005700Y007000D01*
X005515Y007000D01*
X005207Y007000D02*
X005193Y007000D01*
X005193Y006900D02*
X005207Y006900D01*
X005193Y006800D02*
X005207Y006800D01*
X005000Y006653D02*
X005000Y006630D01*
X005030Y006600D02*
X005817Y006600D01*
X005800Y006617D02*
X005800Y005783D01*
X005817Y005800D02*
X005030Y005800D01*
X005000Y005770D02*
X005000Y005747D01*
X005193Y005600D02*
X005207Y005600D01*
X005193Y005500D02*
X005207Y005500D01*
X005193Y005400D02*
X005207Y005400D01*
X005193Y005300D02*
X005207Y005300D01*
X005193Y005200D02*
X005207Y005200D01*
X004885Y005400D02*
X004736Y005636D01*
X004736Y005944D01*
X004592Y005800D01*
X003500Y005800D01*
X003500Y006100D02*
X003700Y006300D01*
X004580Y006300D01*
X004736Y006456D01*
X004780Y006500D01*
X004736Y006456D02*
X004736Y006764D01*
X004885Y007000D01*
X004578Y007000D02*
X004420Y007000D01*
X004420Y006936D02*
X004420Y007064D01*
X004371Y007181D01*
X004300Y007253D01*
X004300Y007380D01*
X004364Y007380D01*
X004481Y007429D01*
X004571Y007519D01*
X004580Y007540D01*
X004580Y007536D01*
X004629Y007419D01*
X004701Y007347D01*
X004665Y007347D01*
X004578Y007259D01*
X004578Y006889D01*
X004536Y006847D01*
X004536Y006822D01*
X004523Y006801D01*
X004536Y006742D01*
X004536Y006685D01*
X004526Y006685D01*
X004438Y006597D01*
X004438Y006500D01*
X004300Y006500D01*
X004300Y006747D01*
X004371Y006819D01*
X004420Y006936D01*
X004405Y006900D02*
X004578Y006900D01*
X004523Y006800D02*
X004353Y006800D01*
X004300Y006747D02*
X004300Y006500D01*
X004438Y006500D01*
X004400Y006500D02*
X004400Y006888D01*
X004300Y006700D02*
X004536Y006700D01*
X004500Y006659D02*
X004500Y007447D01*
X004553Y007500D02*
X004595Y007500D01*
X004600Y007488D02*
X004600Y007281D01*
X004619Y007300D02*
X004300Y007300D01*
X004300Y007253D02*
X004300Y007380D01*
X004400Y007395D02*
X004400Y007112D01*
X004405Y007100D02*
X004578Y007100D01*
X004578Y007200D02*
X004353Y007200D01*
X004412Y007400D02*
X004647Y007400D01*
X004700Y007347D02*
X004700Y007347D01*
X004900Y007600D02*
X004900Y008080D01*
X004900Y008400D02*
X004500Y008400D01*
X004300Y008200D01*
X004300Y007700D01*
X004593Y007830D02*
X004620Y007764D01*
X004620Y007760D01*
X004629Y007781D01*
X004677Y007830D01*
X004593Y007830D01*
X004600Y007830D02*
X004600Y007812D01*
X004605Y007800D02*
X004647Y007800D01*
X004500Y007953D02*
X004500Y008117D01*
X004500Y008117D01*
X004500Y007953D01*
X004500Y007953D01*
X004500Y008000D02*
X004500Y008000D01*
X004500Y008100D02*
X004500Y008100D01*
X005153Y007800D02*
X005700Y007800D01*
X005700Y007700D02*
X005205Y007700D01*
X005200Y007712D02*
X005200Y007830D01*
X005282Y007900D02*
X005700Y007900D01*
X005700Y008000D02*
X005300Y008000D01*
X005300Y008100D02*
X005700Y008100D01*
X005700Y008200D02*
X005300Y008200D01*
X005300Y008300D02*
X005700Y008300D01*
X005700Y008400D02*
X005300Y008400D01*
X005300Y008500D02*
X005700Y008500D01*
X005700Y008600D02*
X005269Y008600D01*
X005270Y008700D02*
X005700Y008700D01*
X005700Y008780D02*
X005700Y007347D01*
X005295Y007347D01*
X005207Y007259D01*
X005207Y007200D02*
X005193Y007200D01*
X005193Y007100D02*
X005207Y007100D01*
X005300Y007347D02*
X005300Y009300D01*
X005400Y009300D02*
X005400Y009212D01*
X005395Y009200D02*
X004385Y009200D01*
X004385Y009100D02*
X005380Y009100D01*
X005380Y009164D02*
X005380Y009036D01*
X005429Y008919D01*
X005519Y008829D01*
X005636Y008780D01*
X005700Y008780D01*
X005600Y008795D02*
X005600Y007347D01*
X005500Y007347D02*
X005500Y008847D01*
X005447Y008900D02*
X005240Y008900D01*
X005200Y008930D02*
X005200Y009300D01*
X005100Y009300D02*
X005100Y008940D01*
X005000Y008940D02*
X005000Y009300D01*
X004817Y009300D02*
X005447Y009300D01*
X005429Y009281D01*
X005380Y009164D01*
X005395Y009000D02*
X004385Y009000D01*
X004700Y008940D02*
X004700Y009417D01*
X004717Y009400D02*
X004422Y009400D01*
X004422Y009500D02*
X004617Y009500D01*
X004600Y009517D02*
X004717Y009400D01*
X004817Y009300D01*
X004800Y009317D02*
X004800Y008940D01*
X004900Y008900D02*
X004900Y008900D01*
X004900Y008800D02*
X004900Y008800D01*
X004900Y008720D02*
X004530Y008720D01*
X004530Y008604D01*
X004531Y008600D01*
X004530Y008700D02*
X004422Y008700D01*
X004422Y008800D02*
X004530Y008800D01*
X004600Y008720D02*
X004600Y008720D01*
X004700Y008720D02*
X004700Y008720D01*
X004800Y008720D02*
X004800Y008720D01*
X005000Y008720D02*
X005000Y008720D01*
X005100Y008720D02*
X005100Y008720D01*
X005200Y008720D02*
X005200Y008720D01*
X005270Y008800D02*
X005588Y008800D01*
X005400Y008988D02*
X005400Y007347D01*
X005220Y007600D02*
X005700Y007600D01*
X006100Y007200D02*
X006100Y009200D01*
X006483Y009400D02*
X006880Y009400D01*
X006895Y009500D02*
X006383Y009500D01*
X006400Y009483D02*
X006400Y010293D01*
X006393Y010300D02*
X006207Y010300D01*
X006300Y010393D02*
X006593Y010100D01*
X006600Y010100D02*
X006600Y008105D01*
X006612Y008100D02*
X006747Y008100D01*
X006700Y008053D02*
X006700Y008188D01*
X007220Y007397D02*
X007325Y007292D01*
X007291Y007292D01*
X007220Y007363D01*
X007220Y007397D01*
X007300Y007317D02*
X007300Y007292D01*
X007283Y007300D02*
X007317Y007300D01*
X007632Y006895D02*
X008082Y006895D01*
X007857Y006895D02*
X006405Y006895D01*
X006100Y007200D01*
X005900Y007100D02*
X006300Y006700D01*
X007855Y006700D01*
X007857Y006698D01*
X007632Y006698D02*
X008082Y006698D01*
X008082Y006502D02*
X007632Y006502D01*
X007632Y005911D02*
X008082Y005911D01*
X007857Y005911D02*
X007857Y005728D01*
X007415Y005200D01*
X007722Y005200D02*
X008102Y005200D01*
X008100Y005202D02*
X008100Y004783D01*
X008408Y004808D02*
X008000Y004400D01*
X007615Y004400D01*
X008000Y004200D02*
X008000Y002100D01*
X008007Y002100D02*
X007593Y002100D01*
X007300Y001807D01*
X007300Y003388D01*
X007305Y003400D02*
X010571Y003400D01*
X010571Y003386D02*
X010283Y003386D01*
X010283Y003242D01*
X010291Y003211D01*
X010307Y003184D01*
X010329Y003161D01*
X010357Y003146D01*
X010387Y003137D01*
X010571Y003137D01*
X010571Y003386D01*
X010600Y003386D02*
X010600Y003093D01*
X010500Y003093D02*
X010500Y003137D01*
X010571Y003200D02*
X010629Y003200D01*
X010700Y003137D02*
X010700Y003093D01*
X010800Y003093D02*
X010800Y003137D01*
X010881Y003100D02*
X004385Y003100D01*
X004385Y003000D02*
X010253Y003000D01*
X010300Y003052D02*
X010300Y003196D01*
X010298Y003200D02*
X007112Y003200D01*
X007100Y003195D02*
X007100Y002007D01*
X007107Y002000D02*
X007493Y002000D01*
X007500Y002007D02*
X007500Y004053D01*
X007400Y004053D02*
X007400Y001907D01*
X007393Y001900D02*
X007207Y001900D01*
X007200Y001907D02*
X007200Y003247D01*
X007253Y003300D02*
X010283Y003300D01*
X010300Y003386D02*
X010300Y003444D01*
X010283Y003500D02*
X007320Y003500D01*
X007305Y003600D02*
X010286Y003600D01*
X010300Y003634D02*
X010300Y003766D01*
X010283Y003812D02*
X010283Y003956D01*
X010571Y003956D01*
X010571Y004014D01*
X010283Y004014D01*
X010283Y004158D01*
X010291Y004189D01*
X010307Y004216D01*
X010329Y004239D01*
X010357Y004254D01*
X010387Y004263D01*
X010571Y004263D01*
X010571Y004014D01*
X010629Y004014D01*
X010629Y004263D01*
X010813Y004263D01*
X010843Y004254D01*
X010856Y004247D01*
X010856Y004307D01*
X010341Y004307D01*
X010253Y004395D01*
X010253Y004630D01*
X010183Y004630D01*
X010181Y004629D01*
X010064Y004580D01*
X009936Y004580D01*
X009819Y004629D01*
X009729Y004719D01*
X009680Y004836D01*
X009680Y004900D01*
X009417Y004900D01*
X008804Y004900D01*
X008805Y005000D02*
X009317Y005000D01*
X009300Y005017D02*
X009417Y004900D01*
X009400Y004917D02*
X009400Y001907D01*
X009393Y001900D02*
X009207Y001900D01*
X009200Y001907D02*
X009200Y005117D01*
X009217Y005100D02*
X008805Y005100D01*
X008805Y005086D02*
X008805Y005086D01*
X008900Y005147D02*
X008900Y004612D01*
X008905Y004600D02*
X009888Y004600D01*
X009900Y004595D02*
X009900Y002100D01*
X009800Y002100D02*
X009800Y004647D01*
X009747Y004700D02*
X008853Y004700D01*
X008803Y004800D02*
X009695Y004800D01*
X009700Y004788D02*
X009700Y002100D01*
X009600Y002100D02*
X009600Y004900D01*
X009500Y004900D02*
X009500Y002007D01*
X009493Y002000D02*
X009107Y002000D01*
X009100Y002007D02*
X009100Y005144D01*
X009000Y005131D02*
X009000Y002100D01*
X009007Y002100D02*
X008593Y002100D01*
X008300Y001807D01*
X008300Y004388D01*
X008295Y004400D02*
X008283Y004400D01*
X008200Y004317D02*
X008200Y001907D01*
X008207Y001900D02*
X008393Y001900D01*
X008400Y001907D02*
X008400Y004247D01*
X008347Y004300D02*
X008183Y004300D01*
X007900Y004119D02*
X007900Y002100D01*
X007800Y002100D02*
X007800Y004053D01*
X007881Y004100D02*
X010283Y004100D01*
X010300Y004014D02*
X010300Y003956D01*
X010283Y003900D02*
X005734Y003900D01*
X005700Y003886D02*
X005700Y003847D01*
X005600Y003847D02*
X005600Y003883D01*
X005544Y003900D02*
X005486Y003900D01*
X005486Y004000D02*
X005544Y004000D01*
X005544Y004100D02*
X005486Y004100D01*
X005400Y004171D02*
X005400Y004229D01*
X005486Y004300D02*
X005544Y004300D01*
X005600Y004229D02*
X005600Y004171D01*
X005700Y004171D02*
X005700Y004229D01*
X005792Y004400D02*
X006080Y004400D01*
X006400Y004720D02*
X006400Y005817D01*
X006383Y005800D02*
X007459Y005800D01*
X007431Y005900D02*
X006483Y005900D01*
X006500Y005908D02*
X006500Y004705D01*
X006512Y004700D02*
X006719Y004700D01*
X006700Y004681D02*
X006700Y004883D01*
X006756Y004900D02*
X006814Y004900D01*
X006814Y004883D02*
X006958Y004883D01*
X006989Y004891D01*
X007016Y004907D01*
X007039Y004929D01*
X007054Y004957D01*
X007063Y004987D01*
X007063Y005171D01*
X006814Y005171D01*
X006814Y004883D01*
X006900Y004883D02*
X006900Y004747D01*
X006800Y004747D02*
X006800Y005171D01*
X006814Y005200D02*
X007107Y005200D01*
X007107Y005100D02*
X007063Y005100D01*
X007000Y005171D02*
X007000Y005229D01*
X007063Y005300D02*
X007107Y005300D01*
X007107Y005400D02*
X007063Y005400D01*
X007004Y005500D02*
X007148Y005500D01*
X007200Y005547D02*
X007200Y005908D01*
X007300Y005908D02*
X007300Y005547D01*
X007400Y005547D02*
X007400Y005908D01*
X007100Y005908D02*
X007100Y004747D01*
X007000Y004747D02*
X007000Y004898D01*
X007004Y004900D02*
X007148Y004900D01*
X007200Y004853D02*
X007200Y004747D01*
X007252Y004700D02*
X007348Y004700D01*
X007400Y004747D02*
X007400Y004853D01*
X007500Y004853D02*
X007500Y004747D01*
X007600Y004747D02*
X007600Y004853D01*
X007300Y004853D02*
X007300Y003612D01*
X007253Y003700D02*
X010868Y003700D01*
X010800Y003692D02*
X010800Y003708D01*
X010700Y003708D02*
X010700Y003692D01*
X010629Y003600D02*
X010571Y003600D01*
X010571Y003500D02*
X010629Y003500D01*
X010600Y003444D02*
X010600Y003956D01*
X010571Y004000D02*
X005792Y004000D01*
X006093Y003700D02*
X006107Y003700D01*
X006093Y003600D02*
X006107Y003600D01*
X006093Y003500D02*
X006107Y003500D01*
X006093Y003400D02*
X006107Y003400D01*
X006093Y003300D02*
X006107Y003300D01*
X006500Y003153D02*
X006500Y002007D01*
X006493Y002000D02*
X006107Y002000D01*
X006300Y001807D02*
X006300Y001393D01*
X006300Y001100D01*
X006400Y001100D02*
X006400Y001293D01*
X006393Y001300D02*
X006207Y001300D01*
X006200Y001293D02*
X006200Y001100D01*
X006100Y001100D02*
X006100Y001193D01*
X006107Y001200D02*
X006493Y001200D01*
X006500Y001193D02*
X006500Y001100D01*
X006593Y001100D02*
X006300Y001393D01*
X006300Y001807D01*
X006593Y002100D01*
X007007Y002100D01*
X007300Y001807D01*
X007300Y001393D01*
X007300Y001100D01*
X007200Y001100D02*
X007200Y001293D01*
X007207Y001300D02*
X007393Y001300D01*
X007400Y001293D02*
X007400Y001100D01*
X007500Y001100D02*
X007500Y001193D01*
X007493Y001200D02*
X007107Y001200D01*
X007100Y001193D02*
X007100Y001100D01*
X007007Y001100D02*
X007300Y001393D01*
X007593Y001100D01*
X008007Y001100D02*
X008300Y001393D01*
X008300Y001100D01*
X008400Y001100D02*
X008400Y001293D01*
X008393Y001300D02*
X008207Y001300D01*
X008200Y001293D02*
X008200Y001100D01*
X008100Y001100D02*
X008100Y001193D01*
X008107Y001200D02*
X008493Y001200D01*
X008500Y001193D02*
X008500Y001100D01*
X008593Y001100D02*
X008300Y001393D01*
X008300Y001807D01*
X008007Y002100D01*
X007700Y002100D02*
X007700Y004053D01*
X007600Y004053D02*
X007600Y002100D01*
X007300Y001807D02*
X007300Y001393D01*
X007300Y001400D02*
X007300Y001400D01*
X007300Y001500D02*
X007300Y001500D01*
X007300Y001600D02*
X007300Y001600D01*
X007300Y001700D02*
X007300Y001700D01*
X007300Y001800D02*
X007300Y001800D01*
X007000Y002100D02*
X007000Y003180D01*
X006900Y003195D02*
X006900Y002100D01*
X006800Y002100D02*
X006800Y003230D01*
X006888Y003200D02*
X006681Y003200D01*
X006700Y003219D02*
X006700Y002100D01*
X006600Y002100D02*
X006600Y003153D01*
X007200Y003753D02*
X007200Y004053D01*
X007252Y004100D02*
X007348Y004100D01*
X007307Y004200D02*
X007293Y004200D01*
X007293Y004300D02*
X007307Y004300D01*
X007293Y004400D02*
X007307Y004400D01*
X007293Y004500D02*
X007307Y004500D01*
X007293Y004600D02*
X007307Y004600D01*
X007107Y005000D02*
X007063Y005000D01*
X006814Y005000D02*
X006756Y005000D01*
X006756Y005100D02*
X006814Y005100D01*
X006900Y005171D02*
X006900Y005229D01*
X006814Y005300D02*
X006756Y005300D01*
X006756Y005400D02*
X006814Y005400D01*
X007000Y005502D02*
X007000Y005908D01*
X007759Y005300D02*
X008043Y005300D01*
X008408Y005332D02*
X008408Y005782D01*
X008408Y005557D02*
X008408Y004808D01*
X008605Y005005D02*
X008600Y004500D01*
X008853Y004300D02*
X010856Y004300D01*
X010800Y004307D02*
X010800Y004263D01*
X010700Y004263D02*
X010700Y004307D01*
X010600Y004307D02*
X010600Y004014D01*
X010571Y004100D02*
X010629Y004100D01*
X010629Y004200D02*
X010571Y004200D01*
X010500Y004263D02*
X010500Y004307D01*
X010400Y004307D02*
X010400Y004263D01*
X010300Y004204D02*
X010300Y004348D01*
X010253Y004400D02*
X008905Y004400D01*
X008900Y004388D02*
X008900Y002100D01*
X008800Y002100D02*
X008800Y004247D01*
X008712Y004200D02*
X010298Y004200D01*
X010400Y004014D02*
X010400Y003956D01*
X010500Y003956D02*
X010500Y004014D01*
X010571Y003900D02*
X010629Y003900D01*
X010629Y003800D02*
X010571Y003800D01*
X010500Y003708D02*
X010500Y003692D01*
X010400Y003692D02*
X010400Y003708D01*
X010400Y003444D02*
X010400Y003386D01*
X010500Y003386D02*
X010500Y003444D01*
X010571Y003300D02*
X010629Y003300D01*
X010400Y003137D02*
X010400Y003093D01*
X010900Y003119D02*
X010900Y003196D01*
X010800Y002478D02*
X010800Y002100D01*
X010700Y002100D02*
X010700Y002478D01*
X010600Y002478D02*
X010600Y002100D01*
X010593Y002100D02*
X010300Y001807D01*
X010007Y002100D01*
X009593Y002100D01*
X009300Y001807D01*
X009007Y002100D01*
X008700Y002100D02*
X008700Y004195D01*
X008600Y004180D02*
X008600Y002100D01*
X008300Y001807D02*
X008300Y001393D01*
X008300Y001400D02*
X008300Y001400D01*
X008300Y001500D02*
X008300Y001500D01*
X008300Y001600D02*
X008300Y001600D01*
X008300Y001700D02*
X008300Y001700D01*
X008300Y001800D02*
X008300Y001800D01*
X009300Y001800D02*
X009300Y001800D01*
X009300Y001807D02*
X009300Y001393D01*
X009300Y001400D02*
X009300Y001400D01*
X009300Y001500D02*
X009300Y001500D01*
X009300Y001600D02*
X009300Y001600D01*
X009300Y001700D02*
X009300Y001700D01*
X010000Y002100D02*
X010000Y004580D01*
X010100Y004595D02*
X010100Y002007D01*
X010107Y002000D02*
X010493Y002000D01*
X010500Y002007D02*
X010500Y002478D01*
X010400Y002478D02*
X010400Y001907D01*
X010393Y001900D02*
X010207Y001900D01*
X010200Y001907D02*
X010200Y004630D01*
X010253Y004600D02*
X010112Y004600D01*
X010253Y004500D02*
X008920Y004500D01*
X008605Y005005D02*
X008605Y005557D01*
X008605Y005332D02*
X008605Y005782D01*
X008802Y005782D02*
X008802Y005332D01*
X008802Y005557D02*
X008802Y006502D01*
X008900Y006600D01*
X008998Y006698D01*
X008998Y007643D01*
X008998Y007868D02*
X008998Y007418D01*
X008998Y007643D02*
X008998Y008502D01*
X009100Y008700D01*
X009300Y008700D02*
X008783Y008700D01*
X008800Y008683D02*
X008800Y008988D01*
X008805Y009000D02*
X009300Y009000D01*
X009300Y008900D02*
X008753Y008900D01*
X008771Y008919D02*
X008820Y009036D01*
X008820Y009164D01*
X008771Y009281D01*
X008681Y009371D01*
X008564Y009420D01*
X008436Y009420D01*
X008319Y009371D01*
X008229Y009281D01*
X008180Y009164D01*
X008180Y009036D01*
X008204Y008979D01*
X008000Y009183D01*
X008000Y009447D01*
X008071Y009519D01*
X008120Y009636D01*
X008120Y009764D01*
X008105Y009800D01*
X009300Y009800D01*
X009300Y008583D01*
X009002Y008284D01*
X009002Y008481D01*
X008884Y008598D01*
X008700Y008783D01*
X008700Y008847D01*
X008771Y008919D01*
X008700Y008847D02*
X008700Y008783D01*
X008700Y008800D02*
X009300Y008800D01*
X009300Y008600D02*
X008883Y008600D01*
X008884Y008598D02*
X008884Y008598D01*
X008900Y008583D02*
X008900Y009800D01*
X009000Y009800D02*
X009000Y008483D01*
X008983Y008500D02*
X009217Y008500D01*
X009200Y008483D02*
X009200Y009800D01*
X009100Y009800D02*
X009100Y008383D01*
X009117Y008400D02*
X009002Y008400D01*
X009002Y008300D02*
X009017Y008300D01*
X009195Y008195D02*
X009500Y008500D01*
X009500Y009900D01*
X009400Y010000D01*
X007000Y010000D01*
X006800Y010200D01*
X006800Y010600D01*
X007300Y010600D02*
X007300Y010600D01*
X007300Y010700D02*
X007300Y010700D01*
X007300Y010800D02*
X007300Y010800D01*
X007300Y010807D02*
X007300Y011100D01*
X007200Y011100D02*
X007200Y010907D01*
X007207Y010900D02*
X007393Y010900D01*
X007400Y010907D02*
X007400Y011100D01*
X007500Y011100D02*
X007500Y011007D01*
X007493Y011000D02*
X007107Y011000D01*
X007100Y011007D02*
X007100Y011100D01*
X007007Y011100D02*
X006593Y011100D01*
X006600Y011100D02*
X006600Y011100D01*
X006700Y011100D02*
X006700Y011100D01*
X006800Y011100D02*
X006800Y011100D01*
X006900Y011100D02*
X006900Y011100D01*
X007000Y011100D02*
X007000Y011100D01*
X007007Y011100D02*
X007300Y010807D01*
X007300Y010393D01*
X007300Y010200D01*
X007200Y010200D02*
X007200Y010293D01*
X007207Y010300D02*
X007393Y010300D01*
X007400Y010293D02*
X007400Y010200D01*
X007493Y010200D02*
X007107Y010200D01*
X007300Y010393D01*
X007493Y010200D01*
X007107Y010200D01*
X007300Y010393D02*
X007300Y010807D01*
X007593Y011100D01*
X008007Y011100D01*
X008300Y010807D01*
X008300Y011100D01*
X008400Y011100D02*
X008400Y010907D01*
X008393Y010900D02*
X008207Y010900D01*
X008200Y010907D02*
X008200Y011100D01*
X008100Y011100D02*
X008100Y011007D01*
X008107Y011000D02*
X008493Y011000D01*
X008500Y011007D02*
X008500Y011100D01*
X008593Y011100D02*
X008300Y010807D01*
X008300Y010393D01*
X008300Y010200D01*
X008400Y010200D02*
X008400Y010293D01*
X008393Y010300D02*
X008207Y010300D01*
X008200Y010293D02*
X008200Y010200D01*
X008107Y010200D02*
X008493Y010200D01*
X008107Y010200D01*
X008300Y010393D01*
X008493Y010200D01*
X008300Y010393D02*
X008300Y010807D01*
X008300Y010800D02*
X008300Y010800D01*
X008300Y010700D02*
X008300Y010700D01*
X008300Y010600D02*
X008300Y010600D01*
X008300Y010500D02*
X008300Y010500D01*
X008300Y010400D02*
X008300Y010400D01*
X009107Y010200D02*
X009300Y010393D01*
X009300Y010200D01*
X009200Y010200D02*
X009200Y010293D01*
X009207Y010300D02*
X009393Y010300D01*
X009400Y010293D02*
X009400Y010200D01*
X009483Y010200D02*
X009107Y010200D01*
X009493Y010200D01*
X009500Y010193D02*
X009500Y010183D01*
X009483Y010200D02*
X009600Y010083D01*
X009600Y010100D01*
X009593Y010100D01*
X009583Y010100D01*
X009593Y010100D02*
X009300Y010393D01*
X009300Y010807D01*
X009300Y011100D01*
X009200Y011100D02*
X009200Y010907D01*
X009207Y010900D02*
X009393Y010900D01*
X009400Y010907D02*
X009400Y011100D01*
X009500Y011100D02*
X009500Y011007D01*
X009493Y011000D02*
X009107Y011000D01*
X009100Y011007D02*
X009100Y011100D01*
X009007Y011100D02*
X008593Y011100D01*
X008600Y011100D02*
X008600Y011100D01*
X008700Y011100D02*
X008700Y011100D01*
X008800Y011100D02*
X008800Y011100D01*
X008900Y011100D02*
X008900Y011100D01*
X009000Y011100D02*
X009000Y011100D01*
X009007Y011100D02*
X009300Y010807D01*
X009300Y010393D01*
X009300Y010400D02*
X009300Y010400D01*
X009300Y010500D02*
X009300Y010500D01*
X009300Y010600D02*
X009300Y010600D01*
X009300Y010700D02*
X009300Y010700D01*
X009300Y010800D02*
X009300Y010800D01*
X009300Y010807D02*
X009593Y011100D01*
X010007Y011100D01*
X010300Y010807D01*
X010300Y011100D01*
X010400Y011100D02*
X010400Y010907D01*
X010393Y010900D02*
X010207Y010900D01*
X010200Y010907D02*
X010200Y011100D01*
X010100Y011100D02*
X010100Y011007D01*
X010107Y011000D02*
X010493Y011000D01*
X010500Y011007D02*
X010500Y011100D01*
X010593Y011100D02*
X010300Y010807D01*
X010300Y010393D01*
X010300Y008547D01*
X010265Y008547D02*
X010189Y008470D01*
X010046Y008470D01*
X010000Y008451D01*
X010000Y010100D01*
X010007Y010100D01*
X010400Y010100D01*
X010400Y010200D02*
X010107Y010200D01*
X010100Y010193D02*
X010100Y008470D01*
X010200Y008481D02*
X010200Y010293D01*
X010207Y010300D02*
X010393Y010300D01*
X010400Y010293D02*
X010400Y009217D01*
X010400Y008547D01*
X010500Y008547D02*
X010500Y009117D01*
X010517Y009100D02*
X010000Y009100D01*
X010000Y009000D02*
X010617Y009000D01*
X011117Y009000D01*
X011400Y008717D01*
X011400Y007653D01*
X011381Y007671D01*
X011264Y007720D01*
X011163Y007720D01*
X011083Y007800D01*
X010420Y007800D01*
X011400Y007800D01*
X011400Y007700D02*
X011312Y007700D01*
X011300Y007705D02*
X011300Y007886D01*
X011288Y007883D02*
X011319Y007891D01*
X011346Y007907D01*
X011368Y007929D01*
X011384Y007957D01*
X011392Y007987D01*
X011392Y008171D01*
X011144Y008171D01*
X011144Y008229D01*
X011086Y008229D01*
X011086Y008517D01*
X010942Y008517D01*
X010911Y008509D01*
X010884Y008493D01*
X010861Y008471D01*
X010846Y008443D01*
X010837Y008413D01*
X010837Y008229D01*
X011086Y008229D01*
X011086Y008171D01*
X010837Y008171D01*
X010837Y007987D01*
X010846Y007957D01*
X010861Y007929D01*
X010884Y007907D01*
X010911Y007891D01*
X010942Y007883D01*
X011086Y007883D01*
X011086Y008171D01*
X011144Y008171D01*
X011144Y007883D01*
X011288Y007883D01*
X011334Y007900D02*
X011400Y007900D01*
X011392Y008000D02*
X011400Y008000D01*
X011392Y008100D02*
X011400Y008100D01*
X011400Y008200D02*
X011144Y008200D01*
X011144Y008229D02*
X011392Y008229D01*
X011392Y008413D01*
X011384Y008443D01*
X011368Y008471D01*
X011346Y008493D01*
X011319Y008509D01*
X011288Y008517D01*
X011144Y008517D01*
X011144Y008229D01*
X011100Y008229D02*
X011100Y009000D01*
X011000Y009000D02*
X011000Y008517D01*
X011086Y008500D02*
X011144Y008500D01*
X011200Y008517D02*
X011200Y008917D01*
X011217Y008900D02*
X010000Y008900D01*
X010000Y008800D02*
X011317Y008800D01*
X011300Y008817D02*
X011300Y008514D01*
X011334Y008500D02*
X011400Y008500D01*
X011392Y008400D02*
X011400Y008400D01*
X011392Y008300D02*
X011400Y008300D01*
X011300Y008229D02*
X011300Y008171D01*
X011200Y008171D02*
X011200Y008229D01*
X011144Y008300D02*
X011086Y008300D01*
X011086Y008200D02*
X010793Y008200D01*
X010793Y008300D02*
X010837Y008300D01*
X010900Y008229D02*
X010900Y008171D01*
X010837Y008100D02*
X010793Y008100D01*
X010793Y008000D02*
X010837Y008000D01*
X010793Y007941D02*
X010793Y008459D01*
X010705Y008547D01*
X010265Y008547D01*
X010219Y008500D02*
X010000Y008500D01*
X010000Y008451D02*
X010000Y010100D01*
X010007Y010100D02*
X010300Y010393D01*
X010400Y010293D01*
X010300Y010393D02*
X010300Y010807D01*
X010300Y010800D02*
X010300Y010800D01*
X010300Y010700D02*
X010300Y010700D01*
X010300Y010600D02*
X010300Y010600D01*
X010300Y010500D02*
X010300Y010500D01*
X010300Y010400D02*
X010300Y010400D01*
X010600Y010400D02*
X010800Y010600D01*
X010600Y010400D02*
X010600Y009300D01*
X010700Y009200D01*
X011200Y009200D01*
X011600Y008800D01*
X011600Y007200D01*
X011400Y007000D01*
X011000Y007000D01*
X010895Y006895D01*
X009943Y006895D01*
X010168Y006895D02*
X009718Y006895D01*
X009718Y006698D02*
X010168Y006698D01*
X009943Y006698D02*
X011598Y006698D01*
X011800Y006900D01*
X011800Y009500D01*
X011300Y010100D01*
X011620Y010100D02*
X011620Y010036D01*
X011618Y010031D01*
X011800Y009812D01*
X011800Y010083D01*
X011800Y010100D01*
X011817Y010100D02*
X011800Y010083D01*
X011817Y010100D02*
X011620Y010100D01*
X011700Y010100D02*
X011700Y009932D01*
X011727Y009900D02*
X011800Y009900D01*
X011800Y010000D02*
X011644Y010000D01*
X012000Y010000D02*
X012000Y006600D01*
X011900Y006500D01*
X011898Y006502D01*
X009943Y006502D01*
X010168Y006502D02*
X009718Y006502D01*
X009718Y006305D02*
X010168Y006305D01*
X009943Y006305D02*
X012295Y006305D01*
X012700Y005900D01*
X012996Y006021D02*
X013300Y005717D01*
X013300Y005117D01*
X013300Y004583D01*
X013283Y004600D02*
X013800Y004600D01*
X013800Y004617D02*
X013800Y004217D01*
X013800Y004205D01*
X013800Y004217D02*
X013821Y004196D01*
X013764Y004220D01*
X013663Y004220D01*
X013183Y004700D01*
X012883Y004700D01*
X012800Y004783D01*
X012800Y004983D01*
X012683Y005100D01*
X012500Y005283D01*
X012500Y005647D01*
X012500Y005283D01*
X012500Y005300D02*
X013300Y005300D01*
X013300Y005400D02*
X012500Y005400D01*
X012500Y005500D02*
X013300Y005500D01*
X013300Y005600D02*
X012812Y005600D01*
X012800Y005595D02*
X012800Y004783D01*
X012800Y004800D02*
X013617Y004800D01*
X013600Y004817D02*
X013600Y004283D01*
X013583Y004300D02*
X013800Y004300D01*
X013800Y004400D02*
X013483Y004400D01*
X013500Y004383D02*
X013500Y004917D01*
X013517Y004900D02*
X012800Y004900D01*
X012783Y005000D02*
X013417Y005000D01*
X013800Y004617D01*
X013800Y004500D02*
X013383Y004500D01*
X013400Y004483D02*
X013400Y005017D01*
X013417Y005000D02*
X013300Y005117D01*
X013317Y005100D02*
X012683Y005100D01*
X012700Y005083D02*
X012700Y005580D01*
X012764Y005580D02*
X012881Y005629D01*
X012971Y005719D01*
X013020Y005836D01*
X013020Y005964D01*
X012996Y006021D01*
X013000Y006017D02*
X013000Y006012D01*
X013005Y006000D02*
X013017Y006000D01*
X013020Y005900D02*
X013117Y005900D01*
X013100Y005917D02*
X013100Y004700D01*
X013000Y004700D02*
X013000Y005788D01*
X013005Y005800D02*
X013217Y005800D01*
X013200Y005817D02*
X013200Y004683D01*
X012900Y004700D02*
X012900Y005647D01*
X012953Y005700D02*
X013300Y005700D01*
X013500Y005800D02*
X013000Y006300D01*
X013000Y008500D01*
X012800Y009100D01*
X013100Y009100D02*
X013100Y009300D01*
X013000Y009400D01*
X012800Y009400D01*
X012500Y009700D01*
X012200Y009588D02*
X012229Y009519D01*
X012319Y009429D01*
X012340Y009420D01*
X012236Y009420D01*
X012200Y009405D01*
X012200Y009588D01*
X012200Y009405D01*
X012200Y009500D02*
X012247Y009500D01*
X012300Y009447D02*
X012300Y009420D01*
X012460Y009380D02*
X012537Y009380D01*
X012582Y009335D01*
X012550Y009303D01*
X012481Y009371D01*
X012460Y009380D01*
X012500Y009380D02*
X012500Y009353D01*
X012300Y009100D02*
X012300Y008600D01*
X012600Y008300D01*
X012600Y006500D01*
X012280Y006505D02*
X012188Y006505D01*
X012200Y006517D01*
X012200Y008417D01*
X012200Y006505D01*
X012280Y006505D02*
X012280Y006564D01*
X012329Y006681D01*
X012400Y006753D01*
X012400Y008217D01*
X012200Y008417D01*
X012200Y008400D02*
X012217Y008400D01*
X012200Y008300D02*
X012317Y008300D01*
X012300Y008317D02*
X012300Y006612D01*
X012295Y006600D02*
X012200Y006600D01*
X012200Y006700D02*
X012347Y006700D01*
X012400Y006800D02*
X012200Y006800D01*
X012200Y006900D02*
X012400Y006900D01*
X012400Y007000D02*
X012200Y007000D01*
X012200Y007100D02*
X012400Y007100D01*
X012400Y007200D02*
X012200Y007200D01*
X012200Y007300D02*
X012400Y007300D01*
X012400Y007400D02*
X012200Y007400D01*
X012200Y007500D02*
X012400Y007500D01*
X012400Y007600D02*
X012200Y007600D01*
X012200Y007700D02*
X012400Y007700D01*
X012400Y007800D02*
X012200Y007800D01*
X012200Y007900D02*
X012400Y007900D01*
X012400Y008000D02*
X012200Y008000D01*
X012200Y008100D02*
X012400Y008100D01*
X012400Y008200D02*
X012200Y008200D01*
X012683Y008500D02*
X012789Y008500D01*
X012800Y008468D02*
X012800Y006753D01*
X012800Y008383D01*
X012500Y008683D01*
X012500Y008847D01*
X012550Y008897D01*
X012619Y008829D01*
X012689Y008799D01*
X012800Y008468D01*
X012800Y008400D02*
X012783Y008400D01*
X012800Y008300D02*
X012800Y008300D01*
X012800Y008200D02*
X012800Y008200D01*
X012800Y008100D02*
X012800Y008100D01*
X012800Y008000D02*
X012800Y008000D01*
X012800Y007900D02*
X012800Y007900D01*
X012800Y007800D02*
X012800Y007800D01*
X012800Y007700D02*
X012800Y007700D01*
X012800Y007600D02*
X012800Y007600D01*
X012800Y007500D02*
X012800Y007500D01*
X012800Y007400D02*
X012800Y007400D01*
X012800Y007300D02*
X012800Y007300D01*
X012800Y007200D02*
X012800Y007200D01*
X012800Y007100D02*
X012800Y007100D01*
X012800Y007000D02*
X012800Y007000D01*
X012800Y006900D02*
X012800Y006900D01*
X012800Y006800D02*
X012800Y006800D01*
X012800Y006753D02*
X012800Y006753D01*
X013200Y006753D02*
X013200Y008453D01*
X013200Y006753D01*
X013200Y006753D01*
X013200Y006800D02*
X013200Y006800D01*
X013200Y006900D02*
X013200Y006900D01*
X013200Y007000D02*
X013200Y007000D01*
X013200Y007100D02*
X013200Y007100D01*
X013200Y007200D02*
X013200Y007200D01*
X013200Y007300D02*
X013200Y007300D01*
X013200Y007400D02*
X013200Y007400D01*
X013200Y007500D02*
X013200Y007500D01*
X013200Y007600D02*
X013200Y007600D01*
X013200Y007700D02*
X013200Y007700D01*
X013200Y007800D02*
X013200Y007800D01*
X013200Y007900D02*
X013200Y007900D01*
X013200Y008000D02*
X013200Y008000D01*
X013200Y008100D02*
X013200Y008100D01*
X013200Y008200D02*
X013200Y008200D01*
X013200Y008300D02*
X013200Y008300D01*
X013200Y008400D02*
X013200Y008400D01*
X013200Y008453D02*
X013200Y008453D01*
X013200Y008532D02*
X013200Y008532D01*
X013200Y008717D01*
X013108Y008810D01*
X013175Y008608D01*
X013200Y008583D01*
X013200Y008532D01*
X013200Y008600D02*
X013183Y008600D01*
X013200Y008700D02*
X013144Y008700D01*
X013117Y008800D02*
X013111Y008800D01*
X013400Y008800D02*
X013100Y009100D01*
X013387Y009096D02*
X013430Y009053D01*
X013430Y009096D01*
X013387Y009096D01*
X013400Y009096D02*
X013400Y009083D01*
X013400Y008800D02*
X013400Y006500D01*
X013653Y006300D02*
X013653Y006300D01*
X013653Y006301D02*
X013653Y006295D01*
X013741Y006207D01*
X014130Y006207D01*
X014130Y006163D01*
X014029Y006163D01*
X014029Y005914D01*
X013971Y005914D01*
X013971Y005856D01*
X014029Y005856D01*
X014029Y005608D01*
X014130Y005608D01*
X014130Y004853D01*
X013700Y005283D01*
X013700Y005666D01*
X013700Y005283D01*
X013700Y005300D02*
X014130Y005300D01*
X014130Y005400D02*
X013700Y005400D01*
X013700Y005500D02*
X014130Y005500D01*
X014130Y005600D02*
X013700Y005600D01*
X013729Y005632D02*
X013757Y005616D01*
X013787Y005608D01*
X013971Y005608D01*
X013971Y005856D01*
X013700Y005856D01*
X013700Y005914D01*
X013683Y005914D02*
X013971Y005914D01*
X013971Y006163D01*
X013787Y006163D01*
X013757Y006154D01*
X013729Y006139D01*
X013707Y006116D01*
X013691Y006089D01*
X013683Y006058D01*
X013683Y005914D01*
X013683Y005900D02*
X013971Y005900D01*
X014000Y005914D02*
X014000Y006207D01*
X014100Y006207D02*
X014100Y006163D01*
X014130Y006200D02*
X013512Y006200D01*
X013500Y006195D02*
X013500Y006083D01*
X013483Y006100D02*
X013698Y006100D01*
X013700Y006104D02*
X013700Y006248D01*
X013653Y006301D02*
X013581Y006229D01*
X013464Y006180D01*
X013403Y006180D01*
X013700Y005883D01*
X013700Y005856D01*
X013800Y005856D02*
X013800Y005914D01*
X013900Y005914D02*
X013900Y005856D01*
X013971Y005800D02*
X014029Y005800D01*
X014000Y005856D02*
X014000Y004983D01*
X013983Y005000D02*
X014130Y005000D01*
X014130Y004900D02*
X014083Y004900D01*
X014100Y004883D02*
X014100Y005608D01*
X014029Y005700D02*
X013971Y005700D01*
X013900Y005608D02*
X013900Y005083D01*
X013883Y005100D02*
X014130Y005100D01*
X014130Y005200D02*
X013783Y005200D01*
X013800Y005183D02*
X013800Y005608D01*
X013729Y005632D02*
X013707Y005654D01*
X013700Y005666D01*
X013500Y005800D02*
X013500Y005200D01*
X014000Y004700D01*
X014000Y004300D01*
X014300Y004000D01*
X014300Y003800D01*
X014530Y004023D02*
X014500Y004053D01*
X014500Y004083D01*
X014403Y004180D01*
X014464Y004180D01*
X014530Y004207D01*
X014530Y004023D01*
X014500Y004053D02*
X014500Y004195D01*
X014512Y004200D02*
X014530Y004200D01*
X014530Y004100D02*
X014483Y004100D01*
X014032Y003985D02*
X013996Y004021D01*
X014020Y003964D01*
X014020Y003960D01*
X014029Y003981D01*
X014032Y003985D01*
X014017Y004000D02*
X014005Y004000D01*
X014000Y004012D02*
X014000Y004017D01*
X013700Y003900D02*
X013100Y004500D01*
X012800Y004500D01*
X012600Y004700D01*
X012600Y004900D01*
X012300Y005200D01*
X012300Y005800D01*
X011992Y006108D01*
X009943Y006108D01*
X010168Y006108D02*
X009718Y006108D01*
X009718Y005911D02*
X010168Y005911D01*
X010200Y005711D02*
X010200Y005647D01*
X010300Y005647D02*
X010300Y005711D01*
X010400Y005711D02*
X010400Y005647D01*
X010500Y005647D02*
X010500Y005711D01*
X010505Y005647D02*
X010065Y005647D01*
X009978Y005559D01*
X009978Y005220D01*
X009963Y005220D01*
X009883Y005300D01*
X009757Y005300D01*
X009978Y005300D01*
X009900Y005283D02*
X009900Y005711D01*
X009800Y005711D02*
X009800Y005300D01*
X009759Y005309D02*
X009759Y005557D01*
X009759Y005711D01*
X011606Y005711D01*
X011800Y005517D01*
X011800Y005017D01*
X011800Y004805D01*
X011788Y004800D02*
X011301Y004800D01*
X011300Y004800D02*
X011300Y005711D01*
X011400Y005711D02*
X011400Y004770D01*
X011335Y004770D02*
X011307Y004797D01*
X011190Y004846D01*
X011062Y004846D01*
X010947Y004798D01*
X010947Y004835D01*
X010859Y004922D01*
X010602Y004922D01*
X010620Y004965D01*
X010640Y005010D01*
X010640Y005014D01*
X010642Y005018D01*
X010642Y005068D01*
X010642Y005071D01*
X010646Y005057D01*
X010661Y005029D01*
X010684Y005007D01*
X010711Y004991D01*
X010742Y004983D01*
X010886Y004983D01*
X010886Y005271D01*
X010637Y005271D01*
X010637Y005135D01*
X010623Y005171D01*
X010593Y005251D01*
X010593Y005559D01*
X010505Y005647D01*
X010552Y005600D02*
X010696Y005600D01*
X010700Y005602D02*
X010700Y005711D01*
X010800Y005711D02*
X010800Y005617D01*
X010742Y005617D02*
X010711Y005609D01*
X010684Y005593D01*
X010661Y005571D01*
X010646Y005543D01*
X010637Y005513D01*
X010637Y005329D01*
X010886Y005329D01*
X010886Y005617D01*
X010742Y005617D01*
X010886Y005600D02*
X010944Y005600D01*
X010944Y005617D02*
X010944Y005329D01*
X010886Y005329D01*
X010886Y005271D01*
X010944Y005271D01*
X010944Y005329D01*
X011192Y005329D01*
X011192Y005513D01*
X011184Y005543D01*
X011168Y005571D01*
X011146Y005593D01*
X011119Y005609D01*
X011088Y005617D01*
X010944Y005617D01*
X011000Y005617D02*
X011000Y005711D01*
X010900Y005711D02*
X010900Y005329D01*
X010886Y005300D02*
X010593Y005300D01*
X010600Y005231D02*
X010600Y005711D01*
X010593Y005500D02*
X010637Y005500D01*
X010637Y005400D02*
X010593Y005400D01*
X010700Y005329D02*
X010700Y005271D01*
X010637Y005200D02*
X010612Y005200D01*
X010800Y005271D02*
X010800Y005329D01*
X010800Y005328D02*
X010915Y005300D01*
X010944Y005300D02*
X011800Y005300D01*
X011800Y005400D02*
X011192Y005400D01*
X011192Y005500D02*
X011800Y005500D01*
X011717Y005600D02*
X011134Y005600D01*
X011100Y005614D02*
X011100Y005711D01*
X011100Y005700D02*
X011400Y005400D01*
X011192Y005271D02*
X010944Y005271D01*
X010944Y004983D01*
X011088Y004983D01*
X011119Y004991D01*
X011146Y005007D01*
X011168Y005029D01*
X011184Y005057D01*
X011192Y005087D01*
X011192Y005271D01*
X011192Y005200D02*
X011800Y005200D01*
X011800Y005100D02*
X011192Y005100D01*
X011134Y005000D02*
X011817Y005000D01*
X011800Y005017D02*
X012021Y004796D01*
X011964Y004820D01*
X011836Y004820D01*
X011719Y004771D01*
X011717Y004770D01*
X011335Y004770D01*
X011200Y004842D02*
X011200Y005711D01*
X011100Y005700D02*
X010000Y005700D01*
X009857Y005557D01*
X009589Y005557D01*
X009589Y005332D02*
X009589Y005782D01*
X009759Y005700D02*
X011617Y005700D01*
X011600Y005711D02*
X011600Y004770D01*
X011700Y004770D02*
X011700Y005617D01*
X011500Y005711D02*
X011500Y004770D01*
X011900Y004820D02*
X011900Y004917D01*
X011917Y004900D02*
X010881Y004900D01*
X010900Y004881D02*
X010900Y005271D01*
X010886Y005200D02*
X010944Y005200D01*
X011000Y005271D02*
X011000Y005329D01*
X010944Y005400D02*
X010886Y005400D01*
X010886Y005500D02*
X010944Y005500D01*
X011100Y005329D02*
X011100Y005271D01*
X010944Y005100D02*
X010886Y005100D01*
X010886Y005000D02*
X010944Y005000D01*
X011000Y004983D02*
X011000Y004820D01*
X010951Y004800D02*
X010947Y004800D01*
X011100Y004846D02*
X011100Y004986D01*
X010800Y004983D02*
X010800Y004922D01*
X010700Y004922D02*
X010700Y004998D01*
X010696Y005000D02*
X010635Y005000D01*
X010000Y004900D02*
X009800Y005100D01*
X009500Y005100D01*
X009392Y005208D01*
X009392Y005557D01*
X009392Y005332D02*
X009392Y005782D01*
X009195Y005782D02*
X009195Y005332D01*
X008998Y005332D02*
X008998Y005782D01*
X009592Y005557D02*
X009759Y005557D01*
X009592Y005557D01*
X009592Y005557D01*
X009600Y005557D02*
X009600Y005557D01*
X009700Y005557D02*
X009700Y005557D01*
X009759Y005600D02*
X010019Y005600D01*
X010000Y005581D02*
X010000Y005711D01*
X010100Y005711D02*
X010100Y005647D01*
X009978Y005500D02*
X009759Y005500D01*
X009759Y005400D02*
X009978Y005400D01*
X009759Y005309D02*
X009757Y005300D01*
X009943Y005911D02*
X011689Y005911D01*
X012000Y005600D01*
X012000Y005100D01*
X012400Y004700D01*
X012400Y004400D01*
X012900Y004100D01*
X013220Y004097D02*
X013380Y003937D01*
X013380Y003836D01*
X013429Y003719D01*
X013519Y003629D01*
X013636Y003580D01*
X013764Y003580D01*
X013881Y003629D01*
X013971Y003719D01*
X013980Y003740D01*
X013980Y003736D01*
X014029Y003619D01*
X014077Y003570D01*
X013100Y003570D01*
X013100Y003847D01*
X013081Y003829D02*
X013171Y003919D01*
X013220Y004036D01*
X013220Y004097D01*
X013205Y004000D02*
X013317Y004000D01*
X013300Y004017D02*
X013300Y003570D01*
X013400Y003570D02*
X013400Y003788D01*
X013395Y003800D02*
X013082Y003800D01*
X013100Y003782D02*
X013062Y003821D01*
X013081Y003829D01*
X013100Y003782D02*
X013100Y003570D01*
X013100Y003600D02*
X013588Y003600D01*
X013600Y003595D02*
X013600Y003570D01*
X013500Y003570D02*
X013500Y003647D01*
X013447Y003700D02*
X013100Y003700D01*
X013200Y003570D02*
X013200Y003988D01*
X013153Y003900D02*
X013380Y003900D01*
X013700Y003580D02*
X013700Y003570D01*
X013800Y003570D02*
X013800Y003595D01*
X013812Y003600D02*
X014047Y003600D01*
X014000Y003570D02*
X014000Y003688D01*
X013995Y003700D02*
X013953Y003700D01*
X013900Y003647D02*
X013900Y003570D01*
X013900Y003030D02*
X013900Y003004D01*
X014000Y003004D02*
X014000Y003030D01*
X014030Y003000D02*
X015493Y003000D01*
X015500Y003007D02*
X015500Y003193D01*
X015493Y003200D02*
X015051Y003200D01*
X015000Y003118D02*
X015000Y002974D01*
X014900Y002974D02*
X014900Y003049D01*
X014982Y003100D02*
X015593Y003100D01*
X016007Y003100D01*
X016300Y003393D01*
X016300Y003807D01*
X016007Y004100D01*
X016017Y004100D01*
X016012Y004105D02*
X016100Y004017D01*
X016100Y004007D01*
X016107Y004000D02*
X016117Y004000D01*
X016100Y004017D02*
X016217Y003900D01*
X016207Y003900D01*
X016200Y003907D02*
X016200Y003917D01*
X016217Y003900D02*
X016311Y003900D01*
X016311Y003292D01*
X016399Y003204D01*
X017704Y003204D01*
X017600Y003204D02*
X017600Y002966D01*
X017500Y002966D02*
X017500Y003204D01*
X017400Y003204D02*
X017400Y002966D01*
X017300Y002966D02*
X017300Y003204D01*
X017200Y003204D02*
X017200Y002966D01*
X017102Y002900D02*
X017002Y002900D01*
X017000Y002966D02*
X017000Y003204D01*
X017100Y003204D02*
X017100Y002650D01*
X017102Y002700D02*
X017002Y002700D01*
X017000Y002650D02*
X017000Y002550D01*
X017002Y002550D02*
X016341Y002550D01*
X016341Y002338D01*
X016349Y002308D01*
X016365Y002280D01*
X016387Y002258D01*
X016415Y002242D01*
X016445Y002234D01*
X017002Y002234D01*
X017002Y002550D01*
X017002Y002600D02*
X016300Y002600D01*
X016300Y002500D02*
X016341Y002500D01*
X016400Y002550D02*
X016400Y002650D01*
X016341Y002700D02*
X016300Y002700D01*
X016300Y002800D02*
X016341Y002800D01*
X016354Y002900D02*
X016207Y002900D01*
X016200Y002907D02*
X016200Y003293D01*
X016207Y003300D02*
X016311Y003300D01*
X016300Y003400D02*
X016311Y003400D01*
X016300Y003500D02*
X016311Y003500D01*
X016300Y003600D02*
X016311Y003600D01*
X016300Y003700D02*
X016311Y003700D01*
X016300Y003800D02*
X016311Y003800D01*
X016300Y003900D02*
X016300Y001100D01*
X016400Y001100D02*
X016400Y002251D01*
X016354Y002300D02*
X016207Y002300D01*
X016200Y002293D02*
X016200Y001100D01*
X016100Y001100D02*
X016100Y002193D01*
X016107Y002200D02*
X018362Y002200D01*
X018400Y002216D02*
X018400Y002317D01*
X018412Y002300D02*
X017750Y002300D01*
X017762Y002400D02*
X018352Y002400D01*
X018500Y002550D02*
X018500Y002650D01*
X018600Y002650D02*
X018600Y002550D01*
X018700Y002550D02*
X018700Y002650D01*
X018750Y002600D02*
X017102Y002600D01*
X017102Y002500D02*
X017002Y002500D01*
X017002Y002400D02*
X017102Y002400D01*
X017102Y002300D02*
X017002Y002300D01*
X017000Y002234D02*
X017000Y001314D01*
X016981Y001300D02*
X015165Y001300D01*
X015200Y001335D02*
X015200Y001100D01*
X015100Y001100D02*
X015100Y001235D01*
X015065Y001200D02*
X016881Y001200D01*
X016900Y001219D02*
X016900Y002234D01*
X016800Y002234D02*
X016800Y001100D01*
X016815Y001100D02*
X004300Y001100D01*
X006007Y001100D02*
X006300Y001393D01*
X006300Y001400D02*
X006300Y001400D01*
X006300Y001500D02*
X006300Y001500D01*
X006300Y001600D02*
X006300Y001600D01*
X006300Y001700D02*
X006300Y001700D01*
X006300Y001800D02*
X006300Y001800D01*
X005237Y004000D02*
X005193Y004000D01*
X005193Y004100D02*
X005237Y004100D01*
X005486Y004400D02*
X005544Y004400D01*
X005544Y004500D02*
X005486Y004500D01*
X005486Y004600D02*
X005544Y004600D01*
X005792Y004900D02*
X006566Y004900D01*
X006600Y004886D02*
X006600Y004670D01*
X006508Y005000D02*
X005792Y005000D01*
X004619Y005100D02*
X004300Y005100D01*
X004300Y005000D02*
X004578Y005000D01*
X004578Y005059D02*
X004578Y004775D01*
X004529Y004795D01*
X004300Y004795D01*
X004300Y005600D01*
X004300Y004795D01*
X004300Y004800D02*
X004578Y004800D01*
X004500Y004795D02*
X004500Y005600D01*
X004523Y005599D02*
X004536Y005578D01*
X004536Y005553D01*
X004578Y005511D01*
X004578Y005141D01*
X004619Y005100D01*
X004578Y005059D01*
X004600Y005081D02*
X004600Y005119D01*
X004578Y005200D02*
X004300Y005200D01*
X004300Y005300D02*
X004578Y005300D01*
X004578Y005400D02*
X004300Y005400D01*
X004300Y005500D02*
X004578Y005500D01*
X004523Y005599D02*
X004523Y005600D01*
X004300Y005600D01*
X004400Y005600D02*
X004400Y004795D01*
X004300Y004900D02*
X004578Y004900D01*
X004692Y005900D02*
X004736Y005944D01*
X004438Y006000D02*
X004438Y006085D01*
X004453Y006100D01*
X004300Y006100D01*
X004300Y006000D01*
X004438Y006000D01*
X004300Y006000D01*
X004300Y006100D01*
X004400Y006100D02*
X004400Y006000D01*
X003500Y006100D02*
X002422Y006100D01*
X002422Y006356D02*
X003256Y006356D01*
X003500Y006600D01*
X004300Y006600D02*
X004441Y006600D01*
X005464Y006300D02*
X005464Y006300D01*
X005464Y006100D02*
X005464Y006100D01*
X005900Y007100D02*
X005900Y008900D01*
X005700Y009100D01*
X006900Y009512D02*
X006900Y009817D01*
X007400Y009800D02*
X007400Y009653D01*
X007453Y009600D02*
X007495Y009600D01*
X007500Y009588D02*
X007500Y009512D01*
X007505Y009500D02*
X007547Y009500D01*
X008000Y009447D02*
X008000Y009183D01*
X008000Y009200D02*
X008195Y009200D01*
X008200Y009212D02*
X008200Y009800D01*
X008300Y009800D02*
X008300Y009353D01*
X008247Y009300D02*
X008000Y009300D01*
X008000Y009400D02*
X008388Y009400D01*
X008400Y009405D02*
X008400Y009800D01*
X008500Y009800D02*
X008500Y009420D01*
X008600Y009405D02*
X008600Y009800D01*
X008700Y009800D02*
X008700Y009353D01*
X008753Y009300D02*
X009300Y009300D01*
X009300Y009200D02*
X008805Y009200D01*
X008800Y009212D02*
X008800Y009800D01*
X009300Y009700D02*
X008120Y009700D01*
X008105Y009600D02*
X009300Y009600D01*
X009300Y009500D02*
X008053Y009500D01*
X008100Y009588D02*
X008100Y009083D01*
X008083Y009100D02*
X008180Y009100D01*
X008183Y009000D02*
X008195Y009000D01*
X008200Y008988D02*
X008200Y008983D01*
X008500Y009100D02*
X008500Y008700D01*
X008802Y008398D01*
X008802Y007643D01*
X008802Y007868D02*
X008802Y007418D01*
X008605Y007643D02*
X008605Y008295D01*
X007800Y009100D01*
X008612Y009400D02*
X009300Y009400D01*
X009300Y009100D02*
X008820Y009100D01*
X010000Y009200D02*
X010417Y009200D01*
X010400Y009217D02*
X010517Y009100D01*
X010617Y009000D01*
X010600Y009017D02*
X010600Y008547D01*
X010700Y008547D02*
X010700Y009000D01*
X010800Y009000D02*
X010800Y007800D01*
X010700Y007800D02*
X010700Y007853D01*
X010705Y007853D02*
X010793Y007941D01*
X010752Y007900D02*
X010896Y007900D01*
X010900Y007898D02*
X010900Y007800D01*
X011000Y007800D02*
X011000Y007883D01*
X011086Y007900D02*
X011144Y007900D01*
X011200Y007883D02*
X011200Y007720D01*
X011100Y007783D02*
X011100Y008171D01*
X011086Y008100D02*
X011144Y008100D01*
X011144Y008000D02*
X011086Y008000D01*
X011000Y008171D02*
X011000Y008229D01*
X011086Y008400D02*
X011144Y008400D01*
X010900Y008502D02*
X010900Y009000D01*
X011283Y009400D02*
X011400Y009283D01*
X011600Y009083D01*
X011600Y009428D01*
X011306Y009780D01*
X011236Y009780D01*
X011119Y009829D01*
X011029Y009919D01*
X010980Y010036D01*
X010980Y010100D01*
X010800Y010100D01*
X010800Y009400D01*
X011600Y009400D01*
X011600Y009300D02*
X011383Y009300D01*
X011400Y009283D02*
X011400Y009668D01*
X011373Y009700D02*
X010800Y009700D01*
X010800Y009600D02*
X011456Y009600D01*
X011500Y009548D02*
X011500Y009183D01*
X011483Y009200D02*
X011600Y009200D01*
X011600Y009100D02*
X011583Y009100D01*
X011300Y009383D02*
X011300Y009780D01*
X011200Y009795D02*
X011200Y009400D01*
X011283Y009400D02*
X010800Y009400D01*
X010800Y010100D01*
X010800Y010000D02*
X010995Y010000D01*
X011000Y009988D02*
X011000Y009400D01*
X010900Y009400D02*
X010900Y010100D01*
X010800Y009900D02*
X011047Y009900D01*
X011100Y009847D02*
X011100Y009400D01*
X010800Y009500D02*
X011540Y009500D01*
X011188Y009800D02*
X010800Y009800D01*
X010400Y009800D02*
X010000Y009800D01*
X010000Y009700D02*
X010400Y009700D01*
X010400Y009600D02*
X010000Y009600D01*
X010000Y009500D02*
X010400Y009500D01*
X010400Y009400D02*
X010000Y009400D01*
X010000Y009300D02*
X010400Y009300D01*
X010000Y008700D02*
X011400Y008700D01*
X011400Y008600D02*
X010000Y008600D01*
X009800Y008400D02*
X009800Y010600D01*
X009800Y011100D02*
X009800Y011100D01*
X009900Y011100D02*
X009900Y011100D01*
X010000Y011100D02*
X010000Y011100D01*
X009700Y011100D02*
X009700Y011100D01*
X009600Y011100D02*
X009600Y011100D01*
X010593Y011100D02*
X011007Y011100D01*
X011300Y010807D01*
X011300Y011100D01*
X011400Y011100D02*
X011400Y010907D01*
X011393Y010900D02*
X011207Y010900D01*
X011200Y010907D02*
X011200Y011100D01*
X011100Y011100D02*
X011100Y011007D01*
X011107Y011000D02*
X011493Y011000D01*
X011500Y011007D02*
X011500Y011100D01*
X011593Y011100D02*
X011300Y010807D01*
X011300Y010420D01*
X011300Y010420D01*
X011300Y010807D01*
X011300Y010800D02*
X011300Y010800D01*
X011300Y010700D02*
X011300Y010700D01*
X011300Y010600D02*
X011300Y010600D01*
X011300Y010500D02*
X011300Y010500D01*
X012000Y010000D02*
X012100Y010100D01*
X012300Y010100D01*
X012300Y010420D02*
X012300Y010807D01*
X012300Y011100D01*
X012200Y011100D02*
X012200Y010907D01*
X012207Y010900D02*
X012393Y010900D01*
X012400Y010907D02*
X012400Y011100D01*
X012500Y011100D02*
X012500Y011007D01*
X012493Y011000D02*
X012107Y011000D01*
X012100Y011007D02*
X012100Y011100D01*
X012007Y011100D02*
X011593Y011100D01*
X011600Y011100D02*
X011600Y011100D01*
X011700Y011100D02*
X011700Y011100D01*
X011800Y011100D02*
X011800Y011100D01*
X011900Y011100D02*
X011900Y011100D01*
X012000Y011100D02*
X012000Y011100D01*
X012007Y011100D02*
X012300Y010807D01*
X012300Y010420D01*
X012300Y010420D01*
X012300Y010500D02*
X012300Y010500D01*
X012300Y010600D02*
X012300Y010600D01*
X012300Y010700D02*
X012300Y010700D01*
X012300Y010800D02*
X012300Y010800D01*
X012300Y010807D02*
X012593Y011100D01*
X013007Y011100D01*
X013300Y010807D01*
X013300Y010393D01*
X013300Y010104D01*
X013272Y010104D02*
X013184Y010016D01*
X013184Y009499D01*
X013183Y009500D01*
X013083Y009600D01*
X012883Y009600D01*
X012820Y009663D01*
X012820Y009764D01*
X012771Y009881D01*
X012681Y009971D01*
X012606Y010002D01*
X012620Y010036D01*
X012620Y010100D01*
X013007Y010100D01*
X013267Y010100D01*
X013272Y010104D02*
X013490Y010104D01*
X013490Y010203D01*
X013300Y010393D01*
X013007Y010100D01*
X013000Y010100D02*
X013000Y009600D01*
X012900Y009600D02*
X012900Y010100D01*
X012800Y010100D02*
X012800Y009812D01*
X012805Y009800D02*
X013184Y009800D01*
X013184Y009700D02*
X012820Y009700D01*
X012883Y009600D02*
X013184Y009600D01*
X013100Y009583D02*
X013100Y010193D01*
X013107Y010200D02*
X013490Y010200D01*
X013400Y010293D02*
X013400Y010104D01*
X013393Y010300D02*
X013207Y010300D01*
X013200Y010293D02*
X013200Y010033D01*
X013184Y010000D02*
X012612Y010000D01*
X012700Y009953D02*
X012700Y010100D01*
X012753Y009900D02*
X013184Y009900D01*
X013183Y009500D02*
X013184Y009500D01*
X012600Y008847D02*
X012600Y008583D01*
X012583Y008600D02*
X012756Y008600D01*
X012723Y008700D02*
X012500Y008700D01*
X012500Y008683D02*
X012500Y008847D01*
X012500Y008800D02*
X012688Y008800D01*
X012700Y008768D02*
X012700Y008483D01*
X013600Y008500D02*
X013653Y008500D01*
X013653Y008535D02*
X013653Y008095D01*
X013741Y008007D01*
X014130Y008007D01*
X014130Y007993D01*
X013741Y007993D01*
X013653Y007905D01*
X013653Y007465D01*
X013741Y007378D01*
X013800Y007378D01*
X013800Y007353D01*
X013729Y007281D01*
X013680Y007164D01*
X013680Y007036D01*
X013729Y006919D01*
X013800Y006847D01*
X013800Y006822D01*
X013741Y006822D01*
X013653Y006735D01*
X013653Y006699D01*
X013600Y006753D01*
X013600Y008618D01*
X013600Y006753D01*
X013600Y006800D02*
X013719Y006800D01*
X013700Y006781D02*
X013700Y006988D01*
X013695Y007000D02*
X013600Y007000D01*
X013600Y006900D02*
X013747Y006900D01*
X013653Y006700D02*
X013653Y006700D01*
X014000Y006515D02*
X014000Y007100D01*
X014000Y007685D01*
X013653Y007700D02*
X013600Y007700D01*
X013600Y007800D02*
X013653Y007800D01*
X013653Y007900D02*
X013600Y007900D01*
X013600Y008000D02*
X014130Y008000D01*
X014100Y007993D02*
X014100Y008007D01*
X014000Y007993D02*
X014000Y008007D01*
X013900Y007993D02*
X013900Y008007D01*
X013800Y007993D02*
X013800Y008007D01*
X013700Y008048D02*
X013700Y007952D01*
X013653Y008100D02*
X013600Y008100D01*
X013600Y008200D02*
X013653Y008200D01*
X013653Y008300D02*
X013600Y008300D01*
X013600Y008400D02*
X013653Y008400D01*
X013653Y008535D02*
X013677Y008559D01*
X013647Y008571D01*
X013600Y008618D01*
X013600Y008600D02*
X013618Y008600D01*
X014000Y008315D02*
X014372Y008228D01*
X014400Y008200D01*
X014670Y008200D02*
X015493Y008200D01*
X015500Y008193D02*
X015500Y008007D01*
X015493Y008000D02*
X015053Y008000D01*
X015000Y008053D02*
X015000Y009126D01*
X014900Y009126D02*
X014900Y008105D01*
X014912Y008100D02*
X015593Y008100D01*
X015300Y007807D01*
X015300Y007800D02*
X015120Y007800D01*
X015105Y007700D02*
X015300Y007700D01*
X015300Y007600D02*
X015070Y007600D01*
X015100Y007688D02*
X015100Y005012D01*
X015105Y005000D02*
X015493Y005000D01*
X015500Y005007D02*
X015500Y005193D01*
X015493Y005200D02*
X015070Y005200D01*
X015070Y005100D02*
X015593Y005100D01*
X015300Y004807D01*
X015300Y004800D02*
X015105Y004800D01*
X015100Y004788D02*
X015100Y002969D01*
X015178Y002900D02*
X015393Y002900D01*
X015400Y002907D02*
X015400Y003293D01*
X015393Y003300D02*
X015070Y003300D01*
X015070Y003400D02*
X015300Y003400D01*
X015300Y003393D02*
X015593Y003100D01*
X015300Y002807D01*
X015300Y002800D02*
X015186Y002800D01*
X015186Y002700D02*
X015300Y002700D01*
X015300Y002600D02*
X015186Y002600D01*
X015100Y002550D02*
X015100Y002450D01*
X015186Y002400D02*
X015300Y002400D01*
X015300Y002393D02*
X015593Y002100D01*
X016007Y002100D01*
X016000Y002100D02*
X016000Y001100D01*
X015900Y001100D02*
X015900Y002100D01*
X015800Y002100D02*
X015800Y001100D01*
X015700Y001100D02*
X015700Y002100D01*
X015265Y001800D02*
X017611Y001800D01*
X017970Y001907D02*
X017970Y001907D01*
X018000Y001937D02*
X018000Y003290D01*
X018300Y003290D02*
X018300Y002174D01*
X018447Y001900D02*
X019300Y001900D01*
X019300Y001950D02*
X019300Y001100D01*
X018150Y001100D01*
X018150Y001460D01*
X018159Y001555D01*
X018233Y001732D01*
X018368Y001867D01*
X018545Y001941D01*
X018640Y001950D01*
X019300Y001950D01*
X019200Y001950D02*
X019200Y001100D01*
X019100Y001100D02*
X019100Y001950D01*
X019000Y001950D02*
X019000Y001100D01*
X018900Y001100D02*
X018900Y001950D01*
X018800Y001950D02*
X018800Y001100D01*
X018700Y001100D02*
X018700Y001950D01*
X018600Y001946D02*
X018600Y001100D01*
X018500Y001100D02*
X018500Y001922D01*
X018400Y001881D02*
X018400Y001100D01*
X018300Y001100D02*
X018300Y001799D01*
X018301Y001800D02*
X019300Y001800D01*
X019300Y001700D02*
X018219Y001700D01*
X018200Y001653D02*
X018200Y001100D01*
X018150Y001100D02*
X019300Y001100D01*
X019300Y001200D02*
X018150Y001200D01*
X018150Y001300D02*
X019300Y001300D01*
X019300Y001400D02*
X018150Y001400D01*
X018154Y001500D02*
X019300Y001500D01*
X019300Y001600D02*
X018178Y001600D01*
X017850Y001300D02*
X017619Y001300D01*
X017700Y001344D02*
X017700Y001219D01*
X017719Y001200D02*
X017850Y001200D01*
X017850Y001100D02*
X017785Y001100D01*
X017800Y001100D02*
X017800Y001325D01*
X016700Y001100D02*
X016700Y002234D01*
X016600Y002234D02*
X016600Y001100D01*
X016500Y001100D02*
X016500Y002234D01*
X016341Y002400D02*
X016300Y002400D01*
X016500Y002550D02*
X016500Y002650D01*
X016600Y002650D02*
X016600Y002550D01*
X016700Y002550D02*
X016700Y002650D01*
X016800Y002650D02*
X016800Y002550D01*
X016900Y002550D02*
X016900Y002650D01*
X017002Y002800D02*
X017102Y002800D01*
X016900Y002966D02*
X016900Y003204D01*
X016800Y003204D02*
X016800Y002966D01*
X016700Y002966D02*
X016700Y003204D01*
X016600Y003204D02*
X016600Y002966D01*
X016500Y002966D02*
X016500Y003204D01*
X016400Y003204D02*
X016400Y002949D01*
X016007Y003100D02*
X015593Y003100D01*
X015600Y003100D02*
X015600Y003100D01*
X015700Y003100D02*
X015700Y003100D01*
X015800Y003100D02*
X015800Y003100D01*
X015900Y003100D02*
X015900Y003100D01*
X016000Y003100D02*
X016000Y003100D01*
X015300Y003500D02*
X015070Y003500D01*
X015070Y003600D02*
X015300Y003600D01*
X015300Y003700D02*
X015070Y003700D01*
X015070Y003800D02*
X015300Y003800D01*
X015300Y003807D02*
X015593Y004100D01*
X015070Y004100D01*
X015070Y004000D02*
X015493Y004000D01*
X015500Y004007D02*
X015500Y004193D01*
X015493Y004200D02*
X015070Y004200D01*
X015070Y004300D02*
X015393Y004300D01*
X015400Y004293D02*
X015400Y003907D01*
X015393Y003900D02*
X015070Y003900D01*
X015300Y004393D02*
X015593Y004100D01*
X016007Y004100D01*
X016012Y004105D01*
X016007Y004100D02*
X015593Y004100D01*
X015600Y004100D02*
X015600Y004100D01*
X015700Y004100D02*
X015700Y004100D01*
X015800Y004100D02*
X015800Y004100D01*
X015900Y004100D02*
X015900Y004100D01*
X016000Y004100D02*
X016000Y004100D01*
X016100Y004017D02*
X016100Y004017D01*
X016300Y004100D02*
X016700Y004100D01*
X016300Y004100D02*
X015800Y004600D01*
X015300Y004600D02*
X015070Y004600D01*
X015070Y004500D02*
X015300Y004500D01*
X015300Y004400D02*
X015070Y004400D01*
X015070Y004700D02*
X015300Y004700D01*
X015393Y004900D02*
X015120Y004900D01*
X015400Y004907D02*
X015400Y005293D01*
X015393Y005300D02*
X015070Y005300D01*
X015070Y005400D02*
X015300Y005400D01*
X015300Y005393D02*
X015593Y005100D01*
X016007Y005100D01*
X016017Y005100D01*
X016012Y005105D02*
X016217Y004900D01*
X016207Y004900D01*
X016200Y004907D02*
X016200Y004917D01*
X016217Y004900D02*
X016311Y004900D01*
X016311Y004372D01*
X016295Y004388D01*
X016300Y004393D01*
X016300Y004807D01*
X016007Y005100D01*
X016012Y005105D01*
X016007Y005100D02*
X015593Y005100D01*
X015600Y005100D02*
X015600Y005100D01*
X015700Y005100D02*
X015700Y005100D01*
X015800Y005100D02*
X015800Y005100D01*
X015900Y005100D02*
X015900Y005100D01*
X016000Y005100D02*
X016000Y005100D01*
X016100Y005017D02*
X016100Y005007D01*
X016107Y005000D02*
X016117Y005000D01*
X016300Y004900D02*
X016300Y004383D01*
X016300Y004400D02*
X016311Y004400D01*
X016300Y004500D02*
X016311Y004500D01*
X016300Y004600D02*
X016311Y004600D01*
X016300Y004700D02*
X016311Y004700D01*
X016300Y004800D02*
X016311Y004800D01*
X016300Y005100D02*
X015800Y005600D01*
X015300Y005600D02*
X015070Y005600D01*
X015070Y005500D02*
X015300Y005500D01*
X015300Y005700D02*
X015070Y005700D01*
X015070Y005800D02*
X015300Y005800D01*
X015300Y005807D02*
X015593Y006100D01*
X015070Y006100D01*
X015070Y006000D02*
X015493Y006000D01*
X015500Y006007D02*
X015500Y006193D01*
X015493Y006200D02*
X015070Y006200D01*
X015070Y006300D02*
X015393Y006300D01*
X015400Y006293D02*
X015400Y005907D01*
X015393Y005900D02*
X015070Y005900D01*
X015300Y006393D02*
X015593Y006100D01*
X016007Y006100D01*
X016017Y006100D01*
X016012Y006105D02*
X016217Y005900D01*
X016207Y005900D01*
X016200Y005907D02*
X016200Y005917D01*
X016217Y005900D02*
X016311Y005900D01*
X016311Y005372D01*
X016295Y005388D01*
X016300Y005393D01*
X016300Y005807D01*
X016007Y006100D01*
X016012Y006105D01*
X016007Y006100D02*
X015593Y006100D01*
X015600Y006100D02*
X015600Y006100D01*
X015700Y006100D02*
X015700Y006100D01*
X015800Y006100D02*
X015800Y006100D01*
X015900Y006100D02*
X015900Y006100D01*
X016000Y006100D02*
X016000Y006100D01*
X016100Y006017D02*
X016100Y006007D01*
X016107Y006000D02*
X016117Y006000D01*
X016300Y005900D02*
X016300Y005383D01*
X016300Y005400D02*
X016311Y005400D01*
X016300Y005500D02*
X016311Y005500D01*
X016300Y005600D02*
X016311Y005600D01*
X016300Y005700D02*
X016311Y005700D01*
X016300Y005800D02*
X016311Y005800D01*
X016300Y006100D02*
X015800Y006600D01*
X015300Y006600D02*
X015070Y006600D01*
X015070Y006500D02*
X015300Y006500D01*
X015300Y006400D02*
X015070Y006400D01*
X015070Y006700D02*
X015300Y006700D01*
X015300Y006800D02*
X015070Y006800D01*
X015070Y006900D02*
X015393Y006900D01*
X015400Y006907D02*
X015400Y007293D01*
X015393Y007300D02*
X015070Y007300D01*
X015070Y007200D02*
X015493Y007200D01*
X015500Y007193D02*
X015500Y007007D01*
X015493Y007000D02*
X015070Y007000D01*
X015070Y007100D02*
X015593Y007100D01*
X015300Y006807D01*
X015593Y007100D02*
X016007Y007100D01*
X016280Y007100D01*
X016280Y007164D02*
X016280Y007036D01*
X016327Y006924D01*
X016311Y006908D01*
X016311Y006372D01*
X016295Y006388D01*
X016300Y006393D01*
X016300Y006807D01*
X016007Y007100D01*
X016300Y007393D01*
X016300Y007780D01*
X016300Y007212D01*
X016295Y007200D02*
X016107Y007200D01*
X016100Y007193D02*
X016100Y007007D01*
X016107Y007000D02*
X016295Y007000D01*
X016300Y006988D02*
X016300Y006383D01*
X016300Y006400D02*
X016311Y006400D01*
X016300Y006500D02*
X016311Y006500D01*
X016300Y006600D02*
X016311Y006600D01*
X016300Y006700D02*
X016311Y006700D01*
X016300Y006800D02*
X016311Y006800D01*
X016311Y006900D02*
X016207Y006900D01*
X016200Y006907D02*
X016200Y007293D01*
X016207Y007300D02*
X016311Y007300D01*
X016311Y007292D02*
X016327Y007276D01*
X016280Y007164D01*
X016311Y007292D02*
X016311Y007780D01*
X016300Y007780D01*
X016300Y007700D02*
X016311Y007700D01*
X016300Y007600D02*
X016311Y007600D01*
X016300Y007500D02*
X016311Y007500D01*
X016300Y007400D02*
X016311Y007400D01*
X016700Y007400D02*
X016800Y007600D01*
X017052Y007600D01*
X016700Y007400D02*
X016600Y007100D01*
X016007Y007100D02*
X015593Y007100D01*
X015300Y007393D01*
X015300Y007400D02*
X015070Y007400D01*
X015070Y007500D02*
X015300Y007500D01*
X015393Y007900D02*
X015105Y007900D01*
X015100Y007912D02*
X015100Y009131D01*
X014801Y009200D02*
X014701Y009200D01*
X014700Y009126D02*
X014700Y008105D01*
X014688Y008100D02*
X014670Y008100D01*
X014800Y008120D02*
X014800Y009550D01*
X014801Y009500D02*
X014701Y009500D01*
X014701Y009400D02*
X014801Y009400D01*
X014801Y009300D02*
X014701Y009300D01*
X014900Y009550D02*
X014900Y009650D01*
X015000Y009650D02*
X015000Y009550D01*
X015100Y009550D02*
X015100Y009650D01*
X015186Y009700D02*
X015330Y009700D01*
X015400Y009650D02*
X015400Y009550D01*
X015330Y009500D02*
X015186Y009500D01*
X015186Y009400D02*
X015335Y009400D01*
X015500Y009550D02*
X015500Y009650D01*
X015600Y009650D02*
X015600Y009550D01*
X015750Y009600D02*
X014801Y009600D01*
X014701Y009600D02*
X014114Y009600D01*
X014701Y009800D02*
X014801Y009800D01*
X014801Y009900D02*
X014701Y009900D01*
X014701Y010000D02*
X014801Y010000D01*
X014900Y010074D02*
X014900Y010130D01*
X014850Y010200D02*
X014750Y010200D01*
X014700Y010130D02*
X014700Y010074D01*
X014600Y010074D02*
X014600Y010135D01*
X014535Y010200D02*
X014110Y010200D01*
X014110Y010100D02*
X018163Y010100D01*
X018193Y010070D02*
X018193Y010070D01*
X018200Y010067D02*
X018200Y009910D01*
X018100Y009910D02*
X018100Y010163D01*
X018063Y010200D02*
X015065Y010200D01*
X015100Y010235D02*
X015100Y010069D01*
X015000Y010074D02*
X015000Y010135D01*
X014850Y010300D02*
X014750Y010300D01*
X014750Y010400D02*
X014850Y010400D01*
X014850Y010500D02*
X014750Y010500D01*
X014700Y010550D02*
X014700Y010650D01*
X014750Y010600D02*
X014300Y010600D01*
X014300Y010700D02*
X014330Y010700D01*
X014400Y010650D02*
X014400Y010550D01*
X014330Y010500D02*
X014300Y010500D01*
X014300Y010400D02*
X014335Y010400D01*
X014500Y010550D02*
X014500Y010650D01*
X014600Y010650D02*
X014600Y010550D01*
X014500Y010235D02*
X014500Y010074D01*
X015000Y010550D02*
X015000Y010650D01*
X015100Y010650D02*
X015100Y010550D01*
X015200Y010550D02*
X015200Y010650D01*
X015270Y010700D02*
X017544Y010700D01*
X017525Y010655D02*
X017567Y010756D01*
X017644Y010833D01*
X017745Y010875D01*
X017850Y010875D01*
X017850Y011100D01*
X017785Y011100D01*
X017761Y011042D01*
X017608Y010889D01*
X017408Y010806D01*
X017400Y010806D02*
X017400Y009996D01*
X017300Y009996D02*
X017300Y010806D01*
X017200Y010806D02*
X017200Y009996D01*
X017100Y009996D02*
X017100Y010844D01*
X017000Y010886D02*
X017000Y009996D01*
X016900Y009996D02*
X016900Y010981D01*
X016881Y011000D02*
X015065Y011000D01*
X015100Y010965D02*
X015100Y011100D01*
X015000Y011100D02*
X015000Y011065D01*
X015200Y011100D02*
X015200Y010865D01*
X015165Y010900D02*
X016981Y010900D01*
X016800Y011100D02*
X016800Y009996D01*
X016700Y009996D02*
X016700Y011100D01*
X016600Y011100D02*
X016600Y009996D01*
X016500Y009996D02*
X016500Y011100D01*
X016400Y011100D02*
X016400Y009996D01*
X016311Y009900D02*
X016165Y009900D01*
X016200Y009865D02*
X016200Y011100D01*
X016100Y011100D02*
X016100Y009965D01*
X016065Y010000D02*
X018280Y010000D01*
X018400Y010319D02*
X018400Y011100D01*
X018300Y011100D02*
X018300Y010401D01*
X018301Y010400D02*
X019300Y010400D01*
X019300Y010300D02*
X018447Y010300D01*
X018500Y010278D02*
X018500Y011100D01*
X018600Y011100D02*
X018600Y010254D01*
X018640Y010250D02*
X018545Y010259D01*
X018368Y010333D01*
X018233Y010468D01*
X018159Y010645D01*
X018150Y010740D01*
X018150Y011100D01*
X019300Y011100D01*
X019300Y010250D01*
X018640Y010250D01*
X018700Y010250D02*
X018700Y011100D01*
X018800Y011100D02*
X018800Y010250D01*
X018900Y010250D02*
X018900Y011100D01*
X019000Y011100D02*
X019000Y010250D01*
X019100Y010250D02*
X019100Y011100D01*
X019200Y011100D02*
X019200Y010250D01*
X019300Y010500D02*
X018219Y010500D01*
X018200Y010547D02*
X018200Y011100D01*
X018150Y011000D02*
X019300Y011000D01*
X019300Y010900D02*
X018150Y010900D01*
X018150Y010800D02*
X019300Y010800D01*
X019300Y010700D02*
X018154Y010700D01*
X018178Y010600D02*
X019300Y010600D01*
X017850Y010900D02*
X017619Y010900D01*
X017600Y010886D02*
X017600Y010789D01*
X017611Y010800D02*
X015265Y010800D01*
X015900Y011100D02*
X015900Y010070D01*
X015850Y010000D02*
X015750Y010000D01*
X015750Y009900D02*
X015850Y009900D01*
X015850Y009800D02*
X015750Y009800D01*
X015750Y009500D02*
X015850Y009500D01*
X015850Y009400D02*
X015750Y009400D01*
X015750Y009300D02*
X015850Y009300D01*
X015600Y009135D02*
X015600Y009100D01*
X015300Y008700D02*
X014651Y008700D01*
X014670Y008600D02*
X015300Y008600D01*
X015300Y008500D02*
X014670Y008500D01*
X014670Y008400D02*
X015300Y008400D01*
X015300Y008393D02*
X015593Y008100D01*
X015980Y008100D01*
X015980Y008100D01*
X015593Y008100D01*
X015600Y008100D02*
X015600Y008100D01*
X015700Y008100D02*
X015700Y008100D01*
X015800Y008100D02*
X015800Y008100D01*
X015900Y008100D02*
X015900Y008100D01*
X016300Y008100D02*
X016300Y009500D01*
X016400Y009600D01*
X017052Y009600D01*
X017021Y009204D02*
X016500Y009204D01*
X016500Y008996D01*
X016500Y009204D01*
X016500Y009200D02*
X017017Y009200D01*
X016900Y009083D01*
X016900Y009204D01*
X016800Y009204D02*
X016800Y008996D01*
X016900Y008996D02*
X016500Y008996D01*
X016500Y009000D02*
X016900Y009000D01*
X016900Y008996D02*
X016900Y009083D01*
X016917Y009100D02*
X016500Y009100D01*
X016600Y008996D02*
X016600Y009204D01*
X016700Y009204D02*
X016700Y008996D01*
X017000Y009183D02*
X017000Y009204D01*
X017017Y009200D02*
X017021Y009204D01*
X017200Y009100D02*
X017100Y009000D01*
X017100Y008648D01*
X017052Y008600D01*
X017100Y008204D02*
X017100Y007996D01*
X017000Y007996D02*
X017000Y008204D01*
X016900Y008204D02*
X016900Y007996D01*
X016800Y007996D02*
X016800Y008204D01*
X016700Y008204D02*
X016700Y007996D01*
X016620Y008036D02*
X016620Y008164D01*
X016603Y008204D01*
X017704Y008204D01*
X017790Y008290D01*
X018375Y008290D01*
X018505Y008159D01*
X018648Y008100D01*
X016620Y008100D01*
X016620Y008036D02*
X016603Y007996D01*
X017704Y007996D01*
X017790Y007910D01*
X018375Y007910D01*
X018505Y008041D01*
X018648Y008100D01*
X018600Y008080D02*
X018600Y008120D01*
X018500Y008165D02*
X018500Y008035D01*
X018465Y008000D02*
X016605Y008000D01*
X016605Y008200D02*
X018465Y008200D01*
X018400Y008265D02*
X018400Y007935D01*
X018300Y007910D02*
X018300Y008290D01*
X018200Y008290D02*
X018200Y007910D01*
X018100Y007910D02*
X018100Y008290D01*
X018000Y008290D02*
X018000Y007910D01*
X017900Y007910D02*
X017900Y008290D01*
X017800Y008290D02*
X017800Y007910D01*
X017700Y007996D02*
X017700Y008204D01*
X017600Y008204D02*
X017600Y007996D01*
X017500Y007996D02*
X017500Y008204D01*
X017400Y008204D02*
X017400Y007996D01*
X017300Y007996D02*
X017300Y008204D01*
X017200Y008204D02*
X017200Y007996D01*
X017403Y007204D02*
X017704Y007204D01*
X017790Y007290D01*
X018375Y007290D01*
X018505Y007159D01*
X018648Y007100D01*
X017425Y007100D01*
X017420Y007105D02*
X017420Y007164D01*
X017403Y007204D01*
X017405Y007200D02*
X018465Y007200D01*
X018500Y007165D02*
X018500Y007035D01*
X018505Y007041D02*
X018375Y006910D01*
X017790Y006910D01*
X017704Y006996D01*
X017482Y006996D01*
X017482Y007044D01*
X017420Y007105D01*
X017482Y007000D02*
X018465Y007000D01*
X018505Y007041D02*
X018648Y007100D01*
X018600Y007080D02*
X018600Y007120D01*
X018400Y007265D02*
X018400Y006935D01*
X018300Y006910D02*
X018300Y007290D01*
X018200Y007290D02*
X018200Y006910D01*
X018100Y006910D02*
X018100Y007290D01*
X018000Y007290D02*
X018000Y006910D01*
X017900Y006910D02*
X017900Y007290D01*
X017800Y007290D02*
X017800Y006910D01*
X017700Y006996D02*
X017700Y007204D01*
X017600Y007204D02*
X017600Y006996D01*
X017500Y006996D02*
X017500Y007204D01*
X018952Y007100D02*
X019300Y007100D01*
X019300Y007000D02*
X019135Y007000D01*
X019100Y007035D02*
X019100Y007165D01*
X019095Y007159D02*
X018952Y007100D01*
X019095Y007041D01*
X019241Y006895D01*
X019300Y006752D01*
X019300Y007448D01*
X019241Y007305D01*
X019095Y007159D01*
X019135Y007200D02*
X019300Y007200D01*
X019300Y007300D02*
X019235Y007300D01*
X019200Y007265D02*
X019200Y006935D01*
X019235Y006900D02*
X019300Y006900D01*
X019300Y006800D02*
X019280Y006800D01*
X019300Y006448D02*
X019300Y005752D01*
X019241Y005895D01*
X019095Y006041D01*
X018952Y006100D01*
X019300Y006100D01*
X019300Y006000D02*
X019135Y006000D01*
X019100Y006035D02*
X019100Y006165D01*
X019095Y006159D02*
X018952Y006100D01*
X019000Y006080D02*
X019000Y006120D01*
X019095Y006159D02*
X019241Y006305D01*
X019300Y006448D01*
X019300Y006400D02*
X019280Y006400D01*
X019300Y006300D02*
X019235Y006300D01*
X019200Y006265D02*
X019200Y005935D01*
X019235Y005900D02*
X019300Y005900D01*
X019300Y005800D02*
X019280Y005800D01*
X018800Y005600D02*
X018300Y006100D01*
X016300Y006100D01*
X017774Y005274D02*
X017790Y005290D01*
X018375Y005290D01*
X018505Y005159D01*
X018648Y005100D01*
X017820Y005100D01*
X017820Y005164D02*
X017774Y005274D01*
X017800Y005290D02*
X017800Y005212D01*
X017805Y005200D02*
X018465Y005200D01*
X018500Y005165D02*
X018500Y005035D01*
X018505Y005041D02*
X018375Y004910D01*
X017790Y004910D01*
X017774Y004926D01*
X017820Y005036D01*
X017820Y005164D01*
X017900Y005290D02*
X017900Y004910D01*
X018000Y004910D02*
X018000Y005290D01*
X018100Y005290D02*
X018100Y004910D01*
X018200Y004910D02*
X018200Y005290D01*
X018300Y005290D02*
X018300Y004910D01*
X018400Y004935D02*
X018400Y005265D01*
X018600Y005120D02*
X018600Y005080D01*
X018648Y005100D02*
X018505Y005041D01*
X018465Y005000D02*
X017805Y005000D01*
X017800Y004988D02*
X017800Y004910D01*
X017000Y005100D02*
X016300Y005100D01*
X017003Y004204D02*
X017397Y004204D01*
X017380Y004164D01*
X017380Y004036D01*
X017397Y003996D01*
X017003Y003996D01*
X017020Y004036D01*
X017020Y004164D01*
X017003Y004204D01*
X017005Y004200D02*
X017395Y004200D01*
X017300Y004204D02*
X017300Y003996D01*
X017395Y004000D02*
X017005Y004000D01*
X017100Y003996D02*
X017100Y004204D01*
X017200Y004204D02*
X017200Y003996D01*
X017020Y004100D02*
X017380Y004100D01*
X017700Y004100D02*
X018300Y004100D01*
X018800Y003600D01*
X019280Y003800D02*
X019300Y003800D01*
X019300Y003752D02*
X019241Y003895D01*
X019095Y004041D01*
X018952Y004100D01*
X019300Y004100D01*
X019300Y004000D02*
X019135Y004000D01*
X019100Y004035D02*
X019100Y004165D01*
X019095Y004159D02*
X018952Y004100D01*
X019000Y004080D02*
X019000Y004120D01*
X019095Y004159D02*
X019241Y004305D01*
X019300Y004448D01*
X019300Y003752D01*
X019300Y003900D02*
X019235Y003900D01*
X019200Y003935D02*
X019200Y004265D01*
X019235Y004300D02*
X019300Y004300D01*
X019300Y004400D02*
X019280Y004400D01*
X019300Y004200D02*
X019135Y004200D01*
X018648Y004100D02*
X018583Y004100D01*
X018600Y004083D02*
X018600Y004120D01*
X018602Y004081D02*
X018537Y004146D01*
X018648Y004100D01*
X018602Y004081D01*
X019300Y004752D02*
X019241Y004895D01*
X019095Y005041D01*
X018952Y005100D01*
X019300Y005100D01*
X019300Y005000D02*
X019135Y005000D01*
X019100Y005035D02*
X019100Y005165D01*
X019095Y005159D02*
X018952Y005100D01*
X019000Y005080D02*
X019000Y005120D01*
X019095Y005159D02*
X019241Y005305D01*
X019300Y005448D01*
X019300Y004752D01*
X019300Y004800D02*
X019280Y004800D01*
X019300Y004900D02*
X019235Y004900D01*
X019200Y004935D02*
X019200Y005265D01*
X019235Y005300D02*
X019300Y005300D01*
X019300Y005400D02*
X019280Y005400D01*
X019300Y005200D02*
X019135Y005200D01*
X018648Y006100D02*
X018583Y006100D01*
X018600Y006083D02*
X018600Y006120D01*
X018602Y006081D02*
X018537Y006146D01*
X018648Y006100D01*
X018602Y006081D01*
X019135Y006200D02*
X019300Y006200D01*
X019000Y007080D02*
X019000Y007120D01*
X019280Y007400D02*
X019300Y007400D01*
X019300Y007752D02*
X019241Y007895D01*
X019095Y008041D01*
X018952Y008100D01*
X019300Y008100D01*
X019300Y008000D02*
X019135Y008000D01*
X019100Y008035D02*
X019100Y008165D01*
X019095Y008159D02*
X018952Y008100D01*
X019000Y008080D02*
X019000Y008120D01*
X019095Y008159D02*
X019241Y008305D01*
X019300Y008448D01*
X019300Y007752D01*
X019300Y007800D02*
X019280Y007800D01*
X019300Y007900D02*
X019235Y007900D01*
X019200Y007935D02*
X019200Y008265D01*
X019235Y008300D02*
X019300Y008300D01*
X019300Y008200D02*
X019135Y008200D01*
X019280Y008400D02*
X019300Y008400D01*
X019300Y008752D02*
X019241Y008895D01*
X019095Y009041D01*
X019000Y009080D01*
X019000Y009080D01*
X019232Y009080D01*
X019300Y009148D01*
X019300Y008752D01*
X019300Y008800D02*
X019280Y008800D01*
X019300Y008900D02*
X019235Y008900D01*
X019200Y008935D02*
X019200Y009080D01*
X019252Y009100D02*
X019300Y009100D01*
X019300Y009000D02*
X019135Y009000D01*
X019100Y009035D02*
X019100Y009080D01*
X018600Y009080D02*
X018505Y009041D01*
X018375Y008910D01*
X017963Y008910D01*
X017971Y008919D01*
X018020Y009036D01*
X018020Y009164D01*
X017971Y009281D01*
X017963Y009290D01*
X018280Y009290D01*
X018280Y009168D01*
X018368Y009080D01*
X018600Y009080D01*
X018500Y009080D02*
X018500Y009035D01*
X018465Y009000D02*
X018005Y009000D01*
X018000Y008988D02*
X018000Y008910D01*
X018100Y008910D02*
X018100Y009290D01*
X018200Y009290D02*
X018200Y008910D01*
X018300Y008910D02*
X018300Y009148D01*
X018280Y009200D02*
X018005Y009200D01*
X018000Y009212D02*
X018000Y009290D01*
X018020Y009100D02*
X018348Y009100D01*
X018400Y009080D02*
X018400Y008935D01*
X017700Y009100D02*
X017200Y009100D01*
X016300Y009783D02*
X016300Y011100D01*
X016000Y011100D02*
X016000Y010065D01*
X016265Y009800D02*
X016311Y009800D01*
X015335Y009800D02*
X015186Y009800D01*
X014335Y010800D02*
X014300Y010800D01*
X013300Y010800D02*
X013300Y010800D01*
X013300Y010807D02*
X013300Y010393D01*
X013300Y010400D02*
X013300Y010400D01*
X013300Y010500D02*
X013300Y010500D01*
X013300Y010600D02*
X013300Y010600D01*
X013300Y010700D02*
X013300Y010700D01*
X013000Y011100D02*
X013000Y011100D01*
X012900Y011100D02*
X012900Y011100D01*
X012800Y011100D02*
X012800Y011100D01*
X012700Y011100D02*
X012700Y011100D01*
X012600Y011100D02*
X012600Y011100D01*
X011000Y011100D02*
X011000Y011100D01*
X010900Y011100D02*
X010900Y011100D01*
X010800Y011100D02*
X010800Y011100D01*
X010700Y011100D02*
X010700Y011100D01*
X010600Y011100D02*
X010600Y011100D01*
X010400Y010000D02*
X010000Y010000D01*
X010000Y009900D02*
X010400Y009900D01*
X010752Y008500D02*
X010896Y008500D01*
X010837Y008400D02*
X010793Y008400D01*
X010705Y007853D02*
X010420Y007853D01*
X010420Y007800D01*
X010500Y007800D02*
X010500Y007853D01*
X010600Y007853D02*
X010600Y007800D01*
X010400Y007600D02*
X011000Y007600D01*
X011200Y007400D01*
X010947Y007200D02*
X010917Y007200D01*
X010896Y007179D01*
X010920Y007236D01*
X010920Y007240D01*
X010929Y007219D01*
X010947Y007200D01*
X010905Y007200D01*
X010900Y007188D02*
X010900Y007183D01*
X010600Y007300D02*
X010392Y007092D01*
X009943Y007092D01*
X010168Y007092D02*
X009718Y007092D01*
X009718Y007289D02*
X010168Y007289D01*
X010089Y007289D02*
X010400Y007600D01*
X010100Y007800D02*
X009800Y007800D01*
X009643Y007643D01*
X009589Y007643D01*
X009589Y007868D02*
X009589Y007418D01*
X009789Y007489D02*
X009789Y007506D01*
X009865Y007582D01*
X009919Y007529D01*
X010009Y007491D01*
X010006Y007489D01*
X009789Y007489D01*
X009800Y007489D02*
X009800Y007517D01*
X009789Y007500D02*
X009988Y007500D01*
X010000Y007495D02*
X010000Y007489D01*
X009900Y007489D02*
X009900Y007547D01*
X009943Y007289D02*
X010089Y007289D01*
X009392Y007418D02*
X009392Y007868D01*
X009392Y007992D02*
X009800Y008400D01*
X009830Y008147D02*
X009830Y008000D01*
X009741Y008000D01*
X009830Y008000D01*
X009800Y008000D02*
X009800Y008117D01*
X009783Y008100D02*
X009830Y008100D01*
X009830Y008147D02*
X009712Y008029D01*
X009741Y008000D01*
X009392Y007992D02*
X009392Y007643D01*
X009195Y007868D02*
X009195Y007418D01*
X009195Y007643D02*
X009195Y008195D01*
X012760Y006220D02*
X012781Y006229D01*
X012800Y006247D01*
X012800Y006217D01*
X012800Y006205D01*
X012800Y006217D02*
X012821Y006196D01*
X012764Y006220D01*
X012760Y006220D01*
X012812Y006200D02*
X012817Y006200D01*
X013600Y006247D02*
X013600Y005983D01*
X013583Y006000D02*
X013683Y006000D01*
X013800Y006163D02*
X013800Y006207D01*
X013900Y006207D02*
X013900Y006163D01*
X013971Y006100D02*
X014029Y006100D01*
X014029Y006000D02*
X013971Y006000D01*
X014000Y005885D02*
X014000Y005300D01*
X013300Y005200D02*
X012583Y005200D01*
X012600Y005183D02*
X012600Y005595D01*
X012588Y005600D02*
X012500Y005600D01*
X012519Y005629D02*
X012636Y005580D01*
X012764Y005580D01*
X012519Y005629D02*
X012500Y005647D01*
X012000Y004817D02*
X012000Y004805D01*
X012012Y004800D02*
X012017Y004800D01*
X012196Y004621D02*
X012200Y004612D01*
X012200Y004617D01*
X012196Y004621D01*
X012198Y004383D02*
X012200Y004375D01*
X012200Y004317D01*
X012200Y004082D01*
X012170Y004082D02*
X012170Y004317D01*
X012171Y004319D01*
X012198Y004383D01*
X012200Y004317D02*
X012219Y004298D01*
X012226Y004271D01*
X012276Y004241D01*
X012317Y004200D01*
X012170Y004200D01*
X012170Y004100D02*
X012511Y004100D01*
X012500Y004107D02*
X012500Y004082D01*
X012542Y004082D02*
X012454Y004082D01*
X012170Y004082D01*
X012300Y004082D02*
X012300Y004217D01*
X012317Y004200D02*
X012345Y004200D01*
X012542Y004082D01*
X012400Y004082D02*
X012400Y004167D01*
X012217Y004300D02*
X012170Y004300D01*
X012883Y004700D02*
X013717Y004700D01*
X013700Y004717D02*
X013700Y004220D01*
X013812Y004200D02*
X013817Y004200D01*
X013800Y003030D02*
X013800Y003004D01*
X013700Y003004D02*
X013700Y003030D01*
X013600Y003030D02*
X013600Y003004D01*
X014100Y003030D02*
X014100Y002930D01*
X014800Y003030D02*
X014800Y002550D01*
X014801Y002500D02*
X015300Y002500D01*
X015000Y002450D02*
X015000Y002550D01*
X014900Y002550D02*
X014900Y002450D01*
X013167Y002600D02*
X012702Y002600D01*
X011300Y001807D02*
X011300Y001393D01*
X011300Y001100D01*
X011400Y001100D02*
X011400Y001293D01*
X011393Y001300D02*
X011207Y001300D01*
X011200Y001293D02*
X011200Y001100D01*
X011100Y001100D02*
X011100Y001193D01*
X011107Y001200D02*
X011493Y001200D01*
X011500Y001193D02*
X011500Y001100D01*
X011593Y001100D02*
X011300Y001393D01*
X011007Y001100D01*
X011300Y001393D02*
X011300Y001807D01*
X011007Y002100D01*
X010593Y002100D01*
X010900Y002100D02*
X010900Y002458D01*
X011000Y002402D02*
X011000Y002100D01*
X011300Y001800D02*
X011300Y001800D01*
X011300Y001700D02*
X011300Y001700D01*
X011300Y001600D02*
X011300Y001600D01*
X011300Y001500D02*
X011300Y001500D01*
X011300Y001400D02*
X011300Y001400D01*
X010300Y001400D02*
X010300Y001400D01*
X010300Y001393D02*
X010300Y001807D01*
X010300Y001800D02*
X010300Y001800D01*
X010300Y001700D02*
X010300Y001700D01*
X010300Y001600D02*
X010300Y001600D01*
X010300Y001500D02*
X010300Y001500D01*
X015000Y001135D02*
X015000Y001100D01*
X018900Y002550D02*
X018900Y002650D01*
X019000Y002650D02*
X019000Y002550D01*
X019100Y002550D02*
X019100Y002650D01*
X019200Y002650D02*
X019200Y002550D01*
X019280Y002500D02*
X019300Y002500D01*
X019300Y002400D02*
X019248Y002400D01*
X019200Y002317D02*
X019200Y002250D01*
X019188Y002300D02*
X019300Y002300D01*
X016000Y007100D02*
X016000Y007100D01*
X015900Y007100D02*
X015900Y007100D01*
X015800Y007100D02*
X015800Y007100D01*
X015700Y007100D02*
X015700Y007100D01*
X015600Y007100D02*
X015600Y007100D01*
X015400Y007907D02*
X015400Y008293D01*
X015393Y008300D02*
X014670Y008300D01*
X013653Y007600D02*
X013600Y007600D01*
X013600Y007500D02*
X013653Y007500D01*
X013700Y007419D02*
X013700Y007212D01*
X013695Y007200D02*
X013600Y007200D01*
X013600Y007300D02*
X013747Y007300D01*
X013719Y007400D02*
X013600Y007400D01*
X013600Y007100D02*
X013680Y007100D01*
X017700Y010856D02*
X017700Y010981D01*
X017719Y011000D02*
X017850Y011000D01*
X017800Y011100D02*
X017800Y010875D01*
X008000Y011100D02*
X008000Y011100D01*
X007900Y011100D02*
X007900Y011100D01*
X007800Y011100D02*
X007800Y011100D01*
X007700Y011100D02*
X007700Y011100D01*
X007600Y011100D02*
X007600Y011100D01*
X007300Y010500D02*
X007300Y010500D01*
X007300Y010400D02*
X007300Y010400D01*
X006300Y010400D02*
X006300Y010400D01*
X006300Y010500D02*
X006300Y010500D01*
X006300Y010600D02*
X006300Y010600D01*
X006300Y010700D02*
X006300Y010700D01*
X006300Y010800D02*
X006300Y010800D01*
X005000Y011100D02*
X005000Y011100D01*
X004900Y011100D02*
X004900Y011100D01*
X004800Y011100D02*
X004800Y011100D01*
X004700Y011100D02*
X004700Y011100D01*
X004600Y011100D02*
X004600Y011100D01*
X004300Y010393D02*
X004493Y010200D01*
X004400Y010200D02*
X004400Y010293D01*
X004393Y010300D02*
X004300Y010300D01*
X004800Y010000D02*
X001300Y010000D01*
X001200Y010100D01*
X001100Y010100D01*
X001300Y007675D02*
X002175Y007675D01*
X002000Y007500D01*
X002000Y004800D01*
X002200Y004600D01*
X002525Y004600D01*
X001300Y004525D01*
D24*
X008900Y006600D03*
D25*
X004900Y008080D03*
X004900Y008400D03*
X004900Y008720D03*
X012700Y003620D03*
X012700Y003300D03*
X012700Y002980D03*
D26*
X013649Y002500D03*
X014751Y002500D03*
X014751Y009600D03*
X013649Y009600D03*
D27*
X013800Y009642D02*
X013800Y010600D01*
X014800Y010600D02*
X014800Y009600D01*
X015800Y009600D01*
X017052Y009600D02*
X018800Y009600D01*
X018800Y008600D02*
X017052Y008600D01*
X017052Y007600D02*
X018800Y007600D01*
X018800Y006600D02*
X017300Y006600D01*
X017052Y006600D01*
X017052Y005600D02*
X018800Y005600D01*
X018800Y004600D02*
X017500Y004600D01*
X017052Y004600D01*
X017052Y003600D02*
X018800Y003600D01*
X018800Y002600D02*
X017052Y002600D01*
X017000Y002600D01*
X017000Y001600D01*
X014800Y001600D01*
X014751Y001649D01*
X014751Y002500D01*
X013800Y002349D02*
X013649Y002500D01*
X013800Y002349D02*
X013800Y001600D01*
X014791Y001609D02*
X014800Y001600D01*
D28*
X011500Y002500D03*
X013700Y003900D03*
X014300Y003800D03*
X014400Y004500D03*
X014800Y004900D03*
X015200Y005300D03*
X014000Y005300D03*
X012700Y005900D03*
X012600Y006500D03*
X013400Y006500D03*
X014000Y007100D03*
X014800Y007800D03*
X016300Y008100D03*
X015200Y008900D03*
X012800Y009100D03*
X012300Y009100D03*
X012500Y009700D03*
X012300Y010100D03*
X011300Y010100D03*
X011100Y008700D03*
X010100Y007800D03*
X010600Y007300D03*
X011200Y007400D03*
X009100Y008700D03*
X008500Y009100D03*
X007800Y009700D03*
X007200Y009400D03*
X005700Y009100D03*
X005500Y008700D03*
X007000Y008300D03*
X007600Y008300D03*
X006500Y007800D03*
X006900Y007400D03*
X005900Y006200D03*
X006800Y005800D03*
X008600Y004500D03*
X010000Y004900D03*
X011126Y004526D03*
X011900Y004500D03*
X012900Y004100D03*
X011400Y005400D03*
X007000Y003500D03*
X006400Y004400D03*
X005300Y003500D03*
X004100Y004100D03*
X003100Y004100D03*
X004100Y005200D03*
X003500Y005800D03*
X003500Y006600D03*
X004100Y007000D03*
X004900Y007600D03*
X004300Y007700D03*
X003100Y008100D03*
X001000Y009100D03*
X001100Y010100D03*
X001000Y003100D03*
X001000Y002100D03*
X016700Y004100D03*
X017700Y004100D03*
X017500Y005100D03*
X017000Y005100D03*
X017100Y007100D03*
X016600Y007100D03*
X017700Y009100D03*
D29*
X015200Y008900D02*
X014800Y008900D01*
X014800Y009551D01*
X014751Y009600D01*
X013800Y009642D02*
X013691Y009642D01*
X013649Y009600D01*
X013700Y009549D01*
X013700Y008900D01*
X013800Y008800D01*
X014200Y008800D01*
X014400Y008600D01*
X014400Y008200D01*
X014400Y004500D01*
X014800Y004900D02*
X014800Y007800D01*
X015200Y008900D02*
X015200Y005300D01*
X015200Y002949D01*
X014751Y002500D01*
X013649Y002500D02*
X013169Y002980D01*
X012700Y002980D01*
X012508Y002788D01*
X011874Y002788D01*
X011500Y002500D02*
X011500Y003300D01*
X010628Y003300D01*
X010600Y003415D01*
X010572Y003300D01*
X010572Y004043D01*
X010600Y003985D01*
X011126Y003812D02*
X011126Y004526D01*
X011124Y004528D01*
X011126Y004526D02*
X011100Y004500D01*
X011900Y004500D01*
X011900Y003838D01*
X011874Y003812D01*
X012508Y003812D01*
X012700Y003620D01*
X012700Y003300D02*
X014800Y003300D01*
X014800Y004900D01*
X017500Y005100D02*
X017500Y004600D01*
X011500Y003812D02*
X011500Y003300D01*
X011126Y002788D02*
X010684Y002788D01*
X010600Y002785D01*
X010200Y004900D02*
X010372Y005072D01*
X010285Y005300D01*
X010800Y005272D02*
X011272Y005272D01*
X011400Y005400D01*
X010915Y005300D02*
X010800Y005272D01*
X006985Y004400D02*
X006400Y004400D01*
X006100Y004800D02*
X005515Y004800D01*
X005515Y004200D01*
X004885Y004200D02*
X004885Y004800D01*
X004600Y004400D02*
X004475Y004525D01*
X001300Y004525D01*
X001000Y003600D02*
X001000Y003100D01*
X001000Y002600D02*
X001000Y002100D01*
X001000Y002600D02*
X000955Y002600D01*
X001645Y002600D02*
X003485Y002600D01*
X004115Y002600D02*
X004115Y003600D01*
X004100Y003615D01*
X004100Y004100D01*
X003100Y004100D01*
X003485Y003600D02*
X001645Y003600D01*
X001000Y003600D02*
X000955Y003600D01*
X004600Y004400D02*
X004885Y004200D01*
X005300Y003500D02*
X005785Y003500D01*
X006415Y003500D02*
X007000Y003500D01*
X006100Y004800D02*
X006200Y004900D01*
X006200Y005200D01*
X006785Y005200D01*
X006800Y005315D01*
X006800Y005800D01*
X010100Y007800D02*
X010100Y008200D01*
X010485Y008200D01*
X011100Y008200D02*
X011100Y008700D01*
X011115Y008200D02*
X011100Y008200D01*
X005500Y008700D02*
X005480Y008720D01*
X004900Y008720D01*
X004115Y008600D02*
X004115Y009600D01*
X004000Y009572D01*
X003485Y009600D02*
X001745Y009600D01*
X001100Y009600D02*
X001100Y010100D01*
X001100Y009600D02*
X001055Y009600D01*
X001000Y009100D02*
X001000Y008655D01*
X001055Y008600D01*
X001745Y008600D02*
X003485Y008600D01*
X004000Y008572D02*
X004115Y008600D01*
X004000Y008572D02*
X004000Y008100D01*
X003100Y008100D01*
D30*
X002500Y007000D02*
X004100Y007000D01*
X005464Y006200D02*
X005900Y006200D01*
X004100Y005200D02*
X002500Y005200D01*
X002422Y005278D01*
X002422Y005588D01*
X002422Y006612D02*
X002422Y006922D01*
X002500Y007000D01*
X017100Y007100D02*
X017252Y006948D01*
X017252Y006652D01*
D31*
X017300Y006600D01*
X011126Y004526D02*
X011000Y004500D01*
X010600Y004500D01*
X010600Y004615D01*
X010200Y004900D02*
X010000Y004900D01*
M02*
