%
M48
M72
T01C0.0140
T02C0.0400
T03C0.0787
%
T01
X1000Y2100
X1000Y3100
X3100Y4100
X4100Y4100
X5300Y3500
X6400Y4400
X7000Y3500
X8600Y4500
X10000Y4900
X11126Y4526
X11900Y4500
X12900Y4100
X13700Y3900
X14300Y3800
X14400Y4500
X14800Y4900
X15200Y5300
X14000Y5300
X12700Y5900
X12600Y6500
X13400Y6500
X14000Y7100
X14800Y7800
X16300Y8100
X15200Y8900
X12800Y9100
X12300Y9100
X12500Y9700
X12300Y10100
X11300Y10100
X11100Y8700
X10100Y7800
X10600Y7300
X11200Y7400
X9100Y8700
X8500Y9100
X7800Y9700
X7200Y9400
X5700Y9100
X5500Y8700
X7000Y8300
X7600Y8300
X6500Y7800
X6900Y7400
X5900Y6200
X6800Y5800
X4100Y5200
X3500Y5800
X3500Y6600
X4100Y7000
X4900Y7600
X4300Y7700
X3100Y8100
X1000Y9100
X1100Y10100
X11400Y5400
X11500Y2500
X16700Y4100
X17700Y4100
X17500Y5100
X17000Y5100
X17100Y7100
X16600Y7100
X17700Y9100
T02
X18800Y8600
X18800Y7600
X18800Y6600
X18800Y5600
X18800Y4600
X18800Y3600
X18800Y2600
X15800Y2600
X15800Y3600
X15800Y4600
X15800Y5600
X15800Y6600
X15800Y7600
X15800Y8600
X15800Y9600
X14800Y10600
X13800Y10600
X12800Y10600
X11800Y10600
X10800Y10600
X9800Y10600
X8800Y10600
X7800Y10600
X6800Y10600
X5800Y10600
X4800Y10600
X3800Y10600
X18800Y9600
X14800Y1600
X13800Y1600
X12800Y1600
X11800Y1600
X10800Y1600
X9800Y1600
X8800Y1600
X7800Y1600
X6800Y1600
X5800Y1600
X4800Y1600
X3800Y1600
T03
X1250Y850
X17300Y850
X17300Y11350
X1250Y11350
M30
