G75*
%MOIN*%
%OFA0B0*%
%FSLAX24Y24*%
%IPPOS*%
%LPD*%
%AMOC8*
5,1,8,0,0,1.08239X$1,22.5*
%
%ADD10R,0.0631X0.0237*%
%ADD11R,0.0828X0.0867*%
%ADD12R,0.0828X0.0946*%
%ADD13R,0.0395X0.0474*%
%ADD14R,0.0474X0.0395*%
%ADD15R,0.0375X0.0237*%
%ADD16C,0.0330*%
%ADD17OC8,0.0780*%
%ADD18C,0.0142*%
%ADD19R,0.0297X0.0552*%
%ADD20R,0.1261X0.0572*%
%ADD21R,0.0820X0.0820*%
%ADD22C,0.0820*%
%ADD23C,0.0180*%
%ADD24R,0.1419X0.1419*%
%ADD25R,0.0580X0.0280*%
%ADD26R,0.0710X0.0789*%
%ADD27C,0.0867*%
D10*
X002422Y005588D03*
X002422Y005844D03*
X002422Y006100D03*
X002422Y006356D03*
X002422Y006612D03*
D11*
X001300Y006592D03*
X001300Y005608D03*
D12*
X001300Y004525D03*
X001300Y007675D03*
D13*
X003485Y008600D03*
X004115Y008600D03*
X004115Y009600D03*
X003485Y009600D03*
X004885Y007000D03*
X005515Y007000D03*
X005515Y005400D03*
X004885Y005400D03*
X004885Y004800D03*
X005515Y004800D03*
X005515Y004200D03*
X004885Y004200D03*
X004115Y003600D03*
X003485Y003600D03*
X003485Y002600D03*
X004115Y002600D03*
X005785Y003500D03*
X006415Y003500D03*
X006985Y004400D03*
X007615Y004400D03*
X007415Y005200D03*
X006785Y005200D03*
X010285Y005300D03*
X010915Y005300D03*
X011115Y008200D03*
X010485Y008200D03*
D14*
X014000Y008315D03*
X014000Y007685D03*
X014000Y006515D03*
X014000Y005885D03*
X010600Y004615D03*
X010600Y003985D03*
X010600Y003415D03*
X010600Y002785D03*
D15*
X005464Y006200D03*
X004736Y005944D03*
X004736Y006456D03*
D16*
X002300Y011400D03*
X016200Y011400D03*
X016200Y000800D03*
X002300Y000800D03*
D17*
X003800Y001600D03*
X004800Y001600D03*
X005800Y001600D03*
X006800Y001600D03*
X007800Y001600D03*
X008800Y001600D03*
X009800Y001600D03*
X010800Y001600D03*
X011800Y001600D03*
X012800Y001600D03*
X013800Y001600D03*
X014800Y001600D03*
X015800Y002600D03*
X015800Y003600D03*
X015800Y004600D03*
X015800Y005600D03*
X015800Y006600D03*
X015800Y007600D03*
X015800Y008600D03*
X015800Y009600D03*
X014800Y010600D03*
X013800Y010600D03*
X012800Y010600D03*
X011800Y010600D03*
X010800Y010600D03*
X009800Y010600D03*
X008800Y010600D03*
X007800Y010600D03*
X006800Y010600D03*
X005800Y010600D03*
X004800Y010600D03*
X003800Y010600D03*
D18*
X001911Y009766D02*
X001911Y009434D01*
X001579Y009434D01*
X001579Y009766D01*
X001911Y009766D01*
X001911Y009575D02*
X001579Y009575D01*
X001579Y009716D02*
X001911Y009716D01*
X001221Y009766D02*
X001221Y009434D01*
X000889Y009434D01*
X000889Y009766D01*
X001221Y009766D01*
X001221Y009575D02*
X000889Y009575D01*
X000889Y009716D02*
X001221Y009716D01*
X001221Y008766D02*
X001221Y008434D01*
X000889Y008434D01*
X000889Y008766D01*
X001221Y008766D01*
X001221Y008575D02*
X000889Y008575D01*
X000889Y008716D02*
X001221Y008716D01*
X001911Y008766D02*
X001911Y008434D01*
X001579Y008434D01*
X001579Y008766D01*
X001911Y008766D01*
X001911Y008575D02*
X001579Y008575D01*
X001579Y008716D02*
X001911Y008716D01*
X001811Y003766D02*
X001811Y003434D01*
X001479Y003434D01*
X001479Y003766D01*
X001811Y003766D01*
X001811Y003575D02*
X001479Y003575D01*
X001479Y003716D02*
X001811Y003716D01*
X001121Y003766D02*
X001121Y003434D01*
X000789Y003434D01*
X000789Y003766D01*
X001121Y003766D01*
X001121Y003575D02*
X000789Y003575D01*
X000789Y003716D02*
X001121Y003716D01*
X001121Y002766D02*
X001121Y002434D01*
X000789Y002434D01*
X000789Y002766D01*
X001121Y002766D01*
X001121Y002575D02*
X000789Y002575D01*
X000789Y002716D02*
X001121Y002716D01*
X001811Y002766D02*
X001811Y002434D01*
X001479Y002434D01*
X001479Y002766D01*
X001811Y002766D01*
X001811Y002575D02*
X001479Y002575D01*
X001479Y002716D02*
X001811Y002716D01*
D19*
X011126Y002788D03*
X011874Y002788D03*
X011874Y003812D03*
X011500Y003812D03*
X011126Y003812D03*
D20*
X017052Y003600D03*
X017052Y002600D03*
X017052Y004600D03*
X017052Y005600D03*
X017052Y006600D03*
X017052Y007600D03*
X017052Y008600D03*
X017052Y009600D03*
D21*
X018800Y009600D03*
D22*
X018800Y008600D03*
X018800Y007600D03*
X018800Y006600D03*
X018800Y005600D03*
X018800Y004600D03*
X018800Y003600D03*
X018800Y002600D03*
D23*
X010168Y005911D02*
X009718Y005911D01*
X009718Y006108D02*
X010168Y006108D01*
X010168Y006305D02*
X009718Y006305D01*
X009718Y006502D02*
X010168Y006502D01*
X010168Y006698D02*
X009718Y006698D01*
X009718Y006895D02*
X010168Y006895D01*
X010168Y007092D02*
X009718Y007092D01*
X009718Y007289D02*
X010168Y007289D01*
X009589Y007418D02*
X009589Y007868D01*
X009392Y007868D02*
X009392Y007418D01*
X009195Y007418D02*
X009195Y007868D01*
X008998Y007868D02*
X008998Y007418D01*
X008802Y007418D02*
X008802Y007868D01*
X008605Y007868D02*
X008605Y007418D01*
X008408Y007418D02*
X008408Y007868D01*
X008211Y007868D02*
X008211Y007418D01*
X008082Y007289D02*
X007632Y007289D01*
X007632Y007092D02*
X008082Y007092D01*
X008082Y006895D02*
X007632Y006895D01*
X007632Y006698D02*
X008082Y006698D01*
X008082Y006502D02*
X007632Y006502D01*
X007632Y006305D02*
X008082Y006305D01*
X008082Y006108D02*
X007632Y006108D01*
X007632Y005911D02*
X008082Y005911D01*
X008211Y005782D02*
X008211Y005332D01*
X008408Y005332D02*
X008408Y005782D01*
X008605Y005782D02*
X008605Y005332D01*
X008802Y005332D02*
X008802Y005782D01*
X008998Y005782D02*
X008998Y005332D01*
X009195Y005332D02*
X009195Y005782D01*
X009392Y005782D02*
X009392Y005332D01*
X009589Y005332D02*
X009589Y005782D01*
D24*
X008900Y006600D03*
D25*
X004900Y008080D03*
X004900Y008400D03*
X004900Y008720D03*
X012700Y003620D03*
X012700Y003300D03*
X012700Y002980D03*
D26*
X013649Y002500D03*
X014751Y002500D03*
X014751Y009600D03*
X013649Y009600D03*
D27*
X001250Y000850D03*
X017300Y000850D03*
X017300Y011350D03*
X001250Y011350D03*
M02*
