G75*
%MOIN*%
%OFA0B0*%
%FSLAX24Y24*%
%IPPOS*%
%LPD*%
%AMOC8*
5,1,8,0,0,1.08239X$1,22.5*
%
%ADD10OC8,0.0700*%
%ADD11R,0.0740X0.0740*%
%ADD12C,0.0740*%
%ADD13C,0.0100*%
%ADD14C,0.0340*%
%ADD15C,0.0240*%
%ADD16C,0.0070*%
D10*
X003800Y001600D03*
X004800Y001600D03*
X005800Y001600D03*
X006800Y001600D03*
X007800Y001600D03*
X008800Y001600D03*
X009800Y001600D03*
X010800Y001600D03*
X011800Y001600D03*
X012800Y001600D03*
X013800Y001600D03*
X014800Y001600D03*
X015800Y002600D03*
X015800Y003600D03*
X015800Y004600D03*
X015800Y005600D03*
X015800Y006600D03*
X015800Y007600D03*
X015800Y008600D03*
X015800Y009600D03*
X014800Y010600D03*
X013800Y010600D03*
X012800Y010600D03*
X011800Y010600D03*
X010800Y010600D03*
X009800Y010600D03*
X008800Y010600D03*
X007800Y010600D03*
X006800Y010600D03*
X005800Y010600D03*
X004800Y010600D03*
X003800Y010600D03*
D11*
X018800Y009600D03*
D12*
X018800Y008600D03*
X018800Y007600D03*
X018800Y006600D03*
X018800Y005600D03*
X018800Y004600D03*
X018800Y003600D03*
X018800Y002600D03*
D13*
X018200Y002600D02*
X018200Y009600D01*
X017900Y009600D02*
X015850Y009600D01*
X015850Y009650D02*
X016270Y009650D01*
X016270Y009795D01*
X015995Y010070D01*
X015850Y010070D01*
X015850Y009650D01*
X015850Y009550D01*
X016270Y009550D01*
X016270Y009405D01*
X015995Y009130D01*
X015850Y009130D01*
X015850Y009550D01*
X015750Y009550D01*
X015750Y009130D01*
X015605Y009130D01*
X015330Y009405D01*
X015330Y009550D01*
X015750Y009550D01*
X015750Y009650D01*
X015750Y010070D01*
X015605Y010070D01*
X015330Y009795D01*
X015330Y009650D01*
X015750Y009650D01*
X015850Y009650D01*
X015900Y009650D02*
X015900Y009550D01*
X015850Y009500D02*
X015750Y009500D01*
X015800Y009550D02*
X015800Y009100D01*
X015700Y009100D02*
X015700Y009130D01*
X015750Y009200D02*
X015850Y009200D01*
X015900Y009130D02*
X015900Y009100D01*
X016000Y009100D02*
X016000Y009135D01*
X016007Y009100D02*
X015593Y009100D01*
X015300Y008807D01*
X015300Y011500D01*
X015400Y011500D02*
X015400Y009865D01*
X015435Y009900D02*
X012753Y009900D01*
X012771Y009881D02*
X012681Y009971D01*
X012606Y010002D01*
X012620Y010036D01*
X012620Y010100D01*
X013007Y010100D01*
X013593Y010100D01*
X014007Y010100D01*
X017900Y010100D01*
X017900Y010200D02*
X015065Y010200D01*
X015100Y010235D02*
X015100Y008500D01*
X015000Y008500D02*
X015000Y010135D01*
X014995Y010130D02*
X015270Y010405D01*
X015270Y010550D01*
X014850Y010550D01*
X014850Y010650D01*
X014750Y010650D01*
X014750Y011070D01*
X014605Y011070D01*
X014330Y010795D01*
X014330Y010650D01*
X014750Y010650D01*
X014750Y010550D01*
X014330Y010550D01*
X014330Y010405D01*
X014605Y010130D01*
X014750Y010130D01*
X014750Y010550D01*
X014850Y010550D01*
X014850Y010130D01*
X014995Y010130D01*
X014900Y010130D02*
X014900Y008500D01*
X014800Y008500D02*
X014800Y010550D01*
X014750Y010500D02*
X014850Y010500D01*
X014900Y010550D02*
X014900Y010650D01*
X014850Y010650D02*
X015270Y010650D01*
X015270Y010795D01*
X014995Y011070D01*
X014850Y011070D01*
X014850Y010650D01*
X014800Y010650D02*
X014800Y011500D01*
X014900Y011500D02*
X014900Y011070D01*
X014850Y011000D02*
X014750Y011000D01*
X014700Y011070D02*
X014700Y011500D01*
X014600Y011500D02*
X014600Y011065D01*
X014535Y011000D02*
X014107Y011000D01*
X014100Y011007D02*
X014100Y011500D01*
X014000Y011500D02*
X014000Y011100D01*
X014007Y011100D02*
X013593Y011100D01*
X013300Y010807D01*
X013300Y011500D01*
X013400Y011500D02*
X013400Y010907D01*
X013393Y010900D02*
X013207Y010900D01*
X013200Y010907D02*
X013200Y011500D01*
X013100Y011500D02*
X013100Y011007D01*
X013107Y011000D02*
X013493Y011000D01*
X013500Y011007D02*
X013500Y011500D01*
X013600Y011500D02*
X013600Y011100D01*
X013700Y011100D02*
X013700Y011500D01*
X013800Y011500D02*
X013800Y011100D01*
X013900Y011100D02*
X013900Y011500D01*
X014200Y011500D02*
X014200Y010907D01*
X014207Y010900D02*
X014435Y010900D01*
X014400Y010865D02*
X014400Y011500D01*
X014500Y011500D02*
X014500Y010965D01*
X014750Y010900D02*
X014850Y010900D01*
X014850Y010800D02*
X014750Y010800D01*
X014750Y010700D02*
X014850Y010700D01*
X014850Y010600D02*
X017850Y010600D01*
X017850Y010583D02*
X017900Y010462D01*
X017900Y009353D01*
X017881Y009371D01*
X017764Y009420D01*
X017636Y009420D01*
X017519Y009371D01*
X017429Y009281D01*
X017380Y009164D01*
X017380Y009036D01*
X017429Y008919D01*
X017519Y008829D01*
X017588Y008800D01*
X016300Y008800D01*
X016300Y011500D01*
X016400Y011500D02*
X016400Y008800D01*
X016500Y008800D02*
X016500Y011500D01*
X016600Y011500D02*
X016600Y008800D01*
X016700Y008800D02*
X016700Y011500D01*
X016756Y011458D02*
X016756Y011242D01*
X016839Y011042D01*
X016992Y010889D01*
X017192Y010806D01*
X017408Y010806D01*
X017608Y010889D01*
X017761Y011042D01*
X017844Y011242D01*
X017844Y011458D01*
X017826Y011500D01*
X017840Y011500D01*
X017850Y011400D01*
X017844Y011400D01*
X017850Y011400D02*
X017850Y010583D01*
X017884Y010500D02*
X015270Y010500D01*
X015200Y010550D02*
X015200Y010650D01*
X015270Y010700D02*
X017850Y010700D01*
X017850Y010800D02*
X015265Y010800D01*
X015200Y010865D02*
X015200Y011500D01*
X015100Y011500D02*
X015100Y010965D01*
X015065Y011000D02*
X016881Y011000D01*
X016900Y010981D02*
X016900Y008800D01*
X016800Y008800D02*
X016800Y011136D01*
X016815Y011100D02*
X004300Y011100D01*
X004300Y011200D02*
X016774Y011200D01*
X016756Y011300D02*
X004300Y011300D01*
X004300Y011400D02*
X016756Y011400D01*
X016756Y011458D02*
X016774Y011500D01*
X004300Y011500D01*
X004300Y010807D01*
X004300Y010393D01*
X004300Y009300D01*
X005447Y009300D01*
X004300Y009300D01*
X004300Y011500D01*
X004400Y011500D02*
X004400Y010907D01*
X004393Y010900D02*
X004300Y010900D01*
X004300Y010807D02*
X004593Y011100D01*
X005007Y011100D01*
X005300Y010807D01*
X005300Y011500D01*
X005400Y011500D02*
X005400Y010907D01*
X005393Y010900D02*
X005207Y010900D01*
X005200Y010907D02*
X005200Y011500D01*
X005100Y011500D02*
X005100Y011007D01*
X005107Y011000D02*
X005493Y011000D01*
X005500Y011007D02*
X005500Y011500D01*
X005600Y011500D02*
X005600Y011100D01*
X005593Y011100D02*
X005300Y010807D01*
X005300Y010393D01*
X005300Y009300D01*
X005400Y009300D02*
X005400Y010293D01*
X005393Y010300D02*
X005207Y010300D01*
X005200Y010293D02*
X005200Y009300D01*
X005100Y009300D02*
X005100Y010193D01*
X005107Y010200D02*
X005493Y010200D01*
X005500Y010193D02*
X005500Y009353D01*
X005519Y009371D02*
X005447Y009300D01*
X005519Y009371D02*
X005636Y009420D01*
X005764Y009420D01*
X005881Y009371D01*
X005971Y009281D01*
X006020Y009164D01*
X006020Y009036D01*
X005971Y008919D01*
X005881Y008829D01*
X005764Y008780D01*
X005636Y008780D01*
X005519Y008829D01*
X005447Y008900D01*
X004300Y008900D01*
X004300Y008483D01*
X004300Y008900D01*
X004300Y008800D02*
X005588Y008800D01*
X005600Y008795D02*
X005600Y008400D01*
X005500Y008400D02*
X005500Y008847D01*
X005400Y008900D02*
X005400Y008400D01*
X005300Y008400D02*
X005300Y008900D01*
X005200Y008900D02*
X005200Y008400D01*
X005117Y008400D02*
X004700Y007983D01*
X004700Y008900D01*
X004600Y008900D02*
X004600Y007812D01*
X004605Y007800D02*
X004647Y007800D01*
X004629Y007781D02*
X004620Y007760D01*
X004620Y007764D01*
X004571Y007881D01*
X004500Y007953D01*
X004500Y008283D01*
X004383Y008400D01*
X004300Y008483D01*
X004300Y008500D02*
X006747Y008500D01*
X006729Y008481D02*
X006691Y008391D01*
X006683Y008400D01*
X005117Y008400D01*
X005100Y008383D02*
X005100Y008900D01*
X005000Y008900D02*
X005000Y008283D01*
X005017Y008300D02*
X004483Y008300D01*
X004500Y008200D02*
X004917Y008200D01*
X004900Y008183D02*
X004900Y008900D01*
X004800Y008900D02*
X004800Y008083D01*
X004817Y008100D02*
X004500Y008100D01*
X004500Y008000D02*
X004717Y008000D01*
X004700Y007983D02*
X004700Y007853D01*
X004629Y007781D01*
X004700Y007900D02*
X004553Y007900D01*
X004500Y007953D02*
X004500Y008900D01*
X004400Y008900D02*
X004400Y008383D01*
X004383Y008400D02*
X006695Y008400D01*
X006700Y008412D02*
X006700Y010100D01*
X006600Y010100D02*
X006600Y008400D01*
X006500Y008400D02*
X006500Y010193D01*
X006493Y010200D02*
X006107Y010200D01*
X006100Y010193D02*
X006100Y008400D01*
X006200Y008400D02*
X006200Y010293D01*
X006207Y010300D02*
X006393Y010300D01*
X006400Y010293D02*
X006400Y008400D01*
X006300Y008400D02*
X006300Y010393D01*
X006007Y010100D01*
X006593Y010100D01*
X007007Y010100D01*
X007593Y010100D01*
X008007Y010100D01*
X008017Y010100D01*
X008012Y010105D02*
X008217Y009900D01*
X008053Y009900D01*
X007981Y009971D01*
X007864Y010020D01*
X007736Y010020D01*
X007619Y009971D01*
X007529Y009881D01*
X007480Y009764D01*
X007480Y009636D01*
X007495Y009600D01*
X007453Y009600D01*
X007381Y009671D01*
X007264Y009720D01*
X007136Y009720D01*
X007019Y009671D01*
X006929Y009581D01*
X006880Y009464D01*
X006880Y009336D01*
X006929Y009219D01*
X007019Y009129D01*
X007136Y009080D01*
X007264Y009080D01*
X007381Y009129D01*
X007453Y009200D01*
X008195Y009200D01*
X008180Y009164D01*
X008180Y009036D01*
X008229Y008919D01*
X008319Y008829D01*
X008436Y008780D01*
X008564Y008780D01*
X008681Y008829D01*
X008753Y008900D01*
X010617Y008900D01*
X010717Y008800D01*
X008612Y008800D01*
X008600Y008795D02*
X008600Y008500D01*
X008500Y008500D02*
X008500Y008780D01*
X008400Y008795D02*
X008400Y008500D01*
X008300Y008500D02*
X008300Y008847D01*
X008247Y008900D02*
X005953Y008900D01*
X005900Y008847D02*
X005900Y008400D01*
X006000Y008400D02*
X006000Y008988D01*
X006005Y009000D02*
X008195Y009000D01*
X008200Y008988D02*
X008200Y008500D01*
X008100Y008500D02*
X008100Y009200D01*
X008000Y009200D02*
X008000Y008500D01*
X007900Y008500D02*
X007900Y009200D01*
X007800Y009200D02*
X007800Y008553D01*
X007781Y008571D02*
X007664Y008620D01*
X007536Y008620D01*
X007419Y008571D01*
X007329Y008481D01*
X007300Y008412D01*
X007300Y009095D01*
X007312Y009100D02*
X008180Y009100D01*
X008500Y009100D02*
X010700Y009100D01*
X010800Y009000D01*
X012300Y009000D01*
X012300Y009100D01*
X012550Y008897D02*
X012619Y008829D01*
X012736Y008780D01*
X012864Y008780D01*
X012981Y008829D01*
X013071Y008919D01*
X013120Y009036D01*
X013120Y009164D01*
X013071Y009281D01*
X013000Y009353D01*
X013000Y009483D01*
X012883Y009600D01*
X012805Y009600D01*
X015750Y009600D01*
X015700Y009550D02*
X015700Y009650D01*
X015750Y009700D02*
X015850Y009700D01*
X015800Y009650D02*
X015800Y011500D01*
X015700Y011500D02*
X015700Y010070D01*
X015750Y010000D02*
X015850Y010000D01*
X015900Y010070D02*
X015900Y011500D01*
X016000Y011500D02*
X016000Y010065D01*
X016065Y010000D02*
X017900Y010000D01*
X017900Y009900D02*
X016165Y009900D01*
X016200Y009865D02*
X016200Y011500D01*
X016100Y011500D02*
X016100Y009965D01*
X015850Y009900D02*
X015750Y009900D01*
X015750Y009800D02*
X015850Y009800D01*
X016000Y009650D02*
X016000Y009550D01*
X016100Y009550D02*
X016100Y009650D01*
X016200Y009650D02*
X016200Y009550D01*
X016270Y009500D02*
X017900Y009500D01*
X017900Y009400D02*
X017812Y009400D01*
X017800Y009405D02*
X017800Y011136D01*
X017785Y011100D02*
X017850Y011100D01*
X017850Y011200D02*
X017826Y011200D01*
X017844Y011300D02*
X017850Y011300D01*
X017850Y011000D02*
X017719Y011000D01*
X017700Y010981D02*
X017700Y009420D01*
X017600Y009405D02*
X017600Y010886D01*
X017619Y010900D02*
X017850Y010900D01*
X017500Y010844D02*
X017500Y009353D01*
X017447Y009300D02*
X016165Y009300D01*
X016200Y009335D02*
X016200Y008907D01*
X016207Y008900D02*
X017447Y008900D01*
X017500Y008847D02*
X017500Y008800D01*
X017588Y008800D02*
X016300Y008800D01*
X016300Y008807D01*
X016007Y009100D01*
X016065Y009200D02*
X017395Y009200D01*
X017400Y009212D02*
X017400Y010806D01*
X017300Y010806D02*
X017300Y008800D01*
X017200Y008800D02*
X017200Y010806D01*
X017100Y010844D02*
X017100Y008800D01*
X017000Y008800D02*
X017000Y010886D01*
X016981Y010900D02*
X015165Y010900D01*
X015000Y011065D02*
X015000Y011500D01*
X015500Y011500D02*
X015500Y009965D01*
X015535Y010000D02*
X012612Y010000D01*
X012700Y009953D02*
X012700Y010100D01*
X012800Y010100D02*
X012800Y009812D01*
X012805Y009800D02*
X015335Y009800D01*
X015330Y009700D02*
X012820Y009700D01*
X012820Y009636D02*
X012820Y009764D01*
X012771Y009881D01*
X012820Y009636D02*
X012805Y009600D01*
X012900Y009583D02*
X012900Y010100D01*
X013000Y010100D02*
X013000Y009353D01*
X013000Y009400D02*
X015335Y009400D01*
X015400Y009335D02*
X015400Y008907D01*
X015393Y008900D02*
X013053Y008900D01*
X013000Y008847D02*
X013000Y008500D01*
X012900Y008500D02*
X012900Y008795D01*
X012912Y008800D02*
X015300Y008800D01*
X015300Y008807D02*
X015300Y008500D01*
X007853Y008500D01*
X007781Y008571D01*
X007712Y008600D02*
X015300Y008600D01*
X015300Y008700D02*
X004300Y008700D01*
X004300Y008600D02*
X006888Y008600D01*
X006900Y008605D02*
X006900Y009288D01*
X006895Y009300D02*
X005953Y009300D01*
X005900Y009353D02*
X005900Y010100D01*
X006000Y010100D02*
X006000Y009212D01*
X006005Y009200D02*
X006947Y009200D01*
X007000Y009147D02*
X007000Y008620D01*
X007064Y008620D02*
X006936Y008620D01*
X006819Y008571D01*
X006729Y008481D01*
X006800Y008553D02*
X006800Y010100D01*
X006900Y010100D02*
X006900Y009512D01*
X006895Y009500D02*
X004300Y009500D01*
X004300Y009400D02*
X005588Y009400D01*
X005600Y009405D02*
X005600Y010100D01*
X005593Y010100D02*
X005007Y010100D01*
X005300Y010393D01*
X005593Y010100D01*
X006007Y010100D01*
X005800Y010100D02*
X005800Y009405D01*
X005812Y009400D02*
X006880Y009400D01*
X006947Y009600D02*
X004300Y009600D01*
X004300Y009700D02*
X007088Y009700D01*
X007100Y009705D02*
X007100Y010193D01*
X007107Y010200D02*
X007493Y010200D01*
X007500Y010193D02*
X007500Y009812D01*
X007495Y009800D02*
X004300Y009800D01*
X004300Y009900D02*
X007547Y009900D01*
X007600Y009953D02*
X007600Y010100D01*
X007593Y010100D02*
X007300Y010393D01*
X007300Y009705D01*
X007312Y009700D02*
X007480Y009700D01*
X007400Y009653D02*
X007400Y010293D01*
X007393Y010300D02*
X007207Y010300D01*
X007200Y010293D02*
X007200Y009720D01*
X007000Y009653D02*
X007000Y010100D01*
X007007Y010100D02*
X007300Y010393D01*
X007300Y010807D01*
X007300Y011500D01*
X007200Y011500D02*
X007200Y010907D01*
X007207Y010900D02*
X007393Y010900D01*
X007400Y010907D02*
X007400Y011500D01*
X007500Y011500D02*
X007500Y011007D01*
X007493Y011000D02*
X007107Y011000D01*
X007100Y011007D02*
X007100Y011500D01*
X007000Y011500D02*
X007000Y011100D01*
X007007Y011100D02*
X006593Y011100D01*
X006300Y010807D01*
X006300Y011500D01*
X006400Y011500D02*
X006400Y010907D01*
X006393Y010900D02*
X006207Y010900D01*
X006200Y010907D02*
X006200Y011500D01*
X006100Y011500D02*
X006100Y011007D01*
X006107Y011000D02*
X006493Y011000D01*
X006500Y011007D02*
X006500Y011500D01*
X006600Y011500D02*
X006600Y011100D01*
X006700Y011100D02*
X006700Y011500D01*
X006800Y011500D02*
X006800Y011100D01*
X006900Y011100D02*
X006900Y011500D01*
X007007Y011100D02*
X007300Y010807D01*
X007593Y011100D01*
X008007Y011100D01*
X008300Y010807D01*
X008300Y011500D01*
X008400Y011500D02*
X008400Y010907D01*
X008393Y010900D02*
X008207Y010900D01*
X008200Y010907D02*
X008200Y011500D01*
X008100Y011500D02*
X008100Y011007D01*
X008107Y011000D02*
X008493Y011000D01*
X008500Y011007D02*
X008500Y011500D01*
X008600Y011500D02*
X008600Y011100D01*
X008593Y011100D02*
X008300Y010807D01*
X008300Y010393D01*
X008300Y010383D01*
X008295Y010388D02*
X008300Y010393D01*
X008593Y010100D01*
X008583Y010100D01*
X008295Y010388D01*
X008300Y010393D02*
X008300Y010807D01*
X008300Y010800D02*
X008300Y010800D01*
X008300Y010700D02*
X008300Y010700D01*
X008300Y010600D02*
X008300Y010600D01*
X008300Y010500D02*
X008300Y010500D01*
X008300Y010400D02*
X008300Y010400D01*
X008383Y010300D02*
X008393Y010300D01*
X008400Y010293D02*
X008400Y010283D01*
X008483Y010200D02*
X008493Y010200D01*
X008500Y010193D02*
X008500Y010183D01*
X008583Y010100D02*
X008617Y010100D01*
X008617Y010100D01*
X008593Y010100D01*
X008600Y010100D02*
X008600Y010100D01*
X008800Y010200D02*
X008900Y010100D01*
X011300Y010100D01*
X011620Y010100D02*
X011817Y010100D01*
X011783Y010100D01*
X011620Y010100D01*
X011620Y010100D01*
X011700Y010100D02*
X011700Y010100D01*
X011800Y010100D02*
X011800Y010100D01*
X011817Y010100D02*
X011817Y010100D01*
X011900Y009900D02*
X012100Y010100D01*
X012300Y010100D01*
X012300Y010420D02*
X012300Y010807D01*
X012300Y011500D01*
X012200Y011500D02*
X012200Y010907D01*
X012207Y010900D02*
X012393Y010900D01*
X012400Y010907D02*
X012400Y011500D01*
X012500Y011500D02*
X012500Y011007D01*
X012493Y011000D02*
X012107Y011000D01*
X012100Y011007D02*
X012100Y011500D01*
X012000Y011500D02*
X012000Y011100D01*
X012007Y011100D02*
X011593Y011100D01*
X011300Y010807D01*
X011300Y011500D01*
X011400Y011500D02*
X011400Y010907D01*
X011393Y010900D02*
X011207Y010900D01*
X011200Y010907D02*
X011200Y011500D01*
X011100Y011500D02*
X011100Y011007D01*
X011107Y011000D02*
X011493Y011000D01*
X011500Y011007D02*
X011500Y011500D01*
X011600Y011500D02*
X011600Y011100D01*
X011700Y011100D02*
X011700Y011500D01*
X011800Y011500D02*
X011800Y011100D01*
X011900Y011100D02*
X011900Y011500D01*
X012007Y011100D02*
X012300Y010807D01*
X012300Y010420D01*
X012300Y010420D01*
X012300Y010500D02*
X012300Y010500D01*
X012300Y010600D02*
X012300Y010600D01*
X012300Y010700D02*
X012300Y010700D01*
X012300Y010800D02*
X012300Y010800D01*
X012300Y010807D02*
X012593Y011100D01*
X013007Y011100D01*
X013300Y010807D01*
X013300Y010393D01*
X013300Y008500D01*
X013400Y008500D02*
X013400Y010293D01*
X013393Y010300D02*
X013207Y010300D01*
X013200Y010293D02*
X013200Y008500D01*
X013100Y008500D02*
X013100Y008988D01*
X013105Y009000D02*
X015493Y009000D01*
X015500Y009007D02*
X015500Y009235D01*
X015535Y009200D02*
X013105Y009200D01*
X013100Y009212D02*
X013100Y010193D01*
X013107Y010200D02*
X013493Y010200D01*
X013500Y010193D02*
X013500Y008500D01*
X013600Y008500D02*
X013600Y010100D01*
X013593Y010100D02*
X013300Y010393D01*
X013007Y010100D01*
X013300Y010393D02*
X013300Y010807D01*
X013300Y010800D02*
X013300Y010800D01*
X013300Y010700D02*
X013300Y010700D01*
X013300Y010600D02*
X013300Y010600D01*
X013300Y010500D02*
X013300Y010500D01*
X013300Y010400D02*
X013300Y010400D01*
X013700Y010100D02*
X013700Y008500D01*
X013800Y008500D02*
X013800Y010100D01*
X013900Y010100D02*
X013900Y008500D01*
X014000Y008500D02*
X014000Y010100D01*
X014007Y010100D02*
X014300Y010393D01*
X014300Y010807D01*
X014007Y011100D01*
X014300Y010800D02*
X014335Y010800D01*
X014330Y010700D02*
X014300Y010700D01*
X014300Y010600D02*
X014750Y010600D01*
X014700Y010550D02*
X014700Y010650D01*
X014600Y010650D02*
X014600Y010550D01*
X014500Y010550D02*
X014500Y010650D01*
X014400Y010650D02*
X014400Y010550D01*
X014330Y010500D02*
X014300Y010500D01*
X014300Y010400D02*
X014335Y010400D01*
X014400Y010335D02*
X014400Y008500D01*
X014500Y008500D02*
X014500Y010235D01*
X014535Y010200D02*
X014107Y010200D01*
X014100Y010193D02*
X014100Y008500D01*
X014200Y008500D02*
X014200Y010293D01*
X014207Y010300D02*
X014435Y010300D01*
X014600Y010135D02*
X014600Y008500D01*
X014700Y008500D02*
X014700Y010130D01*
X014750Y010200D02*
X014850Y010200D01*
X014850Y010300D02*
X014750Y010300D01*
X014750Y010400D02*
X014850Y010400D01*
X015000Y010550D02*
X015000Y010650D01*
X015100Y010650D02*
X015100Y010550D01*
X015265Y010400D02*
X017900Y010400D01*
X017900Y010300D02*
X015165Y010300D01*
X015200Y010335D02*
X015200Y008500D01*
X015300Y008500D02*
X007853Y008500D01*
X007700Y008605D02*
X007700Y009200D01*
X007600Y009200D02*
X007600Y008620D01*
X007500Y008605D02*
X007500Y009200D01*
X007400Y009147D02*
X007400Y008553D01*
X007347Y008500D02*
X007253Y008500D01*
X007271Y008481D02*
X007181Y008571D01*
X007064Y008620D01*
X007100Y008605D02*
X007100Y009095D01*
X007088Y009100D02*
X006020Y009100D01*
X005700Y009100D02*
X004000Y009100D01*
X003800Y009300D01*
X003800Y010600D01*
X004300Y010393D02*
X004593Y010100D01*
X004300Y010100D01*
X004300Y010200D02*
X004493Y010200D01*
X004500Y010193D02*
X004500Y009300D01*
X004400Y009300D02*
X004400Y010293D01*
X004393Y010300D02*
X004300Y010300D01*
X004300Y010000D02*
X007688Y010000D01*
X007700Y010005D02*
X007700Y010100D01*
X007800Y010100D02*
X007800Y010020D01*
X007900Y010005D02*
X007900Y010100D01*
X008000Y010100D02*
X008000Y009953D01*
X008053Y009900D02*
X008217Y009900D01*
X008200Y009900D02*
X008200Y009917D01*
X008100Y009900D02*
X008100Y010017D01*
X008117Y010000D02*
X007912Y010000D01*
X008007Y010100D02*
X008012Y010105D01*
X008500Y009900D02*
X011000Y009900D01*
X011200Y009700D01*
X011500Y009700D01*
X011700Y009900D01*
X011900Y009900D01*
X012000Y009700D02*
X012500Y009700D01*
X012800Y009400D02*
X012000Y009400D01*
X011800Y009200D01*
X011000Y009200D01*
X010800Y009400D01*
X007200Y009400D01*
X007200Y009080D02*
X007200Y008553D01*
X007112Y008600D02*
X007488Y008600D01*
X007271Y008481D02*
X007300Y008412D01*
X007000Y008300D02*
X007400Y007900D01*
X007800Y007900D01*
X007900Y008000D01*
X007900Y008100D01*
X016300Y008100D01*
X016620Y008100D02*
X017600Y008100D01*
X017600Y008000D02*
X016605Y008000D01*
X016600Y007988D02*
X016600Y007870D01*
X016553Y007900D02*
X017600Y007900D01*
X017600Y007851D02*
X017554Y007870D01*
X016523Y007870D01*
X016571Y007919D01*
X016620Y008036D01*
X016620Y008164D01*
X016571Y008281D01*
X016481Y008371D01*
X016412Y008400D01*
X017600Y008400D01*
X017600Y007851D01*
X017500Y007870D02*
X017500Y008400D01*
X017400Y008400D02*
X017400Y007870D01*
X017300Y007870D02*
X017300Y008400D01*
X017200Y008400D02*
X017200Y007870D01*
X017100Y007870D02*
X017100Y008400D01*
X017000Y008400D02*
X017000Y007870D01*
X016900Y007870D02*
X016900Y008400D01*
X016800Y008400D02*
X016800Y007870D01*
X016700Y007870D02*
X016700Y008400D01*
X016600Y008400D02*
X016600Y008212D01*
X016605Y008200D02*
X017600Y008200D01*
X017600Y008300D02*
X016553Y008300D01*
X016500Y008353D02*
X016500Y008400D01*
X015800Y008600D02*
X015500Y008300D01*
X007600Y008300D01*
X008083Y007900D02*
X008083Y007900D01*
X009795Y007900D01*
X009780Y007864D01*
X009780Y007736D01*
X009804Y007679D01*
X009583Y007900D01*
X008083Y007900D01*
X008100Y007900D02*
X008100Y007900D01*
X008200Y007900D02*
X008200Y007900D01*
X008300Y007900D02*
X008300Y007900D01*
X008400Y007900D02*
X008400Y007900D01*
X008500Y007900D02*
X008500Y007900D01*
X008600Y007900D02*
X008600Y007900D01*
X008700Y007900D02*
X008700Y007900D01*
X008800Y007900D02*
X008800Y007900D01*
X008900Y007900D02*
X008900Y007900D01*
X009000Y007900D02*
X009000Y007900D01*
X009100Y007900D02*
X009100Y007900D01*
X009200Y007900D02*
X009200Y007900D01*
X009300Y007900D02*
X009300Y007900D01*
X009400Y007900D02*
X009400Y007900D01*
X009500Y007900D02*
X009500Y007900D01*
X009600Y007900D02*
X009600Y007883D01*
X009700Y007900D02*
X009700Y007783D01*
X009683Y007800D02*
X009780Y007800D01*
X009783Y007700D02*
X009795Y007700D01*
X009800Y007688D02*
X009800Y007683D01*
X009979Y007504D02*
X010036Y007480D01*
X010164Y007480D01*
X010281Y007529D01*
X010283Y007530D01*
X010377Y007530D01*
X010329Y007481D01*
X010280Y007364D01*
X010280Y007292D01*
X010100Y007292D01*
X010100Y007480D01*
X010083Y007400D02*
X010295Y007400D01*
X010300Y007412D02*
X010300Y007530D01*
X010347Y007500D02*
X010212Y007500D01*
X010200Y007495D02*
X010200Y007292D01*
X010280Y007300D02*
X010100Y007300D01*
X010100Y007292D02*
X010100Y007383D01*
X009983Y007500D01*
X009979Y007504D01*
X009983Y007500D02*
X009988Y007500D01*
X010000Y007495D02*
X010000Y007483D01*
X009900Y007300D02*
X009900Y007135D01*
X009943Y007092D01*
X010392Y007092D01*
X010600Y007300D01*
X010823Y007530D02*
X010907Y007530D01*
X010880Y007464D01*
X010880Y007460D01*
X010871Y007481D01*
X010823Y007530D01*
X010853Y007500D02*
X010895Y007500D01*
X010900Y007512D02*
X010900Y007530D01*
X011200Y007400D02*
X014000Y007400D01*
X014000Y007100D01*
X013680Y007100D02*
X011312Y007100D01*
X011300Y007095D02*
X011300Y007000D01*
X011264Y007080D02*
X011381Y007129D01*
X011453Y007200D01*
X013695Y007200D01*
X013680Y007164D01*
X013680Y007036D01*
X013695Y007000D01*
X010712Y007000D01*
X010781Y007029D01*
X010871Y007119D01*
X010920Y007236D01*
X010920Y007240D01*
X010929Y007219D01*
X011019Y007129D01*
X011136Y007080D01*
X011264Y007080D01*
X011200Y007080D02*
X011200Y007000D01*
X011100Y007000D02*
X011100Y007095D01*
X011088Y007100D02*
X010853Y007100D01*
X010800Y007047D02*
X010800Y007000D01*
X010712Y007000D02*
X013695Y007000D01*
X013600Y007000D02*
X013600Y007200D01*
X013500Y007200D02*
X013500Y007000D01*
X013400Y007000D02*
X013400Y007200D01*
X013300Y007200D02*
X013300Y007000D01*
X013200Y007000D02*
X013200Y007200D01*
X013100Y007200D02*
X013100Y007000D01*
X013000Y007000D02*
X013000Y007200D01*
X012900Y007200D02*
X012900Y007000D01*
X012800Y007000D02*
X012800Y007200D01*
X012700Y007200D02*
X012700Y007000D01*
X012600Y007000D02*
X012600Y007200D01*
X012500Y007200D02*
X012500Y007000D01*
X012400Y007000D02*
X012400Y007200D01*
X012300Y007200D02*
X012300Y007000D01*
X012200Y007000D02*
X012200Y007200D01*
X012100Y007200D02*
X012100Y007000D01*
X012000Y007000D02*
X012000Y007200D01*
X011900Y007200D02*
X011900Y007000D01*
X011800Y007000D02*
X011800Y007200D01*
X011700Y007200D02*
X011700Y007000D01*
X011600Y007000D02*
X011600Y007200D01*
X011500Y007200D02*
X011500Y007000D01*
X011400Y007000D02*
X011400Y007147D01*
X011000Y007147D02*
X011000Y007000D01*
X010900Y007000D02*
X010900Y007188D01*
X010905Y007200D02*
X010947Y007200D01*
X010900Y006600D02*
X010900Y006200D01*
X011000Y006200D02*
X011000Y006600D01*
X011100Y006600D02*
X011100Y006200D01*
X011200Y006200D02*
X011200Y006600D01*
X011300Y006600D02*
X011300Y006200D01*
X011400Y006200D02*
X011400Y006600D01*
X011500Y006600D02*
X011500Y006200D01*
X011600Y006200D02*
X011600Y006600D01*
X011700Y006600D02*
X011700Y006200D01*
X011800Y006200D02*
X011800Y006600D01*
X011900Y006600D02*
X011900Y006200D01*
X012000Y006200D02*
X012000Y006600D01*
X012100Y006600D02*
X012100Y006200D01*
X012200Y006200D02*
X012200Y006600D01*
X012280Y006564D02*
X012295Y006600D01*
X009617Y006600D01*
X009600Y006600D01*
X009600Y006617D02*
X009617Y006600D01*
X009600Y006617D02*
X009600Y006283D01*
X009600Y006617D01*
X009700Y006600D02*
X009700Y006200D01*
X009683Y006200D02*
X009600Y006283D01*
X009600Y006300D02*
X012347Y006300D01*
X012329Y006319D02*
X012419Y006229D01*
X012488Y006200D01*
X009683Y006200D01*
X012488Y006200D01*
X012400Y006200D02*
X012400Y006247D01*
X012329Y006319D02*
X012280Y006436D01*
X012280Y006564D01*
X012280Y006500D02*
X009600Y006500D01*
X009600Y006400D02*
X012295Y006400D01*
X012300Y006388D02*
X012300Y006200D01*
X012600Y006000D02*
X012700Y005900D01*
X012600Y006000D02*
X009600Y006000D01*
X009400Y006200D01*
X009400Y006900D01*
X009300Y007000D01*
X006700Y007000D01*
X006500Y007200D01*
X006500Y007800D01*
X006180Y007800D02*
X005153Y007800D01*
X005171Y007781D02*
X005118Y007835D01*
X005283Y008000D01*
X006247Y008000D01*
X006229Y007981D01*
X006180Y007864D01*
X006180Y007736D01*
X006229Y007619D01*
X006300Y007547D01*
X006300Y007117D01*
X006300Y005151D01*
X006346Y005170D02*
X006247Y005129D01*
X006171Y005053D01*
X006130Y004954D01*
X006130Y004583D01*
X006129Y004581D01*
X006080Y004464D01*
X006080Y004370D01*
X004300Y004370D01*
X004300Y005330D01*
X004354Y005330D01*
X004453Y005371D01*
X004529Y005447D01*
X004570Y005546D01*
X004570Y007054D01*
X004529Y007153D01*
X004453Y007229D01*
X004354Y007270D01*
X004300Y007270D01*
X004300Y007380D01*
X004364Y007380D01*
X004481Y007429D01*
X004571Y007519D01*
X004580Y007540D01*
X004580Y007536D01*
X004629Y007419D01*
X004719Y007329D01*
X004836Y007280D01*
X004964Y007280D01*
X005081Y007329D01*
X005171Y007419D01*
X005220Y007536D01*
X005220Y007664D01*
X005171Y007781D01*
X005200Y007712D02*
X005200Y007917D01*
X005183Y007900D02*
X006195Y007900D01*
X006200Y007912D02*
X006200Y008000D01*
X006100Y008000D02*
X006100Y004512D01*
X006095Y004500D02*
X004300Y004500D01*
X004300Y004400D02*
X006080Y004400D01*
X006000Y004370D02*
X006000Y008000D01*
X005900Y008000D02*
X005900Y004370D01*
X005800Y004370D02*
X005800Y008000D01*
X005700Y008000D02*
X005700Y004370D01*
X005600Y004370D02*
X005600Y008000D01*
X005500Y008000D02*
X005500Y004370D01*
X005400Y004370D02*
X005400Y008000D01*
X005300Y008000D02*
X005300Y004370D01*
X005200Y004370D02*
X005200Y007488D01*
X005205Y007500D02*
X006300Y007500D01*
X006300Y007400D02*
X005153Y007400D01*
X005100Y007347D02*
X005100Y004370D01*
X005000Y004370D02*
X005000Y007295D01*
X005012Y007300D02*
X006300Y007300D01*
X006300Y007200D02*
X004482Y007200D01*
X004500Y007182D02*
X004500Y007447D01*
X004553Y007500D02*
X004595Y007500D01*
X004600Y007488D02*
X004600Y004370D01*
X004700Y004370D02*
X004700Y007347D01*
X004647Y007400D02*
X004412Y007400D01*
X004400Y007395D02*
X004400Y007251D01*
X004300Y007270D02*
X004300Y007380D01*
X004300Y007300D02*
X004788Y007300D01*
X004800Y007295D02*
X004800Y004370D01*
X004900Y004370D02*
X004900Y007280D01*
X004551Y007100D02*
X006317Y007100D01*
X006300Y007117D02*
X006500Y006917D01*
X006500Y005170D01*
X006400Y005170D02*
X006400Y007017D01*
X006417Y007000D02*
X004570Y007000D01*
X004570Y006900D02*
X006517Y006900D01*
X006500Y006917D02*
X006617Y006800D01*
X004570Y006800D01*
X004570Y006700D02*
X009200Y006700D01*
X009200Y006800D02*
X009200Y006117D01*
X009200Y005170D01*
X009300Y005170D02*
X009300Y006017D01*
X009317Y006000D02*
X004570Y006000D01*
X004570Y005900D02*
X009417Y005900D01*
X009400Y005917D02*
X009400Y005170D01*
X009500Y005170D02*
X009500Y005817D01*
X009517Y005800D02*
X004570Y005800D01*
X004570Y005700D02*
X012447Y005700D01*
X012429Y005719D02*
X012519Y005629D01*
X012636Y005580D01*
X012764Y005580D01*
X012881Y005629D01*
X012971Y005719D01*
X013009Y005809D01*
X013217Y005600D01*
X012812Y005600D01*
X012800Y005595D02*
X012800Y005170D01*
X012900Y005170D02*
X012900Y005647D01*
X012953Y005700D02*
X013117Y005700D01*
X013100Y005717D02*
X013100Y005170D01*
X013200Y005170D02*
X013200Y005617D01*
X013217Y005600D02*
X015300Y005600D01*
X015300Y005393D01*
X015300Y004807D01*
X015300Y004393D01*
X015300Y003807D01*
X015300Y003800D01*
X014620Y003800D01*
X014620Y003864D01*
X014571Y003981D01*
X014481Y004071D01*
X014364Y004120D01*
X014236Y004120D01*
X014119Y004071D01*
X014029Y003981D01*
X014020Y003960D01*
X014020Y003964D01*
X013971Y004081D01*
X013881Y004171D01*
X013764Y004220D01*
X013636Y004220D01*
X013519Y004171D01*
X013429Y004081D01*
X013380Y003964D01*
X013380Y003836D01*
X013429Y003719D01*
X013500Y003647D01*
X013500Y003600D01*
X013083Y003600D01*
X013100Y003617D01*
X013100Y003847D01*
X013100Y003600D01*
X013083Y003600D02*
X013500Y003600D01*
X013400Y003600D02*
X013400Y003788D01*
X013395Y003800D02*
X013100Y003800D01*
X013100Y003847D02*
X013171Y003919D01*
X013220Y004036D01*
X013220Y004164D01*
X013193Y004230D01*
X014217Y004230D01*
X014219Y004229D01*
X014336Y004180D01*
X014464Y004180D01*
X014581Y004229D01*
X014671Y004319D01*
X014720Y004436D01*
X014720Y004564D01*
X014708Y004592D01*
X014736Y004580D01*
X014864Y004580D01*
X014981Y004629D01*
X015071Y004719D01*
X015120Y004836D01*
X015120Y004964D01*
X015071Y005081D01*
X014981Y005171D01*
X014864Y005220D01*
X014736Y005220D01*
X014619Y005171D01*
X014617Y005170D01*
X010183Y005170D01*
X010181Y005171D01*
X010064Y005220D01*
X009936Y005220D01*
X009819Y005171D01*
X009817Y005170D01*
X006346Y005170D01*
X006218Y005100D02*
X004300Y005100D01*
X004300Y005000D02*
X006149Y005000D01*
X006200Y005082D02*
X006200Y007688D01*
X006195Y007700D02*
X005205Y007700D01*
X005220Y007600D02*
X006247Y007600D01*
X006900Y007400D02*
X009400Y007400D01*
X009600Y007200D01*
X009600Y006900D01*
X009700Y006800D01*
X015100Y006800D01*
X015400Y007100D01*
X016600Y007100D01*
X016600Y004300D01*
X016700Y004200D01*
X016700Y004100D01*
X016380Y004100D02*
X016007Y004100D01*
X016300Y004393D01*
X016300Y004807D01*
X016007Y005100D01*
X016400Y005100D01*
X016400Y005000D02*
X016107Y005000D01*
X016100Y005007D02*
X016100Y005193D01*
X016107Y005200D02*
X016400Y005200D01*
X016400Y005300D02*
X016207Y005300D01*
X016200Y005293D02*
X016200Y004907D01*
X016207Y004900D02*
X016400Y004900D01*
X016400Y004800D02*
X016300Y004800D01*
X016300Y004700D02*
X016400Y004700D01*
X016400Y004600D02*
X016300Y004600D01*
X016300Y004500D02*
X016400Y004500D01*
X016400Y004400D02*
X016300Y004400D01*
X016207Y004300D02*
X016400Y004300D01*
X016400Y004217D02*
X016400Y004212D01*
X016402Y004216D02*
X016380Y004164D01*
X016380Y004036D01*
X016429Y003919D01*
X016519Y003829D01*
X016588Y003800D01*
X016300Y003800D01*
X016300Y006900D01*
X016347Y006900D02*
X016400Y006847D01*
X016400Y004217D01*
X016402Y004216D01*
X016395Y004200D02*
X016107Y004200D01*
X016100Y004193D02*
X016100Y004007D01*
X016107Y004000D02*
X016395Y004000D01*
X016400Y003988D02*
X016400Y003800D01*
X016500Y003800D02*
X016500Y003847D01*
X016447Y003900D02*
X016207Y003900D01*
X016200Y003907D02*
X016200Y004293D01*
X016007Y004100D02*
X015593Y004100D01*
X014412Y004100D01*
X014400Y004105D02*
X014400Y004180D01*
X014500Y004195D02*
X014500Y004053D01*
X014553Y004000D02*
X015493Y004000D01*
X015500Y004007D02*
X015500Y004193D01*
X015493Y004200D02*
X014512Y004200D01*
X014600Y004247D02*
X014600Y003912D01*
X014605Y003900D02*
X015393Y003900D01*
X015400Y003907D02*
X015400Y004293D01*
X015393Y004300D02*
X014653Y004300D01*
X014700Y004388D02*
X014700Y003800D01*
X014620Y003800D02*
X015300Y003800D01*
X015300Y003807D02*
X015593Y004100D01*
X015300Y004393D01*
X015300Y004400D02*
X014705Y004400D01*
X014720Y004500D02*
X015300Y004500D01*
X015300Y004600D02*
X014912Y004600D01*
X014900Y004595D02*
X014900Y003800D01*
X014800Y003800D02*
X014800Y004580D01*
X015000Y004647D02*
X015000Y003800D01*
X015100Y003800D02*
X015100Y004788D01*
X015105Y004800D02*
X015300Y004800D01*
X015300Y004807D02*
X015593Y005100D01*
X015053Y005100D01*
X015000Y005153D02*
X015000Y005600D01*
X015100Y005600D02*
X015100Y005012D01*
X015105Y005000D02*
X015493Y005000D01*
X015500Y005007D02*
X015500Y005193D01*
X015493Y005200D02*
X014912Y005200D01*
X014900Y005205D02*
X014900Y005600D01*
X014800Y005600D02*
X014800Y005220D01*
X014700Y005205D02*
X014700Y005600D01*
X014600Y005600D02*
X014600Y005170D01*
X014688Y005200D02*
X010112Y005200D01*
X010100Y005205D02*
X010100Y005800D01*
X010000Y005800D02*
X010000Y005220D01*
X009900Y005205D02*
X009900Y005800D01*
X009800Y005800D02*
X009800Y005170D01*
X009888Y005200D02*
X004300Y005200D01*
X004300Y005300D02*
X015393Y005300D01*
X015400Y005293D02*
X015400Y004907D01*
X015393Y004900D02*
X015120Y004900D01*
X015053Y004700D02*
X015300Y004700D01*
X015593Y005100D02*
X016007Y005100D01*
X016300Y005393D01*
X016300Y005807D01*
X016007Y006100D01*
X016400Y006100D01*
X016400Y006000D02*
X016107Y006000D01*
X016100Y006007D02*
X016100Y006193D01*
X016107Y006200D02*
X016400Y006200D01*
X016400Y006300D02*
X016207Y006300D01*
X016200Y006293D02*
X016200Y005907D01*
X016207Y005900D02*
X016400Y005900D01*
X016400Y005800D02*
X016300Y005800D01*
X016300Y005700D02*
X016400Y005700D01*
X016400Y005600D02*
X016300Y005600D01*
X016300Y005500D02*
X016400Y005500D01*
X016400Y005400D02*
X016300Y005400D01*
X016007Y005100D02*
X015593Y005100D01*
X015300Y005393D01*
X015300Y005400D02*
X004482Y005400D01*
X004500Y005418D02*
X004500Y004370D01*
X004400Y004370D02*
X004400Y005349D01*
X004300Y005330D02*
X004300Y004370D01*
X004300Y004600D02*
X006130Y004600D01*
X006130Y004700D02*
X004300Y004700D01*
X004300Y004800D02*
X006130Y004800D01*
X006130Y004900D02*
X004300Y004900D01*
X004551Y005500D02*
X015300Y005500D01*
X015200Y005600D02*
X015200Y003800D01*
X015593Y004100D02*
X016007Y004100D01*
X016300Y003807D01*
X016300Y003800D01*
X016588Y003800D01*
X016812Y003800D02*
X016881Y003829D01*
X016971Y003919D01*
X017020Y004036D01*
X017020Y004164D01*
X016971Y004281D01*
X016881Y004371D01*
X016800Y004405D01*
X016800Y004847D01*
X016800Y004405D01*
X016812Y004400D02*
X017588Y004400D01*
X017600Y004405D02*
X017519Y004371D01*
X017429Y004281D01*
X017380Y004164D01*
X017380Y004036D01*
X017429Y003919D01*
X017519Y003829D01*
X017588Y003800D01*
X016812Y003800D01*
X017588Y003800D01*
X017500Y003800D02*
X017500Y003847D01*
X017447Y003900D02*
X016953Y003900D01*
X016900Y003847D02*
X016900Y003800D01*
X017000Y003800D02*
X017000Y003988D01*
X017005Y004000D02*
X017395Y004000D01*
X017400Y003988D02*
X017400Y003800D01*
X017300Y003800D02*
X017300Y004847D01*
X017319Y004829D02*
X017436Y004780D01*
X017564Y004780D01*
X017600Y004795D01*
X017600Y004405D01*
X017600Y004500D02*
X016800Y004500D01*
X016800Y004600D02*
X017600Y004600D01*
X017600Y004700D02*
X016800Y004700D01*
X016800Y004800D02*
X016888Y004800D01*
X016900Y004795D02*
X016900Y004353D01*
X016953Y004300D02*
X017447Y004300D01*
X017500Y004353D02*
X017500Y004780D01*
X017400Y004795D02*
X017400Y004212D01*
X017395Y004200D02*
X017005Y004200D01*
X017000Y004212D02*
X017000Y004780D01*
X017064Y004780D02*
X017181Y004829D01*
X017250Y004897D01*
X017319Y004829D01*
X017388Y004800D02*
X017112Y004800D01*
X017100Y004795D02*
X017100Y003800D01*
X017200Y003800D02*
X017200Y004847D01*
X017064Y004780D02*
X016936Y004780D01*
X016819Y004829D01*
X016800Y004847D01*
X017000Y005100D02*
X017000Y006800D01*
X017100Y007100D01*
X017211Y006799D02*
X017230Y006807D01*
X017230Y005323D01*
X017200Y005353D01*
X017200Y006768D01*
X017200Y005353D01*
X017200Y005400D02*
X017230Y005400D01*
X017230Y005500D02*
X017200Y005500D01*
X017200Y005600D02*
X017230Y005600D01*
X017230Y005700D02*
X017200Y005700D01*
X017200Y005800D02*
X017230Y005800D01*
X017230Y005900D02*
X017200Y005900D01*
X017200Y006000D02*
X017230Y006000D01*
X017230Y006100D02*
X017200Y006100D01*
X017200Y006200D02*
X017230Y006200D01*
X017230Y006300D02*
X017200Y006300D01*
X017200Y006400D02*
X017230Y006400D01*
X017230Y006500D02*
X017200Y006500D01*
X017200Y006600D02*
X017230Y006600D01*
X017230Y006700D02*
X017200Y006700D01*
X017200Y006768D02*
X017211Y006799D01*
X017212Y006800D02*
X017230Y006800D01*
X016800Y006832D02*
X016800Y006847D01*
X016800Y006847D01*
X016800Y006832D01*
X016800Y006832D01*
X016800Y006753D02*
X016800Y006753D01*
X016800Y005353D01*
X016800Y005353D01*
X016800Y006753D01*
X016800Y006700D02*
X016800Y006700D01*
X016800Y006600D02*
X016800Y006600D01*
X016800Y006500D02*
X016800Y006500D01*
X016800Y006400D02*
X016800Y006400D01*
X016800Y006300D02*
X016800Y006300D01*
X016800Y006200D02*
X016800Y006200D01*
X016800Y006100D02*
X016800Y006100D01*
X016800Y006000D02*
X016800Y006000D01*
X016800Y005900D02*
X016800Y005900D01*
X016800Y005800D02*
X016800Y005800D01*
X016800Y005700D02*
X016800Y005700D01*
X016800Y005600D02*
X016800Y005600D01*
X016800Y005500D02*
X016800Y005500D01*
X016800Y005400D02*
X016800Y005400D01*
X016000Y005100D02*
X016000Y005100D01*
X015900Y005100D02*
X015900Y005100D01*
X015800Y005100D02*
X015800Y005100D01*
X015700Y005100D02*
X015700Y005100D01*
X015600Y005100D02*
X015600Y005100D01*
X015800Y005600D02*
X015600Y005800D01*
X013300Y005800D01*
X012600Y006500D01*
X012920Y006500D02*
X013080Y006500D01*
X013080Y006564D02*
X013080Y006436D01*
X013129Y006319D01*
X013219Y006229D01*
X013336Y006180D01*
X013464Y006180D01*
X013581Y006229D01*
X013653Y006300D01*
X015393Y006300D01*
X015593Y006100D01*
X013283Y006100D01*
X013300Y006083D02*
X013300Y006195D01*
X013288Y006200D02*
X013183Y006200D01*
X013200Y006183D02*
X013200Y006247D01*
X013147Y006300D02*
X013083Y006300D01*
X013100Y006283D02*
X013100Y006388D01*
X013095Y006400D02*
X012983Y006400D01*
X013000Y006383D02*
X013000Y006600D01*
X012920Y006564D02*
X012905Y006600D01*
X013095Y006600D01*
X013080Y006564D01*
X012920Y006564D02*
X012920Y006463D01*
X013383Y006000D01*
X015493Y006000D01*
X013383Y006000D01*
X013400Y006000D02*
X013400Y006180D01*
X013500Y006195D02*
X013500Y006000D01*
X013600Y006000D02*
X013600Y006247D01*
X013512Y006200D02*
X015493Y006200D01*
X015500Y006193D02*
X015500Y006007D01*
X015493Y006000D02*
X015593Y006100D01*
X016007Y006100D01*
X016300Y006393D01*
X016300Y006807D01*
X016207Y006900D01*
X016347Y006900D01*
X016300Y006800D02*
X016400Y006800D01*
X016400Y006700D02*
X016300Y006700D01*
X016300Y006600D02*
X016400Y006600D01*
X016400Y006500D02*
X016300Y006500D01*
X016300Y006400D02*
X016400Y006400D01*
X016007Y006100D02*
X015593Y006100D01*
X015600Y006100D02*
X015600Y006100D01*
X015700Y006100D02*
X015700Y006100D01*
X015800Y006100D02*
X015800Y006100D01*
X015900Y006100D02*
X015900Y006100D01*
X016000Y006100D02*
X016000Y006100D01*
X015700Y006500D02*
X013400Y006500D01*
X013700Y006300D02*
X013700Y006000D01*
X013800Y006000D02*
X013800Y006300D01*
X013900Y006300D02*
X013900Y006000D01*
X014000Y006000D02*
X014000Y006300D01*
X014100Y006300D02*
X014100Y006000D01*
X014200Y006000D02*
X014200Y006300D01*
X014300Y006300D02*
X014300Y006000D01*
X014400Y006000D02*
X014400Y006300D01*
X014500Y006300D02*
X014500Y006000D01*
X014600Y006000D02*
X014600Y006300D01*
X014700Y006300D02*
X014700Y006000D01*
X014800Y006000D02*
X014800Y006300D01*
X014900Y006300D02*
X014900Y006000D01*
X015000Y006000D02*
X015000Y006300D01*
X015100Y006300D02*
X015100Y006000D01*
X015200Y006000D02*
X015200Y006300D01*
X015300Y006300D02*
X015300Y006000D01*
X015400Y006000D02*
X015400Y006293D01*
X015700Y006500D02*
X015800Y006600D01*
X015300Y006700D02*
X015283Y006700D01*
X015300Y006717D01*
X015300Y006700D01*
X015283Y006700D01*
X015017Y007000D02*
X014305Y007000D01*
X015017Y007000D01*
X015200Y007183D01*
X015200Y007330D01*
X015300Y007330D02*
X015300Y007283D01*
X015317Y007300D02*
X015200Y007183D01*
X015217Y007200D02*
X014305Y007200D01*
X014300Y007212D02*
X014300Y007530D01*
X014200Y007530D02*
X014200Y007353D01*
X014200Y007483D01*
X014153Y007530D01*
X014617Y007530D01*
X014619Y007529D01*
X014736Y007480D01*
X014738Y007480D01*
X014847Y007371D01*
X014946Y007330D01*
X015363Y007330D01*
X015393Y007300D01*
X015317Y007300D01*
X015393Y007300D02*
X014253Y007300D01*
X014271Y007281D02*
X014200Y007353D01*
X014200Y007400D02*
X014818Y007400D01*
X014800Y007418D02*
X014800Y007000D01*
X014900Y007000D02*
X014900Y007349D01*
X015000Y007330D02*
X015000Y007000D01*
X015100Y007083D02*
X015100Y007330D01*
X015117Y007100D02*
X014320Y007100D01*
X014320Y007164D02*
X014271Y007281D01*
X014320Y007164D02*
X014320Y007036D01*
X014305Y007000D01*
X014400Y007000D02*
X014400Y007530D01*
X014500Y007530D02*
X014500Y007000D01*
X014600Y007000D02*
X014600Y007530D01*
X014688Y007500D02*
X014183Y007500D01*
X014700Y007495D02*
X014700Y007000D01*
X015117Y007870D02*
X015105Y007900D01*
X015393Y007900D01*
X015363Y007870D01*
X015117Y007870D01*
X015200Y007870D02*
X015200Y007900D01*
X015300Y007900D02*
X015300Y007870D01*
X016207Y007300D02*
X016237Y007330D01*
X016377Y007330D01*
X016347Y007300D01*
X016207Y007300D01*
X016347Y007300D01*
X016300Y007300D02*
X016300Y007330D01*
X017700Y008600D02*
X017800Y008500D01*
X017800Y004200D01*
X017700Y004100D01*
X017380Y004100D02*
X017020Y004100D01*
X018000Y003600D02*
X015800Y003600D01*
X014500Y003600D01*
X014300Y003800D01*
X014000Y003688D02*
X014000Y002100D01*
X014007Y002100D02*
X013593Y002100D01*
X013300Y001807D01*
X013300Y003200D01*
X013400Y003200D02*
X013400Y001907D01*
X013393Y001900D02*
X013207Y001900D01*
X013200Y001907D02*
X013200Y003200D01*
X013100Y003200D02*
X013100Y002007D01*
X013107Y002000D02*
X013493Y002000D01*
X013500Y002007D02*
X013500Y003200D01*
X013600Y003200D02*
X013600Y002100D01*
X013700Y002100D02*
X013700Y003217D01*
X013683Y003200D02*
X015493Y003200D01*
X015500Y003193D02*
X015500Y003007D01*
X015493Y003000D02*
X011283Y003000D01*
X011300Y003017D02*
X011300Y001807D01*
X011007Y002100D01*
X010593Y002100D01*
X010300Y001807D01*
X010300Y002400D01*
X010400Y002400D02*
X010400Y001907D01*
X010393Y001900D02*
X010207Y001900D01*
X010200Y001907D02*
X010200Y002400D01*
X010100Y002400D02*
X010100Y002007D01*
X010107Y002000D02*
X010493Y002000D01*
X010500Y002007D02*
X010500Y002400D01*
X010600Y002400D02*
X010600Y002100D01*
X010700Y002100D02*
X010700Y002417D01*
X010683Y002400D02*
X015300Y002400D01*
X015300Y002393D02*
X015300Y000700D01*
X015400Y000700D02*
X015400Y002293D01*
X015393Y002300D02*
X004300Y002300D01*
X004300Y002200D02*
X015493Y002200D01*
X015500Y002193D02*
X015500Y000700D01*
X015600Y000700D02*
X015600Y002100D01*
X015593Y002100D02*
X004300Y002100D01*
X004300Y002000D02*
X004493Y002000D01*
X004500Y002007D02*
X004500Y002400D01*
X004400Y002400D02*
X004400Y001907D01*
X004393Y001900D02*
X004300Y001900D01*
X004300Y001807D02*
X004300Y002400D01*
X010683Y002400D01*
X011483Y003200D01*
X013683Y003200D01*
X013800Y003317D01*
X013900Y003417D01*
X013900Y003647D01*
X013971Y003719D01*
X013980Y003740D01*
X013980Y003736D01*
X014029Y003619D01*
X014119Y003529D01*
X014236Y003480D01*
X014337Y003480D01*
X014417Y003400D01*
X013883Y003400D01*
X013900Y003500D02*
X014188Y003500D01*
X014200Y003495D02*
X014200Y001907D01*
X014207Y001900D02*
X014435Y001900D01*
X014400Y001865D02*
X014400Y003417D01*
X014417Y003400D02*
X015300Y003400D01*
X015300Y003393D01*
X015300Y002807D01*
X015300Y002393D01*
X015593Y002100D01*
X016007Y002100D01*
X017900Y002100D01*
X017900Y002000D02*
X015065Y002000D01*
X015100Y001965D02*
X015100Y003400D01*
X015000Y003400D02*
X015000Y002065D01*
X014995Y002070D02*
X014850Y002070D01*
X014850Y001650D01*
X014750Y001650D01*
X014750Y002070D01*
X014605Y002070D01*
X014330Y001795D01*
X014330Y001650D01*
X014750Y001650D01*
X014750Y001550D01*
X014330Y001550D01*
X014330Y001405D01*
X014605Y001130D01*
X014750Y001130D01*
X014750Y001550D01*
X014850Y001550D01*
X014850Y001650D01*
X015270Y001650D01*
X015270Y001795D01*
X014995Y002070D01*
X014900Y002070D02*
X014900Y003400D01*
X014800Y003400D02*
X014800Y001650D01*
X014750Y001700D02*
X014850Y001700D01*
X014900Y001650D02*
X014900Y001550D01*
X014850Y001550D02*
X015270Y001550D01*
X015270Y001405D01*
X014995Y001130D01*
X014850Y001130D01*
X014850Y001550D01*
X014800Y001550D02*
X014800Y000700D01*
X014900Y000700D02*
X014900Y001130D01*
X014850Y001200D02*
X014750Y001200D01*
X014700Y001130D02*
X014700Y000700D01*
X014600Y000700D02*
X014600Y001135D01*
X014535Y001200D02*
X014107Y001200D01*
X014100Y001193D02*
X014100Y000700D01*
X014000Y000700D02*
X014000Y001100D01*
X014007Y001100D02*
X016815Y001100D01*
X016800Y001064D02*
X016800Y002400D01*
X016900Y002400D02*
X016900Y001219D01*
X016881Y001200D02*
X015065Y001200D01*
X015100Y001235D02*
X015100Y000700D01*
X015000Y000700D02*
X015000Y001135D01*
X014850Y001300D02*
X014750Y001300D01*
X014750Y001400D02*
X014850Y001400D01*
X014850Y001500D02*
X014750Y001500D01*
X014700Y001550D02*
X014700Y001650D01*
X014750Y001600D02*
X014300Y001600D01*
X014300Y001500D02*
X014330Y001500D01*
X014400Y001550D02*
X014400Y001650D01*
X014330Y001700D02*
X014300Y001700D01*
X014300Y001800D02*
X014335Y001800D01*
X014300Y001807D02*
X014007Y002100D01*
X013900Y002100D02*
X013900Y003647D01*
X013900Y003600D02*
X014047Y003600D01*
X014100Y003547D02*
X014100Y002007D01*
X014107Y002000D02*
X014535Y002000D01*
X014500Y001965D02*
X014500Y003400D01*
X014600Y003400D02*
X014600Y002065D01*
X014700Y002070D02*
X014700Y003400D01*
X014300Y003480D02*
X014300Y000700D01*
X014200Y000700D02*
X014200Y001293D01*
X014207Y001300D02*
X014435Y001300D01*
X014400Y001335D02*
X014400Y000700D01*
X014500Y000700D02*
X014500Y001235D01*
X014335Y001400D02*
X014300Y001400D01*
X014300Y001393D02*
X014007Y001100D01*
X013593Y001100D01*
X013007Y001100D01*
X013300Y001393D01*
X013300Y000700D01*
X013400Y000700D02*
X013400Y001293D01*
X013393Y001300D02*
X013207Y001300D01*
X013200Y001293D02*
X013200Y000700D01*
X013100Y000700D02*
X013100Y001193D01*
X013107Y001200D02*
X013493Y001200D01*
X013500Y001193D02*
X013500Y000700D01*
X013600Y000700D02*
X013600Y001100D01*
X013593Y001100D02*
X013300Y001393D01*
X013300Y001807D01*
X013007Y002100D01*
X012593Y002100D01*
X012300Y001807D01*
X012300Y003200D01*
X012200Y003200D02*
X012200Y001907D01*
X012207Y001900D02*
X012393Y001900D01*
X012400Y001907D02*
X012400Y003200D01*
X012500Y003200D02*
X012500Y002007D01*
X012493Y002000D02*
X012107Y002000D01*
X012100Y002007D02*
X012100Y003200D01*
X012000Y003200D02*
X012000Y002100D01*
X012007Y002100D02*
X011593Y002100D01*
X011300Y001807D01*
X011300Y001393D01*
X011300Y000700D01*
X011400Y000700D02*
X011400Y001293D01*
X011393Y001300D02*
X011207Y001300D01*
X011200Y001293D02*
X011200Y000700D01*
X011100Y000700D02*
X011100Y001193D01*
X011107Y001200D02*
X011493Y001200D01*
X011500Y001193D02*
X011500Y000700D01*
X011600Y000700D02*
X011600Y001100D01*
X011593Y001100D02*
X011007Y001100D01*
X011300Y001393D01*
X011593Y001100D01*
X012007Y001100D01*
X012593Y001100D01*
X013007Y001100D01*
X013000Y001100D02*
X013000Y000700D01*
X012900Y000700D02*
X012900Y001100D01*
X012800Y001100D02*
X012800Y000700D01*
X012700Y000700D02*
X012700Y001100D01*
X012600Y001100D02*
X012600Y000700D01*
X012500Y000700D02*
X012500Y001193D01*
X012493Y001200D02*
X012107Y001200D01*
X012100Y001193D02*
X012100Y000700D01*
X012000Y000700D02*
X012000Y001100D01*
X012007Y001100D02*
X012300Y001393D01*
X012300Y000700D01*
X012200Y000700D02*
X012200Y001293D01*
X012207Y001300D02*
X012393Y001300D01*
X012400Y001293D02*
X012400Y000700D01*
X012593Y001100D02*
X012300Y001393D01*
X012300Y001807D01*
X012007Y002100D01*
X011900Y002100D02*
X011900Y003200D01*
X011800Y003200D02*
X011800Y002100D01*
X011700Y002100D02*
X011700Y003200D01*
X011600Y003200D02*
X011600Y002100D01*
X011500Y002007D02*
X011500Y003200D01*
X011400Y003117D02*
X011400Y001907D01*
X011393Y001900D02*
X011207Y001900D01*
X011200Y001907D02*
X011200Y002917D01*
X011183Y002900D02*
X015393Y002900D01*
X015400Y002907D02*
X015400Y003293D01*
X015393Y003300D02*
X013783Y003300D01*
X013800Y003317D02*
X013800Y002100D01*
X014300Y001807D02*
X014300Y001393D01*
X014500Y001550D02*
X014500Y001650D01*
X014600Y001650D02*
X014600Y001550D01*
X014850Y001600D02*
X017850Y001600D01*
X017850Y001617D02*
X017850Y000800D01*
X017844Y000800D01*
X017850Y000800D02*
X017840Y000700D01*
X017826Y000700D01*
X017844Y000742D01*
X017844Y000958D01*
X017761Y001158D01*
X017608Y001311D01*
X017408Y001394D01*
X017192Y001394D01*
X016992Y001311D01*
X016839Y001158D01*
X016756Y000958D01*
X016756Y000742D01*
X016774Y000700D01*
X004300Y000700D01*
X004300Y001393D01*
X004593Y001100D01*
X004300Y001100D01*
X004300Y001000D02*
X016774Y001000D01*
X016756Y000900D02*
X004300Y000900D01*
X004300Y000800D02*
X016756Y000800D01*
X016774Y000700D02*
X004300Y000700D01*
X004300Y002400D01*
X004600Y002400D02*
X004600Y002100D01*
X004593Y002100D02*
X004300Y001807D01*
X004300Y001393D01*
X004300Y001300D02*
X004393Y001300D01*
X004400Y001293D02*
X004400Y000700D01*
X004500Y000700D02*
X004500Y001193D01*
X004493Y001200D02*
X004300Y001200D01*
X004593Y001100D02*
X005007Y001100D01*
X005593Y001100D01*
X006007Y001100D01*
X006593Y001100D01*
X007007Y001100D01*
X007593Y001100D01*
X008007Y001100D01*
X008593Y001100D01*
X009007Y001100D01*
X009593Y001100D01*
X010007Y001100D01*
X010593Y001100D01*
X011007Y001100D01*
X011000Y001100D02*
X011000Y000700D01*
X010900Y000700D02*
X010900Y001100D01*
X010800Y001100D02*
X010800Y000700D01*
X010700Y000700D02*
X010700Y001100D01*
X010600Y001100D02*
X010600Y000700D01*
X010500Y000700D02*
X010500Y001193D01*
X010493Y001200D02*
X010107Y001200D01*
X010100Y001193D02*
X010100Y000700D01*
X010000Y000700D02*
X010000Y001100D01*
X010007Y001100D02*
X010300Y001393D01*
X010300Y000700D01*
X010400Y000700D02*
X010400Y001293D01*
X010393Y001300D02*
X010207Y001300D01*
X010200Y001293D02*
X010200Y000700D01*
X009900Y000700D02*
X009900Y001100D01*
X009800Y001100D02*
X009800Y000700D01*
X009700Y000700D02*
X009700Y001100D01*
X009600Y001100D02*
X009600Y000700D01*
X009500Y000700D02*
X009500Y001193D01*
X009493Y001200D02*
X009107Y001200D01*
X009100Y001193D02*
X009100Y000700D01*
X009000Y000700D02*
X009000Y001100D01*
X009007Y001100D02*
X009300Y001393D01*
X009300Y000700D01*
X009200Y000700D02*
X009200Y001293D01*
X009207Y001300D02*
X009393Y001300D01*
X009400Y001293D02*
X009400Y000700D01*
X008900Y000700D02*
X008900Y001100D01*
X008800Y001100D02*
X008800Y000700D01*
X008700Y000700D02*
X008700Y001100D01*
X008600Y001100D02*
X008600Y000700D01*
X008500Y000700D02*
X008500Y001193D01*
X008493Y001200D02*
X008107Y001200D01*
X008100Y001193D02*
X008100Y000700D01*
X008200Y000700D02*
X008200Y001293D01*
X008207Y001300D02*
X008393Y001300D01*
X008400Y001293D02*
X008400Y000700D01*
X008300Y000700D02*
X008300Y001393D01*
X008007Y001100D01*
X008000Y001100D02*
X008000Y000700D01*
X007900Y000700D02*
X007900Y001100D01*
X007800Y001100D02*
X007800Y000700D01*
X007700Y000700D02*
X007700Y001100D01*
X007600Y001100D02*
X007600Y000700D01*
X007500Y000700D02*
X007500Y001193D01*
X007493Y001200D02*
X007107Y001200D01*
X007100Y001193D02*
X007100Y000700D01*
X007000Y000700D02*
X007000Y001100D01*
X007007Y001100D02*
X007300Y001393D01*
X007300Y000700D01*
X007200Y000700D02*
X007200Y001293D01*
X007207Y001300D02*
X007393Y001300D01*
X007400Y001293D02*
X007400Y000700D01*
X007593Y001100D02*
X007300Y001393D01*
X007300Y001807D01*
X007300Y002400D01*
X007200Y002400D02*
X007200Y001907D01*
X007207Y001900D02*
X007393Y001900D01*
X007400Y001907D02*
X007400Y002400D01*
X007500Y002400D02*
X007500Y002007D01*
X007493Y002000D02*
X007107Y002000D01*
X007100Y002007D02*
X007100Y002400D01*
X007000Y002400D02*
X007000Y002100D01*
X007007Y002100D02*
X006593Y002100D01*
X006300Y001807D01*
X006300Y002400D01*
X006400Y002400D02*
X006400Y001907D01*
X006393Y001900D02*
X006207Y001900D01*
X006200Y001907D02*
X006200Y002400D01*
X006100Y002400D02*
X006100Y002007D01*
X006107Y002000D02*
X006493Y002000D01*
X006500Y002007D02*
X006500Y002400D01*
X006600Y002400D02*
X006600Y002100D01*
X006700Y002100D02*
X006700Y002400D01*
X006800Y002400D02*
X006800Y002100D01*
X006900Y002100D02*
X006900Y002400D01*
X007007Y002100D02*
X007300Y001807D01*
X007300Y001393D01*
X007300Y001400D02*
X007300Y001400D01*
X007300Y001500D02*
X007300Y001500D01*
X007300Y001600D02*
X007300Y001600D01*
X007300Y001700D02*
X007300Y001700D01*
X007300Y001800D02*
X007300Y001800D01*
X007300Y001807D02*
X007593Y002100D01*
X008007Y002100D01*
X008300Y001807D01*
X008300Y002400D01*
X008400Y002400D02*
X008400Y001907D01*
X008393Y001900D02*
X008207Y001900D01*
X008200Y001907D02*
X008200Y002400D01*
X008100Y002400D02*
X008100Y002007D01*
X008107Y002000D02*
X008493Y002000D01*
X008500Y002007D02*
X008500Y002400D01*
X008600Y002400D02*
X008600Y002100D01*
X008593Y002100D02*
X008300Y001807D01*
X008300Y001393D01*
X008593Y001100D01*
X008300Y001393D02*
X008300Y001807D01*
X008300Y001800D02*
X008300Y001800D01*
X008300Y001700D02*
X008300Y001700D01*
X008300Y001600D02*
X008300Y001600D01*
X008300Y001500D02*
X008300Y001500D01*
X008300Y001400D02*
X008300Y001400D01*
X009007Y002100D02*
X009300Y001807D01*
X009300Y002400D01*
X009200Y002400D02*
X009200Y001907D01*
X009207Y001900D02*
X009393Y001900D01*
X009400Y001907D02*
X009400Y002400D01*
X009500Y002400D02*
X009500Y002007D01*
X009493Y002000D02*
X009107Y002000D01*
X009100Y002007D02*
X009100Y002400D01*
X009000Y002400D02*
X009000Y002100D01*
X009007Y002100D02*
X008593Y002100D01*
X008700Y002100D02*
X008700Y002400D01*
X008800Y002400D02*
X008800Y002100D01*
X008900Y002100D02*
X008900Y002400D01*
X008900Y002800D02*
X008900Y002900D01*
X009000Y002900D02*
X009000Y002800D01*
X009100Y002800D02*
X009100Y002900D01*
X009200Y002900D02*
X009200Y002800D01*
X009300Y002800D02*
X009300Y002900D01*
X009400Y002900D02*
X009400Y002800D01*
X009500Y002800D02*
X009500Y002900D01*
X009600Y002900D02*
X009600Y002800D01*
X009700Y002800D02*
X009700Y002900D01*
X009800Y002900D02*
X009800Y002800D01*
X009900Y002800D02*
X009900Y002900D01*
X010000Y002900D02*
X010000Y002800D01*
X010100Y002800D02*
X010100Y002900D01*
X010200Y002900D02*
X010200Y002800D01*
X010300Y002800D02*
X010300Y002900D01*
X010400Y002900D02*
X010400Y002800D01*
X010500Y002800D02*
X010500Y002900D01*
X010583Y002900D02*
X010617Y002900D01*
X010600Y002883D02*
X010600Y002917D01*
X010583Y002900D02*
X010700Y003017D01*
X010700Y003017D01*
X010700Y002983D01*
X010683Y003000D02*
X010717Y003000D01*
X010700Y003017D02*
X011183Y003500D01*
X011217Y003500D01*
X010517Y002800D01*
X004300Y002800D01*
X010517Y002800D01*
X010583Y002900D02*
X004300Y002900D01*
X004300Y002800D01*
X004300Y002900D01*
X004400Y002900D02*
X004400Y002800D01*
X004500Y002800D02*
X004500Y002900D01*
X004600Y002900D02*
X004600Y002800D01*
X004700Y002800D02*
X004700Y002900D01*
X004800Y002900D02*
X004800Y002800D01*
X004900Y002800D02*
X004900Y002900D01*
X005000Y002900D02*
X005000Y002800D01*
X005100Y002800D02*
X005100Y002900D01*
X005200Y002900D02*
X005200Y002800D01*
X005300Y002800D02*
X005300Y002900D01*
X005400Y002900D02*
X005400Y002800D01*
X005500Y002800D02*
X005500Y002900D01*
X005600Y002900D02*
X005600Y002800D01*
X005700Y002800D02*
X005700Y002900D01*
X005800Y002900D02*
X005800Y002800D01*
X005900Y002800D02*
X005900Y002900D01*
X006000Y002900D02*
X006000Y002800D01*
X006100Y002800D02*
X006100Y002900D01*
X006200Y002900D02*
X006200Y002800D01*
X006300Y002800D02*
X006300Y002900D01*
X006400Y002900D02*
X006400Y002800D01*
X006500Y002800D02*
X006500Y002900D01*
X006600Y002900D02*
X006600Y002800D01*
X006700Y002800D02*
X006700Y002900D01*
X006800Y002900D02*
X006800Y002800D01*
X006900Y002800D02*
X006900Y002900D01*
X007000Y002900D02*
X007000Y002800D01*
X007100Y002800D02*
X007100Y002900D01*
X007200Y002900D02*
X007200Y002800D01*
X007300Y002800D02*
X007300Y002900D01*
X007400Y002900D02*
X007400Y002800D01*
X007500Y002800D02*
X007500Y002900D01*
X007600Y002900D02*
X007600Y002800D01*
X007700Y002800D02*
X007700Y002900D01*
X007800Y002900D02*
X007800Y002800D01*
X007900Y002800D02*
X007900Y002900D01*
X008000Y002900D02*
X008000Y002800D01*
X008100Y002800D02*
X008100Y002900D01*
X008200Y002900D02*
X008200Y002800D01*
X008300Y002800D02*
X008300Y002900D01*
X008400Y002900D02*
X008400Y002800D01*
X008500Y002800D02*
X008500Y002900D01*
X008600Y002900D02*
X008600Y002800D01*
X008700Y002800D02*
X008700Y002900D01*
X008800Y002900D02*
X008800Y002800D01*
X008800Y003300D02*
X008800Y004230D01*
X008783Y004230D02*
X011004Y004230D01*
X011062Y004206D01*
X011190Y004206D01*
X011307Y004255D01*
X011397Y004345D01*
X011446Y004462D01*
X011446Y004590D01*
X011429Y004630D01*
X011607Y004630D01*
X011580Y004564D01*
X011580Y004436D01*
X011629Y004319D01*
X011719Y004229D01*
X011836Y004180D01*
X011964Y004180D01*
X012081Y004229D01*
X012083Y004230D01*
X012607Y004230D01*
X012580Y004164D01*
X012580Y004036D01*
X012629Y003919D01*
X012647Y003900D01*
X007270Y003900D01*
X007270Y003800D02*
X010917Y003800D01*
X010900Y003783D02*
X010900Y004230D01*
X011000Y004230D02*
X011000Y003883D01*
X011017Y003900D02*
X010417Y003300D01*
X007253Y003300D01*
X010417Y003300D01*
X010400Y003300D02*
X010400Y004230D01*
X010300Y004230D02*
X010300Y003300D01*
X010200Y003300D02*
X010200Y004230D01*
X010100Y004230D02*
X010100Y003300D01*
X010000Y003300D02*
X010000Y004230D01*
X009900Y004230D02*
X009900Y003300D01*
X009800Y003300D02*
X009800Y004230D01*
X009700Y004230D02*
X009700Y003300D01*
X009600Y003300D02*
X009600Y004230D01*
X009500Y004230D02*
X009500Y003300D01*
X009400Y003300D02*
X009400Y004230D01*
X009300Y004230D02*
X009300Y003300D01*
X009200Y003300D02*
X009200Y004230D01*
X009100Y004230D02*
X009100Y003300D01*
X009000Y003300D02*
X009000Y004230D01*
X008900Y004230D02*
X008900Y003300D01*
X008700Y003300D02*
X008700Y004195D01*
X008712Y004200D02*
X011788Y004200D01*
X011800Y004195D02*
X011800Y003900D01*
X011900Y003900D02*
X011900Y004180D01*
X012000Y004195D02*
X012000Y003900D01*
X012100Y003900D02*
X012100Y004230D01*
X012012Y004200D02*
X012595Y004200D01*
X012600Y004212D02*
X012600Y004230D01*
X012500Y004230D02*
X012500Y003900D01*
X012400Y003900D02*
X012400Y004230D01*
X012300Y004230D02*
X012300Y003900D01*
X012200Y003900D02*
X012200Y004230D01*
X012580Y004100D02*
X007270Y004100D01*
X007270Y004188D02*
X007312Y004230D01*
X008417Y004230D01*
X008419Y004229D01*
X008536Y004180D01*
X008664Y004180D01*
X008781Y004229D01*
X008783Y004230D01*
X008600Y004180D02*
X008600Y003300D01*
X008500Y003300D02*
X008500Y004195D01*
X008488Y004200D02*
X007282Y004200D01*
X007270Y004188D02*
X007270Y003683D01*
X007271Y003681D01*
X007320Y003564D01*
X007320Y003436D01*
X007271Y003319D01*
X007253Y003300D01*
X007300Y003300D02*
X007300Y003388D01*
X007305Y003400D02*
X010517Y003400D01*
X010500Y003383D02*
X010500Y004230D01*
X010600Y004230D02*
X010600Y003483D01*
X010617Y003500D02*
X007320Y003500D01*
X007305Y003600D02*
X010717Y003600D01*
X010700Y003583D02*
X010700Y004230D01*
X010800Y004230D02*
X010800Y003683D01*
X010817Y003700D02*
X007270Y003700D01*
X007300Y003612D02*
X007300Y004218D01*
X007400Y004230D02*
X007400Y003300D01*
X007500Y003300D02*
X007500Y004230D01*
X007600Y004230D02*
X007600Y003300D01*
X007700Y003300D02*
X007700Y004230D01*
X007800Y004230D02*
X007800Y003300D01*
X007900Y003300D02*
X007900Y004230D01*
X008000Y004230D02*
X008000Y003300D01*
X008100Y003300D02*
X008100Y004230D01*
X008200Y004230D02*
X008200Y003300D01*
X008300Y003300D02*
X008300Y004230D01*
X008400Y004230D02*
X008400Y003300D01*
X007270Y004000D02*
X012595Y004000D01*
X012600Y003988D02*
X012600Y003900D01*
X012647Y003900D02*
X011017Y003900D01*
X011100Y003900D02*
X011100Y004206D01*
X011200Y004210D02*
X011200Y003900D01*
X011300Y003900D02*
X011300Y004252D01*
X011353Y004300D02*
X011647Y004300D01*
X011700Y004247D02*
X011700Y003900D01*
X011600Y003900D02*
X011600Y004388D01*
X011595Y004400D02*
X011420Y004400D01*
X011400Y004351D02*
X011400Y003900D01*
X011500Y003900D02*
X011500Y004630D01*
X011442Y004600D02*
X011595Y004600D01*
X011600Y004612D02*
X011600Y004630D01*
X011580Y004500D02*
X011446Y004500D01*
X011400Y005170D02*
X011400Y005800D01*
X011300Y005800D02*
X011300Y005170D01*
X011200Y005170D02*
X011200Y005800D01*
X011100Y005800D02*
X011100Y005170D01*
X011000Y005170D02*
X011000Y005800D01*
X010900Y005800D02*
X010900Y005170D01*
X010800Y005170D02*
X010800Y005800D01*
X010700Y005800D02*
X010700Y005170D01*
X010600Y005170D02*
X010600Y005800D01*
X010500Y005800D02*
X010500Y005170D01*
X010400Y005170D02*
X010400Y005800D01*
X010300Y005800D02*
X010300Y005170D01*
X010200Y005170D02*
X010200Y005800D01*
X010200Y006200D02*
X010200Y006600D01*
X010300Y006600D02*
X010300Y006200D01*
X010400Y006200D02*
X010400Y006600D01*
X010500Y006600D02*
X010500Y006200D01*
X010600Y006200D02*
X010600Y006600D01*
X010700Y006600D02*
X010700Y006200D01*
X010800Y006200D02*
X010800Y006600D01*
X010100Y006600D02*
X010100Y006200D01*
X010000Y006200D02*
X010000Y006600D01*
X009900Y006600D02*
X009900Y006200D01*
X009800Y006200D02*
X009800Y006600D01*
X009200Y006600D02*
X004570Y006600D01*
X004570Y006500D02*
X009200Y006500D01*
X009200Y006400D02*
X004570Y006400D01*
X004570Y006300D02*
X009200Y006300D01*
X009200Y006200D02*
X004570Y006200D01*
X004570Y006100D02*
X009217Y006100D01*
X009200Y006117D02*
X009400Y005917D01*
X009517Y005800D01*
X012395Y005800D01*
X012429Y005719D01*
X012400Y005788D02*
X012400Y005170D01*
X012500Y005170D02*
X012500Y005647D01*
X012588Y005600D02*
X004570Y005600D01*
X003500Y005800D02*
X003500Y006600D01*
X004900Y007600D02*
X004900Y007900D01*
X005200Y008200D01*
X006600Y008200D01*
X007100Y007700D01*
X009500Y007700D01*
X009900Y007300D01*
X009317Y007200D02*
X009217Y007200D01*
X007153Y007200D01*
X009317Y007200D01*
X009317Y007200D01*
X009300Y007200D02*
X009300Y007200D01*
X009200Y007200D02*
X009200Y007200D01*
X009100Y007200D02*
X009100Y007200D01*
X009000Y007200D02*
X009000Y007200D01*
X008900Y007200D02*
X008900Y007200D01*
X008800Y007200D02*
X008800Y007200D01*
X008700Y007200D02*
X008700Y007200D01*
X008600Y007200D02*
X008600Y007200D01*
X008500Y007200D02*
X008500Y007200D01*
X008400Y007200D02*
X008400Y007200D01*
X008300Y007200D02*
X008300Y007200D01*
X008200Y007200D02*
X008200Y007200D01*
X008100Y007200D02*
X008100Y007200D01*
X008000Y007200D02*
X008000Y007200D01*
X007900Y007200D02*
X007900Y007200D01*
X007800Y007200D02*
X007800Y007200D01*
X007700Y007200D02*
X007700Y007200D01*
X007600Y007200D02*
X007600Y007200D01*
X007500Y007200D02*
X007500Y007200D01*
X007400Y007200D02*
X007400Y007200D01*
X007300Y007200D02*
X007300Y007200D01*
X007200Y007200D02*
X007200Y007200D01*
X007153Y007200D02*
X007153Y007200D01*
X006600Y006817D02*
X006600Y005170D01*
X006700Y005170D02*
X006700Y006800D01*
X006617Y006800D02*
X009200Y006800D01*
X009100Y006800D02*
X009100Y005170D01*
X009000Y005170D02*
X009000Y006800D01*
X008900Y006800D02*
X008900Y005170D01*
X008800Y005170D02*
X008800Y006800D01*
X008700Y006800D02*
X008700Y005170D01*
X008600Y005170D02*
X008600Y006800D01*
X008500Y006800D02*
X008500Y005170D01*
X008400Y005170D02*
X008400Y006800D01*
X008300Y006800D02*
X008300Y005170D01*
X008200Y005170D02*
X008200Y006800D01*
X008100Y006800D02*
X008100Y005170D01*
X008000Y005170D02*
X008000Y006800D01*
X007900Y006800D02*
X007900Y005170D01*
X007800Y005170D02*
X007800Y006800D01*
X007700Y006800D02*
X007700Y005170D01*
X007600Y005170D02*
X007600Y006800D01*
X007500Y006800D02*
X007500Y005170D01*
X007400Y005170D02*
X007400Y006800D01*
X007300Y006800D02*
X007300Y005170D01*
X007200Y005170D02*
X007200Y006800D01*
X007100Y006800D02*
X007100Y005170D01*
X007000Y005170D02*
X007000Y006800D01*
X006900Y006800D02*
X006900Y005170D01*
X006800Y005170D02*
X006800Y006800D01*
X004300Y007700D02*
X004300Y008200D01*
X003900Y008600D01*
X001055Y008600D01*
X001055Y009045D01*
X001000Y009100D01*
X004300Y011000D02*
X004493Y011000D01*
X004500Y011007D02*
X004500Y011500D01*
X004600Y011500D02*
X004600Y011100D01*
X004700Y011100D02*
X004700Y011500D01*
X004800Y011500D02*
X004800Y011100D01*
X004900Y011100D02*
X004900Y011500D01*
X005000Y011500D02*
X005000Y011100D01*
X005593Y011100D02*
X006007Y011100D01*
X006300Y010807D01*
X006300Y010393D01*
X006593Y010100D01*
X006300Y010393D02*
X006300Y010807D01*
X006300Y010800D02*
X006300Y010800D01*
X006300Y010700D02*
X006300Y010700D01*
X006300Y010600D02*
X006300Y010600D01*
X006300Y010500D02*
X006300Y010500D01*
X006300Y010400D02*
X006300Y010400D01*
X005700Y010100D02*
X005700Y009420D01*
X005000Y009300D02*
X005000Y010100D01*
X005007Y010100D02*
X004593Y010100D01*
X004600Y010100D02*
X004600Y009300D01*
X004700Y009300D02*
X004700Y010100D01*
X004800Y010100D02*
X004800Y009300D01*
X004900Y009300D02*
X004900Y010100D01*
X005300Y010393D02*
X005300Y010807D01*
X005300Y010800D02*
X005300Y010800D01*
X005300Y010700D02*
X005300Y010700D01*
X005300Y010600D02*
X005300Y010600D01*
X005300Y010500D02*
X005300Y010500D01*
X005300Y010400D02*
X005300Y010400D01*
X005700Y011100D02*
X005700Y011500D01*
X005800Y011500D02*
X005800Y011100D01*
X005900Y011100D02*
X005900Y011500D01*
X006000Y011500D02*
X006000Y011100D01*
X007300Y010807D02*
X007300Y010393D01*
X007300Y010400D02*
X007300Y010400D01*
X007300Y010500D02*
X007300Y010500D01*
X007300Y010600D02*
X007300Y010600D01*
X007300Y010700D02*
X007300Y010700D01*
X007300Y010800D02*
X007300Y010800D01*
X007800Y010600D02*
X008500Y009900D01*
X008800Y010200D02*
X008800Y010600D01*
X009300Y010600D02*
X009300Y010600D01*
X009300Y010700D02*
X009300Y010700D01*
X009300Y010800D02*
X009300Y010800D01*
X009300Y010807D02*
X009300Y011500D01*
X009200Y011500D02*
X009200Y010907D01*
X009207Y010900D02*
X009393Y010900D01*
X009400Y010907D02*
X009400Y011500D01*
X009500Y011500D02*
X009500Y011007D01*
X009493Y011000D02*
X009107Y011000D01*
X009100Y011007D02*
X009100Y011500D01*
X009000Y011500D02*
X009000Y011100D01*
X009007Y011100D02*
X008593Y011100D01*
X008700Y011100D02*
X008700Y011500D01*
X008800Y011500D02*
X008800Y011100D01*
X008900Y011100D02*
X008900Y011500D01*
X009007Y011100D02*
X009300Y010807D01*
X009300Y010393D01*
X009300Y010300D01*
X009207Y010300D02*
X009393Y010300D01*
X009207Y010300D01*
X009300Y010393D01*
X009393Y010300D01*
X009300Y010393D02*
X009300Y010807D01*
X009593Y011100D01*
X010007Y011100D01*
X010300Y010807D01*
X010300Y011500D01*
X010400Y011500D02*
X010400Y010907D01*
X010393Y010900D02*
X010207Y010900D01*
X010200Y010907D02*
X010200Y011500D01*
X010100Y011500D02*
X010100Y011007D01*
X010107Y011000D02*
X010493Y011000D01*
X010500Y011007D02*
X010500Y011500D01*
X010600Y011500D02*
X010600Y011100D01*
X010593Y011100D02*
X010300Y010807D01*
X010300Y010393D01*
X010300Y010300D01*
X010207Y010300D02*
X010393Y010300D01*
X010207Y010300D01*
X010300Y010393D01*
X010393Y010300D01*
X010300Y010393D02*
X010300Y010807D01*
X010300Y010800D02*
X010300Y010800D01*
X010300Y010700D02*
X010300Y010700D01*
X010300Y010600D02*
X010300Y010600D01*
X010300Y010500D02*
X010300Y010500D01*
X010300Y010400D02*
X010300Y010400D01*
X011007Y011100D02*
X011300Y010807D01*
X011300Y010420D01*
X011300Y010420D01*
X011300Y010807D01*
X011300Y010800D02*
X011300Y010800D01*
X011300Y010700D02*
X011300Y010700D01*
X011300Y010600D02*
X011300Y010600D01*
X011300Y010500D02*
X011300Y010500D01*
X011007Y011100D02*
X010593Y011100D01*
X010700Y011100D02*
X010700Y011500D01*
X010800Y011500D02*
X010800Y011100D01*
X010900Y011100D02*
X010900Y011500D01*
X011000Y011500D02*
X011000Y011100D01*
X010000Y011100D02*
X010000Y011500D01*
X009900Y011500D02*
X009900Y011100D01*
X009800Y011100D02*
X009800Y011500D01*
X009700Y011500D02*
X009700Y011100D01*
X009600Y011100D02*
X009600Y011500D01*
X009300Y010500D02*
X009300Y010500D01*
X009300Y010400D02*
X009300Y010400D01*
X008000Y011100D02*
X008000Y011500D01*
X007900Y011500D02*
X007900Y011100D01*
X007800Y011100D02*
X007800Y011500D01*
X007700Y011500D02*
X007700Y011100D01*
X007600Y011100D02*
X007600Y011500D01*
X007800Y009700D02*
X010800Y009700D01*
X011000Y009500D01*
X011800Y009500D01*
X012000Y009700D01*
X012800Y009400D02*
X012800Y009100D01*
X013120Y009100D02*
X017380Y009100D01*
X017395Y009000D02*
X016107Y009000D01*
X016100Y009007D02*
X016100Y009235D01*
X016265Y009400D02*
X017588Y009400D01*
X017700Y009100D02*
X018000Y008800D01*
X018000Y003600D01*
X017900Y003400D02*
X017900Y002800D01*
X016300Y002800D01*
X016300Y003400D01*
X017900Y003400D01*
X017800Y003400D02*
X017800Y002800D01*
X017900Y002800D02*
X016300Y002800D01*
X016300Y002807D01*
X016007Y003100D01*
X017900Y003100D01*
X017900Y003000D02*
X016107Y003000D01*
X016100Y003007D02*
X016100Y003193D01*
X016107Y003200D02*
X017900Y003200D01*
X017900Y003300D02*
X016207Y003300D01*
X016200Y003293D02*
X016200Y002907D01*
X016207Y002900D02*
X017900Y002900D01*
X017700Y002800D02*
X017700Y003400D01*
X017600Y003400D02*
X017600Y002800D01*
X017500Y002800D02*
X017500Y003400D01*
X017400Y003400D02*
X017400Y002800D01*
X017300Y002800D02*
X017300Y003400D01*
X017200Y003400D02*
X017200Y002800D01*
X017100Y002800D02*
X017100Y003400D01*
X017000Y003400D02*
X017000Y002800D01*
X016900Y002800D02*
X016900Y003400D01*
X016800Y003400D02*
X016800Y002800D01*
X016700Y002800D02*
X016700Y003400D01*
X016600Y003400D02*
X016600Y002800D01*
X016500Y002800D02*
X016500Y003400D01*
X016400Y003400D02*
X016400Y002800D01*
X016007Y003100D02*
X015593Y003100D01*
X011383Y003100D01*
X011400Y003400D02*
X010600Y002600D01*
X001000Y002600D01*
X001000Y003100D02*
X010500Y003100D01*
X011100Y003700D01*
X012900Y003700D01*
X012900Y004100D01*
X013220Y004100D02*
X013447Y004100D01*
X013500Y004153D02*
X013500Y004230D01*
X013588Y004200D02*
X013205Y004200D01*
X013200Y004212D02*
X013200Y004230D01*
X013300Y004230D02*
X013300Y003600D01*
X013200Y003600D02*
X013200Y003988D01*
X013205Y004000D02*
X013395Y004000D01*
X013400Y004012D02*
X013400Y004230D01*
X013600Y004230D02*
X013600Y004205D01*
X013700Y004220D02*
X013700Y004230D01*
X013800Y004230D02*
X013800Y004205D01*
X013812Y004200D02*
X014288Y004200D01*
X014300Y004195D02*
X014300Y004120D01*
X014200Y004105D02*
X014200Y004230D01*
X014100Y004230D02*
X014100Y004053D01*
X014047Y004000D02*
X014005Y004000D01*
X014000Y004012D02*
X014000Y004230D01*
X013900Y004230D02*
X013900Y004153D01*
X013953Y004100D02*
X014188Y004100D01*
X013700Y003900D02*
X013700Y003500D01*
X013600Y003400D01*
X011400Y003400D01*
X011200Y003483D02*
X011200Y003500D01*
X011100Y003417D02*
X011100Y003383D01*
X011083Y003400D02*
X011117Y003400D01*
X011017Y003300D02*
X010983Y003300D01*
X011000Y003283D02*
X011000Y003317D01*
X010900Y003217D02*
X010900Y003183D01*
X010883Y003200D02*
X010917Y003200D01*
X010817Y003100D02*
X010783Y003100D01*
X010800Y003083D02*
X010800Y003117D01*
X011100Y002817D02*
X011100Y002007D01*
X011107Y002000D02*
X011493Y002000D01*
X011300Y001807D02*
X011300Y001393D01*
X011300Y001400D02*
X011300Y001400D01*
X011300Y001500D02*
X011300Y001500D01*
X011300Y001600D02*
X011300Y001600D01*
X011300Y001700D02*
X011300Y001700D01*
X011300Y001800D02*
X011300Y001800D01*
X011000Y002100D02*
X011000Y002717D01*
X010983Y002700D02*
X015300Y002700D01*
X015300Y002600D02*
X010883Y002600D01*
X010900Y002617D02*
X010900Y002100D01*
X010800Y002100D02*
X010800Y002517D01*
X010783Y002500D02*
X015300Y002500D01*
X015800Y002600D02*
X018200Y002600D01*
X017900Y002400D02*
X017900Y001738D01*
X017850Y001617D01*
X017884Y001700D02*
X015270Y001700D01*
X015200Y001650D02*
X015200Y001550D01*
X015270Y001500D02*
X017850Y001500D01*
X017850Y001400D02*
X015265Y001400D01*
X015200Y001335D02*
X015200Y000700D01*
X015700Y000700D02*
X015700Y002100D01*
X015800Y002100D02*
X015800Y000700D01*
X015900Y000700D02*
X015900Y002100D01*
X016000Y002100D02*
X016000Y000700D01*
X016100Y000700D02*
X016100Y002193D01*
X016107Y002200D02*
X017900Y002200D01*
X017900Y002300D02*
X016207Y002300D01*
X016200Y002293D02*
X016200Y000700D01*
X016300Y000700D02*
X016300Y002400D01*
X017900Y002400D01*
X017800Y002400D02*
X017800Y001064D01*
X017785Y001100D02*
X017850Y001100D01*
X017850Y001200D02*
X017719Y001200D01*
X017700Y001219D02*
X017700Y002400D01*
X017600Y002400D02*
X017600Y001314D01*
X017619Y001300D02*
X017850Y001300D01*
X017500Y001356D02*
X017500Y002400D01*
X017400Y002400D02*
X017400Y001394D01*
X017300Y001394D02*
X017300Y002400D01*
X017200Y002400D02*
X017200Y001394D01*
X017100Y001356D02*
X017100Y002400D01*
X017000Y002400D02*
X017000Y001314D01*
X016981Y001300D02*
X015165Y001300D01*
X015100Y001550D02*
X015100Y001650D01*
X015000Y001650D02*
X015000Y001550D01*
X014850Y001800D02*
X014750Y001800D01*
X014750Y001900D02*
X014850Y001900D01*
X014850Y002000D02*
X014750Y002000D01*
X015165Y001900D02*
X017900Y001900D01*
X017900Y001800D02*
X015265Y001800D01*
X015200Y001865D02*
X015200Y003400D01*
X015300Y003393D02*
X015593Y003100D01*
X015300Y002807D01*
X015300Y002800D02*
X011083Y002800D01*
X010000Y002400D02*
X010000Y002100D01*
X010007Y002100D02*
X009593Y002100D01*
X009300Y001807D01*
X009300Y001393D01*
X009593Y001100D01*
X009300Y001393D02*
X009300Y001807D01*
X009300Y001800D02*
X009300Y001800D01*
X009300Y001700D02*
X009300Y001700D01*
X009300Y001600D02*
X009300Y001600D01*
X009300Y001500D02*
X009300Y001500D01*
X009300Y001400D02*
X009300Y001400D01*
X009600Y002100D02*
X009600Y002400D01*
X009700Y002400D02*
X009700Y002100D01*
X009800Y002100D02*
X009800Y002400D01*
X009900Y002400D02*
X009900Y002100D01*
X010007Y002100D02*
X010300Y001807D01*
X010300Y001393D01*
X010593Y001100D01*
X010300Y001393D02*
X010300Y001807D01*
X010300Y001800D02*
X010300Y001800D01*
X010300Y001700D02*
X010300Y001700D01*
X010300Y001600D02*
X010300Y001600D01*
X010300Y001500D02*
X010300Y001500D01*
X010300Y001400D02*
X010300Y001400D01*
X011700Y001100D02*
X011700Y000700D01*
X011800Y000700D02*
X011800Y001100D01*
X011900Y001100D02*
X011900Y000700D01*
X012300Y001393D02*
X012300Y001807D01*
X012300Y001800D02*
X012300Y001800D01*
X012300Y001700D02*
X012300Y001700D01*
X012300Y001600D02*
X012300Y001600D01*
X012300Y001500D02*
X012300Y001500D01*
X012300Y001400D02*
X012300Y001400D01*
X012600Y002100D02*
X012600Y003200D01*
X012700Y003200D02*
X012700Y002100D01*
X012800Y002100D02*
X012800Y003200D01*
X012900Y003200D02*
X012900Y002100D01*
X013000Y002100D02*
X013000Y003200D01*
X013100Y003700D02*
X013447Y003700D01*
X013380Y003900D02*
X013153Y003900D01*
X013953Y003700D02*
X013995Y003700D01*
X015600Y004100D02*
X015600Y004100D01*
X015700Y004100D02*
X015700Y004100D01*
X015800Y004100D02*
X015800Y004100D01*
X015900Y004100D02*
X015900Y004100D01*
X016000Y004100D02*
X016000Y004100D01*
X016300Y003400D02*
X016300Y003393D01*
X016007Y003100D01*
X015593Y003100D01*
X015600Y003100D02*
X015600Y003100D01*
X015700Y003100D02*
X015700Y003100D01*
X015800Y003100D02*
X015800Y003100D01*
X015900Y003100D02*
X015900Y003100D01*
X016000Y003100D02*
X016000Y003100D01*
X016300Y002400D02*
X016300Y002393D01*
X016007Y002100D01*
X016400Y002400D02*
X016400Y000700D01*
X016500Y000700D02*
X016500Y002400D01*
X016600Y002400D02*
X016600Y000700D01*
X016700Y000700D02*
X016700Y002400D01*
X017826Y001000D02*
X017850Y001000D01*
X017844Y000900D02*
X017850Y000900D01*
X017840Y000700D02*
X017826Y000700D01*
X013900Y000700D02*
X013900Y001100D01*
X013800Y001100D02*
X013800Y000700D01*
X013700Y000700D02*
X013700Y001100D01*
X013300Y001393D02*
X013300Y001807D01*
X013300Y001800D02*
X013300Y001800D01*
X013300Y001700D02*
X013300Y001700D01*
X013300Y001600D02*
X013300Y001600D01*
X013300Y001500D02*
X013300Y001500D01*
X013300Y001400D02*
X013300Y001400D01*
X008000Y002100D02*
X008000Y002400D01*
X007900Y002400D02*
X007900Y002100D01*
X007800Y002100D02*
X007800Y002400D01*
X007700Y002400D02*
X007700Y002100D01*
X007600Y002100D02*
X007600Y002400D01*
X006300Y001807D02*
X006300Y001393D01*
X006300Y000700D01*
X006400Y000700D02*
X006400Y001293D01*
X006393Y001300D02*
X006207Y001300D01*
X006200Y001293D02*
X006200Y000700D01*
X006100Y000700D02*
X006100Y001193D01*
X006107Y001200D02*
X006493Y001200D01*
X006500Y001193D02*
X006500Y000700D01*
X006600Y000700D02*
X006600Y001100D01*
X006593Y001100D02*
X006300Y001393D01*
X006007Y001100D01*
X006000Y001100D02*
X006000Y000700D01*
X005900Y000700D02*
X005900Y001100D01*
X005800Y001100D02*
X005800Y000700D01*
X005700Y000700D02*
X005700Y001100D01*
X005600Y001100D02*
X005600Y000700D01*
X005500Y000700D02*
X005500Y001193D01*
X005493Y001200D02*
X005107Y001200D01*
X005100Y001193D02*
X005100Y000700D01*
X005200Y000700D02*
X005200Y001293D01*
X005207Y001300D02*
X005393Y001300D01*
X005400Y001293D02*
X005400Y000700D01*
X005300Y000700D02*
X005300Y001393D01*
X005007Y001100D01*
X005000Y001100D02*
X005000Y000700D01*
X004900Y000700D02*
X004900Y001100D01*
X004800Y001100D02*
X004800Y000700D01*
X004700Y000700D02*
X004700Y001100D01*
X004600Y001100D02*
X004600Y000700D01*
X005300Y001393D02*
X005593Y001100D01*
X005300Y001393D02*
X005300Y001807D01*
X005300Y002400D01*
X005400Y002400D02*
X005400Y001907D01*
X005393Y001900D02*
X005207Y001900D01*
X005200Y001907D02*
X005200Y002400D01*
X005100Y002400D02*
X005100Y002007D01*
X005107Y002000D02*
X005493Y002000D01*
X005500Y002007D02*
X005500Y002400D01*
X005600Y002400D02*
X005600Y002100D01*
X005593Y002100D02*
X005300Y001807D01*
X005007Y002100D01*
X004593Y002100D01*
X004700Y002100D02*
X004700Y002400D01*
X004800Y002400D02*
X004800Y002100D01*
X004900Y002100D02*
X004900Y002400D01*
X005000Y002400D02*
X005000Y002100D01*
X005300Y001807D02*
X005300Y001393D01*
X005300Y001400D02*
X005300Y001400D01*
X005300Y001500D02*
X005300Y001500D01*
X005300Y001600D02*
X005300Y001600D01*
X005300Y001700D02*
X005300Y001700D01*
X005300Y001800D02*
X005300Y001800D01*
X005593Y002100D02*
X006007Y002100D01*
X006300Y001807D01*
X006300Y001393D01*
X006300Y001400D02*
X006300Y001400D01*
X006300Y001500D02*
X006300Y001500D01*
X006300Y001600D02*
X006300Y001600D01*
X006300Y001700D02*
X006300Y001700D01*
X006300Y001800D02*
X006300Y001800D01*
X006000Y002100D02*
X006000Y002400D01*
X005900Y002400D02*
X005900Y002100D01*
X005800Y002100D02*
X005800Y002400D01*
X005700Y002400D02*
X005700Y002100D01*
X006700Y001100D02*
X006700Y000700D01*
X006800Y000700D02*
X006800Y001100D01*
X006900Y001100D02*
X006900Y000700D01*
X006747Y003300D02*
X005553Y003300D01*
X006747Y003300D01*
X006729Y003319D01*
X006680Y003436D01*
X006680Y003564D01*
X006729Y003681D01*
X006730Y003683D01*
X006730Y004354D01*
X006771Y004453D01*
X006948Y004630D01*
X006670Y004630D01*
X006670Y004583D01*
X006671Y004581D01*
X006720Y004464D01*
X006720Y004336D01*
X006671Y004219D01*
X006670Y004217D01*
X006670Y004046D01*
X006629Y003947D01*
X006553Y003871D01*
X006454Y003830D01*
X004300Y003830D01*
X004300Y003770D01*
X004300Y003830D01*
X004300Y003800D02*
X005188Y003800D01*
X005200Y003805D02*
X005200Y003830D01*
X005236Y003820D02*
X005119Y003771D01*
X005117Y003770D01*
X004300Y003770D01*
X004400Y003770D02*
X004400Y003830D01*
X004500Y003830D02*
X004500Y003770D01*
X004600Y003770D02*
X004600Y003830D01*
X004700Y003830D02*
X004700Y003770D01*
X004800Y003770D02*
X004800Y003830D01*
X004900Y003830D02*
X004900Y003770D01*
X005000Y003770D02*
X005000Y003830D01*
X005100Y003830D02*
X005100Y003770D01*
X005236Y003820D02*
X005364Y003820D01*
X005481Y003771D01*
X005571Y003681D01*
X005620Y003564D01*
X005620Y003436D01*
X005571Y003319D01*
X005553Y003300D01*
X005600Y003300D02*
X005600Y003388D01*
X005605Y003400D02*
X006695Y003400D01*
X006700Y003388D02*
X006700Y003300D01*
X006600Y003300D02*
X006600Y003918D01*
X006582Y003900D02*
X006730Y003900D01*
X006730Y003800D02*
X005412Y003800D01*
X005400Y003805D02*
X005400Y003830D01*
X005300Y003820D02*
X005300Y003830D01*
X005500Y003830D02*
X005500Y003753D01*
X005553Y003700D02*
X006730Y003700D01*
X006700Y003612D02*
X006700Y004288D01*
X006705Y004300D02*
X006730Y004300D01*
X006730Y004200D02*
X006670Y004200D01*
X006670Y004100D02*
X006730Y004100D01*
X006730Y004000D02*
X006651Y004000D01*
X006500Y003849D02*
X006500Y003300D01*
X006400Y003300D02*
X006400Y003830D01*
X006300Y003830D02*
X006300Y003300D01*
X006200Y003300D02*
X006200Y003830D01*
X006100Y003830D02*
X006100Y003300D01*
X006000Y003300D02*
X006000Y003830D01*
X005900Y003830D02*
X005900Y003300D01*
X005800Y003300D02*
X005800Y003830D01*
X005700Y003830D02*
X005700Y003300D01*
X005620Y003500D02*
X006680Y003500D01*
X006695Y003600D02*
X005605Y003600D01*
X005600Y003612D02*
X005600Y003830D01*
X006720Y004400D02*
X006749Y004400D01*
X006800Y004482D02*
X006800Y004630D01*
X006900Y004630D02*
X006900Y004582D01*
X006918Y004600D02*
X006670Y004600D01*
X006700Y004630D02*
X006700Y004512D01*
X006705Y004500D02*
X006818Y004500D01*
X009600Y005170D02*
X009600Y005800D01*
X009700Y005800D02*
X009700Y005170D01*
X011500Y005170D02*
X011500Y005800D01*
X011600Y005800D02*
X011600Y005170D01*
X011700Y005170D02*
X011700Y005800D01*
X011800Y005800D02*
X011800Y005170D01*
X011900Y005170D02*
X011900Y005800D01*
X012000Y005800D02*
X012000Y005170D01*
X012100Y005170D02*
X012100Y005800D01*
X012200Y005800D02*
X012200Y005170D01*
X012300Y005170D02*
X012300Y005800D01*
X012600Y005595D02*
X012600Y005170D01*
X012700Y005170D02*
X012700Y005580D01*
X013000Y005788D02*
X013000Y005170D01*
X013300Y005170D02*
X013300Y005600D01*
X013400Y005600D02*
X013400Y005170D01*
X013500Y005170D02*
X013500Y005600D01*
X013600Y005600D02*
X013600Y005170D01*
X013700Y005170D02*
X013700Y005600D01*
X013800Y005600D02*
X013800Y005170D01*
X013900Y005170D02*
X013900Y005600D01*
X014000Y005600D02*
X014000Y005170D01*
X014100Y005170D02*
X014100Y005600D01*
X014200Y005600D02*
X014200Y005170D01*
X014300Y005170D02*
X014300Y005600D01*
X014400Y005600D02*
X014400Y005170D01*
X014500Y005170D02*
X014500Y005600D01*
X013017Y005800D02*
X013005Y005800D01*
X012800Y008500D02*
X012800Y008780D01*
X012700Y008795D02*
X012700Y008500D01*
X012600Y008500D02*
X012600Y008847D01*
X012550Y008897D02*
X012481Y008829D01*
X012364Y008780D01*
X012236Y008780D01*
X012188Y008800D01*
X010717Y008800D01*
X010700Y008817D02*
X010700Y008500D01*
X010800Y008500D02*
X010800Y008800D01*
X010900Y008800D02*
X010900Y008500D01*
X011000Y008500D02*
X011000Y008800D01*
X011100Y008800D02*
X011100Y008500D01*
X011200Y008500D02*
X011200Y008800D01*
X011300Y008800D02*
X011300Y008500D01*
X011400Y008500D02*
X011400Y008800D01*
X011500Y008800D02*
X011500Y008500D01*
X011600Y008500D02*
X011600Y008800D01*
X011700Y008800D02*
X011700Y008500D01*
X011800Y008500D02*
X011800Y008800D01*
X011900Y008800D02*
X011900Y008500D01*
X012000Y008500D02*
X012000Y008800D01*
X012100Y008800D02*
X012100Y008500D01*
X012200Y008500D02*
X012200Y008795D01*
X012300Y008780D02*
X012300Y008500D01*
X012400Y008500D02*
X012400Y008795D01*
X012412Y008800D02*
X012688Y008800D01*
X012500Y008847D02*
X012500Y008500D01*
X013053Y009300D02*
X015435Y009300D01*
X015600Y009135D02*
X015600Y009100D01*
X015750Y009300D02*
X015850Y009300D01*
X015850Y009400D02*
X015750Y009400D01*
X015600Y009550D02*
X015600Y009650D01*
X015500Y009650D02*
X015500Y009550D01*
X015400Y009550D02*
X015400Y009650D01*
X015330Y009500D02*
X012983Y009500D01*
X014300Y008500D02*
X014300Y011500D01*
X013000Y011500D02*
X013000Y011100D01*
X012900Y011100D02*
X012900Y011500D01*
X012800Y011500D02*
X012800Y011100D01*
X012700Y011100D02*
X012700Y011500D01*
X012600Y011500D02*
X012600Y011100D01*
X015600Y011500D02*
X015600Y010065D01*
X016265Y009800D02*
X017900Y009800D01*
X017900Y009700D02*
X016270Y009700D01*
X017400Y008988D02*
X017400Y008800D01*
X017700Y008600D02*
X015800Y008600D01*
X010600Y008500D02*
X010600Y008900D01*
X010500Y008900D02*
X010500Y008500D01*
X010400Y008500D02*
X010400Y008900D01*
X010300Y008900D02*
X010300Y008500D01*
X010200Y008500D02*
X010200Y008900D01*
X010100Y008900D02*
X010100Y008500D01*
X010000Y008500D02*
X010000Y008900D01*
X009900Y008900D02*
X009900Y008500D01*
X009800Y008500D02*
X009800Y008900D01*
X009700Y008900D02*
X009700Y008500D01*
X009600Y008500D02*
X009600Y008900D01*
X009500Y008900D02*
X009500Y008500D01*
X009400Y008500D02*
X009400Y008900D01*
X009300Y008900D02*
X009300Y008500D01*
X009200Y008500D02*
X009200Y008900D01*
X009100Y008900D02*
X009100Y008500D01*
X009000Y008500D02*
X009000Y008900D01*
X008900Y008900D02*
X008900Y008500D01*
X008800Y008500D02*
X008800Y008900D01*
X008700Y008847D02*
X008700Y008500D01*
X008388Y008800D02*
X005812Y008800D01*
X005800Y008795D02*
X005800Y008400D01*
X005700Y008400D02*
X005700Y008780D01*
X007453Y009600D02*
X007495Y009600D01*
D14*
X001000Y002100D03*
X001000Y003100D03*
X003100Y004100D03*
X004100Y004100D03*
X005300Y003500D03*
X006400Y004400D03*
X007000Y003500D03*
X008600Y004500D03*
X010000Y004900D03*
X011126Y004526D03*
X011900Y004500D03*
X012900Y004100D03*
X013700Y003900D03*
X014300Y003800D03*
X014400Y004500D03*
X014800Y004900D03*
X015200Y005300D03*
X014000Y005300D03*
X012700Y005900D03*
X012600Y006500D03*
X013400Y006500D03*
X014000Y007100D03*
X014800Y007800D03*
X016300Y008100D03*
X015200Y008900D03*
X012800Y009100D03*
X012300Y009100D03*
X012500Y009700D03*
X012300Y010100D03*
X011300Y010100D03*
X011100Y008700D03*
X010100Y007800D03*
X010600Y007300D03*
X011200Y007400D03*
X009100Y008700D03*
X008500Y009100D03*
X007800Y009700D03*
X007200Y009400D03*
X005700Y009100D03*
X005500Y008700D03*
X007000Y008300D03*
X007600Y008300D03*
X006500Y007800D03*
X006900Y007400D03*
X005900Y006200D03*
X006800Y005800D03*
X004100Y005200D03*
X003500Y005800D03*
X003500Y006600D03*
X004100Y007000D03*
X004900Y007600D03*
X004300Y007700D03*
X003100Y008100D03*
X001000Y009100D03*
X001100Y010100D03*
X011400Y005400D03*
X011500Y002500D03*
X016700Y004100D03*
X017700Y004100D03*
X017500Y005100D03*
X017000Y005100D03*
X017100Y007100D03*
X016600Y007100D03*
X017700Y009100D03*
D15*
X015200Y008900D02*
X015000Y008700D01*
X011100Y008700D01*
X009100Y008700D01*
X005500Y008700D01*
X003100Y008100D02*
X003100Y004100D01*
X004100Y004100D02*
X006400Y004100D01*
X006400Y004400D01*
X006400Y004900D01*
X010000Y004900D01*
X014800Y004900D01*
X014400Y004500D02*
X011900Y004500D01*
X011126Y004526D02*
X011100Y004500D01*
X008600Y004500D01*
X007200Y004500D01*
X007000Y004300D01*
X007000Y003500D01*
X005300Y003500D02*
X003700Y003500D01*
X003700Y005400D01*
X003900Y005600D01*
X004300Y005600D01*
X004300Y007000D01*
X004100Y007000D01*
X005900Y006200D02*
X005900Y005200D01*
X004100Y005200D01*
X005900Y006200D02*
X006800Y006200D01*
X006800Y005800D01*
X006800Y005500D01*
X006900Y005400D01*
X011400Y005400D01*
X011500Y005300D01*
X014000Y005300D01*
X015200Y005300D01*
X017500Y005100D02*
X017500Y007600D01*
X015800Y007600D01*
X015000Y007600D01*
X014800Y007800D01*
X010100Y007800D01*
X011600Y002900D02*
X011500Y002800D01*
X011500Y002500D01*
X011600Y002900D02*
X014800Y002900D01*
X014800Y001600D01*
D16*
X018200Y009600D02*
X018800Y009600D01*
X001000Y002600D02*
X001000Y002100D01*
M02*
