G75*
%MOIN*%
%OFA0B0*%
%FSLAX24Y24*%
%IPPOS*%
%LPD*%
%AMOC8*
5,1,8,0,0,1.08239X$1,22.5*
%
%ADD10R,0.0631X0.0237*%
%ADD11R,0.0828X0.0867*%
%ADD12R,0.0828X0.0946*%
%ADD13R,0.0395X0.0474*%
%ADD14R,0.0474X0.0395*%
%ADD15C,0.0330*%
%ADD16R,0.0720X0.0720*%
%ADD17OC8,0.0720*%
%ADD18C,0.0142*%
%ADD19R,0.0297X0.0552*%
%ADD20C,0.0180*%
%ADD21R,0.1419X0.1419*%
%ADD22R,0.0580X0.0280*%
%ADD23R,0.0710X0.0789*%
%ADD24C,0.0867*%
%ADD25R,0.0820X0.0820*%
%ADD26OC8,0.0820*%
%ADD27R,0.0474X0.0789*%
%ADD28R,0.0530X0.0480*%
%ADD29R,0.0280X0.0580*%
D10*
X002345Y005688D03*
X002345Y005944D03*
X002345Y006200D03*
X002345Y006456D03*
X002345Y006712D03*
D11*
X001223Y006692D03*
X001223Y005708D03*
D12*
X001223Y004625D03*
X001223Y007775D03*
D13*
X003008Y008700D03*
X003638Y008700D03*
X003638Y009700D03*
X003008Y009700D03*
X004408Y007500D03*
X005038Y007500D03*
X005038Y005500D03*
X004408Y005500D03*
X004408Y004900D03*
X005038Y004900D03*
X005038Y004300D03*
X004408Y004300D03*
X003638Y003700D03*
X003008Y003700D03*
X003008Y002700D03*
X003638Y002700D03*
X006508Y004500D03*
X007138Y004500D03*
X006938Y005300D03*
X006308Y005300D03*
X009558Y004600D03*
X010188Y004600D03*
X010438Y005400D03*
X009808Y005400D03*
X010008Y008300D03*
X010638Y008300D03*
D14*
X013523Y008415D03*
X013523Y007785D03*
X013523Y006615D03*
X013523Y005985D03*
X010123Y003515D03*
X010123Y002885D03*
D15*
X016423Y000900D03*
X001923Y000900D03*
X001923Y011500D03*
X016423Y011500D03*
D16*
X003323Y001700D03*
D17*
X004323Y001700D03*
X005323Y001700D03*
X006323Y001700D03*
X007323Y001700D03*
X008323Y001700D03*
X009323Y001700D03*
X010323Y001700D03*
X011323Y001700D03*
X012323Y001700D03*
X013323Y001700D03*
X014323Y001700D03*
X014323Y010700D03*
X013323Y010700D03*
X012323Y010700D03*
X011323Y010700D03*
X010323Y010700D03*
X009323Y010700D03*
X008323Y010700D03*
X007323Y010700D03*
X006323Y010700D03*
X005323Y010700D03*
X004323Y010700D03*
X003323Y010700D03*
D18*
X002084Y009866D02*
X002084Y009534D01*
X001752Y009534D01*
X001752Y009866D01*
X002084Y009866D01*
X002084Y009675D02*
X001752Y009675D01*
X001752Y009816D02*
X002084Y009816D01*
X001393Y009866D02*
X001393Y009534D01*
X001061Y009534D01*
X001061Y009866D01*
X001393Y009866D01*
X001393Y009675D02*
X001061Y009675D01*
X001061Y009816D02*
X001393Y009816D01*
X001393Y008866D02*
X001393Y008534D01*
X001061Y008534D01*
X001061Y008866D01*
X001393Y008866D01*
X001393Y008675D02*
X001061Y008675D01*
X001061Y008816D02*
X001393Y008816D01*
X002084Y008866D02*
X002084Y008534D01*
X001752Y008534D01*
X001752Y008866D01*
X002084Y008866D01*
X002084Y008675D02*
X001752Y008675D01*
X001752Y008816D02*
X002084Y008816D01*
X002084Y003866D02*
X002084Y003534D01*
X001752Y003534D01*
X001752Y003866D01*
X002084Y003866D01*
X002084Y003675D02*
X001752Y003675D01*
X001752Y003816D02*
X002084Y003816D01*
X001393Y003866D02*
X001393Y003534D01*
X001061Y003534D01*
X001061Y003866D01*
X001393Y003866D01*
X001393Y003675D02*
X001061Y003675D01*
X001061Y003816D02*
X001393Y003816D01*
X001393Y002866D02*
X001393Y002534D01*
X001061Y002534D01*
X001061Y002866D01*
X001393Y002866D01*
X001393Y002675D02*
X001061Y002675D01*
X001061Y002816D02*
X001393Y002816D01*
X002084Y002866D02*
X002084Y002534D01*
X001752Y002534D01*
X001752Y002866D01*
X002084Y002866D01*
X002084Y002675D02*
X001752Y002675D01*
X001752Y002816D02*
X002084Y002816D01*
D19*
X010649Y002888D03*
X011397Y002888D03*
X011397Y003912D03*
X011023Y003912D03*
X010649Y003912D03*
D20*
X009112Y005432D02*
X009112Y005882D01*
X008915Y005882D02*
X008915Y005432D01*
X008718Y005432D02*
X008718Y005882D01*
X008521Y005882D02*
X008521Y005432D01*
X008324Y005432D02*
X008324Y005882D01*
X008127Y005882D02*
X008127Y005432D01*
X007931Y005432D02*
X007931Y005882D01*
X007734Y005882D02*
X007734Y005432D01*
X007604Y006011D02*
X007154Y006011D01*
X007154Y006208D02*
X007604Y006208D01*
X007604Y006405D02*
X007154Y006405D01*
X007154Y006602D02*
X007604Y006602D01*
X007604Y006798D02*
X007154Y006798D01*
X007154Y006995D02*
X007604Y006995D01*
X007604Y007192D02*
X007154Y007192D01*
X007154Y007389D02*
X007604Y007389D01*
X007734Y007518D02*
X007734Y007968D01*
X007931Y007968D02*
X007931Y007518D01*
X008127Y007518D02*
X008127Y007968D01*
X008324Y007968D02*
X008324Y007518D01*
X008521Y007518D02*
X008521Y007968D01*
X008718Y007968D02*
X008718Y007518D01*
X008915Y007518D02*
X008915Y007968D01*
X009112Y007968D02*
X009112Y007518D01*
X009241Y007389D02*
X009691Y007389D01*
X009691Y007192D02*
X009241Y007192D01*
X009241Y006995D02*
X009691Y006995D01*
X009691Y006798D02*
X009241Y006798D01*
X009241Y006602D02*
X009691Y006602D01*
X009691Y006405D02*
X009241Y006405D01*
X009241Y006208D02*
X009691Y006208D01*
X009691Y006011D02*
X009241Y006011D01*
D21*
X008423Y006700D03*
D22*
X012173Y003720D03*
X012173Y003400D03*
X012173Y003080D03*
D23*
X013171Y002600D03*
X014274Y002600D03*
X014274Y009700D03*
X013171Y009700D03*
D24*
X001173Y000950D03*
X001173Y011450D03*
X017173Y011450D03*
X017173Y000950D03*
D25*
X017173Y009700D03*
D26*
X016173Y009700D03*
X016173Y008700D03*
X017173Y008700D03*
X017173Y007700D03*
X016173Y007700D03*
X016173Y006700D03*
X017173Y006700D03*
X017173Y005700D03*
X016173Y005700D03*
X016173Y004700D03*
X017173Y004700D03*
X017173Y003700D03*
X016173Y003700D03*
X016173Y002700D03*
X017173Y002700D03*
D27*
X006224Y002900D03*
X005121Y002900D03*
D28*
X004123Y006150D03*
X004123Y006850D03*
X004923Y006500D03*
D29*
X006053Y009350D03*
X006373Y009350D03*
X006693Y009350D03*
M02*
