G75*
%MOIN*%
%OFA0B0*%
%FSLAX24Y24*%
%IPPOS*%
%LPD*%
%AMOC8*
5,1,8,0,0,1.08239X$1,22.5*
%
%ADD10R,0.0551X0.0157*%
%ADD11R,0.0748X0.0787*%
%ADD12R,0.0748X0.0866*%
%ADD13R,0.0315X0.0394*%
%ADD14R,0.0394X0.0315*%
%ADD15C,0.0118*%
%ADD16R,0.0217X0.0472*%
%ADD17C,0.0100*%
%ADD18R,0.1339X0.1339*%
%ADD19R,0.0790X0.0670*%
%ADD20R,0.0630X0.0709*%
%ADD21R,0.0394X0.0709*%
%ADD22R,0.0450X0.0400*%
%ADD23R,0.0670X0.0790*%
D10*
X002345Y005688D03*
X002345Y005944D03*
X002345Y006200D03*
X002345Y006456D03*
X002345Y006712D03*
D11*
X001223Y006692D03*
X001223Y005708D03*
D12*
X001223Y004625D03*
X001223Y007775D03*
D13*
X003008Y008700D03*
X003638Y008700D03*
X003638Y009700D03*
X003008Y009700D03*
X004408Y007500D03*
X005038Y007500D03*
X005038Y005500D03*
X004408Y005500D03*
X004408Y004900D03*
X005038Y004900D03*
X005038Y004300D03*
X004408Y004300D03*
X003638Y003700D03*
X003008Y003700D03*
X003008Y002700D03*
X003638Y002700D03*
X006508Y004500D03*
X007138Y004500D03*
X006938Y005300D03*
X006308Y005300D03*
X009558Y004600D03*
X010188Y004600D03*
X010438Y005400D03*
X009808Y005400D03*
X010008Y008300D03*
X010638Y008300D03*
D14*
X013523Y008415D03*
X013523Y007785D03*
X013523Y006615D03*
X013523Y005985D03*
X010123Y003515D03*
X010123Y002885D03*
D15*
X001365Y002838D02*
X001365Y002562D01*
X001089Y002562D01*
X001089Y002838D01*
X001365Y002838D01*
X001365Y002679D02*
X001089Y002679D01*
X001089Y002796D02*
X001365Y002796D01*
X002056Y002838D02*
X002056Y002562D01*
X001780Y002562D01*
X001780Y002838D01*
X002056Y002838D01*
X002056Y002679D02*
X001780Y002679D01*
X001780Y002796D02*
X002056Y002796D01*
X002056Y003562D02*
X002056Y003838D01*
X002056Y003562D02*
X001780Y003562D01*
X001780Y003838D01*
X002056Y003838D01*
X002056Y003679D02*
X001780Y003679D01*
X001780Y003796D02*
X002056Y003796D01*
X001365Y003838D02*
X001365Y003562D01*
X001089Y003562D01*
X001089Y003838D01*
X001365Y003838D01*
X001365Y003679D02*
X001089Y003679D01*
X001089Y003796D02*
X001365Y003796D01*
X001365Y008562D02*
X001365Y008838D01*
X001365Y008562D02*
X001089Y008562D01*
X001089Y008838D01*
X001365Y008838D01*
X001365Y008679D02*
X001089Y008679D01*
X001089Y008796D02*
X001365Y008796D01*
X002056Y008838D02*
X002056Y008562D01*
X001780Y008562D01*
X001780Y008838D01*
X002056Y008838D01*
X002056Y008679D02*
X001780Y008679D01*
X001780Y008796D02*
X002056Y008796D01*
X002056Y009562D02*
X002056Y009838D01*
X002056Y009562D02*
X001780Y009562D01*
X001780Y009838D01*
X002056Y009838D01*
X002056Y009679D02*
X001780Y009679D01*
X001780Y009796D02*
X002056Y009796D01*
X001365Y009838D02*
X001365Y009562D01*
X001089Y009562D01*
X001089Y009838D01*
X001365Y009838D01*
X001365Y009679D02*
X001089Y009679D01*
X001089Y009796D02*
X001365Y009796D01*
D16*
X010649Y003912D03*
X011023Y003912D03*
X011397Y003912D03*
X011397Y002888D03*
X010649Y002888D03*
D17*
X009112Y005432D02*
X009112Y005882D01*
X008915Y005882D02*
X008915Y005432D01*
X008718Y005432D02*
X008718Y005882D01*
X008521Y005882D02*
X008521Y005432D01*
X008324Y005432D02*
X008324Y005882D01*
X008127Y005882D02*
X008127Y005432D01*
X007931Y005432D02*
X007931Y005882D01*
X007734Y005882D02*
X007734Y005432D01*
X007604Y006011D02*
X007154Y006011D01*
X007154Y006208D02*
X007604Y006208D01*
X007604Y006405D02*
X007154Y006405D01*
X007154Y006602D02*
X007604Y006602D01*
X007604Y006798D02*
X007154Y006798D01*
X007154Y006995D02*
X007604Y006995D01*
X007604Y007192D02*
X007154Y007192D01*
X007154Y007389D02*
X007604Y007389D01*
X007734Y007518D02*
X007734Y007968D01*
X007931Y007968D02*
X007931Y007518D01*
X008127Y007518D02*
X008127Y007968D01*
X008324Y007968D02*
X008324Y007518D01*
X008521Y007518D02*
X008521Y007968D01*
X008718Y007968D02*
X008718Y007518D01*
X008915Y007518D02*
X008915Y007968D01*
X009112Y007968D02*
X009112Y007518D01*
X009241Y007389D02*
X009691Y007389D01*
X009691Y007192D02*
X009241Y007192D01*
X009241Y006995D02*
X009691Y006995D01*
X009691Y006798D02*
X009241Y006798D01*
X009241Y006602D02*
X009691Y006602D01*
X009691Y006405D02*
X009241Y006405D01*
X009241Y006208D02*
X009691Y006208D01*
X009691Y006011D02*
X009241Y006011D01*
D18*
X008423Y006700D03*
D19*
X012178Y003225D03*
D20*
X013171Y002600D03*
X014274Y002600D03*
X014274Y009700D03*
X013171Y009700D03*
D21*
X006224Y002900D03*
X005121Y002900D03*
D22*
X004123Y006150D03*
X004123Y006850D03*
X004923Y006500D03*
D23*
X006548Y009355D03*
M02*
