G75*
%MOIN*%
%OFA0B0*%
%FSLAX24Y24*%
%IPPOS*%
%LPD*%
%AMOC8*
5,1,8,0,0,1.08239X$1,22.5*
%
%ADD10C,0.0060*%
%ADD11C,0.0000*%
D10*
X001123Y000200D02*
X017223Y000200D01*
X017273Y000202D01*
X017323Y000207D01*
X017372Y000216D01*
X017420Y000228D01*
X017468Y000244D01*
X017514Y000263D01*
X017558Y000286D01*
X017601Y000311D01*
X017642Y000340D01*
X017681Y000371D01*
X017718Y000405D01*
X017752Y000442D01*
X017783Y000481D01*
X017812Y000522D01*
X017837Y000565D01*
X017860Y000609D01*
X017879Y000655D01*
X017895Y000703D01*
X017907Y000751D01*
X017916Y000800D01*
X017921Y000850D01*
X017923Y000900D01*
X017923Y012200D01*
X001123Y012200D01*
X001073Y012198D01*
X001023Y012193D01*
X000974Y012184D01*
X000926Y012172D01*
X000878Y012156D01*
X000832Y012137D01*
X000788Y012114D01*
X000745Y012089D01*
X000704Y012060D01*
X000665Y012029D01*
X000628Y011995D01*
X000594Y011958D01*
X000563Y011919D01*
X000534Y011878D01*
X000509Y011835D01*
X000486Y011791D01*
X000467Y011745D01*
X000451Y011697D01*
X000439Y011649D01*
X000430Y011600D01*
X000425Y011550D01*
X000423Y011500D01*
X000423Y000900D01*
X000425Y000850D01*
X000430Y000800D01*
X000439Y000751D01*
X000451Y000703D01*
X000467Y000655D01*
X000486Y000609D01*
X000509Y000565D01*
X000534Y000522D01*
X000563Y000481D01*
X000594Y000442D01*
X000628Y000405D01*
X000665Y000371D01*
X000704Y000340D01*
X000745Y000311D01*
X000788Y000286D01*
X000832Y000263D01*
X000878Y000244D01*
X000926Y000228D01*
X000974Y000216D01*
X001023Y000207D01*
X001073Y000202D01*
X001123Y000200D01*
D11*
X000779Y000950D02*
X000781Y000989D01*
X000787Y001028D01*
X000797Y001066D01*
X000810Y001103D01*
X000827Y001138D01*
X000847Y001172D01*
X000871Y001203D01*
X000898Y001232D01*
X000927Y001258D01*
X000959Y001281D01*
X000993Y001301D01*
X001029Y001317D01*
X001066Y001329D01*
X001105Y001338D01*
X001144Y001343D01*
X001183Y001344D01*
X001222Y001341D01*
X001261Y001334D01*
X001298Y001323D01*
X001335Y001309D01*
X001370Y001291D01*
X001403Y001270D01*
X001434Y001245D01*
X001462Y001218D01*
X001487Y001188D01*
X001509Y001155D01*
X001528Y001121D01*
X001543Y001085D01*
X001555Y001047D01*
X001563Y001009D01*
X001567Y000970D01*
X001567Y000930D01*
X001563Y000891D01*
X001555Y000853D01*
X001543Y000815D01*
X001528Y000779D01*
X001509Y000745D01*
X001487Y000712D01*
X001462Y000682D01*
X001434Y000655D01*
X001403Y000630D01*
X001370Y000609D01*
X001335Y000591D01*
X001298Y000577D01*
X001261Y000566D01*
X001222Y000559D01*
X001183Y000556D01*
X001144Y000557D01*
X001105Y000562D01*
X001066Y000571D01*
X001029Y000583D01*
X000993Y000599D01*
X000959Y000619D01*
X000927Y000642D01*
X000898Y000668D01*
X000871Y000697D01*
X000847Y000728D01*
X000827Y000762D01*
X000810Y000797D01*
X000797Y000834D01*
X000787Y000872D01*
X000781Y000911D01*
X000779Y000950D01*
X000779Y011450D02*
X000781Y011489D01*
X000787Y011528D01*
X000797Y011566D01*
X000810Y011603D01*
X000827Y011638D01*
X000847Y011672D01*
X000871Y011703D01*
X000898Y011732D01*
X000927Y011758D01*
X000959Y011781D01*
X000993Y011801D01*
X001029Y011817D01*
X001066Y011829D01*
X001105Y011838D01*
X001144Y011843D01*
X001183Y011844D01*
X001222Y011841D01*
X001261Y011834D01*
X001298Y011823D01*
X001335Y011809D01*
X001370Y011791D01*
X001403Y011770D01*
X001434Y011745D01*
X001462Y011718D01*
X001487Y011688D01*
X001509Y011655D01*
X001528Y011621D01*
X001543Y011585D01*
X001555Y011547D01*
X001563Y011509D01*
X001567Y011470D01*
X001567Y011430D01*
X001563Y011391D01*
X001555Y011353D01*
X001543Y011315D01*
X001528Y011279D01*
X001509Y011245D01*
X001487Y011212D01*
X001462Y011182D01*
X001434Y011155D01*
X001403Y011130D01*
X001370Y011109D01*
X001335Y011091D01*
X001298Y011077D01*
X001261Y011066D01*
X001222Y011059D01*
X001183Y011056D01*
X001144Y011057D01*
X001105Y011062D01*
X001066Y011071D01*
X001029Y011083D01*
X000993Y011099D01*
X000959Y011119D01*
X000927Y011142D01*
X000898Y011168D01*
X000871Y011197D01*
X000847Y011228D01*
X000827Y011262D01*
X000810Y011297D01*
X000797Y011334D01*
X000787Y011372D01*
X000781Y011411D01*
X000779Y011450D01*
X016779Y011450D02*
X016781Y011489D01*
X016787Y011528D01*
X016797Y011566D01*
X016810Y011603D01*
X016827Y011638D01*
X016847Y011672D01*
X016871Y011703D01*
X016898Y011732D01*
X016927Y011758D01*
X016959Y011781D01*
X016993Y011801D01*
X017029Y011817D01*
X017066Y011829D01*
X017105Y011838D01*
X017144Y011843D01*
X017183Y011844D01*
X017222Y011841D01*
X017261Y011834D01*
X017298Y011823D01*
X017335Y011809D01*
X017370Y011791D01*
X017403Y011770D01*
X017434Y011745D01*
X017462Y011718D01*
X017487Y011688D01*
X017509Y011655D01*
X017528Y011621D01*
X017543Y011585D01*
X017555Y011547D01*
X017563Y011509D01*
X017567Y011470D01*
X017567Y011430D01*
X017563Y011391D01*
X017555Y011353D01*
X017543Y011315D01*
X017528Y011279D01*
X017509Y011245D01*
X017487Y011212D01*
X017462Y011182D01*
X017434Y011155D01*
X017403Y011130D01*
X017370Y011109D01*
X017335Y011091D01*
X017298Y011077D01*
X017261Y011066D01*
X017222Y011059D01*
X017183Y011056D01*
X017144Y011057D01*
X017105Y011062D01*
X017066Y011071D01*
X017029Y011083D01*
X016993Y011099D01*
X016959Y011119D01*
X016927Y011142D01*
X016898Y011168D01*
X016871Y011197D01*
X016847Y011228D01*
X016827Y011262D01*
X016810Y011297D01*
X016797Y011334D01*
X016787Y011372D01*
X016781Y011411D01*
X016779Y011450D01*
X016779Y000950D02*
X016781Y000989D01*
X016787Y001028D01*
X016797Y001066D01*
X016810Y001103D01*
X016827Y001138D01*
X016847Y001172D01*
X016871Y001203D01*
X016898Y001232D01*
X016927Y001258D01*
X016959Y001281D01*
X016993Y001301D01*
X017029Y001317D01*
X017066Y001329D01*
X017105Y001338D01*
X017144Y001343D01*
X017183Y001344D01*
X017222Y001341D01*
X017261Y001334D01*
X017298Y001323D01*
X017335Y001309D01*
X017370Y001291D01*
X017403Y001270D01*
X017434Y001245D01*
X017462Y001218D01*
X017487Y001188D01*
X017509Y001155D01*
X017528Y001121D01*
X017543Y001085D01*
X017555Y001047D01*
X017563Y001009D01*
X017567Y000970D01*
X017567Y000930D01*
X017563Y000891D01*
X017555Y000853D01*
X017543Y000815D01*
X017528Y000779D01*
X017509Y000745D01*
X017487Y000712D01*
X017462Y000682D01*
X017434Y000655D01*
X017403Y000630D01*
X017370Y000609D01*
X017335Y000591D01*
X017298Y000577D01*
X017261Y000566D01*
X017222Y000559D01*
X017183Y000556D01*
X017144Y000557D01*
X017105Y000562D01*
X017066Y000571D01*
X017029Y000583D01*
X016993Y000599D01*
X016959Y000619D01*
X016927Y000642D01*
X016898Y000668D01*
X016871Y000697D01*
X016847Y000728D01*
X016827Y000762D01*
X016810Y000797D01*
X016797Y000834D01*
X016787Y000872D01*
X016781Y000911D01*
X016779Y000950D01*
M02*
