%
M48
M72
T01C0.0140
T02C0.0400
T03C0.0787
%
T01
X1273Y2200
X1273Y3200
X2623Y4200
X3923Y4200
X4823Y3600
X5923Y4500
X6523Y3600
X6923Y3300
X8123Y4600
X9073Y4600
X9223Y5000
X10649Y4626
X11423Y4600
X12423Y4200
X13223Y4000
X13823Y3900
X15223Y4600
X15623Y5100
X14723Y5400
X14323Y5000
X13523Y5400
X12923Y5900
X12223Y6000
X12123Y6600
X13523Y7200
X14323Y7900
X14023Y8600
X14723Y9000
X15623Y8200
X15223Y10000
X12023Y9800
X11823Y10200
X10823Y10200
X11823Y9200
X10623Y8800
X9623Y7900
X10123Y7400
X10723Y7500
X8623Y8800
X8373Y9200
X7773Y9800
X7373Y9500
X7123Y8950
X7123Y8400
X6623Y8400
X6123Y7900
X6423Y7500
X5423Y6300
X6323Y5900
X3923Y5300
X3023Y5900
X3023Y6600
X3623Y7100
X3973Y7550
X2623Y8200
X1223Y9200
X1273Y10200
X4173Y9750
X4623Y9450
X4173Y9100
X5673Y8950
X6123Y9950
X10923Y5500
X9823Y2150
T02
X10323Y1700
X11323Y1700
X12323Y1700
X13323Y1700
X14323Y1700
X16173Y2700
X17173Y2700
X17173Y3700
X16173Y3700
X16173Y4700
X17173Y4700
X17173Y5700
X16173Y5700
X16173Y6700
X17173Y6700
X17173Y7700
X16173Y7700
X16173Y8700
X17173Y8700
X17173Y9700
X16173Y9700
X14323Y10700
X13323Y10700
X12323Y10700
X11323Y10700
X10323Y10700
X9323Y10700
X8323Y10700
X7323Y10700
X6323Y10700
X5323Y10700
X4323Y10700
X3323Y10700
X3323Y1700
X4323Y1700
X5323Y1700
X6323Y1700
X7323Y1700
X8323Y1700
X9323Y1700
T03
X1173Y950
X1173Y11450
X17173Y11450
X17173Y950
M30
