G75*
%MOIN*%
%OFA0B0*%
%FSLAX24Y24*%
%IPPOS*%
%LPD*%
%AMOC8*
5,1,8,0,0,1.08239X$1,22.5*
%
%ADD10R,0.0640X0.0640*%
%ADD11OC8,0.0640*%
%ADD12R,0.0740X0.0740*%
%ADD13OC8,0.0740*%
%ADD14C,0.0100*%
%ADD15C,0.0340*%
%ADD16C,0.0240*%
%ADD17C,0.0120*%
%ADD18C,0.0070*%
D10*
X003323Y001700D03*
D11*
X004323Y001700D03*
X005323Y001700D03*
X006323Y001700D03*
X007323Y001700D03*
X008323Y001700D03*
X009323Y001700D03*
X010323Y001700D03*
X011323Y001700D03*
X012323Y001700D03*
X013323Y001700D03*
X014323Y001700D03*
X014323Y010700D03*
X013323Y010700D03*
X012323Y010700D03*
X011323Y010700D03*
X010323Y010700D03*
X009323Y010700D03*
X008323Y010700D03*
X007323Y010700D03*
X006323Y010700D03*
X005323Y010700D03*
X004323Y010700D03*
X003323Y010700D03*
D12*
X017173Y009700D03*
D13*
X016173Y009700D03*
X016173Y008700D03*
X017173Y008700D03*
X017173Y007700D03*
X016173Y007700D03*
X016173Y006700D03*
X017173Y006700D03*
X017173Y005700D03*
X016173Y005700D03*
X016173Y004700D03*
X017173Y004700D03*
X017173Y003700D03*
X016173Y003700D03*
X016173Y002700D03*
X017173Y002700D03*
D14*
X002773Y002500D02*
X002773Y000380D01*
X017223Y000380D01*
X017324Y000390D01*
X017512Y000468D01*
X017655Y000611D01*
X017733Y000799D01*
X017743Y000900D01*
X017716Y000900D01*
X017743Y000900D02*
X017743Y011961D01*
X017716Y011993D01*
X017684Y012020D01*
X002773Y012020D01*
X002773Y008910D01*
X003910Y008910D01*
X004033Y008787D01*
X004310Y008510D01*
X006310Y008510D01*
X006318Y008501D01*
X006351Y008581D01*
X006441Y008671D01*
X006559Y008720D01*
X006686Y008720D01*
X006804Y008671D01*
X006873Y008603D01*
X006941Y008671D01*
X006950Y008675D01*
X006941Y008679D01*
X006851Y008769D01*
X006803Y008886D01*
X006803Y009014D01*
X006823Y009062D01*
X006823Y009917D01*
X006656Y009750D01*
X006375Y009750D01*
X006304Y009679D01*
X006186Y009630D01*
X006059Y009630D01*
X005941Y009679D01*
X005851Y009769D01*
X005803Y009886D01*
X005803Y010014D01*
X005851Y010131D01*
X005941Y010221D01*
X006059Y010270D01*
X006088Y010270D01*
X005853Y010505D01*
X005853Y010895D01*
X006128Y011170D01*
X006517Y011170D01*
X006793Y010895D01*
X006793Y010505D01*
X006517Y010230D01*
X006283Y010230D01*
X006304Y010221D01*
X006375Y010150D01*
X006490Y010150D01*
X006853Y010513D01*
X006853Y010895D01*
X007128Y011170D01*
X007517Y011170D01*
X007793Y010895D01*
X007793Y010505D01*
X007687Y010400D01*
X007958Y010400D01*
X007853Y010505D01*
X007853Y010895D01*
X008128Y011170D01*
X008517Y011170D01*
X008793Y010895D01*
X008793Y010505D01*
X008687Y010400D01*
X008958Y010400D01*
X008853Y010505D01*
X008853Y010895D01*
X009128Y011170D01*
X009517Y011170D01*
X009793Y010895D01*
X009793Y010505D01*
X009687Y010400D01*
X009958Y010400D01*
X009853Y010505D01*
X009853Y010895D01*
X010128Y011170D01*
X010517Y011170D01*
X010793Y010895D01*
X010793Y010520D01*
X010853Y010520D01*
X010853Y010895D01*
X011128Y011170D01*
X011517Y011170D01*
X011793Y010895D01*
X011793Y010520D01*
X011853Y010520D01*
X011853Y010895D01*
X012128Y011170D01*
X012517Y011170D01*
X012793Y010895D01*
X012793Y010505D01*
X012517Y010230D01*
X012143Y010230D01*
X012143Y010136D01*
X012129Y010102D01*
X012204Y010071D01*
X012294Y009981D01*
X012343Y009864D01*
X012343Y009736D01*
X012328Y009700D01*
X015111Y009700D01*
X012328Y009700D01*
X012423Y009700D02*
X012423Y010230D01*
X012523Y010235D02*
X012523Y009700D01*
X012623Y009700D02*
X012623Y010335D01*
X012587Y010300D02*
X013053Y010300D01*
X013053Y010305D02*
X013053Y010046D01*
X013094Y009947D01*
X013170Y009871D01*
X013270Y009771D01*
X013369Y009730D01*
X015040Y009730D01*
X015041Y009729D01*
X015111Y009700D01*
X015023Y009700D02*
X015023Y009730D01*
X014923Y009730D02*
X014923Y009700D01*
X014823Y009700D02*
X014823Y009730D01*
X014723Y009730D02*
X014723Y009700D01*
X014623Y009700D02*
X014623Y009730D01*
X014523Y009730D02*
X014523Y009700D01*
X014423Y009700D02*
X014423Y009730D01*
X014323Y009730D02*
X014323Y009700D01*
X014223Y009700D02*
X014223Y009730D01*
X014123Y009730D02*
X014123Y009700D01*
X014023Y009700D02*
X014023Y009730D01*
X013923Y009730D02*
X013923Y009700D01*
X013823Y009700D02*
X013823Y009730D01*
X013723Y009730D02*
X013723Y009700D01*
X013623Y009700D02*
X013623Y009730D01*
X013523Y009730D02*
X013523Y009700D01*
X013423Y009700D02*
X013423Y009730D01*
X013323Y009749D02*
X013323Y009700D01*
X013223Y009700D02*
X013223Y009818D01*
X013241Y009800D02*
X012343Y009800D01*
X012328Y009900D02*
X013141Y009900D01*
X013123Y009918D02*
X013123Y009700D01*
X013023Y009700D02*
X013023Y010335D01*
X013053Y010305D02*
X012853Y010505D01*
X012853Y010895D01*
X013128Y011170D01*
X013517Y011170D01*
X013793Y010895D01*
X013793Y010505D01*
X013593Y010305D01*
X013593Y010270D01*
X014130Y010270D01*
X013883Y010518D01*
X013883Y010650D01*
X014273Y010650D01*
X014273Y010750D01*
X014273Y011140D01*
X014140Y011140D01*
X013883Y010882D01*
X013883Y010750D01*
X014273Y010750D01*
X014373Y010750D01*
X014763Y010750D01*
X014763Y010882D01*
X014505Y011140D01*
X014373Y011140D01*
X014373Y010750D01*
X014373Y010650D01*
X014763Y010650D01*
X014763Y010518D01*
X014515Y010270D01*
X015040Y010270D01*
X015041Y010271D01*
X015159Y010320D01*
X015286Y010320D01*
X015404Y010271D01*
X015494Y010181D01*
X015543Y010064D01*
X015543Y009936D01*
X015494Y009819D01*
X015404Y009729D01*
X015335Y009700D01*
X015653Y009700D01*
X015653Y009600D02*
X015556Y009600D01*
X015523Y009633D02*
X015523Y009888D01*
X015528Y009900D02*
X015653Y009900D01*
X015653Y009915D02*
X015653Y009503D01*
X015456Y009700D01*
X015335Y009700D01*
X015423Y009700D02*
X015423Y009747D01*
X015475Y009800D02*
X015653Y009800D01*
X015653Y009915D02*
X015957Y010220D01*
X016388Y010220D01*
X016653Y009955D01*
X016653Y010132D01*
X016741Y010220D01*
X017605Y010220D01*
X017693Y010132D01*
X017693Y009268D01*
X017605Y009180D01*
X017428Y009180D01*
X017693Y008915D01*
X017693Y008485D01*
X017408Y008200D01*
X017743Y008200D01*
X017743Y008100D02*
X017508Y008100D01*
X017523Y008085D02*
X017523Y008315D01*
X017508Y008300D02*
X017743Y008300D01*
X017743Y008400D02*
X017608Y008400D01*
X017623Y008415D02*
X017623Y007985D01*
X017608Y008000D02*
X017743Y008000D01*
X017693Y007915D02*
X017408Y008200D01*
X017423Y008185D02*
X017423Y008215D01*
X017693Y007915D02*
X017693Y007485D01*
X017408Y007200D01*
X017743Y007200D01*
X017743Y007100D02*
X017508Y007100D01*
X017523Y007085D02*
X017523Y007315D01*
X017508Y007300D02*
X017743Y007300D01*
X017743Y007400D02*
X017608Y007400D01*
X017623Y007415D02*
X017623Y006985D01*
X017608Y007000D02*
X017743Y007000D01*
X017693Y006915D02*
X017408Y007200D01*
X017423Y007185D02*
X017423Y007215D01*
X017693Y006915D02*
X017693Y006485D01*
X017408Y006200D01*
X017743Y006200D01*
X017743Y006100D02*
X017508Y006100D01*
X017523Y006085D02*
X017523Y006315D01*
X017508Y006300D02*
X017743Y006300D01*
X017743Y006400D02*
X017608Y006400D01*
X017623Y006415D02*
X017623Y005985D01*
X017608Y006000D02*
X017743Y006000D01*
X017693Y005915D02*
X017408Y006200D01*
X017423Y006185D02*
X017423Y006215D01*
X017693Y005915D02*
X017693Y005485D01*
X017408Y005200D01*
X017743Y005200D01*
X017743Y005100D02*
X017508Y005100D01*
X017523Y005085D02*
X017523Y005315D01*
X017508Y005300D02*
X017743Y005300D01*
X017743Y005400D02*
X017608Y005400D01*
X017623Y005415D02*
X017623Y004985D01*
X017608Y005000D02*
X017743Y005000D01*
X017693Y004915D02*
X017408Y005200D01*
X017423Y005185D02*
X017423Y005215D01*
X017693Y004915D02*
X017693Y004485D01*
X017408Y004200D01*
X017693Y003915D01*
X017693Y003485D01*
X017388Y003180D01*
X017386Y003180D01*
X017663Y002903D01*
X017663Y002750D01*
X017223Y002750D01*
X017223Y002650D01*
X017663Y002650D01*
X017663Y002497D01*
X017376Y002210D01*
X017223Y002210D01*
X017223Y001494D01*
X017281Y001494D02*
X017065Y001494D01*
X016865Y001411D01*
X016712Y001258D01*
X016629Y001058D01*
X016629Y000842D01*
X016712Y000642D01*
X016865Y000489D01*
X017065Y000406D01*
X017281Y000406D01*
X017481Y000489D01*
X017634Y000642D01*
X017716Y000842D01*
X017716Y001058D01*
X017634Y001258D01*
X017481Y001411D01*
X017281Y001494D01*
X017323Y001476D02*
X017323Y002210D01*
X017223Y002210D02*
X017223Y002650D01*
X017123Y002650D01*
X017123Y001494D01*
X017023Y001476D02*
X017023Y002210D01*
X016970Y002210D02*
X017123Y002210D01*
X017123Y002650D01*
X017123Y002600D02*
X017223Y002600D01*
X017223Y002500D02*
X017123Y002500D01*
X017123Y002400D02*
X017223Y002400D01*
X017223Y002300D02*
X017123Y002300D01*
X016970Y002210D02*
X016873Y002307D01*
X016873Y002267D01*
X016673Y002067D01*
X016556Y001950D01*
X014695Y001950D01*
X014763Y001882D01*
X014763Y001750D01*
X014373Y001750D01*
X014373Y001650D01*
X014763Y001650D01*
X014763Y001518D01*
X014505Y001260D01*
X014373Y001260D01*
X014373Y001650D01*
X014273Y001650D01*
X014273Y001260D01*
X014140Y001260D01*
X013883Y001518D01*
X013883Y001650D01*
X014273Y001650D01*
X014273Y001750D01*
X013883Y001750D01*
X013883Y001882D01*
X013950Y001950D01*
X013737Y001950D01*
X013793Y001895D01*
X013793Y001505D01*
X013517Y001230D01*
X013128Y001230D01*
X012853Y001505D01*
X012853Y001895D01*
X012908Y001950D01*
X012737Y001950D01*
X012793Y001895D01*
X012793Y001505D01*
X012517Y001230D01*
X012128Y001230D01*
X011853Y001505D01*
X011853Y001895D01*
X011908Y001950D01*
X011737Y001950D01*
X011793Y001895D01*
X011793Y001505D01*
X011517Y001230D01*
X011128Y001230D01*
X010853Y001505D01*
X010853Y001895D01*
X010908Y001950D01*
X010737Y001950D01*
X010793Y001895D01*
X010793Y001505D01*
X010517Y001230D01*
X010128Y001230D01*
X009853Y001505D01*
X009853Y001830D01*
X009793Y001830D01*
X009793Y001505D01*
X009517Y001230D01*
X009128Y001230D01*
X008853Y001505D01*
X008853Y001895D01*
X009128Y002170D01*
X009503Y002170D01*
X009503Y002214D01*
X009551Y002331D01*
X009641Y002421D01*
X009759Y002470D01*
X009886Y002470D01*
X010004Y002421D01*
X010075Y002350D01*
X015830Y002350D01*
X015683Y002497D01*
X015683Y002650D01*
X016123Y002650D01*
X016123Y002750D01*
X015683Y002750D01*
X015683Y002903D01*
X015960Y003180D01*
X015957Y003180D01*
X015653Y003485D01*
X015653Y003700D01*
X014075Y003700D01*
X014004Y003629D01*
X013886Y003580D01*
X013759Y003580D01*
X013641Y003629D01*
X013551Y003719D01*
X013503Y003836D01*
X013503Y003840D01*
X013494Y003819D01*
X013423Y003747D01*
X013423Y002350D01*
X013523Y002350D02*
X013523Y003788D01*
X013518Y003800D02*
X013475Y003800D01*
X013423Y003747D02*
X013423Y003017D01*
X013306Y002900D01*
X015683Y002900D01*
X015723Y002943D02*
X015723Y003415D01*
X015737Y003400D02*
X013423Y003400D01*
X013423Y003300D02*
X015837Y003300D01*
X015823Y003315D02*
X015823Y003043D01*
X015780Y003000D02*
X013406Y003000D01*
X013423Y003100D02*
X015880Y003100D01*
X015923Y003143D02*
X015923Y003215D01*
X015937Y003200D02*
X013423Y003200D01*
X013223Y003100D02*
X013223Y004000D01*
X013173Y004000D01*
X012903Y004000D02*
X012675Y004000D01*
X012694Y004019D02*
X012743Y004136D01*
X012743Y004264D01*
X012715Y004330D01*
X015040Y004330D01*
X015041Y004329D01*
X015159Y004280D01*
X015286Y004280D01*
X015404Y004329D01*
X015494Y004419D01*
X015499Y004430D01*
X015707Y004430D01*
X015937Y004200D01*
X013935Y004200D01*
X013923Y004205D02*
X013923Y004330D01*
X014023Y004330D02*
X014023Y004153D01*
X014004Y004171D02*
X013886Y004220D01*
X013759Y004220D01*
X013641Y004171D01*
X013551Y004081D01*
X013543Y004060D01*
X013543Y004064D01*
X013494Y004181D01*
X013404Y004271D01*
X013286Y004320D01*
X013159Y004320D01*
X013041Y004271D01*
X012951Y004181D01*
X012903Y004064D01*
X012903Y003936D01*
X012951Y003819D01*
X013023Y003747D01*
X013023Y003183D01*
X012740Y002900D01*
X012306Y002900D01*
X012506Y003100D01*
X012940Y003100D01*
X012923Y003083D02*
X012923Y003888D01*
X012918Y003900D02*
X012623Y003900D01*
X012623Y003947D02*
X012623Y002900D01*
X012723Y002900D02*
X012723Y004088D01*
X012728Y004100D02*
X012918Y004100D01*
X012923Y004112D02*
X012923Y004330D01*
X013023Y004330D02*
X013023Y004253D01*
X012970Y004200D02*
X012743Y004200D01*
X012728Y004300D02*
X013111Y004300D01*
X013123Y004305D02*
X013123Y004330D01*
X013223Y004320D02*
X013223Y004330D01*
X013323Y004330D02*
X013323Y004305D01*
X013335Y004300D02*
X015111Y004300D01*
X015123Y004295D02*
X015123Y004100D01*
X015223Y004100D02*
X015223Y004280D01*
X015323Y004295D02*
X015323Y004100D01*
X015423Y004100D02*
X015423Y004347D01*
X015475Y004400D02*
X015737Y004400D01*
X015723Y004415D02*
X015723Y004100D01*
X015823Y004100D02*
X015823Y004315D01*
X015837Y004300D02*
X015335Y004300D01*
X015523Y004430D02*
X015523Y004100D01*
X015623Y004100D02*
X015623Y004430D01*
X015923Y004215D02*
X015923Y004185D01*
X015937Y004200D02*
X015837Y004100D01*
X014075Y004100D01*
X015837Y004100D01*
X015973Y003900D02*
X016173Y003700D01*
X015973Y003900D02*
X013823Y003900D01*
X014075Y004100D02*
X014004Y004171D01*
X014123Y004100D02*
X014123Y004330D01*
X014223Y004330D02*
X014223Y004100D01*
X014323Y004100D02*
X014323Y004330D01*
X014423Y004330D02*
X014423Y004100D01*
X014523Y004100D02*
X014523Y004330D01*
X014623Y004330D02*
X014623Y004100D01*
X014723Y004100D02*
X014723Y004330D01*
X014823Y004330D02*
X014823Y004100D01*
X014923Y004100D02*
X014923Y004330D01*
X015023Y004330D02*
X015023Y004100D01*
X015023Y003700D02*
X015023Y002350D01*
X015123Y002350D02*
X015123Y003700D01*
X015223Y003700D02*
X015223Y002350D01*
X015323Y002350D02*
X015323Y003700D01*
X015423Y003700D02*
X015423Y002350D01*
X015523Y002350D02*
X015523Y003700D01*
X015623Y003700D02*
X015623Y002350D01*
X015723Y002350D02*
X015723Y002457D01*
X015683Y002500D02*
X012906Y002500D01*
X013306Y002900D01*
X013323Y002917D02*
X013323Y002350D01*
X013223Y002350D02*
X013223Y002817D01*
X013206Y002800D02*
X015683Y002800D01*
X015723Y002750D02*
X015723Y002650D01*
X015683Y002600D02*
X013006Y002600D01*
X013023Y002617D02*
X013023Y002350D01*
X013123Y002350D02*
X013123Y002717D01*
X013106Y002700D02*
X016123Y002700D01*
X016023Y002650D02*
X016023Y002750D01*
X015923Y002750D02*
X015923Y002650D01*
X015823Y002650D02*
X015823Y002750D01*
X015780Y002400D02*
X010025Y002400D01*
X010023Y002403D02*
X010023Y002500D01*
X010123Y002500D02*
X010123Y002350D01*
X010223Y002350D02*
X010223Y002500D01*
X010323Y002500D02*
X010323Y002350D01*
X010423Y002350D02*
X010423Y002500D01*
X010523Y002500D02*
X010523Y002350D01*
X010623Y002350D02*
X010623Y002500D01*
X010723Y002500D02*
X010723Y002350D01*
X010823Y002350D02*
X010823Y002500D01*
X010923Y002500D02*
X010923Y002350D01*
X011023Y002350D02*
X011023Y002500D01*
X011123Y002500D02*
X011123Y002350D01*
X011223Y002350D02*
X011223Y002500D01*
X011323Y002500D02*
X011323Y002350D01*
X011423Y002350D02*
X011423Y002500D01*
X011523Y002500D02*
X011523Y002350D01*
X011623Y002350D02*
X011623Y002500D01*
X011723Y002500D02*
X011723Y002350D01*
X011823Y002350D02*
X011823Y002500D01*
X011923Y002500D02*
X011923Y002350D01*
X012023Y002350D02*
X012023Y002500D01*
X012123Y002500D02*
X012123Y002350D01*
X012223Y002350D02*
X012223Y002500D01*
X012323Y002500D02*
X012323Y002350D01*
X012423Y002350D02*
X012423Y002500D01*
X012523Y002500D02*
X012523Y002350D01*
X012623Y002350D02*
X012623Y002500D01*
X012723Y002500D02*
X012723Y002350D01*
X012823Y002350D02*
X012823Y002500D01*
X012906Y002500D02*
X002773Y002500D01*
X002823Y002500D02*
X002823Y000380D01*
X002773Y000400D02*
X017348Y000400D01*
X017323Y000390D02*
X017323Y000424D01*
X017423Y000431D02*
X017423Y000465D01*
X017492Y000500D02*
X017544Y000500D01*
X017523Y000479D02*
X017523Y000531D01*
X017592Y000600D02*
X017644Y000600D01*
X017623Y000579D02*
X017623Y000631D01*
X017658Y000700D02*
X017692Y000700D01*
X017723Y000774D02*
X017723Y011985D01*
X017707Y012000D02*
X002773Y012000D01*
X002823Y012020D02*
X002823Y008910D01*
X002923Y008910D02*
X002923Y010435D01*
X002958Y010400D02*
X002773Y010400D01*
X002773Y010300D02*
X003058Y010300D01*
X003023Y010335D02*
X003023Y008910D01*
X003123Y008910D02*
X003123Y009967D01*
X003240Y009850D01*
X003540Y009550D01*
X003920Y009550D01*
X003991Y009479D01*
X004109Y009430D01*
X004236Y009430D01*
X004303Y009457D01*
X004303Y009393D01*
X004236Y009420D01*
X004109Y009420D01*
X003991Y009371D01*
X003901Y009281D01*
X003853Y009164D01*
X003853Y009036D01*
X003901Y008919D01*
X003991Y008829D01*
X004109Y008780D01*
X004236Y008780D01*
X004354Y008829D01*
X004425Y008900D01*
X005353Y008900D01*
X005353Y008886D01*
X005401Y008769D01*
X005491Y008679D01*
X005609Y008630D01*
X005736Y008630D01*
X005854Y008679D01*
X005944Y008769D01*
X005993Y008886D01*
X005993Y009014D01*
X005944Y009131D01*
X005854Y009221D01*
X005736Y009270D01*
X005636Y009270D01*
X005606Y009300D01*
X004907Y009300D01*
X006823Y009300D01*
X006823Y009200D02*
X005875Y009200D01*
X005823Y009234D02*
X005823Y009838D01*
X005838Y009800D02*
X004823Y009800D01*
X004823Y009703D02*
X004823Y010483D01*
X004793Y010513D01*
X004793Y010895D01*
X004517Y011170D01*
X004128Y011170D01*
X003853Y010895D01*
X003853Y010505D01*
X004128Y010230D01*
X004423Y010230D01*
X004423Y009953D01*
X004354Y010021D01*
X004236Y010070D01*
X004109Y010070D01*
X003991Y010021D01*
X003920Y009950D01*
X003706Y009950D01*
X003523Y010133D01*
X003523Y010235D01*
X003793Y010505D01*
X003793Y010895D01*
X003517Y011170D01*
X003128Y011170D01*
X002853Y010895D01*
X002853Y010505D01*
X003123Y010235D01*
X003123Y009967D01*
X003123Y010000D02*
X002773Y010000D01*
X002773Y010100D02*
X003123Y010100D01*
X003123Y010200D02*
X002773Y010200D01*
X002773Y009900D02*
X003190Y009900D01*
X003223Y009867D02*
X003223Y008910D01*
X003323Y008910D02*
X003323Y009767D01*
X003290Y009800D02*
X002773Y009800D01*
X002773Y009700D02*
X003390Y009700D01*
X003423Y009667D02*
X003423Y008910D01*
X003523Y008910D02*
X003523Y009567D01*
X003490Y009600D02*
X002773Y009600D01*
X002773Y009500D02*
X003970Y009500D01*
X004023Y009466D02*
X004023Y009384D01*
X004061Y009400D02*
X002773Y009400D01*
X002773Y009300D02*
X003920Y009300D01*
X003923Y009303D02*
X003923Y009547D01*
X003823Y009550D02*
X003823Y008910D01*
X003920Y008900D02*
X003920Y008900D01*
X003923Y008897D02*
X003923Y008897D01*
X003868Y009000D02*
X002773Y009000D01*
X002773Y009100D02*
X003853Y009100D01*
X003868Y009200D02*
X002773Y009200D01*
X003240Y009850D02*
X003240Y009850D01*
X003323Y010050D02*
X003323Y010700D01*
X003793Y010700D02*
X003853Y010700D01*
X003853Y010600D02*
X003793Y010600D01*
X003787Y010500D02*
X003858Y010500D01*
X003923Y010435D02*
X003923Y009953D01*
X003970Y010000D02*
X003656Y010000D01*
X003623Y010033D02*
X003623Y010335D01*
X003587Y010300D02*
X004058Y010300D01*
X004023Y010335D02*
X004023Y010034D01*
X004123Y010070D02*
X004123Y010235D01*
X004223Y010230D02*
X004223Y010070D01*
X004323Y010034D02*
X004323Y010230D01*
X004423Y010200D02*
X003523Y010200D01*
X003523Y010235D02*
X003523Y010133D01*
X003556Y010100D02*
X004423Y010100D01*
X004423Y010000D02*
X004375Y010000D01*
X004173Y009750D02*
X003623Y009750D01*
X003323Y010050D01*
X003723Y009950D02*
X003723Y010435D01*
X003687Y010400D02*
X003958Y010400D01*
X004323Y010700D02*
X004623Y010400D01*
X004623Y009450D01*
X004923Y009338D02*
X004923Y009300D01*
X004907Y009300D02*
X004943Y009386D01*
X004943Y009514D01*
X004894Y009631D01*
X004823Y009703D01*
X004823Y012020D01*
X004923Y012020D02*
X004923Y010965D01*
X004958Y011000D02*
X004687Y011000D01*
X004723Y010965D02*
X004723Y012020D01*
X004623Y012020D02*
X004623Y011065D01*
X004587Y011100D02*
X005058Y011100D01*
X005023Y011065D02*
X005023Y012020D01*
X005123Y012020D02*
X005123Y011165D01*
X005128Y011170D02*
X004853Y010895D01*
X004853Y010505D01*
X005128Y010230D01*
X005517Y010230D01*
X005793Y010505D01*
X005793Y010895D01*
X005517Y011170D01*
X005128Y011170D01*
X005223Y011170D02*
X005223Y012020D01*
X005323Y012020D02*
X005323Y011170D01*
X005423Y011170D02*
X005423Y012020D01*
X005523Y012020D02*
X005523Y011165D01*
X005587Y011100D02*
X006058Y011100D01*
X006023Y011065D02*
X006023Y012020D01*
X006123Y012020D02*
X006123Y011165D01*
X006223Y011170D02*
X006223Y012020D01*
X006323Y012020D02*
X006323Y011170D01*
X006423Y011170D02*
X006423Y012020D01*
X006523Y012020D02*
X006523Y011165D01*
X006587Y011100D02*
X007058Y011100D01*
X007023Y011065D02*
X007023Y012020D01*
X007123Y012020D02*
X007123Y011165D01*
X007223Y011170D02*
X007223Y012020D01*
X007323Y012020D02*
X007323Y011170D01*
X007423Y011170D02*
X007423Y012020D01*
X007523Y012020D02*
X007523Y011165D01*
X007587Y011100D02*
X008058Y011100D01*
X008023Y011065D02*
X008023Y012020D01*
X008123Y012020D02*
X008123Y011165D01*
X008223Y011170D02*
X008223Y012020D01*
X008323Y012020D02*
X008323Y011170D01*
X008423Y011170D02*
X008423Y012020D01*
X008523Y012020D02*
X008523Y011165D01*
X008587Y011100D02*
X009058Y011100D01*
X009023Y011065D02*
X009023Y012020D01*
X009123Y012020D02*
X009123Y011165D01*
X009223Y011170D02*
X009223Y012020D01*
X009323Y012020D02*
X009323Y011170D01*
X009423Y011170D02*
X009423Y012020D01*
X009523Y012020D02*
X009523Y011165D01*
X009587Y011100D02*
X010058Y011100D01*
X010023Y011065D02*
X010023Y012020D01*
X010123Y012020D02*
X010123Y011165D01*
X010223Y011170D02*
X010223Y012020D01*
X010323Y012020D02*
X010323Y011170D01*
X010423Y011170D02*
X010423Y012020D01*
X010523Y012020D02*
X010523Y011165D01*
X010587Y011100D02*
X011058Y011100D01*
X011023Y011065D02*
X011023Y012020D01*
X011123Y012020D02*
X011123Y011165D01*
X011223Y011170D02*
X011223Y012020D01*
X011323Y012020D02*
X011323Y011170D01*
X011423Y011170D02*
X011423Y012020D01*
X011523Y012020D02*
X011523Y011165D01*
X011587Y011100D02*
X012058Y011100D01*
X012023Y011065D02*
X012023Y012020D01*
X012123Y012020D02*
X012123Y011165D01*
X012223Y011170D02*
X012223Y012020D01*
X012323Y012020D02*
X012323Y011170D01*
X012423Y011170D02*
X012423Y012020D01*
X012523Y012020D02*
X012523Y011165D01*
X012587Y011100D02*
X013058Y011100D01*
X013023Y011065D02*
X013023Y012020D01*
X013123Y012020D02*
X013123Y011165D01*
X013223Y011170D02*
X013223Y012020D01*
X013323Y012020D02*
X013323Y011170D01*
X013423Y011170D02*
X013423Y012020D01*
X013523Y012020D02*
X013523Y011165D01*
X013587Y011100D02*
X014100Y011100D01*
X014123Y011122D02*
X014123Y012020D01*
X014223Y012020D02*
X014223Y011140D01*
X014273Y011100D02*
X014373Y011100D01*
X014423Y011140D02*
X014423Y012020D01*
X014523Y012020D02*
X014523Y011122D01*
X014545Y011100D02*
X016754Y011100D01*
X016723Y011131D02*
X016723Y010202D01*
X016721Y010200D02*
X016408Y010200D01*
X016423Y010185D02*
X016423Y012020D01*
X016523Y012020D02*
X016523Y010085D01*
X016508Y010100D02*
X016653Y010100D01*
X016653Y010000D02*
X016608Y010000D01*
X016623Y009985D02*
X016623Y012020D01*
X016723Y012020D02*
X016723Y011769D01*
X016712Y011758D02*
X016629Y011558D01*
X016629Y011342D01*
X016712Y011142D01*
X016865Y010989D01*
X017065Y010906D01*
X017281Y010906D01*
X017481Y010989D01*
X017634Y011142D01*
X017716Y011342D01*
X017716Y011558D01*
X017634Y011758D01*
X017481Y011911D01*
X017281Y011994D01*
X017065Y011994D01*
X016865Y011911D01*
X016712Y011758D01*
X016754Y011800D02*
X002773Y011800D01*
X002773Y011700D02*
X016688Y011700D01*
X016646Y011600D02*
X002773Y011600D01*
X002773Y011500D02*
X016629Y011500D01*
X016629Y011400D02*
X002773Y011400D01*
X002773Y011300D02*
X016646Y011300D01*
X016688Y011200D02*
X002773Y011200D01*
X002773Y011100D02*
X003058Y011100D01*
X003023Y011065D02*
X003023Y012020D01*
X003123Y012020D02*
X003123Y011165D01*
X003223Y011170D02*
X003223Y012020D01*
X003323Y012020D02*
X003323Y011170D01*
X003423Y011170D02*
X003423Y012020D01*
X003523Y012020D02*
X003523Y011165D01*
X003587Y011100D02*
X004058Y011100D01*
X004023Y011065D02*
X004023Y012020D01*
X004123Y012020D02*
X004123Y011165D01*
X004223Y011170D02*
X004223Y012020D01*
X004323Y012020D02*
X004323Y011170D01*
X004423Y011170D02*
X004423Y012020D01*
X004523Y012020D02*
X004523Y011165D01*
X004787Y010900D02*
X004858Y010900D01*
X004853Y010800D02*
X004793Y010800D01*
X004793Y010700D02*
X004853Y010700D01*
X004853Y010600D02*
X004793Y010600D01*
X004806Y010500D02*
X004858Y010500D01*
X004923Y010435D02*
X004923Y009562D01*
X004907Y009600D02*
X006823Y009600D01*
X006823Y009500D02*
X004943Y009500D01*
X004943Y009400D02*
X006823Y009400D01*
X006823Y009700D02*
X006325Y009700D01*
X006323Y009697D02*
X006323Y008512D01*
X006370Y008600D02*
X004220Y008600D01*
X004223Y008597D02*
X004223Y008780D01*
X004285Y008800D02*
X005388Y008800D01*
X005423Y008747D02*
X005423Y008510D01*
X005523Y008510D02*
X005523Y008666D01*
X005470Y008700D02*
X004120Y008700D01*
X004123Y008697D02*
X004123Y008780D01*
X004061Y008800D02*
X004020Y008800D01*
X004023Y008797D02*
X004023Y008816D01*
X004323Y008816D02*
X004323Y008510D01*
X004423Y008510D02*
X004423Y008897D01*
X004523Y008900D02*
X004523Y008510D01*
X004623Y008510D02*
X004623Y008900D01*
X004723Y008900D02*
X004723Y008510D01*
X004823Y008510D02*
X004823Y008900D01*
X004923Y008900D02*
X004923Y008510D01*
X005023Y008510D02*
X005023Y008900D01*
X005123Y008900D02*
X005123Y008510D01*
X005223Y008510D02*
X005223Y008900D01*
X005323Y008900D02*
X005323Y008510D01*
X005623Y008510D02*
X005623Y008630D01*
X005723Y008630D02*
X005723Y008510D01*
X005823Y008510D02*
X005823Y008666D01*
X005875Y008700D02*
X006511Y008700D01*
X006523Y008705D02*
X006523Y009750D01*
X006623Y009750D02*
X006623Y008720D01*
X006723Y008705D02*
X006723Y009817D01*
X006706Y009800D02*
X006823Y009800D01*
X006823Y009900D02*
X006806Y009900D01*
X006573Y009950D02*
X007323Y010700D01*
X007687Y010400D02*
X007958Y010400D01*
X007923Y010400D02*
X007923Y010435D01*
X007858Y010500D02*
X007787Y010500D01*
X007723Y010435D02*
X007723Y010400D01*
X007823Y010400D02*
X007823Y012020D01*
X007923Y012020D02*
X007923Y010965D01*
X007958Y011000D02*
X007687Y011000D01*
X007723Y010965D02*
X007723Y012020D01*
X007623Y012020D02*
X007623Y011065D01*
X007787Y010900D02*
X007858Y010900D01*
X007853Y010800D02*
X007793Y010800D01*
X007793Y010700D02*
X007853Y010700D01*
X007853Y010600D02*
X007793Y010600D01*
X008323Y010700D02*
X008323Y010300D01*
X008423Y010200D01*
X010823Y010200D01*
X010523Y010000D02*
X010723Y009800D01*
X011023Y009800D01*
X011223Y010000D01*
X011423Y010000D01*
X011623Y010200D01*
X011823Y010200D01*
X012143Y010200D02*
X013053Y010200D01*
X013053Y010100D02*
X012135Y010100D01*
X012223Y010053D02*
X012223Y010230D01*
X012323Y010230D02*
X012323Y009912D01*
X012275Y010000D02*
X013072Y010000D01*
X012923Y009700D02*
X012923Y010435D01*
X012958Y010400D02*
X012687Y010400D01*
X012723Y010435D02*
X012723Y009700D01*
X012823Y009700D02*
X012823Y012020D01*
X012923Y012020D02*
X012923Y010965D01*
X012958Y011000D02*
X012687Y011000D01*
X012723Y010965D02*
X012723Y012020D01*
X012623Y012020D02*
X012623Y011065D01*
X012787Y010900D02*
X012858Y010900D01*
X012853Y010800D02*
X012793Y010800D01*
X012793Y010700D02*
X012853Y010700D01*
X012853Y010600D02*
X012793Y010600D01*
X012787Y010500D02*
X012858Y010500D01*
X013593Y010300D02*
X014100Y010300D01*
X014123Y010278D02*
X014123Y010270D01*
X014023Y010270D02*
X014023Y010378D01*
X014000Y010400D02*
X013687Y010400D01*
X013723Y010435D02*
X013723Y010270D01*
X013823Y010270D02*
X013823Y012020D01*
X013923Y012020D02*
X013923Y010922D01*
X013900Y010900D02*
X013787Y010900D01*
X013723Y010965D02*
X013723Y012020D01*
X013623Y012020D02*
X013623Y011065D01*
X013687Y011000D02*
X014000Y011000D01*
X014023Y011022D02*
X014023Y012020D01*
X014323Y012020D02*
X014323Y010750D01*
X014273Y010800D02*
X014373Y010800D01*
X014423Y010750D02*
X014423Y010650D01*
X014373Y010700D02*
X017743Y010700D01*
X017743Y010600D02*
X014763Y010600D01*
X014723Y010650D02*
X014723Y010750D01*
X014763Y010800D02*
X017743Y010800D01*
X017743Y010900D02*
X014745Y010900D01*
X014723Y010922D02*
X014723Y012020D01*
X014823Y012020D02*
X014823Y010270D01*
X014923Y010270D02*
X014923Y012020D01*
X015023Y012020D02*
X015023Y010270D01*
X015111Y010300D02*
X014545Y010300D01*
X014523Y010278D02*
X014523Y010270D01*
X014623Y010270D02*
X014623Y010378D01*
X014645Y010400D02*
X017743Y010400D01*
X017743Y010300D02*
X015335Y010300D01*
X015323Y010305D02*
X015323Y012020D01*
X015423Y012020D02*
X015423Y010253D01*
X015475Y010200D02*
X015937Y010200D01*
X015923Y010185D02*
X015923Y012020D01*
X016023Y012020D02*
X016023Y010220D01*
X016123Y010220D02*
X016123Y012020D01*
X016223Y012020D02*
X016223Y010220D01*
X016323Y010220D02*
X016323Y012020D01*
X016823Y012020D02*
X016823Y011869D01*
X016854Y011900D02*
X002773Y011900D01*
X002923Y012020D02*
X002923Y010965D01*
X002958Y011000D02*
X002773Y011000D01*
X002773Y010900D02*
X002858Y010900D01*
X002853Y010800D02*
X002773Y010800D01*
X002773Y010700D02*
X002853Y010700D01*
X002853Y010600D02*
X002773Y010600D01*
X002773Y010500D02*
X002858Y010500D01*
X003623Y011065D02*
X003623Y012020D01*
X003723Y012020D02*
X003723Y010965D01*
X003687Y011000D02*
X003958Y011000D01*
X003923Y010965D02*
X003923Y012020D01*
X003823Y012020D02*
X003823Y009950D01*
X003723Y009550D02*
X003723Y008910D01*
X003623Y008910D02*
X003623Y009550D01*
X004123Y009430D02*
X004123Y009420D01*
X004223Y009420D02*
X004223Y009430D01*
X004285Y009400D02*
X004303Y009400D01*
X004173Y009100D02*
X005523Y009100D01*
X005673Y008950D01*
X005957Y008800D02*
X006838Y008800D01*
X006823Y008838D02*
X006823Y008653D01*
X006923Y008653D02*
X006923Y008697D01*
X006920Y008700D02*
X006735Y008700D01*
X006803Y008900D02*
X005993Y008900D01*
X005993Y009000D02*
X006803Y009000D01*
X006823Y009100D02*
X005957Y009100D01*
X005923Y009153D02*
X005923Y009697D01*
X005920Y009700D02*
X004825Y009700D01*
X004823Y009900D02*
X005803Y009900D01*
X005803Y010000D02*
X004823Y010000D01*
X004823Y010100D02*
X005838Y010100D01*
X005823Y010062D02*
X005823Y012020D01*
X005923Y012020D02*
X005923Y010965D01*
X005958Y011000D02*
X005687Y011000D01*
X005723Y010965D02*
X005723Y012020D01*
X005623Y012020D02*
X005623Y011065D01*
X005787Y010900D02*
X005858Y010900D01*
X005853Y010800D02*
X005793Y010800D01*
X005793Y010700D02*
X005853Y010700D01*
X005853Y010600D02*
X005793Y010600D01*
X005787Y010500D02*
X005858Y010500D01*
X005923Y010435D02*
X005923Y010203D01*
X005920Y010200D02*
X004823Y010200D01*
X004823Y010300D02*
X005058Y010300D01*
X005023Y010335D02*
X005023Y009300D01*
X005123Y009300D02*
X005123Y010235D01*
X005223Y010230D02*
X005223Y009300D01*
X005323Y009300D02*
X005323Y010230D01*
X005423Y010230D02*
X005423Y009300D01*
X005523Y009300D02*
X005523Y010235D01*
X005587Y010300D02*
X006058Y010300D01*
X006023Y010335D02*
X006023Y010255D01*
X005958Y010400D02*
X005687Y010400D01*
X005723Y010435D02*
X005723Y009270D01*
X005623Y009283D02*
X005623Y010335D01*
X006123Y009950D02*
X006573Y009950D01*
X006423Y009750D02*
X006423Y008653D01*
X006223Y008510D02*
X006223Y009645D01*
X006123Y009630D02*
X006123Y008510D01*
X006023Y008510D02*
X006023Y009645D01*
X006325Y010200D02*
X006540Y010200D01*
X006523Y010183D02*
X006523Y010235D01*
X006587Y010300D02*
X006640Y010300D01*
X006623Y010283D02*
X006623Y010335D01*
X006687Y010400D02*
X006740Y010400D01*
X006723Y010383D02*
X006723Y010435D01*
X006787Y010500D02*
X006840Y010500D01*
X006823Y010483D02*
X006823Y012020D01*
X006923Y012020D02*
X006923Y010965D01*
X006958Y011000D02*
X006687Y011000D01*
X006723Y010965D02*
X006723Y012020D01*
X006623Y012020D02*
X006623Y011065D01*
X006787Y010900D02*
X006858Y010900D01*
X006853Y010800D02*
X006793Y010800D01*
X006793Y010700D02*
X006853Y010700D01*
X006853Y010600D02*
X006793Y010600D01*
X006423Y010230D02*
X006423Y010150D01*
X006323Y010203D02*
X006323Y010230D01*
X007023Y010000D02*
X007023Y009050D01*
X007123Y008950D01*
X007423Y008838D02*
X007423Y008600D01*
X007375Y008600D02*
X007304Y008671D01*
X007295Y008675D01*
X007304Y008679D01*
X007394Y008769D01*
X007443Y008886D01*
X007443Y009014D01*
X007394Y009131D01*
X007345Y009180D01*
X007436Y009180D01*
X007554Y009229D01*
X007625Y009300D01*
X008068Y009300D01*
X008053Y009264D01*
X008053Y009136D01*
X008101Y009019D01*
X008191Y008929D01*
X008309Y008880D01*
X008436Y008880D01*
X008554Y008929D01*
X008625Y009000D01*
X010140Y009000D01*
X010240Y008900D01*
X008485Y008900D01*
X008523Y008916D02*
X008523Y008600D01*
X008623Y008600D02*
X008623Y008997D01*
X008723Y009000D02*
X008723Y008600D01*
X008823Y008600D02*
X008823Y009000D01*
X008923Y009000D02*
X008923Y008600D01*
X009023Y008600D02*
X009023Y009000D01*
X009123Y009000D02*
X009123Y008600D01*
X009223Y008600D02*
X009223Y009000D01*
X009323Y009000D02*
X009323Y008600D01*
X009423Y008600D02*
X009423Y009000D01*
X009523Y009000D02*
X009523Y008600D01*
X009623Y008600D02*
X009623Y009000D01*
X009723Y009000D02*
X009723Y008600D01*
X009823Y008600D02*
X009823Y009000D01*
X009923Y009000D02*
X009923Y008600D01*
X010023Y008600D02*
X010023Y009000D01*
X010123Y009000D02*
X010123Y008600D01*
X010223Y008600D02*
X010223Y008917D01*
X010240Y008900D02*
X011711Y008900D01*
X011759Y008880D01*
X011886Y008880D01*
X012004Y008929D01*
X012094Y009019D01*
X012143Y009136D01*
X012143Y009264D01*
X012128Y009300D01*
X015290Y009300D01*
X015664Y008926D01*
X015653Y008915D01*
X015653Y008520D01*
X015559Y008520D01*
X015441Y008471D01*
X015370Y008400D01*
X014275Y008400D01*
X014294Y008419D01*
X014343Y008536D01*
X014343Y008664D01*
X014294Y008781D01*
X014204Y008871D01*
X014086Y008920D01*
X013959Y008920D01*
X013841Y008871D01*
X013751Y008781D01*
X013703Y008664D01*
X013703Y008600D01*
X007375Y008600D01*
X013703Y008600D01*
X013623Y008600D02*
X013623Y009300D01*
X013723Y009300D02*
X013723Y008712D01*
X013718Y008700D02*
X007325Y008700D01*
X007323Y008697D02*
X007323Y008653D01*
X007407Y008800D02*
X013770Y008800D01*
X013823Y008853D02*
X013823Y009300D01*
X013923Y009300D02*
X013923Y008905D01*
X013911Y008900D02*
X011935Y008900D01*
X011923Y008895D02*
X011923Y008600D01*
X012023Y008600D02*
X012023Y008947D01*
X012075Y009000D02*
X015590Y009000D01*
X015623Y008967D02*
X015623Y008520D01*
X015653Y008600D02*
X014343Y008600D01*
X014328Y008500D02*
X015511Y008500D01*
X015523Y008505D02*
X015523Y009067D01*
X015490Y009100D02*
X012128Y009100D01*
X012123Y009088D02*
X012123Y008600D01*
X012223Y008600D02*
X012223Y009300D01*
X012323Y009300D02*
X012323Y008600D01*
X012423Y008600D02*
X012423Y009300D01*
X012523Y009300D02*
X012523Y008600D01*
X012623Y008600D02*
X012623Y009300D01*
X012723Y009300D02*
X012723Y008600D01*
X012823Y008600D02*
X012823Y009300D01*
X012923Y009300D02*
X012923Y008600D01*
X013023Y008600D02*
X013023Y009300D01*
X013123Y009300D02*
X013123Y008600D01*
X013223Y008600D02*
X013223Y009300D01*
X013323Y009300D02*
X013323Y008600D01*
X013423Y008600D02*
X013423Y009300D01*
X013523Y009300D02*
X013523Y008600D01*
X013923Y008400D02*
X014023Y008500D01*
X014023Y008600D01*
X014023Y008400D02*
X013923Y008400D01*
X007123Y008400D01*
X007423Y008200D02*
X015623Y008200D01*
X015623Y007880D02*
X015623Y007433D01*
X015590Y007400D02*
X013775Y007400D01*
X013794Y007381D02*
X013723Y007453D01*
X013723Y007630D01*
X013706Y007600D02*
X014211Y007600D01*
X014223Y007595D02*
X014223Y007100D01*
X014323Y007100D02*
X014323Y007580D01*
X014386Y007580D02*
X014504Y007629D01*
X014594Y007719D01*
X014643Y007836D01*
X014643Y007964D01*
X014628Y008000D01*
X015370Y008000D01*
X015441Y007929D01*
X015559Y007880D01*
X015653Y007880D01*
X015653Y007485D01*
X015664Y007474D01*
X015290Y007100D01*
X013828Y007100D01*
X013843Y007136D01*
X013843Y007264D01*
X013794Y007381D01*
X013823Y007312D02*
X013823Y007630D01*
X013923Y007630D02*
X013923Y007100D01*
X013828Y007100D02*
X015290Y007100D01*
X015323Y007133D02*
X015323Y008000D01*
X015223Y008000D02*
X015223Y007100D01*
X015123Y007100D02*
X015123Y008000D01*
X015023Y008000D02*
X015023Y007100D01*
X014923Y007100D02*
X014923Y008000D01*
X014823Y008000D02*
X014823Y007100D01*
X014723Y007100D02*
X014723Y008000D01*
X014643Y007900D02*
X015511Y007900D01*
X015523Y007895D02*
X015523Y007333D01*
X015490Y007300D02*
X013828Y007300D01*
X013843Y007200D02*
X015390Y007200D01*
X015423Y007233D02*
X015423Y007947D01*
X015653Y007800D02*
X014628Y007800D01*
X014623Y007788D02*
X014623Y007100D01*
X014523Y007100D02*
X014523Y007647D01*
X014575Y007700D02*
X015653Y007700D01*
X015653Y007600D02*
X014435Y007600D01*
X014423Y007595D02*
X014423Y007100D01*
X014123Y007100D02*
X014123Y007630D01*
X014140Y007630D02*
X014141Y007629D01*
X014259Y007580D01*
X014386Y007580D01*
X014140Y007630D02*
X013676Y007630D01*
X013723Y007583D01*
X013723Y007453D01*
X013723Y007500D02*
X015653Y007500D01*
X016173Y007700D02*
X015373Y006900D01*
X009223Y006900D01*
X009123Y007000D01*
X009123Y007300D01*
X008923Y007500D01*
X006423Y007500D01*
X006675Y007300D02*
X006675Y007300D01*
X008740Y007300D01*
X008840Y007300D01*
X008840Y007300D01*
X006675Y007300D01*
X006723Y007300D02*
X006723Y007300D01*
X006823Y007300D02*
X006823Y007300D01*
X006923Y007300D02*
X006923Y007300D01*
X007023Y007300D02*
X007023Y007300D01*
X007123Y007300D02*
X007123Y007300D01*
X007223Y007300D02*
X007223Y007300D01*
X007323Y007300D02*
X007323Y007300D01*
X007423Y007300D02*
X007423Y007300D01*
X007523Y007300D02*
X007523Y007300D01*
X007623Y007300D02*
X007623Y007300D01*
X007723Y007300D02*
X007723Y007300D01*
X007823Y007300D02*
X007823Y007300D01*
X007923Y007300D02*
X007923Y007300D01*
X008023Y007300D02*
X008023Y007300D01*
X008123Y007300D02*
X008123Y007300D01*
X008223Y007300D02*
X008223Y007300D01*
X008323Y007300D02*
X008323Y007300D01*
X008423Y007300D02*
X008423Y007300D01*
X008523Y007300D02*
X008523Y007300D01*
X008623Y007300D02*
X008623Y007300D01*
X008723Y007300D02*
X008723Y007300D01*
X008823Y007300D02*
X008823Y007300D01*
X008823Y007100D02*
X008923Y007000D01*
X008923Y006300D01*
X009123Y006100D01*
X012123Y006100D01*
X012223Y006000D01*
X012475Y006200D02*
X012811Y006200D01*
X012823Y006205D02*
X012823Y006400D01*
X012923Y006400D02*
X012923Y006220D01*
X012986Y006220D02*
X012859Y006220D01*
X012741Y006171D01*
X012651Y006081D01*
X012603Y005964D01*
X012603Y005836D01*
X012651Y005719D01*
X012741Y005629D01*
X012859Y005580D01*
X012986Y005580D01*
X013104Y005629D01*
X013175Y005700D01*
X015653Y005700D01*
X015653Y005485D01*
X015739Y005398D01*
X015686Y005420D01*
X015685Y005420D01*
X015676Y005429D01*
X015576Y005470D01*
X015169Y005470D01*
X015070Y005429D01*
X014994Y005353D01*
X014911Y005270D01*
X014505Y005270D01*
X014504Y005271D01*
X014386Y005320D01*
X014259Y005320D01*
X014141Y005271D01*
X014140Y005270D01*
X009405Y005270D01*
X009404Y005271D01*
X009286Y005320D01*
X009159Y005320D01*
X009041Y005271D01*
X009040Y005270D01*
X005869Y005270D01*
X005770Y005229D01*
X005694Y005153D01*
X005653Y005054D01*
X005653Y004683D01*
X005651Y004681D01*
X005603Y004564D01*
X005603Y004470D01*
X004105Y004470D01*
X004104Y004471D01*
X003986Y004520D01*
X003859Y004520D01*
X003793Y004493D01*
X003793Y005388D01*
X003835Y005430D01*
X003876Y005430D01*
X003976Y005471D01*
X004052Y005547D01*
X004093Y005646D01*
X004093Y007154D01*
X004057Y007239D01*
X004154Y007279D01*
X004244Y007369D01*
X004293Y007486D01*
X004293Y007614D01*
X004244Y007731D01*
X004154Y007821D01*
X004036Y007870D01*
X003909Y007870D01*
X003791Y007821D01*
X003720Y007750D01*
X003390Y007750D01*
X003273Y007633D01*
X002973Y007333D01*
X002973Y006967D01*
X003020Y006920D01*
X002959Y006920D01*
X002893Y006893D01*
X002893Y008017D01*
X002894Y008019D01*
X002943Y008136D01*
X002943Y008264D01*
X002894Y008381D01*
X002804Y008471D01*
X002773Y008484D01*
X002773Y008490D01*
X003736Y008490D01*
X004136Y008090D01*
X005860Y008090D01*
X005851Y008081D01*
X005803Y007964D01*
X005803Y007836D01*
X005851Y007719D01*
X005923Y007647D01*
X005923Y007217D01*
X005923Y005270D01*
X006023Y005270D02*
X006023Y007117D01*
X006040Y007100D02*
X004093Y007100D01*
X004093Y007000D02*
X006140Y007000D01*
X006123Y007017D02*
X006123Y005270D01*
X006223Y005270D02*
X006223Y006917D01*
X006240Y006900D02*
X004093Y006900D01*
X004093Y006800D02*
X008723Y006800D01*
X008723Y006700D02*
X004093Y006700D01*
X004093Y006600D02*
X008723Y006600D01*
X008723Y006500D02*
X004093Y006500D01*
X004093Y006400D02*
X008723Y006400D01*
X008723Y006300D02*
X004093Y006300D01*
X004093Y006200D02*
X008740Y006200D01*
X008723Y006217D02*
X008723Y005270D01*
X008823Y005270D02*
X008823Y006117D01*
X008840Y006100D02*
X004093Y006100D01*
X004093Y006000D02*
X008940Y006000D01*
X008923Y006017D02*
X008923Y005270D01*
X009023Y005270D02*
X009023Y005917D01*
X009040Y005900D02*
X004093Y005900D01*
X004093Y005800D02*
X011970Y005800D01*
X011951Y005819D02*
X012041Y005729D01*
X012159Y005680D01*
X012286Y005680D01*
X012404Y005729D01*
X012494Y005819D01*
X012543Y005936D01*
X012543Y006064D01*
X012494Y006181D01*
X012404Y006271D01*
X012286Y006320D01*
X012283Y006320D01*
X012304Y006329D01*
X012375Y006400D01*
X015737Y006400D01*
X015937Y006200D01*
X013035Y006200D01*
X013023Y006205D02*
X013023Y006400D01*
X013123Y006400D02*
X013123Y006153D01*
X013104Y006171D02*
X012986Y006220D01*
X013104Y006171D02*
X013175Y006100D01*
X015837Y006100D01*
X013175Y006100D01*
X013223Y006100D02*
X013223Y006400D01*
X013323Y006400D02*
X013323Y006100D01*
X013423Y006100D02*
X013423Y006400D01*
X013523Y006400D02*
X013523Y006100D01*
X013623Y006100D02*
X013623Y006400D01*
X013723Y006400D02*
X013723Y006100D01*
X013823Y006100D02*
X013823Y006400D01*
X013923Y006400D02*
X013923Y006100D01*
X014023Y006100D02*
X014023Y006400D01*
X014123Y006400D02*
X014123Y006100D01*
X014223Y006100D02*
X014223Y006400D01*
X014323Y006400D02*
X014323Y006100D01*
X014423Y006100D02*
X014423Y006400D01*
X014523Y006400D02*
X014523Y006100D01*
X014623Y006100D02*
X014623Y006400D01*
X014723Y006400D02*
X014723Y006100D01*
X014823Y006100D02*
X014823Y006400D01*
X014923Y006400D02*
X014923Y006100D01*
X015023Y006100D02*
X015023Y006400D01*
X015123Y006400D02*
X015123Y006100D01*
X015223Y006100D02*
X015223Y006400D01*
X015323Y006400D02*
X015323Y006100D01*
X015423Y006100D02*
X015423Y006400D01*
X015523Y006400D02*
X015523Y006100D01*
X015623Y006100D02*
X015623Y006400D01*
X015723Y006400D02*
X015723Y006100D01*
X015823Y006100D02*
X015823Y006315D01*
X015837Y006300D02*
X012335Y006300D01*
X012323Y006305D02*
X012323Y006347D01*
X012423Y006400D02*
X012423Y006253D01*
X012523Y006112D02*
X012523Y006400D01*
X012623Y006400D02*
X012623Y006012D01*
X012618Y006000D02*
X012543Y006000D01*
X012528Y006100D02*
X012670Y006100D01*
X012723Y006153D02*
X012723Y006400D01*
X012603Y005900D02*
X012528Y005900D01*
X012523Y005888D02*
X012523Y005270D01*
X012623Y005270D02*
X012623Y005788D01*
X012618Y005800D02*
X012475Y005800D01*
X012423Y005747D02*
X012423Y005270D01*
X012323Y005270D02*
X012323Y005695D01*
X012335Y005700D02*
X012670Y005700D01*
X012723Y005647D02*
X012723Y005270D01*
X012823Y005270D02*
X012823Y005595D01*
X012811Y005600D02*
X004074Y005600D01*
X004023Y005518D02*
X004023Y004505D01*
X004035Y004500D02*
X005603Y004500D01*
X005523Y004470D02*
X005523Y008090D01*
X005623Y008090D02*
X005623Y004612D01*
X005618Y004600D02*
X003793Y004600D01*
X003823Y004505D02*
X003823Y005418D01*
X003805Y005400D02*
X015041Y005400D01*
X015023Y005382D02*
X015023Y005700D01*
X015123Y005700D02*
X015123Y005451D01*
X015223Y005470D02*
X015223Y005700D01*
X015323Y005700D02*
X015323Y005470D01*
X015423Y005470D02*
X015423Y005700D01*
X015523Y005700D02*
X015523Y005470D01*
X015623Y005451D02*
X015623Y005700D01*
X015653Y005600D02*
X013035Y005600D01*
X013023Y005595D02*
X013023Y005270D01*
X013123Y005270D02*
X013123Y005647D01*
X013223Y005700D02*
X013223Y005270D01*
X013323Y005270D02*
X013323Y005700D01*
X013423Y005700D02*
X013423Y005270D01*
X013523Y005270D02*
X013523Y005700D01*
X013623Y005700D02*
X013623Y005270D01*
X013723Y005270D02*
X013723Y005700D01*
X013823Y005700D02*
X013823Y005270D01*
X013923Y005270D02*
X013923Y005700D01*
X014023Y005700D02*
X014023Y005270D01*
X014123Y005270D02*
X014123Y005700D01*
X014223Y005700D02*
X014223Y005305D01*
X014211Y005300D02*
X009335Y005300D01*
X009323Y005305D02*
X009323Y005900D01*
X009423Y005900D02*
X009423Y005270D01*
X009523Y005270D02*
X009523Y005900D01*
X009623Y005900D02*
X009623Y005270D01*
X009723Y005270D02*
X009723Y005900D01*
X009823Y005900D02*
X009823Y005270D01*
X009923Y005270D02*
X009923Y005900D01*
X010023Y005900D02*
X010023Y005270D01*
X010123Y005270D02*
X010123Y005900D01*
X010223Y005900D02*
X010223Y005270D01*
X010323Y005270D02*
X010323Y005900D01*
X010423Y005900D02*
X010423Y005270D01*
X010523Y005270D02*
X010523Y005900D01*
X010623Y005900D02*
X010623Y005270D01*
X010723Y005270D02*
X010723Y005900D01*
X010823Y005900D02*
X010823Y005270D01*
X010923Y005270D02*
X010923Y005900D01*
X011023Y005900D02*
X011023Y005270D01*
X011123Y005270D02*
X011123Y005900D01*
X011223Y005900D02*
X011223Y005270D01*
X011323Y005270D02*
X011323Y005900D01*
X011423Y005900D02*
X011423Y005270D01*
X011523Y005270D02*
X011523Y005900D01*
X011623Y005900D02*
X011623Y005270D01*
X011723Y005270D02*
X011723Y005900D01*
X011823Y005900D02*
X011823Y005270D01*
X011923Y005270D02*
X011923Y005888D01*
X011918Y005900D02*
X011951Y005819D01*
X011918Y005900D02*
X009040Y005900D01*
X008923Y006017D01*
X008723Y006217D01*
X008723Y006900D01*
X006240Y006900D01*
X006123Y007017D01*
X005923Y007217D01*
X005940Y007200D02*
X004074Y007200D01*
X004123Y007266D02*
X004123Y004470D01*
X004223Y004470D02*
X004223Y007347D01*
X004257Y007400D02*
X005923Y007400D01*
X005923Y007300D02*
X004175Y007300D01*
X004293Y007500D02*
X005923Y007500D01*
X005923Y007600D02*
X004293Y007600D01*
X004257Y007700D02*
X005870Y007700D01*
X005823Y007788D02*
X005823Y005251D01*
X005741Y005200D02*
X003793Y005200D01*
X003793Y005100D02*
X005672Y005100D01*
X005723Y005182D02*
X005723Y008090D01*
X005823Y008090D02*
X005823Y008012D01*
X005818Y008000D02*
X002893Y008000D01*
X002923Y008088D02*
X002923Y006905D01*
X002911Y006900D02*
X002893Y006900D01*
X002893Y007000D02*
X002973Y007000D01*
X002973Y007100D02*
X002893Y007100D01*
X002893Y007200D02*
X002973Y007200D01*
X002973Y007300D02*
X002893Y007300D01*
X002893Y007400D02*
X003040Y007400D01*
X003023Y007383D02*
X003023Y008490D01*
X003123Y008490D02*
X003123Y007483D01*
X003140Y007500D02*
X002893Y007500D01*
X002893Y007600D02*
X003240Y007600D01*
X003223Y007583D02*
X003223Y008490D01*
X003323Y008490D02*
X003323Y007683D01*
X003340Y007700D02*
X002893Y007700D01*
X002893Y007800D02*
X003770Y007800D01*
X003823Y007834D02*
X003823Y008403D01*
X003826Y008400D02*
X002875Y008400D01*
X002823Y008453D02*
X002823Y008490D01*
X002923Y008490D02*
X002923Y008312D01*
X002928Y008300D02*
X003926Y008300D01*
X003923Y008303D02*
X003923Y007870D01*
X004023Y007870D02*
X004023Y008203D01*
X004026Y008200D02*
X002943Y008200D01*
X002928Y008100D02*
X004126Y008100D01*
X004123Y008103D02*
X004123Y007834D01*
X004175Y007800D02*
X005818Y007800D01*
X005803Y007900D02*
X002893Y007900D01*
X003423Y007750D02*
X003423Y008490D01*
X003523Y008490D02*
X003523Y007750D01*
X003623Y007750D02*
X003623Y008490D01*
X003723Y008490D02*
X003723Y007753D01*
X003473Y007550D02*
X003973Y007550D01*
X004223Y007753D02*
X004223Y008090D01*
X004323Y008090D02*
X004323Y004470D01*
X004423Y004470D02*
X004423Y008090D01*
X004523Y008090D02*
X004523Y004470D01*
X004623Y004470D02*
X004623Y008090D01*
X004723Y008090D02*
X004723Y004470D01*
X004823Y004470D02*
X004823Y008090D01*
X004923Y008090D02*
X004923Y004470D01*
X005023Y004470D02*
X005023Y008090D01*
X005123Y008090D02*
X005123Y004470D01*
X005223Y004470D02*
X005223Y008090D01*
X005323Y008090D02*
X005323Y004470D01*
X005423Y004470D02*
X005423Y008090D01*
X005923Y008510D02*
X005923Y008747D01*
X006223Y008300D02*
X006723Y007800D01*
X009023Y007800D01*
X009423Y007400D01*
X009423Y007235D01*
X009466Y007192D01*
X009915Y007192D01*
X010123Y007400D01*
X009900Y007630D02*
X009851Y007581D01*
X009803Y007464D01*
X009803Y007392D01*
X009623Y007392D01*
X009623Y007580D01*
X009686Y007580D02*
X009804Y007629D01*
X009805Y007630D01*
X009900Y007630D01*
X009870Y007600D02*
X009735Y007600D01*
X009723Y007595D02*
X009723Y007392D01*
X009803Y007400D02*
X009623Y007400D01*
X009623Y007392D02*
X009623Y007483D01*
X009506Y007600D01*
X009502Y007604D01*
X009559Y007580D01*
X009686Y007580D01*
X009606Y007500D02*
X009818Y007500D01*
X009823Y007512D02*
X009823Y007630D01*
X009523Y007595D02*
X009523Y007583D01*
X009511Y007600D02*
X009506Y007600D01*
X009326Y007779D02*
X009223Y007883D01*
X009223Y008000D01*
X009303Y007964D02*
X009318Y008000D01*
X007606Y008000D01*
X007606Y008000D01*
X009106Y008000D01*
X009223Y007883D01*
X009223Y007883D01*
X009206Y007900D02*
X009303Y007900D01*
X009303Y007964D02*
X009303Y007836D01*
X009326Y007779D01*
X009323Y007783D02*
X009323Y007788D01*
X009318Y007800D02*
X009306Y007800D01*
X009123Y007983D02*
X009123Y008000D01*
X009023Y008000D02*
X009023Y008000D01*
X008923Y008000D02*
X008923Y008000D01*
X008823Y008000D02*
X008823Y008000D01*
X008723Y008000D02*
X008723Y008000D01*
X008623Y008000D02*
X008623Y008000D01*
X008523Y008000D02*
X008523Y008000D01*
X008423Y008000D02*
X008423Y008000D01*
X008323Y008000D02*
X008323Y008000D01*
X008223Y008000D02*
X008223Y008000D01*
X008123Y008000D02*
X008123Y008000D01*
X008023Y008000D02*
X008023Y008000D01*
X007923Y008000D02*
X007923Y008000D01*
X007823Y008000D02*
X007823Y008000D01*
X007723Y008000D02*
X007723Y008000D01*
X007623Y008000D02*
X007623Y008000D01*
X007423Y008100D02*
X007323Y008000D01*
X006923Y008000D01*
X006623Y008400D01*
X006123Y007900D02*
X006123Y007300D01*
X006323Y007100D01*
X008823Y007100D01*
X008623Y006900D02*
X008623Y005270D01*
X008523Y005270D02*
X008523Y006900D01*
X008423Y006900D02*
X008423Y005270D01*
X008323Y005270D02*
X008323Y006900D01*
X008223Y006900D02*
X008223Y005270D01*
X008123Y005270D02*
X008123Y006900D01*
X008023Y006900D02*
X008023Y005270D01*
X007923Y005270D02*
X007923Y006900D01*
X007823Y006900D02*
X007823Y005270D01*
X007723Y005270D02*
X007723Y006900D01*
X007623Y006900D02*
X007623Y005270D01*
X007523Y005270D02*
X007523Y006900D01*
X007423Y006900D02*
X007423Y005270D01*
X007323Y005270D02*
X007323Y006900D01*
X007223Y006900D02*
X007223Y005270D01*
X007123Y005270D02*
X007123Y006900D01*
X007023Y006900D02*
X007023Y005270D01*
X006923Y005270D02*
X006923Y006900D01*
X006823Y006900D02*
X006823Y005270D01*
X006723Y005270D02*
X006723Y006900D01*
X006623Y006900D02*
X006623Y005270D01*
X006523Y005270D02*
X006523Y006900D01*
X006423Y006900D02*
X006423Y005270D01*
X006323Y005270D02*
X006323Y006900D01*
X007423Y008100D02*
X007423Y008200D01*
X007523Y008600D02*
X007523Y009216D01*
X007485Y009200D02*
X008053Y009200D01*
X008068Y009100D02*
X007407Y009100D01*
X007423Y009062D02*
X007423Y009180D01*
X007443Y009000D02*
X008120Y009000D01*
X008123Y008997D02*
X008123Y008600D01*
X008223Y008600D02*
X008223Y008916D01*
X008261Y008900D02*
X007443Y008900D01*
X007623Y008600D02*
X007623Y009297D01*
X007723Y009300D02*
X007723Y008600D01*
X007823Y008600D02*
X007823Y009300D01*
X007923Y009300D02*
X007923Y008600D01*
X008023Y008600D02*
X008023Y009300D01*
X008373Y009200D02*
X010223Y009200D01*
X010323Y009100D01*
X011823Y009100D01*
X011823Y009200D01*
X012143Y009200D02*
X015390Y009200D01*
X015423Y009167D02*
X015423Y008453D01*
X015370Y008400D02*
X014275Y008400D01*
X014323Y008400D02*
X014323Y008488D01*
X014423Y008400D02*
X014423Y009300D01*
X014523Y009300D02*
X014523Y008400D01*
X014623Y008400D02*
X014623Y009300D01*
X014723Y009300D02*
X014723Y008400D01*
X014823Y008400D02*
X014823Y009300D01*
X014923Y009300D02*
X014923Y008400D01*
X015023Y008400D02*
X015023Y009300D01*
X015123Y009300D02*
X015123Y008400D01*
X015223Y008400D02*
X015223Y009300D01*
X015323Y009267D02*
X015323Y008400D01*
X015653Y008700D02*
X014328Y008700D01*
X014323Y008712D02*
X014323Y009300D01*
X014223Y009300D02*
X014223Y008853D01*
X014275Y008800D02*
X015653Y008800D01*
X015653Y008900D02*
X014135Y008900D01*
X014123Y008905D02*
X014123Y009300D01*
X014023Y009300D02*
X014023Y008920D01*
X015373Y009500D02*
X016173Y008700D01*
X016473Y008265D02*
X016473Y008135D01*
X016408Y008200D01*
X016473Y008200D01*
X016423Y008185D02*
X016423Y008215D01*
X016408Y008200D02*
X016473Y008265D01*
X016873Y008265D02*
X016937Y008200D01*
X016873Y008200D01*
X016923Y008185D02*
X016923Y008215D01*
X016937Y008200D02*
X016873Y008135D01*
X016873Y008265D01*
X017693Y008500D02*
X017743Y008500D01*
X017743Y008600D02*
X017693Y008600D01*
X017693Y008700D02*
X017743Y008700D01*
X017743Y008800D02*
X017693Y008800D01*
X017693Y008900D02*
X017743Y008900D01*
X017743Y009000D02*
X017608Y009000D01*
X017623Y008985D02*
X017623Y009198D01*
X017625Y009200D02*
X017743Y009200D01*
X017743Y009300D02*
X017693Y009300D01*
X017693Y009400D02*
X017743Y009400D01*
X017743Y009500D02*
X017693Y009500D01*
X017693Y009600D02*
X017743Y009600D01*
X017743Y009700D02*
X017693Y009700D01*
X017693Y009800D02*
X017743Y009800D01*
X017743Y009900D02*
X017693Y009900D01*
X017693Y010000D02*
X017743Y010000D01*
X017743Y010100D02*
X017693Y010100D01*
X017743Y010200D02*
X017625Y010200D01*
X017623Y010202D02*
X017623Y011131D01*
X017592Y011100D02*
X017743Y011100D01*
X017743Y011000D02*
X017492Y011000D01*
X017523Y011031D02*
X017523Y010220D01*
X017423Y010220D02*
X017423Y010965D01*
X017323Y010924D02*
X017323Y010220D01*
X017223Y010220D02*
X017223Y010906D01*
X017123Y010906D02*
X017123Y010220D01*
X017023Y010220D02*
X017023Y010924D01*
X016923Y010965D02*
X016923Y010220D01*
X016823Y010220D02*
X016823Y011031D01*
X016854Y011000D02*
X014645Y011000D01*
X014623Y011022D02*
X014623Y012020D01*
X015123Y012020D02*
X015123Y010305D01*
X015223Y010320D02*
X015223Y012020D01*
X015523Y012020D02*
X015523Y010112D01*
X015528Y010100D02*
X015837Y010100D01*
X015823Y010085D02*
X015823Y012020D01*
X015723Y012020D02*
X015723Y009985D01*
X015737Y010000D02*
X015543Y010000D01*
X015623Y009533D02*
X015623Y012020D01*
X016923Y012020D02*
X016923Y011935D01*
X017023Y011976D02*
X017023Y012020D01*
X017123Y012020D02*
X017123Y011994D01*
X017223Y011994D02*
X017223Y012020D01*
X017323Y012020D02*
X017323Y011976D01*
X017423Y011935D02*
X017423Y012020D01*
X017523Y012020D02*
X017523Y011869D01*
X017492Y011900D02*
X017743Y011900D01*
X017743Y011800D02*
X017592Y011800D01*
X017623Y011769D02*
X017623Y012020D01*
X017658Y011700D02*
X017743Y011700D01*
X017743Y011600D02*
X017699Y011600D01*
X017716Y011500D02*
X017743Y011500D01*
X017743Y011400D02*
X017716Y011400D01*
X017699Y011300D02*
X017743Y011300D01*
X017743Y011200D02*
X017658Y011200D01*
X017743Y010500D02*
X014745Y010500D01*
X014723Y010478D02*
X014723Y010270D01*
X014623Y010650D02*
X014623Y010750D01*
X014523Y010750D02*
X014523Y010650D01*
X014273Y010700D02*
X013793Y010700D01*
X013793Y010600D02*
X013883Y010600D01*
X013923Y010650D02*
X013923Y010750D01*
X013883Y010800D02*
X013793Y010800D01*
X014023Y010750D02*
X014023Y010650D01*
X014123Y010650D02*
X014123Y010750D01*
X014223Y010750D02*
X014223Y010650D01*
X014273Y010900D02*
X014373Y010900D01*
X014373Y011000D02*
X014273Y011000D01*
X013900Y010500D02*
X013787Y010500D01*
X013923Y010478D02*
X013923Y010270D01*
X013623Y010270D02*
X013623Y010335D01*
X012023Y009800D02*
X011523Y009800D01*
X011323Y009600D01*
X010523Y009600D01*
X010323Y009800D01*
X007773Y009800D01*
X007453Y009813D02*
X007436Y009820D01*
X007309Y009820D01*
X007223Y009784D01*
X007223Y009917D01*
X007223Y009784D01*
X007223Y009800D02*
X007261Y009800D01*
X007323Y009820D02*
X007323Y010000D01*
X007306Y010000D02*
X007520Y010000D01*
X007501Y009981D01*
X007453Y009864D01*
X007453Y009813D01*
X007423Y009820D02*
X007423Y010000D01*
X007468Y009900D02*
X007223Y009900D01*
X007223Y009917D02*
X007306Y010000D01*
X007223Y010200D02*
X007023Y010000D01*
X007223Y010200D02*
X007973Y010200D01*
X008173Y010000D01*
X010523Y010000D01*
X011143Y010200D02*
X011340Y010200D01*
X011143Y010200D01*
X011143Y010230D01*
X011370Y010230D01*
X011340Y010200D01*
X011323Y010200D02*
X011323Y010230D01*
X011223Y010230D02*
X011223Y010200D01*
X010823Y010520D02*
X010823Y012020D01*
X010923Y012020D02*
X010923Y010965D01*
X010958Y011000D02*
X010687Y011000D01*
X010723Y010965D02*
X010723Y012020D01*
X010623Y012020D02*
X010623Y011065D01*
X010787Y010900D02*
X010858Y010900D01*
X010853Y010800D02*
X010793Y010800D01*
X010793Y010700D02*
X010853Y010700D01*
X010853Y010600D02*
X010793Y010600D01*
X009958Y010400D02*
X009687Y010400D01*
X009723Y010400D02*
X009723Y010435D01*
X009787Y010500D02*
X009858Y010500D01*
X009923Y010435D02*
X009923Y010400D01*
X009823Y010400D02*
X009823Y012020D01*
X009923Y012020D02*
X009923Y010965D01*
X009958Y011000D02*
X009687Y011000D01*
X009723Y010965D02*
X009723Y012020D01*
X009623Y012020D02*
X009623Y011065D01*
X009787Y010900D02*
X009858Y010900D01*
X009853Y010800D02*
X009793Y010800D01*
X009793Y010700D02*
X009853Y010700D01*
X009853Y010600D02*
X009793Y010600D01*
X008958Y010400D02*
X008687Y010400D01*
X008723Y010400D02*
X008723Y010435D01*
X008787Y010500D02*
X008858Y010500D01*
X008923Y010435D02*
X008923Y010400D01*
X008823Y010400D02*
X008823Y012020D01*
X008923Y012020D02*
X008923Y010965D01*
X008958Y011000D02*
X008687Y011000D01*
X008723Y010965D02*
X008723Y012020D01*
X008623Y012020D02*
X008623Y011065D01*
X008787Y010900D02*
X008858Y010900D01*
X008853Y010800D02*
X008793Y010800D01*
X008793Y010700D02*
X008853Y010700D01*
X008853Y010600D02*
X008793Y010600D01*
X007373Y009500D02*
X010323Y009500D01*
X010523Y009300D01*
X011323Y009300D01*
X011523Y009500D01*
X015373Y009500D01*
X016408Y009200D02*
X016473Y009200D01*
X016423Y009185D02*
X016423Y009215D01*
X016408Y009200D02*
X016473Y009135D01*
X016473Y009265D01*
X016408Y009200D01*
X016673Y009200D02*
X016673Y002350D01*
X016473Y002150D01*
X009823Y002150D01*
X009823Y002470D02*
X009823Y002500D01*
X009923Y002500D02*
X009923Y002455D01*
X009723Y002455D02*
X009723Y002500D01*
X009623Y002500D02*
X009623Y002403D01*
X009620Y002400D02*
X002773Y002400D01*
X002773Y002300D02*
X009538Y002300D01*
X009523Y002262D02*
X009523Y002500D01*
X009423Y002500D02*
X009423Y002170D01*
X009503Y002200D02*
X002773Y002200D01*
X002773Y002100D02*
X002871Y002100D01*
X002853Y002082D02*
X002853Y001318D01*
X002941Y001230D01*
X003705Y001230D01*
X003793Y001318D01*
X003793Y002082D01*
X003705Y002170D01*
X002941Y002170D01*
X002853Y002082D01*
X002853Y002000D02*
X002773Y002000D01*
X002773Y001900D02*
X002853Y001900D01*
X002853Y001800D02*
X002773Y001800D01*
X002773Y001700D02*
X002853Y001700D01*
X002853Y001600D02*
X002773Y001600D01*
X002773Y001500D02*
X002853Y001500D01*
X002853Y001400D02*
X002773Y001400D01*
X002773Y001300D02*
X002871Y001300D01*
X002923Y001248D02*
X002923Y000380D01*
X003023Y000380D02*
X003023Y001230D01*
X003123Y001230D02*
X003123Y000380D01*
X003223Y000380D02*
X003223Y001230D01*
X003323Y001230D02*
X003323Y000380D01*
X003423Y000380D02*
X003423Y001230D01*
X003523Y001230D02*
X003523Y000380D01*
X003623Y000380D02*
X003623Y001230D01*
X003723Y001248D02*
X003723Y000380D01*
X003823Y000380D02*
X003823Y002500D01*
X003923Y002500D02*
X003923Y001965D01*
X003958Y002000D02*
X003793Y002000D01*
X003793Y001900D02*
X003858Y001900D01*
X003853Y001895D02*
X003853Y001505D01*
X004128Y001230D01*
X004517Y001230D01*
X004793Y001505D01*
X004793Y001895D01*
X004517Y002170D01*
X004128Y002170D01*
X003853Y001895D01*
X003853Y001800D02*
X003793Y001800D01*
X003793Y001700D02*
X003853Y001700D01*
X003853Y001600D02*
X003793Y001600D01*
X003793Y001500D02*
X003858Y001500D01*
X003923Y001435D02*
X003923Y000380D01*
X004023Y000380D02*
X004023Y001335D01*
X004058Y001300D02*
X003775Y001300D01*
X003793Y001400D02*
X003958Y001400D01*
X004123Y001235D02*
X004123Y000380D01*
X004223Y000380D02*
X004223Y001230D01*
X004323Y001230D02*
X004323Y000380D01*
X004423Y000380D02*
X004423Y001230D01*
X004523Y001235D02*
X004523Y000380D01*
X004623Y000380D02*
X004623Y001335D01*
X004587Y001300D02*
X005058Y001300D01*
X005023Y001335D02*
X005023Y000380D01*
X005123Y000380D02*
X005123Y001235D01*
X005128Y001230D02*
X005517Y001230D01*
X005793Y001505D01*
X005793Y001895D01*
X005517Y002170D01*
X005128Y002170D01*
X004853Y001895D01*
X004853Y001505D01*
X005128Y001230D01*
X005223Y001230D02*
X005223Y000380D01*
X005323Y000380D02*
X005323Y001230D01*
X005423Y001230D02*
X005423Y000380D01*
X005523Y000380D02*
X005523Y001235D01*
X005587Y001300D02*
X006058Y001300D01*
X006023Y001335D02*
X006023Y000380D01*
X006123Y000380D02*
X006123Y001235D01*
X006128Y001230D02*
X006517Y001230D01*
X006793Y001505D01*
X006793Y001895D01*
X006517Y002170D01*
X006128Y002170D01*
X005853Y001895D01*
X005853Y001505D01*
X006128Y001230D01*
X006223Y001230D02*
X006223Y000380D01*
X006323Y000380D02*
X006323Y001230D01*
X006423Y001230D02*
X006423Y000380D01*
X006523Y000380D02*
X006523Y001235D01*
X006587Y001300D02*
X007058Y001300D01*
X007023Y001335D02*
X007023Y000380D01*
X007123Y000380D02*
X007123Y001235D01*
X007128Y001230D02*
X007517Y001230D01*
X007793Y001505D01*
X007793Y001895D01*
X007517Y002170D01*
X007128Y002170D01*
X006853Y001895D01*
X006853Y001505D01*
X007128Y001230D01*
X007223Y001230D02*
X007223Y000380D01*
X007323Y000380D02*
X007323Y001230D01*
X007423Y001230D02*
X007423Y000380D01*
X007523Y000380D02*
X007523Y001235D01*
X007587Y001300D02*
X008058Y001300D01*
X008023Y001335D02*
X008023Y000380D01*
X008123Y000380D02*
X008123Y001235D01*
X008128Y001230D02*
X008517Y001230D01*
X008793Y001505D01*
X008793Y001895D01*
X008517Y002170D01*
X008128Y002170D01*
X007853Y001895D01*
X007853Y001505D01*
X008128Y001230D01*
X008223Y001230D02*
X008223Y000380D01*
X008323Y000380D02*
X008323Y001230D01*
X008423Y001230D02*
X008423Y000380D01*
X008523Y000380D02*
X008523Y001235D01*
X008587Y001300D02*
X009058Y001300D01*
X009023Y001335D02*
X009023Y000380D01*
X009123Y000380D02*
X009123Y001235D01*
X009223Y001230D02*
X009223Y000380D01*
X009323Y000380D02*
X009323Y001230D01*
X009423Y001230D02*
X009423Y000380D01*
X009523Y000380D02*
X009523Y001235D01*
X009587Y001300D02*
X010058Y001300D01*
X010023Y001335D02*
X010023Y000380D01*
X010123Y000380D02*
X010123Y001235D01*
X010223Y001230D02*
X010223Y000380D01*
X010323Y000380D02*
X010323Y001230D01*
X010423Y001230D02*
X010423Y000380D01*
X010523Y000380D02*
X010523Y001235D01*
X010587Y001300D02*
X011058Y001300D01*
X011023Y001335D02*
X011023Y000380D01*
X011123Y000380D02*
X011123Y001235D01*
X011223Y001230D02*
X011223Y000380D01*
X011323Y000380D02*
X011323Y001230D01*
X011423Y001230D02*
X011423Y000380D01*
X011523Y000380D02*
X011523Y001235D01*
X011587Y001300D02*
X012058Y001300D01*
X012023Y001335D02*
X012023Y000380D01*
X012123Y000380D02*
X012123Y001235D01*
X012223Y001230D02*
X012223Y000380D01*
X012323Y000380D02*
X012323Y001230D01*
X012423Y001230D02*
X012423Y000380D01*
X012523Y000380D02*
X012523Y001235D01*
X012587Y001300D02*
X013058Y001300D01*
X013023Y001335D02*
X013023Y000380D01*
X013123Y000380D02*
X013123Y001235D01*
X013223Y001230D02*
X013223Y000380D01*
X013323Y000380D02*
X013323Y001230D01*
X013423Y001230D02*
X013423Y000380D01*
X013523Y000380D02*
X013523Y001235D01*
X013587Y001300D02*
X014100Y001300D01*
X014123Y001278D02*
X014123Y000380D01*
X014223Y000380D02*
X014223Y001260D01*
X014273Y001300D02*
X014373Y001300D01*
X014423Y001260D02*
X014423Y000380D01*
X014523Y000380D02*
X014523Y001278D01*
X014545Y001300D02*
X016754Y001300D01*
X016723Y001269D02*
X016723Y002117D01*
X016706Y002100D02*
X017743Y002100D01*
X017743Y002000D02*
X016606Y002000D01*
X016623Y002017D02*
X016623Y000380D01*
X016723Y000380D02*
X016723Y000631D01*
X016754Y000600D02*
X002773Y000600D01*
X002773Y000500D02*
X016854Y000500D01*
X016823Y000531D02*
X016823Y000380D01*
X016923Y000380D02*
X016923Y000465D01*
X017023Y000424D02*
X017023Y000380D01*
X017123Y000380D02*
X017123Y000406D01*
X017223Y000406D02*
X017223Y000380D01*
X016688Y000700D02*
X002773Y000700D01*
X002773Y000800D02*
X016646Y000800D01*
X016629Y000900D02*
X002773Y000900D01*
X002773Y001000D02*
X016629Y001000D01*
X016646Y001100D02*
X002773Y001100D01*
X002773Y001200D02*
X016688Y001200D01*
X016823Y001369D02*
X016823Y002217D01*
X016806Y002200D02*
X017743Y002200D01*
X017743Y002300D02*
X017466Y002300D01*
X017423Y002257D02*
X017423Y001435D01*
X017492Y001400D02*
X017743Y001400D01*
X017743Y001300D02*
X017592Y001300D01*
X017623Y001269D02*
X017623Y002457D01*
X017663Y002500D02*
X017743Y002500D01*
X017743Y002600D02*
X017663Y002600D01*
X017623Y002650D02*
X017623Y002750D01*
X017663Y002800D02*
X017743Y002800D01*
X017743Y002900D02*
X017663Y002900D01*
X017623Y002943D02*
X017623Y003415D01*
X017608Y003400D02*
X017743Y003400D01*
X017743Y003500D02*
X017693Y003500D01*
X017693Y003600D02*
X017743Y003600D01*
X017743Y003700D02*
X017693Y003700D01*
X017693Y003800D02*
X017743Y003800D01*
X017743Y003900D02*
X017693Y003900D01*
X017623Y003985D02*
X017623Y004415D01*
X017608Y004400D02*
X017743Y004400D01*
X017743Y004500D02*
X017693Y004500D01*
X017693Y004600D02*
X017743Y004600D01*
X017743Y004700D02*
X017693Y004700D01*
X017693Y004800D02*
X017743Y004800D01*
X017743Y004900D02*
X017693Y004900D01*
X016937Y005200D02*
X016873Y005200D01*
X016923Y005185D02*
X016923Y005215D01*
X016937Y005200D02*
X016873Y005265D01*
X016873Y005135D01*
X016937Y005200D01*
X016473Y005200D02*
X016408Y005200D01*
X016473Y005135D01*
X016473Y005265D01*
X016408Y005200D01*
X016423Y005185D02*
X016423Y005215D01*
X015937Y005200D02*
X015928Y005200D01*
X015930Y005193D02*
X015921Y005217D01*
X015937Y005200D01*
X015930Y005193D01*
X015923Y005212D02*
X015923Y005215D01*
X015737Y005400D02*
X015735Y005400D01*
X015723Y005405D02*
X015723Y005415D01*
X015653Y005500D02*
X004005Y005500D01*
X003923Y005449D02*
X003923Y004520D01*
X003811Y004500D02*
X003793Y004500D01*
X003793Y004700D02*
X005653Y004700D01*
X005653Y004800D02*
X003793Y004800D01*
X003793Y004900D02*
X005653Y004900D01*
X005653Y005000D02*
X003793Y005000D01*
X003793Y005300D02*
X009111Y005300D01*
X009123Y005305D02*
X009123Y005900D01*
X009223Y005900D02*
X009223Y005320D01*
X009223Y006300D02*
X009223Y006700D01*
X009140Y006700D02*
X009123Y006700D01*
X009140Y006700D02*
X011818Y006700D01*
X011803Y006664D01*
X011803Y006536D01*
X011851Y006419D01*
X011941Y006329D01*
X012011Y006300D01*
X009206Y006300D01*
X009123Y006383D01*
X009123Y006717D01*
X009140Y006700D01*
X009123Y006717D02*
X009123Y006383D01*
X009123Y006400D02*
X011870Y006400D01*
X011923Y006347D02*
X011923Y006300D01*
X012011Y006300D02*
X009206Y006300D01*
X009323Y006300D02*
X009323Y006700D01*
X009423Y006700D02*
X009423Y006300D01*
X009523Y006300D02*
X009523Y006700D01*
X009623Y006700D02*
X009623Y006300D01*
X009723Y006300D02*
X009723Y006700D01*
X009823Y006700D02*
X009823Y006300D01*
X009923Y006300D02*
X009923Y006700D01*
X010023Y006700D02*
X010023Y006300D01*
X010123Y006300D02*
X010123Y006700D01*
X010223Y006700D02*
X010223Y006300D01*
X010323Y006300D02*
X010323Y006700D01*
X010423Y006700D02*
X010423Y006300D01*
X010523Y006300D02*
X010523Y006700D01*
X010623Y006700D02*
X010623Y006300D01*
X010723Y006300D02*
X010723Y006700D01*
X010823Y006700D02*
X010823Y006300D01*
X010923Y006300D02*
X010923Y006700D01*
X011023Y006700D02*
X011023Y006300D01*
X011123Y006300D02*
X011123Y006700D01*
X011223Y006700D02*
X011223Y006300D01*
X011323Y006300D02*
X011323Y006700D01*
X011423Y006700D02*
X011423Y006300D01*
X011523Y006300D02*
X011523Y006700D01*
X011623Y006700D02*
X011623Y006300D01*
X011723Y006300D02*
X011723Y006700D01*
X011803Y006600D02*
X009123Y006600D01*
X009123Y006500D02*
X011818Y006500D01*
X011823Y006488D02*
X011823Y006300D01*
X012123Y006600D02*
X016073Y006600D01*
X016173Y006700D01*
X016473Y006265D02*
X016473Y006135D01*
X016408Y006200D01*
X016473Y006200D01*
X016423Y006185D02*
X016423Y006215D01*
X016408Y006200D02*
X016473Y006265D01*
X015937Y006200D02*
X015837Y006100D01*
X015923Y006185D02*
X015923Y006215D01*
X015973Y005900D02*
X016173Y005700D01*
X015973Y005900D02*
X012923Y005900D01*
X012923Y005580D02*
X012923Y005270D01*
X012223Y005270D02*
X012223Y005680D01*
X012123Y005695D02*
X012123Y005270D01*
X012023Y005270D02*
X012023Y005747D01*
X012111Y005700D02*
X004093Y005700D01*
X003423Y005850D02*
X003423Y006800D01*
X003173Y007050D01*
X003173Y007250D01*
X003473Y007550D01*
X003023Y006600D02*
X003023Y005900D01*
X003223Y006153D02*
X003223Y006153D01*
X003223Y006347D01*
X003223Y006347D01*
X003223Y006153D01*
X003223Y006200D02*
X003223Y006200D01*
X003223Y006300D02*
X003223Y006300D01*
X003423Y005850D02*
X003123Y005550D01*
X003123Y003400D01*
X003223Y003300D01*
X006923Y003300D01*
X007223Y003188D02*
X007223Y003150D01*
X007207Y003150D02*
X007243Y003236D01*
X007243Y003364D01*
X007194Y003481D01*
X007104Y003571D01*
X006986Y003620D01*
X006859Y003620D01*
X006843Y003613D01*
X006843Y003664D01*
X006794Y003781D01*
X006793Y003783D01*
X006793Y004288D01*
X006835Y004330D01*
X007940Y004330D01*
X007941Y004329D01*
X008059Y004280D01*
X008186Y004280D01*
X008304Y004329D01*
X008305Y004330D01*
X008890Y004330D01*
X008891Y004329D01*
X009009Y004280D01*
X009136Y004280D01*
X009254Y004329D01*
X009255Y004330D01*
X010527Y004330D01*
X010585Y004306D01*
X010712Y004306D01*
X010830Y004355D01*
X010920Y004445D01*
X010969Y004562D01*
X010969Y004690D01*
X010952Y004730D01*
X011130Y004730D01*
X011103Y004664D01*
X011103Y004536D01*
X011151Y004419D01*
X011241Y004329D01*
X011359Y004280D01*
X011486Y004280D01*
X011604Y004329D01*
X011605Y004330D01*
X012130Y004330D01*
X012103Y004264D01*
X012103Y004136D01*
X012151Y004019D01*
X012223Y003947D01*
X012223Y003383D01*
X011990Y003150D01*
X007207Y003150D01*
X007228Y003200D02*
X012040Y003200D01*
X012023Y003183D02*
X012023Y004330D01*
X012118Y004300D02*
X011535Y004300D01*
X011523Y004295D02*
X011523Y003150D01*
X011623Y003150D02*
X011623Y004330D01*
X011723Y004330D02*
X011723Y003150D01*
X011823Y003150D02*
X011823Y004330D01*
X011923Y004330D02*
X011923Y003150D01*
X012123Y003283D02*
X012123Y004088D01*
X012118Y004100D02*
X006793Y004100D01*
X006793Y004000D02*
X012170Y004000D01*
X012223Y003900D02*
X006793Y003900D01*
X006793Y003800D02*
X012223Y003800D01*
X012223Y003700D02*
X006828Y003700D01*
X006823Y003712D02*
X006823Y004318D01*
X006805Y004300D02*
X008011Y004300D01*
X008023Y004295D02*
X008023Y003150D01*
X008123Y003150D02*
X008123Y004280D01*
X008223Y004295D02*
X008223Y003150D01*
X008323Y003150D02*
X008323Y004330D01*
X008235Y004300D02*
X008961Y004300D01*
X008923Y004316D02*
X008923Y003150D01*
X009023Y003150D02*
X009023Y004280D01*
X009123Y004280D02*
X009123Y003150D01*
X009223Y003150D02*
X009223Y004316D01*
X009185Y004300D02*
X011311Y004300D01*
X011323Y004295D02*
X011323Y003150D01*
X011423Y003150D02*
X011423Y004280D01*
X011223Y004347D02*
X011223Y003150D01*
X011123Y003150D02*
X011123Y004488D01*
X011118Y004500D02*
X010943Y004500D01*
X010923Y004451D02*
X010923Y003150D01*
X011023Y003150D02*
X011023Y004730D01*
X010964Y004700D02*
X011118Y004700D01*
X011123Y004712D02*
X011123Y004730D01*
X011103Y004600D02*
X010969Y004600D01*
X010875Y004400D02*
X011170Y004400D01*
X010823Y004352D02*
X010823Y003150D01*
X010723Y003150D02*
X010723Y004310D01*
X010623Y004306D02*
X010623Y003150D01*
X010523Y003150D02*
X010523Y004330D01*
X010423Y004330D02*
X010423Y003150D01*
X010323Y003150D02*
X010323Y004330D01*
X010223Y004330D02*
X010223Y003150D01*
X010123Y003150D02*
X010123Y004330D01*
X010023Y004330D02*
X010023Y003150D01*
X009923Y003150D02*
X009923Y004330D01*
X009823Y004330D02*
X009823Y003150D01*
X009723Y003150D02*
X009723Y004330D01*
X009623Y004330D02*
X009623Y003150D01*
X009523Y003150D02*
X009523Y004330D01*
X009423Y004330D02*
X009423Y003150D01*
X009323Y003150D02*
X009323Y004330D01*
X008823Y004330D02*
X008823Y003150D01*
X008723Y003150D02*
X008723Y004330D01*
X008623Y004330D02*
X008623Y003150D01*
X008523Y003150D02*
X008523Y004330D01*
X008423Y004330D02*
X008423Y003150D01*
X007923Y003150D02*
X007923Y004330D01*
X007823Y004330D02*
X007823Y003150D01*
X007723Y003150D02*
X007723Y004330D01*
X007623Y004330D02*
X007623Y003150D01*
X007523Y003150D02*
X007523Y004330D01*
X007423Y004330D02*
X007423Y003150D01*
X007323Y003150D02*
X007323Y004330D01*
X007223Y004330D02*
X007223Y003412D01*
X007228Y003400D02*
X012223Y003400D01*
X012223Y003500D02*
X007175Y003500D01*
X007123Y003553D02*
X007123Y004330D01*
X007023Y004330D02*
X007023Y003605D01*
X007035Y003600D02*
X012223Y003600D01*
X012140Y003300D02*
X007243Y003300D01*
X006923Y003620D02*
X006923Y004330D01*
X006793Y004200D02*
X012103Y004200D01*
X012123Y004312D02*
X012123Y004330D01*
X012423Y004200D02*
X012423Y003300D01*
X012073Y002950D01*
X006923Y002950D01*
X006923Y002500D02*
X006923Y001965D01*
X006958Y002000D02*
X006687Y002000D01*
X006723Y001965D02*
X006723Y002500D01*
X006823Y002500D02*
X006823Y000380D01*
X006923Y000380D02*
X006923Y001435D01*
X006958Y001400D02*
X006687Y001400D01*
X006723Y001435D02*
X006723Y000380D01*
X006623Y000380D02*
X006623Y001335D01*
X006787Y001500D02*
X006858Y001500D01*
X006853Y001600D02*
X006793Y001600D01*
X006793Y001700D02*
X006853Y001700D01*
X006853Y001800D02*
X006793Y001800D01*
X006787Y001900D02*
X006858Y001900D01*
X007023Y002065D02*
X007023Y002500D01*
X007123Y002500D02*
X007123Y002165D01*
X007058Y002100D02*
X006587Y002100D01*
X006623Y002065D02*
X006623Y002500D01*
X006523Y002500D02*
X006523Y002165D01*
X006423Y002170D02*
X006423Y002500D01*
X006323Y002500D02*
X006323Y002170D01*
X006223Y002170D02*
X006223Y002500D01*
X006123Y002500D02*
X006123Y002165D01*
X006058Y002100D02*
X005587Y002100D01*
X005623Y002065D02*
X005623Y002500D01*
X005723Y002500D02*
X005723Y001965D01*
X005687Y002000D02*
X005958Y002000D01*
X005923Y001965D02*
X005923Y002500D01*
X006023Y002500D02*
X006023Y002065D01*
X005858Y001900D02*
X005787Y001900D01*
X005793Y001800D02*
X005853Y001800D01*
X005853Y001700D02*
X005793Y001700D01*
X005793Y001600D02*
X005853Y001600D01*
X005858Y001500D02*
X005787Y001500D01*
X005723Y001435D02*
X005723Y000380D01*
X005823Y000380D02*
X005823Y002500D01*
X005523Y002500D02*
X005523Y002165D01*
X005423Y002170D02*
X005423Y002500D01*
X005323Y002500D02*
X005323Y002170D01*
X005223Y002170D02*
X005223Y002500D01*
X005123Y002500D02*
X005123Y002165D01*
X005058Y002100D02*
X004587Y002100D01*
X004623Y002065D02*
X004623Y002500D01*
X004723Y002500D02*
X004723Y001965D01*
X004687Y002000D02*
X004958Y002000D01*
X004923Y001965D02*
X004923Y002500D01*
X005023Y002500D02*
X005023Y002065D01*
X004858Y001900D02*
X004787Y001900D01*
X004793Y001800D02*
X004853Y001800D01*
X004853Y001700D02*
X004793Y001700D01*
X004793Y001600D02*
X004853Y001600D01*
X004858Y001500D02*
X004787Y001500D01*
X004723Y001435D02*
X004723Y000380D01*
X004823Y000380D02*
X004823Y002500D01*
X004523Y002500D02*
X004523Y002165D01*
X004423Y002170D02*
X004423Y002500D01*
X004323Y002500D02*
X004323Y002170D01*
X004223Y002170D02*
X004223Y002500D01*
X004123Y002500D02*
X004123Y002165D01*
X004058Y002100D02*
X003775Y002100D01*
X003723Y002152D02*
X003723Y002500D01*
X003623Y002500D02*
X003623Y002170D01*
X003523Y002170D02*
X003523Y002500D01*
X003423Y002500D02*
X003423Y002170D01*
X003323Y002170D02*
X003323Y002500D01*
X003223Y002500D02*
X003223Y002170D01*
X003123Y002170D02*
X003123Y002500D01*
X003023Y002500D02*
X003023Y002170D01*
X002923Y002152D02*
X002923Y002500D01*
X002923Y003160D02*
X002923Y003317D01*
X003040Y003200D01*
X002773Y003200D01*
X002773Y003160D02*
X002773Y003916D01*
X002804Y003929D01*
X002894Y004019D01*
X002923Y004088D01*
X002923Y003317D01*
X002940Y003300D02*
X002773Y003300D01*
X002773Y003400D02*
X002923Y003400D01*
X002923Y003500D02*
X002773Y003500D01*
X002773Y003600D02*
X002923Y003600D01*
X002923Y003700D02*
X002773Y003700D01*
X002773Y003800D02*
X002923Y003800D01*
X002923Y003900D02*
X002773Y003900D01*
X002823Y003947D02*
X002823Y003160D01*
X002773Y003160D02*
X003080Y003160D01*
X003040Y003200D01*
X003023Y003217D02*
X003023Y003160D01*
X003793Y003870D02*
X003793Y003907D01*
X003859Y003880D01*
X003986Y003880D01*
X004104Y003929D01*
X004105Y003930D01*
X005976Y003930D01*
X006076Y003971D01*
X006152Y004047D01*
X006193Y004146D01*
X006193Y004317D01*
X006194Y004319D01*
X006243Y004436D01*
X006243Y004564D01*
X006194Y004681D01*
X006193Y004683D01*
X006193Y004730D01*
X006471Y004730D01*
X006294Y004553D01*
X006253Y004454D01*
X006253Y003783D01*
X006251Y003781D01*
X006203Y003664D01*
X006203Y003536D01*
X006218Y003500D01*
X005128Y003500D01*
X006218Y003500D01*
X006123Y003500D02*
X006123Y004018D01*
X006105Y004000D02*
X006253Y004000D01*
X006253Y004100D02*
X006174Y004100D01*
X006193Y004200D02*
X006253Y004200D01*
X006253Y004300D02*
X006193Y004300D01*
X006223Y004388D02*
X006223Y003712D01*
X006218Y003700D02*
X005128Y003700D01*
X005123Y003712D02*
X005123Y003930D01*
X005223Y003930D02*
X005223Y003500D01*
X005143Y003536D02*
X005128Y003500D01*
X005143Y003536D02*
X005143Y003664D01*
X005094Y003781D01*
X005004Y003871D01*
X004886Y003920D01*
X004759Y003920D01*
X004641Y003871D01*
X004640Y003870D01*
X003793Y003870D01*
X003823Y003870D02*
X003823Y003895D01*
X003811Y003900D02*
X003793Y003900D01*
X003923Y003880D02*
X003923Y003870D01*
X004023Y003870D02*
X004023Y003895D01*
X004035Y003900D02*
X004711Y003900D01*
X004723Y003905D02*
X004723Y003930D01*
X004823Y003920D02*
X004823Y003930D01*
X004923Y003930D02*
X004923Y003905D01*
X004935Y003900D02*
X006253Y003900D01*
X006253Y003800D02*
X005075Y003800D01*
X005023Y003853D02*
X005023Y003930D01*
X005323Y003930D02*
X005323Y003500D01*
X005423Y003500D02*
X005423Y003930D01*
X005523Y003930D02*
X005523Y003500D01*
X005623Y003500D02*
X005623Y003930D01*
X005723Y003930D02*
X005723Y003500D01*
X005823Y003500D02*
X005823Y003930D01*
X005923Y003930D02*
X005923Y003500D01*
X006023Y003500D02*
X006023Y003949D01*
X006203Y003600D02*
X005143Y003600D01*
X004623Y003870D02*
X004623Y003930D01*
X004523Y003930D02*
X004523Y003870D01*
X004423Y003870D02*
X004423Y003930D01*
X004323Y003930D02*
X004323Y003870D01*
X004223Y003870D02*
X004223Y003930D01*
X004123Y003930D02*
X004123Y003870D01*
X002923Y004000D02*
X002875Y004000D01*
X002923Y004312D02*
X002894Y004381D01*
X002893Y004383D01*
X002893Y005607D01*
X002923Y005595D01*
X002923Y004312D01*
X002923Y004400D02*
X002893Y004400D01*
X002893Y004500D02*
X002923Y004500D01*
X002923Y004600D02*
X002893Y004600D01*
X002893Y004700D02*
X002923Y004700D01*
X002923Y004800D02*
X002893Y004800D01*
X002893Y004900D02*
X002923Y004900D01*
X002923Y005000D02*
X002893Y005000D01*
X002893Y005100D02*
X002923Y005100D01*
X002923Y005200D02*
X002893Y005200D01*
X002893Y005300D02*
X002923Y005300D01*
X002923Y005400D02*
X002893Y005400D01*
X002893Y005500D02*
X002923Y005500D01*
X002911Y005600D02*
X002893Y005600D01*
X006193Y004700D02*
X006441Y004700D01*
X006423Y004682D02*
X006423Y004730D01*
X006323Y004730D02*
X006323Y004582D01*
X006341Y004600D02*
X006228Y004600D01*
X006223Y004612D02*
X006223Y004730D01*
X006243Y004500D02*
X006272Y004500D01*
X006253Y004400D02*
X006228Y004400D01*
X007223Y002500D02*
X007223Y002170D01*
X007323Y002170D02*
X007323Y002500D01*
X007423Y002500D02*
X007423Y002170D01*
X007523Y002165D02*
X007523Y002500D01*
X007623Y002500D02*
X007623Y002065D01*
X007587Y002100D02*
X008058Y002100D01*
X008023Y002065D02*
X008023Y002500D01*
X008123Y002500D02*
X008123Y002165D01*
X008223Y002170D02*
X008223Y002500D01*
X008323Y002500D02*
X008323Y002170D01*
X008423Y002170D02*
X008423Y002500D01*
X008523Y002500D02*
X008523Y002165D01*
X008587Y002100D02*
X009058Y002100D01*
X009023Y002065D02*
X009023Y002500D01*
X009123Y002500D02*
X009123Y002165D01*
X009223Y002170D02*
X009223Y002500D01*
X009323Y002500D02*
X009323Y002170D01*
X008958Y002000D02*
X008687Y002000D01*
X008723Y001965D02*
X008723Y002500D01*
X008823Y002500D02*
X008823Y000380D01*
X008923Y000380D02*
X008923Y001435D01*
X008958Y001400D02*
X008687Y001400D01*
X008723Y001435D02*
X008723Y000380D01*
X008623Y000380D02*
X008623Y001335D01*
X008787Y001500D02*
X008858Y001500D01*
X008853Y001600D02*
X008793Y001600D01*
X008793Y001700D02*
X008853Y001700D01*
X008853Y001800D02*
X008793Y001800D01*
X008787Y001900D02*
X008858Y001900D01*
X008923Y001965D02*
X008923Y002500D01*
X008623Y002500D02*
X008623Y002065D01*
X007958Y002000D02*
X007687Y002000D01*
X007723Y001965D02*
X007723Y002500D01*
X007823Y002500D02*
X007823Y000380D01*
X007923Y000380D02*
X007923Y001435D01*
X007958Y001400D02*
X007687Y001400D01*
X007723Y001435D02*
X007723Y000380D01*
X007623Y000380D02*
X007623Y001335D01*
X007787Y001500D02*
X007858Y001500D01*
X007853Y001600D02*
X007793Y001600D01*
X007793Y001700D02*
X007853Y001700D01*
X007853Y001800D02*
X007793Y001800D01*
X007787Y001900D02*
X007858Y001900D01*
X007923Y001965D02*
X007923Y002500D01*
X009623Y001335D02*
X009623Y000380D01*
X009723Y000380D02*
X009723Y001435D01*
X009687Y001400D02*
X009958Y001400D01*
X009923Y001435D02*
X009923Y000380D01*
X009823Y000380D02*
X009823Y001830D01*
X009793Y001800D02*
X009853Y001800D01*
X009853Y001700D02*
X009793Y001700D01*
X009793Y001600D02*
X009853Y001600D01*
X009858Y001500D02*
X009787Y001500D01*
X010623Y001335D02*
X010623Y000380D01*
X010723Y000380D02*
X010723Y001435D01*
X010687Y001400D02*
X010958Y001400D01*
X010923Y001435D02*
X010923Y000380D01*
X010823Y000380D02*
X010823Y001950D01*
X010787Y001900D02*
X010858Y001900D01*
X010853Y001800D02*
X010793Y001800D01*
X010793Y001700D02*
X010853Y001700D01*
X010853Y001600D02*
X010793Y001600D01*
X010787Y001500D02*
X010858Y001500D01*
X011623Y001335D02*
X011623Y000380D01*
X011723Y000380D02*
X011723Y001435D01*
X011687Y001400D02*
X011958Y001400D01*
X011923Y001435D02*
X011923Y000380D01*
X011823Y000380D02*
X011823Y001950D01*
X011787Y001900D02*
X011858Y001900D01*
X011853Y001800D02*
X011793Y001800D01*
X011793Y001700D02*
X011853Y001700D01*
X011853Y001600D02*
X011793Y001600D01*
X011787Y001500D02*
X011858Y001500D01*
X012623Y001335D02*
X012623Y000380D01*
X012723Y000380D02*
X012723Y001435D01*
X012687Y001400D02*
X012958Y001400D01*
X012923Y001435D02*
X012923Y000380D01*
X012823Y000380D02*
X012823Y001950D01*
X012787Y001900D02*
X012858Y001900D01*
X012853Y001800D02*
X012793Y001800D01*
X012793Y001700D02*
X012853Y001700D01*
X012853Y001600D02*
X012793Y001600D01*
X012787Y001500D02*
X012858Y001500D01*
X013623Y001335D02*
X013623Y000380D01*
X013723Y000380D02*
X013723Y001435D01*
X013687Y001400D02*
X014000Y001400D01*
X014023Y001378D02*
X014023Y000380D01*
X013923Y000380D02*
X013923Y001478D01*
X013900Y001500D02*
X013787Y001500D01*
X013793Y001600D02*
X013883Y001600D01*
X013923Y001650D02*
X013923Y001750D01*
X013883Y001800D02*
X013793Y001800D01*
X013793Y001700D02*
X014273Y001700D01*
X014323Y001650D02*
X014323Y000380D01*
X014623Y000380D02*
X014623Y001378D01*
X014645Y001400D02*
X016854Y001400D01*
X016923Y001435D02*
X016923Y002257D01*
X016880Y002300D02*
X016873Y002300D01*
X016523Y001950D02*
X016523Y000380D01*
X016423Y000380D02*
X016423Y001950D01*
X016323Y001950D02*
X016323Y000380D01*
X016223Y000380D02*
X016223Y001950D01*
X016123Y001950D02*
X016123Y000380D01*
X016023Y000380D02*
X016023Y001950D01*
X015923Y001950D02*
X015923Y000380D01*
X015823Y000380D02*
X015823Y001950D01*
X015723Y001950D02*
X015723Y000380D01*
X015623Y000380D02*
X015623Y001950D01*
X015523Y001950D02*
X015523Y000380D01*
X015423Y000380D02*
X015423Y001950D01*
X015323Y001950D02*
X015323Y000380D01*
X015223Y000380D02*
X015223Y001950D01*
X015123Y001950D02*
X015123Y000380D01*
X015023Y000380D02*
X015023Y001950D01*
X014923Y001950D02*
X014923Y000380D01*
X014823Y000380D02*
X014823Y001950D01*
X014745Y001900D02*
X017743Y001900D01*
X017743Y001800D02*
X014763Y001800D01*
X014723Y001750D02*
X014723Y001650D01*
X014763Y001600D02*
X017743Y001600D01*
X017743Y001500D02*
X014745Y001500D01*
X014723Y001478D02*
X014723Y000380D01*
X013823Y000380D02*
X013823Y001950D01*
X013787Y001900D02*
X013900Y001900D01*
X013923Y001922D02*
X013923Y001950D01*
X014023Y001750D02*
X014023Y001650D01*
X014123Y001650D02*
X014123Y001750D01*
X014223Y001750D02*
X014223Y001650D01*
X014273Y001600D02*
X014373Y001600D01*
X014423Y001650D02*
X014423Y001750D01*
X014373Y001700D02*
X017743Y001700D01*
X017523Y001369D02*
X017523Y002357D01*
X017566Y002400D02*
X017743Y002400D01*
X017743Y002700D02*
X017223Y002700D01*
X017323Y002650D02*
X017323Y002750D01*
X017423Y002750D02*
X017423Y002650D01*
X017523Y002650D02*
X017523Y002750D01*
X017566Y003000D02*
X017743Y003000D01*
X017743Y003100D02*
X017466Y003100D01*
X017423Y003143D02*
X017423Y003215D01*
X017408Y003200D02*
X017743Y003200D01*
X017743Y003300D02*
X017508Y003300D01*
X017523Y003315D02*
X017523Y003043D01*
X016960Y003180D02*
X016873Y003093D01*
X016873Y003265D01*
X016957Y003180D01*
X016960Y003180D01*
X016937Y003200D02*
X016873Y003200D01*
X016923Y003215D02*
X016923Y003143D01*
X016880Y003100D02*
X016873Y003100D01*
X016473Y003100D02*
X016466Y003100D01*
X016473Y003093D02*
X016386Y003180D01*
X016388Y003180D01*
X016473Y003265D01*
X016473Y003093D01*
X016423Y003143D02*
X016423Y003215D01*
X016408Y003200D02*
X016473Y003200D01*
X015653Y003500D02*
X013423Y003500D01*
X013423Y003600D02*
X013711Y003600D01*
X013723Y003595D02*
X013723Y002350D01*
X013823Y002350D02*
X013823Y003580D01*
X013923Y003595D02*
X013923Y002350D01*
X014023Y002350D02*
X014023Y003647D01*
X013935Y003600D02*
X015653Y003600D01*
X014923Y003700D02*
X014923Y002350D01*
X014823Y002350D02*
X014823Y003700D01*
X014723Y003700D02*
X014723Y002350D01*
X014623Y002350D02*
X014623Y003700D01*
X014523Y003700D02*
X014523Y002350D01*
X014423Y002350D02*
X014423Y003700D01*
X014323Y003700D02*
X014323Y002350D01*
X014223Y002350D02*
X014223Y003700D01*
X014123Y003700D02*
X014123Y002350D01*
X013623Y002350D02*
X013623Y003647D01*
X013570Y003700D02*
X013423Y003700D01*
X013023Y003700D02*
X012623Y003700D01*
X012623Y003600D02*
X013023Y003600D01*
X013023Y003500D02*
X012623Y003500D01*
X012623Y003400D02*
X013023Y003400D01*
X013023Y003300D02*
X012623Y003300D01*
X012623Y003217D02*
X012623Y003947D01*
X012694Y004019D01*
X012623Y003800D02*
X012970Y003800D01*
X013528Y004100D02*
X013570Y004100D01*
X013523Y004112D02*
X013523Y004330D01*
X013623Y004330D02*
X013623Y004153D01*
X013711Y004200D02*
X013475Y004200D01*
X013423Y004253D02*
X013423Y004330D01*
X013723Y004330D02*
X013723Y004205D01*
X013823Y004220D02*
X013823Y004330D01*
X012823Y004330D02*
X012823Y002983D01*
X012840Y003000D02*
X012406Y003000D01*
X012423Y003017D02*
X012423Y002900D01*
X012523Y002900D02*
X012523Y003117D01*
X012506Y003100D02*
X012623Y003217D01*
X012606Y003200D02*
X013023Y003200D01*
X013223Y003100D02*
X012823Y002700D01*
X001273Y002700D01*
X004023Y002500D02*
X004023Y002065D01*
X004687Y001400D02*
X004958Y001400D01*
X004923Y001435D02*
X004923Y000380D01*
X005623Y000380D02*
X005623Y001335D01*
X005687Y001400D02*
X005958Y001400D01*
X005923Y001435D02*
X005923Y000380D01*
X012306Y002900D02*
X012740Y002900D01*
X012323Y002900D02*
X012323Y002917D01*
X012923Y002517D02*
X012923Y002350D01*
X014273Y001500D02*
X014373Y001500D01*
X014373Y001400D02*
X014273Y001400D01*
X014523Y001650D02*
X014523Y001750D01*
X014623Y001750D02*
X014623Y001650D01*
X014723Y001922D02*
X014723Y001950D01*
X015823Y002350D02*
X015823Y002357D01*
X017658Y001200D02*
X017743Y001200D01*
X017743Y001100D02*
X017699Y001100D01*
X017716Y001000D02*
X017743Y001000D01*
X017733Y000800D02*
X017699Y000800D01*
X017743Y004000D02*
X017608Y004000D01*
X017523Y004085D02*
X017523Y004315D01*
X017508Y004300D02*
X017743Y004300D01*
X017743Y004200D02*
X017408Y004200D01*
X017423Y004185D02*
X017423Y004215D01*
X017508Y004100D02*
X017743Y004100D01*
X016937Y004200D02*
X016873Y004265D01*
X016873Y004135D01*
X016937Y004200D01*
X016873Y004200D01*
X016923Y004185D02*
X016923Y004215D01*
X016473Y004200D02*
X016408Y004200D01*
X016473Y004135D01*
X016473Y004265D01*
X016408Y004200D01*
X016423Y004185D02*
X016423Y004215D01*
X014994Y005353D02*
X014994Y005353D01*
X014941Y005300D02*
X014435Y005300D01*
X014423Y005305D02*
X014423Y005700D01*
X014523Y005700D02*
X014523Y005270D01*
X014623Y005270D02*
X014623Y005700D01*
X014723Y005700D02*
X014723Y005270D01*
X014823Y005270D02*
X014823Y005700D01*
X014923Y005700D02*
X014923Y005282D01*
X014323Y005320D02*
X014323Y005700D01*
X015556Y006800D02*
X015653Y006897D01*
X015653Y006800D01*
X015556Y006800D01*
X015653Y006800D01*
X015623Y006800D02*
X015623Y006867D01*
X016408Y007200D02*
X016473Y007265D01*
X016473Y007135D01*
X016408Y007200D01*
X016473Y007200D01*
X016423Y007185D02*
X016423Y007215D01*
X016873Y007200D02*
X016937Y007200D01*
X016873Y007265D01*
X016873Y007135D01*
X016937Y007200D01*
X016923Y007185D02*
X016923Y007215D01*
X017693Y007500D02*
X017743Y007500D01*
X017743Y007600D02*
X017693Y007600D01*
X017693Y007700D02*
X017743Y007700D01*
X017743Y007800D02*
X017693Y007800D01*
X017693Y007900D02*
X017743Y007900D01*
X017743Y006900D02*
X017693Y006900D01*
X017693Y006800D02*
X017743Y006800D01*
X017743Y006700D02*
X017693Y006700D01*
X017693Y006600D02*
X017743Y006600D01*
X017743Y006500D02*
X017693Y006500D01*
X016937Y006200D02*
X016873Y006200D01*
X016923Y006185D02*
X016923Y006215D01*
X016937Y006200D02*
X016873Y006265D01*
X016873Y006135D01*
X016937Y006200D01*
X017693Y005900D02*
X017743Y005900D01*
X017743Y005800D02*
X017693Y005800D01*
X017693Y005700D02*
X017743Y005700D01*
X017743Y005600D02*
X017693Y005600D01*
X017693Y005500D02*
X017743Y005500D01*
X014023Y007100D02*
X014023Y007630D01*
X013523Y007500D02*
X013523Y007200D01*
X013218Y007300D02*
X013203Y007264D01*
X013203Y007136D01*
X013218Y007100D01*
X010235Y007100D01*
X013218Y007100D01*
X013123Y007100D02*
X013123Y007300D01*
X013218Y007300D02*
X010975Y007300D01*
X010904Y007229D01*
X010786Y007180D01*
X010659Y007180D01*
X010541Y007229D01*
X010451Y007319D01*
X010443Y007340D01*
X010443Y007336D01*
X010394Y007219D01*
X010304Y007129D01*
X010235Y007100D01*
X010323Y007100D02*
X010323Y007147D01*
X010375Y007200D02*
X010611Y007200D01*
X010623Y007195D02*
X010623Y007100D01*
X010723Y007100D02*
X010723Y007180D01*
X010823Y007195D02*
X010823Y007100D01*
X010923Y007100D02*
X010923Y007247D01*
X010835Y007200D02*
X013203Y007200D01*
X013023Y007100D02*
X013023Y007300D01*
X012923Y007300D02*
X012923Y007100D01*
X012823Y007100D02*
X012823Y007300D01*
X012723Y007300D02*
X012723Y007100D01*
X012623Y007100D02*
X012623Y007300D01*
X012523Y007300D02*
X012523Y007100D01*
X012423Y007100D02*
X012423Y007300D01*
X012323Y007300D02*
X012323Y007100D01*
X012223Y007100D02*
X012223Y007300D01*
X012123Y007300D02*
X012123Y007100D01*
X012023Y007100D02*
X012023Y007300D01*
X011923Y007300D02*
X011923Y007100D01*
X011823Y007100D02*
X011823Y007300D01*
X011723Y007300D02*
X011723Y007100D01*
X011623Y007100D02*
X011623Y007300D01*
X011523Y007300D02*
X011523Y007100D01*
X011423Y007100D02*
X011423Y007300D01*
X011323Y007300D02*
X011323Y007100D01*
X011223Y007100D02*
X011223Y007300D01*
X011123Y007300D02*
X011123Y007100D01*
X011023Y007100D02*
X011023Y007300D01*
X010723Y007500D02*
X013523Y007500D01*
X011823Y008600D02*
X011823Y008880D01*
X011723Y008895D02*
X011723Y008600D01*
X011623Y008600D02*
X011623Y008900D01*
X011523Y008900D02*
X011523Y008600D01*
X011423Y008600D02*
X011423Y008900D01*
X011323Y008900D02*
X011323Y008600D01*
X011223Y008600D02*
X011223Y008900D01*
X011123Y008900D02*
X011123Y008600D01*
X011023Y008600D02*
X011023Y008900D01*
X010923Y008900D02*
X010923Y008600D01*
X010823Y008600D02*
X010823Y008900D01*
X010723Y008900D02*
X010723Y008600D01*
X010623Y008600D02*
X010623Y008900D01*
X010523Y008900D02*
X010523Y008600D01*
X010423Y008600D02*
X010423Y008900D01*
X010323Y008900D02*
X010323Y008600D01*
X010345Y007630D02*
X010430Y007630D01*
X010403Y007564D01*
X010403Y007560D01*
X010394Y007581D01*
X010345Y007630D01*
X010375Y007600D02*
X010418Y007600D01*
X010423Y007612D02*
X010423Y007630D01*
X010428Y007300D02*
X010470Y007300D01*
X010423Y007288D02*
X010423Y007100D01*
X010523Y007100D02*
X010523Y007247D01*
X008423Y008600D02*
X008423Y008880D01*
X008323Y008880D02*
X008323Y008600D01*
X004958Y010400D02*
X004823Y010400D01*
X003853Y010800D02*
X003793Y010800D01*
X003787Y010900D02*
X003858Y010900D01*
X011623Y011065D02*
X011623Y012020D01*
X011723Y012020D02*
X011723Y010965D01*
X011687Y011000D02*
X011958Y011000D01*
X011923Y010965D02*
X011923Y012020D01*
X011823Y012020D02*
X011823Y010520D01*
X011793Y010600D02*
X011853Y010600D01*
X011853Y010700D02*
X011793Y010700D01*
X011793Y010800D02*
X011853Y010800D01*
X011858Y010900D02*
X011787Y010900D01*
X016673Y009200D02*
X017173Y009700D01*
X017523Y009180D02*
X017523Y009085D01*
X017508Y009100D02*
X017743Y009100D01*
X012723Y004330D02*
X012723Y004312D01*
D15*
X012423Y004200D03*
X013223Y004000D03*
X013823Y003900D03*
X015223Y004600D03*
X015623Y005100D03*
X014723Y005400D03*
X014323Y005000D03*
X013523Y005400D03*
X012923Y005900D03*
X012223Y006000D03*
X012123Y006600D03*
X013523Y007200D03*
X014323Y007900D03*
X014023Y008600D03*
X014723Y009000D03*
X015623Y008200D03*
X015223Y010000D03*
X012023Y009800D03*
X011823Y010200D03*
X010823Y010200D03*
X011823Y009200D03*
X010623Y008800D03*
X009623Y007900D03*
X010123Y007400D03*
X010723Y007500D03*
X008623Y008800D03*
X008373Y009200D03*
X007773Y009800D03*
X007373Y009500D03*
X007123Y008950D03*
X007123Y008400D03*
X006623Y008400D03*
X006123Y007900D03*
X006423Y007500D03*
X005423Y006300D03*
X006323Y005900D03*
X005923Y004500D03*
X006523Y003600D03*
X006923Y003300D03*
X008123Y004600D03*
X009073Y004600D03*
X009223Y005000D03*
X010649Y004626D03*
X011423Y004600D03*
X010923Y005500D03*
X009823Y002150D03*
X004823Y003600D03*
X003923Y004200D03*
X002623Y004200D03*
X001273Y003200D03*
X001273Y002200D03*
X003923Y005300D03*
X003023Y005900D03*
X003023Y006600D03*
X003623Y007100D03*
X003973Y007550D03*
X002623Y008200D03*
X001223Y009200D03*
X001273Y010200D03*
X004173Y009750D03*
X004623Y009450D03*
X004173Y009100D03*
X005673Y008950D03*
X006123Y009950D03*
D16*
X008623Y008800D02*
X010623Y008800D01*
X012123Y008800D01*
X012323Y009000D01*
X014723Y009000D01*
X015223Y010000D02*
X013423Y010000D01*
X013323Y010100D01*
X013323Y010700D01*
X014323Y007900D02*
X009623Y007900D01*
X010923Y005500D02*
X006423Y005500D01*
X006323Y005600D01*
X006323Y005900D01*
X006323Y006300D01*
X005423Y006300D01*
X005423Y005300D01*
X003923Y005300D01*
X003523Y005500D02*
X003723Y005700D01*
X003823Y005700D01*
X003823Y007100D01*
X003623Y007100D01*
X002623Y008200D02*
X002623Y004200D01*
X003523Y003600D02*
X003523Y005500D01*
X003923Y004200D02*
X005923Y004200D01*
X005923Y004500D01*
X005923Y005000D01*
X009223Y005000D01*
X014323Y005000D01*
X015023Y005000D01*
X015223Y005200D01*
X015523Y005200D01*
X015623Y005100D01*
X015323Y004700D02*
X015223Y004600D01*
X011423Y004600D01*
X010649Y004626D02*
X010623Y004600D01*
X009073Y004600D01*
X008123Y004600D01*
X006723Y004600D01*
X006523Y004400D01*
X006523Y003600D01*
X004823Y003600D02*
X003523Y003600D01*
X010923Y005500D02*
X011023Y005400D01*
X013523Y005400D01*
X014723Y005400D01*
X015323Y004700D02*
X016173Y004700D01*
D17*
X006923Y002950D02*
X001523Y002950D01*
X001273Y003200D01*
X004223Y008300D02*
X003823Y008700D01*
X001227Y008700D01*
X001227Y009195D01*
X001223Y009200D01*
X004223Y008300D02*
X006223Y008300D01*
D18*
X001273Y002700D02*
X001273Y002200D01*
M02*
