G75*
%MOIN*%
%OFA0B0*%
%FSLAX24Y24*%
%IPPOS*%
%LPD*%
%AMOC8*
5,1,8,0,0,1.08239X$1,22.5*
%
%ADD10C,0.0050*%
%ADD11R,0.6500X0.1000*%
%ADD12C,0.0040*%
%ADD13C,0.0080*%
%ADD14C,0.0060*%
%ADD15R,0.0050X0.0010*%
%ADD16R,0.0070X0.0010*%
%ADD17R,0.0090X0.0010*%
%ADD18R,0.0110X0.0010*%
%ADD19R,0.0130X0.0010*%
%ADD20R,0.0150X0.0010*%
%ADD21R,0.0170X0.0010*%
%ADD22R,0.0190X0.0010*%
%ADD23R,0.0210X0.0010*%
%ADD24R,0.0230X0.0010*%
%ADD25R,0.0240X0.0010*%
%ADD26R,0.0260X0.0010*%
%ADD27R,0.0270X0.0010*%
%ADD28R,0.0280X0.0010*%
%ADD29R,0.0140X0.0010*%
%ADD30R,0.0250X0.0010*%
%ADD31R,0.0160X0.0010*%
%ADD32R,0.0180X0.0010*%
%ADD33R,0.0200X0.0010*%
%ADD34R,0.0220X0.0010*%
%ADD35R,0.0020X0.0010*%
%ADD36R,0.0290X0.0010*%
%ADD37R,0.0300X0.0010*%
%ADD38R,0.0310X0.0010*%
%ADD39R,0.0320X0.0010*%
%ADD40R,0.0330X0.0010*%
%ADD41R,0.0040X0.0010*%
%ADD42R,0.0060X0.0010*%
%ADD43R,0.0080X0.0010*%
%ADD44R,0.0100X0.0010*%
%ADD45R,0.0120X0.0010*%
%ADD46R,0.0030X0.0010*%
%ADD47R,0.0350X0.0010*%
%ADD48R,0.0380X0.0010*%
%ADD49R,0.0420X0.0010*%
%ADD50R,0.0450X0.0010*%
%ADD51R,0.0340X0.0010*%
%ADD52R,0.0480X0.0010*%
%ADD53R,0.0390X0.0010*%
%ADD54R,0.0410X0.0010*%
%ADD55R,0.0430X0.0010*%
%ADD56R,0.0460X0.0010*%
%ADD57R,0.0470X0.0010*%
%ADD58R,0.0400X0.0010*%
%ADD59R,0.0490X0.0010*%
%ADD60R,0.0510X0.0010*%
%ADD61R,0.0370X0.0010*%
%ADD62R,0.0590X0.0010*%
%ADD63R,0.0500X0.0010*%
%ADD64R,0.0580X0.0010*%
%ADD65R,0.0570X0.0010*%
%ADD66R,0.0530X0.0010*%
%ADD67R,0.0520X0.0010*%
%ADD68R,0.0360X0.0010*%
%ADD69R,0.0010X0.0010*%
%ADD70C,0.0000*%
D10*
X003228Y000336D02*
X003498Y000336D01*
X003228Y000516D01*
X003498Y000516D01*
X003453Y000630D02*
X003273Y000630D01*
X003228Y000675D01*
X003228Y000765D01*
X003273Y000811D01*
X003453Y000811D02*
X003498Y000765D01*
X003498Y000675D01*
X003453Y000630D01*
X004228Y000675D02*
X004228Y000765D01*
X004273Y000811D01*
X004228Y000675D02*
X004273Y000630D01*
X004453Y000630D01*
X004498Y000675D01*
X004498Y000765D01*
X004453Y000811D01*
X004498Y000516D02*
X004228Y000516D01*
X004498Y000336D01*
X004228Y000336D01*
X005228Y000286D02*
X005498Y000286D01*
X005228Y000466D01*
X005498Y000466D01*
X005453Y000580D02*
X005273Y000580D01*
X005228Y000625D01*
X005228Y000715D01*
X005273Y000761D01*
X005453Y000761D02*
X005498Y000715D01*
X005498Y000625D01*
X005453Y000580D01*
X006178Y000516D02*
X006448Y000516D01*
X006403Y000630D02*
X006223Y000630D01*
X006178Y000675D01*
X006178Y000765D01*
X006223Y000811D01*
X006403Y000811D02*
X006448Y000765D01*
X006448Y000675D01*
X006403Y000630D01*
X006178Y000516D02*
X006448Y000336D01*
X006178Y000336D01*
X007228Y000336D02*
X007498Y000336D01*
X007228Y000516D01*
X007498Y000516D01*
X007453Y000630D02*
X007273Y000630D01*
X007228Y000675D01*
X007228Y000765D01*
X007273Y000811D01*
X007453Y000811D02*
X007498Y000765D01*
X007498Y000675D01*
X007453Y000630D01*
X008178Y000675D02*
X008178Y000765D01*
X008223Y000811D01*
X008178Y000675D02*
X008223Y000630D01*
X008403Y000630D01*
X008448Y000675D01*
X008448Y000765D01*
X008403Y000811D01*
X008448Y000516D02*
X008178Y000516D01*
X008448Y000336D01*
X008178Y000336D01*
X009178Y000336D02*
X009448Y000336D01*
X009178Y000516D01*
X009448Y000516D01*
X009403Y000630D02*
X009223Y000630D01*
X009178Y000675D01*
X009178Y000765D01*
X009223Y000811D01*
X009403Y000811D02*
X009448Y000765D01*
X009448Y000675D01*
X009403Y000630D01*
X010228Y000675D02*
X010228Y000765D01*
X010273Y000811D01*
X010228Y000675D02*
X010273Y000630D01*
X010453Y000630D01*
X010498Y000675D01*
X010498Y000765D01*
X010453Y000811D01*
X010498Y000516D02*
X010228Y000516D01*
X010498Y000336D01*
X010228Y000336D01*
X011178Y000336D02*
X011448Y000336D01*
X011178Y000516D01*
X011448Y000516D01*
X011403Y000630D02*
X011223Y000630D01*
X011178Y000675D01*
X011178Y000765D01*
X011223Y000811D01*
X011403Y000811D02*
X011448Y000765D01*
X011448Y000675D01*
X011403Y000630D01*
X012228Y000675D02*
X012228Y000765D01*
X012273Y000811D01*
X012228Y000675D02*
X012273Y000630D01*
X012453Y000630D01*
X012498Y000675D01*
X012498Y000765D01*
X012453Y000811D01*
X012498Y000516D02*
X012228Y000516D01*
X012498Y000336D01*
X012228Y000336D01*
X013178Y000336D02*
X013223Y000291D01*
X013178Y000336D02*
X013178Y000426D01*
X013223Y000471D01*
X013268Y000471D01*
X013313Y000426D01*
X013313Y000381D01*
X013313Y000426D02*
X013358Y000471D01*
X013403Y000471D01*
X013448Y000426D01*
X013448Y000336D01*
X013403Y000291D01*
X013448Y000586D02*
X013268Y000586D01*
X013178Y000676D01*
X013268Y000766D01*
X013448Y000766D01*
X013403Y000880D02*
X013448Y000925D01*
X013448Y001015D01*
X013403Y001061D01*
X013358Y001061D01*
X013313Y001015D01*
X013268Y001061D01*
X013223Y001061D01*
X013178Y001015D01*
X013178Y000925D01*
X013223Y000880D01*
X013313Y000970D02*
X013313Y001015D01*
X014178Y001065D02*
X014178Y000930D01*
X014448Y000930D01*
X014448Y001065D01*
X014403Y001111D01*
X014223Y001111D01*
X014178Y001065D01*
X014178Y000816D02*
X014448Y000816D01*
X014448Y000636D02*
X014178Y000636D01*
X014223Y000521D02*
X014313Y000521D01*
X014313Y000431D01*
X014403Y000341D02*
X014448Y000386D01*
X014448Y000476D01*
X014403Y000521D01*
X014448Y000636D02*
X014178Y000816D01*
X014223Y000521D02*
X014178Y000476D01*
X014178Y000386D01*
X014223Y000341D01*
X014403Y000341D01*
X007848Y004975D02*
X007848Y005245D01*
X007713Y005245D01*
X007668Y005200D01*
X007668Y005110D01*
X007713Y005065D01*
X007848Y005065D01*
X007758Y005065D02*
X007668Y004975D01*
X007553Y005020D02*
X007553Y005110D01*
X007508Y005155D01*
X007418Y005155D01*
X007373Y005110D01*
X007373Y005065D01*
X007553Y005065D01*
X007553Y005020D02*
X007508Y004975D01*
X007418Y004975D01*
X007258Y005155D02*
X007168Y004975D01*
X007078Y005155D01*
X006964Y005020D02*
X006919Y005020D01*
X006919Y004975D01*
X006964Y004975D01*
X006964Y005020D01*
X006522Y005020D02*
X006477Y004975D01*
X006387Y004975D01*
X006342Y005020D01*
X006342Y005110D01*
X006387Y005155D01*
X006432Y005155D01*
X006522Y005110D01*
X006522Y005245D01*
X006342Y005245D01*
X006227Y005020D02*
X006182Y005020D01*
X006182Y004975D01*
X006227Y004975D01*
X006227Y005020D01*
X006080Y005020D02*
X006035Y004975D01*
X005945Y004975D01*
X005900Y005020D01*
X005900Y005200D01*
X006080Y005020D01*
X006080Y005200D01*
X006035Y005245D01*
X005945Y005245D01*
X005900Y005200D01*
X008517Y005205D02*
X008517Y005160D01*
X008562Y005160D01*
X008562Y005205D01*
X008517Y005205D01*
X008517Y005070D02*
X008517Y005025D01*
X008562Y005025D01*
X008562Y005070D01*
X008517Y005070D01*
X008672Y005205D02*
X008717Y005205D01*
X008807Y005115D01*
X008807Y005025D02*
X008807Y005205D01*
X008922Y005160D02*
X008922Y005115D01*
X009102Y005115D01*
X009102Y005070D02*
X009102Y005160D01*
X009057Y005205D01*
X008967Y005205D01*
X008922Y005160D01*
X008967Y005025D02*
X009057Y005025D01*
X009102Y005070D01*
X009217Y005070D02*
X009217Y005160D01*
X009262Y005205D01*
X009397Y005205D01*
X009397Y005295D02*
X009397Y005025D01*
X009262Y005025D01*
X009217Y005070D01*
X009511Y005025D02*
X009511Y005160D01*
X009556Y005205D01*
X009601Y005160D01*
X009601Y005025D01*
X009691Y005025D02*
X009691Y005205D01*
X009646Y005205D01*
X009601Y005160D01*
X009806Y005205D02*
X009806Y005025D01*
X009941Y005025D01*
X009986Y005070D01*
X009986Y005205D01*
X010101Y005295D02*
X010101Y005025D01*
X010281Y005295D01*
X010281Y005025D01*
X010682Y005025D02*
X010772Y005025D01*
X010727Y005025D02*
X010727Y005295D01*
X010772Y005295D01*
X010886Y005160D02*
X010886Y005025D01*
X011021Y005025D01*
X011066Y005070D01*
X011021Y005115D01*
X010886Y005115D01*
X010886Y005160D02*
X010931Y005205D01*
X011021Y005205D01*
X011218Y005205D02*
X011218Y005025D01*
X011263Y005025D02*
X011173Y005025D01*
X011218Y005205D02*
X011263Y005205D01*
X011218Y005295D02*
X011218Y005340D01*
X011373Y005205D02*
X011418Y005205D01*
X011508Y005115D01*
X011508Y005025D02*
X011508Y005205D01*
X011623Y005160D02*
X011623Y005115D01*
X011803Y005115D01*
X011803Y005070D02*
X011803Y005160D01*
X011758Y005205D01*
X011668Y005205D01*
X011623Y005160D01*
X011668Y005025D02*
X011758Y005025D01*
X011803Y005070D01*
X011918Y005070D02*
X011963Y005025D01*
X012053Y005025D01*
X012098Y005070D01*
X012053Y005160D02*
X011963Y005160D01*
X011918Y005115D01*
X011918Y005070D01*
X012053Y005160D02*
X012098Y005205D01*
X012098Y005250D01*
X012053Y005295D01*
X011963Y005295D01*
X011918Y005250D01*
X013223Y011341D02*
X013178Y011386D01*
X013178Y011476D01*
X013223Y011521D01*
X013313Y011521D01*
X013358Y011476D01*
X013358Y011431D01*
X013313Y011341D01*
X013448Y011341D01*
X013448Y011521D01*
X013448Y011636D02*
X013268Y011636D01*
X013178Y011726D01*
X013268Y011816D01*
X013448Y011816D01*
X013403Y011930D02*
X013223Y011930D01*
X013403Y012111D01*
X013223Y012111D01*
X013178Y012065D01*
X013178Y011975D01*
X013223Y011930D01*
X013403Y011930D02*
X013448Y011975D01*
X013448Y012065D01*
X013403Y012111D01*
X014178Y012065D02*
X014178Y011930D01*
X014448Y011930D01*
X014448Y012065D01*
X014403Y012111D01*
X014223Y012111D01*
X014178Y012065D01*
X014178Y011816D02*
X014448Y011816D01*
X014448Y011636D02*
X014178Y011636D01*
X014223Y011521D02*
X014313Y011521D01*
X014313Y011431D01*
X014403Y011341D02*
X014448Y011386D01*
X014448Y011476D01*
X014403Y011521D01*
X014448Y011636D02*
X014178Y011816D01*
X014223Y011521D02*
X014178Y011476D01*
X014178Y011386D01*
X014223Y011341D01*
X014403Y011341D01*
X012448Y011536D02*
X012178Y011716D01*
X012448Y011716D01*
X012403Y011830D02*
X012223Y011830D01*
X012178Y011875D01*
X012178Y011965D01*
X012223Y012011D01*
X012403Y012011D02*
X012448Y011965D01*
X012448Y011875D01*
X012403Y011830D01*
X012448Y011536D02*
X012178Y011536D01*
X011398Y011586D02*
X011128Y011766D01*
X011398Y011766D01*
X011353Y011880D02*
X011173Y011880D01*
X011128Y011925D01*
X011128Y012015D01*
X011173Y012061D01*
X011353Y012061D02*
X011398Y012015D01*
X011398Y011925D01*
X011353Y011880D01*
X011398Y011586D02*
X011128Y011586D01*
X010398Y011636D02*
X010128Y011816D01*
X010128Y011930D02*
X010128Y012065D01*
X010173Y012111D01*
X010353Y012111D01*
X010398Y012065D01*
X010398Y011930D01*
X010128Y011930D01*
X010398Y011816D02*
X010128Y011636D01*
X010128Y011431D02*
X010398Y011431D01*
X010398Y011341D02*
X010398Y011521D01*
X009448Y011476D02*
X009448Y011341D01*
X009178Y011341D01*
X009268Y011341D02*
X009268Y011476D01*
X009313Y011521D01*
X009403Y011521D01*
X009448Y011476D01*
X009268Y011431D02*
X009178Y011521D01*
X009178Y011636D02*
X009448Y011816D01*
X009448Y011930D02*
X009448Y012065D01*
X009403Y012111D01*
X009223Y012111D01*
X009178Y012065D01*
X009178Y011930D01*
X009448Y011930D01*
X009178Y011816D02*
X009448Y011636D01*
X008448Y011636D02*
X008448Y011816D01*
X008448Y011726D02*
X008178Y011726D01*
X008223Y011521D02*
X008178Y011476D01*
X008178Y011386D01*
X008223Y011341D01*
X008403Y011341D01*
X008448Y011386D01*
X008448Y011476D01*
X008403Y011521D01*
X008403Y011930D02*
X008358Y011930D01*
X008313Y011975D01*
X008313Y012065D01*
X008268Y012111D01*
X008223Y012111D01*
X008178Y012065D01*
X008178Y011975D01*
X008223Y011930D01*
X008403Y011930D02*
X008448Y011975D01*
X008448Y012065D01*
X008403Y012111D01*
X007448Y012065D02*
X007448Y011975D01*
X007403Y011930D01*
X007358Y011930D01*
X007313Y011975D01*
X007313Y012065D01*
X007268Y012111D01*
X007223Y012111D01*
X007178Y012065D01*
X007178Y011975D01*
X007223Y011930D01*
X007403Y012111D02*
X007448Y012065D01*
X007448Y011816D02*
X007448Y011636D01*
X007448Y011726D02*
X007178Y011726D01*
X007178Y011521D02*
X007268Y011431D01*
X007268Y011476D02*
X007268Y011341D01*
X007178Y011341D02*
X007448Y011341D01*
X007448Y011476D01*
X007403Y011521D01*
X007313Y011521D01*
X007268Y011476D01*
X006448Y011476D02*
X006448Y011341D01*
X006178Y011341D01*
X006178Y011476D01*
X006223Y011521D01*
X006403Y011521D01*
X006448Y011476D01*
X006448Y011636D02*
X006448Y011816D01*
X006448Y011726D02*
X006178Y011726D01*
X006178Y011930D02*
X006448Y011930D01*
X006448Y012065D01*
X006403Y012111D01*
X006313Y012111D01*
X006268Y012065D01*
X006268Y011930D01*
X006268Y012020D02*
X006178Y012111D01*
X005448Y012065D02*
X005448Y011930D01*
X005178Y011930D01*
X005268Y011930D02*
X005268Y012065D01*
X005313Y012111D01*
X005403Y012111D01*
X005448Y012065D01*
X005268Y012020D02*
X005178Y012111D01*
X005223Y011816D02*
X005178Y011771D01*
X005178Y011681D01*
X005223Y011636D01*
X005313Y011681D02*
X005313Y011771D01*
X005268Y011816D01*
X005223Y011816D01*
X005313Y011681D02*
X005358Y011636D01*
X005403Y011636D01*
X005448Y011681D01*
X005448Y011771D01*
X005403Y011816D01*
X005403Y011521D02*
X005223Y011521D01*
X005178Y011476D01*
X005178Y011341D01*
X005448Y011341D01*
X005448Y011476D01*
X005403Y011521D01*
X004448Y011476D02*
X004448Y011341D01*
X004178Y011341D01*
X004178Y011476D01*
X004223Y011521D01*
X004403Y011521D01*
X004448Y011476D01*
X004403Y011636D02*
X004223Y011636D01*
X004178Y011681D01*
X004178Y011771D01*
X004223Y011816D01*
X004178Y011930D02*
X004178Y012065D01*
X004223Y012111D01*
X004403Y012111D01*
X004448Y012065D01*
X004448Y011930D01*
X004178Y011930D01*
X004403Y011816D02*
X004448Y011771D01*
X004448Y011681D01*
X004403Y011636D01*
X003448Y011634D02*
X003448Y011769D01*
X003403Y011814D01*
X003313Y011814D01*
X003268Y011769D01*
X003268Y011634D01*
X003268Y011724D02*
X003178Y011814D01*
X003178Y011929D02*
X003178Y012019D01*
X003178Y011974D02*
X003448Y011974D01*
X003448Y011929D02*
X003448Y012019D01*
X003448Y011634D02*
X003178Y011634D01*
D11*
X009023Y004350D03*
D12*
X015343Y004453D02*
X015376Y004420D01*
X015343Y004453D02*
X015343Y004520D01*
X015376Y004553D01*
X015443Y004553D01*
X015476Y004520D01*
X015476Y004487D01*
X015443Y004420D01*
X015543Y004420D01*
X015543Y004553D01*
X015543Y004641D02*
X015409Y004641D01*
X015343Y004708D01*
X015409Y004774D01*
X015543Y004774D01*
X015509Y004862D02*
X015543Y004895D01*
X015543Y004962D01*
X015509Y004995D01*
X015376Y004862D01*
X015343Y004895D01*
X015343Y004962D01*
X015376Y004995D01*
X015509Y004995D01*
X015509Y004862D02*
X015376Y004862D01*
X015543Y005270D02*
X015543Y005403D01*
X015543Y005337D02*
X015343Y005337D01*
X015343Y005491D02*
X015543Y005624D01*
X015543Y005712D02*
X015343Y005712D01*
X015343Y005812D01*
X015376Y005845D01*
X015509Y005845D01*
X015543Y005812D01*
X015543Y005712D01*
X015343Y005624D02*
X015543Y005491D01*
X015476Y005933D02*
X015543Y006000D01*
X015343Y006000D01*
X015343Y006066D02*
X015343Y005933D01*
X015343Y006320D02*
X015543Y006320D01*
X015543Y006420D01*
X015509Y006453D01*
X015443Y006453D01*
X015409Y006420D01*
X015409Y006320D01*
X015409Y006387D02*
X015343Y006453D01*
X015343Y006541D02*
X015543Y006674D01*
X015543Y006762D02*
X015343Y006762D01*
X015343Y006862D01*
X015376Y006895D01*
X015509Y006895D01*
X015543Y006862D01*
X015543Y006762D01*
X015343Y006674D02*
X015543Y006541D01*
X015476Y006983D02*
X015543Y007050D01*
X015343Y007050D01*
X015343Y007116D02*
X015343Y006983D01*
X015343Y007270D02*
X015343Y007370D01*
X015376Y007403D01*
X015509Y007403D01*
X015543Y007370D01*
X015543Y007270D01*
X015343Y007270D01*
X015543Y007491D02*
X015543Y007624D01*
X015543Y007558D02*
X015343Y007558D01*
X015343Y007712D02*
X015543Y007712D01*
X015543Y007812D01*
X015509Y007845D01*
X015443Y007845D01*
X015409Y007812D01*
X015409Y007712D01*
X015409Y007779D02*
X015343Y007845D01*
X015343Y007933D02*
X015343Y008066D01*
X015343Y008000D02*
X015543Y008000D01*
X015476Y007933D01*
X015409Y008320D02*
X015409Y008420D01*
X015443Y008453D01*
X015509Y008453D01*
X015543Y008420D01*
X015543Y008320D01*
X015343Y008320D01*
X015409Y008387D02*
X015343Y008453D01*
X015343Y008608D02*
X015543Y008608D01*
X015543Y008674D02*
X015543Y008541D01*
X015509Y008762D02*
X015476Y008762D01*
X015443Y008795D01*
X015443Y008862D01*
X015409Y008895D01*
X015376Y008895D01*
X015343Y008862D01*
X015343Y008795D01*
X015376Y008762D01*
X015509Y008762D02*
X015543Y008795D01*
X015543Y008862D01*
X015509Y008895D01*
X015476Y008983D02*
X015543Y009050D01*
X015343Y009050D01*
X015343Y009116D02*
X015343Y008983D01*
X015343Y009320D02*
X015343Y009420D01*
X015376Y009453D01*
X015509Y009453D01*
X015543Y009420D01*
X015543Y009320D01*
X015343Y009320D01*
X015376Y009541D02*
X015343Y009574D01*
X015343Y009641D01*
X015376Y009674D01*
X015409Y009674D01*
X015443Y009641D01*
X015443Y009574D01*
X015476Y009541D01*
X015509Y009541D01*
X015543Y009574D01*
X015543Y009641D01*
X015509Y009674D01*
X015543Y009762D02*
X015343Y009762D01*
X015409Y009762D02*
X015409Y009862D01*
X015443Y009895D01*
X015509Y009895D01*
X015543Y009862D01*
X015543Y009762D01*
X015409Y009829D02*
X015343Y009895D01*
X015343Y009983D02*
X015343Y010116D01*
X015343Y010050D02*
X015543Y010050D01*
X015476Y009983D01*
X017726Y004995D02*
X017693Y004962D01*
X017693Y004895D01*
X017726Y004862D01*
X017859Y004862D01*
X017893Y004895D01*
X017893Y004962D01*
X017859Y004995D01*
X017859Y004774D02*
X017893Y004741D01*
X017893Y004674D01*
X017859Y004641D01*
X017726Y004641D01*
X017693Y004674D01*
X017693Y004741D01*
X017726Y004774D01*
X017759Y004553D02*
X017893Y004553D01*
X017893Y004420D02*
X017759Y004420D01*
X017693Y004487D01*
X017759Y004553D01*
X015543Y004050D02*
X015476Y003983D01*
X015509Y003895D02*
X015543Y003862D01*
X015543Y003795D01*
X015509Y003762D01*
X015476Y003762D01*
X015443Y003795D01*
X015443Y003862D01*
X015409Y003895D01*
X015376Y003895D01*
X015343Y003862D01*
X015343Y003795D01*
X015376Y003762D01*
X015543Y003674D02*
X015543Y003541D01*
X015543Y003608D02*
X015343Y003608D01*
X015376Y003453D02*
X015343Y003420D01*
X015343Y003353D01*
X015376Y003320D01*
X015509Y003320D01*
X015543Y003353D01*
X015543Y003420D01*
X015509Y003453D01*
X015509Y002995D02*
X015376Y002995D01*
X015343Y002962D01*
X015343Y002862D01*
X015543Y002862D01*
X015543Y002962D01*
X015509Y002995D01*
X015543Y002774D02*
X015343Y002774D01*
X015543Y002641D01*
X015343Y002641D01*
X015376Y002553D02*
X015443Y002553D01*
X015443Y002487D01*
X015509Y002553D02*
X015543Y002520D01*
X015543Y002453D01*
X015509Y002420D01*
X015376Y002420D01*
X015343Y002453D01*
X015343Y002520D01*
X015376Y002553D01*
X015343Y003983D02*
X015343Y004116D01*
X015343Y004050D02*
X015543Y004050D01*
D13*
X012183Y007940D02*
X012183Y008420D01*
X011942Y008420D01*
X011862Y008340D01*
X011862Y008180D01*
X011942Y008100D01*
X012183Y008100D01*
X011667Y008020D02*
X011587Y007940D01*
X011347Y007940D01*
X011347Y008180D01*
X011427Y008260D01*
X011587Y008260D01*
X011587Y008100D02*
X011347Y008100D01*
X011071Y008020D02*
X010991Y007940D01*
X011071Y008020D02*
X011071Y008340D01*
X011151Y008260D02*
X010991Y008260D01*
X010808Y008260D02*
X010648Y008260D01*
X010728Y008340D02*
X010728Y008020D01*
X010648Y007940D01*
X010464Y008020D02*
X010464Y008180D01*
X010384Y008260D01*
X010224Y008260D01*
X010144Y008180D01*
X010144Y008100D01*
X010464Y008100D01*
X010464Y008020D02*
X010384Y007940D01*
X010224Y007940D01*
X009948Y007940D02*
X009948Y008260D01*
X009948Y008100D02*
X009788Y008260D01*
X009708Y008260D01*
X009519Y008260D02*
X009278Y008260D01*
X009198Y008180D01*
X009198Y007940D01*
X009003Y007940D02*
X009003Y008260D01*
X008843Y008420D01*
X008683Y008260D01*
X008683Y007940D01*
X008487Y008020D02*
X008407Y007940D01*
X008167Y007940D01*
X008167Y007860D02*
X008167Y008260D01*
X008407Y008260D01*
X008487Y008180D01*
X008487Y008020D01*
X008683Y008180D02*
X009003Y008180D01*
X009519Y008260D02*
X009519Y007940D01*
X008327Y007780D02*
X008247Y007780D01*
X008167Y007860D01*
X007972Y008020D02*
X007972Y008180D01*
X007892Y008260D01*
X007731Y008260D01*
X007651Y008180D01*
X007651Y008100D01*
X007972Y008100D01*
X007972Y008020D02*
X007892Y007940D01*
X007731Y007940D01*
X007456Y007940D02*
X007456Y008260D01*
X007216Y008260D01*
X007136Y008180D01*
X007136Y007940D01*
X006860Y008020D02*
X006780Y007940D01*
X006860Y008020D02*
X006860Y008340D01*
X006940Y008260D02*
X006780Y008260D01*
X006597Y008180D02*
X006517Y008260D01*
X006276Y008260D01*
X006356Y008100D02*
X006276Y008020D01*
X006356Y007940D01*
X006597Y007940D01*
X006517Y008100D02*
X006597Y008180D01*
X006517Y008100D02*
X006356Y008100D01*
X011587Y008100D02*
X011667Y008020D01*
D14*
X017223Y000200D02*
X001123Y000200D01*
X001073Y000202D01*
X001023Y000207D01*
X000974Y000216D01*
X000926Y000228D01*
X000878Y000244D01*
X000832Y000263D01*
X000788Y000286D01*
X000745Y000311D01*
X000704Y000340D01*
X000665Y000371D01*
X000628Y000405D01*
X000594Y000442D01*
X000563Y000481D01*
X000534Y000522D01*
X000509Y000565D01*
X000486Y000609D01*
X000467Y000655D01*
X000451Y000703D01*
X000439Y000751D01*
X000430Y000800D01*
X000425Y000850D01*
X000423Y000900D01*
X000423Y011500D01*
X000425Y011550D01*
X000430Y011600D01*
X000439Y011649D01*
X000451Y011697D01*
X000467Y011745D01*
X000486Y011791D01*
X000509Y011835D01*
X000534Y011878D01*
X000563Y011919D01*
X000594Y011958D01*
X000628Y011995D01*
X000665Y012029D01*
X000704Y012060D01*
X000745Y012089D01*
X000788Y012114D01*
X000832Y012137D01*
X000878Y012156D01*
X000926Y012172D01*
X000974Y012184D01*
X001023Y012193D01*
X001073Y012198D01*
X001123Y012200D01*
X017923Y012200D01*
X017923Y000900D01*
X017921Y000850D01*
X017916Y000800D01*
X017907Y000751D01*
X017895Y000703D01*
X017879Y000655D01*
X017860Y000609D01*
X017837Y000565D01*
X017812Y000522D01*
X017783Y000481D01*
X017752Y000442D01*
X017718Y000405D01*
X017681Y000371D01*
X017642Y000340D01*
X017601Y000311D01*
X017558Y000286D01*
X017514Y000263D01*
X017468Y000244D01*
X017420Y000228D01*
X017372Y000216D01*
X017323Y000207D01*
X017273Y000202D01*
X017223Y000200D01*
X017423Y002200D02*
X015923Y002200D01*
X015673Y002450D01*
X015673Y002950D01*
X015923Y003200D01*
X017423Y003200D01*
X017673Y003450D01*
X017673Y003950D01*
X017423Y004200D01*
X015923Y004200D01*
X015673Y003950D01*
X015673Y003450D01*
X015923Y003200D01*
X015923Y004200D02*
X015673Y004450D01*
X015673Y004950D01*
X015923Y005200D01*
X017423Y005200D01*
X017673Y004950D01*
X017673Y004450D01*
X017423Y004200D01*
X017423Y003200D02*
X017673Y002950D01*
X017673Y002450D01*
X017423Y002200D01*
X017423Y005200D02*
X017673Y005450D01*
X017673Y005950D01*
X017423Y006200D01*
X015923Y006200D01*
X015673Y005950D01*
X015673Y005450D01*
X015923Y005200D01*
X015923Y006200D02*
X015673Y006450D01*
X015673Y006950D01*
X015923Y007200D01*
X017423Y007200D01*
X017673Y006950D01*
X017673Y006450D01*
X017423Y006200D01*
X017423Y007200D02*
X017673Y007450D01*
X017673Y007950D01*
X017423Y008200D01*
X015923Y008200D01*
X015673Y007950D01*
X015673Y007450D01*
X015923Y007200D01*
X015923Y008200D02*
X015673Y008450D01*
X015673Y008950D01*
X015923Y009200D01*
X017423Y009200D01*
X017673Y008950D01*
X017673Y008450D01*
X017423Y008200D01*
X017423Y009200D02*
X017673Y009450D01*
X017673Y009950D01*
X017423Y010200D01*
X015923Y010200D01*
X015673Y009950D01*
X015673Y009450D01*
X015923Y009200D01*
X011993Y006120D02*
X011766Y006120D01*
X011879Y006120D02*
X011879Y005780D01*
X011624Y005837D02*
X011568Y005780D01*
X011454Y005780D01*
X011398Y005837D01*
X011398Y005893D01*
X011454Y005950D01*
X011568Y005950D01*
X011624Y006007D01*
X011624Y006064D01*
X011568Y006120D01*
X011454Y006120D01*
X011398Y006064D01*
X011256Y006064D02*
X011256Y005837D01*
X011199Y005780D01*
X011086Y005780D01*
X011029Y005837D01*
X011029Y006064D01*
X011086Y006120D01*
X011199Y006120D01*
X011256Y006064D01*
X010888Y006064D02*
X010888Y005837D01*
X010831Y005780D01*
X010718Y005780D01*
X010661Y005837D01*
X010519Y005723D02*
X010293Y005723D01*
X010151Y005837D02*
X010094Y005780D01*
X009981Y005780D01*
X009924Y005837D01*
X009924Y006120D01*
X009783Y006064D02*
X009783Y006007D01*
X009726Y005950D01*
X009613Y005950D01*
X009556Y005893D01*
X009556Y005837D01*
X009613Y005780D01*
X009726Y005780D01*
X009783Y005837D01*
X009783Y006064D02*
X009726Y006120D01*
X009613Y006120D01*
X009556Y006064D01*
X009414Y006120D02*
X009244Y006120D01*
X009188Y006064D01*
X009188Y006007D01*
X009244Y005950D01*
X009414Y005950D01*
X009244Y005950D02*
X009188Y005893D01*
X009188Y005837D01*
X009244Y005780D01*
X009414Y005780D01*
X009414Y006120D01*
X009046Y006120D02*
X009046Y005837D01*
X008989Y005780D01*
X008876Y005780D01*
X008819Y005837D01*
X008819Y006120D01*
X008678Y006007D02*
X008564Y006120D01*
X008451Y006007D01*
X008451Y005780D01*
X008310Y005780D02*
X008310Y006120D01*
X008139Y006120D01*
X008083Y006064D01*
X008083Y005950D01*
X008139Y005893D01*
X008310Y005893D01*
X008196Y005893D02*
X008083Y005780D01*
X007828Y005780D02*
X007828Y006120D01*
X007941Y006120D02*
X007714Y006120D01*
X007573Y006064D02*
X007516Y006120D01*
X007403Y006120D01*
X007346Y006064D01*
X007346Y006007D01*
X007573Y005780D01*
X007346Y005780D01*
X008451Y005950D02*
X008678Y005950D01*
X008678Y006007D02*
X008678Y005780D01*
X010151Y005837D02*
X010151Y006120D01*
X010661Y006064D02*
X010718Y006120D01*
X010831Y006120D01*
X010888Y006064D01*
D15*
X012823Y004920D03*
X013073Y005170D03*
X013323Y005420D03*
X013663Y006280D03*
X013073Y006430D03*
X013413Y007290D03*
X013353Y007620D03*
X013903Y007780D03*
X013353Y008380D03*
D16*
X013353Y008370D03*
X013903Y007770D03*
X013353Y007630D03*
X013413Y007280D03*
X013073Y006420D03*
X013663Y006290D03*
X013323Y005430D03*
X013073Y005180D03*
X012823Y004930D03*
X009953Y006800D03*
X010713Y007210D03*
X011843Y007510D03*
D17*
X012303Y007310D03*
X012303Y007300D03*
X011603Y007210D03*
X010473Y007210D03*
X009963Y006780D03*
X009973Y006760D03*
X007413Y006800D03*
X007413Y006810D03*
X007413Y006820D03*
X007413Y006830D03*
X007413Y006840D03*
X007413Y007200D03*
X007413Y007210D03*
X007413Y007220D03*
X007413Y007230D03*
X012823Y004940D03*
X013073Y005190D03*
X013323Y005440D03*
X013703Y005650D03*
X013703Y005950D03*
X013663Y006300D03*
X013073Y006410D03*
X013023Y006750D03*
X013413Y007270D03*
X013353Y007640D03*
X013903Y007760D03*
X013743Y008150D03*
X013353Y008360D03*
D18*
X013353Y008350D03*
X013903Y007750D03*
X013353Y007650D03*
X013413Y007260D03*
X013413Y006560D03*
X013663Y006310D03*
X013323Y006150D03*
X013073Y006400D03*
X012263Y006590D03*
X012313Y007260D03*
X012313Y007270D03*
X011113Y007190D03*
X009973Y006740D03*
X009393Y006740D03*
X009393Y006730D03*
X009393Y006720D03*
X009393Y006710D03*
X009393Y006750D03*
X009393Y006760D03*
X009393Y006770D03*
X009393Y006780D03*
X008963Y007270D03*
X008963Y007280D03*
X008963Y007290D03*
X008963Y007300D03*
X008963Y007310D03*
X008963Y007320D03*
X007423Y007320D03*
X007423Y007330D03*
X007423Y007310D03*
X007423Y007300D03*
X007423Y006740D03*
X007423Y006730D03*
X007423Y006720D03*
X007423Y006710D03*
X007423Y006700D03*
X012823Y004950D03*
X013073Y005200D03*
X013323Y005450D03*
D19*
X013323Y005460D03*
X013073Y005210D03*
X012823Y004960D03*
X013703Y005660D03*
X013703Y005940D03*
X013323Y006140D03*
X013073Y006390D03*
X013413Y006570D03*
X013663Y006320D03*
X012323Y007220D03*
X012323Y007230D03*
X011873Y007490D03*
X010743Y007190D03*
X010033Y006600D03*
X010023Y006610D03*
X009683Y006430D03*
X008973Y007340D03*
X008453Y007210D03*
X008463Y006590D03*
X007433Y006680D03*
X013903Y007740D03*
D20*
X013903Y007730D03*
X012333Y007100D03*
X012333Y007090D03*
X012333Y007080D03*
X012333Y007070D03*
X012333Y007060D03*
X012333Y007050D03*
X012333Y007040D03*
X012333Y007030D03*
X012333Y007020D03*
X012333Y007010D03*
X012333Y007000D03*
X012333Y006990D03*
X012333Y006980D03*
X012333Y006970D03*
X012333Y006960D03*
X012333Y006950D03*
X012333Y006940D03*
X012333Y006930D03*
X012333Y006920D03*
X012333Y006910D03*
X012333Y006900D03*
X012333Y006890D03*
X012333Y006880D03*
X012333Y006870D03*
X012333Y006860D03*
X012333Y006850D03*
X012333Y006840D03*
X012333Y006830D03*
X012333Y006820D03*
X012333Y006810D03*
X012333Y006800D03*
X012333Y006790D03*
X012333Y006780D03*
X012333Y006770D03*
X012333Y006760D03*
X012333Y006750D03*
X012333Y006740D03*
X011883Y006740D03*
X011883Y006730D03*
X011883Y006720D03*
X011883Y006710D03*
X011883Y006700D03*
X011883Y006690D03*
X011883Y006680D03*
X011883Y006670D03*
X011883Y006750D03*
X011883Y006760D03*
X011883Y006770D03*
X011883Y006780D03*
X011883Y006790D03*
X011883Y006800D03*
X011883Y006810D03*
X011883Y006820D03*
X011883Y006830D03*
X011883Y006840D03*
X011883Y006850D03*
X011883Y006860D03*
X011883Y006870D03*
X011883Y006880D03*
X011883Y006890D03*
X011883Y006900D03*
X011883Y006910D03*
X011883Y006920D03*
X011883Y006930D03*
X011883Y006940D03*
X011883Y006950D03*
X011883Y006960D03*
X011883Y006970D03*
X011883Y006980D03*
X011883Y006990D03*
X011883Y007000D03*
X011883Y007010D03*
X011883Y007020D03*
X011883Y007030D03*
X011883Y007040D03*
X011883Y007050D03*
X011883Y007060D03*
X011883Y007070D03*
X011883Y007080D03*
X011883Y007150D03*
X011883Y007160D03*
X011883Y007170D03*
X011883Y007180D03*
X011883Y007190D03*
X011883Y007200D03*
X011883Y007210D03*
X011883Y007220D03*
X011883Y007230D03*
X011883Y007240D03*
X011883Y007250D03*
X011883Y007260D03*
X011883Y007270D03*
X011883Y007280D03*
X011883Y007290D03*
X011883Y007300D03*
X011883Y007310D03*
X011883Y007320D03*
X011883Y007330D03*
X011883Y007340D03*
X011883Y007350D03*
X011883Y007360D03*
X011883Y007370D03*
X011883Y007380D03*
X011883Y007390D03*
X011883Y007400D03*
X011603Y007200D03*
X011513Y007020D03*
X011513Y007010D03*
X011513Y007000D03*
X011513Y006990D03*
X011513Y006980D03*
X011513Y006970D03*
X011513Y006960D03*
X011513Y006950D03*
X011513Y006940D03*
X011513Y006930D03*
X011513Y006920D03*
X011513Y006910D03*
X011513Y006900D03*
X011513Y006890D03*
X011513Y006880D03*
X011513Y006870D03*
X011513Y006860D03*
X011513Y006850D03*
X011513Y006840D03*
X011513Y006830D03*
X011513Y006820D03*
X011513Y006810D03*
X011513Y006800D03*
X011513Y006790D03*
X011513Y006780D03*
X011513Y006770D03*
X011513Y006760D03*
X011513Y006750D03*
X011513Y006740D03*
X011513Y006730D03*
X011513Y006720D03*
X011513Y006710D03*
X011513Y006700D03*
X011513Y006690D03*
X011513Y006680D03*
X011513Y006670D03*
X011133Y006670D03*
X011133Y006680D03*
X011133Y006690D03*
X011133Y006700D03*
X011133Y006710D03*
X011133Y006720D03*
X011133Y006730D03*
X011133Y006740D03*
X011133Y006750D03*
X011133Y006760D03*
X011133Y006770D03*
X011133Y006780D03*
X011133Y006790D03*
X011133Y006800D03*
X011133Y006810D03*
X011133Y006820D03*
X011133Y006830D03*
X011133Y006840D03*
X011133Y006850D03*
X011133Y006860D03*
X011133Y006870D03*
X011133Y006880D03*
X011133Y006890D03*
X011133Y006900D03*
X011133Y006910D03*
X011133Y006920D03*
X011133Y006930D03*
X011133Y006940D03*
X011133Y006950D03*
X011133Y006960D03*
X011133Y006970D03*
X011133Y006980D03*
X011133Y006990D03*
X011133Y007000D03*
X011133Y007010D03*
X011133Y007020D03*
X011133Y007030D03*
X011133Y007040D03*
X011133Y007050D03*
X011133Y007060D03*
X011133Y007070D03*
X011133Y007080D03*
X011133Y007090D03*
X011133Y007100D03*
X010753Y007080D03*
X010753Y007070D03*
X010753Y007060D03*
X010753Y007050D03*
X010753Y007040D03*
X010753Y007030D03*
X010753Y007020D03*
X010753Y007010D03*
X010753Y007000D03*
X010753Y006990D03*
X010753Y006980D03*
X010753Y006970D03*
X010753Y006960D03*
X010753Y006950D03*
X010753Y006940D03*
X010753Y006930D03*
X010753Y006920D03*
X010753Y006910D03*
X010753Y006900D03*
X010753Y006890D03*
X010753Y006880D03*
X010753Y006870D03*
X010753Y006860D03*
X010753Y006850D03*
X010753Y006840D03*
X010753Y006830D03*
X010753Y006820D03*
X010753Y006810D03*
X010753Y006800D03*
X010753Y006790D03*
X010753Y006780D03*
X010753Y006770D03*
X010753Y006760D03*
X010753Y006750D03*
X010753Y006740D03*
X010753Y006730D03*
X010753Y006720D03*
X010753Y006710D03*
X010753Y006700D03*
X010753Y006690D03*
X010753Y006680D03*
X010753Y006670D03*
X010383Y006670D03*
X010383Y006680D03*
X010383Y006690D03*
X010383Y006700D03*
X010383Y006710D03*
X010383Y006720D03*
X010383Y006730D03*
X010383Y006740D03*
X010383Y006750D03*
X010383Y006760D03*
X010383Y006770D03*
X010383Y006780D03*
X010383Y006790D03*
X010383Y006800D03*
X010383Y006810D03*
X010383Y006820D03*
X010383Y006830D03*
X010383Y006840D03*
X010383Y006850D03*
X010383Y006860D03*
X010383Y006870D03*
X010383Y006880D03*
X010383Y006890D03*
X010383Y006900D03*
X010383Y006910D03*
X010383Y006920D03*
X010383Y006930D03*
X010383Y006940D03*
X010383Y006950D03*
X010383Y006960D03*
X010383Y006970D03*
X010383Y006980D03*
X010383Y006990D03*
X010383Y007000D03*
X010383Y007010D03*
X010383Y007020D03*
X010473Y007200D03*
X010043Y007060D03*
X010043Y007050D03*
X010033Y007080D03*
X010033Y007090D03*
X010023Y007110D03*
X010013Y007120D03*
X009723Y007100D03*
X009713Y007080D03*
X009713Y007070D03*
X009703Y007050D03*
X009703Y007040D03*
X009703Y007030D03*
X009703Y007020D03*
X009703Y007010D03*
X009703Y007000D03*
X009703Y006990D03*
X009703Y006980D03*
X009703Y006970D03*
X009713Y006960D03*
X009713Y006950D03*
X009713Y006940D03*
X009723Y006920D03*
X009733Y006900D03*
X009743Y006890D03*
X009753Y006880D03*
X009963Y006720D03*
X010063Y006560D03*
X010063Y006550D03*
X010073Y006530D03*
X010073Y006520D03*
X010073Y006510D03*
X010073Y006500D03*
X010073Y006490D03*
X009643Y006510D03*
X009643Y006520D03*
X009643Y006530D03*
X009213Y006590D03*
X008993Y006730D03*
X008633Y007090D03*
X009323Y007310D03*
X009333Y007300D03*
X009333Y007290D03*
X009343Y007270D03*
X009343Y007260D03*
X009343Y007250D03*
X007613Y007440D03*
X007613Y006590D03*
X012823Y004970D03*
X013413Y006580D03*
D21*
X013413Y006590D03*
X013023Y006770D03*
X012323Y006710D03*
X012323Y006700D03*
X011883Y006660D03*
X011513Y006660D03*
X011133Y006660D03*
X010753Y006660D03*
X010383Y006660D03*
X010053Y006440D03*
X009653Y006560D03*
X010003Y006880D03*
X010043Y006960D03*
X009983Y007150D03*
X010393Y007070D03*
X010393Y007060D03*
X010403Y007080D03*
X010743Y007090D03*
X011143Y007170D03*
X011523Y007060D03*
X011533Y007080D03*
X011873Y007090D03*
X013113Y007440D03*
X013653Y007470D03*
X013903Y007720D03*
X013743Y008130D03*
X013703Y005930D03*
X013703Y005670D03*
X012823Y004980D03*
X009343Y007190D03*
X009343Y007200D03*
X009283Y007350D03*
X008993Y007360D03*
X008663Y007030D03*
X008673Y007000D03*
X008673Y006990D03*
X008673Y006980D03*
X008683Y006960D03*
X008683Y006950D03*
X008683Y006940D03*
X008683Y006930D03*
X008683Y006920D03*
X008683Y006910D03*
X008683Y006900D03*
X008683Y006890D03*
X008683Y006880D03*
X008683Y006870D03*
X008683Y006860D03*
X008683Y006850D03*
X008683Y006840D03*
X008673Y006820D03*
X008673Y006810D03*
X008673Y006800D03*
X008663Y006770D03*
X008653Y006740D03*
X008603Y006670D03*
X008253Y006770D03*
X008243Y006800D03*
X008243Y006810D03*
X008243Y006820D03*
X008233Y006840D03*
X008233Y006850D03*
X008233Y006860D03*
X008233Y006870D03*
X008233Y006880D03*
X008233Y006890D03*
X008233Y006900D03*
X008233Y006910D03*
X008233Y006920D03*
X008233Y006930D03*
X008233Y006940D03*
X008233Y006950D03*
X008233Y006960D03*
X008243Y006980D03*
X008243Y006990D03*
X008243Y007000D03*
X008253Y007030D03*
X007953Y007090D03*
X007943Y007140D03*
X007933Y007170D03*
X007923Y007200D03*
X007913Y007220D03*
X007903Y007240D03*
X007953Y006940D03*
X007943Y006890D03*
X007933Y006860D03*
X007923Y006830D03*
X007913Y006810D03*
X008973Y006810D03*
X008973Y006800D03*
X008973Y006790D03*
X009013Y006700D03*
X009023Y006690D03*
D22*
X008983Y006850D03*
X009323Y007150D03*
X009333Y007160D03*
X009333Y007170D03*
X009663Y006570D03*
X010413Y007090D03*
X010773Y007170D03*
X011543Y007090D03*
X011903Y007470D03*
X012253Y006600D03*
X013113Y007450D03*
X013403Y007210D03*
X013653Y007460D03*
X013903Y007710D03*
X013113Y008550D03*
X012823Y004990D03*
X007873Y006750D03*
X007853Y006730D03*
X007843Y006720D03*
X007833Y006710D03*
X007833Y007320D03*
X007823Y007330D03*
D23*
X007793Y007350D03*
X008453Y007200D03*
X008993Y006870D03*
X009003Y006880D03*
X009063Y006670D03*
X009673Y006580D03*
X009883Y006820D03*
X009873Y007200D03*
X010423Y007100D03*
X010723Y007100D03*
X010783Y007160D03*
X011553Y007100D03*
X012303Y006680D03*
X013023Y006780D03*
X013403Y006620D03*
X013473Y006800D03*
X013473Y006810D03*
X013473Y006820D03*
X013483Y006840D03*
X013483Y006850D03*
X013483Y006860D03*
X013483Y006870D03*
X013493Y006890D03*
X013493Y006920D03*
X013493Y006930D03*
X013483Y006940D03*
X013483Y006950D03*
X013483Y006960D03*
X013483Y006970D03*
X013473Y006990D03*
X013473Y007000D03*
X013473Y007010D03*
X013473Y007020D03*
X013403Y007200D03*
X013653Y007450D03*
X013903Y007700D03*
X013743Y007880D03*
X013743Y008120D03*
X013363Y008290D03*
X013293Y008110D03*
X013293Y008100D03*
X013293Y008090D03*
X013293Y008080D03*
X013293Y008070D03*
X013283Y008050D03*
X013283Y008040D03*
X013283Y008030D03*
X013283Y008020D03*
X013283Y008010D03*
X013283Y008000D03*
X013283Y007990D03*
X013283Y007980D03*
X013283Y007970D03*
X013283Y007960D03*
X013283Y007950D03*
X013293Y007930D03*
X013293Y007920D03*
X013293Y007910D03*
X013293Y007900D03*
X013293Y007890D03*
X013363Y007710D03*
X013113Y007460D03*
X012963Y007790D03*
X012953Y007810D03*
X012953Y007820D03*
X012953Y007830D03*
X012953Y007840D03*
X012943Y007860D03*
X012943Y007870D03*
X012943Y007880D03*
X012943Y007890D03*
X012943Y007900D03*
X012933Y007920D03*
X012933Y007930D03*
X012933Y007940D03*
X012933Y007950D03*
X012933Y007960D03*
X012933Y007970D03*
X012933Y007980D03*
X012933Y007990D03*
X012933Y008000D03*
X012933Y008010D03*
X012933Y008020D03*
X012933Y008030D03*
X012933Y008040D03*
X012933Y008050D03*
X012933Y008060D03*
X012933Y008070D03*
X012933Y008080D03*
X012943Y008100D03*
X012943Y008110D03*
X012943Y008120D03*
X012943Y008130D03*
X012943Y008140D03*
X012953Y008170D03*
X012953Y008180D03*
X012953Y008190D03*
X012963Y008210D03*
X012603Y008190D03*
X012603Y008180D03*
X012603Y008170D03*
X012603Y008160D03*
X012603Y008150D03*
X012603Y008140D03*
X012603Y008130D03*
X012593Y008100D03*
X012593Y008090D03*
X012593Y008080D03*
X012593Y008070D03*
X012593Y008060D03*
X012593Y008050D03*
X012593Y008040D03*
X012593Y008030D03*
X012593Y008020D03*
X012593Y008010D03*
X012593Y008000D03*
X012593Y007990D03*
X012593Y007980D03*
X012593Y007970D03*
X012593Y007960D03*
X012593Y007950D03*
X012593Y007940D03*
X012593Y007930D03*
X012593Y007920D03*
X012593Y007910D03*
X012593Y007900D03*
X012593Y007890D03*
X012603Y007830D03*
X012603Y007820D03*
X012603Y007810D03*
X012603Y007800D03*
X013113Y008540D03*
X014153Y007170D03*
X014163Y007120D03*
X014163Y007110D03*
X014173Y007090D03*
X014173Y007080D03*
X014173Y007070D03*
X014173Y007060D03*
X014173Y007050D03*
X014173Y007040D03*
X014183Y007010D03*
X014183Y007000D03*
X014183Y006990D03*
X014183Y006980D03*
X014183Y006970D03*
X014183Y006960D03*
X014183Y006950D03*
X014183Y006940D03*
X014183Y006930D03*
X014183Y006920D03*
X014183Y006910D03*
X014183Y006900D03*
X014183Y006890D03*
X014183Y006880D03*
X014183Y006870D03*
X014183Y006860D03*
X014183Y006850D03*
X014183Y006840D03*
X014183Y006830D03*
X014183Y006820D03*
X014183Y006810D03*
X014183Y006800D03*
X014173Y006740D03*
X014173Y006730D03*
X014173Y006720D03*
X014163Y006700D03*
X014163Y006690D03*
X014153Y006640D03*
X013813Y006710D03*
X013813Y006720D03*
X013823Y006760D03*
X013823Y006770D03*
X013833Y006820D03*
X013833Y006830D03*
X013833Y006840D03*
X013833Y006850D03*
X013833Y006860D03*
X013833Y006870D03*
X013833Y006880D03*
X013833Y006890D03*
X013833Y006900D03*
X013833Y006910D03*
X013833Y006920D03*
X013833Y006930D03*
X013833Y006940D03*
X013833Y006950D03*
X013833Y006960D03*
X013833Y006970D03*
X013833Y006980D03*
X013833Y006990D03*
X013823Y007040D03*
X013823Y007050D03*
X013813Y007090D03*
X013813Y007100D03*
X012923Y006000D03*
X012913Y005960D03*
X012913Y005950D03*
X012913Y005940D03*
X012903Y005900D03*
X012903Y005890D03*
X012903Y005880D03*
X012903Y005720D03*
X012903Y005710D03*
X012913Y005680D03*
X012913Y005670D03*
X012913Y005660D03*
X012913Y005650D03*
X012913Y005640D03*
X012923Y005610D03*
X012923Y005600D03*
X013263Y005680D03*
X013263Y005690D03*
X013253Y005720D03*
X013253Y005730D03*
X013253Y005740D03*
X013243Y005760D03*
X013243Y005770D03*
X013243Y005780D03*
X013243Y005790D03*
X013243Y005800D03*
X013243Y005810D03*
X013243Y005820D03*
X013243Y005830D03*
X013243Y005840D03*
X013253Y005870D03*
X013253Y005880D03*
X013263Y005910D03*
X013263Y005920D03*
X013703Y005920D03*
X013703Y005680D03*
X012823Y005000D03*
X012563Y005600D03*
X012563Y005990D03*
X012563Y006000D03*
X009313Y007140D03*
X008463Y006600D03*
X007803Y006690D03*
D24*
X009013Y006900D03*
X009693Y006590D03*
X010483Y007180D03*
X010793Y007150D03*
X011173Y007150D03*
X011173Y007140D03*
X011173Y007130D03*
X011173Y007120D03*
X011173Y007110D03*
X011613Y007180D03*
X012653Y007610D03*
X012653Y007620D03*
X012653Y007630D03*
X012643Y007640D03*
X012643Y007650D03*
X012643Y007660D03*
X012633Y007690D03*
X012613Y007760D03*
X012613Y007770D03*
X012663Y007600D03*
X012663Y007590D03*
X012673Y007580D03*
X012673Y007570D03*
X012673Y007560D03*
X012683Y007550D03*
X012683Y007540D03*
X012693Y007520D03*
X013003Y007670D03*
X013003Y007680D03*
X013013Y007660D03*
X013013Y007650D03*
X013023Y007640D03*
X013033Y007620D03*
X012993Y007700D03*
X012983Y007720D03*
X013113Y007470D03*
X013403Y007180D03*
X013433Y007110D03*
X013443Y007100D03*
X013443Y007090D03*
X013453Y007070D03*
X013773Y007200D03*
X013773Y007210D03*
X013773Y007220D03*
X013763Y007230D03*
X013753Y007250D03*
X013733Y007290D03*
X013783Y007190D03*
X013783Y007180D03*
X013793Y007160D03*
X013803Y007130D03*
X014113Y007300D03*
X014113Y007310D03*
X014103Y007320D03*
X014103Y007330D03*
X014093Y007350D03*
X014093Y007360D03*
X014083Y007370D03*
X014083Y007380D03*
X014073Y007390D03*
X014043Y007450D03*
X014123Y007270D03*
X014143Y007210D03*
X013653Y007440D03*
X013903Y007690D03*
X013743Y007890D03*
X013743Y008110D03*
X013343Y008220D03*
X013333Y008200D03*
X013323Y008180D03*
X013313Y008160D03*
X012993Y008290D03*
X012993Y008300D03*
X013003Y008320D03*
X013003Y008330D03*
X013013Y008340D03*
X013013Y008350D03*
X013023Y008360D03*
X013033Y008380D03*
X013113Y008530D03*
X012683Y008450D03*
X012673Y008430D03*
X012663Y008400D03*
X012663Y008390D03*
X012653Y008370D03*
X012653Y008360D03*
X012643Y008350D03*
X012643Y008340D03*
X012643Y008330D03*
X012633Y008320D03*
X012633Y008310D03*
X012633Y008300D03*
X012623Y008270D03*
X012613Y008240D03*
X012613Y008230D03*
X012613Y008220D03*
X013313Y007840D03*
X013323Y007820D03*
X013333Y007800D03*
X013023Y006790D03*
X013403Y006630D03*
X013443Y006720D03*
X013453Y006740D03*
X013753Y006560D03*
X013763Y006580D03*
X013773Y006600D03*
X013773Y006610D03*
X013783Y006620D03*
X013783Y006630D03*
X013793Y006650D03*
X013743Y006530D03*
X013653Y006380D03*
X013903Y006130D03*
X014043Y006360D03*
X014073Y006420D03*
X014083Y006430D03*
X014083Y006440D03*
X014093Y006450D03*
X014093Y006460D03*
X014103Y006480D03*
X014103Y006490D03*
X014113Y006500D03*
X014113Y006510D03*
X014123Y006530D03*
X014123Y006540D03*
X013703Y005910D03*
X013703Y005690D03*
X013333Y005520D03*
X013313Y005570D03*
X013293Y005610D03*
X013283Y005630D03*
X013283Y005970D03*
X013293Y005990D03*
X013303Y006010D03*
X013313Y006030D03*
X013333Y006080D03*
X013003Y006190D03*
X012993Y006180D03*
X012993Y006170D03*
X012983Y006160D03*
X012983Y006150D03*
X012973Y006140D03*
X012973Y006130D03*
X012963Y006120D03*
X012963Y006110D03*
X012953Y006090D03*
X012943Y006060D03*
X013083Y006330D03*
X012653Y006280D03*
X012643Y006260D03*
X012633Y006250D03*
X012633Y006240D03*
X012633Y006230D03*
X012623Y006210D03*
X012613Y006190D03*
X012603Y006160D03*
X012603Y006150D03*
X012593Y006120D03*
X012583Y006100D03*
X012583Y006090D03*
X012553Y005670D03*
X012553Y005660D03*
X012553Y005650D03*
X012553Y005640D03*
X012573Y005550D03*
X012573Y005540D03*
X012583Y005510D03*
X012583Y005500D03*
X012593Y005490D03*
X012593Y005480D03*
X012593Y005470D03*
X012603Y005450D03*
X012603Y005440D03*
X012603Y005430D03*
X012613Y005410D03*
X012633Y005360D03*
X012963Y005480D03*
X012963Y005490D03*
X012973Y005470D03*
X012973Y005460D03*
X012983Y005450D03*
X012993Y005430D03*
X013003Y005410D03*
X012953Y005510D03*
X012953Y005520D03*
X013083Y005270D03*
X012823Y005010D03*
D25*
X012828Y005020D03*
X012688Y005250D03*
X012658Y005300D03*
X012658Y005310D03*
X012648Y005320D03*
X012648Y005330D03*
X012638Y005340D03*
X012638Y005350D03*
X012628Y005370D03*
X012628Y005380D03*
X012618Y005390D03*
X012618Y005400D03*
X012608Y005420D03*
X012988Y005440D03*
X012998Y005420D03*
X013008Y005400D03*
X013018Y005390D03*
X013018Y005380D03*
X013028Y005370D03*
X013328Y005530D03*
X013328Y005540D03*
X013328Y005550D03*
X013318Y005560D03*
X013308Y005580D03*
X013308Y005590D03*
X013298Y005600D03*
X013298Y006000D03*
X013308Y006020D03*
X013318Y006040D03*
X013008Y006200D03*
X013018Y006220D03*
X012688Y006340D03*
X012688Y006350D03*
X012678Y006330D03*
X012668Y006320D03*
X012668Y006310D03*
X012658Y006300D03*
X012658Y006290D03*
X012648Y006270D03*
X012628Y006220D03*
X012618Y006200D03*
X012828Y006580D03*
X012238Y006610D03*
X013028Y007010D03*
X012868Y007220D03*
X012738Y007440D03*
X012728Y007450D03*
X012728Y007460D03*
X012718Y007470D03*
X012718Y007480D03*
X012708Y007490D03*
X012708Y007500D03*
X012698Y007510D03*
X012688Y007530D03*
X013028Y007630D03*
X013038Y007610D03*
X013048Y007600D03*
X013048Y007590D03*
X013058Y007580D03*
X013058Y007570D03*
X013068Y007560D03*
X013118Y007480D03*
X013368Y007730D03*
X013368Y007740D03*
X013348Y007770D03*
X013338Y007780D03*
X013338Y007790D03*
X013338Y008210D03*
X013348Y008230D03*
X013368Y008260D03*
X013368Y008270D03*
X013058Y008420D03*
X013058Y008430D03*
X013048Y008410D03*
X013048Y008400D03*
X013038Y008390D03*
X013028Y008370D03*
X012698Y008480D03*
X012688Y008470D03*
X012688Y008460D03*
X012678Y008440D03*
X012668Y008420D03*
X012668Y008410D03*
X012708Y008500D03*
X012718Y008520D03*
X012728Y008540D03*
X012868Y008780D03*
X013118Y008520D03*
X013898Y007680D03*
X014028Y007480D03*
X014038Y007460D03*
X014048Y007440D03*
X014058Y007430D03*
X014058Y007420D03*
X014068Y007410D03*
X014068Y007400D03*
X013748Y007270D03*
X013748Y007260D03*
X013758Y007240D03*
X013738Y007280D03*
X013728Y007300D03*
X013718Y007320D03*
X013418Y007140D03*
X013428Y007120D03*
X013438Y006710D03*
X013428Y006700D03*
X013428Y006690D03*
X013418Y006670D03*
X013398Y006640D03*
X013728Y006510D03*
X013738Y006520D03*
X013748Y006540D03*
X013748Y006550D03*
X013758Y006570D03*
X013768Y006590D03*
X013718Y006490D03*
X014028Y006340D03*
X014038Y006350D03*
X014048Y006370D03*
X014058Y006380D03*
X014058Y006390D03*
X014068Y006400D03*
X014068Y006410D03*
X011928Y007410D03*
X011928Y007420D03*
X011928Y007430D03*
X011928Y007440D03*
X011928Y007450D03*
X009898Y006340D03*
X009018Y006910D03*
X009288Y007110D03*
X009128Y007430D03*
X007768Y007360D03*
D26*
X007608Y007430D03*
X009218Y006600D03*
X009278Y007100D03*
X009868Y007190D03*
X010488Y007170D03*
X011618Y007170D03*
X012768Y007390D03*
X012778Y007370D03*
X012798Y007340D03*
X012808Y007330D03*
X012828Y007300D03*
X012838Y007290D03*
X012868Y007240D03*
X013028Y007000D03*
X013028Y006810D03*
X012828Y006560D03*
X012788Y006500D03*
X012768Y006470D03*
X012758Y006460D03*
X012748Y006450D03*
X012748Y006440D03*
X012738Y006430D03*
X012728Y006420D03*
X012718Y006400D03*
X013038Y006250D03*
X013048Y006260D03*
X013058Y006270D03*
X013068Y006290D03*
X013078Y006300D03*
X013078Y006310D03*
X013658Y006400D03*
X013658Y006410D03*
X013678Y006440D03*
X013688Y006450D03*
X013698Y006460D03*
X013958Y006230D03*
X013968Y006240D03*
X013978Y006250D03*
X013948Y006210D03*
X013938Y006200D03*
X013908Y006150D03*
X014008Y006300D03*
X013698Y005890D03*
X013708Y005710D03*
X013078Y005300D03*
X013078Y005290D03*
X013068Y005310D03*
X013058Y005330D03*
X013048Y005340D03*
X012738Y005170D03*
X012728Y005180D03*
X012718Y005190D03*
X012718Y005200D03*
X012708Y005210D03*
X012748Y005150D03*
X012828Y005030D03*
X013698Y007350D03*
X013688Y007360D03*
X013678Y007370D03*
X013658Y007410D03*
X013938Y007610D03*
X013948Y007600D03*
X013958Y007580D03*
X013968Y007570D03*
X013978Y007560D03*
X013998Y007530D03*
X013908Y007660D03*
X013738Y008090D03*
X013108Y008490D03*
X013108Y008500D03*
X013098Y008480D03*
X013088Y008470D03*
X012778Y008620D03*
X012778Y008630D03*
X012788Y008640D03*
X012768Y008610D03*
X012758Y008590D03*
X012868Y008760D03*
X013088Y007530D03*
X013098Y007520D03*
X013108Y007510D03*
X013108Y007500D03*
D27*
X012823Y007310D03*
X012813Y007320D03*
X012843Y007280D03*
X012853Y007270D03*
X012863Y007250D03*
X013023Y006820D03*
X012823Y006550D03*
X012813Y006530D03*
X012803Y006520D03*
X012793Y006510D03*
X012783Y006490D03*
X012773Y006480D03*
X013063Y006280D03*
X013663Y006420D03*
X013673Y006430D03*
X013953Y006220D03*
X013933Y006190D03*
X013923Y006180D03*
X013913Y006170D03*
X013913Y006160D03*
X013703Y005880D03*
X013703Y005720D03*
X013063Y005320D03*
X012773Y005120D03*
X012763Y005130D03*
X012753Y005140D03*
X012743Y005160D03*
X012783Y005100D03*
X012793Y005090D03*
X012823Y005040D03*
X009883Y006830D03*
X009263Y007090D03*
X009043Y006930D03*
X008453Y007190D03*
X008463Y006610D03*
X007613Y006600D03*
X012793Y008650D03*
X012803Y008660D03*
X012813Y008670D03*
X012823Y008690D03*
X012833Y008700D03*
X012863Y008750D03*
X013743Y008080D03*
X013743Y007920D03*
X013743Y007910D03*
X013913Y007650D03*
X013913Y007640D03*
X013923Y007630D03*
X013933Y007620D03*
X013953Y007590D03*
X013663Y007400D03*
X013663Y007390D03*
X013673Y007380D03*
D28*
X013028Y006990D03*
X013028Y006980D03*
X012858Y007260D03*
X012818Y006540D03*
X012778Y005110D03*
X012798Y005080D03*
X012808Y005070D03*
X012818Y005060D03*
X012818Y005050D03*
X009898Y006700D03*
X009718Y006600D03*
X009058Y006940D03*
X009248Y007080D03*
X009658Y007110D03*
X012818Y008680D03*
X012838Y008710D03*
X012848Y008720D03*
X012858Y008730D03*
X012858Y008740D03*
D29*
X012868Y008830D03*
X013108Y008580D03*
X013358Y008330D03*
X013738Y008140D03*
X013738Y007860D03*
X013358Y007670D03*
X013658Y007490D03*
X013408Y007240D03*
X013108Y007420D03*
X012868Y007170D03*
X013018Y006760D03*
X012828Y006630D03*
X013078Y006380D03*
X013328Y006130D03*
X013658Y006330D03*
X013908Y006080D03*
X013328Y005470D03*
X013078Y005220D03*
X012328Y007200D03*
X012328Y007210D03*
X011128Y007180D03*
X011128Y007340D03*
X011128Y007450D03*
X010058Y006570D03*
X010048Y006580D03*
X010038Y006590D03*
X010068Y006540D03*
X009898Y006330D03*
X009708Y006410D03*
X009698Y006420D03*
X009678Y006440D03*
X009668Y006450D03*
X009658Y006460D03*
X009658Y006470D03*
X009648Y006480D03*
X009648Y006490D03*
X009648Y006500D03*
X009378Y006680D03*
X009728Y006910D03*
X009718Y006930D03*
X009708Y007060D03*
X009718Y007090D03*
X009138Y007440D03*
X008978Y007350D03*
X007438Y007350D03*
D30*
X007763Y006670D03*
X009033Y006920D03*
X012663Y005290D03*
X012673Y005280D03*
X012673Y005270D03*
X012683Y005260D03*
X012693Y005240D03*
X012703Y005230D03*
X012703Y005220D03*
X013033Y005360D03*
X013043Y005350D03*
X013083Y005280D03*
X013703Y005700D03*
X013703Y005900D03*
X013903Y006140D03*
X013983Y006260D03*
X013993Y006270D03*
X013993Y006280D03*
X014003Y006290D03*
X014013Y006310D03*
X014023Y006320D03*
X014023Y006330D03*
X013713Y006480D03*
X013703Y006470D03*
X013723Y006500D03*
X013653Y006390D03*
X013403Y006650D03*
X013413Y006660D03*
X013423Y006680D03*
X013023Y006800D03*
X012833Y006570D03*
X012723Y006410D03*
X012713Y006390D03*
X012703Y006380D03*
X012703Y006370D03*
X012693Y006360D03*
X013013Y006210D03*
X013023Y006230D03*
X013033Y006240D03*
X013083Y006320D03*
X013333Y006070D03*
X013333Y006060D03*
X013323Y006050D03*
X013423Y007130D03*
X013413Y007150D03*
X013403Y007160D03*
X013403Y007170D03*
X013703Y007340D03*
X013713Y007330D03*
X013723Y007310D03*
X013653Y007420D03*
X013653Y007430D03*
X013903Y007670D03*
X013983Y007550D03*
X013993Y007540D03*
X014003Y007520D03*
X014013Y007510D03*
X014013Y007500D03*
X014023Y007490D03*
X014033Y007470D03*
X013743Y007900D03*
X013743Y008100D03*
X013363Y008250D03*
X013353Y008240D03*
X013073Y008440D03*
X013073Y008450D03*
X013083Y008460D03*
X013113Y008510D03*
X012873Y008770D03*
X012763Y008600D03*
X012753Y008580D03*
X012743Y008570D03*
X012743Y008560D03*
X012733Y008550D03*
X012723Y008530D03*
X012713Y008510D03*
X012703Y008490D03*
X013353Y007760D03*
X013363Y007750D03*
X013083Y007540D03*
X013073Y007550D03*
X013113Y007490D03*
X012793Y007350D03*
X012783Y007360D03*
X012773Y007380D03*
X012763Y007400D03*
X012753Y007410D03*
X012753Y007420D03*
X012743Y007430D03*
X012873Y007230D03*
D31*
X012868Y007180D03*
X013028Y007040D03*
X013108Y007430D03*
X013358Y007680D03*
X013658Y007480D03*
X013408Y007230D03*
X012828Y006620D03*
X013078Y006370D03*
X013328Y006120D03*
X013658Y006340D03*
X013908Y006090D03*
X013328Y005480D03*
X013078Y005230D03*
X012328Y006720D03*
X012328Y006730D03*
X012338Y007190D03*
X011888Y007480D03*
X011528Y007070D03*
X011518Y007050D03*
X011518Y007040D03*
X011518Y007030D03*
X011128Y007350D03*
X011128Y007360D03*
X011128Y007430D03*
X011128Y007440D03*
X010758Y007180D03*
X010388Y007050D03*
X010388Y007040D03*
X010388Y007030D03*
X010048Y007030D03*
X010048Y007040D03*
X010048Y007020D03*
X010048Y007010D03*
X010048Y007000D03*
X010048Y006990D03*
X010048Y006980D03*
X010048Y006970D03*
X010038Y006950D03*
X010038Y006940D03*
X010038Y006930D03*
X010028Y006920D03*
X010028Y006910D03*
X010018Y006900D03*
X010008Y006890D03*
X009898Y006810D03*
X009768Y006870D03*
X010038Y007070D03*
X010028Y007100D03*
X010008Y007130D03*
X009998Y007140D03*
X009348Y007210D03*
X009348Y007220D03*
X009348Y007230D03*
X009348Y007240D03*
X009338Y007280D03*
X009318Y007320D03*
X009308Y007330D03*
X009298Y007340D03*
X008978Y006780D03*
X008978Y006770D03*
X008978Y006760D03*
X008988Y006750D03*
X008988Y006740D03*
X008998Y006720D03*
X009008Y006710D03*
X008668Y006780D03*
X008668Y006790D03*
X008658Y006760D03*
X008658Y006750D03*
X008648Y006730D03*
X008638Y006720D03*
X008638Y006710D03*
X008628Y006700D03*
X008618Y006690D03*
X008608Y006680D03*
X008678Y006830D03*
X008678Y006970D03*
X008668Y007010D03*
X008668Y007020D03*
X008658Y007040D03*
X008658Y007050D03*
X008648Y007060D03*
X008648Y007070D03*
X008638Y007080D03*
X008628Y007100D03*
X008618Y007110D03*
X008608Y007120D03*
X008598Y007130D03*
X008308Y007120D03*
X008298Y007110D03*
X008288Y007100D03*
X008278Y007090D03*
X008278Y007080D03*
X008268Y007070D03*
X008268Y007060D03*
X008258Y007050D03*
X008258Y007040D03*
X008248Y007020D03*
X008248Y007010D03*
X008238Y006970D03*
X008238Y006830D03*
X008248Y006790D03*
X008248Y006780D03*
X008258Y006760D03*
X008258Y006750D03*
X008268Y006740D03*
X008268Y006730D03*
X008278Y006720D03*
X008278Y006710D03*
X008288Y006700D03*
X008298Y006690D03*
X008308Y006680D03*
X008318Y006670D03*
X007448Y006670D03*
X009648Y006550D03*
X009648Y006540D03*
X009728Y006400D03*
X010058Y006450D03*
X010068Y006460D03*
X010068Y006470D03*
X010068Y006480D03*
X013108Y008570D03*
X012868Y008820D03*
X013358Y008320D03*
D32*
X013358Y008310D03*
X013108Y008560D03*
X012868Y008810D03*
X013738Y007870D03*
X013358Y007690D03*
X013408Y007220D03*
X012868Y007190D03*
X012348Y007180D03*
X012318Y006690D03*
X012828Y006610D03*
X013078Y006360D03*
X013328Y006110D03*
X013658Y006350D03*
X013908Y006100D03*
X013408Y006600D03*
X013328Y005490D03*
X013078Y005240D03*
X011128Y007370D03*
X011128Y007380D03*
X011128Y007390D03*
X011128Y007400D03*
X011128Y007410D03*
X011128Y007420D03*
X009988Y006870D03*
X010048Y006430D03*
X010038Y006420D03*
X010028Y006410D03*
X009358Y006670D03*
X009038Y006680D03*
X008978Y006820D03*
X008978Y006830D03*
X008978Y006840D03*
X008578Y006660D03*
X008338Y006660D03*
X007928Y006840D03*
X007928Y006850D03*
X007938Y006870D03*
X007938Y006880D03*
X007948Y006900D03*
X007948Y006910D03*
X007948Y006920D03*
X007948Y006930D03*
X007958Y006950D03*
X007958Y006960D03*
X007958Y006970D03*
X007958Y006980D03*
X007958Y006990D03*
X007958Y007000D03*
X007958Y007010D03*
X007958Y007020D03*
X007958Y007030D03*
X007958Y007040D03*
X007958Y007050D03*
X007958Y007060D03*
X007958Y007070D03*
X007958Y007080D03*
X007948Y007100D03*
X007948Y007110D03*
X007948Y007120D03*
X007948Y007130D03*
X007938Y007150D03*
X007938Y007160D03*
X007928Y007180D03*
X007928Y007190D03*
X007918Y007210D03*
X007908Y007230D03*
X007898Y007250D03*
X007888Y007260D03*
X007888Y007270D03*
X007878Y007280D03*
X007868Y007290D03*
X007858Y007300D03*
X007848Y007310D03*
X007458Y007360D03*
X007918Y006820D03*
X007908Y006800D03*
X007898Y006790D03*
X007898Y006780D03*
X007888Y006770D03*
X007878Y006760D03*
X007868Y006740D03*
X008318Y007130D03*
X008338Y007140D03*
X008578Y007140D03*
X009338Y007180D03*
D33*
X009268Y007360D03*
X008988Y006860D03*
X010018Y006400D03*
X010478Y007190D03*
X011158Y007160D03*
X011608Y007190D03*
X012828Y006600D03*
X013078Y006350D03*
X013328Y006100D03*
X013258Y005900D03*
X013258Y005890D03*
X013258Y005710D03*
X013258Y005700D03*
X013328Y005500D03*
X013078Y005250D03*
X012898Y005730D03*
X012898Y005740D03*
X012898Y005750D03*
X012898Y005760D03*
X012898Y005770D03*
X012898Y005780D03*
X012898Y005790D03*
X012898Y005800D03*
X012898Y005810D03*
X012898Y005820D03*
X012898Y005830D03*
X012898Y005840D03*
X012898Y005850D03*
X012898Y005860D03*
X012898Y005870D03*
X013658Y006360D03*
X013908Y006110D03*
X013408Y006610D03*
X013478Y006830D03*
X013488Y006880D03*
X013488Y006900D03*
X013488Y006910D03*
X013478Y006980D03*
X013028Y007030D03*
X012868Y007200D03*
X013358Y007700D03*
X013358Y008300D03*
X012868Y008800D03*
X014168Y007100D03*
X014168Y006710D03*
X007818Y006700D03*
X007808Y007340D03*
D34*
X007788Y006680D03*
X009008Y006890D03*
X009298Y007120D03*
X009308Y007130D03*
X009928Y006710D03*
X011848Y007100D03*
X011918Y007460D03*
X012628Y007700D03*
X012628Y007710D03*
X012628Y007720D03*
X012618Y007730D03*
X012618Y007740D03*
X012618Y007750D03*
X012608Y007780D03*
X012608Y007790D03*
X012598Y007840D03*
X012598Y007850D03*
X012598Y007860D03*
X012598Y007870D03*
X012598Y007880D03*
X012598Y008110D03*
X012598Y008120D03*
X012608Y008200D03*
X012608Y008210D03*
X012618Y008250D03*
X012618Y008260D03*
X012628Y008280D03*
X012628Y008290D03*
X012658Y008380D03*
X012978Y008270D03*
X012978Y008260D03*
X012978Y008250D03*
X012968Y008240D03*
X012968Y008230D03*
X012968Y008220D03*
X012958Y008200D03*
X012948Y008160D03*
X012948Y008150D03*
X012938Y008090D03*
X012938Y007910D03*
X012948Y007850D03*
X012958Y007800D03*
X012968Y007780D03*
X012968Y007770D03*
X012968Y007760D03*
X012978Y007750D03*
X012978Y007740D03*
X012978Y007730D03*
X012988Y007710D03*
X012998Y007690D03*
X013308Y007850D03*
X013308Y007860D03*
X013298Y007870D03*
X013298Y007880D03*
X013318Y007830D03*
X013328Y007810D03*
X013368Y007720D03*
X013288Y007940D03*
X013288Y008060D03*
X013298Y008120D03*
X013298Y008130D03*
X013308Y008140D03*
X013308Y008150D03*
X013318Y008170D03*
X013328Y008190D03*
X013368Y008280D03*
X012998Y008310D03*
X012988Y008280D03*
X012868Y008790D03*
X012638Y007680D03*
X012638Y007670D03*
X012868Y007210D03*
X013028Y007020D03*
X013398Y007190D03*
X013448Y007080D03*
X013458Y007060D03*
X013458Y007050D03*
X013468Y007040D03*
X013468Y007030D03*
X013468Y006790D03*
X013468Y006780D03*
X013468Y006770D03*
X013458Y006760D03*
X013458Y006750D03*
X013448Y006730D03*
X013788Y006640D03*
X013798Y006660D03*
X013798Y006670D03*
X013798Y006680D03*
X013808Y006690D03*
X013808Y006700D03*
X013818Y006730D03*
X013818Y006740D03*
X013818Y006750D03*
X013828Y006780D03*
X013828Y006790D03*
X013828Y006800D03*
X013828Y006810D03*
X013828Y007000D03*
X013828Y007010D03*
X013828Y007020D03*
X013828Y007030D03*
X013818Y007060D03*
X013818Y007070D03*
X013818Y007080D03*
X013808Y007110D03*
X013808Y007120D03*
X013798Y007140D03*
X013798Y007150D03*
X013788Y007170D03*
X014118Y007280D03*
X014118Y007290D03*
X014128Y007260D03*
X014128Y007250D03*
X014128Y007240D03*
X014138Y007230D03*
X014138Y007220D03*
X014148Y007200D03*
X014148Y007190D03*
X014148Y007180D03*
X014158Y007160D03*
X014158Y007150D03*
X014158Y007140D03*
X014158Y007130D03*
X014178Y007030D03*
X014178Y007020D03*
X014178Y006790D03*
X014178Y006780D03*
X014178Y006770D03*
X014178Y006760D03*
X014178Y006750D03*
X014158Y006680D03*
X014158Y006670D03*
X014158Y006660D03*
X014158Y006650D03*
X014148Y006630D03*
X014148Y006620D03*
X014148Y006610D03*
X014138Y006600D03*
X014138Y006590D03*
X014138Y006580D03*
X014128Y006570D03*
X014128Y006560D03*
X014128Y006550D03*
X014118Y006520D03*
X014098Y006470D03*
X013658Y006370D03*
X013908Y006120D03*
X013328Y006090D03*
X013288Y005980D03*
X013278Y005960D03*
X013278Y005950D03*
X013268Y005940D03*
X013268Y005930D03*
X013248Y005860D03*
X013248Y005850D03*
X013248Y005750D03*
X013268Y005670D03*
X013268Y005660D03*
X013278Y005650D03*
X013278Y005640D03*
X013288Y005620D03*
X013328Y005510D03*
X013078Y005260D03*
X012958Y005500D03*
X012948Y005530D03*
X012948Y005540D03*
X012938Y005550D03*
X012938Y005560D03*
X012928Y005570D03*
X012928Y005580D03*
X012928Y005590D03*
X012918Y005620D03*
X012918Y005630D03*
X012908Y005690D03*
X012908Y005700D03*
X012908Y005910D03*
X012908Y005920D03*
X012908Y005930D03*
X012918Y005970D03*
X012918Y005980D03*
X012918Y005990D03*
X012928Y006010D03*
X012928Y006020D03*
X012928Y006030D03*
X012938Y006040D03*
X012938Y006050D03*
X012948Y006070D03*
X012948Y006080D03*
X012958Y006100D03*
X013078Y006340D03*
X012828Y006590D03*
X012608Y006180D03*
X012608Y006170D03*
X012598Y006140D03*
X012598Y006130D03*
X012588Y006110D03*
X012578Y006080D03*
X012578Y006070D03*
X012578Y006060D03*
X012568Y006050D03*
X012568Y006040D03*
X012568Y006030D03*
X012568Y006020D03*
X012568Y006010D03*
X012558Y005980D03*
X012558Y005970D03*
X012558Y005960D03*
X012558Y005950D03*
X012558Y005940D03*
X012558Y005930D03*
X012548Y005920D03*
X012548Y005910D03*
X012548Y005900D03*
X012548Y005890D03*
X012548Y005880D03*
X012548Y005870D03*
X012548Y005860D03*
X012548Y005850D03*
X012548Y005840D03*
X012548Y005830D03*
X012548Y005820D03*
X012548Y005810D03*
X012548Y005800D03*
X012548Y005790D03*
X012548Y005780D03*
X012548Y005770D03*
X012548Y005760D03*
X012548Y005750D03*
X012548Y005740D03*
X012548Y005730D03*
X012548Y005720D03*
X012548Y005710D03*
X012548Y005700D03*
X012548Y005690D03*
X012548Y005680D03*
X012558Y005630D03*
X012558Y005620D03*
X012558Y005610D03*
X012568Y005590D03*
X012568Y005580D03*
X012568Y005570D03*
X012568Y005560D03*
X012578Y005530D03*
X012578Y005520D03*
X012598Y005460D03*
X014098Y007340D03*
D35*
X013078Y006440D03*
X012088Y006680D03*
X013318Y005410D03*
D36*
X013703Y005730D03*
X013703Y005740D03*
X013703Y005750D03*
X013703Y005850D03*
X013703Y005860D03*
X013703Y005870D03*
X013023Y006830D03*
X012233Y006620D03*
X011503Y006650D03*
X011623Y007160D03*
X010493Y007160D03*
X010373Y006650D03*
X009663Y007120D03*
X009073Y006950D03*
X013743Y007930D03*
X013743Y007940D03*
X013743Y008070D03*
D37*
X013738Y008060D03*
X013738Y008050D03*
X013738Y007950D03*
X013028Y006970D03*
X013028Y006960D03*
X013028Y006950D03*
X013028Y006940D03*
X013028Y006870D03*
X013028Y006860D03*
X013028Y006850D03*
X013028Y006840D03*
X011888Y006650D03*
X011888Y006640D03*
X011888Y006630D03*
X011888Y006620D03*
X011888Y006610D03*
X011888Y006600D03*
X011508Y006600D03*
X011508Y006610D03*
X011508Y006620D03*
X011508Y006630D03*
X011508Y006640D03*
X010758Y006640D03*
X010758Y006650D03*
X010758Y006630D03*
X010758Y006620D03*
X010758Y006610D03*
X010758Y006600D03*
X010378Y006600D03*
X010378Y006610D03*
X010378Y006620D03*
X010378Y006630D03*
X010378Y006640D03*
X009898Y006350D03*
X009238Y007070D03*
X009668Y007130D03*
X013708Y005840D03*
X013708Y005770D03*
X013708Y005760D03*
D38*
X013703Y005780D03*
X013703Y005820D03*
X013703Y005830D03*
X012233Y006630D03*
X012233Y006640D03*
X011133Y006650D03*
X009883Y006840D03*
X009863Y007180D03*
X009673Y007140D03*
X009223Y007060D03*
X009083Y006960D03*
X009123Y007420D03*
X008453Y007180D03*
X008463Y006620D03*
X013743Y007960D03*
X013743Y007970D03*
X013743Y007980D03*
X013743Y008030D03*
X013743Y008040D03*
D39*
X013738Y008020D03*
X013738Y008010D03*
X013028Y006930D03*
X013028Y006920D03*
X013028Y006890D03*
X013028Y006880D03*
X012238Y006660D03*
X012238Y006650D03*
X011628Y007150D03*
X011128Y006640D03*
X011128Y006630D03*
X011128Y006620D03*
X011128Y006610D03*
X011128Y006600D03*
X010498Y007150D03*
X009878Y006690D03*
X009208Y007050D03*
X009098Y006970D03*
X013698Y005810D03*
X013708Y005790D03*
D40*
X013703Y005800D03*
X012243Y006670D03*
X013023Y006900D03*
X013023Y006910D03*
X013743Y007990D03*
X013743Y008000D03*
X009883Y006850D03*
X009753Y006610D03*
X009123Y006990D03*
X009113Y006980D03*
X009193Y007040D03*
X009683Y007150D03*
D41*
X012828Y006680D03*
X012868Y007120D03*
X013108Y007370D03*
X013658Y007540D03*
X013418Y006520D03*
X013908Y006030D03*
X013108Y008630D03*
X012868Y008880D03*
D42*
X012868Y008870D03*
X013108Y008620D03*
X013658Y007530D03*
X013108Y007380D03*
X012868Y007130D03*
X012828Y006670D03*
X013418Y006530D03*
X013318Y006180D03*
X013908Y006040D03*
X011128Y007310D03*
X011128Y007480D03*
D43*
X011098Y007200D03*
X012298Y007320D03*
X012298Y007330D03*
X012868Y007140D03*
X013028Y007060D03*
X013108Y007390D03*
X013658Y007520D03*
X012828Y006660D03*
X013418Y006540D03*
X013318Y006170D03*
X013908Y006050D03*
X013108Y008610D03*
X012868Y008860D03*
X009958Y006790D03*
X009968Y006770D03*
X008958Y007200D03*
D44*
X008958Y007210D03*
X008958Y007220D03*
X008958Y007230D03*
X008958Y007240D03*
X008958Y007250D03*
X008958Y007260D03*
X009398Y006840D03*
X009398Y006830D03*
X009398Y006820D03*
X009398Y006810D03*
X009398Y006800D03*
X009398Y006790D03*
X009978Y006750D03*
X010728Y007200D03*
X011128Y007320D03*
X011128Y007470D03*
X011858Y007500D03*
X012308Y007290D03*
X012308Y007280D03*
X012868Y007150D03*
X013108Y007400D03*
X013658Y007510D03*
X013738Y007850D03*
X013108Y008600D03*
X012868Y008850D03*
X012828Y006650D03*
X013418Y006550D03*
X013318Y006160D03*
X013908Y006060D03*
X007418Y006750D03*
X007418Y006760D03*
X007418Y006770D03*
X007418Y006780D03*
X007418Y006790D03*
X007418Y007240D03*
X007418Y007250D03*
X007418Y007260D03*
X007418Y007270D03*
X007418Y007280D03*
X007418Y007290D03*
D45*
X007428Y007340D03*
X007428Y006690D03*
X008968Y007330D03*
X009388Y006700D03*
X009388Y006690D03*
X009978Y006730D03*
X009868Y007210D03*
X011128Y007330D03*
X011128Y007460D03*
X012318Y007250D03*
X012318Y007240D03*
X012868Y007160D03*
X013028Y007050D03*
X013108Y007410D03*
X013408Y007250D03*
X013658Y007500D03*
X013358Y007660D03*
X013358Y008340D03*
X013108Y008590D03*
X012868Y008840D03*
X012828Y006640D03*
X013908Y006070D03*
D46*
X013663Y006270D03*
X013323Y006190D03*
X013353Y007610D03*
X013903Y007790D03*
X013353Y008390D03*
D47*
X009863Y006680D03*
X009893Y006360D03*
X008453Y007170D03*
X007603Y007420D03*
X007603Y006610D03*
D48*
X008458Y006640D03*
X008458Y007160D03*
X009848Y006670D03*
X009888Y006370D03*
D49*
X009888Y006380D03*
X009818Y006640D03*
X009118Y007390D03*
D50*
X009133Y007370D03*
X009223Y006640D03*
X009883Y006390D03*
D51*
X009228Y006610D03*
X009138Y007000D03*
X009148Y007010D03*
X009168Y007020D03*
X009178Y007030D03*
X008458Y006630D03*
D52*
X009208Y006660D03*
X009828Y006620D03*
X007608Y006640D03*
D53*
X009233Y006620D03*
X012273Y007160D03*
D54*
X012283Y007150D03*
X012283Y007140D03*
X012283Y007130D03*
X012283Y007120D03*
X012283Y007110D03*
X009833Y006650D03*
X007603Y006620D03*
D55*
X009233Y006630D03*
X009813Y006630D03*
X009123Y007380D03*
D56*
X007598Y007400D03*
X007598Y006630D03*
D57*
X007603Y007390D03*
X009213Y006650D03*
D58*
X009838Y006660D03*
X009118Y007400D03*
X008458Y007150D03*
X008458Y006650D03*
X007598Y007410D03*
D59*
X007613Y007380D03*
X007613Y006650D03*
X011713Y007140D03*
D60*
X011703Y007110D03*
X007623Y007370D03*
X007623Y006660D03*
D61*
X009883Y006860D03*
X012263Y007170D03*
D62*
X010613Y007110D03*
D63*
X011708Y007120D03*
X011708Y007130D03*
D64*
X010618Y007130D03*
X010618Y007120D03*
D65*
X010623Y007140D03*
D66*
X009783Y007160D03*
D67*
X009778Y007170D03*
D68*
X009118Y007410D03*
D69*
X013113Y008640D03*
D70*
X016779Y011450D02*
X016781Y011489D01*
X016787Y011528D01*
X016797Y011566D01*
X016810Y011603D01*
X016827Y011638D01*
X016847Y011672D01*
X016871Y011703D01*
X016898Y011732D01*
X016927Y011758D01*
X016959Y011781D01*
X016993Y011801D01*
X017029Y011817D01*
X017066Y011829D01*
X017105Y011838D01*
X017144Y011843D01*
X017183Y011844D01*
X017222Y011841D01*
X017261Y011834D01*
X017298Y011823D01*
X017335Y011809D01*
X017370Y011791D01*
X017403Y011770D01*
X017434Y011745D01*
X017462Y011718D01*
X017487Y011688D01*
X017509Y011655D01*
X017528Y011621D01*
X017543Y011585D01*
X017555Y011547D01*
X017563Y011509D01*
X017567Y011470D01*
X017567Y011430D01*
X017563Y011391D01*
X017555Y011353D01*
X017543Y011315D01*
X017528Y011279D01*
X017509Y011245D01*
X017487Y011212D01*
X017462Y011182D01*
X017434Y011155D01*
X017403Y011130D01*
X017370Y011109D01*
X017335Y011091D01*
X017298Y011077D01*
X017261Y011066D01*
X017222Y011059D01*
X017183Y011056D01*
X017144Y011057D01*
X017105Y011062D01*
X017066Y011071D01*
X017029Y011083D01*
X016993Y011099D01*
X016959Y011119D01*
X016927Y011142D01*
X016898Y011168D01*
X016871Y011197D01*
X016847Y011228D01*
X016827Y011262D01*
X016810Y011297D01*
X016797Y011334D01*
X016787Y011372D01*
X016781Y011411D01*
X016779Y011450D01*
X016779Y000950D02*
X016781Y000989D01*
X016787Y001028D01*
X016797Y001066D01*
X016810Y001103D01*
X016827Y001138D01*
X016847Y001172D01*
X016871Y001203D01*
X016898Y001232D01*
X016927Y001258D01*
X016959Y001281D01*
X016993Y001301D01*
X017029Y001317D01*
X017066Y001329D01*
X017105Y001338D01*
X017144Y001343D01*
X017183Y001344D01*
X017222Y001341D01*
X017261Y001334D01*
X017298Y001323D01*
X017335Y001309D01*
X017370Y001291D01*
X017403Y001270D01*
X017434Y001245D01*
X017462Y001218D01*
X017487Y001188D01*
X017509Y001155D01*
X017528Y001121D01*
X017543Y001085D01*
X017555Y001047D01*
X017563Y001009D01*
X017567Y000970D01*
X017567Y000930D01*
X017563Y000891D01*
X017555Y000853D01*
X017543Y000815D01*
X017528Y000779D01*
X017509Y000745D01*
X017487Y000712D01*
X017462Y000682D01*
X017434Y000655D01*
X017403Y000630D01*
X017370Y000609D01*
X017335Y000591D01*
X017298Y000577D01*
X017261Y000566D01*
X017222Y000559D01*
X017183Y000556D01*
X017144Y000557D01*
X017105Y000562D01*
X017066Y000571D01*
X017029Y000583D01*
X016993Y000599D01*
X016959Y000619D01*
X016927Y000642D01*
X016898Y000668D01*
X016871Y000697D01*
X016847Y000728D01*
X016827Y000762D01*
X016810Y000797D01*
X016797Y000834D01*
X016787Y000872D01*
X016781Y000911D01*
X016779Y000950D01*
X000779Y000950D02*
X000781Y000989D01*
X000787Y001028D01*
X000797Y001066D01*
X000810Y001103D01*
X000827Y001138D01*
X000847Y001172D01*
X000871Y001203D01*
X000898Y001232D01*
X000927Y001258D01*
X000959Y001281D01*
X000993Y001301D01*
X001029Y001317D01*
X001066Y001329D01*
X001105Y001338D01*
X001144Y001343D01*
X001183Y001344D01*
X001222Y001341D01*
X001261Y001334D01*
X001298Y001323D01*
X001335Y001309D01*
X001370Y001291D01*
X001403Y001270D01*
X001434Y001245D01*
X001462Y001218D01*
X001487Y001188D01*
X001509Y001155D01*
X001528Y001121D01*
X001543Y001085D01*
X001555Y001047D01*
X001563Y001009D01*
X001567Y000970D01*
X001567Y000930D01*
X001563Y000891D01*
X001555Y000853D01*
X001543Y000815D01*
X001528Y000779D01*
X001509Y000745D01*
X001487Y000712D01*
X001462Y000682D01*
X001434Y000655D01*
X001403Y000630D01*
X001370Y000609D01*
X001335Y000591D01*
X001298Y000577D01*
X001261Y000566D01*
X001222Y000559D01*
X001183Y000556D01*
X001144Y000557D01*
X001105Y000562D01*
X001066Y000571D01*
X001029Y000583D01*
X000993Y000599D01*
X000959Y000619D01*
X000927Y000642D01*
X000898Y000668D01*
X000871Y000697D01*
X000847Y000728D01*
X000827Y000762D01*
X000810Y000797D01*
X000797Y000834D01*
X000787Y000872D01*
X000781Y000911D01*
X000779Y000950D01*
X000779Y011450D02*
X000781Y011489D01*
X000787Y011528D01*
X000797Y011566D01*
X000810Y011603D01*
X000827Y011638D01*
X000847Y011672D01*
X000871Y011703D01*
X000898Y011732D01*
X000927Y011758D01*
X000959Y011781D01*
X000993Y011801D01*
X001029Y011817D01*
X001066Y011829D01*
X001105Y011838D01*
X001144Y011843D01*
X001183Y011844D01*
X001222Y011841D01*
X001261Y011834D01*
X001298Y011823D01*
X001335Y011809D01*
X001370Y011791D01*
X001403Y011770D01*
X001434Y011745D01*
X001462Y011718D01*
X001487Y011688D01*
X001509Y011655D01*
X001528Y011621D01*
X001543Y011585D01*
X001555Y011547D01*
X001563Y011509D01*
X001567Y011470D01*
X001567Y011430D01*
X001563Y011391D01*
X001555Y011353D01*
X001543Y011315D01*
X001528Y011279D01*
X001509Y011245D01*
X001487Y011212D01*
X001462Y011182D01*
X001434Y011155D01*
X001403Y011130D01*
X001370Y011109D01*
X001335Y011091D01*
X001298Y011077D01*
X001261Y011066D01*
X001222Y011059D01*
X001183Y011056D01*
X001144Y011057D01*
X001105Y011062D01*
X001066Y011071D01*
X001029Y011083D01*
X000993Y011099D01*
X000959Y011119D01*
X000927Y011142D01*
X000898Y011168D01*
X000871Y011197D01*
X000847Y011228D01*
X000827Y011262D01*
X000810Y011297D01*
X000797Y011334D01*
X000787Y011372D01*
X000781Y011411D01*
X000779Y011450D01*
M02*
